<?xml version="1.0" encoding="UTF-8" standalone="no"?>
<!DOCTYPE svg PUBLIC "-//W3C//DTD SVG 1.1//EN"
 "http://www.w3.org/Graphics/SVG/1.1/DTD/svg11.dtd">
<!-- Generated by graphviz version 7.1.0 (20230121.1956)
 -->
<!-- Pages: 1 -->
<svg width="268pt" height="99pt"
 viewBox="0.00 0.00 267.60 99.00" xmlns="http://www.w3.org/2000/svg" xmlns:xlink="http://www.w3.org/1999/xlink">
<g id="graph0" class="graph" transform="scale(1 1) rotate(0) translate(4 95)">
<polygon fill="white" stroke="none" points="-4,4 -4,-95 263.6,-95 263.6,4 -4,4"/>
<g id="clust1" class="cluster">
<title>cluster_F</title>
<polygon fill="none" stroke="gray" stroke-dasharray="5,2" points="64,-8 64,-83 195.6,-83 195.6,-8 64,-8"/>
<text text-anchor="middle" x="129.8" y="-67.8" font-family="Times,serif" font-size="14.00">NFA</text>
</g>
<!-- start -->
<g id="node1" class="node">
<title>start</title>
<ellipse fill="black" stroke="black" cx="73.8" cy="-34" rx="1.8" ry="1.8"/>
</g>
<!-- by -->
<g id="node2" class="node">
<title>by</title>
<ellipse fill="none" stroke="grey" stroke-dasharray="5,2" cx="129.8" cy="-34" rx="18.4" ry="18.4"/>
<text text-anchor="middle" x="129.8" y="-30.3" font-family="Times,serif" font-size="14.00">...</text>
</g>
<!-- start&#45;&gt;by -->
<!-- end -->
<g id="node3" class="node">
<title>end</title>
<ellipse fill="black" stroke="black" cx="185.8" cy="-34" rx="1.8" ry="1.8"/>
</g>
<!-- by&#45;&gt;end -->
<!-- 1 -->
<g id="node5" class="node">
<title>1</title>
<ellipse fill="none" stroke="black" cx="241.6" cy="-34" rx="18" ry="18"/>
<text text-anchor="middle" x="241.6" y="-30.3" font-family="Times,serif" font-size="14.00">1</text>
</g>
<!-- end&#45;&gt;1 -->
<g id="edge4" class="edge">
<title>end&#45;&gt;1</title>
<path fill="none" stroke="black" d="M187.73,-34C190.83,-34 201.16,-34 211.88,-34"/>
<polygon fill="black" stroke="black" points="211.82,-37.5 221.82,-34 211.82,-30.5 211.82,-37.5"/>
</g>
<!-- 0 -->
<g id="node4" class="node">
<title>0</title>
<ellipse fill="none" stroke="black" cx="18" cy="-34" rx="18" ry="18"/>
<text text-anchor="middle" x="18" y="-30.3" font-family="Times,serif" font-size="14.00">0</text>
</g>
<!-- 0&#45;&gt;start -->
<g id="edge3" class="edge">
<title>0&#45;&gt;start</title>
<path fill="none" stroke="black" d="M36.32,-34C44.13,-34 53.19,-34 60.32,-34"/>
<polygon fill="black" stroke="black" points="60.13,-37.5 70.13,-34 60.13,-30.5 60.13,-37.5"/>
</g>
</g>
</svg>
