<?xml version="1.0" encoding="UTF-8" standalone="no"?>
<!DOCTYPE svg PUBLIC "-//W3C//DTD SVG 1.1//EN"
 "http://www.w3.org/Graphics/SVG/1.1/DTD/svg11.dtd">
<!-- Generated by graphviz version 7.1.0 (20230121.1956)
 -->
<!-- Pages: 1 -->
<svg width="509pt" height="99pt"
 viewBox="0.00 0.00 509.19 99.00" xmlns="http://www.w3.org/2000/svg" xmlns:xlink="http://www.w3.org/1999/xlink">
<g id="graph0" class="graph" transform="scale(1 1) rotate(0) translate(4 95)">
<polygon fill="white" stroke="none" points="-4,4 -4,-95 505.19,-95 505.19,4 -4,4"/>
<g id="clust1" class="cluster">
<title>cluster_1</title>
<polygon fill="none" stroke="gray" stroke-dasharray="5,2" points="64,-8 64,-83 195.6,-83 195.6,-8 64,-8"/>
<text text-anchor="middle" x="129.8" y="-67.8" font-family="Times,serif" font-size="14.00">NFA&#45;1</text>
</g>
<g id="clust2" class="cluster">
<title>cluster_2</title>
<polygon fill="none" stroke="gray" stroke-dasharray="5,2" points="305.6,-8 305.6,-83 437.19,-83 437.19,-8 305.6,-8"/>
<text text-anchor="middle" x="371.4" y="-67.8" font-family="Times,serif" font-size="14.00">NFA&#45;2</text>
</g>
<!-- start1 -->
<g id="node1" class="node">
<title>start1</title>
<ellipse fill="black" stroke="black" cx="73.8" cy="-34" rx="1.8" ry="1.8"/>
</g>
<!-- by1 -->
<g id="node2" class="node">
<title>by1</title>
<ellipse fill="none" stroke="grey" stroke-dasharray="5,2" cx="129.8" cy="-34" rx="18.4" ry="18.4"/>
<text text-anchor="middle" x="129.8" y="-30.3" font-family="Times,serif" font-size="14.00">...</text>
</g>
<!-- start1&#45;&gt;by1 -->
<!-- end1 -->
<g id="node3" class="node">
<title>end1</title>
<ellipse fill="black" stroke="black" cx="185.8" cy="-34" rx="1.8" ry="1.8"/>
</g>
<!-- by1&#45;&gt;end1 -->
<!-- dots -->
<g id="node7" class="node">
<title>dots</title>
<polygon fill="none" stroke="gray" stroke-dasharray="5,2" points="277.6,-52 223.6,-52 223.6,-16 277.6,-16 277.6,-52"/>
<text text-anchor="middle" x="250.6" y="-30.3" font-family="Times,serif" font-size="14.00">...</text>
</g>
<!-- end1&#45;&gt;dots -->
<g id="edge5" class="edge">
<title>end1&#45;&gt;dots</title>
<path fill="none" stroke="black" d="M187.89,-34C191.08,-34 200.86,-34 211.73,-34"/>
<polygon fill="black" stroke="black" points="211.7,-37.5 221.7,-34 211.7,-30.5 211.7,-37.5"/>
</g>
<!-- start2 -->
<g id="node4" class="node">
<title>start2</title>
<ellipse fill="black" stroke="black" cx="315.4" cy="-34" rx="1.8" ry="1.8"/>
</g>
<!-- by2 -->
<g id="node5" class="node">
<title>by2</title>
<ellipse fill="none" stroke="grey" stroke-dasharray="5,2" cx="371.4" cy="-34" rx="18.4" ry="18.4"/>
<text text-anchor="middle" x="371.4" y="-30.3" font-family="Times,serif" font-size="14.00">...</text>
</g>
<!-- start2&#45;&gt;by2 -->
<!-- end2 -->
<g id="node6" class="node">
<title>end2</title>
<ellipse fill="black" stroke="black" cx="427.39" cy="-34" rx="1.8" ry="1.8"/>
</g>
<!-- by2&#45;&gt;end2 -->
<!-- 1 -->
<g id="node9" class="node">
<title>1</title>
<ellipse fill="none" stroke="black" cx="483.19" cy="-34" rx="18" ry="18"/>
<text text-anchor="middle" x="483.19" y="-30.3" font-family="Times,serif" font-size="14.00">1</text>
</g>
<!-- end2&#45;&gt;1 -->
<g id="edge8" class="edge">
<title>end2&#45;&gt;1</title>
<path fill="none" stroke="black" d="M429.33,-34C432.42,-34 442.76,-34 453.48,-34"/>
<polygon fill="black" stroke="black" points="453.42,-37.5 463.42,-34 453.42,-30.5 453.42,-37.5"/>
</g>
<!-- dots&#45;&gt;start2 -->
<g id="edge6" class="edge">
<title>dots&#45;&gt;start2</title>
<path fill="none" stroke="black" d="M277.87,-34C286.18,-34 295,-34 301.88,-34"/>
<polygon fill="black" stroke="black" points="301.8,-37.5 311.8,-34 301.8,-30.5 301.8,-37.5"/>
</g>
<!-- 0 -->
<g id="node8" class="node">
<title>0</title>
<ellipse fill="none" stroke="black" cx="18" cy="-34" rx="18" ry="18"/>
<text text-anchor="middle" x="18" y="-30.3" font-family="Times,serif" font-size="14.00">0</text>
</g>
<!-- 0&#45;&gt;start1 -->
<g id="edge7" class="edge">
<title>0&#45;&gt;start1</title>
<path fill="none" stroke="black" d="M36.32,-34C44.13,-34 53.19,-34 60.32,-34"/>
<polygon fill="black" stroke="black" points="60.13,-37.5 70.13,-34 60.13,-30.5 60.13,-37.5"/>
</g>
</g>
</svg>
