<?xml version="1.0" encoding="UTF-8" standalone="no"?>
<!DOCTYPE svg PUBLIC "-//W3C//DTD SVG 1.1//EN"
 "http://www.w3.org/Graphics/SVG/1.1/DTD/svg11.dtd">
<!-- Generated by graphviz version 7.1.0 (20230121.1956)
 -->
<!-- Pages: 1 -->
<svg width="429pt" height="173pt"
 viewBox="0.00 0.00 428.59 173.39" xmlns="http://www.w3.org/2000/svg" xmlns:xlink="http://www.w3.org/1999/xlink">
<g id="graph0" class="graph" transform="scale(1 1) rotate(0) translate(4 169.39)">
<polygon fill="white" stroke="none" points="-4,4 -4,-169.39 424.59,-169.39 424.59,4 -4,4"/>
<!-- in -->
<g id="node1" class="node">
<title>in</title>
<ellipse fill="orange" stroke="orange" cx="1.8" cy="-137.45" rx="1.8" ry="1.8"/>
</g>
<!-- 1 -->
<g id="node4" class="node">
<title>1</title>
<ellipse fill="none" stroke="orange" cx="68.55" cy="-137.45" rx="27.9" ry="27.9"/>
<text text-anchor="middle" x="68.55" y="-133.75" font-family="Times,serif" font-size="14.00">(0 1)</text>
</g>
<!-- in&#45;&gt;1 -->
<g id="edge1" class="edge">
<title>in&#45;&gt;1</title>
<path fill="none" stroke="orange" d="M3.92,-137.45C7.25,-137.45 17.52,-137.45 28.86,-137.45"/>
<polygon fill="orange" stroke="orange" points="28.83,-140.95 38.83,-137.45 28.83,-133.95 28.83,-140.95"/>
</g>
<!-- out -->
<g id="node2" class="node">
<title>out</title>
<ellipse fill="black" stroke="black" cx="418.79" cy="-99.45" rx="1.8" ry="1.8"/>
</g>
<!-- 5 -->
<g id="node3" class="node">
<title>5</title>
<ellipse fill="none" stroke="black" cx="357.99" cy="-99.45" rx="18" ry="18"/>
<ellipse fill="none" stroke="black" cx="357.99" cy="-99.45" rx="22" ry="22"/>
<text text-anchor="middle" x="357.99" y="-95.75" font-family="Times,serif" font-size="14.00">5</text>
</g>
<!-- 5&#45;&gt;out -->
<g id="edge9" class="edge">
<title>5&#45;&gt;out</title>
<path fill="none" stroke="black" d="M380.21,-99.45C388.58,-99.45 397.91,-99.45 405.18,-99.45"/>
<polygon fill="black" stroke="black" points="405.11,-102.95 415.11,-99.45 405.11,-95.95 405.11,-102.95"/>
</g>
<!-- 5&#45;&gt;1 -->
<g id="edge8" class="edge">
<title>5&#45;&gt;1</title>
<path fill="none" stroke="gray" stroke-dasharray="5,2" d="M338.27,-110.11C325.82,-116.72 308.89,-124.81 292.99,-129.45 230.21,-147.74 153.31,-145.42 108.05,-141.7"/>
<polygon fill="gray" stroke="gray" points="108.49,-138.22 98.21,-140.81 107.86,-145.19 108.49,-138.22"/>
</g>
<!-- 2 -->
<g id="node5" class="node">
<title>2</title>
<ellipse fill="none" stroke="orange" cx="272.19" cy="-99.45" rx="20.6" ry="20.6"/>
<text text-anchor="middle" x="272.19" y="-95.75" font-family="Times,serif" font-size="14.00">(2)</text>
</g>
<!-- 1&#45;&gt;2 -->
<g id="edge2" class="edge">
<title>1&#45;&gt;2</title>
<path fill="none" stroke="orange" d="M96.32,-132.4C133.6,-125.38 200.99,-112.68 240.33,-105.26"/>
<polygon fill="orange" stroke="orange" points="240.91,-108.71 250.09,-103.42 239.62,-101.84 240.91,-108.71"/>
<text text-anchor="middle" x="173.94" y="-127.25" font-family="Times,serif" font-size="14.00">a</text>
</g>
<!-- 3 -->
<g id="node6" class="node">
<title>3</title>
<ellipse fill="none" stroke="orange" cx="173.94" cy="-34.45" rx="34.39" ry="34.39"/>
<text text-anchor="middle" x="173.94" y="-30.75" font-family="Times,serif" font-size="14.00">(1 3 4)</text>
</g>
<!-- 1&#45;&gt;3 -->
<g id="edge3" class="edge">
<title>1&#45;&gt;3</title>
<path fill="none" stroke="orange" d="M89,-118.07C103.57,-103.55 123.85,-83.35 140.82,-66.44"/>
<polygon fill="orange" stroke="orange" points="143.16,-69.05 147.78,-59.52 138.22,-64.09 143.16,-69.05"/>
<text text-anchor="middle" x="118" y="-95.25" font-family="Times,serif" font-size="14.00">b</text>
</g>
<!-- 2&#45;&gt;5 -->
<g id="edge4" class="edge">
<title>2&#45;&gt;5</title>
<path fill="none" stroke="black" d="M293.05,-99.45C302.33,-99.45 313.63,-99.45 324.14,-99.45"/>
<polygon fill="black" stroke="black" points="323.99,-102.95 333.99,-99.45 323.99,-95.95 323.99,-102.95"/>
<text text-anchor="middle" x="314.49" y="-103.25" font-family="Times,serif" font-size="14.00">b</text>
</g>
<!-- 3&#45;&gt;5 -->
<g id="edge5" class="edge">
<title>3&#45;&gt;5</title>
<path fill="none" stroke="black" d="M208.59,-36.18C232.82,-38.36 265.88,-43.3 292.99,-54.45 306.92,-60.18 320.8,-69.4 332.05,-78"/>
<polygon fill="black" stroke="black" points="329.64,-80.55 339.64,-84.05 334,-75.08 329.64,-80.55"/>
<text text-anchor="middle" x="272.19" y="-58.25" font-family="Times,serif" font-size="14.00">a</text>
</g>
<!-- 3&#45;&gt;2 -->
<g id="edge7" class="edge">
<title>3&#45;&gt;2</title>
<path fill="none" stroke="black" d="M203.04,-53.42C216.39,-62.44 232.25,-73.15 245.3,-81.97"/>
<polygon fill="black" stroke="black" points="243.15,-84.74 253.4,-87.43 247.07,-78.94 243.15,-84.74"/>
<text text-anchor="middle" x="229.89" y="-76.25" font-family="Times,serif" font-size="14.00">a</text>
</g>
<!-- 3&#45;&gt;3 -->
<g id="edge6" class="edge">
<title>3&#45;&gt;3</title>
<path fill="none" stroke="orange" d="M163.45,-67.48C163.51,-78.29 167,-86.89 173.94,-86.89 178.17,-86.89 181.12,-83.7 182.79,-78.76"/>
<polygon fill="orange" stroke="orange" points="186.24,-79.38 184.21,-68.98 179.31,-78.37 186.24,-79.38"/>
<text text-anchor="middle" x="173.94" y="-90.69" font-family="Times,serif" font-size="14.00">b</text>
</g>
</g>
</svg>
