<?xml version="1.0" encoding="UTF-8" standalone="no"?>
<!DOCTYPE svg PUBLIC "-//W3C//DTD SVG 1.1//EN"
 "http://www.w3.org/Graphics/SVG/1.1/DTD/svg11.dtd">
<!-- Generated by graphviz version 7.1.0 (20230121.1956)
 -->
<!-- Pages: 1 -->
<svg width="691pt" height="159pt"
 viewBox="0.00 0.00 690.60 159.00" xmlns="http://www.w3.org/2000/svg" xmlns:xlink="http://www.w3.org/1999/xlink">
<g id="graph0" class="graph" transform="scale(1 1) rotate(0) translate(4 155)">
<polygon fill="white" stroke="none" points="-4,4 -4,-155 686.6,-155 686.6,4 -4,4"/>
<!-- start -->
<g id="node1" class="node">
<title>start</title>
<ellipse fill="black" stroke="black" cx="1.8" cy="-97" rx="1.8" ry="1.8"/>
</g>
<!-- 0 -->
<g id="node6" class="node">
<title>0</title>
<ellipse fill="none" stroke="black" cx="58.6" cy="-97" rx="18" ry="18"/>
<text text-anchor="middle" x="58.6" y="-93.3" font-family="Times,serif" font-size="14.00">0</text>
</g>
<!-- start&#45;&gt;0 -->
<g id="edge1" class="edge">
<title>start&#45;&gt;0</title>
<path fill="none" stroke="black" d="M3.75,-97C6.96,-97 17.8,-97 28.92,-97"/>
<polygon fill="black" stroke="black" points="28.79,-100.5 38.79,-97 28.78,-93.5 28.79,-100.5"/>
</g>
<!-- 7 -->
<g id="node2" class="node">
<title>7</title>
<ellipse fill="none" stroke="black" cx="316.6" cy="-22" rx="18" ry="18"/>
<ellipse fill="none" stroke="black" cx="316.6" cy="-22" rx="22" ry="22"/>
<text text-anchor="middle" x="316.6" y="-18.3" font-family="Times,serif" font-size="14.00">7</text>
</g>
<!-- 6 -->
<g id="node3" class="node">
<title>6</title>
<ellipse fill="none" stroke="black" cx="226.6" cy="-59" rx="18" ry="18"/>
<ellipse fill="none" stroke="black" cx="226.6" cy="-59" rx="22" ry="22"/>
<text text-anchor="middle" x="226.6" y="-55.3" font-family="Times,serif" font-size="14.00">6</text>
</g>
<!-- 7&#45;&gt;6 -->
<g id="edge5" class="edge">
<title>7&#45;&gt;6</title>
<path fill="none" stroke="black" d="M295.82,-30.32C284.57,-35.05 270.26,-41.06 257.65,-46.36"/>
<polygon fill="black" stroke="black" points="256.39,-43.1 248.53,-50.2 259.1,-49.55 256.39,-43.1"/>
<text text-anchor="middle" x="271.6" y="-44.8" font-family="Times,serif" font-size="14.00">A</text>
</g>
<!-- 3 -->
<g id="node9" class="node">
<title>3</title>
<ellipse fill="none" stroke="black" cx="402.6" cy="-22" rx="18" ry="18"/>
<text text-anchor="middle" x="402.6" y="-18.3" font-family="Times,serif" font-size="14.00">3</text>
</g>
<!-- 7&#45;&gt;3 -->
<g id="edge4" class="edge">
<title>7&#45;&gt;3</title>
<path fill="none" stroke="black" d="M338.8,-22C349.15,-22 361.75,-22 372.95,-22"/>
<polygon fill="black" stroke="black" points="372.85,-25.5 382.85,-22 372.85,-18.5 372.85,-25.5"/>
<text text-anchor="middle" x="361.6" y="-25.8" font-family="Times,serif" font-size="14.00">B</text>
</g>
<!-- 6&#45;&gt;7 -->
<g id="edge6" class="edge">
<title>6&#45;&gt;7</title>
<path fill="none" stroke="black" d="M239.94,-41.4C246.75,-33.24 255.98,-24.4 266.6,-20 271.83,-17.83 277.65,-16.93 283.4,-16.77"/>
<polygon fill="black" stroke="black" points="283.22,-20.27 293.38,-17.27 283.57,-13.28 283.22,-20.27"/>
<text text-anchor="middle" x="271.6" y="-23.8" font-family="Times,serif" font-size="14.00">B</text>
</g>
<!-- 1 -->
<g id="node8" class="node">
<title>1</title>
<ellipse fill="none" stroke="black" cx="574.6" cy="-75" rx="18" ry="18"/>
<text text-anchor="middle" x="574.6" y="-71.3" font-family="Times,serif" font-size="14.00">1</text>
</g>
<!-- 6&#45;&gt;1 -->
<g id="edge3" class="edge">
<title>6&#45;&gt;1</title>
<path fill="none" stroke="black" d="M246.16,-69.67C263.53,-78.64 290.49,-90 315.6,-90 315.6,-90 315.6,-90 489.6,-90 508.67,-90 529.81,-86.21 546.11,-82.43"/>
<polygon fill="black" stroke="black" points="546.68,-85.9 555.55,-80.11 545,-79.1 546.68,-85.9"/>
<text text-anchor="middle" x="402.6" y="-93.8" font-family="Times,serif" font-size="14.00">A</text>
</g>
<!-- 4 -->
<g id="node4" class="node">
<title>4</title>
<ellipse fill="none" stroke="black" cx="488.6" cy="-40" rx="18" ry="18"/>
<ellipse fill="none" stroke="black" cx="488.6" cy="-40" rx="22" ry="22"/>
<text text-anchor="middle" x="488.6" y="-36.3" font-family="Times,serif" font-size="14.00">4</text>
</g>
<!-- 4&#45;&gt;1 -->
<g id="edge10" class="edge">
<title>4&#45;&gt;1</title>
<path fill="none" stroke="black" d="M509.51,-48.29C520.72,-52.97 534.88,-58.87 547.04,-63.93"/>
<polygon fill="black" stroke="black" points="545.52,-67.09 556.1,-67.71 548.21,-60.63 545.52,-67.09"/>
<text text-anchor="middle" x="533.6" y="-62.8" font-family="Times,serif" font-size="14.00">A</text>
</g>
<!-- 4&#45;&gt;3 -->
<g id="edge9" class="edge">
<title>4&#45;&gt;3</title>
<path fill="none" stroke="black" d="M468.66,-29.99C462.44,-27.18 455.38,-24.49 448.6,-23 443.39,-21.85 437.77,-21.25 432.31,-20.98"/>
<polygon fill="black" stroke="black" points="432.44,-17.48 422.39,-20.85 432.35,-24.48 432.44,-17.48"/>
<text text-anchor="middle" x="443.6" y="-26.8" font-family="Times,serif" font-size="14.00">B</text>
</g>
<!-- 2 -->
<g id="node5" class="node">
<title>2</title>
<ellipse fill="none" stroke="black" cx="660.6" cy="-37" rx="18" ry="18"/>
<ellipse fill="none" stroke="black" cx="660.6" cy="-37" rx="22" ry="22"/>
<text text-anchor="middle" x="660.6" y="-33.3" font-family="Times,serif" font-size="14.00">2</text>
</g>
<!-- 2&#45;&gt;1 -->
<g id="edge13" class="edge">
<title>2&#45;&gt;1</title>
<path fill="none" stroke="black" d="M638.32,-33.91C629.41,-33.49 619.16,-34.21 610.6,-38 603.81,-41.01 597.71,-46.02 592.57,-51.41"/>
<polygon fill="black" stroke="black" points="590.12,-48.89 586.32,-58.78 595.45,-53.42 590.12,-48.89"/>
<text text-anchor="middle" x="615.6" y="-41.8" font-family="Times,serif" font-size="14.00">A</text>
</g>
<!-- 2&#45;&gt;3 -->
<g id="edge12" class="edge">
<title>2&#45;&gt;3</title>
<path fill="none" stroke="black" d="M639.11,-30.67C603.93,-20.57 529.75,-2.55 466.6,-9 454.93,-10.19 442.24,-12.59 431.32,-15.01"/>
<polygon fill="black" stroke="black" points="430.72,-11.56 421.78,-17.24 432.31,-18.37 430.72,-11.56"/>
<text text-anchor="middle" x="533.6" y="-14.8" font-family="Times,serif" font-size="14.00">B</text>
</g>
<!-- 5 -->
<g id="node7" class="node">
<title>5</title>
<ellipse fill="none" stroke="black" cx="140.6" cy="-57" rx="18" ry="18"/>
<text text-anchor="middle" x="140.6" y="-53.3" font-family="Times,serif" font-size="14.00">5</text>
</g>
<!-- 0&#45;&gt;5 -->
<g id="edge8" class="edge">
<title>0&#45;&gt;5</title>
<path fill="none" stroke="black" d="M75.02,-89.29C86.02,-83.79 101.06,-76.27 113.86,-69.87"/>
<polygon fill="black" stroke="black" points="115.22,-73.1 122.6,-65.5 112.09,-66.84 115.22,-73.1"/>
<text text-anchor="middle" x="99.6" y="-82.8" font-family="Times,serif" font-size="14.00">B</text>
</g>
<!-- 0&#45;&gt;1 -->
<g id="edge15" class="edge">
<title>0&#45;&gt;1</title>
<path fill="none" stroke="black" d="M73.07,-108.28C88.24,-119.8 114.11,-136 139.6,-136 139.6,-136 139.6,-136 489.6,-136 516.46,-136 540.51,-115.33 555.92,-98.05"/>
<polygon fill="black" stroke="black" points="558.43,-100.52 562.19,-90.61 553.07,-96.01 558.43,-100.52"/>
<text text-anchor="middle" x="316.6" y="-139.8" font-family="Times,serif" font-size="14.00">A</text>
</g>
<!-- 5&#45;&gt;6 -->
<g id="edge7" class="edge">
<title>5&#45;&gt;6</title>
<path fill="none" stroke="black" d="M159,-57.41C168.88,-57.65 181.56,-57.95 193.19,-58.23"/>
<polygon fill="black" stroke="black" points="192.75,-61.72 202.83,-58.46 192.92,-54.72 192.75,-61.72"/>
<text text-anchor="middle" x="181.6" y="-61.8" font-family="Times,serif" font-size="14.00">A</text>
</g>
<!-- 5&#45;&gt;5 -->
<g id="edge2" class="edge">
<title>5&#45;&gt;5</title>
<path fill="none" stroke="black" d="M133.39,-73.66C131.79,-83.62 134.19,-93 140.6,-93 144.4,-93 146.8,-89.69 147.78,-84.92"/>
<polygon fill="black" stroke="black" points="151.28,-85.19 147.8,-75.18 144.28,-85.17 151.28,-85.19"/>
<text text-anchor="middle" x="140.6" y="-96.8" font-family="Times,serif" font-size="14.00">B</text>
</g>
<!-- 1&#45;&gt;2 -->
<g id="edge14" class="edge">
<title>1&#45;&gt;2</title>
<path fill="none" stroke="black" d="M591.4,-67.85C602.17,-62.98 616.76,-56.38 629.68,-50.53"/>
<polygon fill="black" stroke="black" points="630.98,-53.79 638.65,-46.48 628.09,-47.41 630.98,-53.79"/>
<text text-anchor="middle" x="615.6" y="-61.8" font-family="Times,serif" font-size="14.00">B</text>
</g>
<!-- 3&#45;&gt;4 -->
<g id="edge11" class="edge">
<title>3&#45;&gt;4</title>
<path fill="none" stroke="black" d="M418.82,-30.51C424.8,-33.44 431.84,-36.38 438.6,-38 443.91,-39.27 449.63,-40.03 455.23,-40.45"/>
<polygon fill="black" stroke="black" points="454.72,-43.94 464.86,-40.85 455.01,-36.94 454.72,-43.94"/>
<text text-anchor="middle" x="443.6" y="-42.8" font-family="Times,serif" font-size="14.00">A</text>
</g>
</g>
</svg>
