<?xml version="1.0" encoding="UTF-8" standalone="no"?>
<!DOCTYPE svg PUBLIC "-//W3C//DTD SVG 1.1//EN"
 "http://www.w3.org/Graphics/SVG/1.1/DTD/svg11.dtd">
<!-- Generated by graphviz version 7.1.0 (20230121.1956)
 -->
<!-- Pages: 1 -->
<svg width="753pt" height="204pt"
 viewBox="0.00 0.00 753.20 204.00" xmlns="http://www.w3.org/2000/svg" xmlns:xlink="http://www.w3.org/1999/xlink">
<g id="graph0" class="graph" transform="scale(1 1) rotate(0) translate(4 200)">
<polygon fill="white" stroke="none" points="-4,4 -4,-200 749.2,-200 749.2,4 -4,4"/>
<g id="clust1" class="cluster">
<title>cluster_NFA</title>
<polygon fill="none" stroke="gray" stroke-dasharray="5,2" points="8,-8 8,-188 279.6,-188 279.6,-8 8,-8"/>
<text text-anchor="middle" x="143.8" y="-172.8" font-family="Times,serif" font-size="14.00">NFA</text>
</g>
<g id="clust2" class="cluster">
<title>cluster_DFA</title>
<polygon fill="none" stroke="gray" stroke-dasharray="5,2" points="300.6,-19 300.6,-167 737.2,-167 737.2,-19 300.6,-19"/>
<text text-anchor="middle" x="518.9" y="-151.8" font-family="Times,serif" font-size="14.00">DFA</text>
</g>
<!-- nstart -->
<g id="node1" class="node">
<title>nstart</title>
<ellipse fill="black" stroke="black" cx="17.8" cy="-85" rx="1.8" ry="1.8"/>
</g>
<!-- n0 -->
<g id="node4" class="node">
<title>n0</title>
<ellipse fill="none" stroke="black" cx="74.6" cy="-85" rx="18" ry="18"/>
<text text-anchor="middle" x="74.6" y="-81.3" font-family="Times,serif" font-size="14.00">0</text>
</g>
<!-- nstart&#45;&gt;n0 -->
<g id="edge1" class="edge">
<title>nstart&#45;&gt;n0</title>
<path fill="none" stroke="black" d="M19.75,-85C22.96,-85 33.8,-85 44.92,-85"/>
<polygon fill="black" stroke="black" points="44.79,-88.5 54.79,-85 44.78,-81.5 44.79,-88.5"/>
</g>
<!-- n3 -->
<g id="node2" class="node">
<title>n3</title>
<ellipse fill="none" stroke="black" cx="249.6" cy="-119" rx="18" ry="18"/>
<ellipse fill="none" stroke="black" cx="249.6" cy="-119" rx="22" ry="22"/>
<text text-anchor="middle" x="249.6" y="-115.3" font-family="Times,serif" font-size="14.00">3</text>
</g>
<!-- n1 -->
<g id="node5" class="node">
<title>n1</title>
<ellipse fill="none" stroke="black" cx="156.6" cy="-139" rx="18" ry="18"/>
<text text-anchor="middle" x="156.6" y="-135.3" font-family="Times,serif" font-size="14.00">1</text>
</g>
<!-- n3&#45;&gt;n1 -->
<g id="edge5" class="edge">
<title>n3&#45;&gt;n1</title>
<path fill="none" stroke="black" d="M227.86,-123.56C215.31,-126.32 199.15,-129.87 185.5,-132.87"/>
<polygon fill="black" stroke="black" points="184.78,-129.44 175.77,-135.01 186.29,-136.28 184.78,-129.44"/>
<text text-anchor="middle" x="201.1" y="-133.8" font-family="Times,serif" font-size="14.00">EE</text>
</g>
<!-- n4 -->
<g id="node3" class="node">
<title>n4</title>
<ellipse fill="none" stroke="black" cx="249.6" cy="-47" rx="18" ry="18"/>
<ellipse fill="none" stroke="black" cx="249.6" cy="-47" rx="22" ry="22"/>
<text text-anchor="middle" x="249.6" y="-43.3" font-family="Times,serif" font-size="14.00">4</text>
</g>
<!-- n4&#45;&gt;n0 -->
<g id="edge7" class="edge">
<title>n4&#45;&gt;n0</title>
<path fill="none" stroke="black" d="M227.81,-42.3C205.3,-38.11 168.6,-33.92 138.6,-43 123.46,-47.58 108.64,-57.13 97.18,-65.97"/>
<polygon fill="black" stroke="black" points="95.13,-63.13 89.58,-72.15 99.55,-68.56 95.13,-63.13"/>
<text text-anchor="middle" x="156.6" y="-46.8" font-family="Times,serif" font-size="14.00">EE</text>
</g>
<!-- dstart -->
<g id="node7" class="node">
<title>dstart</title>
<ellipse fill="black" stroke="black" cx="310.4" cy="-47" rx="1.8" ry="1.8"/>
</g>
<!-- n4&#45;&gt;dstart -->
<!-- n0&#45;&gt;n1 -->
<g id="edge2" class="edge">
<title>n0&#45;&gt;n1</title>
<path fill="none" stroke="black" d="M89.9,-94.65C101.55,-102.51 118.23,-113.78 131.87,-122.98"/>
<polygon fill="black" stroke="black" points="129.65,-125.71 139.9,-128.4 133.57,-119.9 129.65,-125.71"/>
<text text-anchor="middle" x="115.6" y="-118.8" font-family="Times,serif" font-size="14.00">A</text>
</g>
<!-- n2 -->
<g id="node6" class="node">
<title>n2</title>
<ellipse fill="none" stroke="black" cx="156.6" cy="-85" rx="18" ry="18"/>
<text text-anchor="middle" x="156.6" y="-81.3" font-family="Times,serif" font-size="14.00">2</text>
</g>
<!-- n0&#45;&gt;n2 -->
<g id="edge3" class="edge">
<title>n0&#45;&gt;n2</title>
<path fill="none" stroke="black" d="M92.96,-85C102.92,-85 115.67,-85 127.06,-85"/>
<polygon fill="black" stroke="black" points="126.76,-88.5 136.76,-85 126.76,-81.5 126.76,-88.5"/>
<text text-anchor="middle" x="115.6" y="-88.8" font-family="Times,serif" font-size="14.00">B</text>
</g>
<!-- n1&#45;&gt;n3 -->
<g id="edge4" class="edge">
<title>n1&#45;&gt;n3</title>
<path fill="none" stroke="black" d="M167.39,-124.26C173.57,-116.34 182.32,-107.34 192.6,-103 201.18,-99.38 210.83,-100.43 219.68,-103.27"/>
<polygon fill="black" stroke="black" points="218.33,-106.49 228.91,-107.02 220.97,-100.01 218.33,-106.49"/>
<text text-anchor="middle" x="201.1" y="-106.8" font-family="Times,serif" font-size="14.00">B</text>
</g>
<!-- n2&#45;&gt;n4 -->
<g id="edge6" class="edge">
<title>n2&#45;&gt;n4</title>
<path fill="none" stroke="black" d="M173.45,-78.38C185.83,-73.21 203.38,-65.88 218.42,-59.6"/>
<polygon fill="black" stroke="black" points="219.53,-62.93 227.41,-55.85 216.83,-56.47 219.53,-62.93"/>
<text text-anchor="middle" x="201.1" y="-72.8" font-family="Times,serif" font-size="14.00">A</text>
</g>
<!-- d0 -->
<g id="node10" class="node">
<title>d0</title>
<ellipse fill="none" stroke="black" cx="367.2" cy="-47" rx="18" ry="18"/>
<text text-anchor="middle" x="367.2" y="-43.3" font-family="Times,serif" font-size="14.00">0</text>
</g>
<!-- dstart&#45;&gt;d0 -->
<g id="edge8" class="edge">
<title>dstart&#45;&gt;d0</title>
<path fill="none" stroke="black" d="M312.35,-47C315.56,-47 326.4,-47 337.52,-47"/>
<polygon fill="black" stroke="black" points="337.39,-50.5 347.39,-47 337.38,-43.5 337.39,-50.5"/>
</g>
<!-- d4 -->
<g id="node8" class="node">
<title>d4</title>
<ellipse fill="none" stroke="black" cx="535.2" cy="-86" rx="18" ry="18"/>
<ellipse fill="none" stroke="black" cx="535.2" cy="-86" rx="22" ry="22"/>
<text text-anchor="middle" x="535.2" y="-82.3" font-family="Times,serif" font-size="14.00">4</text>
</g>
<!-- d1 -->
<g id="node11" class="node">
<title>d1</title>
<ellipse fill="none" stroke="black" cx="621.2" cy="-63" rx="18" ry="18"/>
<text text-anchor="middle" x="621.2" y="-59.3" font-family="Times,serif" font-size="14.00">1</text>
</g>
<!-- d4&#45;&gt;d1 -->
<g id="edge9" class="edge">
<title>d4&#45;&gt;d1</title>
<path fill="none" stroke="black" d="M556.96,-80.31C567.68,-77.38 580.89,-73.76 592.46,-70.59"/>
<polygon fill="black" stroke="black" points="593.16,-74.03 601.88,-68.02 591.31,-67.28 593.16,-74.03"/>
<text text-anchor="middle" x="580.2" y="-78.8" font-family="Times,serif" font-size="14.00">A</text>
</g>
<!-- d3 -->
<g id="node12" class="node">
<title>d3</title>
<ellipse fill="none" stroke="black" cx="449.2" cy="-83" rx="18" ry="18"/>
<text text-anchor="middle" x="449.2" y="-79.3" font-family="Times,serif" font-size="14.00">3</text>
</g>
<!-- d4&#45;&gt;d3 -->
<g id="edge10" class="edge">
<title>d4&#45;&gt;d3</title>
<path fill="none" stroke="black" d="M515.22,-95.36C506.17,-98.71 495.18,-101.17 485.2,-99 482.12,-98.33 478.99,-97.36 475.93,-96.24"/>
<polygon fill="black" stroke="black" points="477.34,-93.03 466.77,-92.26 474.55,-99.45 477.34,-93.03"/>
<text text-anchor="middle" x="490.2" y="-102.8" font-family="Times,serif" font-size="14.00">B</text>
</g>
<!-- d2 -->
<g id="node9" class="node">
<title>d2</title>
<ellipse fill="none" stroke="black" cx="707.2" cy="-63" rx="18" ry="18"/>
<ellipse fill="none" stroke="black" cx="707.2" cy="-63" rx="22" ry="22"/>
<text text-anchor="middle" x="707.2" y="-59.3" font-family="Times,serif" font-size="14.00">2</text>
</g>
<!-- d2&#45;&gt;d2 -->
<g id="edge13" class="edge">
<title>d2&#45;&gt;d2</title>
<path fill="none" stroke="black" d="M699.01,-83.58C697.88,-93.84 700.61,-103 707.2,-103 711.11,-103 713.67,-99.77 714.86,-95"/>
<polygon fill="black" stroke="black" points="718.35,-95.24 715.32,-85.09 711.36,-94.92 718.35,-95.24"/>
<text text-anchor="middle" x="707.2" y="-106.8" font-family="Times,serif" font-size="14.00">B</text>
</g>
<!-- d0&#45;&gt;d1 -->
<g id="edge15" class="edge">
<title>d0&#45;&gt;d1</title>
<path fill="none" stroke="black" d="M385.69,-47.25C419.08,-47.84 494.2,-49.68 557.2,-55 568.53,-55.96 580.97,-57.44 591.77,-58.87"/>
<polygon fill="black" stroke="black" points="591.24,-62.34 601.63,-60.23 592.2,-55.4 591.24,-62.34"/>
<text text-anchor="middle" x="490.2" y="-53.8" font-family="Times,serif" font-size="14.00">A</text>
</g>
<!-- d0&#45;&gt;d3 -->
<g id="edge12" class="edge">
<title>d0&#45;&gt;d3</title>
<path fill="none" stroke="black" d="M384.01,-54.11C394.85,-58.99 409.5,-65.59 422.07,-71.24"/>
<polygon fill="black" stroke="black" points="420.49,-74.37 431.05,-75.28 423.36,-67.99 420.49,-74.37"/>
<text text-anchor="middle" x="408.2" y="-70.8" font-family="Times,serif" font-size="14.00">B</text>
</g>
<!-- d1&#45;&gt;d2 -->
<g id="edge14" class="edge">
<title>d1&#45;&gt;d2</title>
<path fill="none" stroke="black" d="M639.6,-63C649.48,-63 662.16,-63 673.79,-63"/>
<polygon fill="black" stroke="black" points="673.43,-66.5 683.43,-63 673.43,-59.5 673.43,-66.5"/>
<text text-anchor="middle" x="662.2" y="-66.8" font-family="Times,serif" font-size="14.00">B</text>
</g>
<!-- d3&#45;&gt;d4 -->
<g id="edge11" class="edge">
<title>d3&#45;&gt;d4</title>
<path fill="none" stroke="black" d="M467.27,-81.24C472.97,-80.73 479.35,-80.25 485.2,-80 489.64,-79.81 490.77,-79.66 495.2,-80 497.4,-80.17 499.67,-80.39 501.95,-80.65"/>
<polygon fill="black" stroke="black" points="501.34,-84.1 511.72,-81.97 502.28,-77.16 501.34,-84.1"/>
<text text-anchor="middle" x="490.2" y="-83.8" font-family="Times,serif" font-size="14.00">A</text>
</g>
</g>
</svg>
