<?xml version="1.0" encoding="UTF-8" standalone="no"?>
<!DOCTYPE svg PUBLIC "-//W3C//DTD SVG 1.1//EN"
 "http://www.w3.org/Graphics/SVG/1.1/DTD/svg11.dtd">
<!-- Generated by graphviz version 7.1.0 (20230121.1956)
 -->
<!-- Pages: 1 -->
<svg width="377pt" height="190pt"
 viewBox="0.00 0.00 376.88 190.06" xmlns="http://www.w3.org/2000/svg" xmlns:xlink="http://www.w3.org/1999/xlink">
<g id="graph0" class="graph" transform="scale(1 1) rotate(0) translate(4 186.06)">
<polygon fill="white" stroke="none" points="-4,4 -4,-186.06 372.88,-186.06 372.88,4 -4,4"/>
<!-- in -->
<g id="node1" class="node">
<title>in</title>
<ellipse fill="orange" stroke="orange" cx="1.8" cy="-76.61" rx="1.8" ry="1.8"/>
</g>
<!-- 1 -->
<g id="node3" class="node">
<title>1</title>
<ellipse fill="none" stroke="orange" cx="68.55" cy="-76.61" rx="27.9" ry="27.9"/>
<text text-anchor="middle" x="68.55" y="-72.91" font-family="Times,serif" font-size="14.00">(0 1)</text>
</g>
<!-- in&#45;&gt;1 -->
<g id="edge1" class="edge">
<title>in&#45;&gt;1</title>
<path fill="none" stroke="orange" d="M3.92,-76.61C7.25,-76.61 17.52,-76.61 28.86,-76.61"/>
<polygon fill="orange" stroke="orange" points="28.83,-80.11 38.83,-76.61 28.83,-73.11 28.83,-80.11"/>
</g>
<!-- out -->
<g id="node2" class="node">
<title>out</title>
<ellipse fill="orange" stroke="orange" cx="367.08" cy="-76.61" rx="1.8" ry="1.8"/>
</g>
<!-- 2 -->
<g id="node4" class="node">
<title>2</title>
<ellipse fill="none" stroke="orange" cx="173.94" cy="-40.61" rx="20.6" ry="20.6"/>
<text text-anchor="middle" x="173.94" y="-36.91" font-family="Times,serif" font-size="14.00">(2)</text>
</g>
<!-- 1&#45;&gt;2 -->
<g id="edge2" class="edge">
<title>1&#45;&gt;2</title>
<path fill="none" stroke="orange" d="M95.37,-67.62C109.86,-62.57 128.01,-56.26 143.1,-51"/>
<polygon fill="orange" stroke="orange" points="144.22,-54.32 152.51,-47.72 141.92,-47.71 144.22,-54.32"/>
<text text-anchor="middle" x="118" y="-64.41" font-family="Times,serif" font-size="14.00">a</text>
</g>
<!-- 3 -->
<g id="node5" class="node">
<title>3</title>
<ellipse fill="none" stroke="orange" cx="173.94" cy="-114.61" rx="34.39" ry="34.39"/>
<text text-anchor="middle" x="173.94" y="-110.91" font-family="Times,serif" font-size="14.00">(1 3 4)</text>
</g>
<!-- 1&#45;&gt;3 -->
<g id="edge3" class="edge">
<title>1&#45;&gt;3</title>
<path fill="none" stroke="orange" d="M95.11,-86C105.82,-89.94 118.57,-94.62 130.61,-99.05"/>
<polygon fill="orange" stroke="orange" points="129.38,-102.33 139.98,-102.49 131.8,-95.76 129.38,-102.33"/>
<text text-anchor="middle" x="118" y="-99.41" font-family="Times,serif" font-size="14.00">b</text>
</g>
<!-- 5 -->
<g id="node7" class="node">
<title>5</title>
<ellipse fill="none" stroke="orange" cx="289.84" cy="-33.61" rx="27.9" ry="27.9"/>
<ellipse fill="none" stroke="orange" cx="289.84" cy="-33.61" rx="31.9" ry="31.9"/>
<text text-anchor="middle" x="289.84" y="-29.91" font-family="Times,serif" font-size="14.00">(1 5)</text>
</g>
<!-- 2&#45;&gt;5 -->
<g id="edge4" class="edge">
<title>2&#45;&gt;5</title>
<path fill="none" stroke="orange" d="M193.07,-32.12C202.73,-28.06 214.95,-23.65 226.39,-21.61 233.45,-20.35 240.95,-20.5 248.21,-21.43"/>
<polygon fill="orange" stroke="orange" points="247.37,-24.83 257.83,-23.17 248.61,-17.94 247.37,-24.83"/>
<text text-anchor="middle" x="229.89" y="-25.41" font-family="Times,serif" font-size="14.00">b</text>
</g>
<!-- 3&#45;&gt;3 -->
<g id="edge5" class="edge">
<title>3&#45;&gt;3</title>
<path fill="none" stroke="orange" d="M163.45,-147.64C163.51,-158.45 167,-167.06 173.94,-167.06 178.17,-167.06 181.12,-163.86 182.79,-158.92"/>
<polygon fill="orange" stroke="orange" points="186.24,-159.54 184.21,-149.14 179.31,-158.53 186.24,-159.54"/>
<text text-anchor="middle" x="173.94" y="-170.86" font-family="Times,serif" font-size="14.00">b</text>
</g>
<!-- 4 -->
<g id="node6" class="node">
<title>4</title>
<ellipse fill="none" stroke="orange" cx="289.84" cy="-127.61" rx="34.4" ry="34.4"/>
<ellipse fill="none" stroke="orange" cx="289.84" cy="-127.61" rx="38.39" ry="38.39"/>
<text text-anchor="middle" x="289.84" y="-123.91" font-family="Times,serif" font-size="14.00">(1 2 5)</text>
</g>
<!-- 3&#45;&gt;4 -->
<g id="edge6" class="edge">
<title>3&#45;&gt;4</title>
<path fill="none" stroke="orange" d="M200.51,-137.05C208.3,-142.57 217.24,-147.73 226.39,-150.61 232.81,-152.63 239.55,-152.54 246.12,-151.2"/>
<polygon fill="orange" stroke="orange" points="246.96,-154.6 255.5,-148.34 244.91,-147.91 246.96,-154.6"/>
<text text-anchor="middle" x="229.89" y="-155.41" font-family="Times,serif" font-size="14.00">a</text>
</g>
<!-- 4&#45;&gt;out -->
<g id="edge12" class="edge">
<title>4&#45;&gt;out</title>
<path fill="none" stroke="orange" d="M322.31,-106.28C334.29,-98.16 347.13,-89.46 355.78,-83.59"/>
<polygon fill="orange" stroke="orange" points="357.48,-86.67 363.79,-78.16 353.55,-80.87 357.48,-86.67"/>
</g>
<!-- 4&#45;&gt;2 -->
<g id="edge10" class="edge">
<title>4&#45;&gt;2</title>
<path fill="none" stroke="orange" d="M266.66,-96.93C253.24,-78.7 237.87,-58.56 233.39,-55.61 225.33,-50.3 215.51,-46.87 206.23,-44.65"/>
<polygon fill="orange" stroke="orange" points="206.91,-41.22 196.43,-42.73 205.57,-48.09 206.91,-41.22"/>
<text text-anchor="middle" x="229.89" y="-59.41" font-family="Times,serif" font-size="14.00">a</text>
</g>
<!-- 4&#45;&gt;3 -->
<g id="edge9" class="edge">
<title>4&#45;&gt;3</title>
<path fill="none" stroke="orange" d="M251.53,-123.35C241.35,-122.19 230.2,-120.92 219.65,-119.71"/>
<polygon fill="orange" stroke="orange" points="220.33,-116.27 210,-118.61 219.54,-123.22 220.33,-116.27"/>
<text text-anchor="middle" x="229.89" y="-124.41" font-family="Times,serif" font-size="14.00">b</text>
</g>
<!-- 5&#45;&gt;out -->
<g id="edge11" class="edge">
<title>5&#45;&gt;out</title>
<path fill="none" stroke="orange" d="M318,-49.13C330.82,-56.46 345.4,-64.79 355.11,-70.34"/>
<polygon fill="orange" stroke="orange" points="353.17,-73.26 363.59,-75.18 356.64,-67.18 353.17,-73.26"/>
</g>
<!-- 5&#45;&gt;2 -->
<g id="edge8" class="edge">
<title>5&#45;&gt;2</title>
<path fill="none" stroke="orange" d="M266.13,-11.96C254.59,-3.58 240.13,3.01 226.39,-1.61 215.78,-5.18 205.62,-11.9 197.17,-18.77"/>
<polygon fill="orange" stroke="orange" points="195.1,-15.93 189.87,-25.14 199.71,-21.2 195.1,-15.93"/>
<text text-anchor="middle" x="229.89" y="-5.41" font-family="Times,serif" font-size="14.00">a</text>
</g>
<!-- 5&#45;&gt;3 -->
<g id="edge7" class="edge">
<title>5&#45;&gt;3</title>
<path fill="none" stroke="orange" d="M263.58,-52.58C254.16,-59.58 243.34,-67.53 233.39,-74.61 226.64,-79.41 219.39,-84.46 212.38,-89.29"/>
<polygon fill="orange" stroke="orange" points="210.55,-86.3 204.28,-94.83 214.51,-92.07 210.55,-86.3"/>
<text text-anchor="middle" x="229.89" y="-82.41" font-family="Times,serif" font-size="14.00">b</text>
</g>
</g>
</svg>
