<?xml version="1.0" encoding="UTF-8" standalone="no"?>
<!DOCTYPE svg PUBLIC "-//W3C//DTD SVG 1.1//EN"
 "http://www.w3.org/Graphics/SVG/1.1/DTD/svg11.dtd">
<!-- Generated by graphviz version 7.1.0 (20230121.1956)
 -->
<!-- Pages: 1 -->
<svg width="311pt" height="166pt"
 viewBox="0.00 0.00 311.10 165.52" xmlns="http://www.w3.org/2000/svg" xmlns:xlink="http://www.w3.org/1999/xlink">
<g id="graph0" class="graph" transform="scale(1 1) rotate(0) translate(4 161.52)">
<polygon fill="white" stroke="none" points="-4,4 -4,-161.52 307.1,-161.52 307.1,4 -4,4"/>
<!-- in -->
<g id="node1" class="node">
<title>in</title>
<ellipse fill="orange" stroke="orange" cx="1.8" cy="-102" rx="1.8" ry="1.8"/>
</g>
<!-- 1 -->
<g id="node4" class="node">
<title>1</title>
<ellipse fill="none" stroke="orange" cx="68.55" cy="-102" rx="27.9" ry="27.9"/>
<text text-anchor="middle" x="68.55" y="-98.3" font-family="Times,serif" font-size="14.00">(0 1)</text>
</g>
<!-- in&#45;&gt;1 -->
<g id="edge1" class="edge">
<title>in&#45;&gt;1</title>
<path fill="none" stroke="orange" d="M3.92,-102C7.25,-102 17.52,-102 28.86,-102"/>
<polygon fill="orange" stroke="orange" points="28.83,-105.5 38.83,-102 28.83,-98.5 28.83,-105.5"/>
</g>
<!-- out -->
<g id="node2" class="node">
<title>out</title>
<ellipse fill="black" stroke="black" cx="301.3" cy="-72" rx="1.8" ry="1.8"/>
</g>
<!-- 5 -->
<g id="node3" class="node">
<title>5</title>
<ellipse fill="none" stroke="black" cx="240.5" cy="-72" rx="18" ry="18"/>
<ellipse fill="none" stroke="black" cx="240.5" cy="-72" rx="22" ry="22"/>
<text text-anchor="middle" x="240.5" y="-68.3" font-family="Times,serif" font-size="14.00">5</text>
</g>
<!-- 5&#45;&gt;out -->
<g id="edge9" class="edge">
<title>5&#45;&gt;out</title>
<path fill="none" stroke="black" d="M262.72,-72C271.09,-72 280.42,-72 287.69,-72"/>
<polygon fill="black" stroke="black" points="287.62,-75.5 297.62,-72 287.62,-68.5 287.62,-75.5"/>
</g>
<!-- 5&#45;&gt;1 -->
<g id="edge8" class="edge">
<title>5&#45;&gt;1</title>
<path fill="none" stroke="gray" stroke-dasharray="5,2" d="M230.32,-91.99C220.08,-111.63 201.46,-140.42 175.5,-153 148.81,-165.93 118.3,-147.77 96.89,-129.63"/>
<polygon fill="gray" stroke="gray" points="99.23,-127.03 89.44,-122.96 94.56,-132.24 99.23,-127.03"/>
</g>
<!-- 4 -->
<g id="node5" class="node">
<title>4</title>
<ellipse fill="none" stroke="black" cx="157.5" cy="-126" rx="18" ry="18"/>
<text text-anchor="middle" x="157.5" y="-122.3" font-family="Times,serif" font-size="14.00">4</text>
</g>
<!-- 1&#45;&gt;4 -->
<g id="edge2" class="edge">
<title>1&#45;&gt;4</title>
<path fill="none" stroke="black" d="M95.63,-109.2C106.14,-112.1 118.27,-115.45 128.92,-118.39"/>
<polygon fill="black" stroke="black" points="127.72,-121.69 138.29,-120.98 129.58,-114.94 127.72,-121.69"/>
<text text-anchor="middle" x="118" y="-119.8" font-family="Times,serif" font-size="14.00">b</text>
</g>
<!-- 2 -->
<g id="node6" class="node">
<title>2</title>
<ellipse fill="none" stroke="black" cx="157.5" cy="-72" rx="18" ry="18"/>
<text text-anchor="middle" x="157.5" y="-68.3" font-family="Times,serif" font-size="14.00">2</text>
</g>
<!-- 1&#45;&gt;2 -->
<g id="edge3" class="edge">
<title>1&#45;&gt;2</title>
<path fill="none" stroke="black" d="M95.16,-93.16C105.95,-89.44 118.5,-85.11 129.43,-81.34"/>
<polygon fill="black" stroke="black" points="130.35,-84.72 138.67,-78.15 128.07,-78.1 130.35,-84.72"/>
<text text-anchor="middle" x="118" y="-89.8" font-family="Times,serif" font-size="14.00">a</text>
</g>
<!-- 3 -->
<g id="node7" class="node">
<title>3</title>
<ellipse fill="none" stroke="black" cx="157.5" cy="-18" rx="18" ry="18"/>
<text text-anchor="middle" x="157.5" y="-14.3" font-family="Times,serif" font-size="14.00">3</text>
</g>
<!-- 1&#45;&gt;3 -->
<g id="edge4" class="edge">
<title>1&#45;&gt;3</title>
<path fill="none" stroke="black" d="M89.28,-82.94C103.14,-69.55 121.64,-51.68 135.72,-38.07"/>
<polygon fill="black" stroke="black" points="137.99,-40.74 142.75,-31.28 133.13,-35.71 137.99,-40.74"/>
<text text-anchor="middle" x="118" y="-60.8" font-family="Times,serif" font-size="14.00">b</text>
</g>
<!-- 4&#45;&gt;1 -->
<g id="edge7" class="edge">
<title>4&#45;&gt;1</title>
<path fill="none" stroke="gray" stroke-dasharray="5,2" d="M139.77,-121.17C133.99,-119.51 127.46,-117.66 121.5,-116 116.84,-114.71 111.94,-113.36 107.09,-112.05"/>
<polygon fill="gray" stroke="gray" points="108.02,-108.67 97.46,-109.44 106.2,-115.43 108.02,-108.67"/>
</g>
<!-- 2&#45;&gt;5 -->
<g id="edge5" class="edge">
<title>2&#45;&gt;5</title>
<path fill="none" stroke="black" d="M175.67,-72C184.65,-72 195.94,-72 206.52,-72"/>
<polygon fill="black" stroke="black" points="206.49,-75.5 216.49,-72 206.49,-68.5 206.49,-75.5"/>
<text text-anchor="middle" x="197" y="-75.8" font-family="Times,serif" font-size="14.00">b</text>
</g>
<!-- 3&#45;&gt;5 -->
<g id="edge6" class="edge">
<title>3&#45;&gt;5</title>
<path fill="none" stroke="black" d="M172.98,-27.65C183.85,-34.91 199.08,-45.05 212.21,-53.81"/>
<polygon fill="black" stroke="black" points="210.23,-56.69 220.49,-59.33 214.11,-50.87 210.23,-56.69"/>
<text text-anchor="middle" x="197" y="-48.8" font-family="Times,serif" font-size="14.00">a</text>
</g>
</g>
</svg>
