<?xml version="1.0" encoding="UTF-8" standalone="no"?>
<!DOCTYPE svg PUBLIC "-//W3C//DTD SVG 1.1//EN"
 "http://www.w3.org/Graphics/SVG/1.1/DTD/svg11.dtd">
<!-- Generated by graphviz version 7.1.0 (20230121.1956)
 -->
<!-- Pages: 1 -->
<svg width="364pt" height="166pt"
 viewBox="0.00 0.00 364.20 165.76" xmlns="http://www.w3.org/2000/svg" xmlns:xlink="http://www.w3.org/1999/xlink">
<g id="graph0" class="graph" transform="scale(1 1) rotate(0) translate(4 161.76)">
<polygon fill="white" stroke="none" points="-4,4 -4,-161.76 360.2,-161.76 360.2,4 -4,4"/>
<!-- in -->
<g id="node1" class="node">
<title>in</title>
<ellipse fill="black" stroke="black" cx="1.8" cy="-102" rx="1.8" ry="1.8"/>
</g>
<!-- 0 -->
<g id="node4" class="node">
<title>0</title>
<ellipse fill="none" stroke="black" cx="58.6" cy="-102" rx="18" ry="18"/>
<text text-anchor="middle" x="58.6" y="-98.3" font-family="Times,serif" font-size="14.00">0</text>
</g>
<!-- in&#45;&gt;0 -->
<g id="edge1" class="edge">
<title>in&#45;&gt;0</title>
<path fill="none" stroke="black" d="M3.75,-102C6.96,-102 17.8,-102 28.92,-102"/>
<polygon fill="black" stroke="black" points="28.79,-105.5 38.79,-102 28.78,-98.5 28.79,-105.5"/>
</g>
<!-- out -->
<g id="node2" class="node">
<title>out</title>
<ellipse fill="black" stroke="black" cx="354.4" cy="-72" rx="1.8" ry="1.8"/>
</g>
<!-- 5 -->
<g id="node3" class="node">
<title>5</title>
<ellipse fill="none" stroke="black" cx="293.6" cy="-72" rx="18" ry="18"/>
<ellipse fill="none" stroke="black" cx="293.6" cy="-72" rx="22" ry="22"/>
<text text-anchor="middle" x="293.6" y="-68.3" font-family="Times,serif" font-size="14.00">5</text>
</g>
<!-- 5&#45;&gt;out -->
<g id="edge10" class="edge">
<title>5&#45;&gt;out</title>
<path fill="none" stroke="black" d="M315.83,-72C324.2,-72 333.52,-72 340.79,-72"/>
<polygon fill="black" stroke="black" points="340.73,-75.5 350.73,-72 340.73,-68.5 340.73,-75.5"/>
</g>
<!-- 1 -->
<g id="node5" class="node">
<title>1</title>
<ellipse fill="none" stroke="black" cx="131.6" cy="-102" rx="18" ry="18"/>
<text text-anchor="middle" x="131.6" y="-98.3" font-family="Times,serif" font-size="14.00">1</text>
</g>
<!-- 5&#45;&gt;1 -->
<g id="edge9" class="edge">
<title>5&#45;&gt;1</title>
<path fill="none" stroke="black" d="M283.43,-91.99C273.19,-111.63 254.57,-140.42 228.6,-153 214.2,-159.97 207.76,-158.11 192.6,-153 176.29,-147.5 161.51,-135.08 150.7,-123.87"/>
<polygon fill="black" stroke="black" points="153.58,-121.84 144.26,-116.79 148.4,-126.54 153.58,-121.84"/>
</g>
<!-- 0&#45;&gt;1 -->
<g id="edge2" class="edge">
<title>0&#45;&gt;1</title>
<path fill="none" stroke="black" d="M76.79,-102C84.37,-102 93.5,-102 102.06,-102"/>
<polygon fill="black" stroke="black" points="102.06,-105.5 112.06,-102 102.06,-98.5 102.06,-105.5"/>
</g>
<!-- 4 -->
<g id="node6" class="node">
<title>4</title>
<ellipse fill="none" stroke="black" cx="210.6" cy="-126" rx="18" ry="18"/>
<text text-anchor="middle" x="210.6" y="-122.3" font-family="Times,serif" font-size="14.00">4</text>
</g>
<!-- 1&#45;&gt;4 -->
<g id="edge3" class="edge">
<title>1&#45;&gt;4</title>
<path fill="none" stroke="black" d="M149.33,-107.27C155.12,-109.09 161.64,-111.14 167.6,-113 172.35,-114.48 177.41,-116.05 182.31,-117.57"/>
<polygon fill="black" stroke="black" points="181.21,-120.89 191.79,-120.51 183.28,-114.21 181.21,-120.89"/>
<text text-anchor="middle" x="171.1" y="-118.8" font-family="Times,serif" font-size="14.00">b</text>
</g>
<!-- 2 -->
<g id="node7" class="node">
<title>2</title>
<ellipse fill="none" stroke="black" cx="210.6" cy="-72" rx="18" ry="18"/>
<text text-anchor="middle" x="210.6" y="-68.3" font-family="Times,serif" font-size="14.00">2</text>
</g>
<!-- 1&#45;&gt;2 -->
<g id="edge4" class="edge">
<title>1&#45;&gt;2</title>
<path fill="none" stroke="black" d="M148.93,-95.64C158.73,-91.82 171.44,-86.87 182.69,-82.48"/>
<polygon fill="black" stroke="black" points="183.84,-85.79 191.88,-78.9 181.3,-79.27 183.84,-85.79"/>
<text text-anchor="middle" x="171.1" y="-90.8" font-family="Times,serif" font-size="14.00">a</text>
</g>
<!-- 3 -->
<g id="node8" class="node">
<title>3</title>
<ellipse fill="none" stroke="black" cx="210.6" cy="-18" rx="18" ry="18"/>
<text text-anchor="middle" x="210.6" y="-14.3" font-family="Times,serif" font-size="14.00">3</text>
</g>
<!-- 1&#45;&gt;3 -->
<g id="edge5" class="edge">
<title>1&#45;&gt;3</title>
<path fill="none" stroke="black" d="M144.63,-88.88C156.84,-75.56 175.92,-54.74 190.25,-39.11"/>
<polygon fill="black" stroke="black" points="192.45,-41.89 196.63,-32.15 187.29,-37.16 192.45,-41.89"/>
<text text-anchor="middle" x="171.1" y="-65.8" font-family="Times,serif" font-size="14.00">b</text>
</g>
<!-- 4&#45;&gt;1 -->
<g id="edge8" class="edge">
<title>4&#45;&gt;1</title>
<path fill="none" stroke="black" d="M192.92,-120.8C183.35,-117.82 171.07,-113.99 160.1,-110.57"/>
<polygon fill="black" stroke="black" points="161.34,-107.29 150.75,-107.66 159.26,-113.98 161.34,-107.29"/>
</g>
<!-- 2&#45;&gt;5 -->
<g id="edge6" class="edge">
<title>2&#45;&gt;5</title>
<path fill="none" stroke="black" d="M228.78,-72C237.75,-72 249.05,-72 259.63,-72"/>
<polygon fill="black" stroke="black" points="259.6,-75.5 269.6,-72 259.6,-68.5 259.6,-75.5"/>
<text text-anchor="middle" x="250.1" y="-75.8" font-family="Times,serif" font-size="14.00">b</text>
</g>
<!-- 3&#45;&gt;5 -->
<g id="edge7" class="edge">
<title>3&#45;&gt;5</title>
<path fill="none" stroke="black" d="M226.08,-27.65C236.96,-34.91 252.18,-45.05 265.32,-53.81"/>
<polygon fill="black" stroke="black" points="263.33,-56.69 273.59,-59.33 267.21,-50.87 263.33,-56.69"/>
<text text-anchor="middle" x="250.1" y="-48.8" font-family="Times,serif" font-size="14.00">a</text>
</g>
</g>
</svg>
