<?xml version="1.0" encoding="UTF-8" standalone="no"?>
<!DOCTYPE svg PUBLIC "-//W3C//DTD SVG 1.1//EN"
 "http://www.w3.org/Graphics/SVG/1.1/DTD/svg11.dtd">
<!-- Generated by graphviz version 7.1.0 (20230121.1956)
 -->
<!-- Pages: 1 -->
<svg width="355pt" height="128pt"
 viewBox="0.00 0.00 354.60 128.00" xmlns="http://www.w3.org/2000/svg" xmlns:xlink="http://www.w3.org/1999/xlink">
<g id="graph0" class="graph" transform="scale(1 1) rotate(0) translate(4 124)">
<polygon fill="white" stroke="none" points="-4,4 -4,-124 350.6,-124 350.6,4 -4,4"/>
<!-- start -->
<g id="node1" class="node">
<title>start</title>
<ellipse fill="black" stroke="black" cx="1.8" cy="-18" rx="1.8" ry="1.8"/>
</g>
<!-- 0 -->
<g id="node5" class="node">
<title>0</title>
<ellipse fill="none" stroke="black" cx="58.6" cy="-18" rx="18" ry="18"/>
<text text-anchor="middle" x="58.6" y="-14.3" font-family="Times,serif" font-size="14.00">0</text>
</g>
<!-- start&#45;&gt;0 -->
<g id="edge1" class="edge">
<title>start&#45;&gt;0</title>
<path fill="none" stroke="black" d="M3.75,-18C6.96,-18 17.8,-18 28.92,-18"/>
<polygon fill="black" stroke="black" points="28.79,-21.5 38.79,-18 28.78,-14.5 28.79,-21.5"/>
</g>
<!-- 3 -->
<g id="node2" class="node">
<title>3</title>
<ellipse fill="none" stroke="black" cx="324.6" cy="-69" rx="18" ry="18"/>
<ellipse fill="none" stroke="black" cx="324.6" cy="-69" rx="22" ry="22"/>
<text text-anchor="middle" x="324.6" y="-65.3" font-family="Times,serif" font-size="14.00">3</text>
</g>
<!-- 2 -->
<g id="node3" class="node">
<title>2</title>
<ellipse fill="none" stroke="black" cx="144.6" cy="-65" rx="18" ry="18"/>
<ellipse fill="none" stroke="black" cx="144.6" cy="-65" rx="22" ry="22"/>
<text text-anchor="middle" x="144.6" y="-61.3" font-family="Times,serif" font-size="14.00">2</text>
</g>
<!-- 2&#45;&gt;3 -->
<g id="edge5" class="edge">
<title>2&#45;&gt;3</title>
<path fill="none" stroke="black" d="M165.42,-73.35C178.54,-78.41 196.28,-84.39 212.6,-87 231.91,-90.09 237.21,-89.56 256.6,-87 268.48,-85.43 281.24,-82.37 292.4,-79.2"/>
<polygon fill="black" stroke="black" points="293.33,-82.58 301.91,-76.36 291.32,-75.87 293.33,-82.58"/>
<text text-anchor="middle" x="234.6" y="-92.8" font-family="Times,serif" font-size="14.00">C</text>
</g>
<!-- 2&#45;&gt;2 -->
<g id="edge7" class="edge">
<title>2&#45;&gt;2</title>
<path fill="none" stroke="black" d="M136.41,-85.58C135.28,-95.84 138.01,-105 144.6,-105 148.51,-105 151.07,-101.77 152.26,-97"/>
<polygon fill="black" stroke="black" points="155.75,-97.24 152.72,-87.09 148.76,-96.92 155.75,-97.24"/>
<text text-anchor="middle" x="144.6" y="-108.8" font-family="Times,serif" font-size="14.00">A</text>
</g>
<!-- 1 -->
<g id="node4" class="node">
<title>1</title>
<ellipse fill="none" stroke="black" cx="234.6" cy="-23" rx="18" ry="18"/>
<ellipse fill="none" stroke="black" cx="234.6" cy="-23" rx="22" ry="22"/>
<text text-anchor="middle" x="234.6" y="-19.3" font-family="Times,serif" font-size="14.00">1</text>
</g>
<!-- 2&#45;&gt;1 -->
<g id="edge6" class="edge">
<title>2&#45;&gt;1</title>
<path fill="none" stroke="black" d="M166.2,-60.79C175.19,-58.53 185.68,-55.31 194.6,-51 198.99,-48.88 203.41,-46.26 207.62,-43.49"/>
<polygon fill="black" stroke="black" points="209.56,-46.41 215.7,-37.77 205.51,-40.69 209.56,-46.41"/>
<text text-anchor="middle" x="189.6" y="-57.8" font-family="Times,serif" font-size="14.00">B</text>
</g>
<!-- 1&#45;&gt;3 -->
<g id="edge3" class="edge">
<title>1&#45;&gt;3</title>
<path fill="none" stroke="black" d="M254.69,-32.98C266.34,-39.07 281.46,-46.97 294.57,-53.82"/>
<polygon fill="black" stroke="black" points="292.72,-56.81 303.2,-58.34 295.96,-50.6 292.72,-56.81"/>
<text text-anchor="middle" x="279.6" y="-50.8" font-family="Times,serif" font-size="14.00">C</text>
</g>
<!-- 1&#45;&gt;2 -->
<g id="edge8" class="edge">
<title>1&#45;&gt;2</title>
<path fill="none" stroke="black" d="M212.36,-24.47C203.46,-25.7 193.2,-27.93 184.6,-32 179.13,-34.59 173.8,-38.14 168.93,-41.96"/>
<polygon fill="black" stroke="black" points="166.67,-39.3 161.36,-48.47 171.23,-44.61 166.67,-39.3"/>
<text text-anchor="middle" x="189.6" y="-35.8" font-family="Times,serif" font-size="14.00">A</text>
</g>
<!-- 1&#45;&gt;1 -->
<g id="edge4" class="edge">
<title>1&#45;&gt;1</title>
<path fill="none" stroke="black" d="M226.41,-43.58C225.28,-53.84 228.01,-63 234.6,-63 238.51,-63 241.07,-59.77 242.26,-55"/>
<polygon fill="black" stroke="black" points="245.75,-55.24 242.72,-45.09 238.76,-54.92 245.75,-55.24"/>
<text text-anchor="middle" x="234.6" y="-66.8" font-family="Times,serif" font-size="14.00">B</text>
</g>
<!-- 0&#45;&gt;2 -->
<g id="edge2" class="edge">
<title>0&#45;&gt;2</title>
<path fill="none" stroke="black" d="M74.62,-26.4C85.82,-32.67 101.47,-41.43 115.04,-49.02"/>
<polygon fill="black" stroke="black" points="113.13,-51.96 123.57,-53.79 116.55,-45.86 113.13,-51.96"/>
<text text-anchor="middle" x="99.6" y="-45.8" font-family="Times,serif" font-size="14.00">A</text>
</g>
<!-- 0&#45;&gt;1 -->
<g id="edge9" class="edge">
<title>0&#45;&gt;1</title>
<path fill="none" stroke="black" d="M77.03,-17.89C98.21,-17.83 135.04,-17.91 166.6,-19 177.8,-19.39 190.05,-20.05 200.97,-20.72"/>
<polygon fill="black" stroke="black" points="200.47,-24.2 210.68,-21.35 200.93,-17.21 200.47,-24.2"/>
<text text-anchor="middle" x="144.6" y="-22.8" font-family="Times,serif" font-size="14.00">B</text>
</g>
</g>
</svg>
