<?xml version="1.0" encoding="UTF-8" standalone="no"?>
<!DOCTYPE svg PUBLIC "-//W3C//DTD SVG 1.1//EN"
 "http://www.w3.org/Graphics/SVG/1.1/DTD/svg11.dtd">
<!-- Generated by graphviz version 7.1.0 (20230121.1956)
 -->
<!-- Pages: 1 -->
<svg width="268pt" height="108pt"
 viewBox="0.00 0.00 267.60 107.71" xmlns="http://www.w3.org/2000/svg" xmlns:xlink="http://www.w3.org/1999/xlink">
<g id="graph0" class="graph" transform="scale(1 1) rotate(0) translate(4 103.71)">
<polygon fill="white" stroke="none" points="-4,4 -4,-103.71 263.6,-103.71 263.6,4 -4,4"/>
<g id="clust1" class="cluster">
<title>cluster_F</title>
<polygon fill="none" stroke="gray" stroke-dasharray="5,2" points="64,-16.71 64,-91.71 195.6,-91.71 195.6,-16.71 64,-16.71"/>
<text text-anchor="middle" x="129.8" y="-76.51" font-family="Times,serif" font-size="14.00">NFA</text>
</g>
<!-- start -->
<g id="node1" class="node">
<title>start</title>
<ellipse fill="black" stroke="black" cx="73.8" cy="-42.71" rx="1.8" ry="1.8"/>
</g>
<!-- by -->
<g id="node2" class="node">
<title>by</title>
<ellipse fill="none" stroke="grey" stroke-dasharray="5,2" cx="129.8" cy="-42.71" rx="18.4" ry="18.4"/>
<text text-anchor="middle" x="129.8" y="-39.01" font-family="Times,serif" font-size="14.00">...</text>
</g>
<!-- start&#45;&gt;by -->
<!-- end -->
<g id="node3" class="node">
<title>end</title>
<ellipse fill="black" stroke="black" cx="185.8" cy="-42.71" rx="1.8" ry="1.8"/>
</g>
<!-- by&#45;&gt;end -->
<!-- 1 -->
<g id="node5" class="node">
<title>1</title>
<ellipse fill="none" stroke="black" cx="241.6" cy="-42.71" rx="18" ry="18"/>
<text text-anchor="middle" x="241.6" y="-39.01" font-family="Times,serif" font-size="14.00">1</text>
</g>
<!-- end&#45;&gt;1 -->
<g id="edge4" class="edge">
<title>end&#45;&gt;1</title>
<path fill="none" stroke="black" d="M187.73,-42.71C190.83,-42.71 201.16,-42.71 211.88,-42.71"/>
<polygon fill="black" stroke="black" points="211.82,-46.21 221.82,-42.71 211.82,-39.21 211.82,-46.21"/>
</g>
<!-- 0 -->
<g id="node4" class="node">
<title>0</title>
<ellipse fill="none" stroke="black" cx="18" cy="-42.71" rx="18" ry="18"/>
<text text-anchor="middle" x="18" y="-39.01" font-family="Times,serif" font-size="14.00">0</text>
</g>
<!-- 0&#45;&gt;start -->
<g id="edge3" class="edge">
<title>0&#45;&gt;start</title>
<path fill="none" stroke="black" d="M36.32,-42.71C44.13,-42.71 53.19,-42.71 60.32,-42.71"/>
<polygon fill="black" stroke="black" points="60.13,-46.21 70.13,-42.71 60.13,-39.21 60.13,-46.21"/>
</g>
<!-- 0&#45;&gt;1 -->
<g id="edge5" class="edge">
<title>0&#45;&gt;1</title>
<path fill="none" stroke="black" d="M32.1,-30.94C40.54,-24.17 52.14,-16.3 64,-12.71 119.98,4.24 139.62,4.24 195.6,-12.71 203.57,-15.12 211.42,-19.47 218.27,-24.11"/>
<polygon fill="black" stroke="black" points="216.16,-26.91 226.28,-30.04 220.33,-21.28 216.16,-26.91"/>
</g>
</g>
</svg>
