<?xml version="1.0" encoding="UTF-8" standalone="no"?>
<!DOCTYPE svg PUBLIC "-//W3C//DTD SVG 1.1//EN"
 "http://www.w3.org/Graphics/SVG/1.1/DTD/svg11.dtd">
<!-- Generated by graphviz version 7.1.0 (20230121.1956)
 -->
<!-- Pages: 1 -->
<svg width="516pt" height="218pt"
 viewBox="0.00 0.00 516.00 218.00" xmlns="http://www.w3.org/2000/svg" xmlns:xlink="http://www.w3.org/1999/xlink">
<g id="graph0" class="graph" transform="scale(1 1) rotate(0) translate(4 214)">
<polygon fill="white" stroke="none" points="-4,4 -4,-214 512,-214 512,4 -4,4"/>
<g id="clust1" class="cluster">
<title>cluster_1</title>
<polygon fill="none" stroke="gray" stroke-dasharray="5,2" points="64,-127 64,-202 319.8,-202 319.8,-127 64,-127"/>
<text text-anchor="middle" x="191.9" y="-186.8" font-family="Times,serif" font-size="14.00">NFA&#45;1</text>
</g>
<g id="clust2" class="cluster">
<title>cluster_2</title>
<polygon fill="none" stroke="gray" stroke-dasharray="5,2" points="64,-44 64,-119 319.8,-119 319.8,-44 64,-44"/>
<text text-anchor="middle" x="191.9" y="-103.8" font-family="Times,serif" font-size="14.00">NFA&#45;2</text>
</g>
<!-- dots -->
<g id="node1" class="node">
<title>dots</title>
<polygon fill="none" stroke="gray" stroke-dasharray="5,2" points="436,-36 184,-36 184,0 436,0 436,-36"/>
<text text-anchor="middle" x="310" y="-14.3" font-family="Times,serif" font-size="14.00">......</text>
</g>
<!-- 1 -->
<g id="node9" class="node">
<title>1</title>
<ellipse fill="none" stroke="black" cx="490" cy="-70" rx="18" ry="18"/>
<text text-anchor="middle" x="490" y="-66.3" font-family="Times,serif" font-size="14.00">1</text>
</g>
<!-- dots&#45;&gt;1 -->
<g id="edge8" class="edge">
<title>dots&#45;&gt;1</title>
<path fill="none" stroke="black" d="M425.2,-36.41C428.86,-37.54 432.47,-38.73 436,-40 446.01,-43.59 456.34,-49 465.19,-54.23"/>
<polygon fill="black" stroke="black" points="463.16,-57.09 473.51,-59.39 466.85,-51.14 463.16,-57.09"/>
</g>
<!-- start1 -->
<g id="node2" class="node">
<title>start1</title>
<ellipse fill="black" stroke="black" cx="73.8" cy="-145" rx="1.8" ry="1.8"/>
</g>
<!-- by1 -->
<g id="node3" class="node">
<title>by1</title>
<ellipse fill="none" stroke="grey" stroke-dasharray="5,2" cx="129.8" cy="-153" rx="18.4" ry="18.4"/>
<text text-anchor="middle" x="129.8" y="-149.3" font-family="Times,serif" font-size="14.00">...</text>
</g>
<!-- start1&#45;&gt;by1 -->
<!-- end1 -->
<g id="node4" class="node">
<title>end1</title>
<ellipse fill="black" stroke="black" cx="310" cy="-145" rx="1.8" ry="1.8"/>
</g>
<!-- by1&#45;&gt;end1 -->
<!-- end1&#45;&gt;1 -->
<g id="edge9" class="edge">
<title>end1&#45;&gt;1</title>
<path fill="none" stroke="black" d="M312.07,-145.05C321.41,-145.42 389.48,-147.21 436,-123 449.88,-115.77 462.43,-103.63 471.82,-92.79"/>
<polygon fill="black" stroke="black" points="474.33,-95.25 477.97,-85.3 468.92,-90.81 474.33,-95.25"/>
</g>
<!-- start2 -->
<g id="node5" class="node">
<title>start2</title>
<ellipse fill="black" stroke="black" cx="73.8" cy="-70" rx="1.8" ry="1.8"/>
</g>
<!-- by2 -->
<g id="node6" class="node">
<title>by2</title>
<ellipse fill="none" stroke="grey" stroke-dasharray="5,2" cx="129.8" cy="-70" rx="18.4" ry="18.4"/>
<text text-anchor="middle" x="129.8" y="-66.3" font-family="Times,serif" font-size="14.00">...</text>
</g>
<!-- start2&#45;&gt;by2 -->
<!-- end2 -->
<g id="node7" class="node">
<title>end2</title>
<ellipse fill="black" stroke="black" cx="310" cy="-70" rx="1.8" ry="1.8"/>
</g>
<!-- by2&#45;&gt;end2 -->
<!-- end2&#45;&gt;1 -->
<g id="edge10" class="edge">
<title>end2&#45;&gt;1</title>
<path fill="none" stroke="black" d="M312.13,-70C323.25,-70 413.11,-70 460.29,-70"/>
<polygon fill="black" stroke="black" points="460.05,-73.5 470.05,-70 460.05,-66.5 460.05,-73.5"/>
</g>
<!-- 0 -->
<g id="node8" class="node">
<title>0</title>
<ellipse fill="none" stroke="black" cx="18" cy="-70" rx="18" ry="18"/>
<text text-anchor="middle" x="18" y="-66.3" font-family="Times,serif" font-size="14.00">0</text>
</g>
<!-- 0&#45;&gt;dots -->
<g id="edge5" class="edge">
<title>0&#45;&gt;dots</title>
<path fill="none" stroke="black" d="M32.22,-58.6C40.71,-51.97 52.31,-44.12 64,-40 98.13,-27.97 136.51,-21.5 172.58,-18.22"/>
<polygon fill="black" stroke="black" points="172.51,-21.74 182.19,-17.42 171.93,-14.76 172.51,-21.74"/>
</g>
<!-- 0&#45;&gt;start1 -->
<g id="edge6" class="edge">
<title>0&#45;&gt;start1</title>
<path fill="none" stroke="black" d="M29.37,-84.46C40,-99.27 56.24,-121.92 65.56,-134.9"/>
<polygon fill="black" stroke="black" points="62.55,-136.71 71.22,-142.79 68.23,-132.63 62.55,-136.71"/>
</g>
<!-- 0&#45;&gt;start2 -->
<g id="edge7" class="edge">
<title>0&#45;&gt;start2</title>
<path fill="none" stroke="black" d="M36.32,-70C44.13,-70 53.19,-70 60.32,-70"/>
<polygon fill="black" stroke="black" points="60.13,-73.5 70.13,-70 60.13,-66.5 60.13,-73.5"/>
</g>
</g>
</svg>
