<?xml version="1.0" encoding="UTF-8" standalone="no"?>
<!DOCTYPE svg PUBLIC "-//W3C//DTD SVG 1.1//EN"
 "http://www.w3.org/Graphics/SVG/1.1/DTD/svg11.dtd">
<!-- Generated by graphviz version 7.1.0 (20230121.1956)
 -->
<!-- Pages: 1 -->
<svg width="1087pt" height="117pt"
 viewBox="0.00 0.00 1086.58 116.68" xmlns="http://www.w3.org/2000/svg" xmlns:xlink="http://www.w3.org/1999/xlink">
<g id="graph0" class="graph" transform="scale(1 1) rotate(0) translate(4 112.68)">
<polygon fill="white" stroke="none" points="-4,4 -4,-112.68 1082.58,-112.68 1082.58,4 -4,4"/>
<!-- start -->
<g id="node1" class="node">
<title>start</title>
<ellipse fill="black" stroke="black" cx="1.8" cy="-35.68" rx="1.8" ry="1.8"/>
</g>
<!-- 1 -->
<g id="node3" class="node">
<title>1</title>
<ellipse fill="none" stroke="black" cx="58.6" cy="-35.68" rx="18" ry="18"/>
<text text-anchor="middle" x="58.6" y="-31.98" font-family="Times,serif" font-size="14.00">1</text>
</g>
<!-- start&#45;&gt;1 -->
<g id="edge1" class="edge">
<title>start&#45;&gt;1</title>
<path fill="none" stroke="black" d="M3.75,-35.68C6.96,-35.68 17.8,-35.68 28.92,-35.68"/>
<polygon fill="black" stroke="black" points="28.79,-39.18 38.79,-35.68 28.78,-32.18 28.79,-39.18"/>
</g>
<!-- 2 -->
<g id="node2" class="node">
<title>2</title>
<ellipse fill="none" stroke="black" cx="1056.58" cy="-35.68" rx="18" ry="18"/>
<ellipse fill="none" stroke="black" cx="1056.58" cy="-35.68" rx="22" ry="22"/>
<text text-anchor="middle" x="1056.58" y="-31.98" font-family="Times,serif" font-size="14.00">2</text>
</g>
<!-- 3 -->
<g id="node4" class="node">
<title>3</title>
<ellipse fill="none" stroke="black" cx="147.6" cy="-35.68" rx="18" ry="18"/>
<text text-anchor="middle" x="147.6" y="-31.98" font-family="Times,serif" font-size="14.00">3</text>
</g>
<!-- 1&#45;&gt;3 -->
<g id="edge2" class="edge">
<title>1&#45;&gt;3</title>
<path fill="none" stroke="black" d="M76.79,-35.68C88.51,-35.68 104.31,-35.68 117.92,-35.68"/>
<polygon fill="black" stroke="black" points="117.64,-39.18 127.64,-35.68 117.64,-32.18 117.64,-39.18"/>
<text text-anchor="middle" x="103.1" y="-39.48" font-family="Times,serif" font-size="14.00">EE</text>
</g>
<!-- 5 -->
<g id="node5" class="node">
<title>5</title>
<ellipse fill="none" stroke="black" cx="236.6" cy="-35.68" rx="18" ry="18"/>
<text text-anchor="middle" x="236.6" y="-31.98" font-family="Times,serif" font-size="14.00">5</text>
</g>
<!-- 3&#45;&gt;5 -->
<g id="edge3" class="edge">
<title>3&#45;&gt;5</title>
<path fill="none" stroke="black" d="M165.79,-35.68C177.51,-35.68 193.31,-35.68 206.92,-35.68"/>
<polygon fill="black" stroke="black" points="206.64,-39.18 216.64,-35.68 206.64,-32.18 206.64,-39.18"/>
<text text-anchor="middle" x="192.1" y="-39.48" font-family="Times,serif" font-size="14.00">EE</text>
</g>
<!-- 7 -->
<g id="node6" class="node">
<title>7</title>
<ellipse fill="none" stroke="black" cx="325.6" cy="-89.68" rx="18" ry="18"/>
<text text-anchor="middle" x="325.6" y="-85.98" font-family="Times,serif" font-size="14.00">7</text>
</g>
<!-- 5&#45;&gt;7 -->
<g id="edge4" class="edge">
<title>5&#45;&gt;7</title>
<path fill="none" stroke="black" d="M252.36,-44.84C265.48,-52.99 284.92,-65.06 300.33,-74.62"/>
<polygon fill="black" stroke="black" points="298.14,-77.38 308.48,-79.68 301.83,-71.43 298.14,-77.38"/>
<text text-anchor="middle" x="281.1" y="-70.48" font-family="Times,serif" font-size="14.00">EE</text>
</g>
<!-- 9 -->
<g id="node9" class="node">
<title>9</title>
<ellipse fill="none" stroke="black" cx="325.6" cy="-35.68" rx="18" ry="18"/>
<text text-anchor="middle" x="325.6" y="-31.98" font-family="Times,serif" font-size="14.00">9</text>
</g>
<!-- 5&#45;&gt;9 -->
<g id="edge7" class="edge">
<title>5&#45;&gt;9</title>
<path fill="none" stroke="black" d="M254.79,-35.68C266.51,-35.68 282.31,-35.68 295.92,-35.68"/>
<polygon fill="black" stroke="black" points="295.64,-39.18 305.64,-35.68 295.64,-32.18 295.64,-39.18"/>
<text text-anchor="middle" x="281.1" y="-39.48" font-family="Times,serif" font-size="14.00">EE</text>
</g>
<!-- 8 -->
<g id="node7" class="node">
<title>8</title>
<ellipse fill="none" stroke="black" cx="416.1" cy="-90.68" rx="18" ry="18"/>
<text text-anchor="middle" x="416.1" y="-86.98" font-family="Times,serif" font-size="14.00">8</text>
</g>
<!-- 7&#45;&gt;8 -->
<g id="edge5" class="edge">
<title>7&#45;&gt;8</title>
<path fill="none" stroke="black" d="M344.08,-89.88C356.08,-90.02 372.29,-90.2 386.19,-90.36"/>
<polygon fill="black" stroke="black" points="386.1,-93.86 396.14,-90.47 386.18,-86.86 386.1,-93.86"/>
<text text-anchor="middle" x="370.1" y="-93.48" font-family="Times,serif" font-size="14.00">A</text>
</g>
<!-- 6 -->
<g id="node8" class="node">
<title>6</title>
<ellipse fill="none" stroke="black" cx="506.6" cy="-35.68" rx="18" ry="18"/>
<text text-anchor="middle" x="506.6" y="-31.98" font-family="Times,serif" font-size="14.00">6</text>
</g>
<!-- 8&#45;&gt;6 -->
<g id="edge6" class="edge">
<title>8&#45;&gt;6</title>
<path fill="none" stroke="black" d="M431.71,-81.6C445.08,-73.29 465.13,-60.83 480.98,-50.99"/>
<polygon fill="black" stroke="black" points="482.73,-54.01 489.38,-45.76 479.04,-48.07 482.73,-54.01"/>
<text text-anchor="middle" x="462.1" y="-69.48" font-family="Times,serif" font-size="14.00">EE</text>
</g>
<!-- 6&#45;&gt;5 -->
<g id="edge10" class="edge">
<title>6&#45;&gt;5</title>
<path fill="none" stroke="black" d="M490.27,-27.57C476.42,-20.73 455.26,-11.47 435.6,-7.68 379.73,3.07 363.47,2.04 307.6,-8.68 292.56,-11.57 276.57,-17.5 263.68,-23.07"/>
<polygon fill="black" stroke="black" points="262.3,-19.85 254.62,-27.16 265.18,-26.23 262.3,-19.85"/>
<text text-anchor="middle" x="370.1" y="-4.48" font-family="Times,serif" font-size="14.00">EE</text>
</g>
<!-- 4 -->
<g id="node11" class="node">
<title>4</title>
<ellipse fill="none" stroke="black" cx="595.6" cy="-35.68" rx="18" ry="18"/>
<text text-anchor="middle" x="595.6" y="-31.98" font-family="Times,serif" font-size="14.00">4</text>
</g>
<!-- 6&#45;&gt;4 -->
<g id="edge11" class="edge">
<title>6&#45;&gt;4</title>
<path fill="none" stroke="black" d="M524.78,-35.68C536.51,-35.68 552.31,-35.68 565.91,-35.68"/>
<polygon fill="black" stroke="black" points="565.63,-39.18 575.63,-35.68 565.63,-32.18 565.63,-39.18"/>
<text text-anchor="middle" x="551.1" y="-39.48" font-family="Times,serif" font-size="14.00">EE</text>
</g>
<!-- 10 -->
<g id="node10" class="node">
<title>10</title>
<ellipse fill="none" stroke="black" cx="416.1" cy="-35.68" rx="19.5" ry="19.5"/>
<text text-anchor="middle" x="416.1" y="-31.98" font-family="Times,serif" font-size="14.00">10</text>
</g>
<!-- 9&#45;&gt;10 -->
<g id="edge8" class="edge">
<title>9&#45;&gt;10</title>
<path fill="none" stroke="black" d="M344.08,-35.68C355.69,-35.68 371.24,-35.68 384.83,-35.68"/>
<polygon fill="black" stroke="black" points="384.6,-39.18 394.6,-35.68 384.6,-32.18 384.6,-39.18"/>
<text text-anchor="middle" x="370.1" y="-39.48" font-family="Times,serif" font-size="14.00">B</text>
</g>
<!-- 10&#45;&gt;6 -->
<g id="edge9" class="edge">
<title>10&#45;&gt;6</title>
<path fill="none" stroke="black" d="M435.87,-35.68C447.87,-35.68 463.68,-35.68 477.21,-35.68"/>
<polygon fill="black" stroke="black" points="476.84,-39.18 486.84,-35.68 476.84,-32.18 476.84,-39.18"/>
<text text-anchor="middle" x="462.1" y="-39.48" font-family="Times,serif" font-size="14.00">EE</text>
</g>
<!-- 11 -->
<g id="node12" class="node">
<title>11</title>
<ellipse fill="none" stroke="black" cx="686.09" cy="-35.68" rx="19.5" ry="19.5"/>
<text text-anchor="middle" x="686.09" y="-31.98" font-family="Times,serif" font-size="14.00">11</text>
</g>
<!-- 4&#45;&gt;11 -->
<g id="edge12" class="edge">
<title>4&#45;&gt;11</title>
<path fill="none" stroke="black" d="M614.08,-35.68C625.69,-35.68 641.24,-35.68 654.83,-35.68"/>
<polygon fill="black" stroke="black" points="654.6,-39.18 664.6,-35.68 654.6,-32.18 654.6,-39.18"/>
<text text-anchor="middle" x="640.1" y="-39.48" font-family="Times,serif" font-size="14.00">EE</text>
</g>
<!-- 13 -->
<g id="node13" class="node">
<title>13</title>
<ellipse fill="none" stroke="black" cx="778.09" cy="-35.68" rx="19.5" ry="19.5"/>
<text text-anchor="middle" x="778.09" y="-31.98" font-family="Times,serif" font-size="14.00">13</text>
</g>
<!-- 11&#45;&gt;13 -->
<g id="edge13" class="edge">
<title>11&#45;&gt;13</title>
<path fill="none" stroke="black" d="M705.74,-35.68C717.61,-35.68 733.25,-35.68 746.86,-35.68"/>
<polygon fill="black" stroke="black" points="746.64,-39.18 756.64,-35.68 746.64,-32.18 746.64,-39.18"/>
<text text-anchor="middle" x="732.09" y="-39.48" font-family="Times,serif" font-size="14.00">EE</text>
</g>
<!-- 14 -->
<g id="node14" class="node">
<title>14</title>
<ellipse fill="none" stroke="black" cx="870.09" cy="-35.68" rx="19.5" ry="19.5"/>
<text text-anchor="middle" x="870.09" y="-31.98" font-family="Times,serif" font-size="14.00">14</text>
</g>
<!-- 13&#45;&gt;14 -->
<g id="edge14" class="edge">
<title>13&#45;&gt;14</title>
<path fill="none" stroke="black" d="M797.74,-35.68C809.61,-35.68 825.25,-35.68 838.86,-35.68"/>
<polygon fill="black" stroke="black" points="838.64,-39.18 848.64,-35.68 838.64,-32.18 838.64,-39.18"/>
<text text-anchor="middle" x="824.09" y="-39.48" font-family="Times,serif" font-size="14.00">C</text>
</g>
<!-- 13&#45;&gt;14 -->
<g id="edge15" class="edge">
<title>13&#45;&gt;14</title>
<path fill="none" stroke="black" d="M794.78,-25.41C801,-21.92 808.37,-18.45 815.59,-16.68 822.93,-14.89 825.25,-14.89 832.59,-16.68 836.2,-17.57 839.85,-18.87 843.37,-20.4"/>
<polygon fill="black" stroke="black" points="841.53,-23.39 852.04,-24.73 844.66,-17.13 841.53,-23.39"/>
<text text-anchor="middle" x="824.09" y="-20.48" font-family="Times,serif" font-size="14.00">EE</text>
</g>
<!-- 12 -->
<g id="node15" class="node">
<title>12</title>
<ellipse fill="none" stroke="black" cx="962.08" cy="-35.68" rx="19.5" ry="19.5"/>
<text text-anchor="middle" x="962.08" y="-31.98" font-family="Times,serif" font-size="14.00">12</text>
</g>
<!-- 14&#45;&gt;12 -->
<g id="edge16" class="edge">
<title>14&#45;&gt;12</title>
<path fill="none" stroke="black" d="M889.74,-35.68C901.6,-35.68 917.24,-35.68 930.86,-35.68"/>
<polygon fill="black" stroke="black" points="930.64,-39.18 940.64,-35.68 930.64,-32.18 930.64,-39.18"/>
<text text-anchor="middle" x="916.09" y="-39.48" font-family="Times,serif" font-size="14.00">EE</text>
</g>
<!-- 12&#45;&gt;2 -->
<g id="edge17" class="edge">
<title>12&#45;&gt;2</title>
<path fill="none" stroke="black" d="M981.8,-35.68C993.56,-35.68 1009.05,-35.68 1022.8,-35.68"/>
<polygon fill="black" stroke="black" points="1022.79,-39.18 1032.79,-35.68 1022.79,-32.18 1022.79,-39.18"/>
<text text-anchor="middle" x="1008.08" y="-39.48" font-family="Times,serif" font-size="14.00">EE</text>
</g>
</g>
</svg>
