<?xml version="1.0" encoding="UTF-8" standalone="no"?>
<!DOCTYPE svg PUBLIC "-//W3C//DTD SVG 1.1//EN"
 "http://www.w3.org/Graphics/SVG/1.1/DTD/svg11.dtd">
<!-- Generated by graphviz version 7.1.0 (20230121.1956)
 -->
<!-- Pages: 1 -->
<svg width="1641pt" height="225pt"
 viewBox="0.00 0.00 1640.56 225.00" xmlns="http://www.w3.org/2000/svg" xmlns:xlink="http://www.w3.org/1999/xlink">
<g id="graph0" class="graph" transform="scale(1 1) rotate(0) translate(4 221)">
<polygon fill="white" stroke="none" points="-4,4 -4,-221 1636.56,-221 1636.56,4 -4,4"/>
<!-- start -->
<g id="node1" class="node">
<title>start</title>
<ellipse fill="black" stroke="black" cx="1.8" cy="-68.5" rx="1.8" ry="1.8"/>
</g>
<!-- 1 -->
<g id="node3" class="node">
<title>1</title>
<ellipse fill="none" stroke="black" cx="58.6" cy="-68.5" rx="18" ry="18"/>
<text text-anchor="middle" x="58.6" y="-64.8" font-family="Times,serif" font-size="14.00">1</text>
</g>
<!-- start&#45;&gt;1 -->
<g id="edge1" class="edge">
<title>start&#45;&gt;1</title>
<path fill="none" stroke="black" d="M3.75,-68.5C6.96,-68.5 17.8,-68.5 28.92,-68.5"/>
<polygon fill="black" stroke="black" points="28.79,-72 38.79,-68.5 28.78,-65 28.79,-72"/>
</g>
<!-- 2 -->
<g id="node2" class="node">
<title>2</title>
<ellipse fill="none" stroke="black" cx="1610.56" cy="-34.5" rx="18" ry="18"/>
<ellipse fill="none" stroke="black" cx="1610.56" cy="-34.5" rx="22" ry="22"/>
<text text-anchor="middle" x="1610.56" y="-30.8" font-family="Times,serif" font-size="14.00">2</text>
</g>
<!-- 3 -->
<g id="node4" class="node">
<title>3</title>
<ellipse fill="none" stroke="black" cx="147.6" cy="-68.5" rx="18" ry="18"/>
<text text-anchor="middle" x="147.6" y="-64.8" font-family="Times,serif" font-size="14.00">3</text>
</g>
<!-- 1&#45;&gt;3 -->
<g id="edge2" class="edge">
<title>1&#45;&gt;3</title>
<path fill="none" stroke="black" d="M76.79,-68.5C88.51,-68.5 104.31,-68.5 117.92,-68.5"/>
<polygon fill="black" stroke="black" points="117.64,-72 127.64,-68.5 117.64,-65 117.64,-72"/>
<text text-anchor="middle" x="103.1" y="-72.3" font-family="Times,serif" font-size="14.00">EE</text>
</g>
<!-- 4 -->
<g id="node5" class="node">
<title>4</title>
<ellipse fill="none" stroke="black" cx="226.6" cy="-68.5" rx="18" ry="18"/>
<text text-anchor="middle" x="226.6" y="-64.8" font-family="Times,serif" font-size="14.00">4</text>
</g>
<!-- 3&#45;&gt;4 -->
<g id="edge3" class="edge">
<title>3&#45;&gt;4</title>
<path fill="none" stroke="black" d="M166.07,-68.5C175.13,-68.5 186.43,-68.5 196.74,-68.5"/>
<polygon fill="black" stroke="black" points="196.68,-72 206.68,-68.5 196.68,-65 196.68,-72"/>
<text text-anchor="middle" x="187.1" y="-72.3" font-family="Times,serif" font-size="14.00">0</text>
</g>
<!-- 5 -->
<g id="node6" class="node">
<title>5</title>
<ellipse fill="none" stroke="black" cx="315.6" cy="-68.5" rx="18" ry="18"/>
<text text-anchor="middle" x="315.6" y="-64.8" font-family="Times,serif" font-size="14.00">5</text>
</g>
<!-- 4&#45;&gt;5 -->
<g id="edge4" class="edge">
<title>4&#45;&gt;5</title>
<path fill="none" stroke="black" d="M244.79,-68.5C256.51,-68.5 272.31,-68.5 285.92,-68.5"/>
<polygon fill="black" stroke="black" points="285.64,-72 295.64,-68.5 285.64,-65 285.64,-72"/>
<text text-anchor="middle" x="271.1" y="-72.3" font-family="Times,serif" font-size="14.00">EE</text>
</g>
<!-- 6 -->
<g id="node7" class="node">
<title>6</title>
<ellipse fill="none" stroke="black" cx="397.6" cy="-68.5" rx="18" ry="18"/>
<text text-anchor="middle" x="397.6" y="-64.8" font-family="Times,serif" font-size="14.00">6</text>
</g>
<!-- 5&#45;&gt;6 -->
<g id="edge5" class="edge">
<title>5&#45;&gt;6</title>
<path fill="none" stroke="black" d="M333.96,-68.5C343.92,-68.5 356.67,-68.5 368.06,-68.5"/>
<polygon fill="black" stroke="black" points="367.76,-72 377.76,-68.5 367.76,-65 367.76,-72"/>
<text text-anchor="middle" x="356.6" y="-72.3" font-family="Times,serif" font-size="14.00">B</text>
</g>
<!-- 7 -->
<g id="node8" class="node">
<title>7</title>
<ellipse fill="none" stroke="black" cx="486.6" cy="-68.5" rx="18" ry="18"/>
<text text-anchor="middle" x="486.6" y="-64.8" font-family="Times,serif" font-size="14.00">7</text>
</g>
<!-- 6&#45;&gt;7 -->
<g id="edge6" class="edge">
<title>6&#45;&gt;7</title>
<path fill="none" stroke="black" d="M415.79,-68.5C427.51,-68.5 443.31,-68.5 456.92,-68.5"/>
<polygon fill="black" stroke="black" points="456.64,-72 466.64,-68.5 456.64,-65 456.64,-72"/>
<text text-anchor="middle" x="442.1" y="-72.3" font-family="Times,serif" font-size="14.00">EE</text>
</g>
<!-- 9 -->
<g id="node9" class="node">
<title>9</title>
<ellipse fill="none" stroke="black" cx="577.1" cy="-100.5" rx="18" ry="18"/>
<text text-anchor="middle" x="577.1" y="-96.8" font-family="Times,serif" font-size="14.00">9</text>
</g>
<!-- 7&#45;&gt;9 -->
<g id="edge7" class="edge">
<title>7&#45;&gt;9</title>
<path fill="none" stroke="black" d="M503.83,-74.37C516.48,-78.94 534.31,-85.39 549.09,-90.73"/>
<polygon fill="black" stroke="black" points="547.65,-93.93 558.25,-94.04 550.03,-87.35 547.65,-93.93"/>
<text text-anchor="middle" x="531.1" y="-89.3" font-family="Times,serif" font-size="14.00">EE</text>
</g>
<!-- 21 -->
<g id="node22" class="node">
<title>21</title>
<ellipse fill="none" stroke="black" cx="577.1" cy="-41.5" rx="19.5" ry="19.5"/>
<text text-anchor="middle" x="577.1" y="-37.8" font-family="Times,serif" font-size="14.00">21</text>
</g>
<!-- 7&#45;&gt;21 -->
<g id="edge23" class="edge">
<title>7&#45;&gt;21</title>
<path fill="none" stroke="black" d="M503.46,-61.6C509.39,-59.17 516.24,-56.53 522.6,-54.5 530.31,-52.03 538.77,-49.78 546.64,-47.86"/>
<polygon fill="black" stroke="black" points="547.18,-51.33 556.12,-45.66 545.59,-44.51 547.18,-51.33"/>
<text text-anchor="middle" x="531.1" y="-58.3" font-family="Times,serif" font-size="14.00">EE</text>
</g>
<!-- 11 -->
<g id="node10" class="node">
<title>11</title>
<ellipse fill="none" stroke="black" cx="669.09" cy="-103.5" rx="19.5" ry="19.5"/>
<text text-anchor="middle" x="669.09" y="-99.8" font-family="Times,serif" font-size="14.00">11</text>
</g>
<!-- 9&#45;&gt;11 -->
<g id="edge8" class="edge">
<title>9&#45;&gt;11</title>
<path fill="none" stroke="black" d="M595.45,-101.08C607.5,-101.48 623.87,-102.02 638.02,-102.5"/>
<polygon fill="black" stroke="black" points="637.62,-105.98 647.73,-102.82 637.85,-98.99 637.62,-105.98"/>
<text text-anchor="middle" x="623.1" y="-105.3" font-family="Times,serif" font-size="14.00">EE</text>
</g>
<!-- 12 -->
<g id="node11" class="node">
<title>12</title>
<ellipse fill="none" stroke="black" cx="783.09" cy="-103.5" rx="19.5" ry="19.5"/>
<text text-anchor="middle" x="783.09" y="-99.8" font-family="Times,serif" font-size="14.00">12</text>
</g>
<!-- 11&#45;&gt;12 -->
<g id="edge9" class="edge">
<title>11&#45;&gt;12</title>
<path fill="none" stroke="black" d="M688.84,-103.5C706.04,-103.5 731.82,-103.5 751.92,-103.5"/>
<polygon fill="black" stroke="black" points="751.77,-107 761.77,-103.5 751.77,-100 751.77,-107"/>
<text text-anchor="middle" x="726.09" y="-107.3" font-family="Times,serif" font-size="14.00">1</text>
</g>
<!-- 13 -->
<g id="node12" class="node">
<title>13</title>
<ellipse fill="none" stroke="black" cx="875.08" cy="-103.5" rx="19.5" ry="19.5"/>
<text text-anchor="middle" x="875.08" y="-99.8" font-family="Times,serif" font-size="14.00">13</text>
</g>
<!-- 12&#45;&gt;13 -->
<g id="edge10" class="edge">
<title>12&#45;&gt;13</title>
<path fill="none" stroke="black" d="M802.74,-103.5C814.6,-103.5 830.24,-103.5 843.86,-103.5"/>
<polygon fill="black" stroke="black" points="843.64,-107 853.64,-103.5 843.64,-100 843.64,-107"/>
<text text-anchor="middle" x="829.09" y="-107.3" font-family="Times,serif" font-size="14.00">EE</text>
</g>
<!-- 15 -->
<g id="node13" class="node">
<title>15</title>
<ellipse fill="none" stroke="black" cx="967.08" cy="-103.5" rx="19.5" ry="19.5"/>
<text text-anchor="middle" x="967.08" y="-99.8" font-family="Times,serif" font-size="14.00">15</text>
</g>
<!-- 13&#45;&gt;15 -->
<g id="edge11" class="edge">
<title>13&#45;&gt;15</title>
<path fill="none" stroke="black" d="M894.73,-103.5C906.6,-103.5 922.24,-103.5 935.85,-103.5"/>
<polygon fill="black" stroke="black" points="935.63,-107 945.63,-103.5 935.63,-100 935.63,-107"/>
<text text-anchor="middle" x="921.08" y="-107.3" font-family="Times,serif" font-size="14.00">EE</text>
</g>
<!-- 17 -->
<g id="node14" class="node">
<title>17</title>
<ellipse fill="none" stroke="black" cx="1059.08" cy="-197.5" rx="19.5" ry="19.5"/>
<text text-anchor="middle" x="1059.08" y="-193.8" font-family="Times,serif" font-size="14.00">17</text>
</g>
<!-- 15&#45;&gt;17 -->
<g id="edge12" class="edge">
<title>15&#45;&gt;17</title>
<path fill="none" stroke="black" d="M975.89,-121.32C982.25,-134.37 992.18,-151.94 1004.58,-164.5 1012.26,-172.29 1022.14,-179.04 1031.3,-184.37"/>
<polygon fill="black" stroke="black" points="1029.41,-187.32 1039.87,-189.04 1032.76,-181.18 1029.41,-187.32"/>
<text text-anchor="middle" x="1013.08" y="-181.3" font-family="Times,serif" font-size="14.00">EE</text>
</g>
<!-- 16 -->
<g id="node16" class="node">
<title>16</title>
<ellipse fill="none" stroke="black" cx="1243.07" cy="-103.5" rx="19.5" ry="19.5"/>
<text text-anchor="middle" x="1243.07" y="-99.8" font-family="Times,serif" font-size="14.00">16</text>
</g>
<!-- 15&#45;&gt;16 -->
<g id="edge20" class="edge">
<title>15&#45;&gt;16</title>
<path fill="none" stroke="black" d="M984.43,-113.02C990.6,-116.35 997.77,-119.89 1004.58,-122.5 1019.58,-128.24 1023.64,-129.48 1039.58,-131.5 1112.88,-140.77 1136.58,-148.93 1205.57,-122.5 1208.87,-121.24 1212.25,-119.75 1215.57,-118.18"/>
<polygon fill="black" stroke="black" points="1217.04,-121.36 1224.38,-113.71 1213.87,-115.12 1217.04,-121.36"/>
<text text-anchor="middle" x="1105.08" y="-143.3" font-family="Times,serif" font-size="14.00">EE</text>
</g>
<!-- 19 -->
<g id="node17" class="node">
<title>19</title>
<ellipse fill="none" stroke="black" cx="1059.08" cy="-103.5" rx="19.5" ry="19.5"/>
<text text-anchor="middle" x="1059.08" y="-99.8" font-family="Times,serif" font-size="14.00">19</text>
</g>
<!-- 15&#45;&gt;19 -->
<g id="edge15" class="edge">
<title>15&#45;&gt;19</title>
<path fill="none" stroke="black" d="M986.73,-103.5C998.59,-103.5 1014.24,-103.5 1027.85,-103.5"/>
<polygon fill="black" stroke="black" points="1027.63,-107 1037.63,-103.5 1027.63,-100 1027.63,-107"/>
<text text-anchor="middle" x="1013.08" y="-107.3" font-family="Times,serif" font-size="14.00">EE</text>
</g>
<!-- 18 -->
<g id="node15" class="node">
<title>18</title>
<ellipse fill="none" stroke="black" cx="1151.07" cy="-197.5" rx="19.5" ry="19.5"/>
<text text-anchor="middle" x="1151.07" y="-193.8" font-family="Times,serif" font-size="14.00">18</text>
</g>
<!-- 17&#45;&gt;18 -->
<g id="edge13" class="edge">
<title>17&#45;&gt;18</title>
<path fill="none" stroke="black" d="M1078.72,-197.5C1090.59,-197.5 1106.23,-197.5 1119.85,-197.5"/>
<polygon fill="black" stroke="black" points="1119.63,-201 1129.63,-197.5 1119.63,-194 1119.63,-201"/>
<text text-anchor="middle" x="1105.08" y="-201.3" font-family="Times,serif" font-size="14.00">0</text>
</g>
<!-- 18&#45;&gt;16 -->
<g id="edge14" class="edge">
<title>18&#45;&gt;16</title>
<path fill="none" stroke="black" d="M1168.95,-189.76C1180.28,-183.97 1195,-175.22 1205.57,-164.5 1214.96,-154.98 1222.95,-142.59 1229.03,-131.46"/>
<polygon fill="black" stroke="black" points="1232.09,-133.16 1233.57,-122.66 1225.87,-129.95 1232.09,-133.16"/>
<text text-anchor="middle" x="1197.07" y="-181.3" font-family="Times,serif" font-size="14.00">EE</text>
</g>
<!-- 16&#45;&gt;15 -->
<g id="edge18" class="edge">
<title>16&#45;&gt;15</title>
<path fill="none" stroke="black" d="M1225.27,-94.84C1211.11,-88.06 1190.09,-79.18 1170.57,-75.5 1113.36,-64.7 1096.79,-64.7 1039.58,-75.5 1024.33,-78.38 1008.17,-84.43 995.07,-90.17"/>
<polygon fill="black" stroke="black" points="993.89,-86.86 986.26,-94.21 996.81,-93.22 993.89,-86.86"/>
<text text-anchor="middle" x="1105.08" y="-71.3" font-family="Times,serif" font-size="14.00">EE</text>
</g>
<!-- 14 -->
<g id="node19" class="node">
<title>14</title>
<ellipse fill="none" stroke="black" cx="1335.07" cy="-98.5" rx="19.5" ry="19.5"/>
<text text-anchor="middle" x="1335.07" y="-94.8" font-family="Times,serif" font-size="14.00">14</text>
</g>
<!-- 16&#45;&gt;14 -->
<g id="edge19" class="edge">
<title>16&#45;&gt;14</title>
<path fill="none" stroke="black" d="M1262.72,-102.46C1274.58,-101.8 1290.23,-100.93 1303.84,-100.18"/>
<polygon fill="black" stroke="black" points="1303.83,-103.68 1313.62,-99.63 1303.44,-96.69 1303.83,-103.68"/>
<text text-anchor="middle" x="1289.07" y="-104.3" font-family="Times,serif" font-size="14.00">EE</text>
</g>
<!-- 20 -->
<g id="node18" class="node">
<title>20</title>
<ellipse fill="none" stroke="black" cx="1151.07" cy="-103.5" rx="19.5" ry="19.5"/>
<text text-anchor="middle" x="1151.07" y="-99.8" font-family="Times,serif" font-size="14.00">20</text>
</g>
<!-- 19&#45;&gt;20 -->
<g id="edge16" class="edge">
<title>19&#45;&gt;20</title>
<path fill="none" stroke="black" d="M1078.72,-103.5C1090.59,-103.5 1106.23,-103.5 1119.85,-103.5"/>
<polygon fill="black" stroke="black" points="1119.63,-107 1129.63,-103.5 1119.63,-100 1119.63,-107"/>
<text text-anchor="middle" x="1105.08" y="-107.3" font-family="Times,serif" font-size="14.00">1</text>
</g>
<!-- 20&#45;&gt;16 -->
<g id="edge17" class="edge">
<title>20&#45;&gt;16</title>
<path fill="none" stroke="black" d="M1170.72,-103.5C1182.59,-103.5 1198.23,-103.5 1211.84,-103.5"/>
<polygon fill="black" stroke="black" points="1211.62,-107 1221.62,-103.5 1211.62,-100 1211.62,-107"/>
<text text-anchor="middle" x="1197.07" y="-107.3" font-family="Times,serif" font-size="14.00">EE</text>
</g>
<!-- 10 -->
<g id="node20" class="node">
<title>10</title>
<ellipse fill="none" stroke="black" cx="1427.06" cy="-79.5" rx="19.5" ry="19.5"/>
<text text-anchor="middle" x="1427.06" y="-75.8" font-family="Times,serif" font-size="14.00">10</text>
</g>
<!-- 14&#45;&gt;10 -->
<g id="edge21" class="edge">
<title>14&#45;&gt;10</title>
<path fill="none" stroke="black" d="M1354.28,-94.65C1366.4,-92.09 1382.59,-88.68 1396.53,-85.73"/>
<polygon fill="black" stroke="black" points="1397.03,-89.21 1406.09,-83.72 1395.58,-82.36 1397.03,-89.21"/>
<text text-anchor="middle" x="1381.07" y="-94.3" font-family="Times,serif" font-size="14.00">EE</text>
</g>
<!-- 8 -->
<g id="node21" class="node">
<title>8</title>
<ellipse fill="none" stroke="black" cx="1517.56" cy="-34.5" rx="18" ry="18"/>
<text text-anchor="middle" x="1517.56" y="-30.8" font-family="Times,serif" font-size="14.00">8</text>
</g>
<!-- 10&#45;&gt;8 -->
<g id="edge22" class="edge">
<title>10&#45;&gt;8</title>
<path fill="none" stroke="black" d="M1444.71,-71.03C1457.68,-64.44 1475.93,-55.16 1490.79,-47.61"/>
<polygon fill="black" stroke="black" points="1492.21,-50.81 1499.53,-43.16 1489.03,-44.57 1492.21,-50.81"/>
<text text-anchor="middle" x="1473.06" y="-63.3" font-family="Times,serif" font-size="14.00">EE</text>
</g>
<!-- 8&#45;&gt;2 -->
<g id="edge26" class="edge">
<title>8&#45;&gt;2</title>
<path fill="none" stroke="black" d="M1535.68,-34.5C1547.34,-34.5 1563.15,-34.5 1577.15,-34.5"/>
<polygon fill="black" stroke="black" points="1576.84,-38 1586.84,-34.5 1576.84,-31 1576.84,-38"/>
<text text-anchor="middle" x="1562.06" y="-38.3" font-family="Times,serif" font-size="14.00">EE</text>
</g>
<!-- 22 -->
<g id="node23" class="node">
<title>22</title>
<ellipse fill="none" stroke="black" cx="726.09" cy="-19.5" rx="19.5" ry="19.5"/>
<text text-anchor="middle" x="726.09" y="-15.8" font-family="Times,serif" font-size="14.00">22</text>
</g>
<!-- 21&#45;&gt;22 -->
<g id="edge24" class="edge">
<title>21&#45;&gt;22</title>
<path fill="none" stroke="black" d="M596.72,-38.71C621.57,-34.99 665.86,-28.36 695.36,-23.95"/>
<polygon fill="black" stroke="black" points="695.76,-27.43 705.13,-22.49 694.72,-20.5 695.76,-27.43"/>
<text text-anchor="middle" x="623.1" y="-40.3" font-family="Times,serif" font-size="14.00">0</text>
</g>
<!-- 22&#45;&gt;8 -->
<g id="edge25" class="edge">
<title>22&#45;&gt;8</title>
<path fill="none" stroke="black" d="M746.08,-19.2C766.38,-18.9 799.5,-18.5 828.09,-18.5 828.09,-18.5 828.09,-18.5 1428.06,-18.5 1448.61,-18.5 1471.43,-22.73 1488.74,-26.84"/>
<polygon fill="black" stroke="black" points="1487.74,-30.19 1498.29,-29.24 1489.45,-23.41 1487.74,-30.19"/>
<text text-anchor="middle" x="1105.08" y="-22.3" font-family="Times,serif" font-size="14.00">EE</text>
</g>
</g>
</svg>
