<?xml version="1.0" encoding="UTF-8" standalone="no"?>
<!DOCTYPE svg PUBLIC "-//W3C//DTD SVG 1.1//EN"
 "http://www.w3.org/Graphics/SVG/1.1/DTD/svg11.dtd">
<!-- Generated by graphviz version 7.1.0 (20230121.1956)
 -->
<!-- Pages: 1 -->
<svg width="507pt" height="124pt"
 viewBox="0.00 0.00 506.60 124.00" xmlns="http://www.w3.org/2000/svg" xmlns:xlink="http://www.w3.org/1999/xlink">
<g id="graph0" class="graph" transform="scale(1 1) rotate(0) translate(4 120)">
<polygon fill="white" stroke="none" points="-4,4 -4,-120 502.6,-120 502.6,4 -4,4"/>
<!-- start -->
<g id="node1" class="node">
<title>start</title>
<ellipse fill="black" stroke="black" cx="1.8" cy="-53" rx="1.8" ry="1.8"/>
</g>
<!-- 0 -->
<g id="node6" class="node">
<title>0</title>
<ellipse fill="none" stroke="black" cx="58.6" cy="-53" rx="18" ry="18"/>
<text text-anchor="middle" x="58.6" y="-49.3" font-family="Times,serif" font-size="14.00">0</text>
</g>
<!-- start&#45;&gt;0 -->
<g id="edge1" class="edge">
<title>start&#45;&gt;0</title>
<path fill="none" stroke="black" d="M3.75,-53C6.96,-53 17.8,-53 28.92,-53"/>
<polygon fill="black" stroke="black" points="28.79,-56.5 38.79,-53 28.78,-49.5 28.79,-56.5"/>
</g>
<!-- 6 -->
<g id="node2" class="node">
<title>6</title>
<ellipse fill="none" stroke="black" cx="302.6" cy="-84" rx="18" ry="18"/>
<ellipse fill="none" stroke="black" cx="302.6" cy="-84" rx="22" ry="22"/>
<text text-anchor="middle" x="302.6" y="-80.3" font-family="Times,serif" font-size="14.00">6</text>
</g>
<!-- 5 -->
<g id="node3" class="node">
<title>5</title>
<ellipse fill="none" stroke="black" cx="389.6" cy="-61" rx="18" ry="18"/>
<ellipse fill="none" stroke="black" cx="389.6" cy="-61" rx="22" ry="22"/>
<text text-anchor="middle" x="389.6" y="-57.3" font-family="Times,serif" font-size="14.00">5</text>
</g>
<!-- 5&#45;&gt;5 -->
<g id="edge4" class="edge">
<title>5&#45;&gt;5</title>
<path fill="none" stroke="black" d="M381.64,-81.99C380.66,-92.09 383.31,-101 389.6,-101 393.33,-101 395.78,-97.86 396.95,-93.19"/>
<polygon fill="black" stroke="black" points="400.43,-93.68 397.48,-83.5 393.44,-93.3 400.43,-93.68"/>
<text text-anchor="middle" x="389.6" y="-104.8" font-family="Times,serif" font-size="14.00">1</text>
</g>
<!-- 4 -->
<g id="node4" class="node">
<title>4</title>
<ellipse fill="none" stroke="black" cx="476.6" cy="-39" rx="18" ry="18"/>
<ellipse fill="none" stroke="black" cx="476.6" cy="-39" rx="22" ry="22"/>
<text text-anchor="middle" x="476.6" y="-35.3" font-family="Times,serif" font-size="14.00">4</text>
</g>
<!-- 5&#45;&gt;4 -->
<g id="edge5" class="edge">
<title>5&#45;&gt;4</title>
<path fill="none" stroke="black" d="M411.89,-59.39C419.74,-58.49 428.66,-57.11 436.6,-55 439.55,-54.22 442.57,-53.26 445.57,-52.22"/>
<polygon fill="black" stroke="black" points="446.62,-55.56 454.69,-48.7 444.1,-49.03 446.62,-55.56"/>
<text text-anchor="middle" x="433.1" y="-59.8" font-family="Times,serif" font-size="14.00">0</text>
</g>
<!-- 4&#45;&gt;5 -->
<g id="edge6" class="edge">
<title>4&#45;&gt;5</title>
<path fill="none" stroke="black" d="M454.65,-34.61C446.68,-33.72 437.59,-33.66 429.6,-36 425.21,-37.29 420.85,-39.23 416.71,-41.49"/>
<polygon fill="black" stroke="black" points="414.96,-38.46 408.32,-46.71 418.66,-44.4 414.96,-38.46"/>
<text text-anchor="middle" x="433.1" y="-39.8" font-family="Times,serif" font-size="14.00">1</text>
</g>
<!-- 4&#45;&gt;4 -->
<g id="edge7" class="edge">
<title>4&#45;&gt;4</title>
<path fill="none" stroke="black" d="M468.64,-59.99C467.66,-70.09 470.31,-79 476.6,-79 480.33,-79 482.78,-75.86 483.95,-71.19"/>
<polygon fill="black" stroke="black" points="487.43,-71.68 484.48,-61.5 480.44,-71.3 487.43,-71.68"/>
<text text-anchor="middle" x="476.6" y="-82.8" font-family="Times,serif" font-size="14.00">0</text>
</g>
<!-- 3 -->
<g id="node5" class="node">
<title>3</title>
<ellipse fill="none" stroke="black" cx="302.6" cy="-22" rx="18" ry="18"/>
<ellipse fill="none" stroke="black" cx="302.6" cy="-22" rx="22" ry="22"/>
<text text-anchor="middle" x="302.6" y="-18.3" font-family="Times,serif" font-size="14.00">3</text>
</g>
<!-- 3&#45;&gt;5 -->
<g id="edge3" class="edge">
<title>3&#45;&gt;5</title>
<path fill="none" stroke="black" d="M322.89,-30.85C333.46,-35.7 346.8,-41.82 358.7,-47.28"/>
<polygon fill="black" stroke="black" points="357.17,-50.43 367.72,-51.42 360.09,-44.07 357.17,-50.43"/>
<text text-anchor="middle" x="346.1" y="-45.8" font-family="Times,serif" font-size="14.00">1</text>
</g>
<!-- 3&#45;&gt;4 -->
<g id="edge8" class="edge">
<title>3&#45;&gt;4</title>
<path fill="none" stroke="black" d="M324.48,-17.66C346.36,-13.81 381.65,-9.57 411.6,-15 423.13,-17.09 435.28,-21.14 445.86,-25.32"/>
<polygon fill="black" stroke="black" points="444.26,-28.44 454.83,-29.07 446.96,-21.98 444.26,-28.44"/>
<text text-anchor="middle" x="389.6" y="-18.8" font-family="Times,serif" font-size="14.00">0</text>
</g>
<!-- 1 -->
<g id="node8" class="node">
<title>1</title>
<ellipse fill="none" stroke="black" cx="137.6" cy="-53" rx="18" ry="18"/>
<text text-anchor="middle" x="137.6" y="-49.3" font-family="Times,serif" font-size="14.00">1</text>
</g>
<!-- 0&#45;&gt;1 -->
<g id="edge11" class="edge">
<title>0&#45;&gt;1</title>
<path fill="none" stroke="black" d="M77.07,-53C86.13,-53 97.43,-53 107.74,-53"/>
<polygon fill="black" stroke="black" points="107.68,-56.5 117.68,-53 107.68,-49.5 107.68,-56.5"/>
<text text-anchor="middle" x="98.1" y="-56.8" font-family="Times,serif" font-size="14.00">0</text>
</g>
<!-- 2 -->
<g id="node7" class="node">
<title>2</title>
<ellipse fill="none" stroke="black" cx="219.6" cy="-53" rx="18" ry="18"/>
<text text-anchor="middle" x="219.6" y="-49.3" font-family="Times,serif" font-size="14.00">2</text>
</g>
<!-- 2&#45;&gt;6 -->
<g id="edge2" class="edge">
<title>2&#45;&gt;6</title>
<path fill="none" stroke="black" d="M236.99,-59.27C246.73,-63 259.39,-67.85 270.93,-72.26"/>
<polygon fill="black" stroke="black" points="269.5,-75.46 280.09,-75.77 272,-68.92 269.5,-75.46"/>
<text text-anchor="middle" x="259.1" y="-71.8" font-family="Times,serif" font-size="14.00">0</text>
</g>
<!-- 2&#45;&gt;3 -->
<g id="edge9" class="edge">
<title>2&#45;&gt;3</title>
<path fill="none" stroke="black" d="M236.99,-46.73C246.73,-43 259.39,-38.15 270.93,-33.74"/>
<polygon fill="black" stroke="black" points="272,-37.08 280.09,-30.23 269.5,-30.54 272,-37.08"/>
<text text-anchor="middle" x="259.1" y="-42.8" font-family="Times,serif" font-size="14.00">1</text>
</g>
<!-- 1&#45;&gt;2 -->
<g id="edge10" class="edge">
<title>1&#45;&gt;2</title>
<path fill="none" stroke="black" d="M155.96,-53C165.92,-53 178.67,-53 190.06,-53"/>
<polygon fill="black" stroke="black" points="189.76,-56.5 199.76,-53 189.76,-49.5 189.76,-56.5"/>
<text text-anchor="middle" x="178.6" y="-56.8" font-family="Times,serif" font-size="14.00">B</text>
</g>
</g>
</svg>
