<?xml version="1.0" encoding="UTF-8" standalone="no"?>
<!DOCTYPE svg PUBLIC "-//W3C//DTD SVG 1.1//EN"
 "http://www.w3.org/Graphics/SVG/1.1/DTD/svg11.dtd">
<!-- Generated by graphviz version 7.1.0 (20230121.1956)
 -->
<!-- Pages: 1 -->
<svg width="268pt" height="117pt"
 viewBox="0.00 0.00 267.60 116.71" xmlns="http://www.w3.org/2000/svg" xmlns:xlink="http://www.w3.org/1999/xlink">
<g id="graph0" class="graph" transform="scale(1 1) rotate(0) translate(4 112.71)">
<polygon fill="white" stroke="none" points="-4,4 -4,-112.71 263.6,-112.71 263.6,4 -4,4"/>
<g id="clust1" class="cluster">
<title>cluster_F</title>
<polygon fill="none" stroke="gray" stroke-dasharray="5,2" points="64,-25.71 64,-100.71 195.6,-100.71 195.6,-25.71 64,-25.71"/>
<text text-anchor="middle" x="129.8" y="-85.51" font-family="Times,serif" font-size="14.00">NFA</text>
</g>
<!-- start -->
<g id="node1" class="node">
<title>start</title>
<ellipse fill="black" stroke="black" cx="73.8" cy="-51.71" rx="1.8" ry="1.8"/>
</g>
<!-- by -->
<g id="node2" class="node">
<title>by</title>
<ellipse fill="none" stroke="grey" stroke-dasharray="5,2" cx="129.8" cy="-51.71" rx="18.4" ry="18.4"/>
<text text-anchor="middle" x="129.8" y="-48.01" font-family="Times,serif" font-size="14.00">...</text>
</g>
<!-- start&#45;&gt;by -->
<!-- end -->
<g id="node3" class="node">
<title>end</title>
<ellipse fill="black" stroke="black" cx="185.8" cy="-51.71" rx="1.8" ry="1.8"/>
</g>
<!-- by&#45;&gt;end -->
<!-- 1 -->
<g id="node5" class="node">
<title>1</title>
<ellipse fill="none" stroke="black" cx="241.6" cy="-51.71" rx="18" ry="18"/>
<text text-anchor="middle" x="241.6" y="-48.01" font-family="Times,serif" font-size="14.00">1</text>
</g>
<!-- end&#45;&gt;1 -->
<g id="edge4" class="edge">
<title>end&#45;&gt;1</title>
<path fill="none" stroke="black" d="M187.73,-51.71C190.83,-51.71 201.16,-51.71 211.88,-51.71"/>
<polygon fill="black" stroke="black" points="211.82,-55.21 221.82,-51.71 211.82,-48.21 211.82,-55.21"/>
</g>
<!-- 0 -->
<g id="node4" class="node">
<title>0</title>
<ellipse fill="none" stroke="black" cx="18" cy="-51.71" rx="18" ry="18"/>
<text text-anchor="middle" x="18" y="-48.01" font-family="Times,serif" font-size="14.00">0</text>
</g>
<!-- 0&#45;&gt;start -->
<g id="edge3" class="edge">
<title>0&#45;&gt;start</title>
<path fill="none" stroke="black" d="M36.32,-51.71C44.13,-51.71 53.19,-51.71 60.32,-51.71"/>
<polygon fill="black" stroke="black" points="60.13,-55.21 70.13,-51.71 60.13,-48.21 60.13,-55.21"/>
</g>
<!-- 0&#45;&gt;1 -->
<g id="edge5" class="edge">
<title>0&#45;&gt;1</title>
<path fill="none" stroke="black" d="M27.82,-36.53C36.34,-27.17 49.98,-16.96 64,-12.71 119.98,4.24 139.62,4.24 195.6,-12.71 205.67,-15.76 215.56,-21.9 223.48,-28.58"/>
<polygon fill="black" stroke="black" points="221.04,-31.1 230.69,-35.49 225.89,-26.04 221.04,-31.1"/>
</g>
<!-- 1&#45;&gt;0 -->
<g id="edge6" class="edge">
<title>1&#45;&gt;0</title>
<path fill="none" stroke="black" d="M224.29,-45.6C216.24,-40.32 206.02,-33.87 195.6,-30.71 139.62,-13.76 119.98,-13.76 64,-30.71 57.32,-32.73 50.73,-36.11 44.73,-39.66"/>
<polygon fill="black" stroke="black" points="43.18,-36.51 36.58,-44.8 46.91,-42.43 43.18,-36.51"/>
</g>
</g>
</svg>
