<?xml version="1.0" encoding="UTF-8" standalone="no"?>
<!DOCTYPE svg PUBLIC "-//W3C//DTD SVG 1.1//EN"
 "http://www.w3.org/Graphics/SVG/1.1/DTD/svg11.dtd">
<!-- Generated by graphviz version 7.1.0 (20230121.1956)
 -->
<!-- Pages: 1 -->
<svg width="1435pt" height="131pt"
 viewBox="0.00 0.00 1434.58 131.50" xmlns="http://www.w3.org/2000/svg" xmlns:xlink="http://www.w3.org/1999/xlink">
<g id="graph0" class="graph" transform="scale(1 1) rotate(0) translate(4 127.5)">
<polygon fill="white" stroke="none" points="-4,4 -4,-127.5 1430.58,-127.5 1430.58,4 -4,4"/>
<!-- start -->
<g id="node1" class="node">
<title>start</title>
<ellipse fill="black" stroke="black" cx="1.8" cy="-47" rx="1.8" ry="1.8"/>
</g>
<!-- 1 -->
<g id="node3" class="node">
<title>1</title>
<ellipse fill="none" stroke="black" cx="58.6" cy="-47" rx="18" ry="18"/>
<text text-anchor="middle" x="58.6" y="-43.3" font-family="Times,serif" font-size="14.00">1</text>
</g>
<!-- start&#45;&gt;1 -->
<g id="edge1" class="edge">
<title>start&#45;&gt;1</title>
<path fill="none" stroke="black" d="M3.75,-47C6.96,-47 17.8,-47 28.92,-47"/>
<polygon fill="black" stroke="black" points="28.79,-50.5 38.79,-47 28.78,-43.5 28.79,-50.5"/>
</g>
<!-- 2 -->
<g id="node2" class="node">
<title>2</title>
<ellipse fill="none" stroke="black" cx="1404.58" cy="-47" rx="18" ry="18"/>
<ellipse fill="none" stroke="black" cx="1404.58" cy="-47" rx="22" ry="22"/>
<text text-anchor="middle" x="1404.58" y="-43.3" font-family="Times,serif" font-size="14.00">2</text>
</g>
<!-- 3 -->
<g id="node4" class="node">
<title>3</title>
<ellipse fill="none" stroke="black" cx="147.6" cy="-47" rx="18" ry="18"/>
<text text-anchor="middle" x="147.6" y="-43.3" font-family="Times,serif" font-size="14.00">3</text>
</g>
<!-- 1&#45;&gt;3 -->
<g id="edge2" class="edge">
<title>1&#45;&gt;3</title>
<path fill="none" stroke="black" d="M76.79,-47C88.51,-47 104.31,-47 117.92,-47"/>
<polygon fill="black" stroke="black" points="117.64,-50.5 127.64,-47 117.64,-43.5 117.64,-50.5"/>
<text text-anchor="middle" x="103.1" y="-50.8" font-family="Times,serif" font-size="14.00">EE</text>
</g>
<!-- 5 -->
<g id="node5" class="node">
<title>5</title>
<ellipse fill="none" stroke="black" cx="236.6" cy="-47" rx="18" ry="18"/>
<text text-anchor="middle" x="236.6" y="-43.3" font-family="Times,serif" font-size="14.00">5</text>
</g>
<!-- 3&#45;&gt;5 -->
<g id="edge3" class="edge">
<title>3&#45;&gt;5</title>
<path fill="none" stroke="black" d="M165.79,-47C177.51,-47 193.31,-47 206.92,-47"/>
<polygon fill="black" stroke="black" points="206.64,-50.5 216.64,-47 206.64,-43.5 206.64,-50.5"/>
<text text-anchor="middle" x="192.1" y="-50.8" font-family="Times,serif" font-size="14.00">EE</text>
</g>
<!-- 6 -->
<g id="node6" class="node">
<title>6</title>
<ellipse fill="none" stroke="black" cx="325.6" cy="-47" rx="18" ry="18"/>
<text text-anchor="middle" x="325.6" y="-43.3" font-family="Times,serif" font-size="14.00">6</text>
</g>
<!-- 5&#45;&gt;6 -->
<g id="edge4" class="edge">
<title>5&#45;&gt;6</title>
<path fill="none" stroke="black" d="M252.78,-55.66C258.76,-58.6 265.81,-61.52 272.6,-63 279.98,-64.61 282.22,-64.61 289.6,-63 292.68,-62.33 295.81,-61.36 298.87,-60.24"/>
<polygon fill="black" stroke="black" points="300.25,-63.45 308.03,-56.26 297.46,-57.03 300.25,-63.45"/>
<text text-anchor="middle" x="281.1" y="-67.8" font-family="Times,serif" font-size="14.00">B</text>
</g>
<!-- 5&#45;&gt;6 -->
<g id="edge7" class="edge">
<title>5&#45;&gt;6</title>
<path fill="none" stroke="black" d="M254.67,-45.24C260.37,-44.73 266.75,-44.25 272.6,-44 280.15,-43.68 282.05,-43.68 289.6,-44 291.7,-44.09 293.87,-44.21 296.06,-44.35"/>
<polygon fill="black" stroke="black" points="295.78,-47.84 306.02,-45.13 296.32,-40.86 295.78,-47.84"/>
<text text-anchor="middle" x="281.1" y="-47.8" font-family="Times,serif" font-size="14.00">EE</text>
</g>
<!-- 6&#45;&gt;5 -->
<g id="edge5" class="edge">
<title>6&#45;&gt;5</title>
<path fill="none" stroke="black" d="M315.18,-32.24C309.02,-24.02 300.16,-14.55 289.6,-10 282.66,-7.01 279.54,-7.01 272.6,-10 265.67,-12.98 259.47,-18.09 254.29,-23.57"/>
<polygon fill="black" stroke="black" points="251.73,-21.17 247.99,-31.08 257.1,-25.67 251.73,-21.17"/>
<text text-anchor="middle" x="281.1" y="-13.8" font-family="Times,serif" font-size="14.00">EE</text>
</g>
<!-- 4 -->
<g id="node7" class="node">
<title>4</title>
<ellipse fill="none" stroke="black" cx="414.6" cy="-47" rx="18" ry="18"/>
<text text-anchor="middle" x="414.6" y="-43.3" font-family="Times,serif" font-size="14.00">4</text>
</g>
<!-- 6&#45;&gt;4 -->
<g id="edge6" class="edge">
<title>6&#45;&gt;4</title>
<path fill="none" stroke="black" d="M343.79,-47C355.51,-47 371.31,-47 384.92,-47"/>
<polygon fill="black" stroke="black" points="384.64,-50.5 394.64,-47 384.64,-43.5 384.64,-50.5"/>
<text text-anchor="middle" x="370.1" y="-50.8" font-family="Times,serif" font-size="14.00">EE</text>
</g>
<!-- 7 -->
<g id="node8" class="node">
<title>7</title>
<ellipse fill="none" stroke="black" cx="503.6" cy="-47" rx="18" ry="18"/>
<text text-anchor="middle" x="503.6" y="-43.3" font-family="Times,serif" font-size="14.00">7</text>
</g>
<!-- 4&#45;&gt;7 -->
<g id="edge8" class="edge">
<title>4&#45;&gt;7</title>
<path fill="none" stroke="black" d="M432.79,-47C444.51,-47 460.31,-47 473.92,-47"/>
<polygon fill="black" stroke="black" points="473.64,-50.5 483.64,-47 473.64,-43.5 473.64,-50.5"/>
<text text-anchor="middle" x="459.1" y="-50.8" font-family="Times,serif" font-size="14.00">EE</text>
</g>
<!-- 9 -->
<g id="node9" class="node">
<title>9</title>
<ellipse fill="none" stroke="black" cx="592.6" cy="-47" rx="18" ry="18"/>
<text text-anchor="middle" x="592.6" y="-43.3" font-family="Times,serif" font-size="14.00">9</text>
</g>
<!-- 7&#45;&gt;9 -->
<g id="edge9" class="edge">
<title>7&#45;&gt;9</title>
<path fill="none" stroke="black" d="M521.79,-47C533.51,-47 549.31,-47 562.92,-47"/>
<polygon fill="black" stroke="black" points="562.64,-50.5 572.64,-47 562.64,-43.5 562.64,-50.5"/>
<text text-anchor="middle" x="548.1" y="-50.8" font-family="Times,serif" font-size="14.00">EE</text>
</g>
<!-- 11 -->
<g id="node10" class="node">
<title>11</title>
<ellipse fill="none" stroke="black" cx="683.1" cy="-104" rx="19.5" ry="19.5"/>
<text text-anchor="middle" x="683.1" y="-100.3" font-family="Times,serif" font-size="14.00">11</text>
</g>
<!-- 9&#45;&gt;11 -->
<g id="edge10" class="edge">
<title>9&#45;&gt;11</title>
<path fill="none" stroke="black" d="M608.21,-56.41C621.34,-64.87 640.91,-77.47 656.61,-87.59"/>
<polygon fill="black" stroke="black" points="654.69,-90.51 664.99,-92.98 658.48,-84.63 654.69,-90.51"/>
<text text-anchor="middle" x="637.1" y="-81.8" font-family="Times,serif" font-size="14.00">EE</text>
</g>
<!-- 17 -->
<g id="node17" class="node">
<title>17</title>
<ellipse fill="none" stroke="black" cx="683.1" cy="-47" rx="19.5" ry="19.5"/>
<text text-anchor="middle" x="683.1" y="-43.3" font-family="Times,serif" font-size="14.00">17</text>
</g>
<!-- 9&#45;&gt;17 -->
<g id="edge17" class="edge">
<title>9&#45;&gt;17</title>
<path fill="none" stroke="black" d="M611.08,-47C622.69,-47 638.24,-47 651.83,-47"/>
<polygon fill="black" stroke="black" points="651.6,-50.5 661.6,-47 651.6,-43.5 651.6,-50.5"/>
<text text-anchor="middle" x="637.1" y="-50.8" font-family="Times,serif" font-size="14.00">EE</text>
</g>
<!-- 13 -->
<g id="node11" class="node">
<title>13</title>
<ellipse fill="none" stroke="black" cx="775.09" cy="-104" rx="19.5" ry="19.5"/>
<text text-anchor="middle" x="775.09" y="-100.3" font-family="Times,serif" font-size="14.00">13</text>
</g>
<!-- 11&#45;&gt;13 -->
<g id="edge11" class="edge">
<title>11&#45;&gt;13</title>
<path fill="none" stroke="black" d="M702.75,-104C714.61,-104 730.25,-104 743.87,-104"/>
<polygon fill="black" stroke="black" points="743.65,-107.5 753.65,-104 743.65,-100.5 743.65,-107.5"/>
<text text-anchor="middle" x="729.1" y="-107.8" font-family="Times,serif" font-size="14.00">EE</text>
</g>
<!-- 14 -->
<g id="node12" class="node">
<title>14</title>
<ellipse fill="none" stroke="black" cx="860.09" cy="-104" rx="19.5" ry="19.5"/>
<text text-anchor="middle" x="860.09" y="-100.3" font-family="Times,serif" font-size="14.00">14</text>
</g>
<!-- 13&#45;&gt;14 -->
<g id="edge12" class="edge">
<title>13&#45;&gt;14</title>
<path fill="none" stroke="black" d="M794.93,-104C805.01,-104 817.66,-104 829.07,-104"/>
<polygon fill="black" stroke="black" points="828.82,-107.5 838.82,-104 828.82,-100.5 828.82,-107.5"/>
<text text-anchor="middle" x="817.59" y="-107.8" font-family="Times,serif" font-size="14.00">A</text>
</g>
<!-- 15 -->
<g id="node13" class="node">
<title>15</title>
<ellipse fill="none" stroke="black" cx="952.09" cy="-104" rx="19.5" ry="19.5"/>
<text text-anchor="middle" x="952.09" y="-100.3" font-family="Times,serif" font-size="14.00">15</text>
</g>
<!-- 14&#45;&gt;15 -->
<g id="edge13" class="edge">
<title>14&#45;&gt;15</title>
<path fill="none" stroke="black" d="M879.74,-104C891.61,-104 907.25,-104 920.86,-104"/>
<polygon fill="black" stroke="black" points="920.64,-107.5 930.64,-104 920.64,-100.5 920.64,-107.5"/>
<text text-anchor="middle" x="906.09" y="-107.8" font-family="Times,serif" font-size="14.00">EE</text>
</g>
<!-- 16 -->
<g id="node14" class="node">
<title>16</title>
<ellipse fill="none" stroke="black" cx="1037.08" cy="-104" rx="19.5" ry="19.5"/>
<text text-anchor="middle" x="1037.08" y="-100.3" font-family="Times,serif" font-size="14.00">16</text>
</g>
<!-- 15&#45;&gt;16 -->
<g id="edge14" class="edge">
<title>15&#45;&gt;16</title>
<path fill="none" stroke="black" d="M971.92,-104C982,-104 994.66,-104 1006.06,-104"/>
<polygon fill="black" stroke="black" points="1005.81,-107.5 1015.81,-104 1005.81,-100.5 1005.81,-107.5"/>
<text text-anchor="middle" x="994.59" y="-107.8" font-family="Times,serif" font-size="14.00">B</text>
</g>
<!-- 12 -->
<g id="node15" class="node">
<title>12</title>
<ellipse fill="none" stroke="black" cx="1129.08" cy="-104" rx="19.5" ry="19.5"/>
<text text-anchor="middle" x="1129.08" y="-100.3" font-family="Times,serif" font-size="14.00">12</text>
</g>
<!-- 16&#45;&gt;12 -->
<g id="edge15" class="edge">
<title>16&#45;&gt;12</title>
<path fill="none" stroke="black" d="M1056.73,-104C1068.6,-104 1084.24,-104 1097.85,-104"/>
<polygon fill="black" stroke="black" points="1097.63,-107.5 1107.63,-104 1097.63,-100.5 1097.63,-107.5"/>
<text text-anchor="middle" x="1083.08" y="-107.8" font-family="Times,serif" font-size="14.00">EE</text>
</g>
<!-- 10 -->
<g id="node16" class="node">
<title>10</title>
<ellipse fill="none" stroke="black" cx="1221.08" cy="-47" rx="19.5" ry="19.5"/>
<text text-anchor="middle" x="1221.08" y="-43.3" font-family="Times,serif" font-size="14.00">10</text>
</g>
<!-- 12&#45;&gt;10 -->
<g id="edge16" class="edge">
<title>12&#45;&gt;10</title>
<path fill="none" stroke="black" d="M1146.17,-93.81C1159.61,-85.3 1179.01,-73.01 1194.56,-63.16"/>
<polygon fill="black" stroke="black" points="1196.27,-66.22 1202.85,-57.91 1192.53,-60.31 1196.27,-66.22"/>
<text text-anchor="middle" x="1175.08" y="-83.8" font-family="Times,serif" font-size="14.00">EE</text>
</g>
<!-- 10&#45;&gt;9 -->
<g id="edge24" class="edge">
<title>10&#45;&gt;9</title>
<path fill="none" stroke="black" d="M1205.98,-34.16C1189.2,-20.24 1159.69,0 1130.08,0 682.1,0 682.1,0 682.1,0 657,0 632.08,-14.93 615.11,-27.96"/>
<polygon fill="black" stroke="black" points="613.29,-24.93 607.73,-33.94 617.7,-30.37 613.29,-24.93"/>
<text text-anchor="middle" x="906.09" y="-3.8" font-family="Times,serif" font-size="14.00">EE</text>
</g>
<!-- 8 -->
<g id="node23" class="node">
<title>8</title>
<ellipse fill="none" stroke="black" cx="1311.58" cy="-47" rx="18" ry="18"/>
<text text-anchor="middle" x="1311.58" y="-43.3" font-family="Times,serif" font-size="14.00">8</text>
</g>
<!-- 10&#45;&gt;8 -->
<g id="edge25" class="edge">
<title>10&#45;&gt;8</title>
<path fill="none" stroke="black" d="M1240.85,-47C1252.85,-47 1268.66,-47 1282.19,-47"/>
<polygon fill="black" stroke="black" points="1281.82,-50.5 1291.82,-47 1281.82,-43.5 1281.82,-50.5"/>
<text text-anchor="middle" x="1267.08" y="-50.8" font-family="Times,serif" font-size="14.00">EE</text>
</g>
<!-- 19 -->
<g id="node18" class="node">
<title>19</title>
<ellipse fill="none" stroke="black" cx="775.09" cy="-47" rx="19.5" ry="19.5"/>
<text text-anchor="middle" x="775.09" y="-43.3" font-family="Times,serif" font-size="14.00">19</text>
</g>
<!-- 17&#45;&gt;19 -->
<g id="edge18" class="edge">
<title>17&#45;&gt;19</title>
<path fill="none" stroke="black" d="M702.75,-47C714.61,-47 730.25,-47 743.87,-47"/>
<polygon fill="black" stroke="black" points="743.65,-50.5 753.65,-47 743.65,-43.5 743.65,-50.5"/>
<text text-anchor="middle" x="729.1" y="-50.8" font-family="Times,serif" font-size="14.00">EE</text>
</g>
<!-- 20 -->
<g id="node19" class="node">
<title>20</title>
<ellipse fill="none" stroke="black" cx="860.09" cy="-47" rx="19.5" ry="19.5"/>
<text text-anchor="middle" x="860.09" y="-43.3" font-family="Times,serif" font-size="14.00">20</text>
</g>
<!-- 19&#45;&gt;20 -->
<g id="edge19" class="edge">
<title>19&#45;&gt;20</title>
<path fill="none" stroke="black" d="M794.93,-47C805.01,-47 817.66,-47 829.07,-47"/>
<polygon fill="black" stroke="black" points="828.82,-50.5 838.82,-47 828.82,-43.5 828.82,-50.5"/>
<text text-anchor="middle" x="817.59" y="-50.8" font-family="Times,serif" font-size="14.00">B</text>
</g>
<!-- 21 -->
<g id="node20" class="node">
<title>21</title>
<ellipse fill="none" stroke="black" cx="952.09" cy="-47" rx="19.5" ry="19.5"/>
<text text-anchor="middle" x="952.09" y="-43.3" font-family="Times,serif" font-size="14.00">21</text>
</g>
<!-- 20&#45;&gt;21 -->
<g id="edge20" class="edge">
<title>20&#45;&gt;21</title>
<path fill="none" stroke="black" d="M879.74,-47C891.61,-47 907.25,-47 920.86,-47"/>
<polygon fill="black" stroke="black" points="920.64,-50.5 930.64,-47 920.64,-43.5 920.64,-50.5"/>
<text text-anchor="middle" x="906.09" y="-50.8" font-family="Times,serif" font-size="14.00">EE</text>
</g>
<!-- 22 -->
<g id="node21" class="node">
<title>22</title>
<ellipse fill="none" stroke="black" cx="1037.08" cy="-47" rx="19.5" ry="19.5"/>
<text text-anchor="middle" x="1037.08" y="-43.3" font-family="Times,serif" font-size="14.00">22</text>
</g>
<!-- 21&#45;&gt;22 -->
<g id="edge21" class="edge">
<title>21&#45;&gt;22</title>
<path fill="none" stroke="black" d="M971.92,-47C982,-47 994.66,-47 1006.06,-47"/>
<polygon fill="black" stroke="black" points="1005.81,-50.5 1015.81,-47 1005.81,-43.5 1005.81,-50.5"/>
<text text-anchor="middle" x="994.59" y="-50.8" font-family="Times,serif" font-size="14.00">A</text>
</g>
<!-- 18 -->
<g id="node22" class="node">
<title>18</title>
<ellipse fill="none" stroke="black" cx="1129.08" cy="-47" rx="19.5" ry="19.5"/>
<text text-anchor="middle" x="1129.08" y="-43.3" font-family="Times,serif" font-size="14.00">18</text>
</g>
<!-- 22&#45;&gt;18 -->
<g id="edge22" class="edge">
<title>22&#45;&gt;18</title>
<path fill="none" stroke="black" d="M1056.73,-47C1068.6,-47 1084.24,-47 1097.85,-47"/>
<polygon fill="black" stroke="black" points="1097.63,-50.5 1107.63,-47 1097.63,-43.5 1097.63,-50.5"/>
<text text-anchor="middle" x="1083.08" y="-50.8" font-family="Times,serif" font-size="14.00">EE</text>
</g>
<!-- 18&#45;&gt;10 -->
<g id="edge23" class="edge">
<title>18&#45;&gt;10</title>
<path fill="none" stroke="black" d="M1148.73,-47C1160.59,-47 1176.24,-47 1189.85,-47"/>
<polygon fill="black" stroke="black" points="1189.63,-50.5 1199.63,-47 1189.63,-43.5 1189.63,-50.5"/>
<text text-anchor="middle" x="1175.08" y="-50.8" font-family="Times,serif" font-size="14.00">EE</text>
</g>
<!-- 8&#45;&gt;2 -->
<g id="edge26" class="edge">
<title>8&#45;&gt;2</title>
<path fill="none" stroke="black" d="M1329.69,-47C1341.36,-47 1357.17,-47 1371.17,-47"/>
<polygon fill="black" stroke="black" points="1370.86,-50.5 1380.86,-47 1370.86,-43.5 1370.86,-50.5"/>
<text text-anchor="middle" x="1356.08" y="-50.8" font-family="Times,serif" font-size="14.00">EE</text>
</g>
</g>
</svg>
