<?xml version="1.0" encoding="UTF-8" standalone="no"?>
<!DOCTYPE svg PUBLIC "-//W3C//DTD SVG 1.1//EN"
 "http://www.w3.org/Graphics/SVG/1.1/DTD/svg11.dtd">
<!-- Generated by graphviz version 7.1.0 (20230121.1956)
 -->
<!-- Pages: 1 -->
<svg width="374pt" height="78pt"
 viewBox="0.00 0.00 374.20 78.00" xmlns="http://www.w3.org/2000/svg" xmlns:xlink="http://www.w3.org/1999/xlink">
<g id="graph0" class="graph" transform="scale(1 1) rotate(0) translate(4 74)">
<polygon fill="white" stroke="none" points="-4,4 -4,-74 370.2,-74 370.2,4 -4,4"/>
<!-- in -->
<g id="node1" class="node">
<title>in</title>
<ellipse fill="black" stroke="black" cx="1.8" cy="-22" rx="1.8" ry="1.8"/>
</g>
<!-- 0 -->
<g id="node4" class="node">
<title>0</title>
<ellipse fill="none" stroke="black" cx="58.6" cy="-22" rx="18" ry="18"/>
<text text-anchor="middle" x="58.6" y="-18.3" font-family="Times,serif" font-size="14.00">0</text>
</g>
<!-- in&#45;&gt;0 -->
<g id="edge1" class="edge">
<title>in&#45;&gt;0</title>
<path fill="none" stroke="black" d="M3.75,-22C6.96,-22 17.8,-22 28.92,-22"/>
<polygon fill="black" stroke="black" points="28.79,-25.5 38.79,-22 28.78,-18.5 28.79,-25.5"/>
</g>
<!-- out -->
<g id="node2" class="node">
<title>out</title>
<ellipse fill="black" stroke="black" cx="364.4" cy="-22" rx="1.8" ry="1.8"/>
</g>
<!-- 3 -->
<g id="node3" class="node">
<title>3</title>
<ellipse fill="none" stroke="black" cx="303.6" cy="-22" rx="18" ry="18"/>
<ellipse fill="none" stroke="black" cx="303.6" cy="-22" rx="22" ry="22"/>
<text text-anchor="middle" x="303.6" y="-18.3" font-family="Times,serif" font-size="14.00">3</text>
</g>
<!-- 3&#45;&gt;out -->
<g id="edge6" class="edge">
<title>3&#45;&gt;out</title>
<path fill="none" stroke="black" d="M325.83,-22C334.2,-22 343.52,-22 350.79,-22"/>
<polygon fill="black" stroke="black" points="350.73,-25.5 360.73,-22 350.73,-18.5 350.73,-25.5"/>
</g>
<!-- 1 -->
<g id="node5" class="node">
<title>1</title>
<ellipse fill="none" stroke="black" cx="140.6" cy="-52" rx="18" ry="18"/>
<text text-anchor="middle" x="140.6" y="-48.3" font-family="Times,serif" font-size="14.00">1</text>
</g>
<!-- 0&#45;&gt;1 -->
<g id="edge2" class="edge">
<title>0&#45;&gt;1</title>
<path fill="none" stroke="black" d="M75.79,-28.07C86.35,-32.03 100.38,-37.29 112.6,-41.88"/>
<polygon fill="black" stroke="black" points="111.15,-45.07 121.74,-45.3 113.61,-38.52 111.15,-45.07"/>
<text text-anchor="middle" x="99.6" y="-41.8" font-family="Times,serif" font-size="14.00">w</text>
</g>
<!-- 2 -->
<g id="node6" class="node">
<title>2</title>
<ellipse fill="none" stroke="black" cx="219.6" cy="-22" rx="18" ry="18"/>
<text text-anchor="middle" x="219.6" y="-18.3" font-family="Times,serif" font-size="14.00">2</text>
</g>
<!-- 1&#45;&gt;2 -->
<g id="edge3" class="edge">
<title>1&#45;&gt;2</title>
<path fill="none" stroke="black" d="M157.93,-45.64C167.73,-41.82 180.44,-36.87 191.69,-32.48"/>
<polygon fill="black" stroke="black" points="192.84,-35.79 200.88,-28.9 190.3,-29.27 192.84,-35.79"/>
<text text-anchor="middle" x="180.1" y="-40.8" font-family="Times,serif" font-size="14.00">u</text>
</g>
<!-- 2&#45;&gt;3 -->
<g id="edge4" class="edge">
<title>2&#45;&gt;3</title>
<path fill="none" stroke="black" d="M237.99,-22C247.24,-22 258.93,-22 269.81,-22"/>
<polygon fill="black" stroke="black" points="269.64,-25.5 279.64,-22 269.64,-18.5 269.64,-25.5"/>
<text text-anchor="middle" x="259.6" y="-25.8" font-family="Times,serif" font-size="14.00">~</text>
</g>
<!-- 2&#45;&gt;0 -->
<g id="edge5" class="edge">
<title>2&#45;&gt;0</title>
<path fill="none" stroke="black" d="M201.3,-22C174.08,-22 120.94,-22 88.04,-22"/>
<polygon fill="black" stroke="black" points="88.43,-18.5 78.43,-22 88.43,-25.5 88.43,-18.5"/>
</g>
</g>
</svg>
