<?xml version="1.0" encoding="UTF-8" standalone="no"?>
<!DOCTYPE svg PUBLIC "-//W3C//DTD SVG 1.1//EN"
 "http://www.w3.org/Graphics/SVG/1.1/DTD/svg11.dtd">
<!-- Generated by graphviz version 7.1.0 (20230121.1956)
 -->
<!-- Pages: 1 -->
<svg width="377pt" height="52pt"
 viewBox="0.00 0.00 377.20 52.00" xmlns="http://www.w3.org/2000/svg" xmlns:xlink="http://www.w3.org/1999/xlink">
<g id="graph0" class="graph" transform="scale(1 1) rotate(0) translate(4 48)">
<polygon fill="white" stroke="none" points="-4,4 -4,-48 373.2,-48 373.2,4 -4,4"/>
<!-- in -->
<g id="node1" class="node">
<title>in</title>
<ellipse fill="black" stroke="black" cx="1.8" cy="-22" rx="1.8" ry="1.8"/>
</g>
<!-- 0 -->
<g id="node4" class="node">
<title>0</title>
<ellipse fill="none" stroke="black" cx="58.6" cy="-22" rx="18" ry="18"/>
<text text-anchor="middle" x="58.6" y="-18.3" font-family="Times,serif" font-size="14.00">0</text>
</g>
<!-- in&#45;&gt;0 -->
<g id="edge1" class="edge">
<title>in&#45;&gt;0</title>
<path fill="none" stroke="black" d="M3.75,-22C6.96,-22 17.8,-22 28.92,-22"/>
<polygon fill="black" stroke="black" points="28.79,-25.5 38.79,-22 28.78,-18.5 28.79,-25.5"/>
</g>
<!-- out -->
<g id="node2" class="node">
<title>out</title>
<ellipse fill="black" stroke="black" cx="367.4" cy="-22" rx="1.8" ry="1.8"/>
</g>
<!-- 3 -->
<g id="node3" class="node">
<title>3</title>
<ellipse fill="none" stroke="black" cx="306.6" cy="-22" rx="18" ry="18"/>
<ellipse fill="none" stroke="black" cx="306.6" cy="-22" rx="22" ry="22"/>
<text text-anchor="middle" x="306.6" y="-18.3" font-family="Times,serif" font-size="14.00">3</text>
</g>
<!-- 3&#45;&gt;out -->
<g id="edge6" class="edge">
<title>3&#45;&gt;out</title>
<path fill="none" stroke="black" d="M328.83,-22C337.2,-22 346.52,-22 353.79,-22"/>
<polygon fill="black" stroke="black" points="353.73,-25.5 363.73,-22 353.73,-18.5 353.73,-25.5"/>
</g>
<!-- 1 -->
<g id="node5" class="node">
<title>1</title>
<ellipse fill="none" stroke="black" cx="140.6" cy="-22" rx="18" ry="18"/>
<text text-anchor="middle" x="140.6" y="-18.3" font-family="Times,serif" font-size="14.00">1</text>
</g>
<!-- 0&#45;&gt;1 -->
<g id="edge2" class="edge">
<title>0&#45;&gt;1</title>
<path fill="none" stroke="black" d="M76.96,-22C86.92,-22 99.67,-22 111.06,-22"/>
<polygon fill="black" stroke="black" points="110.76,-25.5 120.76,-22 110.76,-18.5 110.76,-25.5"/>
<text text-anchor="middle" x="99.6" y="-25.8" font-family="Times,serif" font-size="14.00">w</text>
</g>
<!-- 2 -->
<g id="node6" class="node">
<title>2</title>
<ellipse fill="none" stroke="black" cx="222.6" cy="-22" rx="18" ry="18"/>
<text text-anchor="middle" x="222.6" y="-18.3" font-family="Times,serif" font-size="14.00">2</text>
</g>
<!-- 1&#45;&gt;2 -->
<g id="edge3" class="edge">
<title>1&#45;&gt;2</title>
<path fill="none" stroke="black" d="M158.96,-22C168.92,-22 181.67,-22 193.06,-22"/>
<polygon fill="black" stroke="black" points="192.76,-25.5 202.76,-22 192.76,-18.5 192.76,-25.5"/>
<text text-anchor="middle" x="181.6" y="-25.8" font-family="Times,serif" font-size="14.00">u</text>
</g>
<!-- 2&#45;&gt;3 -->
<g id="edge4" class="edge">
<title>2&#45;&gt;3</title>
<path fill="none" stroke="black" d="M240.99,-22C250.24,-22 261.93,-22 272.81,-22"/>
<polygon fill="black" stroke="black" points="272.64,-25.5 282.64,-22 272.64,-18.5 272.64,-25.5"/>
<text text-anchor="middle" x="262.6" y="-25.8" font-family="Times,serif" font-size="14.00">~</text>
</g>
<!-- 2&#45;&gt;1 -->
<g id="edge5" class="edge">
<title>2&#45;&gt;1</title>
<path fill="none" stroke="black" d="M207.79,-11.01C199.07,-5.38 187.45,-0.24 176.6,-3 172.98,-3.92 169.33,-5.3 165.83,-6.9"/>
<polygon fill="black" stroke="black" points="164.46,-3.66 157.25,-11.43 167.73,-9.85 164.46,-3.66"/>
<text text-anchor="middle" x="181.6" y="-6.8" font-family="Times,serif" font-size="14.00">w</text>
</g>
</g>
</svg>
