<?xml version="1.0" encoding="UTF-8" standalone="no"?>
<!DOCTYPE svg PUBLIC "-//W3C//DTD SVG 1.1//EN"
 "http://www.w3.org/Graphics/SVG/1.1/DTD/svg11.dtd">
<!-- Generated by graphviz version 8.0.5 (20230430.1635)
 -->
<!-- Pages: 1 -->
<svg width="455pt" height="98pt"
 viewBox="0.00 0.00 455.25 98.00" xmlns="http://www.w3.org/2000/svg" xmlns:xlink="http://www.w3.org/1999/xlink">
<g id="graph0" class="graph" transform="scale(1 1) rotate(0) translate(4 94)">
<!-- 探\n测\n器 -->
<g id="node1" class="node">
<title>探\n测\n器</title>
<polygon fill="none" stroke="black" points="54,-79.38 0,-79.38 0,-10.62 54,-10.62 54,-79.38"/>
<text text-anchor="middle" x="27" y="-62.08" font-family="Arial" font-size="14.00">探</text>
<text text-anchor="middle" x="27" y="-41.83" font-family="Arial" font-size="14.00">测</text>
<text text-anchor="middle" x="27" y="-21.57" font-family="Arial" font-size="14.00">器</text>
</g>
<!-- 前端电子学 -->
<g id="node2" class="node">
<title>前端电子学</title>
<polygon fill="none" stroke="black" points="177.25,-90 90,-90 90,-54 177.25,-54 177.25,-90"/>
<text text-anchor="middle" x="133.62" y="-68.83" font-family="Arial" font-size="14.00">前端电子学</text>
</g>
<!-- 探\n测\n器&#45;&gt;前端电子学 -->
<g id="edge1" class="edge">
<title>探\n测\n器&#45;&gt;前端电子学</title>
<path fill="none" stroke="black" d="M54.46,-66.69C54.46,-66.69 78.71,-66.69 78.71,-66.69"/>
<polygon fill="black" stroke="black" points="78.71,-70.19 88.71,-66.69 78.71,-63.19 78.71,-70.19"/>
</g>
<!-- 触发判选 -->
<g id="node3" class="node">
<title>触发判选</title>
<polygon fill="none" stroke="black" points="170.12,-36 97.12,-36 97.12,0 170.12,0 170.12,-36"/>
<text text-anchor="middle" x="133.62" y="-14.82" font-family="Arial" font-size="14.00">触发判选</text>
</g>
<!-- 探\n测\n器&#45;&gt;触发判选 -->
<g id="edge2" class="edge">
<title>探\n测\n器&#45;&gt;触发判选</title>
<path fill="none" stroke="black" d="M54.46,-23.31C54.46,-23.31 86.01,-23.31 86.01,-23.31"/>
<polygon fill="black" stroke="black" points="86.01,-26.81 96.01,-23.31 86.01,-19.81 86.01,-26.81"/>
</g>
<!-- 数\n据\n获\n取 -->
<g id="node4" class="node">
<title>数\n据\n获\n取</title>
<polygon fill="none" stroke="black" points="267.25,-89.5 213.25,-89.5 213.25,-0.5 267.25,-0.5 267.25,-89.5"/>
<text text-anchor="middle" x="240.25" y="-72.2" font-family="Arial" font-size="14.00">数</text>
<text text-anchor="middle" x="240.25" y="-51.95" font-family="Arial" font-size="14.00">据</text>
<text text-anchor="middle" x="240.25" y="-31.7" font-family="Arial" font-size="14.00">获</text>
<text text-anchor="middle" x="240.25" y="-11.45" font-family="Arial" font-size="14.00">取</text>
</g>
<!-- 前端电子学&#45;&gt;数\n据\n获\n取 -->
<g id="edge3" class="edge">
<title>前端电子学&#45;&gt;数\n据\n获\n取</title>
<path fill="none" stroke="black" d="M177.61,-71.75C177.61,-71.75 201.84,-71.75 201.84,-71.75"/>
<polygon fill="black" stroke="black" points="201.84,-75.25 211.84,-71.75 201.84,-68.25 201.84,-75.25"/>
</g>
<!-- 触发判选&#45;&gt;前端电子学 -->
<g id="edge7" class="edge">
<title>触发判选&#45;&gt;前端电子学</title>
<path fill="none" stroke="black" d="M134.25,-36.28C134.25,-36.28 134.25,-42.74 134.25,-42.74"/>
<polygon fill="black" stroke="black" points="130.75,-42.74 134.25,-52.74 137.75,-42.74 130.75,-42.74"/>
</g>
<!-- 触发判选&#45;&gt;数\n据\n获\n取 -->
<g id="edge4" class="edge">
<title>触发判选&#45;&gt;数\n据\n获\n取</title>
<path fill="none" stroke="black" d="M170.62,-18.25C170.62,-18.25 202.07,-18.25 202.07,-18.25"/>
<polygon fill="black" stroke="black" points="202.07,-21.75 212.07,-18.25 202.07,-14.75 202.07,-21.75"/>
</g>
<!-- 数\n据\n存\n储 -->
<g id="node5" class="node">
<title>数\n据\n存\n储</title>
<polygon fill="none" stroke="black" points="357.25,-89.5 303.25,-89.5 303.25,-0.5 357.25,-0.5 357.25,-89.5"/>
<text text-anchor="middle" x="330.25" y="-72.2" font-family="Arial" font-size="14.00">数</text>
<text text-anchor="middle" x="330.25" y="-51.95" font-family="Arial" font-size="14.00">据</text>
<text text-anchor="middle" x="330.25" y="-31.7" font-family="Arial" font-size="14.00">存</text>
<text text-anchor="middle" x="330.25" y="-11.45" font-family="Arial" font-size="14.00">储</text>
</g>
<!-- 数\n据\n获\n取&#45;&gt;数\n据\n存\n储 -->
<g id="edge5" class="edge">
<title>数\n据\n获\n取&#45;&gt;数\n据\n存\n储</title>
<path fill="none" stroke="black" d="M267.74,-45C267.74,-45 291.93,-45 291.93,-45"/>
<polygon fill="black" stroke="black" points="291.93,-48.5 301.93,-45 291.93,-41.5 291.93,-48.5"/>
</g>
<!-- 离\n线\n分\n析 -->
<g id="node6" class="node">
<title>离\n线\n分\n析</title>
<polygon fill="none" stroke="black" points="447.25,-89.5 393.25,-89.5 393.25,-0.5 447.25,-0.5 447.25,-89.5"/>
<text text-anchor="middle" x="420.25" y="-72.2" font-family="Arial" font-size="14.00">离</text>
<text text-anchor="middle" x="420.25" y="-51.95" font-family="Arial" font-size="14.00">线</text>
<text text-anchor="middle" x="420.25" y="-31.7" font-family="Arial" font-size="14.00">分</text>
<text text-anchor="middle" x="420.25" y="-11.45" font-family="Arial" font-size="14.00">析</text>
</g>
<!-- 数\n据\n存\n储&#45;&gt;离\n线\n分\n析 -->
<g id="edge6" class="edge">
<title>数\n据\n存\n储&#45;&gt;离\n线\n分\n析</title>
<path fill="none" stroke="black" d="M357.74,-45C357.74,-45 381.93,-45 381.93,-45"/>
<polygon fill="black" stroke="black" points="381.93,-48.5 391.93,-45 381.93,-41.5 381.93,-48.5"/>
</g>
</g>
</svg>
