<?xml version="1.0" encoding="UTF-8" standalone="no"?>
<!DOCTYPE svg PUBLIC "-//W3C//DTD SVG 1.1//EN"
 "http://www.w3.org/Graphics/SVG/1.1/DTD/svg11.dtd">
<!-- Generated by graphviz version 10.0.1 (20240210.2158)
 -->
<!-- Pages: 1 -->
<svg width="1789pt" height="1333pt"
 viewBox="0.00 0.00 1788.75 1333.00" xmlns="http://www.w3.org/2000/svg" xmlns:xlink="http://www.w3.org/1999/xlink">
<g id="graph0" class="graph" transform="scale(1 1) rotate(0) translate(4 1329)">
<!-- Number -->
<g id="node1" class="node">
<title>Number</title>
<polygon fill="none" stroke="black" points="64.75,-847.62 0,-847.62 0,-811.62 64.75,-811.62 64.75,-847.62"/>
<text text-anchor="middle" x="32.38" y="-824.2" font-family="Arial" font-size="14.00">Number</text>
</g>
<!-- p&#45;base\nnumber -->
<g id="node2" class="node">
<title>p&#45;base\nnumber</title>
<polygon fill="none" stroke="black" points="168,-1002.38 105.5,-1002.38 105.5,-962.88 168,-962.88 168,-1002.38"/>
<text text-anchor="middle" x="136.75" y="-985.08" font-family="Arial" font-size="14.00">p&#45;base</text>
<text text-anchor="middle" x="136.75" y="-969.33" font-family="Arial" font-size="14.00">number</text>
</g>
<!-- Number&#45;&gt;p&#45;base\nnumber -->
<g id="edge1" class="edge">
<title>Number&#45;&gt;p&#45;base\nnumber</title>
<path fill="none" stroke="black" d="M45.72,-848.08C63.19,-874.19 95.3,-922.17 116.07,-953.21"/>
<polygon fill="black" stroke="black" points="113.07,-955.03 121.54,-961.39 118.89,-951.13 113.07,-955.03"/>
</g>
<!-- precision -->
<g id="node9" class="node">
<title>precision</title>
<polygon fill="none" stroke="black" points="171.75,-847.62 101.75,-847.62 101.75,-811.62 171.75,-811.62 171.75,-847.62"/>
<text text-anchor="middle" x="136.75" y="-824.2" font-family="Arial" font-size="14.00">precision</text>
</g>
<!-- Number&#45;&gt;precision -->
<g id="edge9" class="edge">
<title>Number&#45;&gt;precision</title>
<path fill="none" stroke="black" d="M65.21,-829.62C73.12,-829.62 81.75,-829.62 90.17,-829.62"/>
<polygon fill="black" stroke="black" points="89.94,-833.13 99.94,-829.63 89.94,-826.13 89.94,-833.13"/>
</g>
<!-- Random\nNumber -->
<g id="node14" class="node">
<title>Random\nNumber</title>
<polygon fill="none" stroke="black" points="170.62,-793.38 102.88,-793.38 102.88,-753.88 170.62,-753.88 170.62,-793.38"/>
<text text-anchor="middle" x="136.75" y="-776.08" font-family="Arial" font-size="14.00">Random</text>
<text text-anchor="middle" x="136.75" y="-760.33" font-family="Arial" font-size="14.00">Number</text>
</g>
<!-- Number&#45;&gt;Random\nNumber -->
<g id="edge14" class="edge">
<title>Number&#45;&gt;Random\nNumber</title>
<path fill="none" stroke="black" d="M65.21,-812.21C73.82,-807.5 83.29,-802.32 92.42,-797.33"/>
<polygon fill="black" stroke="black" points="94.1,-800.4 101.19,-792.53 90.74,-794.26 94.1,-800.4"/>
</g>
<!-- p&#45;base\ninteger -->
<g id="node3" class="node">
<title>p&#45;base\ninteger</title>
<polygon fill="none" stroke="black" points="299,-1060.38 241.75,-1060.38 241.75,-1020.88 299,-1020.88 299,-1060.38"/>
<text text-anchor="middle" x="270.38" y="-1043.08" font-family="Arial" font-size="14.00">p&#45;base</text>
<text text-anchor="middle" x="270.38" y="-1027.33" font-family="Arial" font-size="14.00">integer</text>
</g>
<!-- p&#45;base\nnumber&#45;&gt;p&#45;base\ninteger -->
<g id="edge2" class="edge">
<title>p&#45;base\nnumber&#45;&gt;p&#45;base\ninteger</title>
<path fill="none" stroke="black" d="M168.28,-996.08C186.95,-1004.3 210.99,-1014.9 230.95,-1023.69"/>
<polygon fill="black" stroke="black" points="229.31,-1026.8 239.87,-1027.63 232.13,-1020.39 229.31,-1026.8"/>
</g>
<!-- p&#45;base\ndecimal -->
<g id="node4" class="node">
<title>p&#45;base\ndecimal</title>
<polygon fill="none" stroke="black" points="302,-1002.38 238.75,-1002.38 238.75,-962.88 302,-962.88 302,-1002.38"/>
<text text-anchor="middle" x="270.38" y="-985.08" font-family="Arial" font-size="14.00">p&#45;base</text>
<text text-anchor="middle" x="270.38" y="-969.33" font-family="Arial" font-size="14.00">decimal</text>
</g>
<!-- p&#45;base\nnumber&#45;&gt;p&#45;base\ndecimal -->
<g id="edge3" class="edge">
<title>p&#45;base\nnumber&#45;&gt;p&#45;base\ndecimal</title>
<path fill="none" stroke="black" d="M168.28,-982.62C185.76,-982.62 207.96,-982.62 227.1,-982.62"/>
<polygon fill="black" stroke="black" points="227.04,-986.13 237.04,-982.63 227.04,-979.13 227.04,-986.13"/>
</g>
<!-- binary\npresentation -->
<g id="node5" class="node">
<title>binary\npresentation</title>
<polygon fill="none" stroke="black" points="676.75,-1060.38 586.5,-1060.38 586.5,-1020.88 676.75,-1020.88 676.75,-1060.38"/>
<text text-anchor="middle" x="631.62" y="-1043.08" font-family="Arial" font-size="14.00">binary</text>
<text text-anchor="middle" x="631.62" y="-1027.33" font-family="Arial" font-size="14.00">presentation</text>
</g>
<!-- p&#45;base\ninteger&#45;&gt;binary\npresentation -->
<g id="edge4" class="edge">
<title>p&#45;base\ninteger&#45;&gt;binary\npresentation</title>
<path fill="none" stroke="black" d="M299.27,-1040.62C358.35,-1040.62 497.06,-1040.62 574.99,-1040.62"/>
<polygon fill="black" stroke="black" points="574.51,-1044.13 584.51,-1040.63 574.51,-1037.13 574.51,-1044.13"/>
</g>
<!-- p&#45;base\ndecimal&#45;&gt;binary\npresentation -->
<g id="edge5" class="edge">
<title>p&#45;base\ndecimal&#45;&gt;binary\npresentation</title>
<path fill="none" stroke="black" d="M302.32,-987.62C362.94,-997.41 498.12,-1019.23 574.78,-1031.61"/>
<polygon fill="black" stroke="black" points="574.17,-1035.06 584.6,-1033.2 575.29,-1028.15 574.17,-1035.06"/>
</g>
<!-- IEEE float\nsign | exponent | fraction\n(&#45;1)^sign * 2^(exponent &#45; offset) * (1.fraction) -->
<g id="node6" class="node">
<title>IEEE float\nsign | exponent | fraction\n(&#45;1)^sign * 2^(exponent &#45; offset) * (1.fraction)</title>
<polygon fill="none" stroke="black" points="996,-1204.25 713.75,-1204.25 713.75,-1149 996,-1149 996,-1204.25"/>
<text text-anchor="middle" x="854.88" y="-1186.95" font-family="Arial" font-size="14.00">IEEE float</text>
<text text-anchor="middle" x="854.88" y="-1171.2" font-family="Arial" font-size="14.00">sign | exponent | fraction</text>
<text text-anchor="middle" x="854.88" y="-1155.45" font-family="Arial" font-size="14.00">(&#45;1)^sign * 2^(exponent &#45; offset) * (1.fraction)</text>
</g>
<!-- binary\npresentation&#45;&gt;IEEE float\nsign | exponent | fraction\n(&#45;1)^sign * 2^(exponent &#45; offset) * (1.fraction) -->
<g id="edge6" class="edge">
<title>binary\npresentation&#45;&gt;IEEE float\nsign | exponent | fraction\n(&#45;1)^sign * 2^(exponent &#45; offset) * (1.fraction)</title>
<path fill="none" stroke="black" d="M665.27,-1060.69C700.33,-1082.24 756.63,-1116.85 798.61,-1142.66"/>
<polygon fill="black" stroke="black" points="796.77,-1145.63 807.12,-1147.89 800.44,-1139.67 796.77,-1145.63"/>
</g>
<!-- IEEE 754\n32 bits\n0 sign 1 expoent 9 fraction 32\noffset=127\nmax&#45;expoent=255 -->
<g id="node7" class="node">
<title>IEEE 754\n32 bits\n0 sign 1 expoent 9 fraction 32\noffset=127\nmax&#45;expoent=255</title>
<polygon fill="none" stroke="black" points="1229.75,-1325 1036.75,-1325 1036.75,-1238.25 1229.75,-1238.25 1229.75,-1325"/>
<text text-anchor="middle" x="1133.25" y="-1307.7" font-family="Arial" font-size="14.00">IEEE 754</text>
<text text-anchor="middle" x="1133.25" y="-1291.95" font-family="Arial" font-size="14.00">32 bits</text>
<text text-anchor="middle" x="1133.25" y="-1276.2" font-family="Arial" font-size="14.00">0 sign 1 expoent 9 fraction 32</text>
<text text-anchor="middle" x="1133.25" y="-1260.45" font-family="Arial" font-size="14.00">offset=127</text>
<text text-anchor="middle" x="1133.25" y="-1244.7" font-family="Arial" font-size="14.00">max&#45;expoent=255</text>
</g>
<!-- IEEE float\nsign | exponent | fraction\n(&#45;1)^sign * 2^(exponent &#45; offset) * (1.fraction)&#45;&gt;IEEE 754\n32 bits\n0 sign 1 expoent 9 fraction 32\noffset=127\nmax&#45;expoent=255 -->
<g id="edge7" class="edge">
<title>IEEE float\nsign | exponent | fraction\n(&#45;1)^sign * 2^(exponent &#45; offset) * (1.fraction)&#45;&gt;IEEE 754\n32 bits\n0 sign 1 expoent 9 fraction 32\noffset=127\nmax&#45;expoent=255</title>
<path fill="none" stroke="black" d="M929.58,-1204.63C959.15,-1215.86 993.82,-1229.03 1026.03,-1241.27"/>
<polygon fill="black" stroke="black" points="1024.38,-1244.39 1034.97,-1244.67 1026.87,-1237.84 1024.38,-1244.39"/>
</g>
<!-- IEEE 754 half\n16 bits\n0 sign 1 exponent 6 fraction 16\noffset=15\nmax&#45;exponent=31 -->
<g id="node8" class="node">
<title>IEEE 754 half\n16 bits\n0 sign 1 exponent 6 fraction 16\noffset=15\nmax&#45;exponent=31</title>
<polygon fill="none" stroke="black" points="1233.5,-1220 1033,-1220 1033,-1133.25 1233.5,-1133.25 1233.5,-1220"/>
<text text-anchor="middle" x="1133.25" y="-1202.7" font-family="Arial" font-size="14.00">IEEE 754 half</text>
<text text-anchor="middle" x="1133.25" y="-1186.95" font-family="Arial" font-size="14.00">16 bits</text>
<text text-anchor="middle" x="1133.25" y="-1171.2" font-family="Arial" font-size="14.00">0 sign 1 exponent 6 fraction 16</text>
<text text-anchor="middle" x="1133.25" y="-1155.45" font-family="Arial" font-size="14.00">offset=15</text>
<text text-anchor="middle" x="1133.25" y="-1139.7" font-family="Arial" font-size="14.00">max&#45;exponent=31</text>
</g>
<!-- IEEE float\nsign | exponent | fraction\n(&#45;1)^sign * 2^(exponent &#45; offset) * (1.fraction)&#45;&gt;IEEE 754 half\n16 bits\n0 sign 1 exponent 6 fraction 16\noffset=15\nmax&#45;exponent=31 -->
<g id="edge8" class="edge">
<title>IEEE float\nsign | exponent | fraction\n(&#45;1)^sign * 2^(exponent &#45; offset) * (1.fraction)&#45;&gt;IEEE 754 half\n16 bits\n0 sign 1 exponent 6 fraction 16\noffset=15\nmax&#45;exponent=31</title>
<path fill="none" stroke="black" d="M996.49,-1176.62C1004.83,-1176.62 1013.16,-1176.62 1021.35,-1176.62"/>
<polygon fill="black" stroke="black" points="1021.32,-1180.13 1031.32,-1176.63 1021.32,-1173.13 1021.32,-1180.13"/>
</g>
<!-- Catastrophic\nCancellation -->
<g id="node10" class="node">
<title>Catastrophic\nCancellation</title>
<polygon fill="none" stroke="black" points="316.25,-879.38 224.5,-879.38 224.5,-839.88 316.25,-839.88 316.25,-879.38"/>
<text text-anchor="middle" x="270.38" y="-862.08" font-family="Arial" font-size="14.00">Catastrophic</text>
<text text-anchor="middle" x="270.38" y="-846.33" font-family="Arial" font-size="14.00">Cancellation</text>
</g>
<!-- precision&#45;&gt;Catastrophic\nCancellation -->
<g id="edge10" class="edge">
<title>precision&#45;&gt;Catastrophic\nCancellation</title>
<path fill="none" stroke="black" d="M171.99,-837.43C184.61,-840.31 199.26,-843.65 213.31,-846.85"/>
<polygon fill="black" stroke="black" points="212.39,-850.23 222.92,-849.04 213.95,-843.4 212.39,-850.23"/>
</g>
<!-- Condition\nNumber\nκ = |δf / f| / |δx / x| -->
<g id="node11" class="node">
<title>Condition\nNumber\nκ = |δf / f| / |δx / x|</title>
<polygon fill="none" stroke="black" points="332,-783.25 208.75,-783.25 208.75,-728 332,-728 332,-783.25"/>
<text text-anchor="middle" x="270.38" y="-765.95" font-family="Arial" font-size="14.00">Condition</text>
<text text-anchor="middle" x="270.38" y="-750.2" font-family="Arial" font-size="14.00">Number</text>
<text text-anchor="middle" x="270.38" y="-734.45" font-family="Arial" font-size="14.00">κ = |δf / f| / |δx / x|</text>
</g>
<!-- precision&#45;&gt;Condition\nNumber\nκ = |δf / f| / |δx / x| -->
<g id="edge11" class="edge">
<title>precision&#45;&gt;Condition\nNumber\nκ = |δf / f| / |δx / x|</title>
<path fill="none" stroke="black" d="M166.97,-811.17C174.35,-806.65 182.29,-801.88 189.75,-797.62 194.71,-794.79 199.88,-791.91 205.1,-789.06"/>
<polygon fill="black" stroke="black" points="206.69,-792.18 213.81,-784.33 203.35,-786.02 206.69,-792.18"/>
</g>
<!-- Richardson\nExtrapolation\nf(x) = (2^k * f(h/2) &#45; f(h)) / (2^k &#45; 1) -->
<g id="node12" class="node">
<title>Richardson\nExtrapolation\nf(x) = (2^k * f(h/2) &#45; f(h)) / (2^k &#45; 1)</title>
<polygon fill="none" stroke="black" points="568.5,-789.25 350,-789.25 350,-734 568.5,-734 568.5,-789.25"/>
<text text-anchor="middle" x="459.25" y="-771.95" font-family="Arial" font-size="14.00">Richardson</text>
<text text-anchor="middle" x="459.25" y="-756.2" font-family="Arial" font-size="14.00">Extrapolation</text>
<text text-anchor="middle" x="459.25" y="-740.45" font-family="Arial" font-size="14.00">f(x) = (2^k * f(h/2) &#45; f(h)) / (2^k &#45; 1)</text>
</g>
<!-- precision&#45;&gt;Richardson\nExtrapolation\nf(x) = (2^k * f(h/2) &#45; f(h)) / (2^k &#45; 1) -->
<g id="edge12" class="edge">
<title>precision&#45;&gt;Richardson\nExtrapolation\nf(x) = (2^k * f(h/2) &#45; f(h)) / (2^k &#45; 1)</title>
<path fill="none" stroke="black" d="M172.25,-823.62C211.17,-816.71 276.32,-804.76 332,-792.62 334.15,-792.16 336.32,-791.68 338.5,-791.19"/>
<polygon fill="black" stroke="black" points="339.07,-794.65 348.05,-789.04 337.52,-787.83 339.07,-794.65"/>
</g>
<!-- Taylor\nExpand -->
<g id="node13" class="node">
<title>Taylor\nExpand</title>
<polygon fill="none" stroke="black" points="662.5,-879.38 600.75,-879.38 600.75,-839.88 662.5,-839.88 662.5,-879.38"/>
<text text-anchor="middle" x="631.62" y="-862.08" font-family="Arial" font-size="14.00">Taylor</text>
<text text-anchor="middle" x="631.62" y="-846.33" font-family="Arial" font-size="14.00">Expand</text>
</g>
<!-- Catastrophic\nCancellation&#45;&gt;Taylor\nExpand -->
<g id="edge13" class="edge">
<title>Catastrophic\nCancellation&#45;&gt;Taylor\nExpand</title>
<path fill="none" stroke="black" d="M316.51,-859.62C386.73,-859.62 521.12,-859.62 589.08,-859.62"/>
<polygon fill="black" stroke="black" points="589.06,-863.13 599.06,-859.63 589.06,-856.13 589.06,-863.13"/>
<text text-anchor="middle" x="459.25" y="-862.83" font-family="Times,serif" font-size="14.00">f(x + h) = f(x) + f&#39;(x) h</text>
</g>
<!-- Numeric\nDifferentiation -->
<g id="node15" class="node">
<title>Numeric\nDifferentiation</title>
<polygon fill="none" stroke="black" points="904.5,-733.38 805.25,-733.38 805.25,-693.88 904.5,-693.88 904.5,-733.38"/>
<text text-anchor="middle" x="854.88" y="-716.08" font-family="Arial" font-size="14.00">Numeric</text>
<text text-anchor="middle" x="854.88" y="-700.33" font-family="Arial" font-size="14.00">Differentiation</text>
</g>
<!-- Richardson\nExtrapolation\nf(x) = (2^k * f(h/2) &#45; f(h)) / (2^k &#45; 1)&#45;&gt;Numeric\nDifferentiation -->
<g id="edge17" class="edge">
<title>Richardson\nExtrapolation\nf(x) = (2^k * f(h/2) &#45; f(h)) / (2^k &#45; 1)&#45;&gt;Numeric\nDifferentiation</title>
<path fill="none" stroke="black" d="M568.85,-748.38C641.43,-739.53 734.19,-728.22 793.82,-720.95"/>
<polygon fill="black" stroke="black" points="793.92,-724.46 803.42,-719.78 793.07,-717.51 793.92,-724.46"/>
</g>
<!-- Taylor\nExpand&#45;&gt;Numeric\nDifferentiation -->
<g id="edge15" class="edge">
<title>Taylor\nExpand&#45;&gt;Numeric\nDifferentiation</title>
<path fill="none" stroke="black" d="M662.92,-839.63C702.09,-813.78 770.42,-768.7 813.83,-740.05"/>
<polygon fill="black" stroke="black" points="815.55,-743.11 821.97,-734.68 811.69,-737.27 815.55,-743.11"/>
</g>
<!-- Numeric\nIntegration -->
<g id="node16" class="node">
<title>Numeric\nIntegration</title>
<polygon fill="none" stroke="black" points="894.75,-993.38 815,-993.38 815,-953.88 894.75,-953.88 894.75,-993.38"/>
<text text-anchor="middle" x="854.88" y="-976.08" font-family="Arial" font-size="14.00">Numeric</text>
<text text-anchor="middle" x="854.88" y="-960.33" font-family="Arial" font-size="14.00">Integration</text>
</g>
<!-- Taylor\nExpand&#45;&gt;Numeric\nIntegration -->
<g id="edge16" class="edge">
<title>Taylor\nExpand&#45;&gt;Numeric\nIntegration</title>
<path fill="none" stroke="black" d="M662.92,-875.24C699.41,-894.04 761.19,-925.87 804.57,-948.22"/>
<polygon fill="black" stroke="black" points="802.79,-951.24 813.28,-952.71 806,-945.02 802.79,-951.24"/>
</g>
<!-- first\nforward -->
<g id="node17" class="node">
<title>first\nforward</title>
<polygon fill="none" stroke="black" points="1163.75,-733.38 1102.75,-733.38 1102.75,-693.88 1163.75,-693.88 1163.75,-733.38"/>
<text text-anchor="middle" x="1133.25" y="-716.08" font-family="Arial" font-size="14.00">first</text>
<text text-anchor="middle" x="1133.25" y="-700.33" font-family="Arial" font-size="14.00">forward</text>
</g>
<!-- Numeric\nDifferentiation&#45;&gt;first\nforward -->
<g id="edge18" class="edge">
<title>Numeric\nDifferentiation&#45;&gt;first\nforward</title>
<path fill="none" stroke="black" d="M904.97,-713.62C957.96,-713.62 1041.42,-713.62 1091.1,-713.62"/>
<polygon fill="black" stroke="black" points="1090.85,-717.13 1100.85,-713.63 1090.85,-710.13 1090.85,-717.13"/>
</g>
<!-- first\nbackward -->
<g id="node18" class="node">
<title>first\nbackward</title>
<polygon fill="none" stroke="black" points="1170.12,-675.38 1096.38,-675.38 1096.38,-635.88 1170.12,-635.88 1170.12,-675.38"/>
<text text-anchor="middle" x="1133.25" y="-658.08" font-family="Arial" font-size="14.00">first</text>
<text text-anchor="middle" x="1133.25" y="-642.33" font-family="Arial" font-size="14.00">backward</text>
</g>
<!-- Numeric\nDifferentiation&#45;&gt;first\nbackward -->
<g id="edge19" class="edge">
<title>Numeric\nDifferentiation&#45;&gt;first\nbackward</title>
<path fill="none" stroke="black" d="M904.97,-703.32C955.77,-692.66 1034.57,-676.12 1084.77,-665.59"/>
<polygon fill="black" stroke="black" points="1085.4,-669.03 1094.47,-663.55 1083.96,-662.18 1085.4,-669.03"/>
</g>
<!-- first\ncentral -->
<g id="node19" class="node">
<title>first\ncentral</title>
<polygon fill="none" stroke="black" points="1161.5,-617.38 1105,-617.38 1105,-577.88 1161.5,-577.88 1161.5,-617.38"/>
<text text-anchor="middle" x="1133.25" y="-600.08" font-family="Arial" font-size="14.00">first</text>
<text text-anchor="middle" x="1133.25" y="-584.33" font-family="Arial" font-size="14.00">central</text>
</g>
<!-- Numeric\nDifferentiation&#45;&gt;first\ncentral -->
<g id="edge20" class="edge">
<title>Numeric\nDifferentiation&#45;&gt;first\ncentral</title>
<path fill="none" stroke="black" d="M892.36,-693.39C927.6,-674.41 982.86,-646.1 1033,-626.62 1052.68,-618.98 1075.22,-612.24 1093.84,-607.19"/>
<polygon fill="black" stroke="black" points="1094.64,-610.6 1103.41,-604.65 1092.84,-603.83 1094.64,-610.6"/>
</g>
<!-- {0, h, 2h} -->
<g id="node20" class="node">
<title>{0, h, 2h}</title>
<polygon fill="none" stroke="black" points="1168.25,-559.62 1098.25,-559.62 1098.25,-523.62 1168.25,-523.62 1168.25,-559.62"/>
<text text-anchor="middle" x="1133.25" y="-536.2" font-family="Arial" font-size="14.00">{0, h, 2h}</text>
</g>
<!-- Numeric\nDifferentiation&#45;&gt;{0, h, 2h} -->
<g id="edge21" class="edge">
<title>Numeric\nDifferentiation&#45;&gt;{0, h, 2h}</title>
<path fill="none" stroke="black" d="M874.6,-693.62C904.93,-662.37 968,-602.12 1033,-568.62 1049.67,-560.04 1069.36,-553.95 1086.79,-549.76"/>
<polygon fill="black" stroke="black" points="1087.4,-553.21 1096.39,-547.6 1085.86,-546.38 1087.4,-553.21"/>
</g>
<!-- {&#45;2h, &#45;h, h, 2h} -->
<g id="node21" class="node">
<title>{&#45;2h, &#45;h, h, 2h}</title>
<polygon fill="none" stroke="black" points="1184,-841.62 1082.5,-841.62 1082.5,-805.62 1184,-805.62 1184,-841.62"/>
<text text-anchor="middle" x="1133.25" y="-818.2" font-family="Arial" font-size="14.00">{&#45;2h, &#45;h, h, 2h}</text>
</g>
<!-- Numeric\nDifferentiation&#45;&gt;{&#45;2h, &#45;h, h, 2h} -->
<g id="edge22" class="edge">
<title>Numeric\nDifferentiation&#45;&gt;{&#45;2h, &#45;h, h, 2h}</title>
<path fill="none" stroke="black" d="M893.76,-733.72C929.08,-751.88 983.59,-778.48 1033,-796.62 1045.19,-801.1 1058.46,-805.21 1071.21,-808.8"/>
<polygon fill="black" stroke="black" points="1070.22,-812.16 1080.79,-811.42 1072.07,-805.41 1070.22,-812.16"/>
</g>
<!-- any -->
<g id="node22" class="node">
<title>any</title>
<polygon fill="none" stroke="black" points="1160.25,-787.62 1106.25,-787.62 1106.25,-751.62 1160.25,-751.62 1160.25,-787.62"/>
<text text-anchor="middle" x="1133.25" y="-764.2" font-family="Arial" font-size="14.00">any</text>
</g>
<!-- Numeric\nDifferentiation&#45;&gt;any -->
<g id="edge23" class="edge">
<title>Numeric\nDifferentiation&#45;&gt;any</title>
<path fill="none" stroke="black" d="M904.97,-723.57C959.39,-734.6 1045.96,-752.14 1095.06,-762.09"/>
<polygon fill="black" stroke="black" points="1094.13,-765.47 1104.63,-764.03 1095.52,-758.61 1094.13,-765.47"/>
</g>
<!-- PDE -->
<g id="node45" class="node">
<title>PDE</title>
<polygon fill="none" stroke="black" points="1160.25,-505.62 1106.25,-505.62 1106.25,-469.62 1160.25,-469.62 1160.25,-505.62"/>
<text text-anchor="middle" x="1133.25" y="-482.2" font-family="Arial" font-size="14.00">PDE</text>
</g>
<!-- Numeric\nDifferentiation&#45;&gt;PDE -->
<g id="edge62" class="edge">
<title>Numeric\nDifferentiation&#45;&gt;PDE</title>
<path fill="none" stroke="black" d="M868,-693.51C893.37,-653.19 956.13,-562.24 1033,-514.62 1051.69,-503.05 1075.37,-496.36 1094.91,-492.54"/>
<polygon fill="black" stroke="black" points="1095.43,-496 1104.67,-490.82 1094.21,-489.11 1095.43,-496"/>
</g>
<!-- Rectangle -->
<g id="node24" class="node">
<title>Rectangle</title>
<polygon fill="none" stroke="black" points="1171.62,-1057.62 1094.88,-1057.62 1094.88,-1021.62 1171.62,-1021.62 1171.62,-1057.62"/>
<text text-anchor="middle" x="1133.25" y="-1034.2" font-family="Arial" font-size="14.00">Rectangle</text>
</g>
<!-- Numeric\nIntegration&#45;&gt;Rectangle -->
<g id="edge30" class="edge">
<title>Numeric\nIntegration&#45;&gt;Rectangle</title>
<path fill="none" stroke="black" d="M895.18,-983.01C944.71,-994.84 1029.83,-1015.17 1083.47,-1027.98"/>
<polygon fill="black" stroke="black" points="1082.4,-1031.32 1092.94,-1030.24 1084.03,-1024.51 1082.4,-1031.32"/>
</g>
<!-- Midpoint -->
<g id="node25" class="node">
<title>Midpoint</title>
<polygon fill="none" stroke="black" points="1167.12,-1003.62 1099.38,-1003.62 1099.38,-967.62 1167.12,-967.62 1167.12,-1003.62"/>
<text text-anchor="middle" x="1133.25" y="-980.2" font-family="Arial" font-size="14.00">Midpoint</text>
</g>
<!-- Numeric\nIntegration&#45;&gt;Midpoint -->
<g id="edge31" class="edge">
<title>Numeric\nIntegration&#45;&gt;Midpoint</title>
<path fill="none" stroke="black" d="M895.18,-975.33C946.03,-977.54 1034.38,-981.38 1087.68,-983.69"/>
<polygon fill="black" stroke="black" points="1087.48,-987.18 1097.63,-984.12 1087.79,-980.19 1087.48,-987.18"/>
</g>
<!-- Simpson -->
<g id="node26" class="node">
<title>Simpson</title>
<polygon fill="none" stroke="black" points="1167.88,-949.62 1098.62,-949.62 1098.62,-913.62 1167.88,-913.62 1167.88,-949.62"/>
<text text-anchor="middle" x="1133.25" y="-926.2" font-family="Arial" font-size="14.00">Simpson</text>
</g>
<!-- Numeric\nIntegration&#45;&gt;Simpson -->
<g id="edge32" class="edge">
<title>Numeric\nIntegration&#45;&gt;Simpson</title>
<path fill="none" stroke="black" d="M895.18,-967.65C945.86,-959.95 1033.79,-946.59 1087.14,-938.48"/>
<polygon fill="black" stroke="black" points="1087.44,-941.97 1096.8,-937.01 1086.39,-935.05 1087.44,-941.97"/>
</g>
<!-- Trapezium -->
<g id="node27" class="node">
<title>Trapezium</title>
<polygon fill="none" stroke="black" points="1173.5,-895.62 1093,-895.62 1093,-859.62 1173.5,-859.62 1173.5,-895.62"/>
<text text-anchor="middle" x="1133.25" y="-872.2" font-family="Arial" font-size="14.00">Trapezium</text>
</g>
<!-- Numeric\nIntegration&#45;&gt;Trapezium -->
<g id="edge33" class="edge">
<title>Numeric\nIntegration&#45;&gt;Trapezium</title>
<path fill="none" stroke="black" d="M895.19,-956.93C930.79,-942.14 984.89,-920.49 1033,-904.62 1048.69,-899.45 1066.01,-894.49 1081.73,-890.26"/>
<polygon fill="black" stroke="black" points="1082.6,-893.65 1091.38,-887.71 1080.81,-886.88 1082.6,-893.65"/>
</g>
<!-- Gaussian\nQuadrature -->
<g id="node28" class="node">
<title>Gaussian\nQuadrature</title>
<polygon fill="none" stroke="black" points="1175.75,-1115.38 1090.75,-1115.38 1090.75,-1075.88 1175.75,-1075.88 1175.75,-1115.38"/>
<text text-anchor="middle" x="1133.25" y="-1098.08" font-family="Arial" font-size="14.00">Gaussian</text>
<text text-anchor="middle" x="1133.25" y="-1082.33" font-family="Arial" font-size="14.00">Quadrature</text>
</g>
<!-- Numeric\nIntegration&#45;&gt;Gaussian\nQuadrature -->
<g id="edge34" class="edge">
<title>Numeric\nIntegration&#45;&gt;Gaussian\nQuadrature</title>
<path fill="none" stroke="black" d="M889.2,-993.7C924.11,-1014.1 980.99,-1045.62 1033,-1066.62 1047.87,-1072.63 1064.44,-1077.98 1079.72,-1082.39"/>
<polygon fill="black" stroke="black" points="1078.55,-1085.69 1089.12,-1085.03 1080.44,-1078.96 1078.55,-1085.69"/>
</g>
<!-- Gradient\nDescent -->
<g id="node23" class="node">
<title>Gradient\nDescent</title>
<polygon fill="none" stroke="black" points="1376.88,-681.38 1308.38,-681.38 1308.38,-641.88 1376.88,-641.88 1376.88,-681.38"/>
<text text-anchor="middle" x="1342.62" y="-664.08" font-family="Arial" font-size="14.00">Gradient</text>
<text text-anchor="middle" x="1342.62" y="-648.33" font-family="Arial" font-size="14.00">Descent</text>
</g>
<!-- first\nforward&#45;&gt;Gradient\nDescent -->
<g id="edge24" class="edge">
<title>first\nforward&#45;&gt;Gradient\nDescent</title>
<path fill="none" stroke="black" d="M1163.96,-706.17C1198.8,-697.44 1256.87,-682.88 1297.1,-672.79"/>
<polygon fill="black" stroke="black" points="1297.87,-676.2 1306.72,-670.38 1296.17,-669.41 1297.87,-676.2"/>
</g>
<!-- first\nbackward&#45;&gt;Gradient\nDescent -->
<g id="edge25" class="edge">
<title>first\nbackward&#45;&gt;Gradient\nDescent</title>
<path fill="none" stroke="black" d="M1170.37,-656.67C1205.5,-657.69 1258.94,-659.23 1296.77,-660.33"/>
<polygon fill="black" stroke="black" points="1296.37,-663.82 1306.46,-660.61 1296.57,-656.82 1296.37,-663.82"/>
</g>
<!-- first\ncentral&#45;&gt;Gradient\nDescent -->
<g id="edge26" class="edge">
<title>first\ncentral&#45;&gt;Gradient\nDescent</title>
<path fill="none" stroke="black" d="M1161.7,-605.41C1181.66,-611.14 1209.31,-619.18 1233.5,-626.62 1254.56,-633.11 1277.83,-640.6 1297.37,-646.98"/>
<polygon fill="black" stroke="black" points="1296.07,-650.24 1306.66,-650.03 1298.25,-643.59 1296.07,-650.24"/>
</g>
<!-- {0, h, 2h}&#45;&gt;Gradient\nDescent -->
<g id="edge27" class="edge">
<title>{0, h, 2h}&#45;&gt;Gradient\nDescent</title>
<path fill="none" stroke="black" d="M1168.4,-544.37C1189.02,-547.52 1214.82,-554.25 1233.5,-568.62 1259.53,-588.67 1245.73,-611.04 1270.5,-632.62 1278.24,-639.37 1287.76,-644.69 1297.29,-648.82"/>
<polygon fill="black" stroke="black" points="1295.96,-652.05 1306.55,-652.44 1298.51,-645.53 1295.96,-652.05"/>
</g>
<!-- {&#45;2h, &#45;h, h, 2h}&#45;&gt;Gradient\nDescent -->
<g id="edge28" class="edge">
<title>{&#45;2h, &#45;h, h, 2h}&#45;&gt;Gradient\nDescent</title>
<path fill="none" stroke="black" d="M1184.28,-816.43C1200.89,-812.43 1218.87,-806.22 1233.5,-796.62 1274.56,-769.69 1307.28,-722.09 1325.56,-691.21"/>
<polygon fill="black" stroke="black" points="1328.48,-693.15 1330.44,-682.74 1322.42,-689.66 1328.48,-693.15"/>
</g>
<!-- any&#45;&gt;Gradient\nDescent -->
<g id="edge29" class="edge">
<title>any&#45;&gt;Gradient\nDescent</title>
<path fill="none" stroke="black" d="M1160.5,-765.29C1181.09,-761.24 1210.07,-754.07 1233.5,-742.62 1262.14,-728.64 1290.84,-706.68 1311.47,-689.15"/>
<polygon fill="black" stroke="black" points="1313.66,-691.88 1318.93,-682.69 1309.08,-686.59 1313.66,-691.88"/>
</g>
<!-- Optimize -->
<g id="node29" class="node">
<title>Optimize</title>
<polygon fill="none" stroke="black" points="890.25,-256.62 819.5,-256.62 819.5,-220.62 890.25,-220.62 890.25,-256.62"/>
<text text-anchor="middle" x="854.88" y="-233.2" font-family="Arial" font-size="14.00">Optimize</text>
</g>
<!-- Local\nOptimize -->
<g id="node30" class="node">
<title>Local\nOptimize</title>
<polygon fill="none" stroke="black" points="1168.62,-234.38 1097.88,-234.38 1097.88,-194.88 1168.62,-194.88 1168.62,-234.38"/>
<text text-anchor="middle" x="1133.25" y="-217.07" font-family="Arial" font-size="14.00">Local</text>
<text text-anchor="middle" x="1133.25" y="-201.32" font-family="Arial" font-size="14.00">Optimize</text>
</g>
<!-- Optimize&#45;&gt;Local\nOptimize -->
<g id="edge35" class="edge">
<title>Optimize&#45;&gt;Local\nOptimize</title>
<path fill="none" stroke="black" d="M890.6,-235.61C940.14,-231.31 1031.18,-223.4 1086.27,-218.62"/>
<polygon fill="black" stroke="black" points="1086.28,-222.13 1095.94,-217.78 1085.68,-215.16 1086.28,-222.13"/>
</g>
<!-- Global\nOptimize -->
<g id="node31" class="node">
<title>Global\nOptimize</title>
<polygon fill="none" stroke="black" points="1378,-282.38 1307.25,-282.38 1307.25,-242.88 1378,-242.88 1378,-282.38"/>
<text text-anchor="middle" x="1342.62" y="-265.07" font-family="Arial" font-size="14.00">Global</text>
<text text-anchor="middle" x="1342.62" y="-249.32" font-family="Arial" font-size="14.00">Optimize</text>
</g>
<!-- Optimize&#45;&gt;Global\nOptimize -->
<g id="edge36" class="edge">
<title>Optimize&#45;&gt;Global\nOptimize</title>
<path fill="none" stroke="black" d="M890.42,-240.33C976.14,-244.57 1198.67,-255.56 1295.49,-260.35"/>
<polygon fill="black" stroke="black" points="1295.26,-263.84 1305.42,-260.84 1295.6,-256.85 1295.26,-263.84"/>
</g>
<!-- Local\nOptimize&#45;&gt;Gradient\nDescent -->
<g id="edge37" class="edge">
<title>Local\nOptimize&#45;&gt;Gradient\nDescent</title>
<path fill="none" stroke="black" d="M1147.36,-234.71C1168.88,-268.65 1211.51,-340.19 1233.5,-406.62 1249.49,-454.94 1238.78,-592.83 1270.5,-632.62 1277.35,-641.22 1287.15,-647.28 1297.3,-651.56"/>
<polygon fill="black" stroke="black" points="1295.88,-654.76 1306.48,-654.88 1298.27,-648.18 1295.88,-654.76"/>
</g>
<!-- Local\nOptimize&#45;&gt;Global\nOptimize -->
<g id="edge47" class="edge">
<title>Local\nOptimize&#45;&gt;Global\nOptimize</title>
<path fill="none" stroke="black" d="M1168.96,-222.66C1203.8,-230.72 1257.66,-243.19 1295.95,-252.05"/>
<polygon fill="black" stroke="black" points="1294.8,-255.38 1305.33,-254.22 1296.37,-248.56 1294.8,-255.38"/>
</g>
<!-- f&#39;(x) = 0 -->
<g id="node32" class="node">
<title>f&#39;(x) = 0</title>
<polygon fill="none" stroke="black" points="1373.5,-169.62 1311.75,-169.62 1311.75,-133.62 1373.5,-133.62 1373.5,-169.62"/>
<text text-anchor="middle" x="1342.62" y="-146.2" font-family="Arial" font-size="14.00">f&#39;(x) = 0</text>
</g>
<!-- Local\nOptimize&#45;&gt;f&#39;(x) = 0 -->
<g id="edge38" class="edge">
<title>Local\nOptimize&#45;&gt;f&#39;(x) = 0</title>
<path fill="none" stroke="black" d="M1168.96,-204.08C1205.27,-193.05 1262.23,-175.74 1300.71,-164.06"/>
<polygon fill="black" stroke="black" points="1301.53,-167.47 1310.08,-161.21 1299.49,-160.77 1301.53,-167.47"/>
</g>
<!-- Nelder&#45;Mead Method -->
<g id="node33" class="node">
<title>Nelder&#45;Mead Method</title>
<polygon fill="none" stroke="black" points="1414.75,-224.62 1270.5,-224.62 1270.5,-188.62 1414.75,-188.62 1414.75,-224.62"/>
<text text-anchor="middle" x="1342.62" y="-201.2" font-family="Arial" font-size="14.00">Nelder&#45;Mead Method</text>
</g>
<!-- Local\nOptimize&#45;&gt;Nelder&#45;Mead Method -->
<g id="edge39" class="edge">
<title>Local\nOptimize&#45;&gt;Nelder&#45;Mead Method</title>
<path fill="none" stroke="black" d="M1168.96,-213.29C1193.5,-212.34 1227.48,-211.03 1258.81,-209.82"/>
<polygon fill="black" stroke="black" points="1258.84,-213.32 1268.7,-209.44 1258.57,-206.33 1258.84,-213.32"/>
</g>
<!-- Random\nSampling -->
<g id="node41" class="node">
<title>Random\nSampling</title>
<polygon fill="none" stroke="black" points="1526.25,-283.38 1453.25,-283.38 1453.25,-243.88 1526.25,-243.88 1526.25,-283.38"/>
<text text-anchor="middle" x="1489.75" y="-266.07" font-family="Arial" font-size="14.00">Random</text>
<text text-anchor="middle" x="1489.75" y="-250.32" font-family="Arial" font-size="14.00">Sampling</text>
</g>
<!-- Global\nOptimize&#45;&gt;Random\nSampling -->
<g id="edge48" class="edge">
<title>Global\nOptimize&#45;&gt;Random\nSampling</title>
<path fill="none" stroke="black" d="M1378.39,-262.86C1397.26,-262.99 1420.87,-263.16 1441.4,-263.3"/>
<polygon fill="black" stroke="black" points="1441.22,-266.8 1451.24,-263.37 1441.27,-259.8 1441.22,-266.8"/>
</g>
<!-- Basin\nHopping -->
<g id="node42" class="node">
<title>Basin\nHopping</title>
<polygon fill="none" stroke="black" points="1522.88,-225.38 1456.62,-225.38 1456.62,-185.88 1522.88,-185.88 1522.88,-225.38"/>
<text text-anchor="middle" x="1489.75" y="-208.07" font-family="Arial" font-size="14.00">Basin</text>
<text text-anchor="middle" x="1489.75" y="-192.32" font-family="Arial" font-size="14.00">Hopping</text>
</g>
<!-- Global\nOptimize&#45;&gt;Basin\nHopping -->
<g id="edge49" class="edge">
<title>Global\nOptimize&#45;&gt;Basin\nHopping</title>
<path fill="none" stroke="black" d="M1378.39,-248.97C1398.62,-241.03 1424.28,-230.95 1445.77,-222.5"/>
<polygon fill="black" stroke="black" points="1446.82,-225.85 1454.85,-218.94 1444.27,-219.34 1446.82,-225.85"/>
</g>
<!-- Solve\nEquation -->
<g id="node34" class="node">
<title>Solve\nEquation</title>
<polygon fill="none" stroke="black" points="1524.38,-167.38 1455.12,-167.38 1455.12,-127.88 1524.38,-127.88 1524.38,-167.38"/>
<text text-anchor="middle" x="1489.75" y="-150.07" font-family="Arial" font-size="14.00">Solve</text>
<text text-anchor="middle" x="1489.75" y="-134.32" font-family="Arial" font-size="14.00">Equation</text>
</g>
<!-- f&#39;(x) = 0&#45;&gt;Solve\nEquation -->
<g id="edge40" class="edge">
<title>f&#39;(x) = 0&#45;&gt;Solve\nEquation</title>
<path fill="none" stroke="black" d="M1373.69,-150.8C1393.77,-150.24 1420.55,-149.5 1443.23,-148.88"/>
<polygon fill="black" stroke="black" points="1443.24,-152.38 1453.14,-148.61 1443.04,-145.38 1443.24,-152.38"/>
</g>
<!-- Iterator -->
<g id="node35" class="node">
<title>Iterator</title>
<polygon fill="none" stroke="black" points="1623.5,-165.62 1564.75,-165.62 1564.75,-129.62 1623.5,-129.62 1623.5,-165.62"/>
<text text-anchor="middle" x="1594.12" y="-142.2" font-family="Arial" font-size="14.00">Iterator</text>
</g>
<!-- Solve\nEquation&#45;&gt;Iterator -->
<g id="edge41" class="edge">
<title>Solve\nEquation&#45;&gt;Iterator</title>
<path fill="none" stroke="black" d="M1524.84,-147.62C1533.84,-147.62 1543.63,-147.62 1552.92,-147.62"/>
<polygon fill="black" stroke="black" points="1552.8,-151.13 1562.8,-147.63 1552.8,-144.13 1552.8,-151.13"/>
</g>
<!-- Rearrange -->
<g id="node36" class="node">
<title>Rearrange</title>
<polygon fill="none" stroke="black" points="1760.5,-279.62 1680.75,-279.62 1680.75,-243.62 1760.5,-243.62 1760.5,-279.62"/>
<text text-anchor="middle" x="1720.62" y="-256.2" font-family="Arial" font-size="14.00">Rearrange</text>
</g>
<!-- Iterator&#45;&gt;Rearrange -->
<g id="edge42" class="edge">
<title>Iterator&#45;&gt;Rearrange</title>
<path fill="none" stroke="black" d="M1605.24,-166.09C1616.56,-185.33 1636.5,-215.32 1660.5,-234.62 1663.58,-237.1 1666.93,-239.41 1670.41,-241.55"/>
<polygon fill="black" stroke="black" points="1668.7,-244.6 1679.15,-246.38 1672.09,-238.48 1668.7,-244.6"/>
</g>
<!-- Newton&#45;Raphson\nMethod -->
<g id="node37" class="node">
<title>Newton&#45;Raphson\nMethod</title>
<polygon fill="none" stroke="black" points="1780.75,-225.38 1660.5,-225.38 1660.5,-185.88 1780.75,-185.88 1780.75,-225.38"/>
<text text-anchor="middle" x="1720.62" y="-208.07" font-family="Arial" font-size="14.00">Newton&#45;Raphson</text>
<text text-anchor="middle" x="1720.62" y="-192.32" font-family="Arial" font-size="14.00">Method</text>
</g>
<!-- Iterator&#45;&gt;Newton&#45;Raphson\nMethod -->
<g id="edge43" class="edge">
<title>Iterator&#45;&gt;Newton&#45;Raphson\nMethod</title>
<path fill="none" stroke="black" d="M1623.69,-160.93C1636.4,-166.86 1651.8,-174.03 1666.51,-180.88"/>
<polygon fill="black" stroke="black" points="1664.62,-183.86 1675.16,-184.91 1667.58,-177.52 1664.62,-183.86"/>
</g>
<!-- Secant\nMethod -->
<g id="node38" class="node">
<title>Secant\nMethod</title>
<polygon fill="none" stroke="black" points="1751.5,-167.38 1689.75,-167.38 1689.75,-127.88 1751.5,-127.88 1751.5,-167.38"/>
<text text-anchor="middle" x="1720.62" y="-150.07" font-family="Arial" font-size="14.00">Secant</text>
<text text-anchor="middle" x="1720.62" y="-134.32" font-family="Arial" font-size="14.00">Method</text>
</g>
<!-- Iterator&#45;&gt;Secant\nMethod -->
<g id="edge44" class="edge">
<title>Iterator&#45;&gt;Secant\nMethod</title>
<path fill="none" stroke="black" d="M1623.69,-147.62C1639.82,-147.62 1660.28,-147.62 1678.16,-147.62"/>
<polygon fill="black" stroke="black" points="1677.94,-151.13 1687.94,-147.63 1677.94,-144.13 1677.94,-151.13"/>
</g>
<!-- Bisection -->
<g id="node39" class="node">
<title>Bisection</title>
<polygon fill="none" stroke="black" points="1756,-109.62 1685.25,-109.62 1685.25,-73.62 1756,-73.62 1756,-109.62"/>
<text text-anchor="middle" x="1720.62" y="-86.2" font-family="Arial" font-size="14.00">Bisection</text>
</g>
<!-- Iterator&#45;&gt;Bisection -->
<g id="edge45" class="edge">
<title>Iterator&#45;&gt;Bisection</title>
<path fill="none" stroke="black" d="M1623.69,-134.78C1638.79,-127.99 1657.67,-119.49 1674.69,-111.84"/>
<polygon fill="black" stroke="black" points="1675.92,-115.12 1683.6,-107.83 1673.05,-108.74 1675.92,-115.12"/>
</g>
<!-- Inverse\nQuadratic\nInerpolation -->
<g id="node40" class="node">
<title>Inverse\nQuadratic\nInerpolation</title>
<polygon fill="none" stroke="black" points="1763.88,-55.25 1677.38,-55.25 1677.38,0 1763.88,0 1763.88,-55.25"/>
<text text-anchor="middle" x="1720.62" y="-37.95" font-family="Arial" font-size="14.00">Inverse</text>
<text text-anchor="middle" x="1720.62" y="-22.2" font-family="Arial" font-size="14.00">Quadratic</text>
<text text-anchor="middle" x="1720.62" y="-6.45" font-family="Arial" font-size="14.00">Inerpolation</text>
</g>
<!-- Iterator&#45;&gt;Inverse\nQuadratic\nInerpolation -->
<g id="edge46" class="edge">
<title>Iterator&#45;&gt;Inverse\nQuadratic\nInerpolation</title>
<path fill="none" stroke="black" d="M1606.82,-129.3C1618.83,-111.4 1638.79,-84.1 1660.5,-64.62 1662.87,-62.5 1665.37,-60.43 1667.95,-58.41"/>
<polygon fill="black" stroke="black" points="1669.77,-61.42 1675.77,-52.69 1665.63,-55.77 1669.77,-61.42"/>
</g>
<!-- Differential\nEquation -->
<g id="node43" class="node">
<title>Differential\nEquation</title>
<polygon fill="none" stroke="black" points="895.12,-481.38 814.62,-481.38 814.62,-441.88 895.12,-441.88 895.12,-481.38"/>
<text text-anchor="middle" x="854.88" y="-464.07" font-family="Arial" font-size="14.00">Differential</text>
<text text-anchor="middle" x="854.88" y="-448.32" font-family="Arial" font-size="14.00">Equation</text>
</g>
<!-- ODE -->
<g id="node44" class="node">
<title>ODE</title>
<polygon fill="none" stroke="black" points="1160.25,-451.62 1106.25,-451.62 1106.25,-415.62 1160.25,-415.62 1160.25,-451.62"/>
<text text-anchor="middle" x="1133.25" y="-428.2" font-family="Arial" font-size="14.00">ODE</text>
</g>
<!-- Differential\nEquation&#45;&gt;ODE -->
<g id="edge50" class="edge">
<title>Differential\nEquation&#45;&gt;ODE</title>
<path fill="none" stroke="black" d="M895.47,-457.61C948.65,-452.23 1042.46,-442.72 1094.61,-437.44"/>
<polygon fill="black" stroke="black" points="1094.9,-440.93 1104.49,-436.44 1094.19,-433.96 1094.9,-440.93"/>
</g>
<!-- Differential\nEquation&#45;&gt;PDE -->
<g id="edge51" class="edge">
<title>Differential\nEquation&#45;&gt;PDE</title>
<path fill="none" stroke="black" d="M895.47,-465.35C948.65,-470.35 1042.46,-479.18 1094.61,-484.08"/>
<polygon fill="black" stroke="black" points="1094.21,-487.56 1104.49,-485.01 1094.87,-480.59 1094.21,-487.56"/>
</g>
<!-- Forward\nEular -->
<g id="node49" class="node">
<title>Forward\nEular</title>
<polygon fill="none" stroke="black" points="1375.38,-395.38 1309.88,-395.38 1309.88,-355.88 1375.38,-355.88 1375.38,-395.38"/>
<text text-anchor="middle" x="1342.62" y="-378.07" font-family="Arial" font-size="14.00">Forward</text>
<text text-anchor="middle" x="1342.62" y="-362.32" font-family="Arial" font-size="14.00">Eular</text>
</g>
<!-- ODE&#45;&gt;Forward\nEular -->
<g id="edge54" class="edge">
<title>ODE&#45;&gt;Forward\nEular</title>
<path fill="none" stroke="black" d="M1160.51,-426.28C1195.26,-416.56 1256.94,-399.31 1298.55,-387.67"/>
<polygon fill="black" stroke="black" points="1299.31,-391.09 1308,-385.03 1297.43,-384.35 1299.31,-391.09"/>
</g>
<!-- Backward\nEular -->
<g id="node50" class="node">
<title>Backward\nEular</title>
<polygon fill="none" stroke="black" points="1380.25,-511.38 1305,-511.38 1305,-471.88 1380.25,-471.88 1380.25,-511.38"/>
<text text-anchor="middle" x="1342.62" y="-494.07" font-family="Arial" font-size="14.00">Backward</text>
<text text-anchor="middle" x="1342.62" y="-478.32" font-family="Arial" font-size="14.00">Eular</text>
</g>
<!-- ODE&#45;&gt;Backward\nEular -->
<g id="edge55" class="edge">
<title>ODE&#45;&gt;Backward\nEular</title>
<path fill="none" stroke="black" d="M1160.4,-440.63C1180.43,-446.03 1208.73,-453.71 1233.5,-460.62 1253.22,-466.13 1274.92,-472.33 1293.67,-477.73"/>
<polygon fill="black" stroke="black" points="1292.6,-481.06 1303.17,-480.46 1294.53,-474.33 1292.6,-481.06"/>
</g>
<!-- Runge\nKuta -->
<g id="node51" class="node">
<title>Runge\nKuta</title>
<polygon fill="none" stroke="black" points="1370.5,-453.38 1314.75,-453.38 1314.75,-413.88 1370.5,-413.88 1370.5,-453.38"/>
<text text-anchor="middle" x="1342.62" y="-436.07" font-family="Arial" font-size="14.00">Runge</text>
<text text-anchor="middle" x="1342.62" y="-420.32" font-family="Arial" font-size="14.00">Kuta</text>
</g>
<!-- ODE&#45;&gt;Runge\nKuta -->
<g id="edge56" class="edge">
<title>ODE&#45;&gt;Runge\nKuta</title>
<path fill="none" stroke="black" d="M1160.51,-433.62C1196.5,-433.62 1261.39,-433.62 1302.94,-433.62"/>
<polygon fill="black" stroke="black" points="1302.74,-437.13 1312.74,-433.63 1302.74,-430.13 1302.74,-437.13"/>
</g>
<!-- Simulation -->
<g id="node46" class="node">
<title>Simulation</title>
<polygon fill="none" stroke="black" points="1382.5,-337.62 1302.75,-337.62 1302.75,-301.62 1382.5,-301.62 1382.5,-337.62"/>
<text text-anchor="middle" x="1342.62" y="-314.2" font-family="Arial" font-size="14.00">Simulation</text>
</g>
<!-- Monte\nCarlo -->
<g id="node47" class="node">
<title>Monte\nCarlo</title>
<polygon fill="none" stroke="black" points="1516.88,-341.38 1462.62,-341.38 1462.62,-301.88 1516.88,-301.88 1516.88,-341.38"/>
<text text-anchor="middle" x="1489.75" y="-324.07" font-family="Arial" font-size="14.00">Monte</text>
<text text-anchor="middle" x="1489.75" y="-308.32" font-family="Arial" font-size="14.00">Carlo</text>
</g>
<!-- Simulation&#45;&gt;Monte\nCarlo -->
<g id="edge52" class="edge">
<title>Simulation&#45;&gt;Monte\nCarlo</title>
<path fill="none" stroke="black" d="M1382.9,-320.17C1404.05,-320.46 1430.02,-320.82 1450.94,-321.1"/>
<polygon fill="black" stroke="black" points="1450.73,-324.6 1460.77,-321.24 1450.82,-317.6 1450.73,-324.6"/>
</g>
<!-- Molecular\nDynamics -->
<g id="node48" class="node">
<title>Molecular\nDynamics</title>
<polygon fill="none" stroke="black" points="1527.75,-474.38 1451.75,-474.38 1451.75,-434.88 1527.75,-434.88 1527.75,-474.38"/>
<text text-anchor="middle" x="1489.75" y="-457.07" font-family="Arial" font-size="14.00">Molecular</text>
<text text-anchor="middle" x="1489.75" y="-441.32" font-family="Arial" font-size="14.00">Dynamics</text>
</g>
<!-- Simulation&#45;&gt;Molecular\nDynamics -->
<g id="edge53" class="edge">
<title>Simulation&#45;&gt;Molecular\nDynamics</title>
<path fill="none" stroke="black" d="M1382.77,-329.69C1393.84,-333.76 1405.41,-339.28 1414.75,-346.62 1441.36,-367.56 1462.06,-400.69 1474.71,-424.75"/>
<polygon fill="black" stroke="black" points="1471.46,-426.08 1479.11,-433.41 1477.71,-422.91 1471.46,-426.08"/>
</g>
<!-- Forward\nEular&#45;&gt;Molecular\nDynamics -->
<g id="edge57" class="edge">
<title>Forward\nEular&#45;&gt;Molecular\nDynamics</title>
<path fill="none" stroke="black" d="M1375.78,-387.1C1388.22,-391.96 1402.4,-398.03 1414.75,-404.62 1427.46,-411.42 1440.7,-419.87 1452.41,-427.88"/>
<polygon fill="black" stroke="black" points="1450.39,-430.74 1460.6,-433.6 1454.4,-425 1450.39,-430.74"/>
</g>
<!-- Backward\nEular&#45;&gt;Molecular\nDynamics -->
<g id="edge58" class="edge">
<title>Backward\nEular&#45;&gt;Molecular\nDynamics</title>
<path fill="none" stroke="black" d="M1380.62,-482.19C1398.73,-477.57 1420.77,-471.96 1440.22,-467"/>
<polygon fill="black" stroke="black" points="1441.02,-470.4 1449.85,-464.54 1439.29,-463.62 1441.02,-470.4"/>
</g>
<!-- Runge\nKuta&#45;&gt;Molecular\nDynamics -->
<g id="edge59" class="edge">
<title>Runge\nKuta&#45;&gt;Molecular\nDynamics</title>
<path fill="none" stroke="black" d="M1370.92,-437.57C1390.38,-440.39 1417.06,-444.25 1440.12,-447.59"/>
<polygon fill="black" stroke="black" points="1439.55,-451.04 1449.95,-449.01 1440.55,-444.11 1439.55,-451.04"/>
</g>
<!-- Verlet -->
<g id="node52" class="node">
<title>Verlet</title>
<polygon fill="none" stroke="black" points="1369.62,-623.62 1315.62,-623.62 1315.62,-587.62 1369.62,-587.62 1369.62,-623.62"/>
<text text-anchor="middle" x="1342.62" y="-600.2" font-family="Arial" font-size="14.00">Verlet</text>
</g>
<!-- Verlet&#45;&gt;Molecular\nDynamics -->
<g id="edge60" class="edge">
<title>Verlet&#45;&gt;Molecular\nDynamics</title>
<path fill="none" stroke="black" d="M1369.81,-600.18C1384.29,-596.13 1401.9,-589.4 1414.75,-578.62 1444.77,-553.46 1465.71,-512.81 1477.47,-484.97"/>
<polygon fill="black" stroke="black" points="1480.59,-486.6 1481.1,-476.02 1474.1,-483.97 1480.59,-486.6"/>
</g>
<!-- Velocity\nVerlet -->
<g id="node53" class="node">
<title>Velocity\nVerlet</title>
<polygon fill="none" stroke="black" points="1373.88,-569.38 1311.38,-569.38 1311.38,-529.88 1373.88,-529.88 1373.88,-569.38"/>
<text text-anchor="middle" x="1342.62" y="-552.08" font-family="Arial" font-size="14.00">Velocity</text>
<text text-anchor="middle" x="1342.62" y="-536.33" font-family="Arial" font-size="14.00">Verlet</text>
</g>
<!-- Velocity\nVerlet&#45;&gt;Molecular\nDynamics -->
<g id="edge61" class="edge">
<title>Velocity\nVerlet&#45;&gt;Molecular\nDynamics</title>
<path fill="none" stroke="black" d="M1374.14,-539.79C1387.15,-534.95 1402.19,-528.46 1414.75,-520.62 1431.64,-510.09 1448.38,-495.6 1461.65,-482.88"/>
<polygon fill="black" stroke="black" points="1464.07,-485.4 1468.76,-475.9 1459.17,-480.41 1464.07,-485.4"/>
</g>
</g>
</svg>
