<?xml version="1.0" encoding="UTF-8" standalone="no"?>
<!DOCTYPE svg PUBLIC "-//W3C//DTD SVG 1.1//EN"
 "http://www.w3.org/Graphics/SVG/1.1/DTD/svg11.dtd">
<!-- Generated by graphviz version 7.1.0 (20230121.1956)
 -->
<!-- Title: G Pages: 1 -->
<svg width="207pt" height="259pt"
 viewBox="0.00 0.00 207.49 259.00" xmlns="http://www.w3.org/2000/svg" xmlns:xlink="http://www.w3.org/1999/xlink">
<g id="graph0" class="graph" transform="scale(1 1) rotate(0) translate(4 255)">
<title>G</title>
<polygon fill="white" stroke="none" points="-4,4 -4,-255 203.49,-255 203.49,4 -4,4"/>
<g id="clust1" class="cluster">
<title>cluster_Output</title>
<polygon fill="none" stroke="black" stroke-dasharray="5,2" points="117.2,-8 117.2,-243 196.49,-243 196.49,-8 117.2,-8"/>
<text text-anchor="middle" x="156.84" y="-227.8" font-family="Times,serif" font-size="14.00">Output (x3)</text>
</g>
<g id="clust2" class="cluster">
<title>cluster_Input</title>
<polygon fill="none" stroke="black" stroke-dasharray="5,2" points="3,-49 3,-194 73.2,-194 73.2,-49 3,-49"/>
<text text-anchor="middle" x="38.1" y="-178.8" font-family="Times,serif" font-size="14.00">Input (x2)</text>
</g>
<!-- out1 -->
<g id="node1" class="node">
<title>out1</title>
<ellipse fill="none" stroke="black" cx="156.84" cy="-185" rx="26.8" ry="26.8"/>
<text text-anchor="middle" x="156.84" y="-181.3" font-family="Times,serif" font-size="14.00">out1</text>
</g>
<!-- out2 -->
<g id="node2" class="node">
<title>out2</title>
<ellipse fill="none" stroke="black" cx="156.84" cy="-114" rx="26.8" ry="26.8"/>
<text text-anchor="middle" x="156.84" y="-110.3" font-family="Times,serif" font-size="14.00">out2</text>
</g>
<!-- out3 -->
<g id="node3" class="node">
<title>out3</title>
<ellipse fill="none" stroke="black" cx="156.84" cy="-43" rx="26.8" ry="26.8"/>
<text text-anchor="middle" x="156.84" y="-39.3" font-family="Times,serif" font-size="14.00">out3</text>
</g>
<!-- in1 -->
<g id="node4" class="node">
<title>in1</title>
<ellipse fill="none" stroke="black" cx="38.1" cy="-141" rx="22.2" ry="22.2"/>
<text text-anchor="middle" x="38.1" y="-137.3" font-family="Times,serif" font-size="14.00">in1</text>
</g>
<!-- in1&#45;&gt;out1 -->
<g id="edge1" class="edge">
<title>in1&#45;&gt;out1</title>
<path fill="none" stroke="black" d="M59.43,-148.66C76.3,-155.02 100.67,-164.21 120.69,-171.75"/>
<polygon fill="black" stroke="black" points="119.28,-174.96 129.87,-175.21 121.75,-168.41 119.28,-174.96"/>
<text text-anchor="middle" x="95.2" y="-168.8" font-family="Times,serif" font-size="14.00">w11</text>
</g>
<!-- in1&#45;&gt;out2 -->
<g id="edge2" class="edge">
<title>in1&#45;&gt;out2</title>
<path fill="none" stroke="black" d="M60.61,-143.25C74.18,-144.05 91.97,-143.93 107.2,-140 112.85,-138.54 118.56,-136.3 123.99,-133.74"/>
<polygon fill="black" stroke="black" points="125.4,-136.95 132.65,-129.23 122.17,-130.75 125.4,-136.95"/>
</g>
<!-- in1&#45;&gt;out3 -->
<g id="edge3" class="edge">
<title>in1&#45;&gt;out3</title>
<path fill="none" stroke="black" d="M55.82,-126.96C74.33,-111.42 104.5,-86.1 126.87,-67.32"/>
<polygon fill="black" stroke="black" points="129.05,-70.06 134.46,-60.95 124.55,-64.7 129.05,-70.06"/>
</g>
<!-- in2 -->
<g id="node5" class="node">
<title>in2</title>
<ellipse fill="none" stroke="black" cx="38.1" cy="-79" rx="22.2" ry="22.2"/>
<text text-anchor="middle" x="38.1" y="-75.3" font-family="Times,serif" font-size="14.00">in2</text>
</g>
<!-- in2&#45;&gt;out1 -->
<g id="edge4" class="edge">
<title>in2&#45;&gt;out1</title>
<path fill="none" stroke="black" d="M56,-92.35C70.21,-103.87 90.76,-121.25 107.2,-138 112.06,-142.96 112.39,-144.99 117.2,-150 120.51,-153.45 124.1,-156.97 127.72,-160.39"/>
<polygon fill="black" stroke="black" points="125.23,-162.85 134.97,-167.04 129.97,-157.7 125.23,-162.85"/>
<text text-anchor="middle" x="95.2" y="-141.8" font-family="Times,serif" font-size="14.00">w21</text>
</g>
<!-- in2&#45;&gt;out2 -->
<g id="edge5" class="edge">
<title>in2&#45;&gt;out2</title>
<path fill="none" stroke="black" d="M59.7,-85.18C76.41,-90.19 100.37,-97.37 120.18,-103.31"/>
<polygon fill="black" stroke="black" points="118.95,-106.59 129.54,-106.11 120.96,-99.89 118.95,-106.59"/>
</g>
<!-- in2&#45;&gt;out3 -->
<g id="edge6" class="edge">
<title>in2&#45;&gt;out3</title>
<path fill="none" stroke="black" d="M59.7,-72.65C76.41,-67.49 100.37,-60.11 120.18,-54"/>
<polygon fill="black" stroke="black" points="121.02,-57.4 129.54,-51.11 118.95,-50.71 121.02,-57.4"/>
</g>
</g>
</svg>
