<?xml version="1.0" encoding="UTF-8" standalone="no"?>
<!DOCTYPE svg PUBLIC "-//W3C//DTD SVG 1.1//EN"
 "http://www.w3.org/Graphics/SVG/1.1/DTD/svg11.dtd">
<!-- Generated by graphviz version 7.1.0 (20230121.1956)
 -->
<!-- Pages: 1 -->
<svg width="276pt" height="262pt"
 viewBox="0.00 0.00 276.29 262.00" xmlns="http://www.w3.org/2000/svg" xmlns:xlink="http://www.w3.org/1999/xlink">
<g id="graph0" class="graph" transform="scale(1 1) rotate(0) translate(4 258)">
<polygon fill="white" stroke="none" points="-4,4 -4,-258 272.29,-258 272.29,4 -4,4"/>
<g id="clust1" class="cluster">
<title>cluster_Goal</title>
<polygon fill="none" stroke="black" stroke-dasharray="5,2" points="192.3,-80 192.3,-171 260.29,-171 260.29,-80 192.3,-80"/>
<text text-anchor="middle" x="226.29" y="-155.8" font-family="Times,serif" font-size="14.00">Goal</text>
</g>
<g id="clust2" class="cluster">
<title>cluster_criteria</title>
<polygon fill="none" stroke="black" stroke-dasharray="5,2" points="103,-8 103,-243 172.3,-243 172.3,-8 103,-8"/>
<text text-anchor="middle" x="137.65" y="-227.8" font-family="Times,serif" font-size="14.00">Criteria</text>
</g>
<g id="clust4" class="cluster">
<title>cluster_alternatives</title>
<polygon fill="none" stroke="black" stroke-dasharray="5,2" points="0,-9 0,-246 83,-246 83,-9 0,-9"/>
<text text-anchor="middle" x="41.5" y="-230.8" font-family="Times,serif" font-size="14.00">Alternatives</text>
</g>
<!-- goal -->
<g id="node1" class="node">
<title>goal</title>
<ellipse fill="none" stroke="black" cx="226.29" cy="-114" rx="26" ry="26"/>
<text text-anchor="middle" x="226.29" y="-110.3" font-family="Times,serif" font-size="14.00">goal</text>
</g>
<!-- attr1 -->
<g id="node2" class="node">
<title>attr1</title>
<ellipse fill="none" stroke="black" cx="137.65" cy="-114" rx="26.8" ry="26.8"/>
<text text-anchor="middle" x="137.65" y="-110.3" font-family="Times,serif" font-size="14.00">attr1</text>
</g>
<!-- attr1&#45;&gt;goal -->
<g id="edge1" class="edge">
<title>attr1&#45;&gt;goal</title>
<path fill="none" stroke="black" d="M164.64,-114C172.15,-114 180.48,-114 188.5,-114"/>
<polygon fill="black" stroke="black" points="188.4,-117.5 198.4,-114 188.4,-110.5 188.4,-117.5"/>
</g>
<!-- attr2 -->
<g id="node3" class="node">
<title>attr2</title>
<ellipse fill="none" stroke="black" cx="137.65" cy="-43" rx="26.8" ry="26.8"/>
<text text-anchor="middle" x="137.65" y="-39.3" font-family="Times,serif" font-size="14.00">attr2</text>
</g>
<!-- attr2&#45;&gt;goal -->
<g id="edge2" class="edge">
<title>attr2&#45;&gt;goal</title>
<path fill="none" stroke="black" d="M158.74,-59.47C170.09,-68.76 184.45,-80.53 196.92,-90.75"/>
<polygon fill="black" stroke="black" points="194.48,-93.28 204.43,-96.91 198.92,-87.86 194.48,-93.28"/>
</g>
<!-- attr3 -->
<g id="node4" class="node">
<title>attr3</title>
<ellipse fill="none" stroke="black" cx="137.65" cy="-185" rx="26.8" ry="26.8"/>
<text text-anchor="middle" x="137.65" y="-181.3" font-family="Times,serif" font-size="14.00">attr3</text>
</g>
<!-- attr3&#45;&gt;goal -->
<g id="edge3" class="edge">
<title>attr3&#45;&gt;goal</title>
<path fill="none" stroke="black" d="M158.74,-168.53C170.09,-159.24 184.45,-147.47 196.92,-137.25"/>
<polygon fill="black" stroke="black" points="198.92,-140.14 204.43,-131.09 194.48,-134.72 198.92,-140.14"/>
</g>
<!-- a -->
<g id="node5" class="node">
<title>a</title>
<ellipse fill="none" stroke="black" cx="41" cy="-197" rx="18" ry="18"/>
<text text-anchor="middle" x="41" y="-193.3" font-family="Times,serif" font-size="14.00">a</text>
</g>
<!-- a&#45;&gt;attr1 -->
<g id="edge4" class="edge">
<title>a&#45;&gt;attr1</title>
<path fill="none" stroke="black" d="M56.99,-188.27C65.02,-183.32 74.89,-176.78 83,-170 92.89,-161.74 94.09,-158.31 103,-149 105.51,-146.38 108.12,-143.65 110.73,-140.93"/>
<polygon fill="black" stroke="black" points="113.02,-143.6 117.42,-133.97 107.97,-138.75 113.02,-143.6"/>
</g>
<!-- a&#45;&gt;attr2 -->
<g id="edge5" class="edge">
<title>a&#45;&gt;attr2</title>
<path fill="none" stroke="black" d="M57.87,-190.25C66.58,-185.75 76.83,-179 83,-170 106.67,-135.49 83.31,-114.92 103,-78 104.75,-74.73 106.88,-71.55 109.23,-68.52"/>
<polygon fill="black" stroke="black" points="111.76,-70.95 115.71,-61.12 106.49,-66.34 111.76,-70.95"/>
</g>
<!-- a&#45;&gt;attr3 -->
<g id="edge6" class="edge">
<title>a&#45;&gt;attr3</title>
<path fill="none" stroke="black" d="M59.36,-194.8C70.62,-193.37 85.72,-191.46 99.58,-189.7"/>
<polygon fill="black" stroke="black" points="99.85,-193.19 109.33,-188.46 98.97,-186.25 99.85,-193.19"/>
</g>
<!-- b -->
<g id="node6" class="node">
<title>b</title>
<ellipse fill="none" stroke="black" cx="41" cy="-143" rx="18" ry="18"/>
<text text-anchor="middle" x="41" y="-139.3" font-family="Times,serif" font-size="14.00">b</text>
</g>
<!-- b&#45;&gt;attr1 -->
<g id="edge7" class="edge">
<title>b&#45;&gt;attr1</title>
<path fill="none" stroke="black" d="M58.49,-137.95C70.22,-134.35 86.43,-129.39 101.05,-124.91"/>
<polygon fill="black" stroke="black" points="101.84,-128.33 110.37,-122.05 99.78,-121.63 101.84,-128.33"/>
</g>
<!-- b&#45;&gt;attr2 -->
<g id="edge8" class="edge">
<title>b&#45;&gt;attr2</title>
<path fill="none" stroke="black" d="M57.4,-135.34C65.74,-130.62 75.79,-123.96 83,-116 95.82,-101.86 91.83,-93.48 103,-78 105.05,-75.15 107.33,-72.31 109.7,-69.53"/>
<polygon fill="black" stroke="black" points="112.29,-71.9 116.43,-62.15 107.11,-67.18 112.29,-71.9"/>
</g>
<!-- b&#45;&gt;attr3 -->
<g id="edge9" class="edge">
<title>b&#45;&gt;attr3</title>
<path fill="none" stroke="black" d="M58.06,-150.12C70.23,-155.53 87.39,-163.14 102.57,-169.88"/>
<polygon fill="black" stroke="black" points="100.74,-172.9 111.3,-173.75 103.58,-166.5 100.74,-172.9"/>
</g>
<!-- c -->
<g id="node7" class="node">
<title>c</title>
<ellipse fill="none" stroke="black" cx="41" cy="-89" rx="18" ry="18"/>
<text text-anchor="middle" x="41" y="-85.3" font-family="Times,serif" font-size="14.00">c</text>
</g>
<!-- c&#45;&gt;attr1 -->
<g id="edge10" class="edge">
<title>c&#45;&gt;attr1</title>
<path fill="none" stroke="black" d="M58.92,-93.47C70.42,-96.51 86.06,-100.64 100.31,-104.4"/>
<polygon fill="black" stroke="black" points="99.3,-107.75 109.86,-106.92 101.08,-100.99 99.3,-107.75"/>
</g>
<!-- c&#45;&gt;attr2 -->
<g id="edge11" class="edge">
<title>c&#45;&gt;attr2</title>
<path fill="none" stroke="black" d="M57.63,-81.4C69.92,-75.43 87.48,-66.9 102.92,-59.39"/>
<polygon fill="black" stroke="black" points="104.37,-62.58 111.83,-55.06 101.31,-56.29 104.37,-62.58"/>
</g>
<!-- c&#45;&gt;attr3 -->
<g id="edge12" class="edge">
<title>c&#45;&gt;attr3</title>
<path fill="none" stroke="black" d="M57.65,-97.02C65.87,-101.77 75.72,-108.34 83,-116 95.08,-128.71 92.41,-136.03 103,-150 105.12,-152.8 107.44,-155.61 109.84,-158.36"/>
<polygon fill="black" stroke="black" points="107.27,-160.73 116.61,-165.72 112.42,-155.99 107.27,-160.73"/>
</g>
<!-- d -->
<g id="node8" class="node">
<title>d</title>
<ellipse fill="none" stroke="black" cx="41" cy="-35" rx="18" ry="18"/>
<text text-anchor="middle" x="41" y="-31.3" font-family="Times,serif" font-size="14.00">d</text>
</g>
<!-- d&#45;&gt;attr1 -->
<g id="edge13" class="edge">
<title>d&#45;&gt;attr1</title>
<path fill="none" stroke="black" d="M56.89,-43.86C64.88,-48.85 74.76,-55.39 83,-62 92.41,-69.55 102.06,-78.47 110.54,-86.78"/>
<polygon fill="black" stroke="black" points="107.96,-89.15 117.5,-93.74 112.9,-84.2 107.96,-89.15"/>
</g>
<!-- d&#45;&gt;attr2 -->
<g id="edge14" class="edge">
<title>d&#45;&gt;attr2</title>
<path fill="none" stroke="black" d="M59.36,-36.47C70.53,-37.41 85.49,-38.68 99.27,-39.84"/>
<polygon fill="black" stroke="black" points="98.7,-43.3 108.96,-40.66 99.29,-36.33 98.7,-43.3"/>
</g>
<!-- d&#45;&gt;attr3 -->
<g id="edge15" class="edge">
<title>d&#45;&gt;attr3</title>
<path fill="none" stroke="black" d="M57.84,-41.77C66.54,-46.28 76.79,-53.03 83,-62 105.84,-94.97 83.96,-114.7 103,-150 104.76,-153.26 106.91,-156.44 109.26,-159.46"/>
<polygon fill="black" stroke="black" points="106.52,-161.65 115.75,-166.86 111.79,-157.03 106.52,-161.65"/>
</g>
</g>
</svg>
