<?xml version="1.0" encoding="UTF-8" standalone="no"?>
<!DOCTYPE svg PUBLIC "-//W3C//DTD SVG 1.1//EN"
 "http://www.w3.org/Graphics/SVG/1.1/DTD/svg11.dtd">
<!-- Generated by graphviz version 7.1.0 (20230121.1956)
 -->
<!-- Title: Decision_Tree Pages: 1 -->
<svg width="1308pt" height="694pt"
 viewBox="0.00 0.00 1307.50 693.60" xmlns="http://www.w3.org/2000/svg" xmlns:xlink="http://www.w3.org/1999/xlink">
<g id="graph0" class="graph" transform="scale(1 1) rotate(0) translate(4 689.6)">
<title>Decision_Tree</title>
<polygon fill="white" stroke="none" points="-4,4 -4,-689.6 1303.5,-689.6 1303.5,4 -4,4"/>
<!-- start -->
<g id="node1" class="node">
<title>start</title>
<g id="a_node1"><a xlink:title="拿到问题">
<ellipse fill="black" stroke="black" cx="997" cy="-683.8" rx="1.8" ry="1.8"/>
</a>
</g>
</g>
<!-- 物理问题? -->
<g id="node19" class="node">
<title>物理问题?</title>
<polygon fill="none" stroke="black" points="997,-645 923.43,-627 997,-609 1070.57,-627 997,-645"/>
<text text-anchor="middle" x="997" y="-623.3" font-family="Times,serif" font-size="14.00">物理问题?</text>
</g>
<!-- start&#45;&#45;物理问题? -->
<g id="edge1" class="edge">
<title>start&#45;&#45;物理问题?</title>
<path fill="none" stroke="black" d="M997,-681.85C997,-677.53 997,-659.35 997,-645.3"/>
</g>
<!-- 查相关文档 -->
<g id="node2" class="node">
<title>查相关文档</title>
<polygon fill="none" stroke="black" points="1130,-471 1042,-471 1042,-435 1130,-435 1130,-471"/>
<text text-anchor="middle" x="1086" y="-449.3" font-family="Times,serif" font-size="14.00">查相关文档</text>
</g>
<!-- 要不先看看别的问题? -->
<g id="node3" class="node">
<title>要不先看看别的问题?</title>
<polygon fill="none" stroke="black" points="1299.5,-471 1148.5,-471 1148.5,-435 1299.5,-435 1299.5,-471"/>
<text text-anchor="middle" x="1224" y="-449.3" font-family="Times,serif" font-size="14.00">要不先看看别的问题?</text>
</g>
<!-- 尝试构建一个图 -->
<g id="node4" class="node">
<title>尝试构建一个图</title>
<polygon fill="none" stroke="black" points="323,-384 207,-384 207,-348 323,-348 323,-384"/>
<text text-anchor="middle" x="265" y="-362.3" font-family="Times,serif" font-size="14.00">尝试构建一个图</text>
</g>
<!-- 最短路径 -->
<g id="node6" class="node">
<title>最短路径</title>
<polygon fill="none" stroke="black" points="203,-297 129,-297 129,-261 203,-261 203,-297"/>
<text text-anchor="middle" x="166" y="-275.3" font-family="Times,serif" font-size="14.00">最短路径</text>
</g>
<!-- 尝试构建一个图&#45;&#45;最短路径 -->
<g id="edge8" class="edge">
<title>尝试构建一个图&#45;&#45;最短路径</title>
<path fill="none" stroke="black" d="M213.93,-347.61C204.87,-342.9 196.09,-337.09 189,-330 179.95,-320.94 174.07,-307.67 170.52,-297.07"/>
<text text-anchor="middle" x="225" y="-318.8" font-family="Times,serif" font-size="14.00">仅连接两点</text>
</g>
<!-- 最小生成树 -->
<g id="node7" class="node">
<title>最小生成树</title>
<polygon fill="none" stroke="black" points="309,-297 221,-297 221,-261 309,-261 309,-297"/>
<text text-anchor="middle" x="265" y="-275.3" font-family="Times,serif" font-size="14.00">最小生成树</text>
</g>
<!-- 尝试构建一个图&#45;&#45;最小生成树 -->
<g id="edge9" class="edge">
<title>尝试构建一个图&#45;&#45;最小生成树</title>
<path fill="none" stroke="black" d="M265,-347.8C265,-333.15 265,-312.19 265,-297.47"/>
<text text-anchor="middle" x="301" y="-318.8" font-family="Times,serif" font-size="14.00">连接所有点</text>
</g>
<!-- 多目标最优规划 -->
<g id="node5" class="node">
<title>多目标最优规划</title>
<polygon fill="none" stroke="black" points="594,-210 478,-210 478,-174 594,-174 594,-210"/>
<text text-anchor="middle" x="536" y="-188.3" font-family="Times,serif" font-size="14.00">多目标最优规划</text>
</g>
<!-- 多目标严格约束? -->
<g id="node29" class="node">
<title>多目标严格约束?</title>
<polygon fill="none" stroke="black" points="510,-123 397.73,-105 510,-87 622.27,-105 510,-123"/>
<text text-anchor="middle" x="510" y="-101.3" font-family="Times,serif" font-size="14.00">多目标严格约束?</text>
</g>
<!-- 多目标最优规划&#45;&#45;多目标严格约束? -->
<g id="edge23" class="edge">
<title>多目标最优规划&#45;&#45;多目标严格约束?</title>
<path fill="none" stroke="black" d="M530.74,-173.8C526.17,-158.86 519.59,-137.36 515.08,-122.6"/>
</g>
<!-- 单目标最优规划 -->
<g id="node8" class="node">
<title>单目标最优规划</title>
<polygon fill="none" stroke="black" points="780,-210 664,-210 664,-174 780,-174 780,-210"/>
<text text-anchor="middle" x="722" y="-188.3" font-family="Times,serif" font-size="14.00">单目标最优规划</text>
</g>
<!-- 是否有现成评分公式 -->
<g id="node28" class="node">
<title>是否有现成评分公式</title>
<polygon fill="none" stroke="black" points="773,-123 639.94,-105 773,-87 906.06,-105 773,-123"/>
<text text-anchor="middle" x="773" y="-101.3" font-family="Times,serif" font-size="14.00">是否有现成评分公式</text>
</g>
<!-- 单目标最优规划&#45;&#45;是否有现成评分公式 -->
<g id="edge20" class="edge">
<title>单目标最优规划&#45;&#45;是否有现成评分公式</title>
<path fill="none" stroke="black" d="M732.32,-173.8C741.4,-158.66 754.52,-136.8 763.38,-122.03"/>
<text text-anchor="middle" x="758.5" y="-144.8" font-family="Times,serif" font-size="14.00">是</text>
</g>
<!-- 考虑评分函数 -->
<g id="node9" class="node">
<title>考虑评分函数</title>
<polygon fill="none" stroke="black" points="809,-36 707,-36 707,0 809,0 809,-36"/>
<text text-anchor="middle" x="758" y="-14.3" font-family="Times,serif" font-size="14.00">考虑评分函数</text>
</g>
<!-- PageRank? -->
<g id="node10" class="node">
<title>PageRank?</title>
<g id="a_node10"><a xlink:title="适合图结构的问题, 研究相互之间的联系关系. 类似还有 LinkRank. ">
<polygon fill="none" stroke="black" points="1001.5,-123 924.5,-123 924.5,-87 1001.5,-87 1001.5,-123"/>
<text text-anchor="middle" x="963" y="-101.3" font-family="Times,serif" font-size="14.00">PageRank?</text>
</a>
</g>
</g>
<!-- 使用其作为评分函数 -->
<g id="node11" class="node">
<title>使用其作为评分函数</title>
<polygon fill="none" stroke="black" points="972.5,-36 827.5,-36 827.5,0 972.5,0 972.5,-36"/>
<text text-anchor="middle" x="900" y="-14.3" font-family="Times,serif" font-size="14.00">使用其作为评分函数</text>
</g>
<!-- AHP -->
<g id="node12" class="node">
<title>AHP</title>
<g id="a_node12"><a xlink:title="层次分析法, 尽可能将抽象指标分解成数值指标. ">
<polygon fill="none" stroke="black" points="1058,-36 1004,-36 1004,0 1058,0 1058,-36"/>
<text text-anchor="middle" x="1031" y="-14.3" font-family="Times,serif" font-size="14.00">AHP</text>
</a>
</g>
</g>
<!-- EWM &amp; TOPSIS -->
<g id="node13" class="node">
<title>EWM &amp; TOPSIS</title>
<g id="a_node13"><a xlink:title="熵权法, 根据数据统计性质赋权. TOPSIS, 根据数据分布正负理想解来评判数据. ">
<polygon fill="none" stroke="black" points="1190,-36 1076,-36 1076,0 1190,0 1190,-36"/>
<text text-anchor="middle" x="1133" y="-14.3" font-family="Times,serif" font-size="14.00">EWM &amp; TOPSIS</text>
</a>
</g>
</g>
<!-- 转换为约束的单目标 -->
<g id="node14" class="node">
<title>转换为约束的单目标</title>
<polygon fill="none" stroke="black" points="556.5,-36 411.5,-36 411.5,0 556.5,0 556.5,-36"/>
<text text-anchor="middle" x="484" y="-14.3" font-family="Times,serif" font-size="14.00">转换为约束的单目标</text>
</g>
<!-- 多目标规划 -->
<g id="node15" class="node">
<title>多目标规划</title>
<g id="a_node15"><a xlink:title="引入正负偏差变量来讲目标函数变成容易求解的等式关系. ">
<polygon fill="none" stroke="black" points="663,-36 575,-36 575,0 663,0 663,-36"/>
<text text-anchor="middle" x="619" y="-14.3" font-family="Times,serif" font-size="14.00">多目标规划</text>
</a>
</g>
</g>
<!-- QueueingProcess -->
<g id="node16" class="node">
<title>QueueingProcess</title>
<polygon fill="none" stroke="black" points="110,-123 0,-123 0,-87 110,-87 110,-123"/>
<text text-anchor="middle" x="55" y="-101.3" font-family="Times,serif" font-size="14.00">QueueingProcess</text>
</g>
<!-- 考虑元胞自动机? -->
<g id="node17" class="node">
<title>考虑元胞自动机?</title>
<polygon fill="none" stroke="black" points="202,-36 80,-36 80,0 202,0 202,-36"/>
<text text-anchor="middle" x="141" y="-14.3" font-family="Times,serif" font-size="14.00">考虑元胞自动机?</text>
</g>
<!-- 考虑图和最大流? -->
<g id="node18" class="node">
<title>考虑图和最大流?</title>
<polygon fill="none" stroke="black" points="342,-36 220,-36 220,0 342,0 342,-36"/>
<text text-anchor="middle" x="281" y="-14.3" font-family="Times,serif" font-size="14.00">考虑图和最大流?</text>
</g>
<!-- 管理问题? -->
<g id="node20" class="node">
<title>管理问题?</title>
<polygon fill="none" stroke="black" points="895,-558 821.43,-540 895,-522 968.57,-540 895,-558"/>
<text text-anchor="middle" x="895" y="-536.3" font-family="Times,serif" font-size="14.00">管理问题?</text>
</g>
<!-- 物理问题?&#45;&#45;管理问题? -->
<g id="edge2" class="edge">
<title>物理问题?&#45;&#45;管理问题?</title>
<path fill="none" stroke="black" d="M981.06,-612.72C962.01,-596.84 930.31,-570.43 911.16,-554.47"/>
<text text-anchor="middle" x="960.5" y="-579.8" font-family="Times,serif" font-size="14.00">否</text>
</g>
<!-- 是否有现成公式? -->
<g id="node21" class="node">
<title>是否有现成公式?</title>
<polygon fill="none" stroke="black" points="1099,-558 986.73,-540 1099,-522 1211.27,-540 1099,-558"/>
<text text-anchor="middle" x="1099" y="-536.3" font-family="Times,serif" font-size="14.00">是否有现成公式?</text>
</g>
<!-- 物理问题?&#45;&#45;是否有现成公式? -->
<g id="edge3" class="edge">
<title>物理问题?&#45;&#45;是否有现成公式?</title>
<path fill="none" stroke="black" d="M1012.94,-612.72C1031.54,-597.22 1062.2,-571.66 1081.47,-555.61"/>
<text text-anchor="middle" x="1062.5" y="-579.8" font-family="Times,serif" font-size="14.00">是</text>
</g>
<!-- 网络分配问题? -->
<g id="node22" class="node">
<title>网络分配问题?</title>
<polygon fill="none" stroke="black" points="501,-471 401.96,-453 501,-435 600.04,-453 501,-471"/>
<text text-anchor="middle" x="501" y="-449.3" font-family="Times,serif" font-size="14.00">网络分配问题?</text>
</g>
<!-- 管理问题?&#45;&#45;网络分配问题? -->
<g id="edge6" class="edge">
<title>管理问题?&#45;&#45;网络分配问题?</title>
<path fill="none" stroke="black" d="M857.22,-530.85C783.93,-515.04 622.84,-480.28 544.92,-463.48"/>
<text text-anchor="middle" x="729.5" y="-492.8" font-family="Times,serif" font-size="14.00">是</text>
</g>
<!-- 分类问题? -->
<g id="node30" class="node">
<title>分类问题?</title>
<polygon fill="none" stroke="black" points="924,-471 850.43,-453 924,-435 997.57,-453 924,-471"/>
<text text-anchor="middle" x="924" y="-449.3" font-family="Times,serif" font-size="14.00">分类问题?</text>
</g>
<!-- 管理问题?&#45;&#45;分类问题? -->
<g id="edge26" class="edge">
<title>管理问题?&#45;&#45;分类问题?</title>
<path fill="none" stroke="black" d="M900.45,-523.01C905.64,-507.82 913.39,-485.09 918.57,-469.92"/>
<text text-anchor="middle" x="919.5" y="-492.8" font-family="Times,serif" font-size="14.00">否</text>
</g>
<!-- 是否有现成公式?&#45;&#45;查相关文档 -->
<g id="edge4" class="edge">
<title>是否有现成公式?&#45;&#45;查相关文档</title>
<path fill="none" stroke="black" d="M1096.43,-522.21C1094.18,-507.5 1090.93,-486.21 1088.65,-471.34"/>
<text text-anchor="middle" x="1101.5" y="-492.8" font-family="Times,serif" font-size="14.00">是</text>
</g>
<!-- 是否有现成公式?&#45;&#45;要不先看看别的问题? -->
<g id="edge5" class="edge">
<title>是否有现成公式?&#45;&#45;要不先看看别的问题?</title>
<path fill="none" stroke="black" d="M1119.64,-524.96C1141.28,-510.25 1175.3,-487.12 1198.57,-471.29"/>
<text text-anchor="middle" x="1176.5" y="-492.8" font-family="Times,serif" font-size="14.00">否</text>
</g>
<!-- 网络分配问题?&#45;&#45;尝试构建一个图 -->
<g id="edge7" class="edge">
<title>网络分配问题?&#45;&#45;尝试构建一个图</title>
<path fill="none" stroke="black" d="M469.17,-440.54C429.16,-426.13 360.09,-401.25 313.49,-384.47"/>
<text text-anchor="middle" x="405.5" y="-405.8" font-family="Times,serif" font-size="14.00">是</text>
</g>
<!-- 最优选择问题? -->
<g id="node23" class="node">
<title>最优选择问题?</title>
<polygon fill="none" stroke="black" points="501,-384 401.96,-366 501,-348 600.04,-366 501,-384"/>
<text text-anchor="middle" x="501" y="-362.3" font-family="Times,serif" font-size="14.00">最优选择问题?</text>
</g>
<!-- 网络分配问题?&#45;&#45;最优选择问题? -->
<g id="edge10" class="edge">
<title>网络分配问题?&#45;&#45;最优选择问题?</title>
<path fill="none" stroke="black" d="M501,-434.8C501,-420.15 501,-399.19 501,-384.47"/>
<text text-anchor="middle" x="508.5" y="-405.8" font-family="Times,serif" font-size="14.00">否</text>
</g>
<!-- 服务调度问题? -->
<g id="node24" class="node">
<title>服务调度问题?</title>
<polygon fill="none" stroke="black" points="426,-297 326.96,-279 426,-261 525.04,-279 426,-297"/>
<text text-anchor="middle" x="426" y="-275.3" font-family="Times,serif" font-size="14.00">服务调度问题?</text>
</g>
<!-- 最优选择问题?&#45;&#45;服务调度问题? -->
<g id="edge11" class="edge">
<title>最优选择问题?&#45;&#45;服务调度问题?</title>
<path fill="none" stroke="black" d="M487.94,-350.19C474.25,-334.69 452.89,-310.47 439.17,-294.92"/>
<text text-anchor="middle" x="475.5" y="-318.8" font-family="Times,serif" font-size="14.00">否</text>
</g>
<!-- 目标单一? -->
<g id="node27" class="node">
<title>目标单一?</title>
<polygon fill="none" stroke="black" points="617,-297 543.43,-279 617,-261 690.57,-279 617,-297"/>
<text text-anchor="middle" x="617" y="-275.3" font-family="Times,serif" font-size="14.00">目标单一?</text>
</g>
<!-- 最优选择问题?&#45;&#45;目标单一? -->
<g id="edge17" class="edge">
<title>最优选择问题?&#45;&#45;目标单一?</title>
<path fill="none" stroke="black" d="M519.9,-351.15C541.85,-335.07 577.8,-308.72 599.25,-293"/>
<text text-anchor="middle" x="573.5" y="-318.8" font-family="Times,serif" font-size="14.00">是</text>
</g>
<!-- 简单点服务? -->
<g id="node25" class="node">
<title>简单点服务?</title>
<polygon fill="none" stroke="black" points="254,-210 167.7,-192 254,-174 340.3,-192 254,-210"/>
<text text-anchor="middle" x="254" y="-188.3" font-family="Times,serif" font-size="14.00">简单点服务?</text>
</g>
<!-- 服务调度问题?&#45;&#45;简单点服务? -->
<g id="edge12" class="edge">
<title>服务调度问题?&#45;&#45;简单点服务?</title>
<path fill="none" stroke="black" d="M400.25,-265.27C367.45,-249.07 311.15,-221.24 278.81,-205.26"/>
<text text-anchor="middle" x="358.5" y="-231.8" font-family="Times,serif" font-size="14.00">是</text>
</g>
<!-- 简单点服务?&#45;&#45;QueueingProcess -->
<g id="edge13" class="edge">
<title>简单点服务?&#45;&#45;QueueingProcess</title>
<path fill="none" stroke="black" d="M226.75,-179.36C192.9,-164.9 134.84,-140.1 95.71,-123.39"/>
<text text-anchor="middle" x="174.5" y="-144.8" font-family="Times,serif" font-size="14.00">是</text>
</g>
<!-- 能否构建简单网络? -->
<g id="node26" class="node">
<title>能否构建简单网络?</title>
<polygon fill="none" stroke="black" points="254,-123 128.15,-105 254,-87 379.85,-105 254,-123"/>
<text text-anchor="middle" x="254" y="-101.3" font-family="Times,serif" font-size="14.00">能否构建简单网络?</text>
</g>
<!-- 简单点服务?&#45;&#45;能否构建简单网络? -->
<g id="edge14" class="edge">
<title>简单点服务?&#45;&#45;能否构建简单网络?</title>
<path fill="none" stroke="black" d="M254,-173.8C254,-159.15 254,-138.19 254,-123.47"/>
<text text-anchor="middle" x="261.5" y="-144.8" font-family="Times,serif" font-size="14.00">否</text>
</g>
<!-- 能否构建简单网络?&#45;&#45;考虑元胞自动机? -->
<g id="edge15" class="edge">
<title>能否构建简单网络?&#45;&#45;考虑元胞自动机?</title>
<path fill="none" stroke="black" d="M234.57,-89.39C215.01,-74.67 184.84,-51.97 164.07,-36.35"/>
<text text-anchor="middle" x="212.5" y="-57.8" font-family="Times,serif" font-size="14.00">否</text>
</g>
<!-- 能否构建简单网络?&#45;&#45;考虑图和最大流? -->
<g id="edge16" class="edge">
<title>能否构建简单网络?&#45;&#45;考虑图和最大流?</title>
<path fill="none" stroke="black" d="M259.21,-87.61C263.9,-72.85 270.76,-51.22 275.53,-36.21"/>
<text text-anchor="middle" x="277.5" y="-57.8" font-family="Times,serif" font-size="14.00">是</text>
</g>
<!-- 目标单一?&#45;&#45;多目标最优规划 -->
<g id="edge18" class="edge">
<title>目标单一?&#45;&#45;多目标最优规划</title>
<path fill="none" stroke="black" d="M603.62,-263.96C589.61,-249.25 567.56,-226.12 552.48,-210.29"/>
<text text-anchor="middle" x="589.5" y="-231.8" font-family="Times,serif" font-size="14.00">否</text>
</g>
<!-- 目标单一?&#45;&#45;单目标最优规划 -->
<g id="edge19" class="edge">
<title>目标单一?&#45;&#45;单目标最优规划</title>
<path fill="none" stroke="black" d="M633.41,-264.72C651.52,-250.06 680.74,-226.4 700.63,-210.3"/>
<text text-anchor="middle" x="683.5" y="-231.8" font-family="Times,serif" font-size="14.00">是</text>
</g>
<!-- 是否有现成评分公式&#45;&#45;考虑评分函数 -->
<g id="edge21" class="edge">
<title>是否有现成评分公式&#45;&#45;考虑评分函数</title>
<path fill="none" stroke="black" d="M770.04,-87.21C767.44,-72.5 763.68,-51.21 761.06,-36.34"/>
<text text-anchor="middle" x="774.5" y="-57.8" font-family="Times,serif" font-size="14.00">无</text>
</g>
<!-- 是否有现成评分公式&#45;&#45;使用其作为评分函数 -->
<g id="edge22" class="edge">
<title>是否有现成评分公式&#45;&#45;使用其作为评分函数</title>
<path fill="none" stroke="black" d="M794.54,-89.58C816.48,-74.9 850.51,-52.12 873.95,-36.43"/>
<text text-anchor="middle" x="852.5" y="-57.8" font-family="Times,serif" font-size="14.00">是</text>
</g>
<!-- 多目标严格约束?&#45;&#45;转换为约束的单目标 -->
<g id="edge24" class="edge">
<title>多目标严格约束?&#45;&#45;转换为约束的单目标</title>
<path fill="none" stroke="black" d="M504.99,-87.61C500.47,-72.85 493.86,-51.22 489.27,-36.21"/>
<text text-anchor="middle" x="506.5" y="-57.8" font-family="Times,serif" font-size="14.00">是</text>
</g>
<!-- 多目标严格约束?&#45;&#45;多目标规划 -->
<g id="edge25" class="edge">
<title>多目标严格约束?&#45;&#45;多目标规划</title>
<path fill="none" stroke="black" d="M528.49,-89.58C547.32,-74.9 576.53,-52.12 596.64,-36.43"/>
<text text-anchor="middle" x="579.5" y="-57.8" font-family="Times,serif" font-size="14.00">否</text>
</g>
<!-- 评估问题? -->
<g id="node31" class="node">
<title>评估问题?</title>
<polygon fill="none" stroke="black" points="924,-384 850.43,-366 924,-348 997.57,-366 924,-384"/>
<text text-anchor="middle" x="924" y="-362.3" font-family="Times,serif" font-size="14.00">评估问题?</text>
</g>
<!-- 分类问题?&#45;&#45;评估问题? -->
<g id="edge27" class="edge">
<title>分类问题?&#45;&#45;评估问题?</title>
<path fill="none" stroke="black" d="M924,-434.8C924,-420.15 924,-399.19 924,-384.47"/>
<text text-anchor="middle" x="931.5" y="-405.8" font-family="Times,serif" font-size="14.00">否</text>
</g>
<!-- 是否有必要AI? -->
<g id="node32" class="node">
<title>是否有必要AI?</title>
<polygon fill="none" stroke="black" points="1115,-384 1015.96,-366 1115,-348 1214.04,-366 1115,-384"/>
<text text-anchor="middle" x="1115" y="-362.3" font-family="Times,serif" font-size="14.00">是否有必要AI?</text>
</g>
<!-- 分类问题?&#45;&#45;是否有必要AI? -->
<g id="edge28" class="edge">
<title>分类问题?&#45;&#45;是否有必要AI?</title>
<path fill="none" stroke="black" d="M949.36,-440.71C985.18,-424.77 1050.35,-395.77 1087.36,-379.3"/>
<text text-anchor="middle" x="1038.5" y="-405.8" font-family="Times,serif" font-size="14.00">是</text>
</g>
<!-- 是否有科学评价标准? -->
<g id="node33" class="node">
<title>是否有科学评价标准?</title>
<polygon fill="none" stroke="black" points="924,-297 785.41,-279 924,-261 1062.59,-279 924,-297"/>
<text text-anchor="middle" x="924" y="-275.3" font-family="Times,serif" font-size="14.00">是否有科学评价标准?</text>
</g>
<!-- 评估问题?&#45;&#45;是否有科学评价标准? -->
<g id="edge29" class="edge">
<title>评估问题?&#45;&#45;是否有科学评价标准?</title>
<path fill="none" stroke="black" d="M924,-347.8C924,-333.15 924,-312.19 924,-297.47"/>
<text text-anchor="middle" x="931.5" y="-318.8" font-family="Times,serif" font-size="14.00">是</text>
</g>
<!-- 其他问题 -->
<g id="node34" class="node">
<title>其他问题</title>
<g id="a_node34"><a xlink:title="如无必要, 建议去掉. ">
<polygon fill="none" stroke="black" points="1149,-297 1080.96,-279 1149,-261 1217.04,-279 1149,-297"/>
<text text-anchor="middle" x="1149" y="-275.3" font-family="Times,serif" font-size="14.00">其他问题</text>
</a>
</g>
</g>
<!-- 评估问题?&#45;&#45;其他问题 -->
<g id="edge30" class="edge">
<title>评估问题?&#45;&#45;其他问题</title>
<path fill="none" stroke="black" d="M952.04,-354.41C995.63,-337.94 1079.08,-306.42 1122.01,-290.2"/>
<text text-anchor="middle" x="1057.5" y="-318.8" font-family="Times,serif" font-size="14.00">否</text>
</g>
<!-- 数据是否有结构特征? -->
<g id="node35" class="node">
<title>数据是否有结构特征?</title>
<polygon fill="none" stroke="black" points="963,-210 824.41,-192 963,-174 1101.59,-192 963,-210"/>
<text text-anchor="middle" x="963" y="-188.3" font-family="Times,serif" font-size="14.00">数据是否有结构特征?</text>
</g>
<!-- 是否有科学评价标准?&#45;&#45;数据是否有结构特征? -->
<g id="edge31" class="edge">
<title>是否有科学评价标准?&#45;&#45;数据是否有结构特征?</title>
<path fill="none" stroke="black" d="M931.52,-261.61C938.43,-246.56 948.6,-224.37 955.5,-209.34"/>
<text text-anchor="middle" x="953.5" y="-231.8" font-family="Times,serif" font-size="14.00">否</text>
</g>
<!-- 数据是否有结构特征?&#45;&#45;PageRank? -->
<g id="edge32" class="edge">
<title>数据是否有结构特征?&#45;&#45;PageRank?</title>
<path fill="none" stroke="black" d="M963,-173.8C963,-159.15 963,-138.19 963,-123.47"/>
<text text-anchor="middle" x="970.5" y="-144.8" font-family="Times,serif" font-size="14.00">是</text>
</g>
<!-- 直观判断依据? -->
<g id="node36" class="node">
<title>直观判断依据?</title>
<polygon fill="none" stroke="black" points="1119,-123 1019.96,-105 1119,-87 1218.04,-105 1119,-123"/>
<text text-anchor="middle" x="1119" y="-101.3" font-family="Times,serif" font-size="14.00">直观判断依据?</text>
</g>
<!-- 数据是否有结构特征?&#45;&#45;直观判断依据? -->
<g id="edge33" class="edge">
<title>数据是否有结构特征?&#45;&#45;直观判断依据?</title>
<path fill="none" stroke="black" d="M988.76,-176.96C1018.27,-160.88 1066.24,-134.75 1095,-119.08"/>
<text text-anchor="middle" x="1058.5" y="-144.8" font-family="Times,serif" font-size="14.00">否</text>
</g>
<!-- 直观判断依据?&#45;&#45;AHP -->
<g id="edge34" class="edge">
<title>直观判断依据?&#45;&#45;AHP</title>
<path fill="none" stroke="black" d="M1104.07,-89.58C1088.87,-74.9 1065.29,-52.12 1049.05,-36.43"/>
<text text-anchor="middle" x="1088.5" y="-57.8" font-family="Times,serif" font-size="14.00">是</text>
</g>
<!-- 直观判断依据?&#45;&#45;EWM &amp; TOPSIS -->
<g id="edge35" class="edge">
<title>直观判断依据?&#45;&#45;EWM &amp; TOPSIS</title>
<path fill="none" stroke="black" d="M1121.77,-87.21C1124.19,-72.5 1127.69,-51.21 1130.14,-36.34"/>
<text text-anchor="middle" x="1134.5" y="-57.8" font-family="Times,serif" font-size="14.00">否</text>
</g>
</g>
</svg>
