<?xml version="1.0" encoding="UTF-8" standalone="no"?>
<!DOCTYPE svg PUBLIC "-//W3C//DTD SVG 1.1//EN"
 "http://www.w3.org/Graphics/SVG/1.1/DTD/svg11.dtd">
<!-- Generated by graphviz version 7.1.0 (20230121.1956)
 -->
<!-- Pages: 1 -->
<svg width="4600pt" height="1386pt"
 viewBox="0.00 0.00 4600.00 1385.60" xmlns="http://www.w3.org/2000/svg" xmlns:xlink="http://www.w3.org/1999/xlink">
<g id="graph0" class="graph" transform="scale(1 1) rotate(0) translate(4 1381.6)">
<polygon fill="white" stroke="none" points="-4,4 -4,-1381.6 4596,-1381.6 4596,4 -4,4"/>
<!-- start -->
<g id="node1" class="node">
<title>start</title>
<g id="a_node1"><a xlink:title="遇到问题 (摆大烂)">
<ellipse fill="black" stroke="black" stroke-width="5" cx="3397" cy="-1375.8" rx="1.8" ry="1.8"/>
</a>
</g>
</g>
<!-- Question -->
<g id="node2" class="node">
<title>Question</title>
<g id="a_node2"><a xlink:title="对问题进行分类">
<polygon fill="#a6cee3" stroke="lightgray" stroke-width="5" points="3397,-1338 3271,-1248 3397,-1158 3523,-1248 3397,-1338"/>
<text text-anchor="middle" x="3397" y="-1237" font-family="Arial" font-size="45.00" fill="floralwhite">Question</text>
</a>
</g>
</g>
<!-- start&#45;&gt;Question -->
<g id="edge1" class="edge">
<title>start&#45;&gt;Question</title>
<path fill="none" stroke="black" stroke-width="3" d="M3397,-1371.69C3397,-1369.12 3397,-1365.09 3397,-1360.01"/>
<polygon fill="black" stroke="black" stroke-width="3" points="3402.25,-1360.34 3397,-1345.34 3391.75,-1360.34 3402.25,-1360.34"/>
</g>
<!-- Optimize -->
<g id="node3" class="node">
<title>Optimize</title>
<g id="a_node3"><a xlink:title="优化问题">
<ellipse fill="#1f78b4" stroke="lightgray" stroke-width="5" cx="945" cy="-1014" rx="108" ry="108"/>
<text text-anchor="middle" x="945" y="-1003" font-family="Arial" font-size="45.00" fill="floralwhite">Optimize</text>
</a>
</g>
</g>
<!-- Question&#45;&gt;Optimize -->
<g id="edge2" class="edge">
<title>Question&#45;&gt;Optimize</title>
<path fill="none" stroke="black" stroke-width="3" d="M3278.29,-1239.85C3010.82,-1223.29 2340.81,-1179.31 1782,-1122 1530.2,-1096.18 1237.01,-1056.47 1073.01,-1033.38"/>
<polygon fill="black" stroke="black" stroke-width="3" points="1074.23,-1028.25 1058.64,-1031.35 1072.76,-1038.65 1074.23,-1028.25"/>
</g>
<!-- Predict -->
<g id="node4" class="node">
<title>Predict</title>
<g id="a_node4"><a xlink:title="预测问题">
<ellipse fill="#1f78b4" stroke="lightgray" stroke-width="5" cx="1899" cy="-1014" rx="108" ry="108"/>
<text text-anchor="middle" x="1899" y="-1003" font-family="Arial" font-size="45.00" fill="floralwhite">Predict</text>
</a>
</g>
</g>
<!-- Question&#45;&gt;Predict -->
<g id="edge3" class="edge">
<title>Question&#45;&gt;Predict</title>
<path fill="none" stroke="black" stroke-width="3" d="M3291.37,-1230.64C3023.34,-1189.13 2317.55,-1079.82 2026.89,-1034.81"/>
<polygon fill="black" stroke="black" stroke-width="3" points="2028.05,-1029.67 2012.42,-1032.57 2026.44,-1040.05 2028.05,-1029.67"/>
</g>
<!-- Measure -->
<g id="node5" class="node">
<title>Measure</title>
<g id="a_node5"><a xlink:title="评估问题">
<ellipse fill="#1f78b4" stroke="lightgray" stroke-width="5" cx="3397" cy="-1014" rx="108" ry="108"/>
<text text-anchor="middle" x="3397" y="-1003" font-family="Arial" font-size="45.00" fill="floralwhite">Measure</text>
</a>
</g>
</g>
<!-- Question&#45;&gt;Measure -->
<g id="edge4" class="edge">
<title>Question&#45;&gt;Measure</title>
<path fill="none" stroke="black" stroke-width="3" d="M3397,-1154.97C3397,-1151.18 3397,-1147.35 3397,-1143.5"/>
<polygon fill="black" stroke="black" stroke-width="3" points="3402.25,-1143.72 3397,-1128.72 3391.75,-1143.72 3402.25,-1143.72"/>
</g>
<!-- Arrange -->
<g id="node6" class="node">
<title>Arrange</title>
<g id="a_node6"><a xlink:title="运筹安排问题">
<ellipse fill="#1f78b4" stroke="lightgray" stroke-width="5" cx="3779" cy="-1014" rx="108" ry="108"/>
<text text-anchor="middle" x="3779" y="-1003" font-family="Arial" font-size="45.00" fill="floralwhite">Arrange</text>
</a>
</g>
</g>
<!-- Question&#45;&gt;Arrange -->
<g id="edge5" class="edge">
<title>Question&#45;&gt;Arrange</title>
<path fill="none" stroke="black" stroke-width="3" d="M3466.62,-1204.72C3522.94,-1170.51 3603.31,-1121.7 3668.42,-1082.16"/>
<polygon fill="black" stroke="black" stroke-width="3" points="3671.07,-1086.69 3681.17,-1074.42 3665.62,-1077.72 3671.07,-1086.69"/>
</g>
<!-- Others -->
<g id="node7" class="node">
<title>Others</title>
<g id="a_node7"><a xlink:title="其他问题">
<ellipse fill="#1f78b4" stroke="lightgray" stroke-width="5" cx="4097" cy="-1014" rx="108" ry="108"/>
<text text-anchor="middle" x="4097" y="-1003" font-family="Arial" font-size="45.00" fill="floralwhite">Others</text>
</a>
</g>
</g>
<!-- Question&#45;&gt;Others -->
<g id="edge6" class="edge">
<title>Question&#45;&gt;Others</title>
<path fill="none" stroke="black" stroke-width="3" d="M3500.07,-1228.82C3602.57,-1208.98 3763.26,-1173.07 3896,-1122 3925.93,-1110.48 3957.08,-1095.52 3985.66,-1080.45"/>
<polygon fill="black" stroke="black" stroke-width="3" points="3987.9,-1085.21 3998.63,-1073.49 3982.93,-1075.96 3987.9,-1085.21"/>
</g>
<!-- Single/Multi\nGoal? -->
<g id="node8" class="node">
<title>Single/Multi\nGoal?</title>
<g id="a_node8"><a xlink:title="判断是否有多个目标">
<polygon fill="#b2df8a" stroke="lightgray" stroke-width="5" points="415,-863 256.36,-773 415,-683 573.64,-773 415,-863"/>
<text text-anchor="middle" x="415" y="-784" font-family="Arial" font-size="35.00" fill="floralwhite">Single/Multi</text>
<text text-anchor="middle" x="415" y="-745" font-family="Arial" font-size="35.00" fill="floralwhite">Goal?</text>
</a>
</g>
</g>
<!-- Optimize&#45;&gt;Single/Multi\nGoal? -->
<g id="edge7" class="edge">
<title>Optimize&#45;&gt;Single/Multi\nGoal?</title>
<path fill="none" stroke="black" stroke-width="3" d="M844.69,-967.76C752.78,-926.32 617.08,-865.13 522.86,-822.64"/>
<polygon fill="black" stroke="black" stroke-width="3" points="525.16,-817.92 509.33,-816.54 520.84,-827.49 525.16,-817.92"/>
</g>
<!-- Graph -->
<g id="node15" class="node">
<title>Graph</title>
<g id="a_node15"><a xlink:title="Graph&#10;图&#10;可以将问题变换为和图相关的问题. ">
<ellipse fill="#b2df8a" stroke="lightgray" stroke-width="5" cx="839" cy="-773" rx="97" ry="97"/>
<text text-anchor="middle" x="839" y="-764.5" font-family="Arial" font-size="35.00" fill="floralwhite">Graph</text>
</a>
</g>
</g>
<!-- Optimize&#45;&gt;Graph -->
<g id="edge8" class="edge">
<title>Optimize&#45;&gt;Graph</title>
<path fill="none" stroke="black" stroke-width="3" d="M900.66,-913.03C896.1,-902.75 891.45,-892.27 886.86,-881.91"/>
<polygon fill="black" stroke="black" stroke-width="3" points="891.66,-879.79 880.78,-868.2 882.06,-884.04 891.66,-879.79"/>
</g>
<!-- Other\nOptimise -->
<g id="node16" class="node">
<title>Other\nOptimise</title>
<g id="a_node16"><a xlink:title="其他可用的方法">
<ellipse fill="#b2df8a" stroke="lightgray" stroke-width="5" cx="1051" cy="-773" rx="97" ry="97"/>
<text text-anchor="middle" x="1051" y="-784" font-family="Arial" font-size="35.00" fill="floralwhite">Other</text>
<text text-anchor="middle" x="1051" y="-745" font-family="Arial" font-size="35.00" fill="floralwhite">Optimise</text>
</a>
</g>
</g>
<!-- Optimize&#45;&gt;Other\nOptimise -->
<g id="edge9" class="edge">
<title>Optimize&#45;&gt;Other\nOptimise</title>
<path fill="none" stroke="black" stroke-width="3" d="M989.34,-913.03C993.9,-902.75 998.55,-892.27 1003.14,-881.91"/>
<polygon fill="black" stroke="black" stroke-width="3" points="1007.94,-884.04 1009.22,-868.2 998.34,-879.79 1007.94,-884.04"/>
</g>
<!-- Interpolation -->
<g id="node11" class="node">
<title>Interpolation</title>
<g id="a_node11"><a xlink:href="https://en.wikipedia.org/wiki/Interpolation" xlink:title="Interpolation&#10;插值法&#10;用于根据数据来拟合函数. ">
<ellipse fill="#b2df8a" stroke="lightgray" stroke-width="5" cx="1475" cy="-773" rx="97" ry="97"/>
<text text-anchor="middle" x="1475" y="-764.5" font-family="Arial" font-size="35.00" fill="floralwhite">Interpolation</text>
</a>
</g>
</g>
<!-- Predict&#45;&gt;Interpolation -->
<g id="edge10" class="edge">
<title>Predict&#45;&gt;Interpolation</title>
<path fill="none" stroke="black" stroke-width="3" d="M1795.61,-976.07C1731.26,-950.81 1648.25,-913.99 1581,-870 1574.07,-865.47 1567.14,-860.48 1560.34,-855.24"/>
<polygon fill="black" stroke="black" stroke-width="3" points="1563.73,-851.23 1548.76,-845.91 1557.14,-859.41 1563.73,-851.23"/>
</g>
<!-- Probability -->
<g id="node12" class="node">
<title>Probability</title>
<ellipse fill="#b2df8a" stroke="lightgray" stroke-width="5" cx="1687" cy="-773" rx="97" ry="97"/>
<text text-anchor="middle" x="1687" y="-764.5" font-family="Arial" font-size="35.00" fill="floralwhite">Probability</text>
</g>
<!-- Predict&#45;&gt;Probability -->
<g id="edge11" class="edge">
<title>Predict&#45;&gt;Probability</title>
<path fill="none" stroke="black" stroke-width="3" d="M1826.34,-931.08C1806.67,-908.91 1785.3,-884.82 1765.34,-862.32"/>
<polygon fill="black" stroke="black" stroke-width="3" points="1769.35,-858.93 1755.47,-851.19 1761.5,-865.9 1769.35,-858.93"/>
</g>
<!-- Gray\nModel -->
<g id="node20" class="node">
<title>Gray\nModel</title>
<g id="a_node20"><a xlink:href="https://en.wikipedia.org/wiki/Grey_relational_analysis" xlink:title="Gray Model (GRA Grey Relational Analysis)&#10;灰色预测模型&#10;适用于小样本的数据预测. ">
<ellipse fill="#b2df8a" stroke="lightgray" stroke-width="5" cx="1899" cy="-773" rx="97" ry="97"/>
<text text-anchor="middle" x="1899" y="-784" font-family="Arial" font-size="35.00" fill="floralwhite">Gray</text>
<text text-anchor="middle" x="1899" y="-745" font-family="Arial" font-size="35.00" fill="floralwhite">Model</text>
</a>
</g>
</g>
<!-- Predict&#45;&gt;Gray\nModel -->
<g id="edge12" class="edge">
<title>Predict&#45;&gt;Gray\nModel</title>
<path fill="none" stroke="black" stroke-width="3" d="M1899,-903.64C1899,-899.56 1899,-895.46 1899,-891.37"/>
<polygon fill="black" stroke="black" stroke-width="3" points="1904.25,-891.85 1899,-876.85 1893.75,-891.85 1904.25,-891.85"/>
</g>
<!-- Regression -->
<g id="node22" class="node">
<title>Regression</title>
<g id="a_node22"><a xlink:title="回归模型&#10;用于从数据中猜测分布, 或者说, 拟合一个函数来描述数据. ">
<ellipse fill="#b2df8a" stroke="lightgray" stroke-width="5" cx="2111" cy="-773" rx="97" ry="97"/>
<text text-anchor="middle" x="2111" y="-764.5" font-family="Arial" font-size="35.00" fill="floralwhite">Regression</text>
</a>
</g>
</g>
<!-- Predict&#45;&gt;Regression -->
<g id="edge13" class="edge">
<title>Predict&#45;&gt;Regression</title>
<path fill="none" stroke="black" stroke-width="3" d="M1971.66,-931.08C1991.33,-908.91 2012.7,-884.82 2032.66,-862.32"/>
<polygon fill="black" stroke="black" stroke-width="3" points="2036.5,-865.9 2042.53,-851.19 2028.65,-858.93 2036.5,-865.9"/>
</g>
<!-- Ranking -->
<g id="node17" class="node">
<title>Ranking</title>
<g id="a_node17"><a xlink:title="根据各种指标来对元素进行打分和评价">
<ellipse fill="#b2df8a" stroke="lightgray" stroke-width="5" cx="3276" cy="-773" rx="97" ry="97"/>
<text text-anchor="middle" x="3276" y="-764.5" font-family="Arial" font-size="35.00" fill="floralwhite">Ranking</text>
</a>
</g>
</g>
<!-- Measure&#45;&gt;Ranking -->
<g id="edge14" class="edge">
<title>Measure&#45;&gt;Ranking</title>
<path fill="none" stroke="black" stroke-width="3" d="M3347.61,-915.44C3341.48,-903.34 3335.19,-890.92 3329.01,-878.71"/>
<polygon fill="black" stroke="black" stroke-width="3" points="3333.88,-876.71 3322.42,-865.7 3324.51,-881.45 3333.88,-876.71"/>
</g>
<!-- Classify -->
<g id="node21" class="node">
<title>Classify</title>
<g id="a_node21"><a xlink:title="分类问题">
<ellipse fill="#b2df8a" stroke="lightgray" stroke-width="5" cx="3594" cy="-773" rx="97" ry="97"/>
<text text-anchor="middle" x="3594" y="-764.5" font-family="Arial" font-size="35.00" fill="floralwhite">Classify</text>
</a>
</g>
</g>
<!-- Measure&#45;&gt;Classify -->
<g id="edge15" class="edge">
<title>Measure&#45;&gt;Classify</title>
<path fill="none" stroke="black" stroke-width="3" d="M3466.73,-928.4C3483.65,-907.87 3501.82,-885.83 3518.98,-865.02"/>
<polygon fill="black" stroke="black" stroke-width="3" points="3522.88,-868.54 3528.37,-853.62 3514.78,-861.86 3522.88,-868.54"/>
</g>
<!-- Queuing\nTheory -->
<g id="node19" class="node">
<title>Queuing\nTheory</title>
<g id="a_node19"><a xlink:href="https://en.wikipedia.org/wiki/Queueing_theory" xlink:title="Queuing Theory&#10;排队论问题&#10;解决服务, 排队的问题. ">
<ellipse fill="#b2df8a" stroke="lightgray" stroke-width="5" cx="3806" cy="-773" rx="97" ry="97"/>
<text text-anchor="middle" x="3806" y="-784" font-family="Arial" font-size="35.00" fill="floralwhite">Queuing</text>
<text text-anchor="middle" x="3806" y="-745" font-family="Arial" font-size="35.00" fill="floralwhite">Theory</text>
</a>
</g>
</g>
<!-- Arrange&#45;&gt;Queuing\nTheory -->
<g id="edge16" class="edge">
<title>Arrange&#45;&gt;Queuing\nTheory</title>
<path fill="none" stroke="black" stroke-width="3" d="M3791.28,-904.34C3791.77,-899.93 3792.27,-895.5 3792.77,-891.08"/>
<polygon fill="black" stroke="black" stroke-width="3" points="3797.98,-891.79 3794.44,-876.3 3787.54,-890.61 3797.98,-891.79"/>
</g>
<!-- AI -->
<g id="node13" class="node">
<title>AI</title>
<ellipse fill="#b2df8a" stroke="lightgray" stroke-width="5" cx="4071" cy="-773" rx="97" ry="97"/>
<text text-anchor="middle" x="4071" y="-764.5" font-family="Arial" font-size="35.00" fill="floralwhite">AI</text>
</g>
<!-- Others&#45;&gt;AI -->
<g id="edge17" class="edge">
<title>Others&#45;&gt;AI</title>
<path fill="none" stroke="black" stroke-width="3" d="M4085.18,-904.34C4084.7,-899.93 4084.22,-895.5 4083.74,-891.08"/>
<polygon fill="black" stroke="black" stroke-width="3" points="4088.97,-890.65 4082.13,-876.3 4078.53,-891.78 4088.97,-890.65"/>
</g>
<!-- MonteCarlo -->
<g id="node14" class="node">
<title>MonteCarlo</title>
<g id="a_node14"><a xlink:href="https://en.wikipedia.org/wiki/Monte_Carlo_method" xlink:title="Monte Carlo Method&#10;Monte Carlo 法&#10;以概率方法来计算问题. ">
<ellipse fill="#b2df8a" stroke="lightgray" stroke-width="5" cx="4283" cy="-773" rx="97" ry="97"/>
<text text-anchor="middle" x="4283" y="-764.5" font-family="Arial" font-size="35.00" fill="floralwhite">MonteCarlo</text>
</a>
</g>
</g>
<!-- Others&#45;&gt;MonteCarlo -->
<g id="edge18" class="edge">
<title>Others&#45;&gt;MonteCarlo</title>
<path fill="none" stroke="black" stroke-width="3" d="M4164.15,-926.72C4179.25,-907.31 4195.34,-886.64 4210.64,-866.98"/>
<polygon fill="black" stroke="black" stroke-width="3" points="4214.58,-870.47 4219.65,-855.41 4206.29,-864.02 4214.58,-870.47"/>
</g>
<!-- Automa -->
<g id="node18" class="node">
<title>Automa</title>
<g id="a_node18"><a xlink:href="https://en.wikipedia.org/wiki/Cellular_automaton" xlink:title="Cellular Automation&#10;元胞自动机&#10;可以用于模拟生物和物理之类的问题. ">
<ellipse fill="#b2df8a" stroke="lightgray" stroke-width="5" cx="4495" cy="-773" rx="97" ry="97"/>
<text text-anchor="middle" x="4495" y="-764.5" font-family="Arial" font-size="35.00" fill="floralwhite">Automa</text>
</a>
</g>
</g>
<!-- Others&#45;&gt;Automa -->
<g id="edge19" class="edge">
<title>Others&#45;&gt;Automa</title>
<path fill="none" stroke="black" stroke-width="3" d="M4198.82,-971.6C4256.76,-946.01 4329.42,-910.38 4389,-870 4395.8,-865.39 4402.61,-860.37 4409.32,-855.12"/>
<polygon fill="black" stroke="black" stroke-width="3" points="4412.42,-859.37 4420.73,-845.82 4405.79,-851.23 4412.42,-859.37"/>
</g>
<!-- Single -->
<g id="node9" class="node">
<title>Single</title>
<g id="a_node9"><a xlink:title="单目标值的函数最优化">
<ellipse fill="#b2df8a" stroke="lightgray" stroke-width="5" cx="203" cy="-543" rx="97" ry="97"/>
<text text-anchor="middle" x="203" y="-534.5" font-family="Arial" font-size="35.00" fill="floralwhite">Single</text>
</a>
</g>
</g>
<!-- Single/Multi\nGoal?&#45;&gt;Single -->
<g id="edge20" class="edge">
<title>Single/Multi\nGoal?&#45;&gt;Single</title>
<path fill="none" stroke="black" stroke-width="3" d="M359.3,-712.1C336,-687.04 308.49,-657.45 283.08,-630.13"/>
<polygon fill="black" stroke="black" stroke-width="3" points="287.18,-626.82 273.12,-619.41 279.49,-633.97 287.18,-626.82"/>
</g>
<!-- Multi\nGoal -->
<g id="node10" class="node">
<title>Multi\nGoal</title>
<g id="a_node10"><a xlink:title="多目标最优规划">
<ellipse fill="#b2df8a" stroke="lightgray" stroke-width="5" cx="415" cy="-543" rx="97" ry="97"/>
<text text-anchor="middle" x="415" y="-554" font-family="Arial" font-size="35.00" fill="floralwhite">Multi</text>
<text text-anchor="middle" x="415" y="-515" font-family="Arial" font-size="35.00" fill="floralwhite">Goal</text>
</a>
</g>
</g>
<!-- Single/Multi\nGoal?&#45;&gt;Multi\nGoal -->
<g id="edge21" class="edge">
<title>Single/Multi\nGoal?&#45;&gt;Multi\nGoal</title>
<path fill="none" stroke="black" stroke-width="3" d="M415,-680.25C415,-674.1 415,-667.86 415,-661.6"/>
<polygon fill="black" stroke="black" stroke-width="3" points="420.25,-661.82 415,-646.82 409.75,-661.82 420.25,-661.82"/>
</g>
<!-- Linear -->
<g id="node24" class="node">
<title>Linear</title>
<ellipse fill="#33a02c" stroke="lightgray" stroke-width="5" cx="97" cy="-313" rx="97" ry="97"/>
<text text-anchor="middle" x="97" y="-304.5" font-family="Arial" font-size="35.00" fill="floralwhite">Linear</text>
</g>
<!-- Single&#45;&gt;Linear -->
<g id="edge35" class="edge">
<title>Single&#45;&gt;Linear</title>
<path fill="none" stroke="black" stroke-width="3" d="M161.56,-452.87C156.63,-442.26 151.56,-431.35 146.53,-420.53"/>
<polygon fill="black" stroke="black" stroke-width="3" points="151.41,-418.57 140.32,-407.19 141.89,-423 151.41,-418.57"/>
</g>
<!-- NonLinear -->
<g id="node25" class="node">
<title>NonLinear</title>
<ellipse fill="#33a02c" stroke="lightgray" stroke-width="5" cx="309" cy="-313" rx="97" ry="97"/>
<text text-anchor="middle" x="309" y="-304.5" font-family="Arial" font-size="35.00" fill="floralwhite">NonLinear</text>
</g>
<!-- Single&#45;&gt;NonLinear -->
<g id="edge36" class="edge">
<title>Single&#45;&gt;NonLinear</title>
<path fill="none" stroke="black" stroke-width="3" d="M244.44,-452.87C249.37,-442.26 254.44,-431.35 259.47,-420.53"/>
<polygon fill="black" stroke="black" stroke-width="3" points="264.11,-423 265.68,-407.19 254.59,-418.57 264.11,-423"/>
</g>
<!-- Markov -->
<g id="node32" class="node">
<title>Markov</title>
<g id="a_node32"><a xlink:href="https://en.wikipedia.org/wiki/Markov_chain" xlink:title="Markov Chain&#10;Markov 链">
<ellipse fill="#33a02c" stroke="lightgray" stroke-width="5" cx="1475" cy="-543" rx="97" ry="97"/>
<text text-anchor="middle" x="1475" y="-534.5" font-family="Arial" font-size="35.00" fill="floralwhite">Markov</text>
</a>
</g>
</g>
<!-- Probability&#45;&gt;Markov -->
<g id="edge48" class="edge">
<title>Probability&#45;&gt;Markov</title>
<path fill="none" stroke="black" stroke-width="3" d="M1619.92,-699.86C1599.33,-677.71 1576.46,-653.12 1555.09,-630.13"/>
<polygon fill="black" stroke="black" stroke-width="3" points="1559.16,-626.8 1545.1,-619.39 1551.47,-633.95 1559.16,-626.8"/>
</g>
<!-- Distribution -->
<g id="node33" class="node">
<title>Distribution</title>
<g id="a_node33"><a xlink:title="Distribution&#10;通过概率分布来进行预测.">
<ellipse fill="#33a02c" stroke="lightgray" stroke-width="5" cx="1687" cy="-543" rx="97" ry="97"/>
<text text-anchor="middle" x="1687" y="-534.5" font-family="Arial" font-size="35.00" fill="floralwhite">Distribution</text>
</a>
</g>
</g>
<!-- Probability&#45;&gt;Distribution -->
<g id="edge49" class="edge">
<title>Probability&#45;&gt;Distribution</title>
<path fill="none" stroke="black" stroke-width="3" d="M1687,-673.65C1687,-669.6 1687,-665.53 1687,-661.45"/>
<polygon fill="black" stroke="black" stroke-width="3" points="1692.25,-661.92 1687,-646.92 1681.75,-661.92 1692.25,-661.92"/>
</g>
<!-- Supervised\nLearning -->
<g id="node28" class="node">
<title>Supervised\nLearning</title>
<g id="a_node28"><a xlink:href="https://en.wikipedia.org/wiki/Supervised_learning" xlink:title="Supervised Learning&#10;监督学习&#10;根据标记过的样本来学习的方法. ">
<ellipse fill="#33a02c" stroke="lightgray" stroke-width="5" cx="4098" cy="-543" rx="97" ry="97"/>
<text text-anchor="middle" x="4098" y="-554" font-family="Arial" font-size="35.00" fill="floralwhite">Supervised</text>
<text text-anchor="middle" x="4098" y="-515" font-family="Arial" font-size="35.00" fill="floralwhite">Learning</text>
</a>
</g>
</g>
<!-- AI&#45;&gt;Supervised\nLearning -->
<g id="edge37" class="edge">
<title>AI&#45;&gt;Supervised\nLearning</title>
<path fill="none" stroke="black" stroke-width="3" d="M4082.57,-674.32C4083.1,-669.81 4083.64,-665.27 4084.18,-660.73"/>
<polygon fill="black" stroke="black" stroke-width="3" points="4089.37,-661.5 4085.92,-645.99 4078.94,-660.27 4089.37,-661.5"/>
</g>
<!-- Path -->
<g id="node29" class="node">
<title>Path</title>
<g id="a_node29"><a xlink:title="Shortest Path&#10;最短路径&#10;在图中的两点之间找到最短的路径. ">
<ellipse fill="#33a02c" stroke="lightgray" stroke-width="5" cx="627" cy="-543" rx="97" ry="97"/>
<text text-anchor="middle" x="627" y="-534.5" font-family="Arial" font-size="35.00" fill="floralwhite">Path</text>
</a>
</g>
</g>
<!-- Graph&#45;&gt;Path -->
<g id="edge44" class="edge">
<title>Graph&#45;&gt;Path</title>
<path fill="none" stroke="black" stroke-width="3" d="M771.92,-699.86C751.33,-677.71 728.46,-653.12 707.09,-630.13"/>
<polygon fill="black" stroke="black" stroke-width="3" points="711.16,-626.8 697.1,-619.39 703.47,-633.95 711.16,-626.8"/>
</g>
<!-- Tree -->
<g id="node30" class="node">
<title>Tree</title>
<g id="a_node30"><a xlink:title="Spanning Tree&#10;最小生成树&#10;在图中找到一个能够连接所有点的路径最小的树. ">
<ellipse fill="#33a02c" stroke="lightgray" stroke-width="5" cx="839" cy="-543" rx="97" ry="97"/>
<text text-anchor="middle" x="839" y="-534.5" font-family="Arial" font-size="35.00" fill="floralwhite">Tree</text>
</a>
</g>
</g>
<!-- Graph&#45;&gt;Tree -->
<g id="edge45" class="edge">
<title>Graph&#45;&gt;Tree</title>
<path fill="none" stroke="black" stroke-width="3" d="M839,-673.65C839,-669.6 839,-665.53 839,-661.45"/>
<polygon fill="black" stroke="black" stroke-width="3" points="844.25,-661.92 839,-646.92 833.75,-661.92 844.25,-661.92"/>
</g>
<!-- Dynamic\nProgramming -->
<g id="node31" class="node">
<title>Dynamic\nProgramming</title>
<g id="a_node31"><a xlink:href="https://en.wikipedia.org/wiki/Dynamic_programming" xlink:title="Dynamic Programming&#10;动态规划&#10;适用于有重叠值问题和最优子结构性质的问题, 将问题分解成子问题来处理. ">
<ellipse fill="#33a02c" stroke="lightgray" stroke-width="5" cx="1051" cy="-543" rx="97" ry="97"/>
<text text-anchor="middle" x="1051" y="-554" font-family="Arial" font-size="35.00" fill="floralwhite">Dynamic</text>
<text text-anchor="middle" x="1051" y="-515" font-family="Arial" font-size="35.00" fill="floralwhite">Programming</text>
</a>
</g>
</g>
<!-- Other\nOptimise&#45;&gt;Dynamic\nProgramming -->
<g id="edge22" class="edge">
<title>Other\nOptimise&#45;&gt;Dynamic\nProgramming</title>
<path fill="none" stroke="black" stroke-width="3" d="M1051,-673.65C1051,-669.6 1051,-665.53 1051,-661.45"/>
<polygon fill="black" stroke="black" stroke-width="3" points="1056.25,-661.92 1051,-646.92 1045.75,-661.92 1056.25,-661.92"/>
</g>
<!-- Greedy\nAlgorithm -->
<g id="node34" class="node">
<title>Greedy\nAlgorithm</title>
<g id="a_node34"><a xlink:href="https://en.wikipedia.org/wiki/Greedy_algorithm" xlink:title="Greedy Algorithm&#10;贪心算法&#10;在邻域寻找极值并移动到该位置. ">
<ellipse fill="#33a02c" stroke="lightgray" stroke-width="5" cx="1263" cy="-543" rx="97" ry="97"/>
<text text-anchor="middle" x="1263" y="-554" font-family="Arial" font-size="35.00" fill="floralwhite">Greedy</text>
<text text-anchor="middle" x="1263" y="-515" font-family="Arial" font-size="35.00" fill="floralwhite">Algorithm</text>
</a>
</g>
</g>
<!-- Other\nOptimise&#45;&gt;Greedy\nAlgorithm -->
<g id="edge23" class="edge">
<title>Other\nOptimise&#45;&gt;Greedy\nAlgorithm</title>
<path fill="none" stroke="black" stroke-width="3" d="M1118.08,-699.86C1138.67,-677.71 1161.54,-653.12 1182.91,-630.13"/>
<polygon fill="black" stroke="black" stroke-width="3" points="1186.53,-633.95 1192.9,-619.39 1178.84,-626.8 1186.53,-633.95"/>
</g>
<!-- PageRank -->
<g id="node35" class="node">
<title>PageRank</title>
<g id="a_node35"><a xlink:href="https://en.wikipedia.org/wiki/PageRank" xlink:title="PageRank&#10;PageRank 排序算法&#10;通过连接关系来进行排序. ">
<ellipse fill="#33a02c" stroke="lightgray" stroke-width="5" cx="3038" cy="-543" rx="97" ry="97"/>
<text text-anchor="middle" x="3038" y="-534.5" font-family="Arial" font-size="35.00" fill="floralwhite">PageRank</text>
</a>
</g>
</g>
<!-- Ranking&#45;&gt;PageRank -->
<g id="edge38" class="edge">
<title>Ranking&#45;&gt;PageRank</title>
<path fill="none" stroke="black" stroke-width="3" d="M3204.91,-703.9C3179.14,-679.21 3149.76,-651.06 3122.91,-625.34"/>
<polygon fill="black" stroke="black" stroke-width="3" points="3126.87,-621.87 3112.41,-615.28 3119.61,-629.45 3126.87,-621.87"/>
</g>
<!-- FCE -->
<g id="node36" class="node">
<title>FCE</title>
<g id="a_node36"><a xlink:href="https://www.researchgate.net/publication/311993264_Using_a_fuzzy_comprehensive_evaluation_method_to_determine_product_usability_A_proposed_theoretical_framework" xlink:title="FCE (Fuzzy Comprehensive Evaluation)&#10;模糊综合评价法&#10;建立在模糊数学上的一个东西, 适用于对问题给出一个评判标准. ">
<ellipse fill="#33a02c" stroke="lightgray" stroke-width="5" cx="3250" cy="-543" rx="97" ry="97"/>
<text text-anchor="middle" x="3250" y="-534.5" font-family="Arial" font-size="35.00" fill="floralwhite">FCE</text>
</a>
</g>
</g>
<!-- Ranking&#45;&gt;FCE -->
<g id="edge39" class="edge">
<title>Ranking&#45;&gt;FCE</title>
<path fill="none" stroke="black" stroke-width="3" d="M3264.86,-674.32C3264.36,-669.95 3263.86,-665.54 3263.36,-661.13"/>
<polygon fill="black" stroke="black" stroke-width="3" points="3268.59,-660.66 3261.67,-646.36 3258.16,-661.85 3268.59,-660.66"/>
</g>
<!-- Basic -->
<g id="node37" class="node">
<title>Basic</title>
<g id="a_node37"><a xlink:title="+ 通过 EWM 来计算样本特征的权值, 适用于无层次结构的问题. &#10;+ AHP 适用于在没有明确解决问题思路的问题中化简并分析问题. &#10;+ TOPSIS 在了解权重之后可以作为一个判断元素优劣的一个依据. ">
<polygon fill="#33a02c" stroke="lightgray" stroke-width="5" points="3559,-633 3365,-633 3365,-453 3559,-453 3559,-633"/>
<text text-anchor="middle" x="3462" y="-534.5" font-family="Arial" font-size="35.00" fill="floralwhite">Basic</text>
</a>
</g>
</g>
<!-- Ranking&#45;&gt;Basic -->
<g id="edge40" class="edge">
<title>Ranking&#45;&gt;Basic</title>
<path fill="none" stroke="black" stroke-width="3" d="M3338.19,-695.76C3350.2,-681.05 3362.98,-665.39 3375.59,-649.92"/>
<polygon fill="black" stroke="black" stroke-width="3" points="3379.32,-653.66 3384.73,-638.71 3371.18,-647.02 3379.32,-653.66"/>
</g>
<!-- Relation -->
<g id="node26" class="node">
<title>Relation</title>
<g id="a_node26"><a xlink:title="Correlation Analysis&#10;相关性分析&#10;可以用于对数据进行分类">
<ellipse fill="#33a02c" stroke="lightgray" stroke-width="5" cx="3674" cy="-543" rx="97" ry="97"/>
<text text-anchor="middle" x="3674" y="-554" font-family="Arial" font-size="35.00" fill="floralwhite">Correlation</text>
<text text-anchor="middle" x="3674" y="-515" font-family="Arial" font-size="35.00" fill="floralwhite">Analysis</text>
</a>
</g>
</g>
<!-- Classify&#45;&gt;Relation -->
<g id="edge24" class="edge">
<title>Classify&#45;&gt;Relation</title>
<path fill="none" stroke="black" stroke-width="3" d="M3626.54,-679.26C3629.35,-671.25 3632.22,-663.09 3635.07,-654.95"/>
<polygon fill="black" stroke="black" stroke-width="3" points="3639.97,-656.83 3639.99,-640.94 3630.07,-653.35 3639.97,-656.83"/>
</g>
<!-- PCA -->
<g id="node27" class="node">
<title>PCA</title>
<g id="a_node27"><a xlink:href="https://en.wikipedia.org/wiki/Principal_component_analysis" xlink:title="PCA (Principal Component Analysis)&#10;主成分分析法&#10;减少维数来集中数据从而找到主要的影响因素. ">
<ellipse fill="#33a02c" stroke="lightgray" stroke-width="5" cx="3886" cy="-543" rx="97" ry="97"/>
<text text-anchor="middle" x="3886" y="-534.5" font-family="Arial" font-size="35.00" fill="floralwhite">PCA</text>
</a>
</g>
</g>
<!-- Classify&#45;&gt;PCA -->
<g id="edge25" class="edge">
<title>Classify&#45;&gt;PCA</title>
<path fill="none" stroke="black" stroke-width="3" d="M3664.22,-702.95C3675.71,-693.28 3687.85,-683.95 3700,-676 3732.63,-654.65 3747.37,-661.35 3780,-640 3786.93,-635.46 3793.86,-630.48 3800.66,-625.24"/>
<polygon fill="black" stroke="black" stroke-width="3" points="3803.86,-629.4 3812.24,-615.9 3797.27,-621.23 3803.86,-629.4"/>
</g>
<!-- ARIMA -->
<g id="node23" class="node">
<title>ARIMA</title>
<g id="a_node23"><a xlink:href="https://en.wikipedia.org/wiki/Autoregressive_integrated_moving_average" xlink:title="AR (AutoRegression)&#10;自回归模型&#10;描述的是当前值和历史值的关系. ">
<ellipse fill="#33a02c" stroke="lightgray" stroke-width="5" cx="1899" cy="-543" rx="97" ry="97"/>
<text text-anchor="middle" x="1899" y="-534.5" font-family="Arial" font-size="35.00" fill="floralwhite">ARIMA</text>
</a>
</g>
</g>
<!-- Regression&#45;&gt;ARIMA -->
<g id="edge26" class="edge">
<title>Regression&#45;&gt;ARIMA</title>
<path fill="none" stroke="black" stroke-width="3" d="M2043.92,-699.86C2023.33,-677.71 2000.46,-653.12 1979.09,-630.13"/>
<polygon fill="black" stroke="black" stroke-width="3" points="1983.16,-626.8 1969.1,-619.39 1975.47,-633.95 1983.16,-626.8"/>
</g>
<!-- baseRegression -->
<g id="node38" class="node">
<title>baseRegression</title>
<g id="a_node38"><a xlink:title="和回归模型有关的知识点: &#10;+ 独立变量的数量&#10;+ 回归线的形状&#10;+ 度量变量的类型">
<polygon fill="#33a02c" stroke="lightgray" stroke-width="5" points="2668,-633 2474,-633 2474,-453 2668,-453 2668,-633"/>
<text text-anchor="middle" x="2571" y="-534.5" font-family="Arial" font-size="35.00" fill="floralwhite">Basic</text>
</a>
</g>
</g>
<!-- Regression&#45;&gt;baseRegression -->
<g id="edge27" class="edge">
<title>Regression&#45;&gt;baseRegression</title>
<path fill="none" stroke="black" stroke-width="3" d="M2199.69,-728.04C2272.3,-692.05 2375.57,-640.86 2454.78,-601.6"/>
<polygon fill="black" stroke="black" stroke-width="3" points="2456.63,-606.55 2467.74,-595.18 2451.97,-597.14 2456.63,-606.55"/>
</g>
<!-- AR -->
<g id="node46" class="node">
<title>AR</title>
<g id="a_node46"><a xlink:href="https://en.wikipedia.org/wiki/Autoregressive_model" xlink:title="AR (Autoregressive Model)&#10;自回归模型&#10;当前值和历史值的关系. ">
<ellipse fill="#fb9a99" stroke="lightgray" stroke-width="5" cx="1482" cy="-313" rx="90" ry="90"/>
<text text-anchor="middle" x="1482" y="-304.3" font-family="Arial" font-size="34.00" fill="floralwhite">AR</text>
</a>
</g>
</g>
<!-- ARIMA&#45;&gt;AR -->
<g id="edge53" class="edge">
<title>ARIMA&#45;&gt;AR</title>
<path fill="none" stroke="black" stroke-width="3" d="M1831,-470.55C1819.13,-461.09 1806.29,-452.45 1793,-446 1707.03,-404.25 1666.25,-453.21 1581,-410 1572.82,-405.85 1564.87,-400.8 1557.27,-395.2"/>
<polygon fill="black" stroke="black" stroke-width="3" points="1560.71,-391.23 1545.73,-385.92 1554.12,-399.41 1560.71,-391.23"/>
</g>
<!-- MA -->
<g id="node47" class="node">
<title>MA</title>
<g id="a_node47"><a xlink:href="https://en.wikipedia.org/wiki/Moving-average_model" xlink:title="MA (Moving&#45;Average Model)&#10;移动平均模型&#10;单一变量时间序列建模. ">
<ellipse fill="#fb9a99" stroke="lightgray" stroke-width="5" cx="1680" cy="-313" rx="90" ry="90"/>
<text text-anchor="middle" x="1680" y="-304.3" font-family="Arial" font-size="34.00" fill="floralwhite">MA</text>
</a>
</g>
</g>
<!-- ARIMA&#45;&gt;MA -->
<g id="edge54" class="edge">
<title>ARIMA&#45;&gt;MA</title>
<path fill="none" stroke="black" stroke-width="3" d="M1830.61,-470.8C1807.21,-446.44 1780.88,-419.03 1756.86,-394.02"/>
<polygon fill="black" stroke="black" stroke-width="3" points="1760.73,-390.46 1746.55,-383.28 1753.15,-397.74 1760.73,-390.46"/>
</g>
<!-- Granger\nCausality\nTest -->
<g id="node48" class="node">
<title>Granger\nCausality\nTest</title>
<g id="a_node48"><a xlink:href="https://en.wikipedia.org/wiki/Granger_causality" xlink:title="Granger Causality Test&#10;Granger 因果关系检验&#10;可以用来检测两组时间序列之间是否存在因果关系. ">
<ellipse fill="#fb9a99" stroke="lightgray" stroke-width="5" cx="1878" cy="-313" rx="90" ry="90"/>
<text text-anchor="middle" x="1878" y="-341.3" font-family="Arial" font-size="34.00" fill="floralwhite">Granger</text>
<text text-anchor="middle" x="1878" y="-304.3" font-family="Arial" font-size="34.00" fill="floralwhite">Causality</text>
<text text-anchor="middle" x="1878" y="-267.3" font-family="Arial" font-size="34.00" fill="floralwhite">Test</text>
</a>
</g>
</g>
<!-- ARIMA&#45;&gt;Granger\nCausality\nTest -->
<g id="edge55" class="edge">
<title>ARIMA&#45;&gt;Granger\nCausality\nTest</title>
<path fill="none" stroke="black" stroke-width="3" d="M1889.97,-443.98C1889.38,-437.53 1888.78,-431 1888.18,-424.49"/>
<polygon fill="black" stroke="black" stroke-width="3" points="1893.41,-424.06 1886.81,-409.61 1882.95,-425.02 1893.41,-424.06"/>
</g>
<!-- Decision\nTree -->
<g id="node49" class="node">
<title>Decision\nTree</title>
<g id="a_node49"><a xlink:href="https://en.wikipedia.org/wiki/Decision_tree" xlink:title="Decision Tree&#10;决策树&#10;用层次树状结构为决策问题帮助选择最佳选项. ">
<ellipse fill="#fb9a99" stroke="lightgray" stroke-width="5" cx="4077" cy="-313" rx="90" ry="90"/>
<text text-anchor="middle" x="4077" y="-322.8" font-family="Arial" font-size="34.00" fill="floralwhite">Decision</text>
<text text-anchor="middle" x="4077" y="-285.8" font-family="Arial" font-size="34.00" fill="floralwhite">Tree</text>
</a>
</g>
</g>
<!-- Supervised\nLearning&#45;&gt;Decision\nTree -->
<g id="edge46" class="edge">
<title>Supervised\nLearning&#45;&gt;Decision\nTree</title>
<path fill="none" stroke="black" stroke-width="3" d="M4088.97,-443.98C4088.38,-437.53 4087.78,-431 4087.18,-424.49"/>
<polygon fill="black" stroke="black" stroke-width="3" points="4092.41,-424.06 4085.81,-409.61 4081.95,-425.02 4092.41,-424.06"/>
</g>
<!-- Factor\nAnalysis -->
<g id="node50" class="node">
<title>Factor\nAnalysis</title>
<g id="a_node50"><a xlink:href="https://en.wikipedia.org/wiki/Factor_analysis" xlink:title="Factor Analysis&#10;因子分析&#10;用少数因素来解释一群相关联的因素. ">
<ellipse fill="#fb9a99" stroke="lightgray" stroke-width="5" cx="4275" cy="-313" rx="90" ry="90"/>
<text text-anchor="middle" x="4275" y="-322.8" font-family="Arial" font-size="34.00" fill="floralwhite">Factor</text>
<text text-anchor="middle" x="4275" y="-285.8" font-family="Arial" font-size="34.00" fill="floralwhite">Analysis</text>
</a>
</g>
</g>
<!-- Supervised\nLearning&#45;&gt;Factor\nAnalysis -->
<g id="edge47" class="edge">
<title>Supervised\nLearning&#45;&gt;Factor\nAnalysis</title>
<path fill="none" stroke="black" stroke-width="3" d="M4158.42,-464.17C4174.14,-443.93 4191.17,-421.98 4207.24,-401.28"/>
<polygon fill="black" stroke="black" stroke-width="3" points="4211.19,-404.76 4216.24,-389.69 4202.89,-398.32 4211.19,-404.76"/>
</g>
<!-- ACO -->
<g id="node52" class="node">
<title>ACO</title>
<g id="a_node52"><a xlink:href="https://en.wikipedia.org/wiki/Ant_colony_optimization_algorithms" xlink:title="ACO (Ant Colony Optimization)&#10;蚁群算法&#10;用于计算最小生成树, 使用概率的方式. ">
<ellipse fill="#fb9a99" stroke="lightgray" stroke-width="5" cx="839" cy="-313" rx="90" ry="90"/>
<text text-anchor="middle" x="839" y="-304.3" font-family="Arial" font-size="34.00" fill="floralwhite">ACO</text>
</a>
</g>
</g>
<!-- Tree&#45;&gt;ACO -->
<g id="edge52" class="edge">
<title>Tree&#45;&gt;ACO</title>
<path fill="none" stroke="black" stroke-width="3" d="M839,-443.65C839,-437.37 839,-431.01 839,-424.67"/>
<polygon fill="black" stroke="black" stroke-width="3" points="844.25,-424.72 839,-409.72 833.75,-424.72 844.25,-424.72"/>
</g>
<!-- Simulated\nAnnealing -->
<g id="node51" class="node">
<title>Simulated\nAnnealing</title>
<g id="a_node51"><a xlink:href="https://en.wikipedia.org/wiki/Simulated_annealing" xlink:title="Simulated Annealing&#10;模拟退火&#10;在贪心算法的基础上加入随机转移领域的几率, 随着时间变化转移几率逐渐减少. ">
<ellipse fill="#fb9a99" stroke="lightgray" stroke-width="5" cx="1263" cy="-313" rx="90" ry="90"/>
<text text-anchor="middle" x="1263" y="-322.8" font-family="Arial" font-size="34.00" fill="floralwhite">Simulated</text>
<text text-anchor="middle" x="1263" y="-285.8" font-family="Arial" font-size="34.00" fill="floralwhite">Annealing</text>
</a>
</g>
</g>
<!-- Greedy\nAlgorithm&#45;&gt;Simulated\nAnnealing -->
<g id="edge51" class="edge">
<title>Greedy\nAlgorithm&#45;&gt;Simulated\nAnnealing</title>
<path fill="none" stroke="black" stroke-width="3" d="M1263,-443.65C1263,-437.37 1263,-431.01 1263,-424.67"/>
<polygon fill="black" stroke="black" stroke-width="3" points="1268.25,-424.72 1263,-409.72 1257.75,-424.72 1268.25,-424.72"/>
</g>
<!-- AHP -->
<g id="node53" class="node">
<title>AHP</title>
<g id="a_node53"><a xlink:href="https://en.wikipedia.org/wiki/Analytic_hierarchy_process" xlink:title="AHP (Analytic Hierarchy Process)&#10;层次分析法&#10;在选择时引入量化指标来判断最终结果. ">
<ellipse fill="#fb9a99" stroke="lightgray" stroke-width="5" cx="3462" cy="-313" rx="90" ry="90"/>
<text text-anchor="middle" x="3462" y="-304.3" font-family="Arial" font-size="34.00" fill="floralwhite">AHP</text>
</a>
</g>
</g>
<!-- Basic&#45;&gt;AHP -->
<g id="edge41" class="edge">
<title>Basic&#45;&gt;AHP</title>
<path fill="none" stroke="black" stroke-width="3" d="M3462,-450.58C3462,-442.1 3462,-433.45 3462,-424.82"/>
<polygon fill="black" stroke="black" stroke-width="3" points="3467.25,-424.98 3462,-409.98 3456.75,-424.98 3467.25,-424.98"/>
</g>
<!-- TOPSIS -->
<g id="node54" class="node">
<title>TOPSIS</title>
<g id="a_node54"><a xlink:href="https://en.wikipedia.org/wiki/TOPSIS" xlink:title="TOPSIS&#10;优劣解距离法&#10;计算正负理想解, 以元素在特征空间距离正负理想解的距离来判断优劣. ">
<ellipse fill="#fb9a99" stroke="lightgray" stroke-width="5" cx="3660" cy="-313" rx="90" ry="90"/>
<text text-anchor="middle" x="3660" y="-304.3" font-family="Arial" font-size="34.00" fill="floralwhite">TOPSIS</text>
</a>
</g>
</g>
<!-- Basic&#45;&gt;TOPSIS -->
<g id="edge42" class="edge">
<title>Basic&#45;&gt;TOPSIS</title>
<path fill="none" stroke="black" stroke-width="3" d="M3541.39,-450.58C3556.61,-433.05 3572.48,-414.78 3587.47,-397.52"/>
<polygon fill="black" stroke="black" stroke-width="3" points="3591.25,-401.17 3597.13,-386.4 3583.33,-394.28 3591.25,-401.17"/>
</g>
<!-- EWM -->
<g id="node55" class="node">
<title>EWM</title>
<g id="a_node55"><a xlink:href="https://www.hindawi.com/journals/mpe/2020/3564835/" xlink:title="EWM (Entropy Weight Method)&#10;熵权法&#10;计算特征量的熵作为特征值对整体的影响强弱. ">
<ellipse fill="#fb9a99" stroke="lightgray" stroke-width="5" cx="3858" cy="-313" rx="90" ry="90"/>
<text text-anchor="middle" x="3858" y="-304.3" font-family="Arial" font-size="34.00" fill="floralwhite">EWM</text>
</a>
</g>
</g>
<!-- Basic&#45;&gt;EWM -->
<g id="edge43" class="edge">
<title>Basic&#45;&gt;EWM</title>
<path fill="none" stroke="black" stroke-width="3" d="M3559.39,-450.6C3562.24,-448.97 3565.11,-447.44 3568,-446 3645.36,-407.56 3682.3,-449.75 3759,-410 3767.14,-405.78 3775.06,-400.68 3782.64,-395.04"/>
<polygon fill="black" stroke="black" stroke-width="3" points="3785.81,-399.23 3794.17,-385.72 3779.21,-391.07 3785.81,-399.23"/>
</g>
<!-- Linear\nRegression -->
<g id="node39" class="node">
<title>Linear\nRegression</title>
<g id="a_node39"><a xlink:title="Linear Regression&#10;线性回归&#10;在 Mathematica 中使用 LinearModelFit 进行线性回归. ">
<ellipse fill="#fb9a99" stroke="lightgray" stroke-width="5" cx="2076" cy="-313" rx="90" ry="90"/>
<text text-anchor="middle" x="2076" y="-322.8" font-family="Arial" font-size="34.00" fill="floralwhite">Linear</text>
<text text-anchor="middle" x="2076" y="-285.8" font-family="Arial" font-size="34.00" fill="floralwhite">Regression</text>
</a>
</g>
</g>
<!-- baseRegression&#45;&gt;Linear\nRegression -->
<g id="edge28" class="edge">
<title>baseRegression&#45;&gt;Linear\nRegression</title>
<path fill="none" stroke="black" stroke-width="3" d="M2471.75,-521.97C2388.29,-502.17 2268.06,-466.53 2175,-410 2167.39,-405.38 2159.9,-400.07 2152.65,-394.37"/>
<polygon fill="black" stroke="black" stroke-width="3" points="2156.05,-390.37 2141.18,-384.74 2149.29,-398.41 2156.05,-390.37"/>
</g>
<!-- Logistics\nRegression -->
<g id="node40" class="node">
<title>Logistics\nRegression</title>
<g id="a_node40"><a xlink:title="Logistics Regression&#10;逻辑回归&#10;主要用于二元分类问题, 在 Mathematica 中使用 LogitModelFit 进行逻辑回归. ">
<ellipse fill="#fb9a99" stroke="lightgray" stroke-width="5" cx="2274" cy="-313" rx="90" ry="90"/>
<text text-anchor="middle" x="2274" y="-322.8" font-family="Arial" font-size="34.00" fill="floralwhite">Logistics</text>
<text text-anchor="middle" x="2274" y="-285.8" font-family="Arial" font-size="34.00" fill="floralwhite">Regression</text>
</a>
</g>
</g>
<!-- baseRegression&#45;&gt;Logistics\nRegression -->
<g id="edge29" class="edge">
<title>baseRegression&#45;&gt;Logistics\nRegression</title>
<path fill="none" stroke="black" stroke-width="3" d="M2471.56,-480.79C2439.24,-459.57 2403.78,-434.84 2373,-410 2366.18,-404.49 2359.28,-398.6 2352.47,-392.54"/>
<polygon fill="black" stroke="black" stroke-width="3" points="2356.19,-388.82 2341.57,-382.58 2349.11,-396.58 2356.19,-388.82"/>
</g>
<!-- Polynomial\nRegression -->
<g id="node41" class="node">
<title>Polynomial\nRegression</title>
<g id="a_node41"><a xlink:title="Polynomial Regression&#10;多项式回归&#10;使用多项式进行拟合函数, 但是要防止因为使用的多项式阶数过高而造成过拟合. ">
<ellipse fill="#fb9a99" stroke="lightgray" stroke-width="5" cx="2472" cy="-313" rx="90" ry="90"/>
<text text-anchor="middle" x="2472" y="-322.8" font-family="Arial" font-size="34.00" fill="floralwhite">Polynomial</text>
<text text-anchor="middle" x="2472" y="-285.8" font-family="Arial" font-size="34.00" fill="floralwhite">Regression</text>
</a>
</g>
</g>
<!-- baseRegression&#45;&gt;Polynomial\nRegression -->
<g id="edge30" class="edge">
<title>baseRegression&#45;&gt;Polynomial\nRegression</title>
<path fill="none" stroke="black" stroke-width="3" d="M2531.3,-450.58C2526.27,-438.98 2521.09,-427.05 2515.99,-415.31"/>
<polygon fill="black" stroke="black" stroke-width="3" points="2520.94,-413.53 2510.15,-401.86 2511.31,-417.71 2520.94,-413.53"/>
</g>
<!-- Stepwise\nRegression -->
<g id="node42" class="node">
<title>Stepwise\nRegression</title>
<g id="a_node42"><a xlink:title="Stepwise Regression&#10;逐步回归&#10;适用于多个独立变量的问题. ">
<ellipse fill="#fb9a99" stroke="lightgray" stroke-width="5" cx="2670" cy="-313" rx="90" ry="90"/>
<text text-anchor="middle" x="2670" y="-322.8" font-family="Arial" font-size="34.00" fill="floralwhite">Stepwise</text>
<text text-anchor="middle" x="2670" y="-285.8" font-family="Arial" font-size="34.00" fill="floralwhite">Regression</text>
</a>
</g>
</g>
<!-- baseRegression&#45;&gt;Stepwise\nRegression -->
<g id="edge31" class="edge">
<title>baseRegression&#45;&gt;Stepwise\nRegression</title>
<path fill="none" stroke="black" stroke-width="3" d="M2610.7,-450.58C2615.73,-438.98 2620.91,-427.05 2626.01,-415.31"/>
<polygon fill="black" stroke="black" stroke-width="3" points="2630.69,-417.71 2631.85,-401.86 2621.06,-413.53 2630.69,-417.71"/>
</g>
<!-- Ridge\nRegression -->
<g id="node43" class="node">
<title>Ridge\nRegression</title>
<g id="a_node43"><a xlink:title="Ridge Regression&#10;岭回归&#10;适用于共线性数据分析的方法, 类似于改良的最小二乘法. ">
<ellipse fill="#fb9a99" stroke="lightgray" stroke-width="5" cx="2868" cy="-313" rx="90" ry="90"/>
<text text-anchor="middle" x="2868" y="-322.8" font-family="Arial" font-size="34.00" fill="floralwhite">Ridge</text>
<text text-anchor="middle" x="2868" y="-285.8" font-family="Arial" font-size="34.00" fill="floralwhite">Regression</text>
</a>
</g>
</g>
<!-- baseRegression&#45;&gt;Ridge\nRegression -->
<g id="edge32" class="edge">
<title>baseRegression&#45;&gt;Ridge\nRegression</title>
<path fill="none" stroke="black" stroke-width="3" d="M2670.44,-480.79C2702.76,-459.57 2738.22,-434.84 2769,-410 2775.82,-404.49 2782.72,-398.6 2789.53,-392.54"/>
<polygon fill="black" stroke="black" stroke-width="3" points="2792.89,-396.58 2800.43,-382.58 2785.81,-388.82 2792.89,-396.58"/>
</g>
<!-- Lasso\nRegression -->
<g id="node44" class="node">
<title>Lasso\nRegression</title>
<g id="a_node44"><a xlink:title="Lasso Regression&#10;套索回归&#10;在 Mathematica 中的 Fit 和 FindFit 中有 LASSO, Ridge Regression 的支持. ">
<ellipse fill="#fb9a99" stroke="lightgray" stroke-width="5" cx="3066" cy="-313" rx="90" ry="90"/>
<text text-anchor="middle" x="3066" y="-322.8" font-family="Arial" font-size="34.00" fill="floralwhite">Lasso</text>
<text text-anchor="middle" x="3066" y="-285.8" font-family="Arial" font-size="34.00" fill="floralwhite">Regression</text>
</a>
</g>
</g>
<!-- baseRegression&#45;&gt;Lasso\nRegression -->
<g id="edge33" class="edge">
<title>baseRegression&#45;&gt;Lasso\nRegression</title>
<path fill="none" stroke="black" stroke-width="3" d="M2670.25,-521.97C2753.71,-502.17 2873.94,-466.53 2967,-410 2974.61,-405.38 2982.1,-400.07 2989.35,-394.37"/>
<polygon fill="black" stroke="black" stroke-width="3" points="2992.71,-398.41 3000.82,-384.74 2985.95,-390.37 2992.71,-398.41"/>
</g>
<!-- ElasictNet\nRegression -->
<g id="node45" class="node">
<title>ElasictNet\nRegression</title>
<g id="a_node45"><a xlink:title="ElasticNet Regression&#10;弹性回归">
<ellipse fill="#fb9a99" stroke="lightgray" stroke-width="5" cx="3264" cy="-313" rx="90" ry="90"/>
<text text-anchor="middle" x="3264" y="-322.8" font-family="Arial" font-size="34.00" fill="floralwhite">ElasictNet</text>
<text text-anchor="middle" x="3264" y="-285.8" font-family="Arial" font-size="34.00" fill="floralwhite">Regression</text>
</a>
</g>
</g>
<!-- baseRegression&#45;&gt;ElasictNet\nRegression -->
<g id="edge34" class="edge">
<title>baseRegression&#45;&gt;ElasictNet\nRegression</title>
<path fill="none" stroke="black" stroke-width="3" d="M2670.3,-512.53C2742.44,-491.88 2842.66,-464.72 2932,-446 3034.56,-424.5 3071.18,-456.67 3165,-410 3173.21,-405.92 3181.18,-400.91 3188.79,-395.34"/>
<polygon fill="black" stroke="black" stroke-width="3" points="3191.93,-399.55 3200.35,-386.08 3185.36,-391.36 3191.93,-399.55"/>
</g>
<!-- Random\nForest -->
<g id="node56" class="node">
<title>Random\nForest</title>
<g id="a_node56"><a xlink:href="https://en.wikipedia.org/wiki/Random_forest" xlink:title="Random Forest&#10;随机森林&#10;整一堆决策树, 然后将其输出整合作为参考. ">
<ellipse fill="#e31a1c" stroke="lightgray" stroke-width="5" cx="4077" cy="-90" rx="90" ry="90"/>
<text text-anchor="middle" x="4077" y="-99.4" font-family="Arial" font-size="32.00" fill="floralwhite">Random</text>
<text text-anchor="middle" x="4077" y="-64.4" font-family="Arial" font-size="32.00" fill="floralwhite">Forest</text>
</a>
</g>
</g>
<!-- Decision\nTree&#45;&gt;Random\nForest -->
<g id="edge50" class="edge">
<title>Decision\nTree&#45;&gt;Random\nForest</title>
<path fill="none" stroke="black" stroke-width="3" d="M4077,-220.52C4077,-214.32 4077,-208.04 4077,-201.76"/>
<polygon fill="black" stroke="black" stroke-width="3" points="4082.25,-201.96 4077,-186.96 4071.75,-201.96 4082.25,-201.96"/>
</g>
</g>
</svg>
