<?xml version="1.0" encoding="UTF-8" standalone="no"?>
<!DOCTYPE svg PUBLIC "-//W3C//DTD SVG 1.1//EN"
 "http://www.w3.org/Graphics/SVG/1.1/DTD/svg11.dtd">
<!-- Generated by graphviz version 7.1.0 (20230121.1956)
 -->
<!-- Title: M Pages: 1 -->
<svg width="435pt" height="213pt"
 viewBox="0.00 0.00 434.59 213.00" xmlns="http://www.w3.org/2000/svg" xmlns:xlink="http://www.w3.org/1999/xlink">
<g id="graph0" class="graph" transform="scale(1 1) rotate(0) translate(4 209)">
<title>M</title>
<polygon fill="white" stroke="none" points="-4,4 -4,-209 430.59,-209 430.59,4 -4,4"/>
<g id="clust1" class="cluster">
<title>cluster_Output</title>
<polygon fill="none" stroke="black" stroke-dasharray="5,2" points="123,-56 123,-147 418.59,-147 418.59,-56 123,-56"/>
<text text-anchor="middle" x="270.79" y="-131.8" font-family="Times,serif" font-size="14.00">Output</text>
</g>
<g id="clust2" class="cluster">
<title>cluster_Input</title>
<polygon fill="none" stroke="black" stroke-dasharray="5,2" points="8,-8 8,-197 63,-197 63,-8 8,-8"/>
<text text-anchor="middle" x="35.5" y="-181.8" font-family="Times,serif" font-size="14.00">Input</text>
</g>
<!-- output -->
<g id="node1" class="node">
<title>output</title>
<ellipse fill="black" stroke="black" cx="408.79" cy="-90" rx="1.8" ry="1.8"/>
</g>
<!-- sum -->
<g id="node2" class="node">
<title>sum</title>
<ellipse fill="none" stroke="black" cx="156.99" cy="-90" rx="26" ry="26"/>
<text text-anchor="middle" x="156.99" y="-86.3" font-family="Times,serif" font-size="14.00">sum</text>
</g>
<!-- f -->
<g id="node3" class="node">
<title>f</title>
<ellipse fill="none" stroke="black" cx="345.99" cy="-90" rx="18" ry="18"/>
<text text-anchor="middle" x="345.99" y="-86.3" font-family="Times,serif" font-size="14.00">f</text>
</g>
<!-- sum&#45;&gt;f -->
<g id="edge1" class="edge">
<title>sum&#45;&gt;f</title>
<path fill="none" stroke="black" d="M183.21,-90C217.88,-90 280.07,-90 316.41,-90"/>
<polygon fill="black" stroke="black" points="316.16,-93.5 326.16,-90 316.16,-86.5 316.16,-93.5"/>
<text text-anchor="middle" x="255.49" y="-93.8" font-family="Times,serif" font-size="14.00">t = sum(wi * xi) &#45; b</text>
</g>
<!-- f&#45;&gt;output -->
<g id="edge2" class="edge">
<title>f&#45;&gt;output</title>
<path fill="none" stroke="black" d="M364.25,-90C374.21,-90 386.49,-90 395.46,-90"/>
<polygon fill="black" stroke="black" points="395.14,-93.5 405.14,-90 395.14,-86.5 395.14,-93.5"/>
<text text-anchor="middle" x="385.49" y="-93.8" font-family="Times,serif" font-size="14.00">y</text>
</g>
<!-- x1 -->
<g id="node4" class="node">
<title>x1</title>
<ellipse fill="none" stroke="black" cx="35.5" cy="-147" rx="19.5" ry="19.5"/>
<text text-anchor="middle" x="35.5" y="-143.3" font-family="Times,serif" font-size="14.00">x1</text>
</g>
<!-- x1&#45;&gt;sum -->
<g id="edge3" class="edge">
<title>x1&#45;&gt;sum</title>
<path fill="none" stroke="black" d="M53.62,-138.83C71.67,-130.22 100.55,-116.45 123.04,-105.72"/>
<polygon fill="black" stroke="black" points="124.29,-109 131.81,-101.53 121.28,-102.68 124.29,-109"/>
<text text-anchor="middle" x="93" y="-131.8" font-family="Times,serif" font-size="14.00">w1</text>
</g>
<!-- x2 -->
<g id="node5" class="node">
<title>x2</title>
<ellipse fill="none" stroke="black" cx="35.5" cy="-90" rx="19.5" ry="19.5"/>
<text text-anchor="middle" x="35.5" y="-86.3" font-family="Times,serif" font-size="14.00">x2</text>
</g>
<!-- x2&#45;&gt;sum -->
<g id="edge4" class="edge">
<title>x2&#45;&gt;sum</title>
<path fill="none" stroke="black" d="M55.43,-90C72.57,-90 98.28,-90 119.41,-90"/>
<polygon fill="black" stroke="black" points="119.4,-93.5 129.4,-90 119.4,-86.5 119.4,-93.5"/>
<text text-anchor="middle" x="93" y="-93.8" font-family="Times,serif" font-size="14.00">w2</text>
</g>
<!-- &#45;1 -->
<g id="node6" class="node">
<title>&#45;1</title>
<ellipse fill="none" stroke="black" cx="35.5" cy="-34" rx="18.4" ry="18.4"/>
<text text-anchor="middle" x="35.5" y="-30.3" font-family="Times,serif" font-size="14.00">&#45;1</text>
</g>
<!-- &#45;1&#45;&gt;sum -->
<g id="edge5" class="edge">
<title>&#45;1&#45;&gt;sum</title>
<path fill="none" stroke="black" d="M52.61,-41.55C70.54,-49.95 100,-63.76 122.89,-74.49"/>
<polygon fill="black" stroke="black" points="121.29,-77.6 131.83,-78.68 124.26,-71.26 121.29,-77.6"/>
<text text-anchor="middle" x="93" y="-71.8" font-family="Times,serif" font-size="14.00">w3 = b</text>
</g>
</g>
</svg>
