<?xml version="1.0" encoding="UTF-8" standalone="no"?>
<!DOCTYPE svg PUBLIC "-//W3C//DTD SVG 1.1//EN"
 "http://www.w3.org/Graphics/SVG/1.1/DTD/svg11.dtd">
<!-- Generated by graphviz version 7.1.0 (20230121.1956)
 -->
<!-- Title: M Pages: 1 -->
<svg width="215pt" height="158pt"
 viewBox="0.00 0.00 214.60 158.00" xmlns="http://www.w3.org/2000/svg" xmlns:xlink="http://www.w3.org/1999/xlink">
<g id="graph0" class="graph" transform="scale(1 1) rotate(0) translate(4 154)">
<title>M</title>
<polygon fill="white" stroke="none" points="-4,4 -4,-154 210.6,-154 210.6,4 -4,4"/>
<g id="clust1" class="cluster">
<title>cluster_Output</title>
<polygon fill="none" stroke="black" stroke-dasharray="5,2" points="100,-40 100,-115 198.6,-115 198.6,-40 100,-40"/>
<text text-anchor="middle" x="149.3" y="-99.8" font-family="Times,serif" font-size="14.00">Output</text>
</g>
<g id="clust2" class="cluster">
<title>cluster_Input</title>
<polygon fill="none" stroke="black" stroke-dasharray="5,2" points="8,-8 8,-142 63,-142 63,-8 8,-8"/>
<text text-anchor="middle" x="35.5" y="-126.8" font-family="Times,serif" font-size="14.00">Input</text>
</g>
<!-- output -->
<g id="node1" class="node">
<title>output</title>
<ellipse fill="black" stroke="black" cx="188.8" cy="-66" rx="1.8" ry="1.8"/>
</g>
<!-- f -->
<g id="node2" class="node">
<title>f</title>
<ellipse fill="none" stroke="black" cx="126" cy="-66" rx="18" ry="18"/>
<text text-anchor="middle" x="126" y="-62.3" font-family="Times,serif" font-size="14.00">f</text>
</g>
<!-- f&#45;&gt;output -->
<g id="edge1" class="edge">
<title>f&#45;&gt;output</title>
<path fill="none" stroke="black" d="M144.26,-66C154.21,-66 166.49,-66 175.47,-66"/>
<polygon fill="black" stroke="black" points="175.15,-69.5 185.15,-66 175.15,-62.5 175.15,-69.5"/>
<text text-anchor="middle" x="165.5" y="-69.8" font-family="Times,serif" font-size="14.00">y</text>
</g>
<!-- x1 -->
<g id="node3" class="node">
<title>x1</title>
<ellipse fill="none" stroke="black" cx="35.5" cy="-92" rx="19.5" ry="19.5"/>
<text text-anchor="middle" x="35.5" y="-88.3" font-family="Times,serif" font-size="14.00">x1</text>
</g>
<!-- x1&#45;&gt;f -->
<g id="edge2" class="edge">
<title>x1&#45;&gt;f</title>
<path fill="none" stroke="black" d="M54.41,-86.74C66.72,-83.12 83.31,-78.25 97.31,-74.13"/>
<polygon fill="black" stroke="black" points="98.25,-77.51 106.86,-71.33 96.28,-70.79 98.25,-77.51"/>
<text text-anchor="middle" x="81.5" y="-83.8" font-family="Times,serif" font-size="14.00">w1</text>
</g>
<!-- x2 -->
<g id="node4" class="node">
<title>x2</title>
<ellipse fill="none" stroke="black" cx="35.5" cy="-35" rx="19.5" ry="19.5"/>
<text text-anchor="middle" x="35.5" y="-31.3" font-family="Times,serif" font-size="14.00">x2</text>
</g>
<!-- x2&#45;&gt;f -->
<g id="edge3" class="edge">
<title>x2&#45;&gt;f</title>
<path fill="none" stroke="black" d="M54.41,-41.27C66.92,-45.66 83.85,-51.59 98,-56.54"/>
<polygon fill="black" stroke="black" points="96.58,-59.76 107.18,-59.76 98.9,-53.15 96.58,-59.76"/>
<text text-anchor="middle" x="81.5" y="-56.8" font-family="Times,serif" font-size="14.00">w2</text>
</g>
</g>
</svg>
