<?xml version="1.0" encoding="UTF-8" standalone="no"?>
<!DOCTYPE svg PUBLIC "-//W3C//DTD SVG 1.1//EN"
 "http://www.w3.org/Graphics/SVG/1.1/DTD/svg11.dtd">
<!-- Generated by graphviz version 8.0.5 (20230430.1635)
 -->
<!-- Pages: 1 -->
<svg width="615pt" height="116pt"
 viewBox="0.00 0.00 614.50 116.00" xmlns="http://www.w3.org/2000/svg" xmlns:xlink="http://www.w3.org/1999/xlink">
<g id="graph0" class="graph" transform="scale(1 1) rotate(0) translate(4 112)">
<polygon fill="white" stroke="none" points="-4,4 -4,-112 610.5,-112 610.5,4 -4,4"/>
<!-- clog&#45;div -->
<g id="node1" class="node">
<title>clog&#45;div</title>
<polygon fill="none" stroke="black" points="87.62,-108 25.12,-108 25.12,-72 87.62,-72 87.62,-108"/>
<text text-anchor="middle" x="56.38" y="-84.2" font-family="mono" font-size="14.00">clog&#45;div</text>
</g>
<!-- clog&#45;leaflet&#45;map -->
<g id="node2" class="node">
<title>clog&#45;leaflet&#45;map</title>
<polygon fill="none" stroke="black" points="112.75,-36 0,-36 0,0 112.75,0 112.75,-36"/>
<text text-anchor="middle" x="56.38" y="-12.2" font-family="mono" font-size="14.00">clog&#45;leaflet&#45;map</text>
</g>
<!-- clog&#45;div&#45;&gt;clog&#45;leaflet&#45;map -->
<g id="edge1" class="edge">
<title>clog&#45;div&#45;&gt;clog&#45;leaflet&#45;map</title>
<path fill="none" stroke="black" d="M56.38,-71.7C56.38,-64.24 56.38,-55.32 56.38,-46.97"/>
<polygon fill="black" stroke="black" points="59.88,-47.1 56.38,-37.1 52.88,-47.1 59.88,-47.1"/>
</g>
<!-- clog&#45;leaflet&#45;layer -->
<g id="node3" class="node">
<title>clog&#45;leaflet&#45;layer</title>
<polygon fill="none" stroke="black" points="412.88,-108 297.88,-108 297.88,-72 412.88,-72 412.88,-108"/>
<text text-anchor="middle" x="355.38" y="-84.2" font-family="mono" font-size="14.00">clog&#45;leaflet&#45;layer</text>
</g>
<!-- clog&#45;leaflet&#45;ui&#45;layer -->
<g id="node4" class="node">
<title>clog&#45;leaflet&#45;ui&#45;layer</title>
<polygon fill="none" stroke="black" points="260.38,-36 130.38,-36 130.38,0 260.38,0 260.38,-36"/>
<text text-anchor="middle" x="195.38" y="-12.2" font-family="mono" font-size="14.00">clog&#45;leaflet&#45;ui&#45;layer</text>
</g>
<!-- clog&#45;leaflet&#45;layer&#45;&gt;clog&#45;leaflet&#45;ui&#45;layer -->
<g id="edge2" class="edge">
<title>clog&#45;leaflet&#45;layer&#45;&gt;clog&#45;leaflet&#45;ui&#45;layer</title>
<path fill="none" stroke="black" d="M315.41,-71.52C294.05,-62.17 267.55,-50.57 244.88,-40.66"/>
<polygon fill="black" stroke="black" points="246.67,-37.18 236.1,-36.38 243.86,-43.6 246.67,-37.18"/>
</g>
<!-- clog&#45;leaflet&#45;raster&#45;layer -->
<g id="node5" class="node">
<title>clog&#45;leaflet&#45;raster&#45;layer</title>
<polygon fill="none" stroke="black" points="432.38,-36 278.38,-36 278.38,0 432.38,0 432.38,-36"/>
<text text-anchor="middle" x="355.38" y="-12.2" font-family="mono" font-size="14.00">clog&#45;leaflet&#45;raster&#45;layer</text>
</g>
<!-- clog&#45;leaflet&#45;layer&#45;&gt;clog&#45;leaflet&#45;raster&#45;layer -->
<g id="edge3" class="edge">
<title>clog&#45;leaflet&#45;layer&#45;&gt;clog&#45;leaflet&#45;raster&#45;layer</title>
<path fill="none" stroke="black" d="M355.38,-71.7C355.38,-64.24 355.38,-55.32 355.38,-46.97"/>
<polygon fill="black" stroke="black" points="358.88,-47.1 355.38,-37.1 351.88,-47.1 358.88,-47.1"/>
</g>
<!-- clog&#45;leaflet&#45;vector&#45;layer -->
<g id="node6" class="node">
<title>clog&#45;leaflet&#45;vector&#45;layer</title>
<polygon fill="none" stroke="black" points="606.5,-36 450.25,-36 450.25,0 606.5,0 606.5,-36"/>
<text text-anchor="middle" x="528.38" y="-12.2" font-family="mono" font-size="14.00">clog&#45;leaflet&#45;vector&#45;layer</text>
</g>
<!-- clog&#45;leaflet&#45;layer&#45;&gt;clog&#45;leaflet&#45;vector&#45;layer -->
<g id="edge4" class="edge">
<title>clog&#45;leaflet&#45;layer&#45;&gt;clog&#45;leaflet&#45;vector&#45;layer</title>
<path fill="none" stroke="black" d="M398.58,-71.52C421.89,-62.08 450.85,-50.37 475.5,-40.39"/>
<polygon fill="black" stroke="black" points="476.46,-43.38 484.42,-36.38 473.83,-36.89 476.46,-43.38"/>
</g>
</g>
</svg>
