<?xml version="1.0" encoding="UTF-8" standalone="no"?>
<!DOCTYPE svg PUBLIC "-//W3C//DTD SVG 1.1//EN"
 "http://www.w3.org/Graphics/SVG/1.1/DTD/svg11.dtd">
<!-- Generated by graphviz version 8.0.4 (20230421.1958)
 -->
<!-- Pages: 1 -->
<svg width="350pt" height="437pt"
 viewBox="0.00 0.00 349.50 436.75" xmlns="http://www.w3.org/2000/svg" xmlns:xlink="http://www.w3.org/1999/xlink">
<g id="graph0" class="graph" transform="scale(1 1) rotate(0) translate(4 432.75)">
<polygon fill="white" stroke="none" points="-4,4 -4,-432.75 345.5,-432.75 345.5,4 -4,4"/>
<!-- 建立方程\n边界条件\n初始条件 -->
<g id="node1" class="node">
<title>建立方程\n边界条件\n初始条件</title>
<polygon fill="none" stroke="black" points="207.25,-428.75 134.25,-428.75 134.25,-360 207.25,-360 207.25,-428.75"/>
<text text-anchor="middle" x="170.75" y="-411.45" font-family="Times,serif" font-size="14.00">建立方程</text>
<text text-anchor="middle" x="170.75" y="-391.2" font-family="Times,serif" font-size="14.00">边界条件</text>
<text text-anchor="middle" x="170.75" y="-370.95" font-family="Times,serif" font-size="14.00">初始条件</text>
</g>
<!-- 化为标准形式 -->
<g id="node2" class="node">
<title>化为标准形式</title>
<polygon fill="none" stroke="black" points="221.5,-324 120,-324 120,-288 221.5,-288 221.5,-324"/>
<text text-anchor="middle" x="170.75" y="-302.82" font-family="Times,serif" font-size="14.00">化为标准形式</text>
</g>
<!-- 建立方程\n边界条件\n初始条件&#45;&gt;化为标准形式 -->
<g id="edge1" class="edge">
<title>建立方程\n边界条件\n初始条件&#45;&gt;化为标准形式</title>
<path fill="none" stroke="black" d="M170.75,-359.73C170.75,-351.59 170.75,-342.96 170.75,-335.1"/>
<polygon fill="black" stroke="black" points="174.25,-335.27 170.75,-325.27 167.25,-335.27 174.25,-335.27"/>
</g>
<!-- 双曲型 (Δ &gt; 0) -->
<g id="node3" class="node">
<title>双曲型 (Δ &gt; 0)</title>
<polygon fill="none" stroke="black" points="101.5,-252 0,-252 0,-216 101.5,-216 101.5,-252"/>
<text text-anchor="middle" x="50.75" y="-230.82" font-family="Times,serif" font-size="14.00">双曲型 (Δ &gt; 0)</text>
</g>
<!-- 化为标准形式&#45;&gt;双曲型 (Δ &gt; 0) -->
<g id="edge2" class="edge">
<title>化为标准形式&#45;&gt;双曲型 (Δ &gt; 0)</title>
<path fill="none" stroke="black" d="M140.78,-287.52C125.34,-278.51 106.33,-267.42 89.77,-257.76"/>
<polygon fill="black" stroke="black" points="91.74,-254.28 81.34,-252.26 88.21,-260.32 91.74,-254.28"/>
</g>
<!-- 抛物型 (Δ = 0) -->
<g id="node4" class="node">
<title>抛物型 (Δ = 0)</title>
<polygon fill="none" stroke="black" points="221.5,-252 120,-252 120,-216 221.5,-216 221.5,-252"/>
<text text-anchor="middle" x="170.75" y="-230.82" font-family="Times,serif" font-size="14.00">抛物型 (Δ = 0)</text>
</g>
<!-- 化为标准形式&#45;&gt;抛物型 (Δ = 0) -->
<g id="edge3" class="edge">
<title>化为标准形式&#45;&gt;抛物型 (Δ = 0)</title>
<path fill="none" stroke="black" d="M170.75,-287.7C170.75,-280.24 170.75,-271.32 170.75,-262.97"/>
<polygon fill="black" stroke="black" points="174.25,-263.1 170.75,-253.1 167.25,-263.1 174.25,-263.1"/>
</g>
<!-- 椭圆型 (Δ &lt; 0) -->
<g id="node5" class="node">
<title>椭圆型 (Δ &lt; 0)</title>
<polygon fill="none" stroke="black" points="341.5,-252 240,-252 240,-216 341.5,-216 341.5,-252"/>
<text text-anchor="middle" x="290.75" y="-230.82" font-family="Times,serif" font-size="14.00">椭圆型 (Δ &lt; 0)</text>
</g>
<!-- 化为标准形式&#45;&gt;椭圆型 (Δ &lt; 0) -->
<g id="edge4" class="edge">
<title>化为标准形式&#45;&gt;椭圆型 (Δ &lt; 0)</title>
<path fill="none" stroke="black" d="M200.72,-287.52C216.16,-278.51 235.17,-267.42 251.73,-257.76"/>
<polygon fill="black" stroke="black" points="253.29,-260.32 260.16,-252.26 249.76,-254.28 253.29,-260.32"/>
</g>
<!-- 处理 (齐次/非齐次) 条件 -->
<g id="node6" class="node">
<title>处理 (齐次/非齐次) 条件</title>
<polygon fill="none" stroke="black" points="253,-180 88.5,-180 88.5,-144 253,-144 253,-180"/>
<text text-anchor="middle" x="170.75" y="-158.82" font-family="Times,serif" font-size="14.00">处理 (齐次/非齐次) 条件</text>
</g>
<!-- 双曲型 (Δ &gt; 0)&#45;&gt;处理 (齐次/非齐次) 条件 -->
<g id="edge5" class="edge">
<title>双曲型 (Δ &gt; 0)&#45;&gt;处理 (齐次/非齐次) 条件</title>
<path fill="none" stroke="black" d="M80.72,-215.52C96.16,-206.51 115.17,-195.42 131.73,-185.76"/>
<polygon fill="black" stroke="black" points="133.29,-188.32 140.16,-180.26 129.76,-182.28 133.29,-188.32"/>
</g>
<!-- 抛物型 (Δ = 0)&#45;&gt;处理 (齐次/非齐次) 条件 -->
<g id="edge6" class="edge">
<title>抛物型 (Δ = 0)&#45;&gt;处理 (齐次/非齐次) 条件</title>
<path fill="none" stroke="black" d="M170.75,-215.7C170.75,-208.24 170.75,-199.32 170.75,-190.97"/>
<polygon fill="black" stroke="black" points="174.25,-191.1 170.75,-181.1 167.25,-191.1 174.25,-191.1"/>
</g>
<!-- 椭圆型 (Δ &lt; 0)&#45;&gt;处理 (齐次/非齐次) 条件 -->
<g id="edge7" class="edge">
<title>椭圆型 (Δ &lt; 0)&#45;&gt;处理 (齐次/非齐次) 条件</title>
<path fill="none" stroke="black" d="M260.78,-215.52C245.34,-206.51 226.33,-195.42 209.77,-185.76"/>
<polygon fill="black" stroke="black" points="211.74,-182.28 201.34,-180.26 208.21,-188.32 211.74,-182.28"/>
</g>
<!-- 处理初始条件 (叠加) -->
<g id="node7" class="node">
<title>处理初始条件 (叠加)</title>
<polygon fill="none" stroke="black" points="242.12,-108 99.38,-108 99.38,-72 242.12,-72 242.12,-108"/>
<text text-anchor="middle" x="170.75" y="-86.83" font-family="Times,serif" font-size="14.00">处理初始条件 (叠加)</text>
</g>
<!-- 处理 (齐次/非齐次) 条件&#45;&gt;处理初始条件 (叠加) -->
<g id="edge8" class="edge">
<title>处理 (齐次/非齐次) 条件&#45;&gt;处理初始条件 (叠加)</title>
<path fill="none" stroke="black" d="M170.75,-143.7C170.75,-136.24 170.75,-127.32 170.75,-118.97"/>
<polygon fill="black" stroke="black" points="174.25,-119.1 170.75,-109.1 167.25,-119.1 174.25,-119.1"/>
</g>
<!-- 求解常微分方程 -->
<g id="node8" class="node">
<title>求解常微分方程</title>
<polygon fill="none" stroke="black" points="228.62,-36 112.88,-36 112.88,0 228.62,0 228.62,-36"/>
<text text-anchor="middle" x="170.75" y="-14.82" font-family="Times,serif" font-size="14.00">求解常微分方程</text>
</g>
<!-- 处理初始条件 (叠加)&#45;&gt;求解常微分方程 -->
<g id="edge9" class="edge">
<title>处理初始条件 (叠加)&#45;&gt;求解常微分方程</title>
<path fill="none" stroke="black" d="M170.75,-71.7C170.75,-64.24 170.75,-55.32 170.75,-46.97"/>
<polygon fill="black" stroke="black" points="174.25,-47.1 170.75,-37.1 167.25,-47.1 174.25,-47.1"/>
</g>
</g>
</svg>
