<?xml version="1.0" encoding="UTF-8" standalone="no"?>
<!DOCTYPE svg PUBLIC "-//W3C//DTD SVG 1.1//EN"
 "http://www.w3.org/Graphics/SVG/1.1/DTD/svg11.dtd">
<!-- Generated by graphviz version 10.0.1 (20240210.2158)
 -->
<!-- Pages: 1 -->
<svg width="1391pt" height="962pt"
 viewBox="0.00 0.00 1391.00 961.75" xmlns="http://www.w3.org/2000/svg" xmlns:xlink="http://www.w3.org/1999/xlink">
<g id="graph0" class="graph" transform="scale(1 1) rotate(0) translate(4 957.75)">
<!-- 立方 -->
<g id="node1" class="node">
<title>立方</title>
<polygon fill="none" stroke="black" points="846,-953.75 792,-953.75 792,-917.75 846,-917.75 846,-953.75"/>
<text text-anchor="middle" x="819" y="-932.58" font-family="Times,serif" font-size="14.00">立方</text>
</g>
<!-- 七大晶系 -->
<g id="node8" class="node">
<title>七大晶系</title>
<polygon fill="none" stroke="black" points="603.5,-880.75 530.5,-880.75 530.5,-844.75 603.5,-844.75 603.5,-880.75"/>
<text text-anchor="middle" x="567" y="-859.58" font-family="Times,serif" font-size="14.00">七大晶系</text>
</g>
<!-- 立方&#45;&gt;七大晶系 -->
<g id="edge1" class="edge">
<title>立方&#45;&gt;七大晶系</title>
<path fill="none" stroke="black" d="M791.72,-921.19C788.81,-919.95 785.86,-918.77 783,-917.75 726.58,-897.59 659.29,-882.05 614.98,-872.92"/>
<polygon fill="black" stroke="black" points="615.94,-869.54 605.44,-870.99 614.54,-876.4 615.94,-869.54"/>
</g>
<!-- 四方 -->
<g id="node2" class="node">
<title>四方</title>
<polygon fill="none" stroke="black" points="414,-953.75 360,-953.75 360,-917.75 414,-917.75 414,-953.75"/>
<text text-anchor="middle" x="387" y="-932.58" font-family="Times,serif" font-size="14.00">四方</text>
</g>
<!-- 四方&#45;&gt;七大晶系 -->
<g id="edge2" class="edge">
<title>四方&#45;&gt;七大晶系</title>
<path fill="none" stroke="black" d="M414.41,-921.52C417.3,-920.21 420.2,-918.93 423,-917.75 454.81,-904.3 491.23,-890.66 519.48,-880.45"/>
<polygon fill="black" stroke="black" points="520.62,-883.76 528.85,-877.09 518.26,-877.17 520.62,-883.76"/>
</g>
<!-- 三方 -->
<g id="node3" class="node">
<title>三方</title>
<polygon fill="none" stroke="black" points="486,-953.75 432,-953.75 432,-917.75 486,-917.75 486,-953.75"/>
<text text-anchor="middle" x="459" y="-932.58" font-family="Times,serif" font-size="14.00">三方</text>
</g>
<!-- 三方&#45;&gt;七大晶系 -->
<g id="edge3" class="edge">
<title>三方&#45;&gt;七大晶系</title>
<path fill="none" stroke="black" d="M485.42,-917.38C499.15,-908.36 516.13,-897.19 531.04,-887.39"/>
<polygon fill="black" stroke="black" points="532.78,-890.43 539.21,-882.02 528.94,-884.59 532.78,-890.43"/>
</g>
<!-- 六方 -->
<g id="node4" class="node">
<title>六方</title>
<polygon fill="none" stroke="black" points="558,-953.75 504,-953.75 504,-917.75 558,-917.75 558,-953.75"/>
<text text-anchor="middle" x="531" y="-932.58" font-family="Times,serif" font-size="14.00">六方</text>
</g>
<!-- 六方&#45;&gt;七大晶系 -->
<g id="edge4" class="edge">
<title>六方&#45;&gt;七大晶系</title>
<path fill="none" stroke="black" d="M539.71,-917.56C543.78,-909.54 548.72,-899.8 553.27,-890.82"/>
<polygon fill="black" stroke="black" points="556.28,-892.63 557.68,-882.13 550.04,-889.46 556.28,-892.63"/>
</g>
<!-- 正交 -->
<g id="node5" class="node">
<title>正交</title>
<polygon fill="none" stroke="black" points="630,-953.75 576,-953.75 576,-917.75 630,-917.75 630,-953.75"/>
<text text-anchor="middle" x="603" y="-932.58" font-family="Times,serif" font-size="14.00">正交</text>
</g>
<!-- 正交&#45;&gt;七大晶系 -->
<g id="edge5" class="edge">
<title>正交&#45;&gt;七大晶系</title>
<path fill="none" stroke="black" d="M594.29,-917.56C590.22,-909.54 585.28,-899.8 580.73,-890.82"/>
<polygon fill="black" stroke="black" points="583.96,-889.46 576.32,-882.13 577.72,-892.63 583.96,-889.46"/>
</g>
<!-- 单斜 -->
<g id="node6" class="node">
<title>单斜</title>
<polygon fill="none" stroke="black" points="702,-953.75 648,-953.75 648,-917.75 702,-917.75 702,-953.75"/>
<text text-anchor="middle" x="675" y="-932.58" font-family="Times,serif" font-size="14.00">单斜</text>
</g>
<!-- 单斜&#45;&gt;七大晶系 -->
<g id="edge6" class="edge">
<title>单斜&#45;&gt;七大晶系</title>
<path fill="none" stroke="black" d="M648.58,-917.38C634.85,-908.36 617.87,-897.19 602.96,-887.39"/>
<polygon fill="black" stroke="black" points="605.06,-884.59 594.79,-882.02 601.22,-890.43 605.06,-884.59"/>
</g>
<!-- 三斜 -->
<g id="node7" class="node">
<title>三斜</title>
<polygon fill="none" stroke="black" points="774,-953.75 720,-953.75 720,-917.75 774,-917.75 774,-953.75"/>
<text text-anchor="middle" x="747" y="-932.58" font-family="Times,serif" font-size="14.00">三斜</text>
</g>
<!-- 三斜&#45;&gt;七大晶系 -->
<g id="edge7" class="edge">
<title>三斜&#45;&gt;七大晶系</title>
<path fill="none" stroke="black" d="M719.59,-921.52C716.7,-920.21 713.8,-918.93 711,-917.75 679.19,-904.3 642.77,-890.66 614.52,-880.45"/>
<polygon fill="black" stroke="black" points="615.74,-877.17 605.15,-877.09 613.38,-883.76 615.74,-877.17"/>
</g>
<!-- 晶体结构 -->
<g id="node9" class="node">
<title>晶体结构</title>
<polygon fill="none" stroke="black" points="387.5,-788.5 314.5,-788.5 314.5,-752.5 387.5,-752.5 387.5,-788.5"/>
<text text-anchor="middle" x="351" y="-767.33" font-family="Times,serif" font-size="14.00">晶体结构</text>
</g>
<!-- 七大晶系&#45;&gt;晶体结构 -->
<g id="edge8" class="edge">
<title>七大晶系&#45;&gt;晶体结构</title>
<path fill="none" stroke="black" d="M530.36,-846.44C493.97,-831.24 438.03,-807.86 398.31,-791.27"/>
<polygon fill="black" stroke="black" points="399.79,-788.09 389.22,-787.47 397.1,-794.55 399.79,-788.09"/>
<text text-anchor="middle" x="528.88" y="-813.45" font-family="Times,serif" font-size="14.00">周期性几何结构</text>
</g>
<!-- 声子\n玻色子 -->
<g id="node16" class="node">
<title>声子\n玻色子</title>
<polygon fill="none" stroke="black" points="342.38,-696.25 283.62,-696.25 283.62,-647.75 342.38,-647.75 342.38,-696.25"/>
<text text-anchor="middle" x="313" y="-678.95" font-family="Times,serif" font-size="14.00">声子</text>
<text text-anchor="middle" x="313" y="-658.7" font-family="Times,serif" font-size="14.00">玻色子</text>
</g>
<!-- 晶体结构&#45;&gt;声子\n玻色子 -->
<g id="edge15" class="edge">
<title>晶体结构&#45;&gt;声子\n玻色子</title>
<path fill="none" stroke="black" d="M341.78,-752.28C338.95,-746.69 335.94,-740.4 333.5,-734.5 329.93,-725.87 326.52,-716.38 323.54,-707.48"/>
<polygon fill="black" stroke="black" points="326.9,-706.52 320.49,-698.09 320.25,-708.68 326.9,-706.52"/>
<text text-anchor="middle" x="348.25" y="-721.2" font-family="Times,serif" font-size="14.00">外场</text>
</g>
<!-- 电子\n费米子 -->
<g id="node19" class="node">
<title>电子\n费米子</title>
<polygon fill="none" stroke="black" points="421.38,-696.25 362.62,-696.25 362.62,-647.75 421.38,-647.75 421.38,-696.25"/>
<text text-anchor="middle" x="392" y="-678.95" font-family="Times,serif" font-size="14.00">电子</text>
<text text-anchor="middle" x="392" y="-658.7" font-family="Times,serif" font-size="14.00">费米子</text>
</g>
<!-- 晶体结构&#45;&gt;电子\n费米子 -->
<g id="edge18" class="edge">
<title>晶体结构&#45;&gt;电子\n费米子</title>
<path fill="none" stroke="black" d="M358.33,-752.25C363.68,-739.65 371.11,-722.16 377.63,-706.82"/>
<polygon fill="black" stroke="black" points="380.68,-708.59 381.37,-698.02 374.24,-705.86 380.68,-708.59"/>
<text text-anchor="middle" x="402.5" y="-721.2" font-family="Times,serif" font-size="14.00">周期性势</text>
</g>
<!-- 离子 -->
<g id="node10" class="node">
<title>离子</title>
<polygon fill="none" stroke="black" points="54,-953.75 0,-953.75 0,-917.75 54,-917.75 54,-953.75"/>
<text text-anchor="middle" x="27" y="-932.58" font-family="Times,serif" font-size="14.00">离子</text>
</g>
<!-- 化合键 -->
<g id="node15" class="node">
<title>化合键</title>
<polygon fill="none" stroke="black" points="236.38,-880.75 177.62,-880.75 177.62,-844.75 236.38,-844.75 236.38,-880.75"/>
<text text-anchor="middle" x="207" y="-859.58" font-family="Times,serif" font-size="14.00">化合键</text>
</g>
<!-- 离子&#45;&gt;化合键 -->
<g id="edge9" class="edge">
<title>离子&#45;&gt;化合键</title>
<path fill="none" stroke="black" d="M54.41,-921.52C57.3,-920.21 60.2,-918.93 63,-917.75 97.56,-903.14 137.58,-888.29 166.64,-877.88"/>
<polygon fill="black" stroke="black" points="167.54,-881.27 175.78,-874.62 165.19,-874.68 167.54,-881.27"/>
</g>
<!-- 共价 -->
<g id="node11" class="node">
<title>共价</title>
<polygon fill="none" stroke="black" points="126,-953.75 72,-953.75 72,-917.75 126,-917.75 126,-953.75"/>
<text text-anchor="middle" x="99" y="-932.58" font-family="Times,serif" font-size="14.00">共价</text>
</g>
<!-- 共价&#45;&gt;化合键 -->
<g id="edge10" class="edge">
<title>共价&#45;&gt;化合键</title>
<path fill="none" stroke="black" d="M125.42,-917.38C139.15,-908.36 156.13,-897.19 171.04,-887.39"/>
<polygon fill="black" stroke="black" points="172.78,-890.43 179.21,-882.02 168.94,-884.59 172.78,-890.43"/>
</g>
<!-- 金属 -->
<g id="node12" class="node">
<title>金属</title>
<polygon fill="none" stroke="black" points="198,-953.75 144,-953.75 144,-917.75 198,-917.75 198,-953.75"/>
<text text-anchor="middle" x="171" y="-932.58" font-family="Times,serif" font-size="14.00">金属</text>
</g>
<!-- 金属&#45;&gt;化合键 -->
<g id="edge11" class="edge">
<title>金属&#45;&gt;化合键</title>
<path fill="none" stroke="black" d="M179.71,-917.56C183.78,-909.54 188.72,-899.8 193.27,-890.82"/>
<polygon fill="black" stroke="black" points="196.28,-892.63 197.68,-882.13 190.04,-889.46 196.28,-892.63"/>
</g>
<!-- 分子 -->
<g id="node13" class="node">
<title>分子</title>
<polygon fill="none" stroke="black" points="270,-953.75 216,-953.75 216,-917.75 270,-917.75 270,-953.75"/>
<text text-anchor="middle" x="243" y="-932.58" font-family="Times,serif" font-size="14.00">分子</text>
</g>
<!-- 分子&#45;&gt;化合键 -->
<g id="edge12" class="edge">
<title>分子&#45;&gt;化合键</title>
<path fill="none" stroke="black" d="M234.29,-917.56C230.22,-909.54 225.28,-899.8 220.73,-890.82"/>
<polygon fill="black" stroke="black" points="223.96,-889.46 216.32,-882.13 217.72,-892.63 223.96,-889.46"/>
</g>
<!-- 氢键 -->
<g id="node14" class="node">
<title>氢键</title>
<polygon fill="none" stroke="black" points="342,-953.75 288,-953.75 288,-917.75 342,-917.75 342,-953.75"/>
<text text-anchor="middle" x="315" y="-932.58" font-family="Times,serif" font-size="14.00">氢键</text>
</g>
<!-- 氢键&#45;&gt;化合键 -->
<g id="edge13" class="edge">
<title>氢键&#45;&gt;化合键</title>
<path fill="none" stroke="black" d="M288.58,-917.38C274.85,-908.36 257.87,-897.19 242.96,-887.39"/>
<polygon fill="black" stroke="black" points="245.06,-884.59 234.79,-882.02 241.22,-890.43 245.06,-884.59"/>
</g>
<!-- 化合键&#45;&gt;晶体结构 -->
<g id="edge14" class="edge">
<title>化合键&#45;&gt;晶体结构</title>
<path fill="none" stroke="black" d="M234.76,-844.35C257.18,-830.3 288.92,-810.41 313.58,-794.95"/>
<polygon fill="black" stroke="black" points="315.42,-797.93 322.04,-789.65 311.71,-792 315.42,-797.93"/>
<text text-anchor="middle" x="306.25" y="-813.45" font-family="Times,serif" font-size="14.00">势能</text>
</g>
<!-- Einstein\n模型 -->
<g id="node17" class="node">
<title>Einstein\n模型</title>
<polygon fill="none" stroke="black" points="268.12,-551 207.88,-551 207.88,-506.25 268.12,-506.25 268.12,-551"/>
<text text-anchor="middle" x="238" y="-533.7" font-family="Times,serif" font-size="14.00">Einstein</text>
<text text-anchor="middle" x="238" y="-517.2" font-family="Times,serif" font-size="14.00">模型</text>
</g>
<!-- 声子\n玻色子&#45;&gt;Einstein\n模型 -->
<g id="edge16" class="edge">
<title>声子\n玻色子&#45;&gt;Einstein\n模型</title>
<path fill="none" stroke="black" d="M300.45,-647.34C287.91,-623.71 268.57,-587.25 254.74,-561.17"/>
<polygon fill="black" stroke="black" points="257.85,-559.58 250.07,-552.38 251.67,-562.86 257.85,-559.58"/>
</g>
<!-- Debye\n模型 -->
<g id="node18" class="node">
<title>Debye\n模型</title>
<polygon fill="none" stroke="black" points="340,-551 286,-551 286,-506.25 340,-506.25 340,-551"/>
<text text-anchor="middle" x="313" y="-533.7" font-family="Times,serif" font-size="14.00">Debye</text>
<text text-anchor="middle" x="313" y="-517.2" font-family="Times,serif" font-size="14.00">模型</text>
</g>
<!-- 声子\n玻色子&#45;&gt;Debye\n模型 -->
<g id="edge17" class="edge">
<title>声子\n玻色子&#45;&gt;Debye\n模型</title>
<path fill="none" stroke="black" d="M313,-647.34C313,-624.02 313,-588.22 313,-562.22"/>
<polygon fill="black" stroke="black" points="316.5,-562.56 313,-552.56 309.5,-562.56 316.5,-562.56"/>
</g>
<!-- Drude\n模型 -->
<g id="node20" class="node">
<title>Drude\n模型</title>
<polygon fill="none" stroke="black" points="573,-551 519,-551 519,-506.25 573,-506.25 573,-551"/>
<text text-anchor="middle" x="546" y="-533.7" font-family="Times,serif" font-size="14.00">Drude</text>
<text text-anchor="middle" x="546" y="-517.2" font-family="Times,serif" font-size="14.00">模型</text>
</g>
<!-- 电子\n费米子&#45;&gt;Drude\n模型 -->
<g id="edge19" class="edge">
<title>电子\n费米子&#45;&gt;Drude\n模型</title>
<path fill="none" stroke="black" d="M421.69,-670C451.84,-667.32 497.71,-658.42 524,-629.75 540.54,-611.71 545.66,-584.15 546.85,-562.52"/>
<polygon fill="black" stroke="black" points="550.35,-562.8 547.12,-552.71 543.35,-562.61 550.35,-562.8"/>
<text text-anchor="middle" x="598" y="-606.33" font-family="Times,serif" font-size="14.00">自由+独立+弛豫</text>
<text text-anchor="middle" x="598" y="-586.08" font-family="Times,serif" font-size="14.00">(经典)近似</text>
</g>
<!-- 能带理论 -->
<g id="node34" class="node">
<title>能带理论</title>
<polygon fill="none" stroke="black" points="431.5,-546.62 358.5,-546.62 358.5,-510.62 431.5,-510.62 431.5,-546.62"/>
<text text-anchor="middle" x="395" y="-525.45" font-family="Times,serif" font-size="14.00">能带理论</text>
</g>
<!-- 电子\n费米子&#45;&gt;能带理论 -->
<g id="edge34" class="edge">
<title>电子\n费米子&#45;&gt;能带理论</title>
<path fill="none" stroke="black" d="M392.19,-647.5C392.39,-626.82 392.79,-595.91 393.5,-569 393.59,-565.49 393.71,-561.8 393.83,-558.15"/>
<polygon fill="black" stroke="black" points="397.32,-558.51 394.2,-548.38 390.33,-558.25 397.32,-558.51"/>
<text text-anchor="middle" x="459.25" y="-616.45" font-family="Times,serif" font-size="14.00">Bloch 定理</text>
<text text-anchor="middle" x="459.25" y="-596.2" font-family="Times,serif" font-size="14.00">绝热+单电子+周期场</text>
<text text-anchor="middle" x="459.25" y="-575.95" font-family="Times,serif" font-size="14.00">(周期场非必要条件)</text>
</g>
<!-- j = &#45; n e v\nm v = &#45; e E τ\n j = σ E\n→ σ = n e^2 τ / m -->
<g id="node21" class="node">
<title>j = &#45; n e v\nm v = &#45; e E τ\n j = σ E\n→ σ = n e^2 τ / m</title>
<polygon fill="none" stroke="black" points="601.75,-429.75 482.25,-429.75 482.25,-355.75 601.75,-355.75 601.75,-429.75"/>
<text text-anchor="middle" x="542" y="-412.45" font-family="Times,serif" font-size="14.00">j = &#45; n e v</text>
<text text-anchor="middle" x="542" y="-395.95" font-family="Times,serif" font-size="14.00">m v = &#45; e E τ</text>
<text text-anchor="middle" x="542" y="-379.45" font-family="Times,serif" font-size="14.00"> j = σ E</text>
<text text-anchor="middle" x="542" y="-362.95" font-family="Times,serif" font-size="14.00">→ σ = n e^2 τ / m</text>
</g>
<!-- Drude\n模型&#45;&gt;j = &#45; n e v\nm v = &#45; e E τ\n j = σ E\n→ σ = n e^2 τ / m -->
<g id="edge20" class="edge">
<title>Drude\n模型&#45;&gt;j = &#45; n e v\nm v = &#45; e E τ\n j = σ E\n→ σ = n e^2 τ / m</title>
<path fill="none" stroke="black" d="M545.35,-505.82C544.83,-488.48 544.09,-463.59 543.43,-441.67"/>
<polygon fill="black" stroke="black" points="546.93,-441.6 543.13,-431.71 539.93,-441.81 546.93,-441.6"/>
</g>
<!-- Sommerfeld\n模型 -->
<g id="node22" class="node">
<title>Sommerfeld\n模型</title>
<polygon fill="none" stroke="black" points="704.12,-415.12 619.88,-415.12 619.88,-370.38 704.12,-370.38 704.12,-415.12"/>
<text text-anchor="middle" x="662" y="-397.82" font-family="Times,serif" font-size="14.00">Sommerfeld</text>
<text text-anchor="middle" x="662" y="-381.32" font-family="Times,serif" font-size="14.00">模型</text>
</g>
<!-- Drude\n模型&#45;&gt;Sommerfeld\n模型 -->
<g id="edge21" class="edge">
<title>Drude\n模型&#45;&gt;Sommerfeld\n模型</title>
<path fill="none" stroke="black" d="M564.9,-505.82C584.11,-483.65 614.03,-449.11 635.59,-424.23"/>
<polygon fill="black" stroke="black" points="638.22,-426.54 642.12,-416.69 632.93,-421.96 638.22,-426.54"/>
<text text-anchor="middle" x="644.75" y="-474.95" font-family="Times,serif" font-size="14.00">量子化</text>
<text text-anchor="middle" x="644.75" y="-454.7" font-family="Times,serif" font-size="14.00">Fermi分布</text>
</g>
<!-- 准经典近似 -->
<g id="node24" class="node">
<title>准经典近似</title>
<polygon fill="none" stroke="black" points="705.62,-295.12 618.38,-295.12 618.38,-259.12 705.62,-259.12 705.62,-295.12"/>
<text text-anchor="middle" x="662" y="-273.95" font-family="Times,serif" font-size="14.00">准经典近似</text>
</g>
<!-- Sommerfeld\n模型&#45;&gt;准经典近似 -->
<g id="edge23" class="edge">
<title>Sommerfeld\n模型&#45;&gt;准经典近似</title>
<path fill="none" stroke="black" d="M662,-370.11C662,-352.19 662,-326.58 662,-306.93"/>
<polygon fill="black" stroke="black" points="665.5,-307.1 662,-297.1 658.5,-307.1 665.5,-307.1"/>
<text text-anchor="middle" x="704.75" y="-324.45" font-family="Times,serif" font-size="14.00">波包→准粒子</text>
</g>
<!-- 费米面 -->
<g id="node25" class="node">
<title>费米面</title>
<polygon fill="none" stroke="black" points="588.38,-295.12 529.62,-295.12 529.62,-259.12 588.38,-259.12 588.38,-295.12"/>
<text text-anchor="middle" x="559" y="-273.95" font-family="Times,serif" font-size="14.00">费米面</text>
</g>
<!-- Sommerfeld\n模型&#45;&gt;费米面 -->
<g id="edge24" class="edge">
<title>Sommerfeld\n模型&#45;&gt;费米面</title>
<path fill="none" stroke="black" d="M642.38,-370.11C625.3,-351.26 600.5,-323.91 582.39,-303.93"/>
<polygon fill="black" stroke="black" points="585.16,-301.77 575.85,-296.71 579.97,-306.47 585.16,-301.77"/>
</g>
<!-- Fermi 分布 -->
<g id="node23" class="node">
<title>Fermi 分布</title>
<polygon fill="none" stroke="black" points="864.62,-546.62 783.38,-546.62 783.38,-510.62 864.62,-510.62 864.62,-546.62"/>
<text text-anchor="middle" x="824" y="-525.45" font-family="Times,serif" font-size="14.00">Fermi 分布</text>
</g>
<!-- Fermi 分布&#45;&gt;Sommerfeld\n模型 -->
<g id="edge22" class="edge">
<title>Fermi 分布&#45;&gt;Sommerfeld\n模型</title>
<path fill="none" stroke="black" d="M803.15,-510.4C776.36,-488.26 729.45,-449.49 697.11,-422.76"/>
<polygon fill="black" stroke="black" points="699.51,-420.21 689.57,-416.53 695.05,-425.6 699.51,-420.21"/>
</g>
<!-- 电子分布\nf(E) = 1 / (exp((E &#45; μ) / kB T) + 1) -->
<g id="node27" class="node">
<title>电子分布\nf(E) = 1 / (exp((E &#45; μ) / kB T) + 1)</title>
<polygon fill="none" stroke="black" points="1150.25,-415.12 943.75,-415.12 943.75,-370.38 1150.25,-370.38 1150.25,-415.12"/>
<text text-anchor="middle" x="1047" y="-397.82" font-family="Times,serif" font-size="14.00">电子分布</text>
<text text-anchor="middle" x="1047" y="-377.57" font-family="Times,serif" font-size="14.00">f(E) = 1 / (exp((E &#45; μ) / kB T) + 1)</text>
</g>
<!-- Fermi 分布&#45;&gt;电子分布\nf(E) = 1 / (exp((E &#45; μ) / kB T) + 1) -->
<g id="edge26" class="edge">
<title>Fermi 分布&#45;&gt;电子分布\nf(E) = 1 / (exp((E &#45; μ) / kB T) + 1)</title>
<path fill="none" stroke="black" d="M852.7,-510.4C890.21,-487.88 956.36,-448.16 1000.93,-421.4"/>
<polygon fill="black" stroke="black" points="1002.58,-424.5 1009.36,-416.35 998.98,-418.49 1002.58,-424.5"/>
</g>
<!-- 费米能级 εF\nεF = (ℏ^2 / 2m) * (3 π^2 n)^(2/3) -->
<g id="node28" class="node">
<title>费米能级 εF\nεF = (ℏ^2 / 2m) * (3 π^2 n)^(2/3)</title>
<polygon fill="none" stroke="black" points="925.38,-415.12 722.62,-415.12 722.62,-370.38 925.38,-370.38 925.38,-415.12"/>
<text text-anchor="middle" x="824" y="-397.82" font-family="Times,serif" font-size="14.00">费米能级 εF</text>
<text text-anchor="middle" x="824" y="-377.57" font-family="Times,serif" font-size="14.00">εF = (ℏ^2 / 2m) * (3 π^2 n)^(2/3)</text>
</g>
<!-- Fermi 分布&#45;&gt;费米能级 εF\nεF = (ℏ^2 / 2m) * (3 π^2 n)^(2/3) -->
<g id="edge27" class="edge">
<title>Fermi 分布&#45;&gt;费米能级 εF\nεF = (ℏ^2 / 2m) * (3 π^2 n)^(2/3)</title>
<path fill="none" stroke="black" d="M824,-510.4C824,-489.33 824,-453.21 824,-426.74"/>
<polygon fill="black" stroke="black" points="827.5,-426.85 824,-416.85 820.5,-426.85 827.5,-426.85"/>
</g>
<!-- 金属导电性 -->
<g id="node26" class="node">
<title>金属导电性</title>
<polygon fill="none" stroke="black" points="589.62,-182 502.38,-182 502.38,-146 589.62,-146 589.62,-182"/>
<text text-anchor="middle" x="546" y="-160.82" font-family="Times,serif" font-size="14.00">金属导电性</text>
</g>
<!-- 准经典近似&#45;&gt;金属导电性 -->
<g id="edge32" class="edge">
<title>准经典近似&#45;&gt;金属导电性</title>
<path fill="none" stroke="black" d="M663.22,-258.9C663.47,-241.93 661.14,-216.26 647,-200 635.21,-186.45 617.9,-178.14 600.92,-173.05"/>
<polygon fill="black" stroke="black" points="601.9,-169.69 591.34,-170.53 600.12,-176.46 601.9,-169.69"/>
</g>
<!-- 准电子 -->
<g id="node33" class="node">
<title>准电子</title>
<polygon fill="none" stroke="black" points="723.38,-182 664.62,-182 664.62,-146 723.38,-146 723.38,-182"/>
<text text-anchor="middle" x="694" y="-160.82" font-family="Times,serif" font-size="14.00">准电子</text>
</g>
<!-- 准经典近似&#45;&gt;准电子 -->
<g id="edge33" class="edge">
<title>准经典近似&#45;&gt;准电子</title>
<path fill="none" stroke="black" d="M667,-258.76C672.05,-241.23 679.93,-213.86 685.88,-193.21"/>
<polygon fill="black" stroke="black" points="689.21,-194.27 688.62,-183.7 682.49,-192.34 689.21,-194.27"/>
<text text-anchor="middle" x="753.12" y="-223.45" font-family="Times,serif" font-size="14.00">电子+屏蔽电荷</text>
<text text-anchor="middle" x="753.12" y="-203.2" font-family="Times,serif" font-size="14.00">(q / 4 π ε0 r) * exp(&#45; ks r)</text>
</g>
<!-- 费米面&#45;&gt;金属导电性 -->
<g id="edge25" class="edge">
<title>费米面&#45;&gt;金属导电性</title>
<path fill="none" stroke="black" d="M552.69,-258.72C550.54,-251.95 548.39,-244.08 547.25,-236.75 545.06,-222.61 544.58,-206.72 544.72,-193.49"/>
<polygon fill="black" stroke="black" points="548.22,-193.81 544.96,-183.73 541.22,-193.64 548.22,-193.81"/>
<text text-anchor="middle" x="597.88" y="-215.2" font-family="Times,serif" font-size="14.00">费米面电子导电</text>
</g>
<!-- 输运能力 -->
<g id="node38" class="node">
<title>输运能力</title>
<polygon fill="none" stroke="black" points="517.5,-109 444.5,-109 444.5,-73 517.5,-73 517.5,-109"/>
<text text-anchor="middle" x="481" y="-87.83" font-family="Times,serif" font-size="14.00">输运能力</text>
</g>
<!-- 金属导电性&#45;&gt;输运能力 -->
<g id="edge39" class="edge">
<title>金属导电性&#45;&gt;输运能力</title>
<path fill="none" stroke="black" d="M530.27,-145.81C522.44,-137.27 512.83,-126.77 504.18,-117.32"/>
<polygon fill="black" stroke="black" points="506.95,-115.16 497.61,-110.15 501.78,-119.88 506.95,-115.16"/>
</g>
<!-- Hall 效应 -->
<g id="node41" class="node">
<title>Hall 效应</title>
<polygon fill="none" stroke="black" points="548.75,-36 477.25,-36 477.25,0 548.75,0 548.75,-36"/>
<text text-anchor="middle" x="513" y="-14.82" font-family="Times,serif" font-size="14.00">Hall 效应</text>
</g>
<!-- 金属导电性&#45;&gt;Hall 效应 -->
<g id="edge43" class="edge">
<title>金属导电性&#45;&gt;Hall 效应</title>
<path fill="none" stroke="black" d="M542.26,-145.73C538.3,-127.59 531.85,-98.26 526,-73 524.08,-64.7 521.93,-55.7 519.95,-47.46"/>
<polygon fill="black" stroke="black" points="523.41,-46.86 517.65,-37.96 516.6,-48.51 523.41,-46.86"/>
</g>
<!-- N = (V / 3 π^2) * (2 m εF / ℏ^2)^(3/2) -->
<g id="node31" class="node">
<title>N = (V / 3 π^2) * (2 m εF / ℏ^2)^(3/2)</title>
<polygon fill="none" stroke="black" points="1138.88,-295.12 909.12,-295.12 909.12,-259.12 1138.88,-259.12 1138.88,-295.12"/>
<text text-anchor="middle" x="1024" y="-272.07" font-family="Times,serif" font-size="14.00">N = (V / 3 π^2) * (2 m εF / ℏ^2)^(3/2)</text>
</g>
<!-- 电子分布\nf(E) = 1 / (exp((E &#45; μ) / kB T) + 1)&#45;&gt;N = (V / 3 π^2) * (2 m εF / ℏ^2)^(3/2) -->
<g id="edge30" class="edge">
<title>电子分布\nf(E) = 1 / (exp((E &#45; μ) / kB T) + 1)&#45;&gt;N = (V / 3 π^2) * (2 m εF / ℏ^2)^(3/2)</title>
<path fill="none" stroke="black" d="M1042.62,-370.11C1038.98,-352.11 1033.76,-326.34 1029.78,-306.66"/>
<polygon fill="black" stroke="black" points="1033.25,-306.18 1027.84,-297.07 1026.39,-307.57 1033.25,-306.18"/>
</g>
<!-- E = 3/5 εF + (π^2 / 4) * (kB T)^2 / εF -->
<g id="node32" class="node">
<title>E = 3/5 εF + (π^2 / 4) * (kB T)^2 / εF</title>
<polygon fill="none" stroke="black" points="1383,-295.12 1157,-295.12 1157,-259.12 1383,-259.12 1383,-295.12"/>
<text text-anchor="middle" x="1270" y="-272.07" font-family="Times,serif" font-size="14.00">E = 3/5 εF + (π^2 / 4) * (kB T)^2 / εF</text>
</g>
<!-- 电子分布\nf(E) = 1 / (exp((E &#45; μ) / kB T) + 1)&#45;&gt;E = 3/5 εF + (π^2 / 4) * (kB T)^2 / εF -->
<g id="edge31" class="edge">
<title>电子分布\nf(E) = 1 / (exp((E &#45; μ) / kB T) + 1)&#45;&gt;E = 3/5 εF + (π^2 / 4) * (kB T)^2 / εF</title>
<path fill="none" stroke="black" d="M1089.73,-369.98C1128.74,-350.1 1186.17,-320.84 1225.67,-300.71"/>
<polygon fill="black" stroke="black" points="1227.14,-303.89 1234.46,-296.24 1223.96,-297.66 1227.14,-303.89"/>
</g>
<!-- 费米温度\nTF = εF / kB -->
<g id="node29" class="node">
<title>费米温度\nTF = εF / kB</title>
<polygon fill="none" stroke="black" points="868,-299.5 780,-299.5 780,-254.75 868,-254.75 868,-299.5"/>
<text text-anchor="middle" x="824" y="-282.2" font-family="Times,serif" font-size="14.00">费米温度</text>
<text text-anchor="middle" x="824" y="-261.95" font-family="Times,serif" font-size="14.00">TF = εF / kB</text>
</g>
<!-- 费米能级 εF\nεF = (ℏ^2 / 2m) * (3 π^2 n)^(2/3)&#45;&gt;费米温度\nTF = εF / kB -->
<g id="edge28" class="edge">
<title>费米能级 εF\nεF = (ℏ^2 / 2m) * (3 π^2 n)^(2/3)&#45;&gt;费米温度\nTF = εF / kB</title>
<path fill="none" stroke="black" d="M824,-370.11C824,-353.45 824,-330.13 824,-311.14"/>
<polygon fill="black" stroke="black" points="827.5,-311.2 824,-301.2 820.5,-311.2 827.5,-311.2"/>
</g>
<!-- 态密度 -->
<g id="node30" class="node">
<title>态密度</title>
<polygon fill="none" stroke="black" points="1076.38,-546.62 1017.62,-546.62 1017.62,-510.62 1076.38,-510.62 1076.38,-546.62"/>
<text text-anchor="middle" x="1047" y="-525.45" font-family="Times,serif" font-size="14.00">态密度</text>
</g>
<!-- 态密度&#45;&gt;电子分布\nf(E) = 1 / (exp((E &#45; μ) / kB T) + 1) -->
<g id="edge29" class="edge">
<title>态密度&#45;&gt;电子分布\nf(E) = 1 / (exp((E &#45; μ) / kB T) + 1)</title>
<path fill="none" stroke="black" d="M1047,-510.4C1047,-489.33 1047,-453.21 1047,-426.74"/>
<polygon fill="black" stroke="black" points="1050.5,-426.85 1047,-416.85 1043.5,-426.85 1050.5,-426.85"/>
</g>
<!-- 近自由电子近似 -->
<g id="node35" class="node">
<title>近自由电子近似</title>
<polygon fill="none" stroke="black" points="463.88,-410.75 348.12,-410.75 348.12,-374.75 463.88,-374.75 463.88,-410.75"/>
<text text-anchor="middle" x="406" y="-389.57" font-family="Times,serif" font-size="14.00">近自由电子近似</text>
</g>
<!-- 能带理论&#45;&gt;近自由电子近似 -->
<g id="edge35" class="edge">
<title>能带理论&#45;&gt;近自由电子近似</title>
<path fill="none" stroke="black" d="M396.42,-510.4C398.25,-488.11 401.46,-448.96 403.66,-422.22"/>
<polygon fill="black" stroke="black" points="407.14,-422.67 404.47,-412.42 400.16,-422.1 407.14,-422.67"/>
</g>
<!-- 紧束缚近似 -->
<g id="node36" class="node">
<title>紧束缚近似</title>
<polygon fill="none" stroke="black" points="329.62,-410.75 242.38,-410.75 242.38,-374.75 329.62,-374.75 329.62,-410.75"/>
<text text-anchor="middle" x="286" y="-389.57" font-family="Times,serif" font-size="14.00">紧束缚近似</text>
</g>
<!-- 能带理论&#45;&gt;紧束缚近似 -->
<g id="edge36" class="edge">
<title>能带理论&#45;&gt;紧束缚近似</title>
<path fill="none" stroke="black" d="M380.97,-510.4C362.25,-487.4 328.93,-446.48 307.15,-419.73"/>
<polygon fill="black" stroke="black" points="309.96,-417.63 300.93,-412.09 304.53,-422.05 309.96,-417.63"/>
</g>
<!-- 半导体导电性 -->
<g id="node37" class="node">
<title>半导体导电性</title>
<polygon fill="none" stroke="black" points="456.75,-295.12 355.25,-295.12 355.25,-259.12 456.75,-259.12 456.75,-295.12"/>
<text text-anchor="middle" x="406" y="-273.95" font-family="Times,serif" font-size="14.00">半导体导电性</text>
</g>
<!-- 近自由电子近似&#45;&gt;半导体导电性 -->
<g id="edge37" class="edge">
<title>近自由电子近似&#45;&gt;半导体导电性</title>
<path fill="none" stroke="black" d="M406,-374.49C406,-356.56 406,-328.18 406,-306.85"/>
<polygon fill="black" stroke="black" points="409.5,-307.06 406,-297.06 402.5,-307.06 409.5,-307.06"/>
</g>
<!-- 紧束缚近似&#45;&gt;半导体导电性 -->
<g id="edge38" class="edge">
<title>紧束缚近似&#45;&gt;半导体导电性</title>
<path fill="none" stroke="black" d="M304.23,-374.49C324.22,-355.56 356.52,-324.98 379.36,-303.35"/>
<polygon fill="black" stroke="black" points="381.65,-306 386.5,-296.59 376.84,-300.92 381.65,-306"/>
</g>
<!-- 半导体导电性&#45;&gt;输运能力 -->
<g id="edge40" class="edge">
<title>半导体导电性&#45;&gt;输运能力</title>
<path fill="none" stroke="black" d="M413.53,-258.84C421.7,-240.02 435.03,-208.97 446,-182 454.44,-161.27 463.59,-137.68 470.42,-119.85"/>
<polygon fill="black" stroke="black" points="473.61,-121.32 473.91,-110.73 467.07,-118.82 473.61,-121.32"/>
</g>
<!-- PN 结 -->
<g id="node39" class="node">
<title>PN 结</title>
<polygon fill="none" stroke="black" points="361,-182 307,-182 307,-146 361,-146 361,-182"/>
<text text-anchor="middle" x="334" y="-160.82" font-family="Times,serif" font-size="14.00">PN 结</text>
</g>
<!-- 半导体导电性&#45;&gt;PN 结 -->
<g id="edge41" class="edge">
<title>半导体导电性&#45;&gt;PN 结</title>
<path fill="none" stroke="black" d="M394.75,-258.76C383.13,-240.82 364.83,-212.58 351.35,-191.78"/>
<polygon fill="black" stroke="black" points="354.37,-190 345.99,-183.51 348.49,-193.81 354.37,-190"/>
</g>
<!-- 三极管 -->
<g id="node40" class="node">
<title>三极管</title>
<polygon fill="none" stroke="black" points="437.38,-182 378.62,-182 378.62,-146 437.38,-146 437.38,-182"/>
<text text-anchor="middle" x="408" y="-160.82" font-family="Times,serif" font-size="14.00">三极管</text>
</g>
<!-- 半导体导电性&#45;&gt;三极管 -->
<g id="edge42" class="edge">
<title>半导体导电性&#45;&gt;三极管</title>
<path fill="none" stroke="black" d="M406.31,-258.76C406.63,-241.31 407.12,-214.11 407.49,-193.5"/>
<polygon fill="black" stroke="black" points="410.98,-193.82 407.66,-183.75 403.98,-193.69 410.98,-193.82"/>
</g>
<!-- 输运能力&#45;&gt;Hall 效应 -->
<g id="edge44" class="edge">
<title>输运能力&#45;&gt;Hall 效应</title>
<path fill="none" stroke="black" d="M488.75,-72.81C492.32,-64.88 496.66,-55.26 500.67,-46.36"/>
<polygon fill="black" stroke="black" points="503.78,-47.96 504.7,-37.41 497.4,-45.09 503.78,-47.96"/>
</g>
</g>
</svg>
