<?xml version="1.0" encoding="UTF-8" standalone="no"?>
<!DOCTYPE svg PUBLIC "-//W3C//DTD SVG 1.1//EN"
 "http://www.w3.org/Graphics/SVG/1.1/DTD/svg11.dtd">
<!-- Generated by graphviz version 8.0.5 (20230430.1635)
 -->
<!-- Pages: 1 -->
<svg width="278pt" height="260pt"
 viewBox="0.00 0.00 278.00 260.00" xmlns="http://www.w3.org/2000/svg" xmlns:xlink="http://www.w3.org/1999/xlink">
<g id="graph0" class="graph" transform="scale(1 1) rotate(0) translate(4 256)">
<polygon fill="white" stroke="none" points="-4,4 -4,-256 274,-256 274,4 -4,4"/>
<!-- top_mul -->
<g id="node1" class="node">
<title>top_mul</title>
<ellipse fill="none" stroke="black" cx="166" cy="-234" rx="18" ry="18"/>
<text text-anchor="middle" x="166" y="-227.45" font-family="Times,serif" font-size="14.00">тип</text>
</g>
<!-- plus -->
<g id="node4" class="node">
<title>plus</title>
<ellipse fill="none" stroke="black" cx="135" cy="-162" rx="18" ry="18"/>
<text text-anchor="middle" x="135" y="-156.95" font-family="Times,serif" font-size="14.00">+</text>
</g>
<!-- top_mul&#45;&#45;plus -->
<g id="edge1" class="edge">
<title>top_mul&#45;&#45;plus</title>
<path fill="none" stroke="black" d="M158.97,-217.12C153.89,-205.66 147.07,-190.26 142.01,-178.82"/>
</g>
<!-- x -->
<g id="node5" class="node">
<title>x</title>
<polygon fill="none" stroke="black" points="225,-180 171,-180 171,-144 225,-144 225,-180"/>
<text text-anchor="middle" x="198" y="-156.95" font-family="Times,serif" font-size="14.00">x</text>
</g>
<!-- top_mul&#45;&#45;x -->
<g id="edge2" class="edge">
<title>top_mul&#45;&#45;x</title>
<path fill="none" stroke="black" d="M173.26,-217.12C178.28,-206.14 184.95,-191.56 190.1,-180.29"/>
</g>
<!-- mul_1 -->
<g id="node2" class="node">
<title>mul_1</title>
<ellipse fill="none" stroke="black" cx="99" cy="-90" rx="18" ry="18"/>
<text text-anchor="middle" x="99" y="-83.45" font-family="Times,serif" font-size="14.00">тип</text>
</g>
<!-- 2 -->
<g id="node6" class="node">
<title>2</title>
<polygon fill="none" stroke="black" points="54,-36 0,-36 0,0 54,0 54,-36"/>
<text text-anchor="middle" x="27" y="-12.95" font-family="Times,serif" font-size="14.00">2</text>
</g>
<!-- mul_1&#45;&#45;2 -->
<g id="edge5" class="edge">
<title>mul_1&#45;&#45;2</title>
<path fill="none" stroke="black" d="M86.46,-76.81C74.94,-65.6 57.73,-48.88 44.79,-36.3"/>
</g>
<!-- y -->
<g id="node7" class="node">
<title>y</title>
<polygon fill="none" stroke="black" points="126,-36 72,-36 72,0 126,0 126,-36"/>
<text text-anchor="middle" x="99" y="-12.95" font-family="Times,serif" font-size="14.00">y</text>
</g>
<!-- mul_1&#45;&#45;y -->
<g id="edge6" class="edge">
<title>mul_1&#45;&#45;y</title>
<path fill="none" stroke="black" d="M99,-71.7C99,-60.85 99,-46.92 99,-36.1"/>
</g>
<!-- mul_2 -->
<g id="node3" class="node">
<title>mul_2</title>
<ellipse fill="none" stroke="black" cx="171" cy="-90" rx="18" ry="18"/>
<text text-anchor="middle" x="171" y="-83.45" font-family="Times,serif" font-size="14.00">тип</text>
</g>
<!-- 4 -->
<g id="node8" class="node">
<title>4</title>
<polygon fill="none" stroke="black" points="198,-36 144,-36 144,0 198,0 198,-36"/>
<text text-anchor="middle" x="171" y="-12.95" font-family="Times,serif" font-size="14.00">4</text>
</g>
<!-- mul_2&#45;&#45;4 -->
<g id="edge7" class="edge">
<title>mul_2&#45;&#45;4</title>
<path fill="none" stroke="black" d="M171,-71.7C171,-60.85 171,-46.92 171,-36.1"/>
</g>
<!-- t -->
<g id="node9" class="node">
<title>t</title>
<polygon fill="none" stroke="black" points="270,-36 216,-36 216,0 270,0 270,-36"/>
<text text-anchor="middle" x="243" y="-12.95" font-family="Times,serif" font-size="14.00">t</text>
</g>
<!-- mul_2&#45;&#45;t -->
<g id="edge8" class="edge">
<title>mul_2&#45;&#45;t</title>
<path fill="none" stroke="black" d="M183.54,-76.81C195.06,-65.6 212.27,-48.88 225.21,-36.3"/>
</g>
<!-- plus&#45;&#45;mul_1 -->
<g id="edge3" class="edge">
<title>plus&#45;&#45;mul_1</title>
<path fill="none" stroke="black" d="M127.01,-145.46C121.04,-133.86 112.93,-118.08 106.97,-106.49"/>
</g>
<!-- plus&#45;&#45;mul_2 -->
<g id="edge4" class="edge">
<title>plus&#45;&#45;mul_2</title>
<path fill="none" stroke="black" d="M142.99,-145.46C148.96,-133.86 157.07,-118.08 163.03,-106.49"/>
</g>
</g>
</svg>
