<?xml version="1.0" encoding="UTF-8" standalone="no"?>
<!DOCTYPE svg PUBLIC "-//W3C//DTD SVG 1.1//EN"
 "http://www.w3.org/Graphics/SVG/1.1/DTD/svg11.dtd">
<!-- Generated by graphviz version 8.0.5 (20230430.1635)
 -->
<!-- Pages: 1 -->
<svg width="570pt" height="593pt"
 viewBox="0.00 0.00 570.20 593.00" xmlns="http://www.w3.org/2000/svg" xmlns:xlink="http://www.w3.org/1999/xlink">
<g id="graph0" class="graph" transform="scale(1 1) rotate(0) translate(4 589)">
<polygon fill="white" stroke="none" points="-4,4 -4,-589 566.2,-589 566.2,4 -4,4"/>
<!-- in -->
<g id="node1" class="node">
<title>in</title>
<ellipse fill="black" stroke="black" stroke-width="1.5" cx="1.8" cy="-308" rx="1.8" ry="1.8"/>
</g>
<!-- progn -->
<g id="node3" class="node">
<title>progn</title>
<ellipse fill="none" stroke="black" stroke-width="1.5" cx="98.85" cy="-308" rx="18" ry="18"/>
</g>
<!-- in&#45;&gt;progn -->
<g id="edge1" class="edge">
<title>in&#45;&gt;progn</title>
<path fill="none" stroke="black" stroke-width="1.5" d="M3.87,-308C10.22,-308 43.61,-308 68.8,-308"/>
<polygon fill="black" stroke="black" stroke-width="1.5" points="68.69,-311.5 78.69,-308 68.69,-304.5 68.69,-311.5"/>
<text text-anchor="middle" x="42.22" y="-311.2" font-family="Courier New" font-size="14.00">START</text>
</g>
<!-- out -->
<g id="node2" class="node">
<title>out</title>
<ellipse fill="black" stroke="black" stroke-width="1.5" cx="560.4" cy="-223" rx="1.8" ry="1.8"/>
</g>
<!-- PUSH\nSTACK -->
<g id="node4" class="node">
<title>PUSH\nSTACK</title>
<polygon fill="grey" stroke="black" stroke-width="1.5" points="299.1,-585 227.1,-585 227.1,-513 299.1,-513 299.1,-585"/>
<text text-anchor="middle" x="263.1" y="-552.2" font-family="Courier New" font-size="14.00" fill="white">PUSH</text>
<text text-anchor="middle" x="263.1" y="-535.7" font-family="Courier New" font-size="14.00" fill="white">STACK</text>
</g>
<!-- progn&#45;&gt;PUSH\nSTACK -->
<g id="edge2" class="edge">
<title>progn&#45;&gt;PUSH\nSTACK</title>
<path fill="none" stroke="black" stroke-width="1.5" d="M100.81,-326.28C103.44,-369.68 112.15,-477.25 134.85,-504 154.73,-527.42 187.62,-538.66 214.98,-544.04"/>
<polygon fill="black" stroke="black" stroke-width="1.5" points="214.26,-547.81 224.71,-546.07 215.45,-540.92 214.26,-547.81"/>
<text text-anchor="middle" x="171.97" y="-545.2" font-family="Courier New" font-size="14.00">&#39;(&#39;</text>
</g>
<!-- RETURN\nPOINTER -->
<g id="node5" class="node">
<title>RETURN\nPOINTER</title>
<polygon fill="grey" stroke="black" stroke-width="1.5" points="448.35,-259 376.35,-259 376.35,-187 448.35,-187 448.35,-259"/>
<text text-anchor="middle" x="412.35" y="-226.2" font-family="Courier New" font-size="14.00" fill="white">RETURN</text>
<text text-anchor="middle" x="412.35" y="-209.7" font-family="Courier New" font-size="14.00" fill="white">POINTER</text>
</g>
<!-- progn&#45;&gt;RETURN\nPOINTER -->
<g id="edge4" class="edge">
<title>progn&#45;&gt;RETURN\nPOINTER</title>
<path fill="none" stroke="black" stroke-width="1.5" d="M105.17,-325.12C110.37,-338.63 119.75,-356.55 134.85,-365 198.63,-400.68 234.31,-390.82 299.1,-357 336.44,-337.51 366.29,-299.76 385.79,-269.28"/>
<polygon fill="black" stroke="black" stroke-width="1.5" points="388.71,-270.6 391.01,-260.26 382.76,-266.91 388.71,-270.6"/>
<text text-anchor="middle" x="263.1" y="-437.7" font-family="Courier New" font-size="14.00">ATOMP</text>
<text text-anchor="middle" x="263.1" y="-421.2" font-family="Courier New" font-size="14.00">&amp;</text>
<text text-anchor="middle" x="263.1" y="-404.7" font-family="Courier New" font-size="14.00">STACK</text>
<text text-anchor="middle" x="263.1" y="-388.2" font-family="Courier New" font-size="14.00">EMPTY</text>
</g>
<!-- APPEND\nSTACK -->
<g id="node6" class="node">
<title>APPEND\nSTACK</title>
<polygon fill="grey" stroke="black" stroke-width="1.5" points="299.1,-339 227.1,-339 227.1,-267 299.1,-267 299.1,-339"/>
<text text-anchor="middle" x="263.1" y="-306.2" font-family="Courier New" font-size="14.00" fill="white">APPEND</text>
<text text-anchor="middle" x="263.1" y="-289.7" font-family="Courier New" font-size="14.00" fill="white">STACK</text>
</g>
<!-- progn&#45;&gt;APPEND\nSTACK -->
<g id="edge5" class="edge">
<title>progn&#45;&gt;APPEND\nSTACK</title>
<path fill="none" stroke="black" stroke-width="1.5" d="M117.21,-307.46C140.37,-306.75 182.24,-305.46 215.04,-304.45"/>
<polygon fill="black" stroke="black" stroke-width="1.5" points="214.77,-307.9 224.66,-304.09 214.55,-300.9 214.77,-307.9"/>
<text text-anchor="middle" x="171.97" y="-342.2" font-family="Courier New" font-size="14.00">ATOMP</text>
<text text-anchor="middle" x="171.97" y="-325.7" font-family="Courier New" font-size="14.00">&amp;STACK</text>
<text text-anchor="middle" x="171.97" y="-309.2" font-family="Courier New" font-size="14.00">NOT EMPTY</text>
</g>
<!-- POP\nSTACK -->
<g id="node7" class="node">
<title>POP\nSTACK</title>
<polygon fill="grey" stroke="black" stroke-width="1.5" points="299.1,-231 227.1,-231 227.1,-159 299.1,-159 299.1,-231"/>
<text text-anchor="middle" x="263.1" y="-198.2" font-family="Courier New" font-size="14.00" fill="white">POP</text>
<text text-anchor="middle" x="263.1" y="-181.7" font-family="Courier New" font-size="14.00" fill="white">STACK</text>
</g>
<!-- progn&#45;&gt;POP\nSTACK -->
<g id="edge7" class="edge">
<title>progn&#45;&gt;POP\nSTACK</title>
<path fill="none" stroke="black" stroke-width="1.5" d="M105.66,-291.05C111.21,-277.13 120.81,-257.79 134.85,-245.5 157.65,-225.54 189.29,-212.94 215.32,-205.31"/>
<polygon fill="black" stroke="black" stroke-width="1.5" points="216.12,-208.18 224.84,-202.15 214.27,-201.43 216.12,-208.18"/>
<text text-anchor="middle" x="171.97" y="-248.2" font-family="Courier New" font-size="14.00">&#39;)&#39;</text>
</g>
<!-- POP \nSTACK -->
<g id="node8" class="node">
<title>POP \nSTACK</title>
<polygon fill="grey" stroke="black" stroke-width="1.5" points="299.1,-72 227.1,-72 227.1,0 299.1,0 299.1,-72"/>
<text text-anchor="middle" x="263.1" y="-39.2" font-family="Courier New" font-size="14.00" fill="white">POP </text>
<text text-anchor="middle" x="263.1" y="-22.7" font-family="Courier New" font-size="14.00" fill="white">STACK</text>
</g>
<!-- progn&#45;&gt;POP \nSTACK -->
<g id="edge9" class="edge">
<title>progn&#45;&gt;POP \nSTACK</title>
<path fill="none" stroke="red" stroke-width="1.5" stroke-dasharray="5,2" d="M100.08,-289.57C101.25,-257.92 107.13,-192.14 134.85,-145.5 154.96,-111.66 189.28,-83.04 217.21,-63.56"/>
<polygon fill="red" stroke="red" stroke-width="1.5" points="219.48,-66.57 225.79,-58.06 215.55,-60.78 219.48,-66.57"/>
<text text-anchor="middle" x="171.97" y="-149.2" font-family="Courier New" font-size="14.00" fill="red">EOF</text>
</g>
<!-- PUSH\nSTACK&#45;&gt;progn -->
<g id="edge3" class="edge">
<title>PUSH\nSTACK&#45;&gt;progn</title>
<path fill="none" stroke="lightgrey" stroke-width="1.5" d="M239.49,-512.73C230.94,-500.87 220.5,-488.25 209.1,-478.5 180.69,-454.2 158.11,-468.26 134.85,-439 111.63,-409.78 103.75,-366.51 101.11,-337.8"/>
<polygon fill="lightgrey" stroke="lightgrey" stroke-width="1.5" points="104.47,-337.82 100.25,-328.1 97.49,-338.33 104.47,-337.82"/>
<text text-anchor="middle" x="171.97" y="-481.2" font-family="Courier New" font-size="14.00" fill="lightgrey">JMP</text>
</g>
<!-- RETURN\nPOINTER&#45;&gt;out -->
<g id="edge12" class="edge">
<title>RETURN\nPOINTER&#45;&gt;out</title>
<path fill="none" stroke="black" stroke-width="1.5" d="M448.7,-223C480.15,-223 524.42,-223 546.22,-223"/>
<polygon fill="black" stroke="black" stroke-width="1.5" points="546.21,-226.5 556.21,-223 546.21,-219.5 546.21,-226.5"/>
<text text-anchor="middle" x="503.47" y="-226.2" font-family="Courier New" font-size="14.00">PROGN END</text>
</g>
<!-- APPEND\nSTACK&#45;&gt;progn -->
<g id="edge6" class="edge">
<title>APPEND\nSTACK&#45;&gt;progn</title>
<path fill="none" stroke="lightgrey" stroke-width="1.5" d="M226.62,-284.09C220.91,-281.78 214.94,-279.78 209.1,-278.5 176.87,-271.41 165.85,-267.18 134.85,-278.5 129.67,-280.39 124.73,-283.42 120.28,-286.84"/>
<polygon fill="lightgrey" stroke="lightgrey" stroke-width="1.5" points="117.6,-284.41 112.4,-293.64 122.23,-289.67 117.6,-284.41"/>
<text text-anchor="middle" x="171.97" y="-281.2" font-family="Courier New" font-size="14.00" fill="lightgrey">JMP</text>
</g>
<!-- POP\nSTACK&#45;&gt;progn -->
<g id="edge8" class="edge">
<title>POP\nSTACK&#45;&gt;progn</title>
<path fill="none" stroke="lightgrey" stroke-width="1.5" d="M226.67,-179.81C198.94,-170.52 160.84,-163.81 134.85,-183.5 119.77,-194.92 109.38,-245.23 104.04,-278.3"/>
<polygon fill="lightgrey" stroke="lightgrey" stroke-width="1.5" points="100.3,-277.59 102.24,-288.01 107.22,-278.66 100.3,-277.59"/>
<text text-anchor="middle" x="171.97" y="-187.2" font-family="Courier New" font-size="14.00" fill="lightgrey">JMP</text>
</g>
<!-- POP \nSTACK&#45;&gt;RETURN\nPOINTER -->
<g id="edge11" class="edge">
<title>POP \nSTACK&#45;&gt;RETURN\nPOINTER</title>
<path fill="none" stroke="black" stroke-width="1.5" d="M292.84,-72.5C316.46,-102.49 350.03,-145.13 375.42,-177.37"/>
<polygon fill="black" stroke="black" stroke-width="1.5" points="372.75,-179.9 381.68,-185.59 378.24,-175.57 372.75,-179.9"/>
<text text-anchor="middle" x="337.72" y="-171.7" font-family="Courier New" font-size="14.00">STACK</text>
<text text-anchor="middle" x="337.72" y="-155.2" font-family="Courier New" font-size="14.00">EMPTY</text>
</g>
<!-- POP \nSTACK&#45;&gt;POP \nSTACK -->
<g id="edge10" class="edge">
<title>POP \nSTACK&#45;&gt;POP \nSTACK</title>
<path fill="none" stroke="black" stroke-width="1.5" d="M249.6,-72.31C247.52,-91.08 252.02,-108 263.1,-108 271.75,-108 276.39,-97.67 277.02,-84.2"/>
<polygon fill="black" stroke="black" stroke-width="1.5" points="280.45,-84.18 276.6,-74.31 273.45,-84.42 280.45,-84.18"/>
<text text-anchor="middle" x="263.1" y="-127.7" font-family="Courier New" font-size="14.00">STACK</text>
<text text-anchor="middle" x="263.1" y="-111.2" font-family="Courier New" font-size="14.00">NOT EMPTY</text>
</g>
</g>
</svg>
