<?xml version="1.0" encoding="UTF-8" standalone="no"?>
<!DOCTYPE svg PUBLIC "-//W3C//DTD SVG 1.1//EN"
 "http://www.w3.org/Graphics/SVG/1.1/DTD/svg11.dtd">
<!-- Generated by graphviz version 7.0.5 (20221223.1930)
 -->
<!-- Title: example Pages: 1 -->
<svg width="395pt" height="169pt"
 viewBox="0.00 0.00 394.68 169.00" xmlns="http://www.w3.org/2000/svg" xmlns:xlink="http://www.w3.org/1999/xlink">
<g id="graph0" class="graph" transform="scale(1 1) rotate(0) translate(4 165)">
<title>example</title>
<polygon fill="white" stroke="none" points="-4,4 -4,-165 390.68,-165 390.68,4 -4,4"/>
<!-- node_sub_0 -->
<g id="node1" class="node">
<title>node_sub_0</title>
<ellipse fill="none" stroke="black" cx="22.75" cy="-48" rx="23" ry="23"/>
<text text-anchor="middle" x="22.75" y="-44.3" font-family="Times,serif" font-size="14.00">sub</text>
</g>
<!-- node1_mul_1 -->
<g id="node2" class="node">
<title>node1_mul_1</title>
<ellipse fill="none" stroke="black" cx="106.19" cy="-79" rx="24.9" ry="24.9"/>
<text text-anchor="middle" x="106.19" y="-75.3" font-family="Times,serif" font-size="14.00">mul</text>
</g>
<!-- node_sub_0&#45;&gt;node1_mul_1 -->
<g id="edge1" class="edge">
<title>node_sub_0&#45;&gt;node1_mul_1</title>
<path fill="none" stroke="black" d="M44.72,-55.98C53.06,-59.16 62.85,-62.88 72.09,-66.4"/>
<polygon fill="black" stroke="black" points="70.57,-69.57 81.16,-69.85 73.06,-63.02 70.57,-69.57"/>
</g>
<!-- node2_5_1 -->
<g id="node3" class="node">
<title>node2_5_1</title>
<ellipse fill="none" stroke="black" cx="106.19" cy="-18" rx="18" ry="18"/>
<text text-anchor="middle" x="106.19" y="-14.3" font-family="Times,serif" font-size="14.00">5</text>
</g>
<!-- node_sub_0&#45;&gt;node2_5_1 -->
<g id="edge2" class="edge">
<title>node_sub_0&#45;&gt;node2_5_1</title>
<path fill="none" stroke="black" d="M44.72,-40.27C54.94,-36.51 67.34,-31.94 78.25,-27.93"/>
<polygon fill="black" stroke="black" points="79.32,-31.26 87.5,-24.52 76.9,-24.69 79.32,-31.26"/>
</g>
<!-- node11_add_2 -->
<g id="node4" class="node">
<title>node11_add_2</title>
<ellipse fill="none" stroke="black" cx="190.29" cy="-109" rx="23.3" ry="23.3"/>
<text text-anchor="middle" x="190.29" y="-105.3" font-family="Times,serif" font-size="14.00">add</text>
</g>
<!-- node1_mul_1&#45;&gt;node11_add_2 -->
<g id="edge3" class="edge">
<title>node1_mul_1&#45;&gt;node11_add_2</title>
<path fill="none" stroke="black" d="M130.06,-87.36C138.49,-90.44 148.21,-93.99 157.3,-97.31"/>
<polygon fill="black" stroke="black" points="155.94,-100.54 166.53,-100.68 158.34,-93.96 155.94,-100.54"/>
</g>
<!-- node12_4_2 -->
<g id="node5" class="node">
<title>node12_4_2</title>
<ellipse fill="none" stroke="black" cx="190.29" cy="-50" rx="18" ry="18"/>
<text text-anchor="middle" x="190.29" y="-46.3" font-family="Times,serif" font-size="14.00">4</text>
</g>
<!-- node1_mul_1&#45;&gt;node12_4_2 -->
<g id="edge4" class="edge">
<title>node1_mul_1&#45;&gt;node12_4_2</title>
<path fill="none" stroke="black" d="M130.06,-70.92C140.03,-67.4 151.78,-63.25 162.18,-59.58"/>
<polygon fill="black" stroke="black" points="163.1,-62.96 171.36,-56.33 160.77,-56.36 163.1,-62.96"/>
</g>
<!-- node111_1_3 -->
<g id="node6" class="node">
<title>node111_1_3</title>
<ellipse fill="none" stroke="black" cx="282.18" cy="-143" rx="18" ry="18"/>
<text text-anchor="middle" x="282.18" y="-139.3" font-family="Times,serif" font-size="14.00">1</text>
</g>
<!-- node11_add_2&#45;&gt;node111_1_3 -->
<g id="edge5" class="edge">
<title>node11_add_2&#45;&gt;node111_1_3</title>
<path fill="none" stroke="black" d="M212.59,-117.06C225.09,-121.78 240.99,-127.8 254.33,-132.84"/>
<polygon fill="black" stroke="black" points="252.8,-136.01 263.4,-136.27 255.28,-129.46 252.8,-136.01"/>
</g>
<!-- node112_power_3 -->
<g id="node7" class="node">
<title>node112_power_3</title>
<ellipse fill="none" stroke="black" cx="282.18" cy="-75" rx="32.49" ry="32.49"/>
<text text-anchor="middle" x="282.18" y="-71.3" font-family="Times,serif" font-size="14.00">power</text>
</g>
<!-- node11_add_2&#45;&gt;node112_power_3 -->
<g id="edge6" class="edge">
<title>node11_add_2&#45;&gt;node112_power_3</title>
<path fill="none" stroke="black" d="M212.59,-100.94C221.04,-97.75 231.05,-93.96 240.77,-90.28"/>
<polygon fill="black" stroke="black" points="242,-93.56 250.12,-86.75 239.52,-87.01 242,-93.56"/>
</g>
<!-- node1121_2_4 -->
<g id="node8" class="node">
<title>node1121_2_4</title>
<ellipse fill="none" stroke="black" cx="368.68" cy="-102" rx="18" ry="18"/>
<text text-anchor="middle" x="368.68" y="-98.3" font-family="Times,serif" font-size="14.00">2</text>
</g>
<!-- node112_power_3&#45;&gt;node1121_2_4 -->
<g id="edge7" class="edge">
<title>node112_power_3&#45;&gt;node1121_2_4</title>
<path fill="none" stroke="black" d="M313.69,-84.75C322.4,-87.53 331.83,-90.54 340.34,-93.26"/>
<polygon fill="black" stroke="black" points="339.18,-96.57 349.77,-96.28 341.31,-89.9 339.18,-96.57"/>
</g>
<!-- node1122_3_4 -->
<g id="node9" class="node">
<title>node1122_3_4</title>
<ellipse fill="none" stroke="black" cx="368.68" cy="-48" rx="18" ry="18"/>
<text text-anchor="middle" x="368.68" y="-44.3" font-family="Times,serif" font-size="14.00">3</text>
</g>
<!-- node112_power_3&#45;&gt;node1122_3_4 -->
<g id="edge8" class="edge">
<title>node112_power_3&#45;&gt;node1122_3_4</title>
<path fill="none" stroke="black" d="M313.69,-65.25C322.4,-62.47 331.83,-59.46 340.34,-56.74"/>
<polygon fill="black" stroke="black" points="341.31,-60.1 349.77,-53.72 339.18,-53.43 341.31,-60.1"/>
</g>
</g>
</svg>
