<?xml version="1.0" encoding="UTF-8" standalone="no"?>
<!DOCTYPE svg PUBLIC "-//W3C//DTD SVG 1.1//EN"
 "http://www.w3.org/Graphics/SVG/1.1/DTD/svg11.dtd">
<!-- Generated by graphviz version 7.0.5 (20221223.1930)
 -->
<!-- Title: calc Pages: 1 -->
<svg width="1245pt" height="454pt"
 viewBox="0.00 0.00 1245.03 454.30" xmlns="http://www.w3.org/2000/svg" xmlns:xlink="http://www.w3.org/1999/xlink">
<g id="graph0" class="graph" transform="scale(1 1) rotate(0) translate(4 450.3)">
<title>calc</title>
<polygon fill="white" stroke="none" points="-4,4 -4,-450.3 1241.03,-450.3 1241.03,4 -4,4"/>
<!-- Expr -->
<g id="node1" class="node">
<title>Expr</title>
<ellipse fill="none" stroke="black" cx="27.95" cy="-108" rx="27.9" ry="27.9"/>
<text text-anchor="middle" x="27.95" y="-104.3" font-family="Times,serif" font-size="14.00">Expr</text>
</g>
<!-- Sum -->
<g id="node2" class="node">
<title>Sum</title>
<ellipse fill="none" stroke="black" cx="119.19" cy="-200" rx="27.1" ry="27.1"/>
<text text-anchor="middle" x="119.19" y="-196.3" font-family="Times,serif" font-size="14.00">Sum</text>
</g>
<!-- Expr&#45;&gt;Sum -->
<g id="edge1" class="edge">
<title>Expr&#45;&gt;Sum</title>
<path fill="none" stroke="black" d="M47.87,-127.51C60.62,-140.65 77.61,-158.16 91.7,-172.68"/>
<polygon fill="black" stroke="black" points="89.07,-175.01 98.55,-179.75 94.09,-170.13 89.07,-175.01"/>
</g>
<!-- Product -->
<g id="node3" class="node">
<title>Product</title>
<ellipse fill="none" stroke="black" cx="454.02" cy="-234" rx="38.19" ry="38.19"/>
<text text-anchor="middle" x="454.02" y="-230.3" font-family="Times,serif" font-size="14.00">Product</text>
</g>
<!-- Sum&#45;&gt;Product -->
<g id="edge2" class="edge">
<title>Sum&#45;&gt;Product</title>
<path fill="none" stroke="black" d="M146.46,-200.81C193.44,-202.5 294.89,-207.28 379.68,-219 388.09,-220.16 396.99,-221.71 405.58,-223.37"/>
<polygon fill="black" stroke="black" points="404.64,-226.75 415.14,-225.29 406.02,-219.89 404.64,-226.75"/>
</g>
<!-- _Sum_1 -->
<g id="node4" class="node">
<title>_Sum_1</title>
<ellipse fill="none" stroke="black" cx="222.79" cy="-268" rx="40.09" ry="40.09"/>
<text text-anchor="middle" x="222.79" y="-264.3" font-family="Times,serif" font-size="14.00">_Sum_1</text>
</g>
<!-- Sum&#45;&gt;_Sum_1 -->
<g id="edge3" class="edge">
<title>Sum&#45;&gt;_Sum_1</title>
<path fill="none" stroke="black" d="M142.24,-214.75C153.23,-222.11 166.89,-231.26 179.78,-239.88"/>
<polygon fill="black" stroke="black" points="177.46,-242.54 187.72,-245.2 181.35,-236.73 177.46,-242.54"/>
</g>
<!-- Power -->
<g id="node5" class="node">
<title>Power</title>
<ellipse fill="none" stroke="black" cx="857.1" cy="-194" rx="33.29" ry="33.29"/>
<text text-anchor="middle" x="857.1" y="-190.3" font-family="Times,serif" font-size="14.00">Power</text>
</g>
<!-- Product&#45;&gt;Power -->
<g id="edge4" class="edge">
<title>Product&#45;&gt;Power</title>
<path fill="none" stroke="black" d="M490.47,-222.14C502.39,-218.62 515.83,-215.13 528.37,-213 628.92,-195.91 749.05,-193.43 812.24,-193.48"/>
<polygon fill="black" stroke="black" points="812.21,-196.98 822.22,-193.52 812.23,-189.98 812.21,-196.98"/>
</g>
<!-- _Product_1 -->
<g id="node6" class="node">
<title>_Product_1</title>
<ellipse fill="none" stroke="black" cx="579.71" cy="-273" rx="51.19" ry="51.19"/>
<text text-anchor="middle" x="579.71" y="-269.3" font-family="Times,serif" font-size="14.00">_Product_1</text>
</g>
<!-- Product&#45;&gt;_Product_1 -->
<g id="edge5" class="edge">
<title>Product&#45;&gt;_Product_1</title>
<path fill="none" stroke="black" d="M490.8,-245.28C499.92,-248.16 509.96,-251.32 519.9,-254.45"/>
<polygon fill="black" stroke="black" points="518.56,-257.7 529.15,-257.37 520.66,-251.03 518.56,-257.7"/>
</g>
<!-- _Sum_2 -->
<g id="node11" class="node">
<title>_Sum_2</title>
<ellipse fill="none" stroke="black" cx="339.38" cy="-268" rx="40.09" ry="40.09"/>
<text text-anchor="middle" x="339.38" y="-264.3" font-family="Times,serif" font-size="14.00">_Sum_2</text>
</g>
<!-- _Sum_1&#45;&gt;_Sum_2 -->
<g id="edge10" class="edge">
<title>_Sum_1&#45;&gt;_Sum_2</title>
<path fill="none" stroke="black" d="M263.22,-268C271.06,-268 279.38,-268 287.53,-268"/>
<polygon fill="black" stroke="black" points="287.36,-271.5 297.36,-268 287.36,-264.5 287.36,-271.5"/>
</g>
<!-- Value -->
<g id="node7" class="node">
<title>Value</title>
<ellipse fill="none" stroke="black" cx="990.59" cy="-104" rx="30.59" ry="30.59"/>
<text text-anchor="middle" x="990.59" y="-100.3" font-family="Times,serif" font-size="14.00">Value</text>
</g>
<!-- Power&#45;&gt;Value -->
<g id="edge6" class="edge">
<title>Power&#45;&gt;Value</title>
<path fill="none" stroke="black" d="M885.02,-175.57C905.44,-161.59 933.65,-142.29 955.62,-127.25"/>
<polygon fill="black" stroke="black" points="957.39,-130.28 963.67,-121.74 953.44,-124.5 957.39,-130.28"/>
</g>
<!-- _Power_1 -->
<g id="node8" class="node">
<title>_Power_1</title>
<ellipse fill="none" stroke="black" cx="990.59" cy="-199" rx="46.29" ry="46.29"/>
<text text-anchor="middle" x="990.59" y="-195.3" font-family="Times,serif" font-size="14.00">_Power_1</text>
</g>
<!-- Power&#45;&gt;_Power_1 -->
<g id="edge7" class="edge">
<title>Power&#45;&gt;_Power_1</title>
<path fill="none" stroke="black" d="M890.6,-195.24C903.32,-195.72 918.3,-196.29 932.7,-196.84"/>
<polygon fill="black" stroke="black" points="932.43,-200.33 942.55,-197.21 932.69,-193.33 932.43,-200.33"/>
</g>
<!-- _Product_2 -->
<g id="node15" class="node">
<title>_Product_2</title>
<ellipse fill="none" stroke="black" cx="718.41" cy="-273" rx="51.19" ry="51.19"/>
<text text-anchor="middle" x="718.41" y="-269.3" font-family="Times,serif" font-size="14.00">_Product_2</text>
</g>
<!-- _Product_1&#45;&gt;_Product_2 -->
<g id="edge15" class="edge">
<title>_Product_1&#45;&gt;_Product_2</title>
<path fill="none" stroke="black" d="M631.22,-273C639.19,-273 647.49,-273 655.67,-273"/>
<polygon fill="black" stroke="black" points="655.59,-276.5 665.59,-273 655.59,-269.5 655.59,-276.5"/>
</g>
<!-- Number -->
<g id="node9" class="node">
<title>Number</title>
<ellipse fill="none" stroke="black" cx="1118.88" cy="-147" rx="40.09" ry="40.09"/>
<text text-anchor="middle" x="1118.88" y="-143.3" font-family="Times,serif" font-size="14.00">Number</text>
</g>
<!-- Value&#45;&gt;Number -->
<g id="edge8" class="edge">
<title>Value&#45;&gt;Number</title>
<path fill="none" stroke="black" d="M1019.93,-113.65C1034.61,-118.65 1052.93,-124.89 1069.74,-130.61"/>
<polygon fill="black" stroke="black" points="1068.5,-133.88 1079.09,-133.79 1070.75,-127.26 1068.5,-133.88"/>
</g>
<!-- _Value_1 -->
<g id="node10" class="node">
<title>_Value_1</title>
<ellipse fill="none" stroke="black" cx="1118.88" cy="-45" rx="44.39" ry="44.39"/>
<text text-anchor="middle" x="1118.88" y="-41.3" font-family="Times,serif" font-size="14.00">_Value_1</text>
</g>
<!-- Value&#45;&gt;_Value_1 -->
<g id="edge9" class="edge">
<title>Value&#45;&gt;_Value_1</title>
<path fill="none" stroke="black" d="M1018.68,-91.34C1033.09,-84.61 1051.25,-76.13 1068.1,-68.26"/>
<polygon fill="black" stroke="black" points="1069.41,-71.5 1076.99,-64.1 1066.45,-65.16 1069.41,-71.5"/>
</g>
<!-- _Power_2 -->
<g id="node17" class="node">
<title>_Power_2</title>
<ellipse fill="none" stroke="black" cx="1118.88" cy="-262" rx="46.29" ry="46.29"/>
<text text-anchor="middle" x="1118.88" y="-258.3" font-family="Times,serif" font-size="14.00">_Power_2</text>
</g>
<!-- _Power_1&#45;&gt;_Power_2 -->
<g id="edge20" class="edge">
<title>_Power_1&#45;&gt;_Power_2</title>
<path fill="none" stroke="black" d="M1032.59,-219.45C1043.51,-224.9 1055.44,-230.85 1066.82,-236.53"/>
<polygon fill="black" stroke="black" points="1065.22,-239.64 1075.73,-240.97 1068.34,-233.38 1065.22,-239.64"/>
</g>
<!-- _Value_1&#45;&gt;Expr -->
<g id="edge23" class="edge">
<title>_Value_1&#45;&gt;Expr</title>
<path fill="none" stroke="black" d="M1074.21,-45C1022.59,-45 934.09,-45 858.1,-45 221.79,-45 221.79,-45 221.79,-45 163.68,-45 100.37,-71.17 62.7,-89.77"/>
<polygon fill="black" stroke="black" points="61.48,-86.47 54.13,-94.11 64.64,-92.72 61.48,-86.47"/>
</g>
<!-- ( -->
<g id="node19" class="node">
<title>(</title>
<ellipse fill="none" stroke="black" cx="1219.03" cy="-18" rx="18" ry="18"/>
<text text-anchor="middle" x="1219.03" y="-14.3" font-family="Times,serif" font-size="14.00">(</text>
</g>
<!-- _Value_1&#45;&gt;( -->
<g id="edge24" class="edge">
<title>_Value_1&#45;&gt;(</title>
<path fill="none" stroke="black" d="M1162.07,-33.39C1171.75,-30.73 1181.8,-27.97 1190.66,-25.53"/>
<polygon fill="black" stroke="black" points="1191.33,-28.97 1200.04,-22.95 1189.47,-22.23 1191.33,-28.97"/>
</g>
<!-- ) -->
<g id="node20" class="node">
<title>)</title>
<ellipse fill="none" stroke="black" cx="1219.03" cy="-72" rx="18" ry="18"/>
<text text-anchor="middle" x="1219.03" y="-68.3" font-family="Times,serif" font-size="14.00">)</text>
</g>
<!-- _Value_1&#45;&gt;) -->
<g id="edge25" class="edge">
<title>_Value_1&#45;&gt;)</title>
<path fill="none" stroke="black" d="M1162.07,-56.61C1171.75,-59.27 1181.8,-62.03 1190.66,-64.47"/>
<polygon fill="black" stroke="black" points="1189.47,-67.77 1200.04,-67.05 1191.33,-61.03 1189.47,-67.77"/>
</g>
<!-- _Sum_2&#45;&gt;Product -->
<g id="edge11" class="edge">
<title>_Sum_2&#45;&gt;Product</title>
<path fill="none" stroke="black" d="M378.2,-256.58C387.21,-253.87 396.92,-250.93 406.27,-248.11"/>
<polygon fill="black" stroke="black" points="407.01,-251.55 415.57,-245.31 404.98,-244.84 407.01,-251.55"/>
</g>
<!-- _Sum_3 -->
<g id="node12" class="node">
<title>_Sum_3</title>
<ellipse fill="none" stroke="black" cx="857.1" cy="-406" rx="40.09" ry="40.09"/>
<text text-anchor="middle" x="857.1" y="-402.3" font-family="Times,serif" font-size="14.00">_Sum_3</text>
</g>
<!-- _Sum_2&#45;&gt;_Sum_3 -->
<g id="edge12" class="edge">
<title>_Sum_2&#45;&gt;_Sum_3</title>
<path fill="none" stroke="black" d="M377.08,-282.08C414.69,-296.18 475.04,-317.89 528.37,-333 625.72,-360.58 741.72,-384.32 806.33,-396.75"/>
<polygon fill="black" stroke="black" points="805.43,-400.14 815.91,-398.58 806.74,-393.26 805.43,-400.14"/>
</g>
<!-- + -->
<g id="node13" class="node">
<title>+</title>
<ellipse fill="none" stroke="black" cx="990.59" cy="-338" rx="18" ry="18"/>
<text text-anchor="middle" x="990.59" y="-334.3" font-family="Times,serif" font-size="14.00">+</text>
</g>
<!-- _Sum_3&#45;&gt;+ -->
<g id="edge13" class="edge">
<title>_Sum_3&#45;&gt;+</title>
<path fill="none" stroke="black" d="M893.33,-387.78C915.64,-376.24 943.98,-361.59 964.12,-351.17"/>
<polygon fill="black" stroke="black" points="965.48,-354.41 972.75,-346.71 962.26,-348.19 965.48,-354.41"/>
</g>
<!-- &#45; -->
<g id="node14" class="node">
<title>&#45;</title>
<ellipse fill="none" stroke="black" cx="990.59" cy="-401" rx="18" ry="18"/>
<text text-anchor="middle" x="990.59" y="-397.3" font-family="Times,serif" font-size="14.00">&#45;</text>
</g>
<!-- _Sum_3&#45;&gt;&#45; -->
<g id="edge14" class="edge">
<title>_Sum_3&#45;&gt;&#45;</title>
<path fill="none" stroke="black" d="M897.55,-404.5C918.03,-403.72 942.58,-402.79 961.17,-402.08"/>
<polygon fill="black" stroke="black" points="961.06,-405.59 970.92,-401.71 960.79,-398.59 961.06,-405.59"/>
</g>
<!-- _Product_2&#45;&gt;Power -->
<g id="edge16" class="edge">
<title>_Product_2&#45;&gt;Power</title>
<path fill="none" stroke="black" d="M763.03,-247.79C780.8,-237.52 801.14,-225.76 818.26,-215.87"/>
<polygon fill="black" stroke="black" points="819.71,-219.07 826.62,-211.04 816.21,-213.01 819.71,-219.07"/>
</g>
<!-- _Product_3 -->
<g id="node16" class="node">
<title>_Product_3</title>
<ellipse fill="none" stroke="black" cx="857.1" cy="-296" rx="51.19" ry="51.19"/>
<text text-anchor="middle" x="857.1" y="-292.3" font-family="Times,serif" font-size="14.00">_Product_3</text>
</g>
<!-- _Product_2&#45;&gt;_Product_3 -->
<g id="edge17" class="edge">
<title>_Product_2&#45;&gt;_Product_3</title>
<path fill="none" stroke="black" d="M769.14,-281.37C777.53,-282.78 786.32,-284.26 794.95,-285.71"/>
<polygon fill="black" stroke="black" points="794.23,-289.14 804.68,-287.35 795.4,-282.24 794.23,-289.14"/>
</g>
<!-- _Product_3&#45;&gt;+ -->
<g id="edge18" class="edge">
<title>_Product_3&#45;&gt;+</title>
<path fill="none" stroke="black" d="M906.31,-311.4C925.19,-317.43 946.14,-324.12 962.31,-329.29"/>
<polygon fill="black" stroke="black" points="961.1,-332.58 971.69,-332.28 963.23,-325.91 961.1,-332.58"/>
</g>
<!-- _Product_3&#45;&gt;&#45; -->
<g id="edge19" class="edge">
<title>_Product_3&#45;&gt;&#45;</title>
<path fill="none" stroke="black" d="M897.64,-327.61C912.33,-339.35 929.15,-352.79 944.44,-365 951.82,-370.89 959.89,-377.32 967.13,-383.1"/>
<polygon fill="black" stroke="black" points="964.57,-385.53 974.57,-389.03 968.93,-380.06 964.57,-385.53"/>
</g>
<!-- _Power_2&#45;&gt;Power -->
<g id="edge21" class="edge">
<title>_Power_2&#45;&gt;Power</title>
<path fill="none" stroke="black" d="M1072.42,-266.66C1036.67,-268.74 986.12,-268.12 944.44,-254 925.11,-247.45 906.2,-235.18 891.02,-223.43"/>
<polygon fill="black" stroke="black" points="893.25,-220.73 883.27,-217.19 888.86,-226.19 893.25,-220.73"/>
</g>
<!-- ^ -->
<g id="node18" class="node">
<title>^</title>
<ellipse fill="none" stroke="black" cx="1219.03" cy="-262" rx="18" ry="18"/>
<text text-anchor="middle" x="1219.03" y="-258.3" font-family="Times,serif" font-size="14.00">^</text>
</g>
<!-- _Power_2&#45;&gt;^ -->
<g id="edge22" class="edge">
<title>_Power_2&#45;&gt;^</title>
<path fill="none" stroke="black" d="M1165.5,-262C1173.68,-262 1181.99,-262 1189.51,-262"/>
<polygon fill="black" stroke="black" points="1189.4,-265.5 1199.4,-262 1189.4,-258.5 1189.4,-265.5"/>
</g>
</g>
</svg>
