<?xml version="1.0" encoding="UTF-8" standalone="no"?>
<!DOCTYPE svg PUBLIC "-//W3C//DTD SVG 1.1//EN"
 "http://www.w3.org/Graphics/SVG/1.1/DTD/svg11.dtd">
<!-- Generated by graphviz version 7.0.5 (20221223.1930)
 -->
<!-- Title: Calc Pages: 1 -->
<svg width="406pt" height="191pt"
 viewBox="0.00 0.00 406.00 191.00" xmlns="http://www.w3.org/2000/svg" xmlns:xlink="http://www.w3.org/1999/xlink">
<g id="graph0" class="graph" transform="scale(1 1) rotate(0) translate(4 187)">
<title>Calc</title>
<polygon fill="white" stroke="none" points="-4,4 -4,-187 402,-187 402,4 -4,4"/>
<!-- &#45; -->
<g id="node1" class="node">
<title>&#45;</title>
<ellipse fill="none" stroke="black" cx="18" cy="-30" rx="18" ry="18"/>
<text text-anchor="middle" x="18" y="-26.3" font-family="Times,serif" font-size="14.00">&#45;</text>
</g>
<!-- * -->
<g id="node2" class="node">
<title>*</title>
<ellipse fill="none" stroke="black" cx="91" cy="-72" rx="18" ry="18"/>
<text text-anchor="middle" x="91" y="-68.3" font-family="Times,serif" font-size="14.00">*</text>
</g>
<!-- &#45;&#45;&gt;* -->
<g id="edge1" class="edge">
<title>&#45;&#45;&gt;*</title>
<path fill="none" stroke="black" d="M34.06,-38.91C43.09,-44.25 54.81,-51.18 65.19,-57.32"/>
<polygon fill="black" stroke="black" points="63.27,-60.26 73.66,-62.34 66.84,-54.23 63.27,-60.26"/>
</g>
<!-- 5 -->
<g id="node3" class="node">
<title>5</title>
<ellipse fill="none" stroke="black" cx="91" cy="-18" rx="18" ry="18"/>
<text text-anchor="middle" x="91" y="-14.3" font-family="Times,serif" font-size="14.00">5</text>
</g>
<!-- &#45;&#45;&gt;5 -->
<g id="edge2" class="edge">
<title>&#45;&#45;&gt;5</title>
<path fill="none" stroke="black" d="M36.19,-27.1C43.86,-25.8 53.11,-24.24 61.76,-22.77"/>
<polygon fill="black" stroke="black" points="62.2,-26.25 71.48,-21.13 61.04,-19.35 62.2,-26.25"/>
</g>
<!-- + -->
<g id="node4" class="node">
<title>+</title>
<ellipse fill="none" stroke="black" cx="234" cy="-104" rx="18" ry="18"/>
<text text-anchor="middle" x="234" y="-100.3" font-family="Times,serif" font-size="14.00">+</text>
</g>
<!-- *&#45;&gt;+ -->
<g id="edge3" class="edge">
<title>*&#45;&gt;+</title>
<path fill="none" stroke="black" d="M109.01,-75.86C132.83,-81.27 176.41,-91.16 205.04,-97.65"/>
<polygon fill="black" stroke="black" points="203.93,-100.99 214.46,-99.79 205.48,-94.16 203.93,-100.99"/>
<text text-anchor="middle" x="162.5" y="-98.8" font-family="Times,serif" font-size="14.00"> &quot;(&quot; Expr &quot;)&quot;</text>
</g>
<!-- 4 -->
<g id="node5" class="node">
<title>4</title>
<ellipse fill="none" stroke="black" cx="234" cy="-50" rx="18" ry="18"/>
<text text-anchor="middle" x="234" y="-46.3" font-family="Times,serif" font-size="14.00">4</text>
</g>
<!-- *&#45;&gt;4 -->
<g id="edge4" class="edge">
<title>*&#45;&gt;4</title>
<path fill="none" stroke="black" d="M109.29,-69.3C133.1,-65.59 176.26,-58.85 204.78,-54.4"/>
<polygon fill="black" stroke="black" points="205.17,-57.88 214.51,-52.88 204.09,-50.97 205.17,-57.88"/>
</g>
<!-- ^ -->
<g id="node6" class="node">
<title>^</title>
<ellipse fill="none" stroke="black" cx="307" cy="-138" rx="18" ry="18"/>
<text text-anchor="middle" x="307" y="-134.3" font-family="Times,serif" font-size="14.00">^</text>
</g>
<!-- +&#45;&gt;^ -->
<g id="edge5" class="edge">
<title>+&#45;&gt;^</title>
<path fill="none" stroke="black" d="M250.76,-111.55C259.4,-115.68 270.33,-120.92 280.18,-125.63"/>
<polygon fill="black" stroke="black" points="278.39,-128.66 288.92,-129.82 281.41,-122.35 278.39,-128.66"/>
</g>
<!-- 1 -->
<g id="node7" class="node">
<title>1</title>
<ellipse fill="none" stroke="black" cx="307" cy="-84" rx="18" ry="18"/>
<text text-anchor="middle" x="307" y="-80.3" font-family="Times,serif" font-size="14.00">1</text>
</g>
<!-- +&#45;&gt;1 -->
<g id="edge6" class="edge">
<title>+&#45;&gt;1</title>
<path fill="none" stroke="black" d="M251.83,-99.26C259.78,-97.02 269.49,-94.28 278.48,-91.75"/>
<polygon fill="black" stroke="black" points="279.16,-95.2 287.84,-89.12 277.26,-88.46 279.16,-95.2"/>
</g>
<!-- 3 -->
<g id="node8" class="node">
<title>3</title>
<ellipse fill="none" stroke="black" cx="380" cy="-165" rx="18" ry="18"/>
<text text-anchor="middle" x="380" y="-161.3" font-family="Times,serif" font-size="14.00">3</text>
</g>
<!-- ^&#45;&gt;3 -->
<g id="edge7" class="edge">
<title>^&#45;&gt;3</title>
<path fill="none" stroke="black" d="M324.11,-144.13C332.46,-147.3 342.88,-151.26 352.39,-154.88"/>
<polygon fill="black" stroke="black" points="350.95,-158.08 361.54,-158.36 353.44,-151.53 350.95,-158.08"/>
</g>
<!-- 2 -->
<g id="node9" class="node">
<title>2</title>
<ellipse fill="none" stroke="black" cx="380" cy="-111" rx="18" ry="18"/>
<text text-anchor="middle" x="380" y="-107.3" font-family="Times,serif" font-size="14.00">2</text>
</g>
<!-- ^&#45;&gt;2 -->
<g id="edge8" class="edge">
<title>^&#45;&gt;2</title>
<path fill="none" stroke="black" d="M324.11,-131.87C332.46,-128.7 342.88,-124.74 352.39,-121.12"/>
<polygon fill="black" stroke="black" points="353.44,-124.47 361.54,-117.64 350.95,-117.92 353.44,-124.47"/>
</g>
</g>
</svg>
