<?xml version="1.0" encoding="UTF-8" standalone="no"?>
<!DOCTYPE svg PUBLIC "-//W3C//DTD SVG 1.1//EN"
 "http://www.w3.org/Graphics/SVG/1.1/DTD/svg11.dtd">
<!-- Generated by graphviz version 7.0.5 (20221223.1930)
 -->
<!-- Pages: 1 -->
<svg width="325pt" height="67pt"
 viewBox="0.00 0.00 325.20 67.00" xmlns="http://www.w3.org/2000/svg" xmlns:xlink="http://www.w3.org/1999/xlink">
<g id="graph0" class="graph" transform="scale(1 1) rotate(0) translate(4 63)">
<polygon fill="white" stroke="none" points="-4,4 -4,-63 321.2,-63 321.2,4 -4,4"/>
<!-- qi -->
<g id="node1" class="node">
<title>qi</title>
<ellipse fill="black" stroke="black" cx="1.8" cy="-41" rx="1.8" ry="1.8"/>
</g>
<!-- 1 -->
<g id="node3" class="node">
<title>1</title>
<ellipse fill="none" stroke="black" cx="58.6" cy="-41" rx="18" ry="18"/>
<text text-anchor="middle" x="58.6" y="-37.3" font-family="Times,serif" font-size="14.00">1</text>
</g>
<!-- qi&#45;&gt;1 -->
<g id="edge1" class="edge">
<title>qi&#45;&gt;1</title>
<path fill="none" stroke="black" d="M3.75,-41C6.96,-41 17.8,-41 28.92,-41"/>
<polygon fill="black" stroke="black" points="28.79,-44.5 38.79,-41 28.78,-37.5 28.79,-44.5"/>
</g>
<!-- qa -->
<g id="node2" class="node">
<title>qa</title>
<ellipse fill="black" stroke="black" cx="315.4" cy="-41" rx="1.8" ry="1.8"/>
</g>
<!-- 3 -->
<g id="node4" class="node">
<title>3</title>
<ellipse fill="none" stroke="black" cx="258.6" cy="-41" rx="18" ry="18"/>
<text text-anchor="middle" x="258.6" y="-37.3" font-family="Times,serif" font-size="14.00">3</text>
</g>
<!-- 1&#45;&gt;3 -->
<g id="edge4" class="edge">
<title>1&#45;&gt;3</title>
<path fill="none" stroke="black" d="M76.17,-46.17C81.94,-47.73 88.5,-49.23 94.6,-50 151.04,-57.14 166.16,-57.14 222.6,-50 224.98,-49.7 227.44,-49.29 229.88,-48.8"/>
<polygon fill="black" stroke="black" points="230.63,-52.22 239.56,-46.52 229.02,-45.41 230.63,-52.22"/>
</g>
<!-- 2 -->
<g id="node5" class="node">
<title>2</title>
<ellipse fill="none" stroke="black" cx="158.6" cy="-18" rx="18" ry="18"/>
<text text-anchor="middle" x="158.6" y="-14.3" font-family="Times,serif" font-size="14.00">2</text>
</g>
<!-- 1&#45;&gt;2 -->
<g id="edge3" class="edge">
<title>1&#45;&gt;2</title>
<path fill="none" stroke="black" d="M76.22,-37.1C90.78,-33.68 112.23,-28.65 129.45,-24.61"/>
<polygon fill="black" stroke="black" points="130.16,-28.04 139.09,-22.34 128.56,-21.22 130.16,-28.04"/>
<text text-anchor="middle" x="108.6" y="-35.8" font-family="Times,serif" font-size="14.00">ABB</text>
</g>
<!-- 3&#45;&gt;qa -->
<g id="edge2" class="edge">
<title>3&#45;&gt;qa</title>
<path fill="none" stroke="black" d="M276.94,-41C285.02,-41 294.46,-41 301.85,-41"/>
<polygon fill="black" stroke="black" points="301.69,-44.5 311.69,-41 301.69,-37.5 301.69,-44.5"/>
</g>
<!-- 2&#45;&gt;3 -->
<g id="edge5" class="edge">
<title>2&#45;&gt;3</title>
<path fill="none" stroke="black" d="M176.22,-21.9C190.78,-25.32 212.23,-30.35 229.45,-34.39"/>
<polygon fill="black" stroke="black" points="228.56,-37.78 239.09,-36.66 230.16,-30.96 228.56,-37.78"/>
<text text-anchor="middle" x="208.6" y="-35.8" font-family="Times,serif" font-size="14.00">ABB</text>
</g>
</g>
</svg>
