<?xml version="1.0" encoding="UTF-8" standalone="no"?>
<!DOCTYPE svg PUBLIC "-//W3C//DTD SVG 1.1//EN"
 "http://www.w3.org/Graphics/SVG/1.1/DTD/svg11.dtd">
<!-- Generated by graphviz version 8.1.0 (20230707.0739)
 -->
<!-- Pages: 1 -->
<svg width="91pt" height="275pt"
 viewBox="0.00 0.00 90.75 275.00" xmlns="http://www.w3.org/2000/svg" xmlns:xlink="http://www.w3.org/1999/xlink">
<g id="graph0" class="graph" transform="scale(1 1) rotate(0) translate(4 271)">
<!-- Compile\nLibaries -->
<g id="node1" class="node">
<title>Compile\nLibaries</title>
<polygon fill="none" stroke="black" points="73,-267 9.75,-267 9.75,-226 73,-226 73,-267"/>
<text text-anchor="middle" x="41.38" y="-249.7" font-family="Times,serif" font-size="14.00">Compile</text>
<text text-anchor="middle" x="41.38" y="-233.2" font-family="Times,serif" font-size="14.00">Libaries</text>
</g>
<!-- Compile\nUser Scripts -->
<g id="node2" class="node">
<title>Compile\nUser Scripts</title>
<polygon fill="none" stroke="black" points="82.75,-190 0,-190 0,-149 82.75,-149 82.75,-190"/>
<text text-anchor="middle" x="41.38" y="-172.7" font-family="Times,serif" font-size="14.00">Compile</text>
<text text-anchor="middle" x="41.38" y="-156.2" font-family="Times,serif" font-size="14.00">User Scripts</text>
</g>
<!-- Compile\nLibaries&#45;&gt;Compile\nUser Scripts -->
<g id="edge1" class="edge">
<title>Compile\nLibaries&#45;&gt;Compile\nUser Scripts</title>
<path fill="none" stroke="black" d="M41.38,-225.79C41.38,-218.28 41.38,-209.51 41.38,-201.21"/>
<polygon fill="black" stroke="black" points="44.88,-201.33 41.38,-191.33 37.88,-201.33 44.88,-201.33"/>
</g>
<!-- Pack\nihx to hex -->
<g id="node3" class="node">
<title>Pack\nihx to hex</title>
<polygon fill="none" stroke="black" points="76.75,-113 6,-113 6,-72 76.75,-72 76.75,-113"/>
<text text-anchor="middle" x="41.38" y="-95.7" font-family="Times,serif" font-size="14.00">Pack</text>
<text text-anchor="middle" x="41.38" y="-79.2" font-family="Times,serif" font-size="14.00">ihx to hex</text>
</g>
<!-- Compile\nUser Scripts&#45;&gt;Pack\nihx to hex -->
<g id="edge2" class="edge">
<title>Compile\nUser Scripts&#45;&gt;Pack\nihx to hex</title>
<path fill="none" stroke="black" d="M41.38,-148.79C41.38,-141.28 41.38,-132.51 41.38,-124.21"/>
<polygon fill="black" stroke="black" points="44.88,-124.33 41.38,-114.33 37.88,-124.33 44.88,-124.33"/>
</g>
<!-- Flash -->
<g id="node4" class="node">
<title>Flash</title>
<polygon fill="none" stroke="black" points="68.38,-36 14.38,-36 14.38,0 68.38,0 68.38,-36"/>
<text text-anchor="middle" x="41.38" y="-12.95" font-family="Times,serif" font-size="14.00">Flash</text>
</g>
<!-- Pack\nihx to hex&#45;&gt;Flash -->
<g id="edge3" class="edge">
<title>Pack\nihx to hex&#45;&gt;Flash</title>
<path fill="none" stroke="black" d="M41.38,-71.69C41.38,-64.17 41.38,-55.44 41.38,-47.29"/>
<polygon fill="black" stroke="black" points="44.88,-47.32 41.38,-37.32 37.88,-47.32 44.88,-47.32"/>
</g>
</g>
</svg>
