<?xml version="1.0" encoding="UTF-8" standalone="no"?>
<!DOCTYPE svg PUBLIC "-//W3C//DTD SVG 1.1//EN"
 "http://www.w3.org/Graphics/SVG/1.1/DTD/svg11.dtd">
<!-- Generated by graphviz version 9.0.0 (20230911.1827)
 -->
<!-- Pages: 1 -->
<svg width="371pt" height="264pt"
 viewBox="0.00 0.00 371.00 263.75" xmlns="http://www.w3.org/2000/svg" xmlns:xlink="http://www.w3.org/1999/xlink">
<g id="graph0" class="graph" transform="scale(1 1) rotate(0) translate(4 259.75)">
<polygon fill="white" stroke="none" points="-4,4 -4,-259.75 367,-259.75 367,4 -4,4"/>
<!-- acquisition1171 -->
<g id="node1" class="node">
<title>acquisition1171</title>
<text text-anchor="middle" x="44.62" y="-107.45" font-family="Arial" font-size="14.00">ACQUISITION</text>
</g>
<!-- mode1172 -->
<g id="node2" class="node">
<title>mode1172</title>
<text text-anchor="middle" x="154.88" y="-197.45" font-family="Arial" font-size="14.00">Mode</text>
</g>
<!-- acquisition1171&#45;&#45;mode1172 -->
<g id="edge1" class="edge">
<title>acquisition1171&#45;&#45;mode1172</title>
<path fill="none" stroke="black" d="M45,-120.55C45,-142.31 45,-202.88 45,-202.88 45,-202.88 106.8,-202.88 137.71,-202.88"/>
</g>
<!-- equ smpl1176 -->
<g id="node6" class="node">
<title>equ smpl1176</title>
<text text-anchor="middle" x="154.88" y="-122.45" font-family="Arial" font-size="14.00">Equ Smpl</text>
</g>
<!-- acquisition1171&#45;&#45;equ smpl1176 -->
<g id="edge5" class="edge">
<title>acquisition1171&#45;&#45;equ smpl1176</title>
<path fill="none" stroke="black" d="M89.06,-115.25C109.81,-115.25 130,-115.25 130,-115.25 130,-115.25 130,-117.5 130,-120.1"/>
</g>
<!-- presist1179 -->
<g id="node9" class="node">
<title>presist1179</title>
<text text-anchor="middle" x="154.88" y="-92.45" font-family="Arial" font-size="14.00">Presist</text>
</g>
<!-- acquisition1171&#45;&#45;presist1179 -->
<g id="edge8" class="edge">
<title>acquisition1171&#45;&#45;presist1179</title>
<path fill="none" stroke="black" d="M89.2,-110.5C119.83,-110.5 155,-110.5 155,-110.5 155,-110.5 155,-108.25 155,-105.65"/>
</g>
<!-- length1182 -->
<g id="node12" class="node">
<title>length1182</title>
<text text-anchor="middle" x="154.88" y="-32.45" font-family="Arial" font-size="14.00">Length</text>
</g>
<!-- acquisition1171&#45;&#45;length1182 -->
<g id="edge11" class="edge">
<title>acquisition1171&#45;&#45;length1182</title>
<path fill="none" stroke="black" d="M45,-105.13C45,-85.97 45,-37.88 45,-37.88 45,-37.88 102.69,-37.88 134.47,-37.88"/>
</g>
<!-- norm smpl1173 -->
<g id="node3" class="node">
<title>norm smpl1173</title>
<text text-anchor="middle" x="291.75" y="-242.45" font-family="Arial" font-size="14.00">Norm Smpl</text>
</g>
<!-- mode1172&#45;&#45;norm smpl1173 -->
<g id="edge2" class="edge">
<title>mode1172&#45;&#45;norm smpl1173</title>
<path fill="none" stroke="black" d="M150,-210.71C150,-223.61 150,-247.88 150,-247.88 150,-247.88 215.48,-247.88 257.44,-247.88"/>
</g>
<!-- peak dat1174 -->
<g id="node4" class="node">
<title>peak dat1174</title>
<text text-anchor="middle" x="291.75" y="-212.45" font-family="Arial" font-size="14.00">Peak Dat</text>
</g>
<!-- mode1172&#45;&#45;peak dat1174 -->
<g id="edge3" class="edge">
<title>mode1172&#45;&#45;peak dat1174</title>
<path fill="none" stroke="black" d="M161,-210.56C161,-214.41 161,-218.25 161,-218.25 161,-218.25 225.64,-218.25 264.02,-218.25"/>
</g>
<!-- average count 2 to 2561175 -->
<g id="node5" class="node">
<title>average count 2 to 2561175</title>
<text text-anchor="middle" x="291.75" y="-182.45" font-family="Arial" font-size="14.00">Average Count 2 to 256</text>
</g>
<!-- mode1172&#45;&#45;average count 2 to 2561175 -->
<g id="edge4" class="edge">
<title>mode1172&#45;&#45;average count 2 to 2561175</title>
<path fill="none" stroke="black" d="M155,-195.19C155,-191.34 155,-187.5 155,-187.5 155,-187.5 187.34,-187.5 220.57,-187.5"/>
</g>
<!-- on1177 -->
<g id="node7" class="node">
<title>on1177</title>
<text text-anchor="middle" x="291.75" y="-152.45" font-family="Arial" font-size="14.00">On</text>
</g>
<!-- equ smpl1176&#45;&#45;on1177 -->
<g id="edge6" class="edge">
<title>equ smpl1176&#45;&#45;on1177</title>
<path fill="none" stroke="black" d="M179,-135.45C179,-144.33 179,-157.88 179,-157.88 179,-157.88 255.6,-157.88 282.52,-157.88"/>
</g>
<!-- off1178 -->
<g id="node8" class="node">
<title>off1178</title>
<text text-anchor="middle" x="291.75" y="-122.45" font-family="Arial" font-size="14.00">Off</text>
</g>
<!-- equ smpl1176&#45;&#45;off1178 -->
<g id="edge7" class="edge">
<title>equ smpl1176&#45;&#45;off1178</title>
<path fill="none" stroke="black" d="M184.24,-127.88C215.34,-127.88 262.65,-127.88 282.48,-127.88"/>
</g>
<!-- on1180 -->
<g id="node10" class="node">
<title>on1180</title>
<text text-anchor="middle" x="291.75" y="-92.45" font-family="Arial" font-size="14.00">On</text>
</g>
<!-- presist1179&#45;&#45;on1180 -->
<g id="edge9" class="edge">
<title>presist1179&#45;&#45;on1180</title>
<path fill="none" stroke="black" d="M175.37,-97.88C205.5,-97.88 260.54,-97.88 282.42,-97.88"/>
</g>
<!-- off1181 -->
<g id="node11" class="node">
<title>off1181</title>
<text text-anchor="middle" x="291.75" y="-62.45" font-family="Arial" font-size="14.00">Off</text>
</g>
<!-- presist1179&#45;&#45;off1181 -->
<g id="edge10" class="edge">
<title>presist1179&#45;&#45;off1181</title>
<path fill="none" stroke="black" d="M155,-90.3C155,-81.42 155,-67.88 155,-67.88 155,-67.88 252.35,-67.88 282.78,-67.88"/>
</g>
<!-- short1183 -->
<g id="node13" class="node">
<title>short1183</title>
<text text-anchor="middle" x="291.75" y="-32.45" font-family="Arial" font-size="14.00">Short</text>
</g>
<!-- length1182&#45;&#45;short1183 -->
<g id="edge12" class="edge">
<title>length1182&#45;&#45;short1183</title>
<path fill="none" stroke="black" d="M175.37,-37.88C202.81,-37.88 250.93,-37.88 275.82,-37.88"/>
</g>
<!-- long1184 -->
<g id="node14" class="node">
<title>long1184</title>
<text text-anchor="middle" x="291.75" y="-2.45" font-family="Arial" font-size="14.00">Long</text>
</g>
<!-- length1182&#45;&#45;long1184 -->
<g id="edge13" class="edge">
<title>length1182&#45;&#45;long1184</title>
<path fill="none" stroke="black" d="M155,-30.3C155,-21.42 155,-7.88 155,-7.88 155,-7.88 241.41,-7.88 276.86,-7.88"/>
</g>
</g>
</svg>
