<?xml version="1.0" encoding="UTF-8" standalone="no"?>
<!DOCTYPE svg PUBLIC "-//W3C//DTD SVG 1.1//EN"
 "http://www.w3.org/Graphics/SVG/1.1/DTD/svg11.dtd">
<!-- Generated by graphviz version 9.0.0 (20230911.1827)
 -->
<!-- Pages: 1 -->
<svg width="253pt" height="294pt"
 viewBox="0.00 0.00 253.25 293.75" xmlns="http://www.w3.org/2000/svg" xmlns:xlink="http://www.w3.org/1999/xlink">
<g id="graph0" class="graph" transform="scale(1 1) rotate(0) translate(4 289.75)">
<polygon fill="white" stroke="none" points="-4,4 -4,-289.75 249.25,-289.75 249.25,4 -4,4"/>
<!-- ch1/ch21131 -->
<g id="node1" class="node">
<title>ch1/ch21131</title>
<text text-anchor="middle" x="28.88" y="-137.45" font-family="Arial" font-size="14.00">CH1/CH2</text>
</g>
<!-- trace1132 -->
<g id="node2" class="node">
<title>trace1132</title>
<text text-anchor="middle" x="112.12" y="-242.45" font-family="Arial" font-size="14.00">Trace</text>
</g>
<!-- ch1/ch21131&#45;&#45;trace1132 -->
<g id="edge1" class="edge">
<title>ch1/ch21131&#45;&#45;trace1132</title>
<path fill="none" stroke="black" d="M19.25,-150.43C19.25,-174.5 19.25,-247.88 19.25,-247.88 19.25,-247.88 68.28,-247.88 95.09,-247.88"/>
</g>
<!-- price1135 -->
<g id="node5" class="node">
<title>price1135</title>
<text text-anchor="middle" x="112.12" y="-182.45" font-family="Arial" font-size="14.00">Price</text>
</g>
<!-- ch1/ch21131&#45;&#45;price1135 -->
<g id="edge4" class="edge">
<title>ch1/ch21131&#45;&#45;price1135</title>
<path fill="none" stroke="black" d="M39.25,-150.71C39.25,-163.61 39.25,-187.88 39.25,-187.88 39.25,-187.88 75.68,-187.88 97.03,-187.88"/>
</g>
<!-- bw1138 -->
<g id="node8" class="node">
<title>bw1138</title>
<text text-anchor="middle" x="112.12" y="-137.45" font-family="Arial" font-size="14.00">BW</text>
</g>
<!-- ch1/ch21131&#45;&#45;bw1138 -->
<g id="edge7" class="edge">
<title>ch1/ch21131&#45;&#45;bw1138</title>
<path fill="none" stroke="black" d="M57.52,-142.88C72.58,-142.88 90.14,-142.88 101.2,-142.88"/>
</g>
<!-- zoom1141 -->
<g id="node11" class="node">
<title>zoom1141</title>
<text text-anchor="middle" x="112.12" y="-92.45" font-family="Arial" font-size="14.00">Zoom</text>
</g>
<!-- ch1/ch21131&#45;&#45;zoom1141 -->
<g id="edge10" class="edge">
<title>ch1/ch21131&#45;&#45;zoom1141</title>
<path fill="none" stroke="black" d="M39.25,-135.04C39.25,-122.14 39.25,-97.88 39.25,-97.88 39.25,-97.88 73.3,-97.88 94.85,-97.88"/>
</g>
<!-- offset1144 -->
<g id="node14" class="node">
<title>offset1144</title>
<text text-anchor="middle" x="112.12" y="-32.45" font-family="Arial" font-size="14.00">Offset</text>
</g>
<!-- ch1/ch21131&#45;&#45;offset1144 -->
<g id="edge13" class="edge">
<title>ch1/ch21131&#45;&#45;offset1144</title>
<path fill="none" stroke="black" d="M19.25,-135.32C19.25,-111.25 19.25,-37.88 19.25,-37.88 19.25,-37.88 66.71,-37.88 93.78,-37.88"/>
</g>
<!-- on1133 -->
<g id="node3" class="node">
<title>on1133</title>
<text text-anchor="middle" x="205.88" y="-272.45" font-family="Arial" font-size="14.00">On</text>
</g>
<!-- trace1132&#45;&#45;on1133 -->
<g id="edge2" class="edge">
<title>trace1132&#45;&#45;on1133</title>
<path fill="none" stroke="black" d="M112.25,-255.45C112.25,-264.33 112.25,-277.88 112.25,-277.88 112.25,-277.88 172.87,-277.88 196.56,-277.88"/>
</g>
<!-- off1134 -->
<g id="node4" class="node">
<title>off1134</title>
<text text-anchor="middle" x="205.88" y="-242.45" font-family="Arial" font-size="14.00">Off</text>
</g>
<!-- trace1132&#45;&#45;off1134 -->
<g id="edge3" class="edge">
<title>trace1132&#45;&#45;off1134</title>
<path fill="none" stroke="black" d="M129.32,-247.88C149.2,-247.88 181.17,-247.88 196.75,-247.88"/>
</g>
<!-- auto1136 -->
<g id="node6" class="node">
<title>auto1136</title>
<text text-anchor="middle" x="205.88" y="-212.45" font-family="Arial" font-size="14.00">Auto</text>
</g>
<!-- price1135&#45;&#45;auto1136 -->
<g id="edge5" class="edge">
<title>price1135&#45;&#45;auto1136</title>
<path fill="none" stroke="black" d="M112.25,-195.45C112.25,-204.33 112.25,-217.88 112.25,-217.88 112.25,-217.88 166.02,-217.88 192.06,-217.88"/>
</g>
<!-- 1:1 to 1000:11137 -->
<g id="node7" class="node">
<title>1:1 to 1000:11137</title>
<text text-anchor="middle" x="205.88" y="-182.45" font-family="Arial" font-size="14.00">1:1 to 1000:1</text>
</g>
<!-- price1135&#45;&#45;1:1 to 1000:11137 -->
<g id="edge6" class="edge">
<title>price1135&#45;&#45;1:1 to 1000:11137</title>
<path fill="none" stroke="black" d="M127.19,-187.88C137.85,-187.88 152.67,-187.88 166.58,-187.88"/>
</g>
<!-- on1139 -->
<g id="node9" class="node">
<title>on1139</title>
<text text-anchor="middle" x="205.88" y="-152.45" font-family="Arial" font-size="14.00">On</text>
</g>
<!-- bw1138&#45;&#45;on1139 -->
<g id="edge8" class="edge">
<title>bw1138&#45;&#45;on1139</title>
<path fill="none" stroke="black" d="M123.3,-145.25C147.63,-145.25 203.25,-145.25 203.25,-145.25 203.25,-145.25 203.25,-147.5 203.25,-150.1"/>
</g>
<!-- off1140 -->
<g id="node10" class="node">
<title>off1140</title>
<text text-anchor="middle" x="205.88" y="-122.45" font-family="Arial" font-size="14.00">Off</text>
</g>
<!-- bw1138&#45;&#45;off1140 -->
<g id="edge9" class="edge">
<title>bw1138&#45;&#45;off1140</title>
<path fill="none" stroke="black" d="M123.27,-140.5C148.78,-140.5 209.25,-140.5 209.25,-140.5 209.25,-140.5 209.25,-138.25 209.25,-135.65"/>
</g>
<!-- off1142 -->
<g id="node12" class="node">
<title>off1142</title>
<text text-anchor="middle" x="205.88" y="-92.45" font-family="Arial" font-size="14.00">Off</text>
</g>
<!-- zoom1141&#45;&#45;off1142 -->
<g id="edge11" class="edge">
<title>zoom1141&#45;&#45;off1142</title>
<path fill="none" stroke="black" d="M129.32,-100.5C149.2,-100.5 181.17,-100.5 196.75,-100.5"/>
</g>
<!-- x1.00 to 2.501143 -->
<g id="node13" class="node">
<title>x1.00 to 2.501143</title>
<text text-anchor="middle" x="205.88" y="-62.45" font-family="Arial" font-size="14.00">x1.00 to 2.50</text>
</g>
<!-- zoom1141&#45;&#45;x1.00 to 2.501143 -->
<g id="edge12" class="edge">
<title>zoom1141&#45;&#45;x1.00 to 2.501143</title>
<path fill="none" stroke="black" d="M129.46,-95.25C150.23,-95.25 182.25,-95.25 182.25,-95.25 182.25,-95.25 182.25,-83.74 182.25,-75.65"/>
</g>
<!-- division1145 -->
<g id="node15" class="node">
<title>division1145</title>
<text text-anchor="middle" x="205.88" y="-32.45" font-family="Arial" font-size="14.00">Division</text>
</g>
<!-- offset1144&#45;&#45;division1145 -->
<g id="edge14" class="edge">
<title>offset1144&#45;&#45;division1145</title>
<path fill="none" stroke="black" d="M130.2,-37.88C145.1,-37.88 166.33,-37.88 182.52,-37.88"/>
</g>
<!-- volts1146 -->
<g id="node16" class="node">
<title>volts1146</title>
<text text-anchor="middle" x="205.88" y="-2.45" font-family="Arial" font-size="14.00">Volts</text>
</g>
<!-- offset1144&#45;&#45;volts1146 -->
<g id="edge15" class="edge">
<title>offset1144&#45;&#45;volts1146</title>
<path fill="none" stroke="black" d="M112.25,-30.3C112.25,-21.42 112.25,-7.88 112.25,-7.88 112.25,-7.88 165.46,-7.88 191.66,-7.88"/>
</g>
</g>
</svg>
