<?xml version="1.0" encoding="UTF-8" standalone="no"?>
<!DOCTYPE svg PUBLIC "-//W3C//DTD SVG 1.1//EN"
 "http://www.w3.org/Graphics/SVG/1.1/DTD/svg11.dtd">
<!-- Generated by graphviz version 9.0.0 (20230911.1827)
 -->
<!-- Pages: 1 -->
<svg width="237pt" height="504pt"
 viewBox="0.00 0.00 236.75 503.75" xmlns="http://www.w3.org/2000/svg" xmlns:xlink="http://www.w3.org/1999/xlink">
<g id="graph0" class="graph" transform="scale(1 1) rotate(0) translate(4 499.75)">
<polygon fill="white" stroke="none" points="-4,4 -4,-499.75 232.75,-499.75 232.75,4 -4,4"/>
<!-- display1147 -->
<g id="node1" class="node">
<title>display1147</title>
<text text-anchor="middle" x="22.12" y="-347.45" font-family="Arial" font-size="14.00">Display</text>
</g>
<!-- contrast1148 -->
<g id="node2" class="node">
<title>contrast1148</title>
<text text-anchor="middle" x="105.75" y="-467.45" font-family="Arial" font-size="14.00">Contrast</text>
</g>
<!-- display1147&#45;&#45;contrast1148 -->
<g id="edge1" class="edge">
<title>display1147&#45;&#45;contrast1148</title>
<path fill="none" stroke="black" d="M14.75,-360.75C14.75,-387.45 14.75,-472.88 14.75,-472.88 14.75,-472.88 53.48,-472.88 80.4,-472.88"/>
</g>
<!-- join1150 -->
<g id="node4" class="node">
<title>join1150</title>
<text text-anchor="middle" x="105.75" y="-422.45" font-family="Arial" font-size="14.00">Join</text>
</g>
<!-- display1147&#45;&#45;join1150 -->
<g id="edge3" class="edge">
<title>display1147&#45;&#45;join1150</title>
<path fill="none" stroke="black" d="M29.75,-360.62C29.75,-379.78 29.75,-427.88 29.75,-427.88 29.75,-427.88 72.06,-427.88 93.54,-427.88"/>
</g>
<!-- type1153 -->
<g id="node7" class="node">
<title>type1153</title>
<text text-anchor="middle" x="105.75" y="-362.45" font-family="Arial" font-size="14.00">Type</text>
</g>
<!-- display1147&#45;&#45;type1153 -->
<g id="edge6" class="edge">
<title>display1147&#45;&#45;type1153</title>
<path fill="none" stroke="black" d="M44.03,-355.25C70.28,-355.25 110.75,-355.25 110.75,-355.25 110.75,-355.25 110.75,-357.5 110.75,-360.1"/>
</g>
<!-- scale1156 -->
<g id="node10" class="node">
<title>scale1156</title>
<text text-anchor="middle" x="105.75" y="-317.45" font-family="Arial" font-size="14.00">Scale</text>
</g>
<!-- display1147&#45;&#45;scale1156 -->
<g id="edge9" class="edge">
<title>display1147&#45;&#45;scale1156</title>
<path fill="none" stroke="black" d="M43.88,-350.5C67.46,-350.5 101.75,-350.5 101.75,-350.5 101.75,-350.5 101.75,-338.88 101.75,-330.72"/>
</g>
<!-- math1160 -->
<g id="node14" class="node">
<title>math1160</title>
<text text-anchor="middle" x="105.75" y="-212.45" font-family="Arial" font-size="14.00">Math</text>
</g>
<!-- display1147&#45;&#45;math1160 -->
<g id="edge13" class="edge">
<title>display1147&#45;&#45;math1160</title>
<path fill="none" stroke="black" d="M29.75,-345.23C29.75,-316.67 29.75,-217.88 29.75,-217.88 29.75,-217.88 68.59,-217.88 90.73,-217.88"/>
</g>
<!-- status1165 -->
<g id="node19" class="node">
<title>status1165</title>
<text text-anchor="middle" x="105.75" y="-77.45" font-family="Arial" font-size="14.00">Status</text>
</g>
<!-- display1147&#45;&#45;status1165 -->
<g id="edge18" class="edge">
<title>display1147&#45;&#45;status1165</title>
<path fill="none" stroke="black" d="M14.75,-345.09C14.75,-300.82 14.75,-82.88 14.75,-82.88 14.75,-82.88 60.24,-82.88 86.89,-82.88"/>
</g>
<!-- 0 to 100%1149 -->
<g id="node3" class="node">
<title>0 to 100%1149</title>
<text text-anchor="middle" x="198" y="-482.45" font-family="Arial" font-size="14.00">0 to 100%</text>
</g>
<!-- contrast1148&#45;&#45;0 to 100%1149 -->
<g id="edge2" class="edge">
<title>contrast1148&#45;&#45;0 to 100%1149</title>
<path fill="none" stroke="black" d="M105.75,-480.56C105.75,-484.41 105.75,-488.25 105.75,-488.25 105.75,-488.25 140.45,-488.25 167.28,-488.25"/>
</g>
<!-- on1151 -->
<g id="node5" class="node">
<title>on1151</title>
<text text-anchor="middle" x="198" y="-452.45" font-family="Arial" font-size="14.00">On</text>
</g>
<!-- join1150&#45;&#45;on1151 -->
<g id="edge4" class="edge">
<title>join1150&#45;&#45;on1151</title>
<path fill="none" stroke="black" d="M105.75,-435.66C105.75,-444.44 105.75,-457.5 105.75,-457.5 105.75,-457.5 165.48,-457.5 188.82,-457.5"/>
</g>
<!-- off1152 -->
<g id="node6" class="node">
<title>off1152</title>
<text text-anchor="middle" x="198" y="-422.45" font-family="Arial" font-size="14.00">Off</text>
</g>
<!-- join1150&#45;&#45;off1152 -->
<g id="edge5" class="edge">
<title>join1150&#45;&#45;off1152</title>
<path fill="none" stroke="black" d="M117.81,-427.88C136.47,-427.88 171.92,-427.88 188.72,-427.88"/>
</g>
<!-- yt1154 -->
<g id="node8" class="node">
<title>yt1154</title>
<text text-anchor="middle" x="198" y="-392.45" font-family="Arial" font-size="14.00">YT</text>
</g>
<!-- type1153&#45;&#45;yt1154 -->
<g id="edge7" class="edge">
<title>type1153&#45;&#45;yt1154</title>
<path fill="none" stroke="black" d="M105.75,-375.45C105.75,-384.33 105.75,-397.88 105.75,-397.88 105.75,-397.88 166.65,-397.88 189.49,-397.88"/>
</g>
<!-- xy1155 -->
<g id="node9" class="node">
<title>xy1155</title>
<text text-anchor="middle" x="198" y="-362.45" font-family="Arial" font-size="14.00">XY</text>
</g>
<!-- type1153&#45;&#45;xy1155 -->
<g id="edge8" class="edge">
<title>type1153&#45;&#45;xy1155</title>
<path fill="none" stroke="black" d="M120.16,-367.88C139.52,-367.88 173.32,-367.88 189.24,-367.88"/>
</g>
<!-- grid1157 -->
<g id="node11" class="node">
<title>grid1157</title>
<text text-anchor="middle" x="198" y="-332.45" font-family="Arial" font-size="14.00">Grid</text>
</g>
<!-- scale1156&#45;&#45;grid1157 -->
<g id="edge10" class="edge">
<title>scale1156&#45;&#45;grid1157</title>
<path fill="none" stroke="black" d="M122.3,-325.25C147.79,-325.25 193.75,-325.25 193.75,-325.25 193.75,-325.25 193.75,-327.5 193.75,-330.1"/>
</g>
<!-- axis1158 -->
<g id="node12" class="node">
<title>axis1158</title>
<text text-anchor="middle" x="198" y="-302.45" font-family="Arial" font-size="14.00">Axis</text>
</g>
<!-- scale1156&#45;&#45;axis1158 -->
<g id="edge11" class="edge">
<title>scale1156&#45;&#45;axis1158</title>
<path fill="none" stroke="black" d="M122.2,-320.5C149.88,-320.5 202.75,-320.5 202.75,-320.5 202.75,-320.5 202.75,-318.25 202.75,-315.65"/>
</g>
<!-- frame1159 -->
<g id="node13" class="node">
<title>frame1159</title>
<text text-anchor="middle" x="198" y="-272.45" font-family="Arial" font-size="14.00">Frame</text>
</g>
<!-- scale1156&#45;&#45;frame1159 -->
<g id="edge12" class="edge">
<title>scale1156&#45;&#45;frame1159</title>
<path fill="none" stroke="black" d="M100.75,-315.04C100.75,-302.14 100.75,-277.88 100.75,-277.88 100.75,-277.88 149.9,-277.88 178.32,-277.88"/>
</g>
<!-- off1161 -->
<g id="node15" class="node">
<title>off1161</title>
<text text-anchor="middle" x="198" y="-242.45" font-family="Arial" font-size="14.00">Off</text>
</g>
<!-- math1160&#45;&#45;off1161 -->
<g id="edge14" class="edge">
<title>math1160&#45;&#45;off1161</title>
<path fill="none" stroke="black" d="M111.75,-225.45C111.75,-234.33 111.75,-247.88 111.75,-247.88 111.75,-247.88 166.52,-247.88 188.77,-247.88"/>
</g>
<!-- add1162 -->
<g id="node16" class="node">
<title>add1162</title>
<text text-anchor="middle" x="198" y="-212.45" font-family="Arial" font-size="14.00">Add</text>
</g>
<!-- math1160&#45;&#45;add1162 -->
<g id="edge15" class="edge">
<title>math1160&#45;&#45;add1162</title>
<path fill="none" stroke="black" d="M120.98,-217.88C139.3,-217.88 169.66,-217.88 186.26,-217.88"/>
</g>
<!-- sub1163 -->
<g id="node17" class="node">
<title>sub1163</title>
<text text-anchor="middle" x="198" y="-182.45" font-family="Arial" font-size="14.00">Sub</text>
</g>
<!-- math1160&#45;&#45;sub1163 -->
<g id="edge16" class="edge">
<title>math1160&#45;&#45;sub1163</title>
<path fill="none" stroke="black" d="M113.75,-210.3C113.75,-201.42 113.75,-187.88 113.75,-187.88 113.75,-187.88 163.14,-187.88 186.29,-187.88"/>
</g>
<!-- mult1164 -->
<g id="node18" class="node">
<title>mult1164</title>
<text text-anchor="middle" x="198" y="-152.45" font-family="Arial" font-size="14.00">Mult</text>
</g>
<!-- math1160&#45;&#45;mult1164 -->
<g id="edge17" class="edge">
<title>math1160&#45;&#45;mult1164</title>
<path fill="none" stroke="black" d="M98.75,-210.03C98.75,-193.77 98.75,-157.88 98.75,-157.88 98.75,-157.88 158.12,-157.88 185.02,-157.88"/>
</g>
<!-- off1166 -->
<g id="node20" class="node">
<title>off1166</title>
<text text-anchor="middle" x="198" y="-122.45" font-family="Arial" font-size="14.00">Off</text>
</g>
<!-- status1165&#45;&#45;off1166 -->
<g id="edge19" class="edge">
<title>status1165&#45;&#45;off1166</title>
<path fill="none" stroke="black" d="M105.75,-90.71C105.75,-103.61 105.75,-127.88 105.75,-127.88 105.75,-127.88 165.48,-127.88 188.82,-127.88"/>
</g>
<!-- counter1167 -->
<g id="node21" class="node">
<title>counter1167</title>
<text text-anchor="middle" x="198" y="-92.45" font-family="Arial" font-size="14.00">Counter</text>
</g>
<!-- status1165&#45;&#45;counter1167 -->
<g id="edge20" class="edge">
<title>status1165&#45;&#45;counter1167</title>
<path fill="none" stroke="black" d="M124.68,-86.44C146.89,-86.44 180.75,-86.44 180.75,-86.44 180.75,-86.44 180.75,-88.05 180.75,-90.06"/>
</g>
<!-- date1168 -->
<g id="node22" class="node">
<title>date1168</title>
<text text-anchor="middle" x="198" y="-62.45" font-family="Arial" font-size="14.00">Date</text>
</g>
<!-- status1165&#45;&#45;date1168 -->
<g id="edge21" class="edge">
<title>status1165&#45;&#45;date1168</title>
<path fill="none" stroke="black" d="M124.57,-82.88C151.74,-82.88 198.75,-82.88 198.75,-82.88 198.75,-82.88 198.75,-79.36 198.75,-75.73"/>
</g>
<!-- measure1169 -->
<g id="node23" class="node">
<title>measure1169</title>
<text text-anchor="middle" x="198" y="-32.45" font-family="Arial" font-size="14.00">Measure</text>
</g>
<!-- status1165&#45;&#45;measure1169 -->
<g id="edge22" class="edge">
<title>status1165&#45;&#45;measure1169</title>
<path fill="none" stroke="black" d="M124.67,-79.31C146,-79.31 177.75,-79.31 177.75,-79.31 177.75,-79.31 177.75,-57.44 177.75,-45.48"/>
</g>
<!-- comment1170 -->
<g id="node24" class="node">
<title>comment1170</title>
<text text-anchor="middle" x="198" y="-2.45" font-family="Arial" font-size="14.00">Comment</text>
</g>
<!-- status1165&#45;&#45;comment1170 -->
<g id="edge23" class="edge">
<title>status1165&#45;&#45;comment1170</title>
<path fill="none" stroke="black" d="M105.75,-75.13C105.75,-55.97 105.75,-7.88 105.75,-7.88 105.75,-7.88 141.11,-7.88 168.05,-7.88"/>
</g>
</g>
</svg>
