<?xml version="1.0" encoding="UTF-8" standalone="no"?>
<!DOCTYPE svg PUBLIC "-//W3C//DTD SVG 1.1//EN"
 "http://www.w3.org/Graphics/SVG/1.1/DTD/svg11.dtd">
<!-- Generated by graphviz version 9.0.0 (20230911.1827)
 -->
<!-- Pages: 1 -->
<svg width="255pt" height="504pt"
 viewBox="0.00 0.00 254.75 503.75" xmlns="http://www.w3.org/2000/svg" xmlns:xlink="http://www.w3.org/1999/xlink">
<g id="graph0" class="graph" transform="scale(1 1) rotate(0) translate(4 499.75)">
<polygon fill="white" stroke="none" points="-4,4 -4,-499.75 250.75,-499.75 250.75,4 -4,4"/>
<!-- measure1210 -->
<g id="node1" class="node">
<title>measure1210</title>
<text text-anchor="middle" x="33.75" y="-167.45" font-family="Arial" font-size="14.00">MEASURE</text>
</g>
<!-- ch1/ch21211 -->
<g id="node2" class="node">
<title>ch1/ch21211</title>
<text text-anchor="middle" x="135.38" y="-287.45" font-family="Arial" font-size="14.00">CH1/CH2</text>
</g>
<!-- measure1210&#45;&#45;ch1/ch21211 -->
<g id="edge1" class="edge">
<title>measure1210&#45;&#45;ch1/ch21211</title>
<path fill="none" stroke="black" d="M67.21,-175.25C89.14,-175.25 113.75,-175.25 113.75,-175.25 113.75,-175.25 113.75,-258.99 113.75,-285.16"/>
</g>
<!-- parameter1225 -->
<g id="node16" class="node">
<title>parameter1225</title>
<text text-anchor="middle" x="135.38" y="-62.45" font-family="Arial" font-size="14.00">Parameter</text>
</g>
<!-- measure1210&#45;&#45;parameter1225 -->
<g id="edge15" class="edge">
<title>measure1210&#45;&#45;parameter1225</title>
<path fill="none" stroke="black" d="M67.25,-170.5C91.39,-170.5 119.75,-170.5 119.75,-170.5 119.75,-170.5 119.75,-99.46 119.75,-75.59"/>
</g>
<!-- tr1212 -->
<g id="node3" class="node">
<title>tr1212</title>
<text text-anchor="middle" x="225" y="-482.45" font-family="Arial" font-size="14.00">Tr</text>
</g>
<!-- ch1/ch21211&#45;&#45;tr1212 -->
<g id="edge2" class="edge">
<title>ch1/ch21211&#45;&#45;tr1212</title>
<path fill="none" stroke="black" d="M114.75,-300.28C114.75,-335.9 114.75,-487.88 114.75,-487.88 114.75,-487.88 195.43,-487.88 218.76,-487.88"/>
</g>
<!-- tf1213 -->
<g id="node4" class="node">
<title>tf1213</title>
<text text-anchor="middle" x="225" y="-452.45" font-family="Arial" font-size="14.00">Tf</text>
</g>
<!-- ch1/ch21211&#45;&#45;tf1213 -->
<g id="edge3" class="edge">
<title>ch1/ch21211&#45;&#45;tf1213</title>
<path fill="none" stroke="black" d="M123.75,-300.39C123.75,-332.67 123.75,-457.88 123.75,-457.88 123.75,-457.88 197.85,-457.88 219.27,-457.88"/>
</g>
<!-- vrms1214 -->
<g id="node5" class="node">
<title>vrms1214</title>
<text text-anchor="middle" x="225" y="-422.45" font-family="Arial" font-size="14.00">Vrms</text>
</g>
<!-- ch1/ch21211&#45;&#45;vrms1214 -->
<g id="edge4" class="edge">
<title>ch1/ch21211&#45;&#45;vrms1214</title>
<path fill="none" stroke="black" d="M131.75,-300.52C131.75,-329.08 131.75,-427.88 131.75,-427.88 131.75,-427.88 182.58,-427.88 209.18,-427.88"/>
</g>
<!-- vmean1215 -->
<g id="node6" class="node">
<title>vmean1215</title>
<text text-anchor="middle" x="225" y="-392.45" font-family="Arial" font-size="14.00">Vmean</text>
</g>
<!-- ch1/ch21211&#45;&#45;vmean1215 -->
<g id="edge5" class="edge">
<title>ch1/ch21211&#45;&#45;vmean1215</title>
<path fill="none" stroke="black" d="M139.75,-300.43C139.75,-324.5 139.75,-397.88 139.75,-397.88 139.75,-397.88 178.23,-397.88 203.49,-397.88"/>
</g>
<!-- freq1216 -->
<g id="node7" class="node">
<title>freq1216</title>
<text text-anchor="middle" x="225" y="-362.45" font-family="Arial" font-size="14.00">Freq</text>
</g>
<!-- ch1/ch21211&#45;&#45;freq1216 -->
<g id="edge6" class="edge">
<title>ch1/ch21211&#45;&#45;freq1216</title>
<path fill="none" stroke="black" d="M147.75,-300.62C147.75,-319.78 147.75,-367.88 147.75,-367.88 147.75,-367.88 188.97,-367.88 211.19,-367.88"/>
</g>
<!-- period1217 -->
<g id="node8" class="node">
<title>period1217</title>
<text text-anchor="middle" x="225" y="-332.45" font-family="Arial" font-size="14.00">Period</text>
</g>
<!-- ch1/ch21211&#45;&#45;period1217 -->
<g id="edge7" class="edge">
<title>ch1/ch21211&#45;&#45;period1217</title>
<path fill="none" stroke="black" d="M156.75,-300.71C156.75,-313.61 156.75,-337.88 156.75,-337.88 156.75,-337.88 185.45,-337.88 205.62,-337.88"/>
</g>
<!-- +pw1218 -->
<g id="node9" class="node">
<title>+pw1218</title>
<text text-anchor="middle" x="225" y="-302.45" font-family="Arial" font-size="14.00">+PW</text>
</g>
<!-- ch1/ch21211&#45;&#45;+pw1218 -->
<g id="edge8" class="edge">
<title>ch1/ch21211&#45;&#45;+pw1218</title>
<path fill="none" stroke="black" d="M164.2,-295.25C191.96,-295.25 229.75,-295.25 229.75,-295.25 229.75,-295.25 229.75,-297.5 229.75,-300.1"/>
</g>
<!-- &#45;pw1219 -->
<g id="node10" class="node">
<title>&#45;pw1219</title>
<text text-anchor="middle" x="225" y="-272.45" font-family="Arial" font-size="14.00">&#45;PW</text>
</g>
<!-- ch1/ch21211&#45;&#45;&#45;pw1219 -->
<g id="edge9" class="edge">
<title>ch1/ch21211&#45;&#45;&#45;pw1219</title>
<path fill="none" stroke="black" d="M163.8,-290.5C188.64,-290.5 220.75,-290.5 220.75,-290.5 220.75,-290.5 220.75,-288.25 220.75,-285.65"/>
</g>
<!-- duty1220 -->
<g id="node11" class="node">
<title>duty1220</title>
<text text-anchor="middle" x="225" y="-242.45" font-family="Arial" font-size="14.00">Duty</text>
</g>
<!-- ch1/ch21211&#45;&#45;duty1220 -->
<g id="edge10" class="edge">
<title>ch1/ch21211&#45;&#45;duty1220</title>
<path fill="none" stroke="black" d="M151.75,-285.04C151.75,-272.14 151.75,-247.88 151.75,-247.88 151.75,-247.88 190,-247.88 211.22,-247.88"/>
</g>
<!-- +peak1221 -->
<g id="node12" class="node">
<title>+peak1221</title>
<text text-anchor="middle" x="225" y="-212.45" font-family="Arial" font-size="14.00">+Peak</text>
</g>
<!-- ch1/ch21211&#45;&#45;+peak1221 -->
<g id="edge11" class="edge">
<title>ch1/ch21211&#45;&#45;+peak1221</title>
<path fill="none" stroke="black" d="M145.75,-285.13C145.75,-265.97 145.75,-217.88 145.75,-217.88 145.75,-217.88 182.36,-217.88 205.82,-217.88"/>
</g>
<!-- &#45;peak1222 -->
<g id="node13" class="node">
<title>&#45;peak1222</title>
<text text-anchor="middle" x="225" y="-182.45" font-family="Arial" font-size="14.00">&#45;Peak</text>
</g>
<!-- ch1/ch21211&#45;&#45;&#45;peak1222 -->
<g id="edge12" class="edge">
<title>ch1/ch21211&#45;&#45;&#45;peak1222</title>
<path fill="none" stroke="black" d="M138.75,-285.01C138.75,-260.68 138.75,-188.25 138.75,-188.25 138.75,-188.25 182.34,-188.25 207.55,-188.25"/>
</g>
<!-- p&#45;p1223 -->
<g id="node14" class="node">
<title>p&#45;p1223</title>
<text text-anchor="middle" x="225" y="-152.45" font-family="Arial" font-size="14.00">P&#45;P</text>
</g>
<!-- ch1/ch21211&#45;&#45;p&#45;p1223 -->
<g id="edge13" class="edge">
<title>ch1/ch21211&#45;&#45;p&#45;p1223</title>
<path fill="none" stroke="black" d="M132.75,-285.21C132.75,-256.57 132.75,-157.5 132.75,-157.5 132.75,-157.5 189.62,-157.5 214.06,-157.5"/>
</g>
<!-- skew1224 -->
<g id="node15" class="node">
<title>skew1224</title>
<text text-anchor="middle" x="225" y="-122.45" font-family="Arial" font-size="14.00">Skew</text>
</g>
<!-- ch1/ch21211&#45;&#45;skew1224 -->
<g id="edge14" class="edge">
<title>ch1/ch21211&#45;&#45;skew1224</title>
<path fill="none" stroke="black" d="M125.75,-285.36C125.75,-253.08 125.75,-127.88 125.75,-127.88 125.75,-127.88 180.42,-127.88 208.61,-127.88"/>
</g>
<!-- a1226 -->
<g id="node17" class="node">
<title>a1226</title>
<text text-anchor="middle" x="225" y="-92.45" font-family="Arial" font-size="14.00">A</text>
</g>
<!-- parameter1225&#45;&#45;a1226 -->
<g id="edge16" class="edge">
<title>parameter1225&#45;&#45;a1226</title>
<path fill="none" stroke="black" d="M158.75,-75.45C158.75,-84.33 158.75,-97.88 158.75,-97.88 158.75,-97.88 205.91,-97.88 220.65,-97.88"/>
</g>
<!-- b1227 -->
<g id="node18" class="node">
<title>b1227</title>
<text text-anchor="middle" x="225" y="-62.45" font-family="Arial" font-size="14.00">B</text>
</g>
<!-- parameter1225&#45;&#45;b1227 -->
<g id="edge17" class="edge">
<title>parameter1225&#45;&#45;b1227</title>
<path fill="none" stroke="black" d="M167.23,-67.88C187.15,-67.88 210.81,-67.88 220.52,-67.88"/>
</g>
<!-- c1228 -->
<g id="node19" class="node">
<title>c1228</title>
<text text-anchor="middle" x="225" y="-32.45" font-family="Arial" font-size="14.00">C</text>
</g>
<!-- parameter1225&#45;&#45;c1228 -->
<g id="edge18" class="edge">
<title>parameter1225&#45;&#45;c1228</title>
<path fill="none" stroke="black" d="M146.75,-60.3C146.75,-51.42 146.75,-37.88 146.75,-37.88 146.75,-37.88 203.49,-37.88 220.34,-37.88"/>
</g>
<!-- d1229 -->
<g id="node20" class="node">
<title>d1229</title>
<text text-anchor="middle" x="225" y="-2.45" font-family="Arial" font-size="14.00">D</text>
</g>
<!-- parameter1225&#45;&#45;d1229 -->
<g id="edge19" class="edge">
<title>parameter1225&#45;&#45;d1229</title>
<path fill="none" stroke="black" d="M124.75,-60.03C124.75,-43.77 124.75,-7.88 124.75,-7.88 124.75,-7.88 200.14,-7.88 220.16,-7.88"/>
</g>
</g>
</svg>
