<?xml version="1.0" encoding="UTF-8" standalone="no"?>
<!DOCTYPE svg PUBLIC "-//W3C//DTD SVG 1.1//EN"
 "http://www.w3.org/Graphics/SVG/1.1/DTD/svg11.dtd">
<!-- Generated by graphviz version 9.0.0 (20230911.1827)
 -->
<!-- Pages: 1 -->
<svg width="351pt" height="474pt"
 viewBox="0.00 0.00 350.75 473.75" xmlns="http://www.w3.org/2000/svg" xmlns:xlink="http://www.w3.org/1999/xlink">
<g id="graph0" class="graph" transform="scale(1 1) rotate(0) translate(4 469.75)">
<polygon fill="white" stroke="none" points="-4,4 -4,-469.75 346.75,-469.75 346.75,4 -4,4"/>
<!-- save/recall1185 -->
<g id="node1" class="node">
<title>save/recall1185</title>
<text text-anchor="middle" x="45.75" y="-197.45" font-family="Arial" font-size="14.00">SAVE/RECALL</text>
</g>
<!-- device1186 -->
<g id="node2" class="node">
<title>device1186</title>
<text text-anchor="middle" x="158.62" y="-422.45" font-family="Arial" font-size="14.00">Device</text>
</g>
<!-- save/recall1185&#45;&#45;device1186 -->
<g id="edge1" class="edge">
<title>save/recall1185&#45;&#45;device1186</title>
<path fill="none" stroke="black" d="M23.75,-210.62C23.75,-250.18 23.75,-427.88 23.75,-427.88 23.75,-427.88 100.41,-427.88 138.14,-427.88"/>
</g>
<!-- type1189 -->
<g id="node5" class="node">
<title>type1189</title>
<text text-anchor="middle" x="158.62" y="-362.45" font-family="Arial" font-size="14.00">Type</text>
</g>
<!-- save/recall1185&#45;&#45;type1189 -->
<g id="edge4" class="edge">
<title>save/recall1185&#45;&#45;type1189</title>
<path fill="none" stroke="black" d="M45.75,-210.39C45.75,-242.67 45.75,-367.88 45.75,-367.88 45.75,-367.88 113.96,-367.88 144.33,-367.88"/>
</g>
<!-- function1192 -->
<g id="node8" class="node">
<title>function1192</title>
<text text-anchor="middle" x="158.62" y="-287.45" font-family="Arial" font-size="14.00">Function</text>
</g>
<!-- save/recall1185&#45;&#45;function1192 -->
<g id="edge7" class="edge">
<title>save/recall1185&#45;&#45;function1192</title>
<path fill="none" stroke="black" d="M68.75,-210.55C68.75,-232.31 68.75,-292.88 68.75,-292.88 68.75,-292.88 106.54,-292.88 133.11,-292.88"/>
</g>
<!-- file no1196 -->
<g id="node12" class="node">
<title>file no1196</title>
<text text-anchor="middle" x="158.62" y="-212.45" font-family="Arial" font-size="14.00">File No</text>
</g>
<!-- save/recall1185&#45;&#45;file no1196 -->
<g id="edge11" class="edge">
<title>save/recall1185&#45;&#45;file no1196</title>
<path fill="none" stroke="black" d="M91.46,-205.25C125.37,-205.25 165.75,-205.25 165.75,-205.25 165.75,-205.25 165.75,-207.5 165.75,-210.1"/>
</g>
<!-- format1199 -->
<g id="node15" class="node">
<title>format1199</title>
<text text-anchor="middle" x="158.62" y="-182.45" font-family="Arial" font-size="14.00">Format</text>
</g>
<!-- save/recall1185&#45;&#45;format1199 -->
<g id="edge14" class="edge">
<title>save/recall1185&#45;&#45;format1199</title>
<path fill="none" stroke="black" d="M91.32,-200.5C120.05,-200.5 151.75,-200.5 151.75,-200.5 151.75,-200.5 151.75,-198.25 151.75,-195.65"/>
</g>
<!-- auto save1202 -->
<g id="node18" class="node">
<title>auto save1202</title>
<text text-anchor="middle" x="158.62" y="-122.45" font-family="Arial" font-size="14.00">Auto Save</text>
</g>
<!-- save/recall1185&#45;&#45;auto save1202 -->
<g id="edge17" class="edge">
<title>save/recall1185&#45;&#45;auto save1202</title>
<path fill="none" stroke="black" d="M68.75,-195.13C68.75,-175.97 68.75,-127.88 68.75,-127.88 68.75,-127.88 101.7,-127.88 127.7,-127.88"/>
</g>
<!-- default1205 -->
<g id="node21" class="node">
<title>default1205</title>
<text text-anchor="middle" x="158.62" y="-77.45" font-family="Arial" font-size="14.00">Default</text>
</g>
<!-- save/recall1185&#45;&#45;default1205 -->
<g id="edge20" class="edge">
<title>save/recall1185&#45;&#45;default1205</title>
<path fill="none" stroke="black" d="M45.75,-195C45.75,-168.3 45.75,-82.88 45.75,-82.88 45.75,-82.88 104.7,-82.88 137.39,-82.88"/>
</g>
<!-- style1207 -->
<g id="node23" class="node">
<title>style1207</title>
<text text-anchor="middle" x="158.62" y="-32.45" font-family="Arial" font-size="14.00">Style</text>
</g>
<!-- save/recall1185&#45;&#45;style1207 -->
<g id="edge22" class="edge">
<title>save/recall1185&#45;&#45;style1207</title>
<path fill="none" stroke="black" d="M23.75,-195.36C23.75,-163.08 23.75,-37.88 23.75,-37.88 23.75,-37.88 108.56,-37.88 143.68,-37.88"/>
</g>
<!-- floppy1187 -->
<g id="node3" class="node">
<title>floppy1187</title>
<text text-anchor="middle" x="284.25" y="-452.45" font-family="Arial" font-size="14.00">Floppy</text>
</g>
<!-- device1186&#45;&#45;floppy1187 -->
<g id="edge2" class="edge">
<title>device1186&#45;&#45;floppy1187</title>
<path fill="none" stroke="black" d="M158.75,-435.45C158.75,-444.33 158.75,-457.88 158.75,-457.88 158.75,-457.88 228.61,-457.88 264.09,-457.88"/>
</g>
<!-- ata card1188 -->
<g id="node4" class="node">
<title>ata card1188</title>
<text text-anchor="middle" x="284.25" y="-422.45" font-family="Arial" font-size="14.00">ATA Card</text>
</g>
<!-- device1186&#45;&#45;ata card1188 -->
<g id="edge3" class="edge">
<title>device1186&#45;&#45;ata card1188</title>
<path fill="none" stroke="black" d="M179.09,-427.88C199.95,-427.88 232.47,-427.88 255.82,-427.88"/>
</g>
<!-- set up1190 -->
<g id="node6" class="node">
<title>set up1190</title>
<text text-anchor="middle" x="284.25" y="-392.45" font-family="Arial" font-size="14.00">Set up</text>
</g>
<!-- type1189&#45;&#45;set up1190 -->
<g id="edge5" class="edge">
<title>type1189&#45;&#45;set up1190</title>
<path fill="none" stroke="black" d="M158.75,-375.45C158.75,-384.33 158.75,-397.88 158.75,-397.88 158.75,-397.88 229.71,-397.88 264.92,-397.88"/>
</g>
<!-- waveform1191 -->
<g id="node7" class="node">
<title>waveform1191</title>
<text text-anchor="middle" x="284.25" y="-362.45" font-family="Arial" font-size="14.00">Waveform</text>
</g>
<!-- type1189&#45;&#45;waveform1191 -->
<g id="edge6" class="edge">
<title>type1189&#45;&#45;waveform1191</title>
<path fill="none" stroke="black" d="M173.04,-367.88C192.5,-367.88 227.7,-367.88 253.29,-367.88"/>
</g>
<!-- save1193 -->
<g id="node9" class="node">
<title>save1193</title>
<text text-anchor="middle" x="284.25" y="-332.45" font-family="Arial" font-size="14.00">Save</text>
</g>
<!-- function1192&#45;&#45;save1193 -->
<g id="edge8" class="edge">
<title>function1192&#45;&#45;save1193</title>
<path fill="none" stroke="black" d="M158.75,-300.71C158.75,-313.61 158.75,-337.88 158.75,-337.88 158.75,-337.88 236.12,-337.88 269.36,-337.88"/>
</g>
<!-- recall1194 -->
<g id="node10" class="node">
<title>recall1194</title>
<text text-anchor="middle" x="284.25" y="-302.45" font-family="Arial" font-size="14.00">Recall</text>
</g>
<!-- function1192&#45;&#45;recall1194 -->
<g id="edge9" class="edge">
<title>function1192&#45;&#45;recall1194</title>
<path fill="none" stroke="black" d="M184.41,-295.25C222.86,-295.25 290.75,-295.25 290.75,-295.25 290.75,-295.25 290.75,-297.5 290.75,-300.1"/>
</g>
<!-- delete1195 -->
<g id="node11" class="node">
<title>delete1195</title>
<text text-anchor="middle" x="284.25" y="-272.45" font-family="Arial" font-size="14.00">Delete</text>
</g>
<!-- function1192&#45;&#45;delete1195 -->
<g id="edge10" class="edge">
<title>function1192&#45;&#45;delete1195</title>
<path fill="none" stroke="black" d="M184.39,-290.5C219.69,-290.5 278.75,-290.5 278.75,-290.5 278.75,-290.5 278.75,-288.25 278.75,-285.65"/>
</g>
<!-- floppy 1 to 2001197 -->
<g id="node13" class="node">
<title>floppy 1 to 2001197</title>
<text text-anchor="middle" x="284.25" y="-242.45" font-family="Arial" font-size="14.00">Floppy 1 to 200</text>
</g>
<!-- file no1196&#45;&#45;floppy 1 to 2001197 -->
<g id="edge12" class="edge">
<title>file no1196&#45;&#45;floppy 1 to 2001197</title>
<path fill="none" stroke="black" d="M158.75,-225.45C158.75,-234.33 158.75,-247.88 158.75,-247.88 158.75,-247.88 202.12,-247.88 237.87,-247.88"/>
</g>
<!-- ata card 1 to 66661198 -->
<g id="node14" class="node">
<title>ata card 1 to 66661198</title>
<text text-anchor="middle" x="284.25" y="-212.45" font-family="Arial" font-size="14.00">ATA Card 1 to 6666</text>
</g>
<!-- file no1196&#45;&#45;ata card 1 to 66661198 -->
<g id="edge13" class="edge">
<title>file no1196&#45;&#45;ata card 1 to 66661198</title>
<path fill="none" stroke="black" d="M179.94,-217.88C192.68,-217.88 209.54,-217.88 225.99,-217.88"/>
</g>
<!-- floppy1200 -->
<g id="node16" class="node">
<title>floppy1200</title>
<text text-anchor="middle" x="284.25" y="-182.45" font-family="Arial" font-size="14.00">Floppy</text>
</g>
<!-- format1199&#45;&#45;floppy1200 -->
<g id="edge15" class="edge">
<title>format1199&#45;&#45;floppy1200</title>
<path fill="none" stroke="black" d="M180.22,-190.5C203.79,-190.5 241.23,-190.5 264.18,-190.5"/>
</g>
<!-- ata card1201 -->
<g id="node17" class="node">
<title>ata card1201</title>
<text text-anchor="middle" x="284.25" y="-152.45" font-family="Arial" font-size="14.00">ATA Card</text>
</g>
<!-- format1199&#45;&#45;ata card1201 -->
<g id="edge16" class="edge">
<title>format1199&#45;&#45;ata card1201</title>
<path fill="none" stroke="black" d="M180.28,-185.25C210.26,-185.25 260.75,-185.25 260.75,-185.25 260.75,-185.25 260.75,-173.74 260.75,-165.65"/>
</g>
<!-- on1203 -->
<g id="node19" class="node">
<title>on1203</title>
<text text-anchor="middle" x="284.25" y="-122.45" font-family="Arial" font-size="14.00">On</text>
</g>
<!-- auto save1202&#45;&#45;on1203 -->
<g id="edge18" class="edge">
<title>auto save1202&#45;&#45;on1203</title>
<path fill="none" stroke="black" d="M189.68,-127.88C217.72,-127.88 257.23,-127.88 274.98,-127.88"/>
</g>
<!-- off1204 -->
<g id="node20" class="node">
<title>off1204</title>
<text text-anchor="middle" x="284.25" y="-92.45" font-family="Arial" font-size="14.00">Off</text>
</g>
<!-- auto save1202&#45;&#45;off1204 -->
<g id="edge19" class="edge">
<title>auto save1202&#45;&#45;off1204</title>
<path fill="none" stroke="black" d="M185.75,-120.09C185.75,-111.31 185.75,-98.25 185.75,-98.25 185.75,-98.25 250.78,-98.25 275.16,-98.25"/>
</g>
<!-- setup1206 -->
<g id="node22" class="node">
<title>setup1206</title>
<text text-anchor="middle" x="284.25" y="-62.45" font-family="Arial" font-size="14.00">Setup</text>
</g>
<!-- default1205&#45;&#45;setup1206 -->
<g id="edge21" class="edge">
<title>default1205&#45;&#45;setup1206</title>
<path fill="none" stroke="black" d="M179.98,-82.88C212.51,-82.88 270.75,-82.88 270.75,-82.88 270.75,-82.88 270.75,-79.36 270.75,-75.73"/>
</g>
<!-- binary1208 -->
<g id="node24" class="node">
<title>binary1208</title>
<text text-anchor="middle" x="284.25" y="-32.45" font-family="Arial" font-size="14.00">Binary</text>
</g>
<!-- style1207&#45;&#45;binary1208 -->
<g id="edge23" class="edge">
<title>style1207&#45;&#45;binary1208</title>
<path fill="none" stroke="black" d="M173.53,-37.88C196.41,-37.88 240.16,-37.88 265.27,-37.88"/>
</g>
<!-- ascii1209 -->
<g id="node25" class="node">
<title>ascii1209</title>
<text text-anchor="middle" x="284.25" y="-2.45" font-family="Arial" font-size="14.00">ASCII</text>
</g>
<!-- style1207&#45;&#45;ascii1209 -->
<g id="edge24" class="edge">
<title>style1207&#45;&#45;ascii1209</title>
<path fill="none" stroke="black" d="M158.75,-30.3C158.75,-21.42 158.75,-7.88 158.75,-7.88 158.75,-7.88 232.32,-7.88 266.8,-7.88"/>
</g>
</g>
</svg>
