<?xml version="1.0" encoding="UTF-8" standalone="no"?>
<!DOCTYPE svg PUBLIC "-//W3C//DTD SVG 1.1//EN"
 "http://www.w3.org/Graphics/SVG/1.1/DTD/svg11.dtd">
<!-- Generated by graphviz version 9.0.0 (20230911.1827)
 -->
<!-- Pages: 1 -->
<svg width="648pt" height="871pt"
 viewBox="0.00 0.00 647.75 870.75" xmlns="http://www.w3.org/2000/svg" xmlns:xlink="http://www.w3.org/1999/xlink">
<g id="graph0" class="graph" transform="scale(1 1) rotate(0) translate(4 866.75)">
<polygon fill="white" stroke="none" points="-4,4 -4,-866.75 643.75,-866.75 643.75,4 -4,4"/>
<!-- utilities1230 -->
<g id="node1" class="node">
<title>utilities1230</title>
<text text-anchor="middle" x="31.5" y="-324.45" font-family="Arial" font-size="14.00">UTILITIES</text>
</g>
<!-- copy1231 -->
<g id="node2" class="node">
<title>copy1231</title>
<text text-anchor="middle" x="129" y="-684.45" font-family="Arial" font-size="14.00">Copy</text>
</g>
<!-- utilities1230&#45;&#45;copy1231 -->
<g id="edge1" class="edge">
<title>utilities1230&#45;&#45;copy1231</title>
<path fill="none" stroke="black" d="M21.75,-337.73C21.75,-390.38 21.75,-689.88 21.75,-689.88 21.75,-689.88 83.98,-689.88 113.63,-689.88"/>
</g>
<!-- interface1247 -->
<g id="node18" class="node">
<title>interface1247</title>
<text text-anchor="middle" x="129" y="-414.45" font-family="Arial" font-size="14.00">Interface</text>
</g>
<!-- utilities1230&#45;&#45;interface1247 -->
<g id="edge17" class="edge">
<title>utilities1230&#45;&#45;interface1247</title>
<path fill="none" stroke="black" d="M42.75,-337.55C42.75,-359.31 42.75,-419.88 42.75,-419.88 42.75,-419.88 77.72,-419.88 103.12,-419.88"/>
</g>
<!-- comment1261 -->
<g id="node32" class="node">
<title>comment1261</title>
<text text-anchor="middle" x="129" y="-324.45" font-family="Arial" font-size="14.00">Comment</text>
</g>
<!-- utilities1230&#45;&#45;comment1261 -->
<g id="edge31" class="edge">
<title>utilities1230&#45;&#45;comment1261</title>
<path fill="none" stroke="black" d="M62.89,-329.88C74.47,-329.88 87.55,-329.88 99,-329.88"/>
</g>
<!-- date1264 -->
<g id="node35" class="node">
<title>date1264</title>
<text text-anchor="middle" x="129" y="-234.45" font-family="Arial" font-size="14.00">Date</text>
</g>
<!-- utilities1230&#45;&#45;date1264 -->
<g id="edge34" class="edge">
<title>utilities1230&#45;&#45;date1264</title>
<path fill="none" stroke="black" d="M42.75,-322.2C42.75,-300.44 42.75,-239.88 42.75,-239.88 42.75,-239.88 90.26,-239.88 114.76,-239.88"/>
</g>
<!-- config1270 -->
<g id="node41" class="node">
<title>config1270</title>
<text text-anchor="middle" x="129" y="-84.45" font-family="Arial" font-size="14.00">Config</text>
</g>
<!-- utilities1230&#45;&#45;config1270 -->
<g id="edge40" class="edge">
<title>utilities1230&#45;&#45;config1270</title>
<path fill="none" stroke="black" d="M21.75,-322.16C21.75,-281.08 21.75,-89.88 21.75,-89.88 21.75,-89.88 78.98,-89.88 109.83,-89.88"/>
</g>
<!-- device1232 -->
<g id="node3" class="node">
<title>device1232</title>
<text text-anchor="middle" x="311.62" y="-789.45" font-family="Arial" font-size="14.00">Device</text>
</g>
<!-- copy1231&#45;&#45;device1232 -->
<g id="edge2" class="edge">
<title>copy1231&#45;&#45;device1232</title>
<path fill="none" stroke="black" d="M121.75,-697.43C121.75,-721.5 121.75,-794.88 121.75,-794.88 121.75,-794.88 242.32,-794.88 291.31,-794.88"/>
</g>
<!-- type, function (floppy, ata card only)1237 -->
<g id="node8" class="node">
<title>type, function (floppy, ata card only)1237</title>
<text text-anchor="middle" x="311.62" y="-729.45" font-family="Arial" font-size="14.00">Type, Function (Floppy, ATA Card only)</text>
</g>
<!-- copy1231&#45;&#45;type, function (floppy, ata card only)1237 -->
<g id="edge7" class="edge">
<title>copy1231&#45;&#45;type, function (floppy, ata card only)1237</title>
<path fill="none" stroke="black" d="M129.75,-697.71C129.75,-710.61 129.75,-734.88 129.75,-734.88 129.75,-734.88 159.62,-734.88 195.15,-734.88"/>
</g>
<!-- file no1238 -->
<g id="node9" class="node">
<title>file no1238</title>
<text text-anchor="middle" x="311.62" y="-699.45" font-family="Arial" font-size="14.00">File No</text>
</g>
<!-- copy1231&#45;&#45;file no1238 -->
<g id="edge8" class="edge">
<title>copy1231&#45;&#45;file no1238</title>
<path fill="none" stroke="black" d="M137.75,-697.56C137.75,-701.41 137.75,-705.25 137.75,-705.25 137.75,-705.25 243.87,-705.25 290.3,-705.25"/>
</g>
<!-- auto copy1241 -->
<g id="node12" class="node">
<title>auto copy1241</title>
<text text-anchor="middle" x="311.62" y="-669.45" font-family="Arial" font-size="14.00">Auto Copy</text>
</g>
<!-- copy1231&#45;&#45;auto copy1241 -->
<g id="edge11" class="edge">
<title>copy1231&#45;&#45;auto copy1241</title>
<path fill="none" stroke="black" d="M144.6,-689.88C184.25,-689.88 285.75,-689.88 285.75,-689.88 285.75,-689.88 285.75,-686.36 285.75,-682.73"/>
</g>
<!-- source1244 -->
<g id="node15" class="node">
<title>source1244</title>
<text text-anchor="middle" x="311.62" y="-609.45" font-family="Arial" font-size="14.00">Source</text>
</g>
<!-- copy1231&#45;&#45;source1244 -->
<g id="edge14" class="edge">
<title>copy1231&#45;&#45;source1244</title>
<path fill="none" stroke="black" d="M129.75,-682.13C129.75,-662.97 129.75,-614.88 129.75,-614.88 129.75,-614.88 242.43,-614.88 290.41,-614.88"/>
</g>
<!-- printer1233 -->
<g id="node4" class="node">
<title>printer1233</title>
<text text-anchor="middle" x="552" y="-849.45" font-family="Arial" font-size="14.00">Printer</text>
</g>
<!-- device1232&#45;&#45;printer1233 -->
<g id="edge3" class="edge">
<title>device1232&#45;&#45;printer1233</title>
<path fill="none" stroke="black" d="M304.75,-802.72C304.75,-818.98 304.75,-854.88 304.75,-854.88 304.75,-854.88 473.51,-854.88 532.18,-854.88"/>
</g>
<!-- floppy1234 -->
<g id="node5" class="node">
<title>floppy1234</title>
<text text-anchor="middle" x="552" y="-819.45" font-family="Arial" font-size="14.00">Floppy</text>
</g>
<!-- device1232&#45;&#45;floppy1234 -->
<g id="edge4" class="edge">
<title>device1232&#45;&#45;floppy1234</title>
<path fill="none" stroke="black" d="M318.75,-802.45C318.75,-811.33 318.75,-824.88 318.75,-824.88 318.75,-824.88 475.71,-824.88 532.11,-824.88"/>
</g>
<!-- ata card1235 -->
<g id="node6" class="node">
<title>ata card1235</title>
<text text-anchor="middle" x="552" y="-789.45" font-family="Arial" font-size="14.00">ATA Card</text>
</g>
<!-- device1232&#45;&#45;ata card1235 -->
<g id="edge5" class="edge">
<title>device1232&#45;&#45;ata card1235</title>
<path fill="none" stroke="black" d="M332.12,-794.88C375.04,-794.88 474.43,-794.88 523.52,-794.88"/>
</g>
<!-- centro1236 -->
<g id="node7" class="node">
<title>centro1236</title>
<text text-anchor="middle" x="552" y="-759.45" font-family="Arial" font-size="14.00">Centro</text>
</g>
<!-- device1232&#45;&#45;centro1236 -->
<g id="edge6" class="edge">
<title>device1232&#45;&#45;centro1236</title>
<path fill="none" stroke="black" d="M311.75,-787.3C311.75,-778.42 311.75,-764.88 311.75,-764.88 311.75,-764.88 474.19,-764.88 531.93,-764.88"/>
</g>
<!-- floopy 1 to 2001239 -->
<g id="node10" class="node">
<title>floopy 1 to 2001239</title>
<text text-anchor="middle" x="552" y="-729.45" font-family="Arial" font-size="14.00">Floopy 1 to 200</text>
</g>
<!-- file no1238&#45;&#45;floopy 1 to 2001239 -->
<g id="edge9" class="edge">
<title>file no1238&#45;&#45;floopy 1 to 2001239</title>
<path fill="none" stroke="black" d="M332.89,-707.5C372.98,-707.5 455.75,-707.5 455.75,-707.5 455.75,-707.5 455.75,-734.88 455.75,-734.88 455.75,-734.88 480.95,-734.88 505.57,-734.88"/>
</g>
<!-- ata card 1 to 99991240 -->
<g id="node11" class="node">
<title>ata card 1 to 99991240</title>
<text text-anchor="middle" x="552" y="-699.45" font-family="Arial" font-size="14.00">ATA Card 1 to 9999</text>
</g>
<!-- file no1238&#45;&#45;ata card 1 to 99991240 -->
<g id="edge10" class="edge">
<title>file no1238&#45;&#45;ata card 1 to 99991240</title>
<path fill="none" stroke="black" d="M332.96,-702.25C368.63,-702.25 441.6,-702.25 493.5,-702.25"/>
</g>
<!-- on1242 -->
<g id="node13" class="node">
<title>on1242</title>
<text text-anchor="middle" x="552" y="-669.45" font-family="Arial" font-size="14.00">On</text>
</g>
<!-- auto copy1241&#45;&#45;on1242 -->
<g id="edge12" class="edge">
<title>auto copy1241&#45;&#45;on1242</title>
<path fill="none" stroke="black" d="M343.05,-674.88C398.28,-674.88 510.01,-674.88 542.77,-674.88"/>
</g>
<!-- off1243 -->
<g id="node14" class="node">
<title>off1243</title>
<text text-anchor="middle" x="552" y="-639.45" font-family="Arial" font-size="14.00">Off</text>
</g>
<!-- auto copy1241&#45;&#45;off1243 -->
<g id="edge13" class="edge">
<title>auto copy1241&#45;&#45;off1243</title>
<path fill="none" stroke="black" d="M311.75,-667.3C311.75,-658.42 311.75,-644.88 311.75,-644.88 311.75,-644.88 498.99,-644.88 542.88,-644.88"/>
</g>
<!-- screen1245 -->
<g id="node16" class="node">
<title>screen1245</title>
<text text-anchor="middle" x="552" y="-609.45" font-family="Arial" font-size="14.00">Screen</text>
</g>
<!-- source1244&#45;&#45;screen1245 -->
<g id="edge15" class="edge">
<title>source1244&#45;&#45;screen1245</title>
<path fill="none" stroke="black" d="M332.96,-614.88C378.57,-614.88 485.14,-614.88 530.72,-614.88"/>
</g>
<!-- pannel1246 -->
<g id="node17" class="node">
<title>pannel1246</title>
<text text-anchor="middle" x="552" y="-579.45" font-family="Arial" font-size="14.00">Pannel</text>
</g>
<!-- source1244&#45;&#45;pannel1246 -->
<g id="edge16" class="edge">
<title>source1244&#45;&#45;pannel1246</title>
<path fill="none" stroke="black" d="M318.75,-607.3C318.75,-598.42 318.75,-584.88 318.75,-584.88 318.75,-584.88 474.22,-584.88 531.3,-584.88"/>
</g>
<!-- interface1248 -->
<g id="node19" class="node">
<title>interface1248</title>
<text text-anchor="middle" x="311.62" y="-519.45" font-family="Arial" font-size="14.00">Interface</text>
</g>
<!-- interface1247&#45;&#45;interface1248 -->
<g id="edge18" class="edge">
<title>interface1247&#45;&#45;interface1248</title>
<path fill="none" stroke="black" d="M147.75,-427.43C147.75,-451.5 147.75,-524.88 147.75,-524.88 147.75,-524.88 239.45,-524.88 285.66,-524.88"/>
</g>
<!-- delimiter1251 -->
<g id="node22" class="node">
<title>delimiter1251</title>
<text text-anchor="middle" x="311.62" y="-459.45" font-family="Arial" font-size="14.00">Delimiter</text>
</g>
<!-- interface1247&#45;&#45;delimiter1251 -->
<g id="edge21" class="edge">
<title>interface1247&#45;&#45;delimiter1251</title>
<path fill="none" stroke="black" d="M150.75,-427.71C150.75,-440.61 150.75,-464.88 150.75,-464.88 150.75,-464.88 238.9,-464.88 284.7,-464.88"/>
</g>
<!-- baudrate1254 -->
<g id="node25" class="node">
<title>baudrate1254</title>
<text text-anchor="middle" x="311.62" y="-429.45" font-family="Arial" font-size="14.00">BaudRate</text>
</g>
<!-- interface1247&#45;&#45;baudrate1254 -->
<g id="edge24" class="edge">
<title>interface1247&#45;&#45;baudrate1254</title>
<path fill="none" stroke="black" d="M152.75,-427.56C152.75,-431.41 152.75,-435.25 152.75,-435.25 152.75,-435.25 235.72,-435.25 281.74,-435.25"/>
</g>
<!-- data1256 -->
<g id="node27" class="node">
<title>data1256</title>
<text text-anchor="middle" x="311.62" y="-399.45" font-family="Arial" font-size="14.00">Data</text>
</g>
<!-- interface1247&#45;&#45;data1256 -->
<g id="edge26" class="edge">
<title>interface1247&#45;&#45;data1256</title>
<path fill="none" stroke="black" d="M155.18,-422.25C205.72,-422.25 311.75,-422.25 311.75,-422.25 311.75,-422.25 311.75,-417.35 311.75,-412.75"/>
</g>
<!-- address1259 -->
<g id="node30" class="node">
<title>address1259</title>
<text text-anchor="middle" x="311.62" y="-369.45" font-family="Arial" font-size="14.00">Address</text>
</g>
<!-- interface1247&#45;&#45;address1259 -->
<g id="edge29" class="edge">
<title>interface1247&#45;&#45;address1259</title>
<path fill="none" stroke="black" d="M154.95,-417.5C201.12,-417.5 292.75,-417.5 292.75,-417.5 292.75,-417.5 292.75,-395 292.75,-382.69"/>
</g>
<!-- rs232c1249 -->
<g id="node20" class="node">
<title>rs232c1249</title>
<text text-anchor="middle" x="552" y="-549.45" font-family="Arial" font-size="14.00">RS232C</text>
</g>
<!-- interface1248&#45;&#45;rs232c1249 -->
<g id="edge19" class="edge">
<title>interface1248&#45;&#45;rs232c1249</title>
<path fill="none" stroke="black" d="M304.75,-532.45C304.75,-541.33 304.75,-554.88 304.75,-554.88 304.75,-554.88 464.07,-554.88 526.93,-554.88"/>
</g>
<!-- gp&#45;ib (optional gp&#45;ib card)1250 -->
<g id="node21" class="node">
<title>gp&#45;ib (optional gp&#45;ib card)1250</title>
<text text-anchor="middle" x="552" y="-519.45" font-family="Arial" font-size="14.00">GP&#45;IB (Optional GP&#45;IB Card)</text>
</g>
<!-- interface1248&#45;&#45;gp&#45;ib (optional gp&#45;ib card)1250 -->
<g id="edge20" class="edge">
<title>interface1248&#45;&#45;gp&#45;ib (optional gp&#45;ib card)1250</title>
<path fill="none" stroke="black" d="M337.81,-524.88C368.11,-524.88 419.59,-524.88 464.5,-524.88"/>
</g>
<!-- lf1252 -->
<g id="node23" class="node">
<title>lf1252</title>
<text text-anchor="middle" x="552" y="-489.45" font-family="Arial" font-size="14.00">LF</text>
</g>
<!-- delimiter1251&#45;&#45;lf1252 -->
<g id="edge22" class="edge">
<title>delimiter1251&#45;&#45;lf1252</title>
<path fill="none" stroke="black" d="M311.75,-472.45C311.75,-481.33 311.75,-494.88 311.75,-494.88 311.75,-494.88 503.16,-494.88 544.28,-494.88"/>
</g>
<!-- cr/lf1253 -->
<g id="node24" class="node">
<title>cr/lf1253</title>
<text text-anchor="middle" x="552" y="-459.45" font-family="Arial" font-size="14.00">CR/LF</text>
</g>
<!-- delimiter1251&#45;&#45;cr/lf1253 -->
<g id="edge23" class="edge">
<title>delimiter1251&#45;&#45;cr/lf1253</title>
<path fill="none" stroke="black" d="M338.27,-464.88C387.16,-464.88 490.11,-464.88 532.81,-464.88"/>
</g>
<!-- 2400 to 115.2k1255 -->
<g id="node26" class="node">
<title>2400 to 115.2k1255</title>
<text text-anchor="middle" x="552" y="-429.45" font-family="Arial" font-size="14.00">2400 to 115.2k</text>
</g>
<!-- baudrate1254&#45;&#45;2400 to 115.2k1255 -->
<g id="edge25" class="edge">
<title>baudrate1254&#45;&#45;2400 to 115.2k1255</title>
<path fill="none" stroke="black" d="M341.58,-434.88C383.37,-434.88 459.44,-434.88 507.76,-434.88"/>
</g>
<!-- 7bits1257 -->
<g id="node28" class="node">
<title>7bits1257</title>
<text text-anchor="middle" x="552" y="-399.45" font-family="Arial" font-size="14.00">7bits</text>
</g>
<!-- data1256&#45;&#45;7bits1257 -->
<g id="edge27" class="edge">
<title>data1256&#45;&#45;7bits1257</title>
<path fill="none" stroke="black" d="M325.59,-407.5C368.07,-407.5 495.46,-407.5 538,-407.5"/>
</g>
<!-- 8bits1258 -->
<g id="node29" class="node">
<title>8bits1258</title>
<text text-anchor="middle" x="552" y="-369.45" font-family="Arial" font-size="14.00">8bits</text>
</g>
<!-- data1256&#45;&#45;8bits1258 -->
<g id="edge28" class="edge">
<title>data1256&#45;&#45;8bits1258</title>
<path fill="none" stroke="black" d="M325.71,-402.25C339.28,-402.25 357.75,-402.25 357.75,-402.25 357.75,-402.25 357.75,-374.88 357.75,-374.88 357.75,-374.88 493.49,-374.88 538.03,-374.88"/>
</g>
<!-- gp&#45;ib only (0 to 30)1260 -->
<g id="node31" class="node">
<title>gp&#45;ib only (0 to 30)1260</title>
<text text-anchor="middle" x="552" y="-339.45" font-family="Arial" font-size="14.00">GP&#45;IB only (0 to 30)</text>
</g>
<!-- address1259&#45;&#45;gp&#45;ib only (0 to 30)1260 -->
<g id="edge30" class="edge">
<title>address1259&#45;&#45;gp&#45;ib only (0 to 30)1260</title>
<path fill="none" stroke="black" d="M328.75,-367.3C328.75,-358.42 328.75,-344.88 328.75,-344.88 328.75,-344.88 426.04,-344.88 492.17,-344.88"/>
</g>
<!-- end1262 -->
<g id="node33" class="node">
<title>end1262</title>
<text text-anchor="middle" x="311.62" y="-339.45" font-family="Arial" font-size="14.00">End</text>
</g>
<!-- comment1261&#45;&#45;end1262 -->
<g id="edge32" class="edge">
<title>comment1261&#45;&#45;end1262</title>
<path fill="none" stroke="black" d="M158.77,-332.25C210.55,-332.25 311.75,-332.25 311.75,-332.25 311.75,-332.25 311.75,-334.5 311.75,-337.1"/>
</g>
<!-- cancel1263 -->
<g id="node34" class="node">
<title>cancel1263</title>
<text text-anchor="middle" x="311.62" y="-309.45" font-family="Arial" font-size="14.00">Cancel</text>
</g>
<!-- comment1261&#45;&#45;cancel1263 -->
<g id="edge33" class="edge">
<title>comment1261&#45;&#45;cancel1263</title>
<path fill="none" stroke="black" d="M158.81,-327.5C206.77,-327.5 295.75,-327.5 295.75,-327.5 295.75,-327.5 295.75,-325.25 295.75,-322.65"/>
</g>
<!-- date1265 -->
<g id="node36" class="node">
<title>date1265</title>
<text text-anchor="middle" x="311.62" y="-279.45" font-family="Arial" font-size="14.00">Date</text>
</g>
<!-- date1264&#45;&#45;date1265 -->
<g id="edge35" class="edge">
<title>date1264&#45;&#45;date1265</title>
<path fill="none" stroke="black" d="M124.75,-247.71C124.75,-260.61 124.75,-284.88 124.75,-284.88 124.75,-284.88 254.12,-284.88 297.58,-284.88"/>
</g>
<!-- month1266 -->
<g id="node37" class="node">
<title>month1266</title>
<text text-anchor="middle" x="311.62" y="-249.45" font-family="Arial" font-size="14.00">Month</text>
</g>
<!-- date1264&#45;&#45;month1266 -->
<g id="edge36" class="edge">
<title>date1264&#45;&#45;month1266</title>
<path fill="none" stroke="black" d="M133.75,-247.56C133.75,-251.41 133.75,-255.25 133.75,-255.25 133.75,-255.25 246.7,-255.25 292.59,-255.25"/>
</g>
<!-- year (1999 to 2099)1267 -->
<g id="node38" class="node">
<title>year (1999 to 2099)1267</title>
<text text-anchor="middle" x="311.62" y="-219.45" font-family="Arial" font-size="14.00">Year (1999 to 2099)</text>
</g>
<!-- date1264&#45;&#45;year (1999 to 2099)1267 -->
<g id="edge37" class="edge">
<title>date1264&#45;&#45;year (1999 to 2099)1267</title>
<path fill="none" stroke="black" d="M136.75,-232.19C136.75,-228.34 136.75,-224.5 136.75,-224.5 136.75,-224.5 201.69,-224.5 252.42,-224.5"/>
</g>
<!-- hour1268 -->
<g id="node39" class="node">
<title>hour1268</title>
<text text-anchor="middle" x="311.62" y="-189.45" font-family="Arial" font-size="14.00">Hour</text>
</g>
<!-- date1264&#45;&#45;hour1268 -->
<g id="edge38" class="edge">
<title>date1264&#45;&#45;hour1268</title>
<path fill="none" stroke="black" d="M129.75,-232.04C129.75,-219.14 129.75,-194.88 129.75,-194.88 129.75,-194.88 253.89,-194.88 297.05,-194.88"/>
</g>
<!-- minutes1269 -->
<g id="node40" class="node">
<title>minutes1269</title>
<text text-anchor="middle" x="311.62" y="-159.45" font-family="Arial" font-size="14.00">Minutes</text>
</g>
<!-- date1264&#45;&#45;minutes1269 -->
<g id="edge39" class="edge">
<title>date1264&#45;&#45;minutes1269</title>
<path fill="none" stroke="black" d="M122.75,-232.13C122.75,-212.97 122.75,-164.88 122.75,-164.88 122.75,-164.88 236.88,-164.88 287.7,-164.88"/>
</g>
<!-- lanuage1271 -->
<g id="node42" class="node">
<title>lanuage1271</title>
<text text-anchor="middle" x="311.62" y="-129.45" font-family="Arial" font-size="14.00">Lanuage</text>
</g>
<!-- config1270&#45;&#45;lanuage1271 -->
<g id="edge41" class="edge">
<title>config1270&#45;&#45;lanuage1271</title>
<path fill="none" stroke="black" d="M148.34,-93.81C192.06,-93.81 294.75,-93.81 294.75,-93.81 294.75,-93.81 294.75,-115.49 294.75,-127.34"/>
</g>
<!-- lcd1276 -->
<g id="node47" class="node">
<title>lcd1276</title>
<text text-anchor="middle" x="311.62" y="-84.45" font-family="Arial" font-size="14.00">LCD</text>
</g>
<!-- config1270&#45;&#45;lcd1276 -->
<g id="edge46" class="edge">
<title>config1270&#45;&#45;lcd1276</title>
<path fill="none" stroke="black" d="M148.2,-89.88C185.38,-89.88 266.36,-89.88 298.29,-89.88"/>
</g>
<!-- self cal1279 -->
<g id="node50" class="node">
<title>self cal1279</title>
<text text-anchor="middle" x="311.62" y="-39.45" font-family="Arial" font-size="14.00">Self Cal</text>
</g>
<!-- config1270&#45;&#45;self cal1279 -->
<g id="edge49" class="edge">
<title>config1270&#45;&#45;self cal1279</title>
<path fill="none" stroke="black" d="M148.31,-85.94C191.42,-85.94 291.75,-85.94 291.75,-85.94 291.75,-85.94 291.75,-64.26 291.75,-52.41"/>
</g>
<!-- system1282 -->
<g id="node53" class="node">
<title>system1282</title>
<text text-anchor="middle" x="311.62" y="-9.45" font-family="Arial" font-size="14.00">System</text>
</g>
<!-- config1270&#45;&#45;system1282 -->
<g id="edge52" class="edge">
<title>config1270&#45;&#45;system1282</title>
<path fill="none" stroke="black" d="M129.75,-82.13C129.75,-62.97 129.75,-14.88 129.75,-14.88 129.75,-14.88 240.2,-14.88 288.96,-14.88"/>
</g>
<!-- english1272 -->
<g id="node43" class="node">
<title>english1272</title>
<text text-anchor="middle" x="552" y="-212.45" font-family="Arial" font-size="14.00">English</text>
</g>
<!-- lanuage1271&#45;&#45;english1272 -->
<g id="edge42" class="edge">
<title>lanuage1271&#45;&#45;english1272</title>
<path fill="none" stroke="black" d="M337.76,-140.42C374.7,-140.42 437.75,-140.42 437.75,-140.42 437.75,-140.42 437.75,-213.5 437.75,-213.5 437.75,-213.5 496.77,-213.5 529.97,-213.5"/>
</g>
<!-- japanese1273 -->
<g id="node44" class="node">
<title>japanese1273</title>
<text text-anchor="middle" x="552" y="-182.45" font-family="Arial" font-size="14.00">Japanese</text>
</g>
<!-- lanuage1271&#45;&#45;japanese1273 -->
<g id="edge43" class="edge">
<title>lanuage1271&#45;&#45;japanese1273</title>
<path fill="none" stroke="black" d="M337.68,-138.08C376.94,-138.08 446.75,-138.08 446.75,-138.08 446.75,-138.08 446.75,-183.5 446.75,-183.5 446.75,-183.5 491.81,-183.5 522.96,-183.5"/>
</g>
<!-- simplified chinese1274 -->
<g id="node45" class="node">
<title>simplified chinese1274</title>
<text text-anchor="middle" x="552" y="-152.45" font-family="Arial" font-size="14.00">Simplified Chinese</text>
</g>
<!-- lanuage1271&#45;&#45;simplified chinese1274 -->
<g id="edge44" class="edge">
<title>lanuage1271&#45;&#45;simplified chinese1274</title>
<path fill="none" stroke="black" d="M311.75,-142.45C311.75,-147.61 311.75,-153.5 311.75,-153.5 311.75,-153.5 424.98,-153.5 495.98,-153.5"/>
</g>
<!-- traditional chinese1275 -->
<g id="node46" class="node">
<title>traditional chinese1275</title>
<text text-anchor="middle" x="552" y="-122.45" font-family="Arial" font-size="14.00">Traditional Chinese</text>
</g>
<!-- lanuage1271&#45;&#45;traditional chinese1275 -->
<g id="edge45" class="edge">
<title>lanuage1271&#45;&#45;traditional chinese1275</title>
<path fill="none" stroke="black" d="M337.81,-131.38C375.04,-131.38 444.28,-131.38 493.96,-131.38"/>
</g>
<!-- normal1277 -->
<g id="node48" class="node">
<title>normal1277</title>
<text text-anchor="middle" x="552" y="-92.45" font-family="Arial" font-size="14.00">Normal</text>
</g>
<!-- lcd1276&#45;&#45;normal1277 -->
<g id="edge47" class="edge">
<title>lcd1276&#45;&#45;normal1277</title>
<path fill="none" stroke="black" d="M324.89,-93.88C364.36,-93.88 481.31,-93.88 530.17,-93.88"/>
</g>
<!-- reverse1278 -->
<g id="node49" class="node">
<title>reverse1278</title>
<text text-anchor="middle" x="552" y="-62.45" font-family="Arial" font-size="14.00">Reverse</text>
</g>
<!-- lcd1276&#45;&#45;reverse1278 -->
<g id="edge48" class="edge">
<title>lcd1276&#45;&#45;reverse1278</title>
<path fill="none" stroke="black" d="M311.75,-82.43C311.75,-76.04 311.75,-67.88 311.75,-67.88 311.75,-67.88 465.81,-67.88 527.19,-67.88"/>
</g>
<!-- cancel1280 -->
<g id="node51" class="node">
<title>cancel1280</title>
<text text-anchor="middle" x="552" y="-32.45" font-family="Arial" font-size="14.00">Cancel</text>
</g>
<!-- self cal1279&#45;&#45;cancel1280 -->
<g id="edge50" class="edge">
<title>self cal1279&#45;&#45;cancel1280</title>
<path fill="none" stroke="black" d="M335.11,-42.83C382.01,-42.83 486.58,-42.83 531.19,-42.83"/>
</g>
<!-- ok1281 -->
<g id="node52" class="node">
<title>ok1281</title>
<text text-anchor="middle" x="552" y="-2.45" font-family="Arial" font-size="14.00">OK</text>
</g>
<!-- self cal1279&#45;&#45;ok1281 -->
<g id="edge51" class="edge">
<title>self cal1279&#45;&#45;ok1281</title>
<path fill="none" stroke="black" d="M335.24,-39.92C361.34,-39.92 399.75,-39.92 399.75,-39.92 399.75,-39.92 399.75,-11.38 399.75,-11.38 399.75,-11.38 508.14,-11.38 542.01,-11.38"/>
</g>
</g>
</svg>
