<?xml version="1.0" standalone="yes"?>
<svg xmlns="http://www.w3.org/2000/svg" width="1250" height="904">
<path style="fill:#ffffff; stroke:none;" d="M0 0L0 16L0 20L0 52L0 53L0 61L0 63L0 64L0 70L0 75L0 80L0 84L0 86L0 87L0 90L0 92L0 100L0 104L0 109L0 110L0 126L0 130L0 132L0 133L0 135L0 142L0 143L0 151L0 157L0 161L0 169L0 192L0 196L0 203L0 217L0 233L0 238L0 246L0 249L0 255L0 262L0 267L0 275L0 297L0 298L0 301L0 305L0 311L0 327L0 370L0 371L0 384L0 392L0 546L0 904L327 904L500 904L669 904L673 904L681 904L686 904L690 904L696 904L728 904L760 904L768 904L773 904L777 904L781 904L782 904L787 904L795 904L800 904L808 904L812 904L813 904L845 904L853 904L854 904L872 904L879 904L882 904L886 904L887 904L888 904L892 904L900 904L905 904L912 904L916 904L917 904L925 904L933 904L934 904L938 904L942 904L943 904L945 904L948 904L950 904L954 904L960 904L962 904L965 904L973 904L989 904L991 904L1007 904L1013 904L1015 904L1017 904L1018 904L1020 904L1025 904L1027 904L1029 904L1030 904L1031 904L1033 904L1034 904L1042 904L1043 904L1044 904L1046 904L1048 904L1049 904L1050 904L1051 904L1055 904L1056 904L1064 904L1065 904L1073 904L1077 904L1081 904L1089 904L1091 904L1092 904L1102 904L1106 904L1108 904L1109 904L1117 904L1119 904L1121 904L1125 904L1130 904L1132 904L1133 904L1136 904L1137 904L1138 904L1139 904L1143 904L1144 904L1145 904L1147 904L1152 904L1153 904L1155 904L1157 904L1158 904L1162 904L1166 904L1167 904L1171 904L1179 904L1180 904L1181 904L1189 904L1190 904L1194 904L1199 904L1201 904L1203 904L1204 904L1208 904L1209 904L1210 904L1211 904L1215 904L1220 904L1221 904L1222 904L1223 904L1227 904L1231 904L1232 904L1236 904L1240 904L1241 904L1245 904L1246 904L1247.94 904L1250 904L1250 901.944L1250 900L1250 891L1250 890L1250 862L1250 860L1250 795L1250 782L1250 777L1250 776L1250 743L1250 669L1250 621L1250 620L1250 618L1250 562L1250 541L1250 489L1250 471L1250 448L1250 426L1250 415L1250 399L1250 390L1250 389L1250 367L1250 366L1250 339L1250 338L1250 330L1250 320L1250 314L1250 304L1250 294L1250 284L1250 283L1250 279L1250 274L1250 270L1250 265L1250 261L1250 256L1250 249L1250 248L1250 243L1250 238L1250 220L1250 215L1250 214L1250 207L1250 203L1250 202L1250 199L1250 195L1250 193L1250 190L1250 186L1250 182L1250 181L1250 179L1250 171L1250 157L1250 150L1250 146L1250 144L1250 136L1250 132L1250 131L1250 130L1250 129L1250 128L1250 125L1250 119L1250 114L1250 112L1250 107L1250 106L1250 101L1250 69L1250 65L1250 64L1250 59L1250 58L1250 50L1250 46L1250 38L1250 30L1250 22L1250 18L1250 16L1250 15L1250 13L1250 12L1250 8L1250 4L1250 0L1247.94 0L1246.94 0L1246 0L1245 0L1244 0L1243 0L1241 0L1240 0L1239 0L1237 0L1233 0L1229 0L1228 0L1224 0L1223 0L1215 0L1183 0L1179 0L1178 0L1170 0L1166 0L1165 0L1164 0L1160 0L1152 0L1151 0L1135 0L1133 0L1131 0L1123 0L1122 0L1114 0L1113 0L1111 0L1110 0L1109 0L1105 0L1100 0L1098 0L1096 0L1095 0L1094 0L1093 0L1092 0L1088 0L1087 0L1086 0L1085 0L1077 0L1076 0L1072 0L1064 0L1062 0L1054 0L1050 0L1049 0L1048 0L1044 0L1043 0L1039 0L1038 0L1037 0L1036 0L1031 0L1030 0L1026 0L1021 0L1020 0L1016 0L1014 0L1011 0L1007 0L1003 0L1000 0L996 0L990 0L988 0L984 0L978 0L962 0L961 0L957 0L955 0L923 0L922 0L918 0L915 0L909 0L908 0L903 0L902 0L899 0L895 0L894 0L893 0L892 0L890 0L887 0L882 0L881 0L877 0L876 0L868 0L804 0L800 0L797 0L796 0L792 0L791 0L783 0L781 0L780 0L779 0L763 0L755 0L754 0L752 0L744 0L726 0L720 0L719 0L714 0L708 0L707 0L706 0L698 0L693 0L687 0L686 0L682 0L674 0L669 0L666 0L662 0L661 0L657 0L654 0L652 0L645 0L637 0L636 0L632 0L630 0L627 0L623 0L617 0L616 0L606 0L604 0L603 0L579 0L578 0L577 0L570 0L569 0L560 0L557 0L556 0L546 0L544 0L537 0L524 0L467 0L452 0L432 0L427 0L409 0L399 0L396 0L391 0L269 0L254 0L242 0L241 0L228 0L208 0L207 0L194 0L183 0L163 0L158 0L151 0L129 0L0 0z"/>
<path style="fill:#131248; stroke:none;" d="M940 81L940 84L941.5 84.2778L943 84.8333L943.944 85.1945L944.5 85.5L946 86L945.972 88.0555L945.917 89.0555L945.611 91L945.139 93L944.861 94L944.639 95L944.361 96L944.139 97L943.611 99L943.306 100L942.694 102L942.389 103L942.139 104L941.611 106L941 108L940.667 109L940 111L939.694 112L939.389 113L938.861 115L938.611 116L938.306 117L937.694 119L937.389 120L936.861 122L936.611 123L936.306 124L935.694 126L935.389 127L935.139 128L934.611 130L934.306 131L933.694 133L933.389 134L933.139 135L932.611 137L932.306 138L932 139L931.667 140L931 142L930.694 143L930.389 144L929.861 146L929.611 147L929.306 148L928.694 150L928.389 151L927.861 153L927.611 154L927.306 155L926.694 157L926.389 158L925.861 160L925.611 161L925.306 162L924.694 164L924.389 165L924.139 166L923.556 168L923.167 169L922.472 170.944L922.278 171.5L922 173L924.056 173L925.056 173L928 173L936 173L937.944 173L940 173L941 172L941.083 170.5L941.222 169.944L941.417 168.944L942 167L942.667 165L943 164L943.306 163L943.611 162L944.139 160L944.389 159L944.694 158L945 157L945.667 155L946.028 154L946.389 153L947.25 151L947.778 150L948.25 149L948.833 148L949.389 147L950.611 145L951.806 143L952.389 142L953.611 140L954.194 139L954.833 138L955.444 137L956.167 136L957.639 134L958.389 133L960.083 131L961.028 130L963 128L964 127L966 125.083L967.944 123.5L969.5 122.528L971 122L971.389 123.5L971.556 125.056L971.528 126L971.333 127L970.861 129L970.611 130L970 132L969.667 133L969 135L968.694 136L968.389 137L967.861 139L967.611 140L967.306 141L966.694 143L966.389 144L966.139 145L965.611 147L965.306 148L964.694 150L964.389 151L964.139 152L963.611 154L963.306 155L962.694 157L962.417 158L962.056 160L961.944 161L961.611 163L961.389 164L961.167 166L961.278 167L961.944 169L962.5 169.972L964.083 171.75L965.028 172.5L967 173.5L969 173.917L970 173.972L972 173.917L974 173.583L975 173.306L977 172.611L978 172.167L979 171.722L981 170.528L982 169.75L984 167.972L985.917 166L987.583 164L988.306 163L989.667 161L990.889 159.056L991.361 158.056L991.667 157.5L992 156L990.556 155.278L990 155.25L988 155L987.25 156.5L986.778 157.056L986.111 158.056L984.611 159.972L982.972 161.667L981.5 162.639L980 163L980.083 161.5L980.222 160.944L980.389 159.944L980.639 159L980.861 158L981.389 156L981.694 155L982.306 153L982.611 152L983.139 150L983.389 149L984 147L984.667 145L985 144L985.611 142L985.861 141L986.389 139L986.694 138L987 137L987.667 135L988 134L988.611 132L988.861 131L989.361 129L989.639 128L989.861 127L990.139 126L990.611 124L990.917 122L990.972 121L991 119L990.972 117L990.694 115L989.889 113.028L989.278 112.083L988.583 111.25L987.778 110.5L986.917 109.944L985.972 109.5L984 109.083L983 109.028L981 109L980 109.028L979 109.083L977 109.472L976 109.861L974 110.778L973 111.25L971 112.444L970 113.167L968 114.639L967 115.389L965.083 117.083L963.389 119L962.611 120L961 122L960.194 123L959.389 124L957.861 126L957.139 127L956.389 128L955.694 129L954.417 130.944L953.889 131.944L953.528 132.5L953 134L952.361 132.5L952.472 131.944L952.472 130.944L952.722 130L953 129L953.611 127L954.139 125L954.389 124L954.694 123L955.306 121L955.611 120L955.861 119L956.389 117L956.694 116L957.306 114L957.611 113L957.861 112L958.389 110L958.694 109L959.306 107L959.611 106L960.139 104L960.389 103L960.694 102L961.306 100L961.611 99L961.861 98L962.389 96L962.694 95L963.306 93L963.611 92L963.861 91L964.389 89L964.694 88L965 87L965.667 85L966 84L966.611 82L966.861 81L967.389 79.0555L968 77L966.5 77L964.944 77L964 77L962 77.0278L961 77.0833L959 77.3889L958 77.6111L957 77.8055L955 78.1945L954 78.3889L953 78.6111L951 78.9445L950 79.0555L948 79.3889L947 79.6111L946 79.8055L944 80.1945L943.056 80.3889L941.5 80.75L940 81M1019 115L1020.5 115.722L1021.06 115.75L1022.06 115.944L1022.94 115.972L1023.94 116L1026 116L1026.44 117.5L1026.67 118.056L1027 119.056L1027.58 121L1027.92 123L1028.08 125L1028.22 126L1028.61 128L1028.92 130L1028.97 131L1029 132L1029 134L1029.03 136L1029.08 137L1029.39 139L1029.61 140L1029.92 142L1029.97 143L1030 145L1030 147L1030 148L1030.03 150L1030.08 151L1030.39 153L1030.61 154L1030.92 156L1031 158L1031 160L1031 161L1031.03 163L1031.08 164L1031.39 166L1031.61 167L1031.92 169L1031.97 170L1032 171.944L1032 172.944L1032 175L1033 176L1034.5 176L1036.06 175.889L1038 175.278L1040 173.889L1041 172.972L1042 172L1043.97 170L1044.92 169L1046.61 167L1047.39 166L1049.08 164L1050.03 163L1052 161L1052.97 160L1053.92 159L1055.61 157L1056.39 156L1058.08 154L1059.03 153L1061 151L1061.97 150L1062.92 149L1064.61 147L1065.39 146L1067.08 144L1068.03 143L1070 141L1070.97 140L1071.92 139L1073.61 137L1074.39 136L1076.08 134L1077.97 132L1078.92 131L1080.61 129L1082.19 127L1083.81 125L1084.58 124L1085.31 123L1086.61 121L1087.17 120L1088.22 118L1088.75 117L1089.14 116L1089.53 115L1089.75 114L1089.94 112L1089.75 110L1089.5 109.028L1089.06 108.083L1087.75 106.5L1085.97 105.5L1084 105.083L1083 105.056L1082 105.083L1080 105.5L1078 106.417L1076.08 107.694L1074.47 109.222L1073.86 110.083L1072.83 112L1072.39 113L1071.69 115L1071.42 116L1071.22 117L1071 119L1070.78 121L1070.58 122L1070.31 123L1069.67 125L1068.92 127L1068.44 128L1067.92 129L1066.61 131L1065.86 132L1065.14 133L1064.36 134L1063.61 135L1061.92 137L1060.97 138L1060 139L1058.03 141L1057.08 142L1055.39 144L1054.61 145L1052.92 147L1051.97 148L1050.06 149.944L1049.06 150.944L1047 153L1046.75 151.5L1046.39 149.944L1046.08 148L1046.03 147L1046 146L1046 144L1046 139L1046 138L1045.97 136L1045.92 135L1045.61 133L1045.39 132L1045.08 130L1045 128L1045 126L1045 125L1045 123L1045 121L1044.97 119L1044.92 118L1044.61 116L1044.39 115L1044.08 113L1043.92 111L1043.58 109L1042.97 107.056L1042.81 106.5L1042 105L1040.5 105.028L1038.94 105.222L1038 105.389L1036 105.861L1035 106.139L1034 106.361L1032 106.861L1031 107.139L1030 107.361L1029 107.639L1027 108.139L1026 108.389L1024 109.028L1023.03 109.417L1022.08 109.917L1020.5 111.25L1019.5 112.972L1019.28 113.5L1019 115z"/>
<path style="fill:#ffffff; stroke:none;" d="M951 134L952 135L951 134z"/>
<path style="fill:#131248; stroke:none;" d="M937 200L937.778 200.75L938.306 200.833L939.111 201.167L940.028 201.361L941 201.611L943 201.917L944 201.972L946 202L947.944 202L951 202L949.5 203.25L948.944 203.639L947.944 204.361L946 205.667L945 206.333L943 207.611L942 208.194L940 209.389L939 210.028L938 210.667L937 211.333L935 212.667L934 213.333L933 214L931 215.333L930 216L927 218L926 218.667L923 220.667L922 221.333L920 222.611L919 223.194L917 224.389L915 225.667L914 226.333L912 227.667L905 232.333L903 233.667L902 234.333L900 235.611L899 236.194L897 237.389L895 238.667L894 239.333L892 240.667L890 242L886 244.667L885 245.333L883 246.667L882 247.333L880 248.611L879 249.194L877 250.389L875 251.667L874 252.333L872 253.667L871 254.333L862 260.333L860 261.667L859 262.333L857 263.611L856 264.194L854 265.389L852 266.667L851 267.333L849 268.667L842 273.333L840 274.667L839 275.333L837 276.611L835 277.806L834 278.389L832 279.667L831 280.333L829 281.667L828 282.333L819 288.333L817 289.667L816 290.333L814 291.611L813 292.194L811 293.389L809 294.667L808 295.333L806 296.667L799 301.333L797 302.667L796 303.333L794 304.611L793 305.194L791 306.389L789 307.667L788 308.333L786 309.667L783 311.667L777 315.667L776 316.333L774 317.667L773 318.333L771 319.611L770 320.194L768 321.389L766 322.667L765 323.333L763 324.667L756 329.333L754 330.667L753 331.333L751 332.611L750 333.194L748 334.389L746 335.667L745 336.333L743 337.667L736 342.333L734 343.667L733 344.333L731 345.611L729 346.806L728 347.389L726 348.667L725 349.333L723 350.667L714 356.667L711 358.667L710 359.333L708 360.611L707 361.194L705 362.389L703 363.667L702 364.333L700 365.667L695 369L693 370.333L691 371.667L690 372.333L688 373.611L686 374.806L685 375.389L684 376.028L682 377.333L681 378L678 380L670 385.333L668 386.667L667 387.333L666 387.972L665.056 388.583L664.056 389.111L663.5 389.472L662 390L661.222 388.5L660.694 387.944L659.889 386.972L658 385.222L657 384.389L655 382.861L654 382.167L653 381.444L651 380.25L650 379.75L648 378.639L646 377.611L644 376.889L643 376.611L641 376L639 375.417L638 375.194L636 374.806L635 374.611L634 374.389L632 374.083L631 374.028L630 374L628 374L626 374L624 374.083L622 374.389L621 374.611L620 374.778L619 374.944L618 375.056L616 375.417L614 376L613 376.333L611 377.028L610 377.389L608 378.278L607 378.833L606 379.389L604 380.611L602 381.833L601 382.472L599 384.083L597 386L596 387L594.028 389L593.083 390L591.417 392L590.694 393L589.389 395L588.833 396L588.25 397L587.778 398L587.25 399L586.389 401L586.028 402L585.333 404L584.694 406L584.417 407L584.056 409L583.944 410L583.611 412L583.222 413.944L583.083 414.5L583 416L581.5 415.194L580.944 415.028L579 414.389L577 413.861L576 413.611L575 413.306L574 413L572 412.333L571 412L569 411.389L567 410.861L566 410.611L565 410.306L564 410L562 409.333L561 409L560 408.694L559 408.389L558 408.139L556 407.611L554 407L553 406.667L551 406L550 405.694L549 405.389L548 405.139L547 404.861L546.056 404.639L544.5 404.25L543 404L543.778 405.25L544.306 405.667L545.111 406.417L547 407.861L548 408.639L549 409.389L549.944 410.167L551.5 411.528L553 413L549 413L541 413L531 413L530 413L529 413L526 413L506 413L422 413L326 413L103 413L103 424L234 424L252 424L326 424L424 424L519 424L553 424L551.5 425.472L549.944 426.833L549 427.611L547 429.139L546.056 429.806L545.056 430.556L543 432L543.778 432.639L544.306 432.528L545.111 432.528L546.028 432.278L548 431.694L549 431.389L551 430.861L552 430.611L553 430.306L555 429.667L557 429L558 428.694L559 428.389L561 427.861L562 427.611L563 427.306L564 427L565 426.667L567 426L568 425.694L569 425.389L571 424.861L572 424.611L574 424L575 423.667L577 423L579 422.389L580.944 421.833L581.5 421.75L583 421L583.083 422.5L583.222 423.056L583.611 425L584 427L584.417 429L584.694 430L585.333 432L586.028 434L586.389 435L587.25 437L587.778 438L588.778 440L589.25 441L590.472 443L591.222 444L592 445L593.611 447L594.389 448L596.083 449.917L598 451.611L599 452.361L599.944 453.111L600.944 453.778L601.5 454.25L603 455L601.5 456.472L599.944 457.833L599 458.583L597 460L595 461.333L593 462.667L590 464.667L588 466L586 467.389L585 468.139L583 469.611L581 471L579 472.333L574 475.667L572 477L570 478.389L568 479.861L567 480.611L565 482L563 483.333L558 486.667L556 488L554 489.389L552 490.861L551 491.611L549 493L547 494.333L542 497.667L540 499L538 500.389L536 501.861L535 502.611L534 503.306L533 504L531 505.333L526 508.667L524 510L523 510.694L522 511.389L521 512.139L519 513.611L517 515L515 516.333L510 519.667L508 521L506 522.389L505 523.139L503 524.611L501 526L499 527.333L494 530.667L492 532L490 533.389L488 534.861L487 535.611L485 537L483 538.333L478 541.667L476 543L474 544.389L472 545.861L471 546.611L469 548L467 549.333L462 552.667L460 554L458 555.389L457 556.139L455 557.611L453 559L451 560.333L446 563.667L444 565L442 566.389L441 567.139L439 568.611L437 570L435 571.333L430 574.667L428 576L426 577.389L425 578.139L423 579.611L421 581L419 582.333L414 585.667L412 587L410 588.389L408 589.861L407 590.611L406 591.306L405 592L404 592.667L401 594.667L399 596L397 597.389L395 598.861L394 599.611L392 601L390 602.333L385 605.667L383 607L381 608.389L380 609.139L378 610.611L376 612L374 613.333L369 616.667L367 618L365 619.389L364 620.139L362 621.611L360 623L358 624.333L353 627.667L351 629L349 630.389L348 631.139L346 632.611L344 634L342 635.333L337 638.667L335 640L333 641.389L332 642.139L330 643.611L328 645L326 646.333L321 649.667L319 651L317 652.389L315 653.861L314 654.611L313 655.306L312 656L310 657.333L305 660.667L303 662L301 663.389L299 664.861L298 665.611L296 667L295.056 667.639L294.056 668.361L293.5 668.75L292 670L292 671L293 673L294.5 672.889L296.056 672.361L298 671.306L300 670L301 669.333L303 668L305 666.667L306 666L308 664.611L309 663.861L311 662.389L312 661.694L313 661L315 659.667L318 657.667L321 655.667L322 655L323 654.306L324 653.611L325 652.861L327 651.389L329 650L331 648.667L336 645.333L338 644L339 643.306L340 642.611L341 641.861L343 640.389L345 639L347 637.667L352 634.333L354 633L356 631.611L357 630.861L359 629.389L361 628L363 626.667L368 623.333L370 622L372 620.611L374 619.139L375 618.389L376 617.694L377 617L379 615.667L384 612.333L386 611L388 609.611L389 608.861L391 607.389L393 606L395 604.667L400 601.333L402 600L404 598.611L405 597.861L407 596.389L409 595L411 593.667L416 590.333L418 589L420 587.611L422 586.139L423 585.389L425 584L427 582.667L432 579.333L434 578L436 576.611L438 575.139L439 574.389L440 573.694L441 573L443 571.667L448 568.333L450 567L452 565.611L453 564.861L455 563.389L457 562L459 560.667L464 557.333L466 556L468 554.611L469 553.861L471 552.389L473 551L475 549.667L480 546.333L482 545L484 543.611L486 542.139L487 541.389L489 540L491 538.667L496 535.333L498 534L500 532.611L501 531.861L503 530.389L505 529L507 527.667L512 524.333L514 523L516 521.611L517 520.861L519 519.389L521 518L523 516.667L528 513.333L530 512L532 510.611L533 509.861L535 508.389L537 507L539 505.667L544 502.333L546 501L548 499.611L549 498.861L551 497.389L553 496L555 494.667L560 491.333L562 490L564 488.611L565 487.861L567 486.389L569 485L571 483.667L576 480.333L578 479L580 477.611L582 476.139L583 475.389L585 474L587 472.667L590 470.667L591 470L592 469.306L593 468.611L594 467.861L596 466.389L598 465L599 464.333L602 462.333L603 461.667L604.889 460.361L605.694 459.639L606.222 459.25L607 458L608.5 458.444L609.056 458.667L610.056 459L611 459.333L612 459.667L614 460.333L616 461L617 461.306L618 461.583L620 461.917L622 462.028L623 462.083L625 462.389L627 462.694L629 462.583L630 462.389L632 462.083L633 462.028L635 461.917L637 461.611L638 461.361L640 460.861L641 460.611L643 459.972L644 459.611L646 458.75L647 458.222L648 457.778L649 457.222L650 456.778L651 456.222L652 455.75L654 454.528L655 453.75L656.972 452.056L658.778 450.389L659.583 449.611L660.917 447.972L661.306 447.472L662 446L664.056 447.972L666 449.611L667 450.389L668 451.194L670 452.806L671 453.611L672 454.389L673 455.194L675 456.806L676 457.611L677 458.389L678 459.194L680 460.806L681 461.611L682 462.389L684 464.056L685 464.944L687 466.611L688 467.389L689 468.194L691 469.806L692 470.611L693 471.389L694 472.194L696 473.806L697 474.611L698 475.389L699 476.194L701 477.806L702 478.611L703 479.389L704 480.194L706 481.806L707 482.611L708 483.389L709 484.194L711 485.806L712 486.611L713 487.389L715 489.056L716 489.944L718 491.611L719 492.389L720 493.194L722 494.806L723 495.611L724 496.389L725 497.194L727 498.806L728 499.611L729 500.389L730 501.194L732 502.806L733 503.611L734 504.389L735 505.194L737 506.806L738 507.611L739 508.389L740 509.194L742 510.806L743 511.611L744 512.389L746 514.056L747 514.944L749 516.611L750 517.389L751 518.194L753 519.806L754 520.611L755 521.389L756 522.194L758 523.806L759 524.611L760 525.389L761 526.194L763 527.806L764 528.611L765 529.389L766 530.194L768 531.806L769 532.611L770 533.389L771 534.194L773 535.806L774 536.611L775 537.389L776 538.194L778 539.806L780 541.389L782 543.056L783 543.944L785 545.611L786 546.389L787 547.194L789 548.806L790 549.611L791 550.389L792 551.194L794 552.806L795 553.611L796 554.389L797 555.194L799 556.806L800 557.611L801 558.389L802 559.194L804 560.806L805 561.611L806 562.389L807 563.194L809 564.806L810 565.611L811 566.389L813 568.056L814 568.944L816 570.611L817 571.389L818 572.194L820 573.806L821 574.611L822 575.389L823 576.194L825 577.806L826 578.611L827 579.389L828 580.194L830 581.806L831 582.611L832 583.389L833 584.194L835 585.806L836 586.611L837 587.389L838 588.194L840 589.806L841 590.611L842 591.389L844 593.056L845 593.944L847 595.611L848 596.389L849 597.194L851 598.806L852 599.611L853 600.389L854 601.194L856 602.806L857 603.611L858 604.389L859 605.194L861 606.806L862 607.611L863 608.389L864 609.194L866 610.806L867 611.611L868 612.389L869 613.194L871 614.806L872 615.611L873 616.389L875 618.056L876 618.944L878 620.611L879 621.389L880 622.194L882 623.806L883 624.611L884 625.389L885 626.194L887 627.806L888 628.611L889 629.389L890 630.194L892 631.806L893 632.611L894 633.389L895 634.194L897 635.806L898 636.611L899 637.389L900 638.194L902 639.806L903 640.611L904 641.389L905.944 643.028L908 645L903 645L895 645L895.778 645.972L896.306 646.167L897.111 646.639L899 647.389L901 648.25L902 648.75L904 649.611L906 650.389L908 651.194L909 651.611L911 652.389L913 653.194L914 653.611L916 654.389L917 654.806L919 655.611L921 656.389L923 657.25L924 657.75L926 658.611L928 659.389L930 660.194L931 660.611L933 661.389L934 661.806L936 662.611L937.944 663.333L938.5 663.556L940 664L939.667 662.5L939.361 661.944L938.889 660.944L938.306 660L937.667 659L936.333 657L935 655L934.306 654L933.611 653L932.861 652L931.389 650L930.694 649L930 648L928.667 646L925.333 641L924 639L922.611 637L921.861 636L920.389 634L919 632L917.667 630L916.333 628L915.667 627L915.056 626.056L914.389 625.056L914.056 624.5L913 623L912.306 623.778L912.333 624.306L912.278 625.111L912.639 627L912.861 628L913.139 629L913.639 631L913.861 632L914.139 633L914.361 633.944L914.75 635.5L915 637L912.944 635.028L911 633.389L910 632.611L909 631.806L907 630.194L906 629.389L905 628.611L903 626.944L902 626.056L900 624.389L899 623.611L898 622.806L896 621.194L895 620.389L894 619.611L893 618.806L891 617.194L890 616.389L889 615.611L888 614.806L886 613.194L885 612.389L884 611.611L883 610.806L881 609.194L880 608.389L879 607.611L878 606.806L876 605.194L875 604.389L874 603.611L872 601.944L871 601.056L869 599.389L868 598.611L867 597.806L865 596.194L864 595.389L863 594.611L862 593.806L860 592.194L859 591.389L858 590.611L857 589.806L855 588.194L854 587.389L853 586.611L852 585.806L850 584.194L849 583.389L848 582.611L847 581.806L845 580.194L844 579.389L843 578.611L841 576.944L840 576.056L838 574.389L837 573.611L836 572.806L834 571.194L833 570.389L832 569.611L831 568.806L829 567.194L828 566.389L827 565.611L826 564.806L824 563.194L823 562.389L822 561.611L821 560.806L819 559.194L818 558.389L817 557.611L816 556.806L814 555.194L813 554.389L812 553.611L810 551.944L809 551.056L807 549.389L806 548.611L805 547.806L803 546.194L802 545.389L801 544.611L800 543.806L798 542.194L797 541.389L796 540.611L795 539.806L793 538.194L792 537.389L791 536.611L789 535L787 533.389L786 532.611L785 531.806L783 530.194L782 529.389L781 528.611L779 526.944L777.056 525.333L776.056 524.722L775.5 524.361L774 524L774.528 522.5L774.889 521.944L775.417 520.944L776.611 519L777.806 517L778.389 516L779.611 514L780.194 513L781.389 511L782.611 509L783.194 508L784.389 506L785.611 504L786.75 502L787.25 501L788.389 499L789.611 497L790.75 495L791.222 494L792.222 492L792.778 491L793.222 490L793.778 489L794.222 488L794.778 487L795.222 486L796.222 484L796.75 483L797.167 482L797.611 481L798.389 479L799.194 477L799.972 475L800.611 473L800.861 472L801.361 470L801.611 469L801.944 467L802.056 466L802.389 464L802.611 463L802.917 461L802.972 460L803.083 458L803.389 456L803.611 455L803.917 453L803.972 452L804 450L804 449L804 447L804 444L804 443L803.972 441L803.917 440L803.611 438L803.389 437L803.083 435L803.028 434L802.972 432L802.917 431L802.611 429L802.389 428L802.083 426L801.972 424L801.917 423L801.611 421.056L801.25 419.5L801 418L798.944 418.083L797 418.389L795.056 418.778L794.056 418.917L792 419L792 421.056L792.028 422.056L792.083 423L792.389 425L792.611 426L792.917 428L792.972 429L793.083 431L793.222 432L793.611 434L793.917 436L793.972 437L794 438L794 440L794 446L794 453L794 455L793.972 456L793.917 457L793.611 459L793.389 460L793.194 461L792.806 463L792.611 464L792.361 465L792.139 466L791.556 468L790.806 470L790.389 471L789.667 473L789.333 474L788.972 475L788.611 476L787.75 478L787.222 479L786.778 480L786.222 481L785.778 482L785.222 483L784.778 484L783.778 486L783.222 487L782.778 488L782.222 489L781.778 490L780.75 492L780.167 493L779.611 494L778.389 496L777.806 497L776.611 499L775.389 501L774.194 503L773.611 504L772.389 506L771.806 507L770.611 509L769.389 511L768.833 512L768.278 512.944L767.833 513.944L767.5 514.5L767 516L765.5 515.639L764.944 515.278L763.944 514.694L763 513.972L761 512.389L760 511.611L759 510.806L757 509.194L756 508.389L755 507.611L753.056 506.028L752.056 505.278L751.5 504.778L750 504L750.528 502.5L750.889 501.944L751.417 500.944L752.611 499L753.75 497L754.222 496L754.778 495L755.222 494L756.222 492L756.778 491L757.222 490L757.778 489L758.222 488L758.778 487L759.222 486L759.778 485L760.222 484L761.222 482L761.75 481L762.167 480L762.611 479L763.389 477L764.25 475L764.75 474L765.611 472L765.972 471L766.667 469L767 468L767.611 466L768.139 464L768.361 463L768.611 462L769 460L769.389 458L769.611 457L769.917 455L769.972 454L770.083 452L770.389 450L770.611 449L770.917 447L770.972 446L771 444L771 442L771 440L771 439L771 438L770.917 436L770.778 435L770.611 434L770.222 432L770.083 431L769.972 429L769.917 428L769.583 426.056L769 424L774 424L778 424L786 424L786 413L780 413L779 413L775 413L769 413L768 413L758 413L753 413L750 413L746 413L746 424L760 424L760 426.056L760.028 427.056L760.083 428L760.389 430L760.611 431L760.917 433L760.972 434L761 436L761 437L761 441L761 446L761 448L760.972 449L760.917 450L760.611 452L760.389 453L760.222 454L760.056 455L759.944 456L759.611 458L759.361 459L758.861 461L758.611 462L757.972 464L757.611 465L756.75 467L756.25 468L755.389 470L754.611 472L754.167 473L753.75 474L752.778 476L752.222 477L751.778 478L751.222 479L750.778 480L750.222 481L749.778 482L749.222 483L748.222 485L747.778 486L747.222 487L746.222 489L745.778 490L745.222 491L744.778 492L744.25 493L743.861 493.944L743.278 495.5L743 497L741.5 496.306L740.944 495.917L739.944 495.278L738 493.806L736 492.194L735 491.389L734 490.611L733 489.806L731 488.194L730 487.389L729 486.611L728 485.806L726 484.194L725 483.389L724 482.611L723 481.806L721 480.194L720 479.389L719 478.611L717 476.944L716 476.056L714 474.389L713 473.611L712 472.806L710 471.194L709 470.389L708 469.611L707 468.806L705 467.194L704 466.389L703 465.611L702 464.806L700 463.194L699 462.389L698 461.611L697 460.806L695 459.194L694 458.389L693 457.611L692 456.806L690 455.194L689 454.389L688 453.611L686 451.944L685 451.056L683 449.389L682 448.611L681 447.806L679 446.194L678 445.389L677 444.611L676 443.806L674 442.194L673 441.389L672 440.639L671.056 439.889L670.056 439.222L669.5 438.75L668 438L668.806 436.5L668.972 435.944L669.361 434.944L669.667 434L670.333 432L671 430L671.583 428L671.778 427L671.972 425L672.028 424L672.083 423L672.389 421L672.611 420L672.833 418L672.611 416L672.389 415L672.083 413L672.028 412L671.972 411L671.778 409L671.583 408L671 406L670.667 405L669.972 403L669.639 402.056L669.167 401.056L668.972 400.5L668 399L669.5 398.306L670.056 397.917L671.056 397.306L672 396.667L673 396L676 394L678 392.667L680 391.389L682 390.194L683 389.611L685 388.333L686 387.667L689 385.667L696 381L698 379.667L699 379L701 377.667L702 377.028L703 376.389L704 375.806L706 374.611L708 373.333L709 372.667L711 371.333L718 366.667L720 365.333L721 364.667L723 363.389L724 362.806L726 361.611L728 360.333L729 359.667L732 357.667L735 355.667L736 355L738 353.667L739 353L741 351.667L743 350.333L744 349.667L746 348.389L747 347.806L749 346.611L751 345.333L752 344.667L754 343.333L761 338.667L763 337.333L764 336.667L765 336.028L766 335.389L768 334.194L769 333.611L770 332.972L771 332.333L772 331.667L774 330.333L775.972 329L776.889 328.361L777.694 327.639L778.222 327.25L779 326L781 326L781.75 327.5L782.222 328.056L783.611 330L784.306 331L785.694 333L786.389 334L787.139 335L788.611 337L790 339L791.333 341L794.667 346L796 348L796.667 349L797.972 351L798.611 352L799.75 354L800.222 355L800.778 356L801.222 357L801.778 358L802.222 359L802.778 360L803.222 361L803.778 362L804.222 363L804.75 364L805.611 366L805.972 367L806.667 369L807.306 371L807.611 372L807.861 373L808.361 375L808.611 376L808.806 377L809.194 379L809.389 380L809.611 381L809.917 383L809.972 384L809.972 386L809.917 387L809.611 389L809.222 391L809.083 392L808.917 394L808.778 395L808.611 396L808.194 398L807.806 400L807.611 401L807.139 403L806.861 404L806.361 406L805.861 408L805.639 409L805.361 410L805.139 411L804.861 412L804.389 413.944L804.222 414.944L804.083 415.5L804 417L805.5 417.75L806.056 417.833L807.056 418.167L809 418.611L810.944 418.917L811.5 418.972L813 419L813.611 416.944L813.861 415.944L814.139 415L814.361 414L814.639 413L814.861 412L815.139 411L815.639 409L815.861 408L816.139 407L816.639 405L816.861 404L817.361 402L817.611 401L817.917 399L817.972 398L818.083 396L818.222 395L818.611 393L818.778 392L818.917 391L819 389L819 388L819 387L819 385L819 383L819 382L818.972 380L818.917 379L818.611 377L818.389 376L818.056 374L817.944 373L817.583 371L817.306 370L817 369L816.333 367L815.667 365L815.333 364L814.611 362L814.194 361L813.389 359L813 358L812.167 356L811.722 355L811.167 354L810.611 353L809.389 351L808.25 349L807.75 348L806.611 346L805.389 344L804.194 342L803.611 341L802.333 339L801.667 338L800.333 336L799 334L797.611 332L796.861 331L795.389 329L794.694 328L793.306 326L792.611 325L791.861 324L790.444 322.056L789 320L790.5 319.472L791.056 319.111L792.056 318.583L793 317.972L794 317.333L795 316.667L797 315.333L799 314L802 312L804 310.667L805 310L807 308.667L808 308.028L809 307.389L810 306.806L812 305.611L814 304.333L815 303.667L817 302.333L826 296.333L829 294.333L830 293.667L832 292.389L833 291.806L835 290.611L837 289.333L838 288.667L840 287.333L842 286L845 284L847 282.667L849 281.333L850 280.667L852 279.389L853 278.806L855 277.611L857 276.333L858 275.667L860 274.333L861 273.667L863 272.333L869 268.333L871 267L872 266.333L873 265.667L875 264.389L877 263.194L878 262.611L880 261.333L881 260.667L883 259.333L890 254.667L892 253.333L893 252.667L895 251.389L897 250.194L898 249.611L900 248.333L901 247.667L903 246.333L904 245.667L909 242.333L912 240.333L915 238.333L916 237.667L918 236.389L920 235.194L921 234.611L922 233.972L923 233.333L924 232.667L926 231.333L932 227.333L933 226.667L935 225.333L936 224.667L938 223.389L939 222.806L941 221.611L943 220.333L944 219.667L946 218.333L947 217.667L950 215.667L951 215L952.944 213.694L953.944 213.083L954.5 212.694L956 212L955.75 213.5L955.306 215.056L954.611 217L954.194 218L953.389 220L952.694 221.944L952.25 223.5L952 225L953.472 224.222L953.972 223.694L954.833 222.889L956.389 221L957.222 220L958.944 218L960.611 216L961.389 215L963.083 213L964 212L965.778 210L967.389 208L969.056 206L969.944 205L971.611 203L972.389 202L974.083 200L975.917 198L976.778 197L978.389 195L980.056 193L980.944 192L982.5 190.056L983.472 188.5L984 187L982.5 187.083L980.944 187.417L980 187.694L978 188.306L977 188.611L975 189.139L974 189.389L972 190L970 190.667L969 191L968 191.306L967 191.611L965 192.139L964 192.389L963 192.694L961 193.306L960 193.611L959 193.861L957 194.389L955 195L954 195.333L952 196L950 196.611L949 196.861L947 197.389L946 197.694L944 198.306L943 198.611L942 198.861L941 199.139L940.056 199.361L938.5 199.75L937 200z"/>
<path style="fill:#ffffff; stroke:none;" d="M956 211L957 212L956 211z"/>
<path style="fill:#131248; stroke:none;" d="M110 271L110 275L115 275L116 276L115.972 278.056L115.917 279.056L115.611 281L115.139 283L114.861 284L114.639 285L114.361 286L114.139 287L113.611 289L113.306 290L112.694 292L112.389 293L112.139 294L111.611 296L111 298L110.667 299L110 301L109.694 302L109.389 303L108.861 305L108.611 306L108.306 307L107.694 309L107.389 310L106.861 312L106.611 313L106.306 314L105.694 316L105.389 317L105.139 318L104.611 320L104.306 321L103.694 323L103.389 324L103.139 325L102.611 327L102.306 328L102 329L101.333 331L101 332L100.694 333L100.389 334L99.8611 336L99.6111 337L99.3056 338L98.6944 340L98.3889 341L97.8611 343L97.6111 344L97.3056 345L96.6944 347L96.3889 348L95.8611 350L95.6111 351L95.3056 352L94.6944 354L94.3889 355L94.1389 356L93.5556 358L93.1667 359L92.4722 360.944L92.2778 361.5L92 363L110 363L111 362L111.083 360.5L111.222 359.944L111.417 358.944L112 357L112.667 355L113 354L113.306 353L113.611 352L114.139 350L114.389 349L114.694 348L115 347L115.667 345L116.028 344L116.389 343L117.25 341L117.778 340L118.25 339L118.833 338L119.389 337L120.611 335L121.806 333L122.389 332L123.611 330L124.194 329L124.833 328L125.444 327L126.167 326L127.639 324L128.389 323L130.083 321L131.028 320L133 318L134 317L136 315.083L137.944 313.5L139.5 312.528L141 312L141.389 313.5L141.556 315.056L141.528 316L141.333 317L140.861 319L140.611 320L140 322L139.667 323L139 325L138.694 326L138.389 327L137.861 329L137.611 330L137.306 331L136.694 333L136.389 334L135.861 336L135.611 337L135.306 338L134.694 340L134.389 341L134.139 342L133.611 344L133.306 345L132.694 347L132.417 348L132 350L131.611 352L131.389 353L131.111 355L131.25 357L131.944 359L132.5 359.972L134.083 361.75L135.028 362.5L137 363.5L139 363.917L140 363.972L142 363.917L144 363.583L145 363.306L147 362.583L149 361.583L151 360.306L152 359.583L154 357.917L155.917 356L156.778 355L157.583 354L159 352L160.306 350L160.889 349.056L161.361 348.056L161.667 347.5L162 346L160.556 345.278L160 345.25L158 345L157.25 346.5L156.778 347.056L156.111 348.056L154.611 349.972L152.972 351.667L151.5 352.639L150 353L150.028 351.5L150.222 349.944L150.417 349L151 347L151.333 346L152 344L152.306 343L152.611 342L153.139 340L153.389 339L154 337L154.667 335L155 334L155.611 332L155.861 331L156.389 329L156.694 328L157 327L157.667 325L158 324L158.611 322L158.861 321L159.139 320L159.361 319L159.639 318L159.861 317L160.361 315L160.611 314L160.917 312L161 310L161 309L160.972 307L160.694 305L160.361 304L159.889 303.028L158.583 301.25L157.778 300.5L155.972 299.5L154 299.083L152 299L151 299L149 299.083L147 299.472L145 300.25L143 301.25L142 301.861L141 302.444L140 303.167L138 304.639L137 305.389L135.083 307.083L134.222 308.028L132.611 310L131 312L129.389 314L128.639 315L127.861 316L126.389 318L125.694 319L124.306 321L123.639 321.944L122.417 323.5L121 325L121.444 323.5L121.667 322.944L122 321.944L122.333 321L123 319L123.306 318L123.611 317L124.139 315L124.389 314L124.694 313L125.306 311L125.611 310L126.139 308L126.389 307L126.694 306L127.306 304L127.611 303L127.861 302L128.389 300L128.694 299L129.306 297L129.611 296L129.861 295L130.389 293L130.694 292L131.306 290L131.611 289L131.861 288L132.389 286L132.694 285L133.306 283L133.611 282L134.139 280L134.389 279L134.694 278L135.306 276L135.611 275L135.861 274L136.139 273L136.611 271L136.778 270.056L136.972 268.5L137 267L134.944 267L133 267.028L132 267.083L130 267.389L129 267.611L128 267.778L127 267.944L126 268.056L124 268.389L123 268.611L122 268.806L120 269.194L119 269.389L118 269.611L116 269.944L114 270.222L112.056 270.611L111.5 270.75L110 271M659 346L658 345L656.5 345.278L654.944 345.944L654 346.5L653 347.222L651 348.806L650 349.583L648 351L646 352.306L644 353.444L643 353.917C642.013 354.314 641.013 354.676 640 355L638 355.583L637 355.778L635 355.972L634 356L632 355.917L630 355.528L629 355.139L628 354.722L626.083 353.528L625.222 352.75L623.722 350.972L622.556 349L622.083 348L621.417 346L621.222 345L621.056 343L621.083 342L621.389 340L621.611 339.056L621.778 338.056L621.917 337.5L622 336L624.056 335.917L626 335.611L627 335.389L629 335.083L631 334.917L633 334.611L635 334.194L637 333.806L638 333.583L639 333.306L641 332.611L642 332.194L644 331.389L646 330.611L647 330.167L648 329.722L650 328.611L652 327.306L653 326.611L654 325.861L655 325.139L656.972 323.611L658.778 321.917L660.361 320L661.861 318L662.611 317L663.972 315L664.583 314L665.528 312L666.139 310L666.361 309L666.611 308L666.917 306L667 304L666.917 302L666.5 300L666.056 299L664.75 297.083L663.917 296.222L662.972 295.417L662 294.722L660 293.639L658 293.111L656 293L655 293L653 293L651 293L650 293L648 293.028L647 293.083L645 293.389L644 293.639L642 294.139L641 294.389L640 294.694L638 295.333L636 296.028L635 296.389L633 297.25L632 297.778L630 298.778L629 299.25L627 300.444L626 301.167L625 301.861L624 302.639L622 304.139L620 305.639L619 306.389L617 308.083L615.083 310L614.222 311L613.389 312L611.861 314L611.139 315L610.389 316L609.028 318L608.389 319L607.25 321L606.778 322L606.222 323L605.778 324L605.222 325L604.25 327L603.833 328L603.389 329L602.694 331L602.139 333L601.861 334L601.389 336L601.056 338L600.944 339L600.611 341L600.389 342L600.083 344L600.028 345L600 347L600.083 349L600.389 351L600.639 352L601.167 354L601.861 356L602.278 357L603.472 359L605.083 360.972L606.028 361.917L608 363.528L609 364.139L610 364.722L611 365.139L613 365.833L614 366.139L616 366.611L618 366.917L619 366.972L621 367L623 367L625 367L626 367L628 367L630 366.917L631 366.778L632 366.583L634 366L636 365.333L638 364.611L640 363.75L641 363.222L642 362.778L643 362.222L644 361.75L646 360.556L647 359.833L649 358.361L650 357.611L652 355.917L654 354L655.917 352L657.5 350L658.056 349.056L658.722 347.5L659 346M190 301L190 306L191.5 306L193.056 306.111L194 306.333L194.972 306.722L196.667 308.111L197.278 309.028L197.694 310L198.194 312L198.389 313L198.778 315L198.917 316L199 318L199 319L199.028 321L199.083 322L199.389 324L199.611 325L199.917 327L200 329L200 331L200 332L200.028 334L200.083 335L200.389 337L200.611 338L200.917 340L201 342L201 344L201 345L201.028 347L201.083 348L201.389 350L201.611 351L201.917 353L201.972 354L202 356L202 358L202 359L202 360L202.083 362L202.222 362.944L202.417 363.944L203 366L209 366L210.472 363.944L212.083 362L214 360L215.972 358L216.917 357L218.611 355L219.389 354L221.083 352L222.028 351L224 349L224.972 348L225.917 347L227.611 345L228.389 344L230.083 342L231.028 341L233 339L233.972 338L234.917 337L236.611 335L237.389 334L239.083 332L240.028 331L242 329L243.972 327L244.917 326L246.611 324L247.389 323L249.083 321L250 320L251.778 318L252.611 317L254.139 315L254.861 314L255.611 313L256.972 311L257.611 310L258.722 308L259.528 306L259.75 305L259.917 304L260 302L259.889 300L259.278 298.083L257.889 296.5L256 295.5L254 295.083L252 295.083L251 295.25L250 295.5L248 296.5L247 297.25L245.111 299.028L243.639 301L243.111 302L242.694 303L242 305L241.417 307L241.222 308L241.083 309L240.917 311L240.583 313L239.972 315L239.611 316L238.722 318L237.556 320L236.833 321L236.139 322L234.611 324L232.917 326L231.972 327L230.083 329L228.389 331L227.611 332L225.917 334L224.972 335L223 337L221.083 339L219.5 340.944L218.528 342.5L218 344L217.278 342.5L217.25 341.944L217.056 340.944L217 339L217 337L216.972 335L216.917 334L216.611 332L216.389 331L216.083 329L216.028 328L216 326L216 325L216 322L216 320L215.972 318L215.917 317L215.611 315L215.389 314L215.083 312L215.028 311L215 310L215 308L214.972 306L214.917 305L214.611 303L214.389 302L214.056 300L213.944 299L213.583 297.056L213 295L210.944 295.028L209.944 295.083L208 295.389L206 295.861L205 296.139L204 296.361L203 296.639L201 297.139L200 297.361L199 297.639L198 297.861L196 298.389L195 298.694L193.056 299.361L192.056 299.833L191.5 300.028L190 301z"/>
<path style="fill:#ffffff; stroke:none;" d="M623 331L624.5 331L626.056 330.917L628 330.528L629 330.167L631 329.389L633 328.583L635 327.5L636.972 326L638.778 324.389L639.611 323.611L641.139 321.917L642.611 320L643.306 319L644.611 317L645.722 315L646.167 314L646.972 312L647.583 310L647.944 308L648.056 307L648.389 305L648.583 304L648.667 303L648.25 301.111L646.889 299.722L645.972 299.333L645 299.139L644 299.111L643 299.25L642 299.5L640 300.5L639 301.25L638.028 302.083L637.083 303.028L635.389 305L634.639 306L633.167 308L632.444 309L631.25 311L630.778 312L629.778 314L628.778 316L628.222 317L627.778 318L627.25 319L626.389 321L626.028 322L625.667 323L625.333 324L624.667 326L624 327.944L623.667 328.944L623.444 329.5L623 331z"/>
<path style="fill:#131248; stroke:none;" d="M857 384L856.75 385.5L856.583 386.056L856.306 387.056L856 388L855.333 390L854.667 392L851.667 401L850.667 404L850 406L849.417 408L849.222 409L849.028 410.944L849 411.5L849 413L817 413L816 414L816 423L817 424L822 424L830 424L831 424L834 424L840 424L856 424L857 423L857 419.944L857 418L856.972 417L856.944 416.056L856.75 415.056L856.722 414.5L856 413L857.944 412.667L858.75 412.278L859.889 410.889L860.306 409.972L861 408L861.333 407L862 405L863 402L866.667 391L867.333 389L867.667 388L868 387.056L868.333 386.056L868.556 385.5L869 384L871.056 383.917L873 383.611L875 383.222L876 383.056L877 382.944L879 382.583L880 382.306L882 381.667L884 381L886 380.333L888 379.583L889 379.111L891 378L892 377.389L894 376.167L895 375.528L896 374.778L898 373.194L899 372.389L900.917 370.778L902.611 368.972L903.389 368L905.056 366L905.944 365L907.583 363L909 361L909.667 360L910.972 358L911.611 357L912.722 355L913.167 354L913.611 353L914.389 351L915.167 349L915.556 348L915.833 347L916.139 346L916.611 344L916.806 343L917.194 341L917.611 339L917.917 337L917.972 335L917.917 334L917.611 332L917.361 331L917.139 330L916.556 328L915.75 326L915.222 325L914.75 324L913.528 322L911.917 320L910.972 319.028L909 317.25L908 316.5L906 315.472L904 314.861L903 314.639L902 314.389L900 314.083L899 314.028L897 314L896 314L894 314.083L892 314.417L890 315.028L889 315.389L887 316.278L886 316.861L885 317.472L883 319.083L881.083 321L880.25 322L879.472 323L878.25 325L877.778 326L877.222 327L876.778 328L876.222 329L875.778 330L875.25 331L874.389 333L874.028 334L873.667 335L873 337L872.667 338L872 340L871 343L870 346L869.333 348L868.667 350L868 352L867 355L863.667 365L863 367L862 370L861.333 372L861 372.944L860.667 373.944L860.444 374.5L860 376L858.5 375.472L856.944 374.5L855.083 372.917L854.25 371.972L853.5 371L852.417 369L851.694 367L851.417 366L851.083 364L851 362L851 361L851 359L851.028 357L851.083 356L851.417 354L852 352L852.611 350L852.861 349L853.444 347L853.833 346L854.611 344L855.389 342L855.833 341L856.25 340L856.778 339L857.778 337L858.25 336L859.389 334L860.694 332L861.417 331L862.222 330L863.083 329L865 327L867 325.083L868 324.25L869 323.472L871 322.25L872 321.778L873 321.25L874.944 320.472L876.5 320.083L878 320L878.583 317.944L878.917 316.056L879 314L875.944 314L875 314L873 314.083L871 314.389L870 314.639L868 315.139L867 315.389L865 316.028L864 316.389L862 317.25L861 317.778L860 318.25L859 318.833L858 319.389L856 320.694L855 321.389L854 322.139L852 323.639L851 324.389L849.083 326.083L848.222 327.028L847.389 328L845.806 330L844.194 332L842.694 334L841.389 336L840.25 338L839.778 339L839.222 340L838.25 342L837.389 344L837.028 345L836.333 347L836 348L835.417 350L835.056 352L834.944 353L834.778 354L834.611 355L834.389 356L834.111 358L834.111 359L834.389 361L834.611 362L834.944 364L835.056 365L835.417 367L835.694 368L836.389 370L837.25 372L837.778 373L838.861 374.972L839.472 375.917L840.25 376.778L841.083 377.583L842.028 378.306L844 379.611L845 380.167L846 380.722L848 381.611L849 381.972L851 382.667L853 383.306L853.944 383.583L854.944 383.778L855.5 383.917L857 384z"/>
<path style="fill:#ffffff; stroke:none;" d="M872 376L873.5 375.917L875.056 375.583L876 375.306L877 375L878 374.667L880 373.917L882 372.944L883 372.361L885 371.167L886 370.528L888 368.917L889.972 367L890.917 366L892.583 364L894 362L894.667 361L895.972 359L896.583 358L897.583 356L898.389 354L899.194 352L899.611 351L900.306 349L900.583 348L900.806 347L901.194 345L901.611 343L901.778 342L901.917 341L902 339L902 338L901.917 336L901.778 335L901.583 334L900.972 332L900.167 330.028L899.722 329.083L899.139 328.25L898.528 327.5L896.917 326.5L895 326.083L894 326.056L892.028 326.25L891.083 326.5L889.417 327.5L888.028 329.083L886.833 331L886.278 332L885.389 334L885.028 335L884.333 337L884 338L883 341L881.667 345L881.333 346L880.667 348L878.667 354L878 356L876.333 361L874.333 367L873.333 370L873 371L872.417 372.944L872.222 373.944L872.083 374.5L872 376z"/>
<path style="fill:#131248; stroke:none;" d="M262 333.472L261 333.861L259 334.778L258 335.25L256 336.472L254.083 338.083L252.472 340L251.25 342L250.778 343L249.833 345L249.389 346L248.694 348L248.389 349L248.139 350L247.639 352L247.389 353L247.222 354L247.083 355L246.972 357L246.917 358L246.611 360L246.389 361L246.083 363L246.028 364L246 365L246 367L246 369L246 370L246.083 372L246.389 374L246.806 376L247 377L247.417 379L248 381L248.333 382L249.028 384L249.389 385L250.25 387L250.778 388L251.25 389L252.472 391L254.083 392.972L255.028 393.917L257 395.528L258 396.139L260 397.139L261 397.528L262 397.75L263 397.917L265 398L266 398L267 398L269 397.917L270 397.778L271 397.583L273 396.917L274 396.444L275 395.917L277 394.583L277.972 393.778L278.917 392.917L280.583 391L281.278 390L281.917 389L282.917 387L283.667 385L284 384L284.611 382L284.861 381L285.361 379L285.611 378L285.778 377L285.917 376L286.028 374L286.083 373L286.389 371L286.611 370L286.917 368L287 366L286.917 364L286.611 362L286.389 361L286.083 359L286.028 358L285.972 356L285.917 355L285.611 353L285.139 351L284.861 350L284.611 349L283.972 347L283.611 346L283.167 345L282.222 343L281.75 342L280.528 340L278.917 338.083L277 336.472L275 335.25L274 334.778L272 333.861L271 333.472L269 333.083L267 333L266 333L264 333.083L263 333.25L262 333.472z"/>
<path style="fill:#ffffff; stroke:none;" d="M269 394L269.972 392.5L270.139 391.944L270.556 390.944L270.778 390L271.194 388L271.611 386L271.778 385L271.917 384L272 382L272 380L272 376L272 354L272 351L272 349L272 347L271.917 345L271.583 343L270.972 341L270.639 340.056L270.167 339.056L269.972 338.5L269 337L267.5 337L265.944 337.111L265.028 337.333L263.306 338.333L262.111 340.028L261.417 342L261.222 343L261.083 344L261 346L261 347L261 349L261 353L261 372L261 382L261 384L261.028 386L261.222 388L261.417 389L262.111 390.972L263.306 392.667L265.028 393.667L265.944 393.889L267.5 394L269 394z"/>
<path style="fill:#131248; stroke:none;" d="M676 413L676 424L690 424L694 424L700 424L716 424L716 413L710 413L708 413L705 413L699 413L698 413L694 413L688 413L683 413L676 413M887 413L887 424L889.056 424L890.056 424L892 424L900 424L908 424L909 424L917 424L920 424L921 424L922 424L926 424L927 423L927 419L927 414L926 413L924.5 413L922 413L921 413L917 413L913 413L907 413L903 413L887 413M957 413L957 424L989 424L997 424L997 419L997 413L989 413L957 413M1027 413L1027 424L1031 424L1035 424L1036 424L1038 424L1039 424L1047 424L1048 424L1049 424L1051 424L1052 424L1054 424L1062 424L1063.94 424L1064.94 424L1067 424L1067 413L1064.94 413L1063.94 413L1062 413L1060 413L1059 413L1027 413M1097 413L1097 424L1099.06 424L1100.06 424L1102 424L1103 424L1104 424L1106 424L1109 424L1110 424L1112 424L1116 424L1117 424L1121 424L1122 424L1123 424L1124 424L1126 424L1127 424L1129 424L1133 424L1137 424L1137 413L1135.5 413L1133.94 413L1130 413L1126 413L1122 413L1120 413L1118 413L1116 413L1108 413L1107 413L1103 413L1102 413L1100.06 413L1097 413M874 443.417L873 443.611L871 444L869 444.417L867 445L866 445.333L865 445.667L863 446.417L862 446.889L861 447.417L859 448.667L858 449.333L856 450.694L855 451.417L853 453.083L851 455L850 456L848.028 458L847.083 459L845.389 461L844.639 462L843.139 464L842.389 465L841.694 466L841 467L839.667 469L839.028 470L838.389 471L837.806 472L836.611 474L835.389 476L834.833 477L834.25 478L833.778 479L833.25 480L832.389 482L831.611 484L830.75 486L830.25 487L829.389 489L829.028 490L828.667 491L828.333 492L827.667 494L826.667 497L826 499L825.389 501L825.139 502L824.639 504L824.389 505L824.056 507L823.944 508L823.611 510L823.389 511L823.083 513L823 515L823 516L823 519L823 521L823 522L823.028 524L823.083 525L823.389 527L823.639 528L824.139 530L824.389 531L825.028 533L825.417 534L826.417 536L827.694 538L829.222 539.917L831.028 541.583L833 542.917L834 543.444L835 543.917L837 544.583L839 544.917L840 544.972L841 545L843 545L845 545L846 544.972L847 544.917L849 544.611L850 544.361L851 544.139L853 543.556L855 542.75L856 542.222L857 541.75L859 540.611L860 539.972L862 538.667L864 537.306L865 536.583L866 535.778L868 533.972L870 532L871.972 530L872.917 529L874.611 527L875.361 526L876.861 524L877.611 523L879 521L879.667 520L880.972 518L881.611 517L882.75 515L883.222 514L883.778 513L884.222 512L884.778 511L885.222 510L886.222 508L886.75 507L887.611 505L888.389 503L889.194 501L889.611 500L890.333 498L890.667 497L891.333 495L892 493L892.306 492L892.611 491L893.139 489L893.361 488L893.611 487L893.806 486L894.194 484L894.611 482L894.778 481L894.917 480L895.028 478L895.083 477L895.389 475L895.778 473L895.917 472L896 470L895.972 468L895.917 467L895.611 465L895.389 464L895.222 463L894.944 461L894.778 460L894.583 459L894.306 458L893.611 456L892.75 454L892.222 453L891.75 452L890.528 450L889.75 449.028L888.917 448.083L887 446.472L886 445.861L885 445.278L883 444.472L881 444.056L880 443.944L878 443.611L876 443.306L874 443.417z"/>
<path style="fill:#ffffff; stroke:none;" d="M846 490L856 490L857 490L859 490L867 490L870 490L876 490L876.611 487.944L876.861 486.944L877.139 486L877.361 485L877.861 483L878.139 482L878.361 481L878.639 480L878.861 479L879.139 478L879.611 476L879.806 475L880.194 473L880.389 472L880.611 471L880.917 469L880.972 468L881 466L881 464L881 463L880.972 461L880.917 460L880.583 458L879.889 456L879.361 455.028L878.694 454.111L876.972 452.722L875 452.111L874 452.028L873 452.028L871 452.25L870 452.472L868 453.278L866 454.472L864 456.083L863.028 457.028L862.083 458L860.417 460L859.694 461L858.333 463L857.028 465L856.389 466L855.25 468L854.778 469L854.222 470L853.778 471L853.25 472L852.833 473L852.389 474L851.611 476L850.75 478L850.25 479L849.389 481L848.611 483L847.806 485L847.389 486L846.667 487.944L846.444 488.5L846 490M843 499L842.389 501.056L842.139 502.056L841.861 503L841.639 504L841.361 505L841.139 506L840.861 507L840.361 509L840.139 510L839.861 511L839.389 513L839.194 514L838.806 516L838.611 517L838.389 518L838.083 520L838.028 521L838 523L838 525L838 527L838 528L838.083 530L838.5 532L839.5 533.917L841.083 535.5L843 536.5L844 536.722L845 536.833L847 536.583L849 535.972L850 535.583L852 534.5L853 533.75L855 531.972L856.972 530L857.917 529L859.583 527L860.306 526L861.611 524L862.75 522L863.222 521L863.778 520L864.222 519L864.778 518L865.222 517L865.778 516L866.75 514L867.167 513L867.611 512L868.389 510L868.806 509L869.611 507L870.389 505L871.167 503L871.528 502.056L871.917 500.5L872 499L864 499L860 499L857 499L855 499L851 499L843 499z"/>
<path style="fill:#131248; stroke:none;" d="M580 512L582.056 512.111L583.056 512.333L584.889 513.333L585.639 514.111L586.194 515.028L586.5 517L586.139 519L585.861 520L585.639 521L585.361 522L585.139 523L584.611 525L584 527L583.389 529L582.861 531L582.611 532L582.306 533L581.694 535L581.389 536L581.139 537L580.611 539L580.306 540L580 541L579.667 542L579 544L578.694 545L578.389 546L578.139 547L577.611 549L577.306 550L576.694 552L576.389 553L576.139 554L575.611 556L575.306 557L575 558L574.667 559L574 561L573.694 562L573.389 563L573.139 564L572.861 565L572.639 565.944L572.25 567.5L572 569L580 569L590 569L591 568L591.083 566.5L591.222 565.944L591.417 564.944L591.694 564L592.306 562L592.611 561L593.139 559L593.389 558L593.694 557L594.306 555L594.611 554L595.167 552L595.444 551L596.25 549L596.778 548L597.778 546L598.222 545L598.778 544L599.778 542L600.25 541L601.389 539L602.028 538L602.667 537L604 535L605.333 533L606 532L607.389 530L608.139 529L609.639 527L610.389 526L612.083 524L613.028 523L614 522L616 520.111L616.944 519.333L618.5 518.361L620 518L619.75 519.5L619.361 521.056L619.139 522L618.861 523L618.611 524L618.306 525L617.694 527L617.389 528L616.861 530L616.611 531L616.306 532L615.694 534L615.389 535L614.861 537L614.611 538L614.306 539L613.694 541L613.389 542L613.139 543L612.611 545L612.306 546L611.694 548L611.389 549L611.139 550L610.611 552L610.306 553L609.694 555L609.389 556L608.861 558L608.611 559L608.306 560L607.694 562L607.389 563L607.139 564L606.861 565L606.639 565.944L606.25 567.5L606 569L614 569L624 569L624.444 567.5L624.667 566.944L625 565.944L625.333 565L626 563L626.611 561L627.139 559L627.389 558L627.694 557L628 556L628.333 555L629.333 552L630.333 549L630.667 548L631.389 546L631.833 545L632.278 544L632.833 543L633.389 542L634.611 540L635.806 538L636.389 537L637.028 536L637.667 535L639 533L640.389 531L641.139 530L642.639 528L643.361 527L644.139 526L644.861 525L646.389 523L648.083 521.083L649.944 519.5L651.5 518.528L653 518L653 519.5L652.972 520.056L652.778 522L652.583 523L652 525L651.694 526L651.389 527L651.139 528L650.611 530L650.306 531L649.694 533L649.389 534L648.861 536L648.611 537L648.306 538L647.694 540L647.389 541L646.861 543L646.611 544L646.306 545L646 546L645.333 548L644.694 550L644.389 551L643.861 553L643.639 554L643.389 555L643.194 556L642.806 558L642.417 560L642.306 561L642.5 563L642.861 564L643.278 564.972L644.472 566.75L645.25 567.5L646.083 568.083L648 568.972L650 569.583L651 569.778L653 569.889L654 569.778L656 569.306L658 568.611L659 568.167L660 567.722L662 566.528L664 564.917L665 563.972L666.972 562L667.917 561L669.583 559L670.972 557L671.583 556L672.083 555.056L672.722 553.5L673 552L672 551L670 551L668.583 552.5L668.167 553.056L667.333 554.056L666.611 555L664.917 556.889L663.056 558.278L662.5 558.639L661 559L661.25 557.5L661.639 555.944L661.861 555L662.139 554L662.389 553L662.694 552L663 551L663.667 549L664 548L664.306 547L664.611 546L664.861 545L665.389 543L665.694 542L666.306 540L666.611 539L666.861 538L667.389 536L667.694 535L668 534L668.667 532L669 531L669.611 529L669.861 528L670.139 527L670.361 526L670.639 525L670.861 524L671.139 523L671.611 521L671.917 519L671.972 518L672 517L672 515L672 513L671.972 512L671.667 510L671.278 509L669.889 507.111L668.972 506.333L668 505.722L667 505.333L666 505.111L665 505.028L663 505L661 505.083L659 505.472L657 506.278L656 506.861L654 508.167L653 508.861L651.028 510.389L649.222 512.083L647.611 514L645.944 516L645.056 517L643.417 519L642 521L641.333 522L640 524L638.667 526L638.028 527L637.417 527.944L636.889 528.944L636.528 529.5L636 531L635.722 529.5L635.917 528.944L636.056 527.944L636.611 526L637.139 524L637.361 523L637.639 522L637.861 521L638.361 519L638.611 518L638.917 516L638.972 515L639 514L638.917 512L638.5 510L638.056 509L637.5 508.028L635.917 506.333L634 505.333L633 505.111L632 505.028L630 505L629 505L627 505.083L625 505.472L623 506.278L622 506.833L620 508.028L618 509.417L617 510.222L615.083 512.028L613.389 514L612.611 515L611 517L609.389 519L607.861 521L607.139 522L606.389 523L605.694 524L604.389 526L603.278 527.944L602.833 528.944L602.5 529.5L602 531L601.722 529.5L601.917 528.944L602.056 527.944L602.361 527L602.667 526L603 525L603.611 523L603.861 522L604.389 520L605 518L605.333 517L606 515L606.306 514L606.611 513L607.139 511L607.389 510L608 508.056L608.333 507.056L608.556 506.5L609 505L605.944 505L605 505L603 505.028L602 505.083L600 505.389L599 505.611L598 505.778L597 505.944L596 506.056L594 506.389L593 506.611L591 506.917L589 507.028L588 507.083L586 507.389L585 507.611L584 507.806L582.111 508.306L581.333 508.722L580.722 509.278L580.333 510.056L580 512M700 540.472L699 540.861L697 541.778L696 542.25L694 543.472L692.083 545.083L690.472 547L689.25 549L688.778 550L687.833 552L687.389 553L686.694 555L686.389 556L686.139 557L685.639 559L685.389 560L685.222 561L685.083 562L684.972 564L684.917 565L684.611 567L684.389 568L684.083 570L684.028 571L684 573L684 575L684 577L684.083 579L684.222 580L684.639 582L684.861 583L685.139 584L685.361 585L685.639 586L686.139 588L686.694 590L687.389 592L687.833 593L688.25 594L689.25 596L690.472 598L692.083 599.972L693.028 600.917L695 602.528L696 603.139L698 604.139L699 604.528L700 604.75L701 604.917L703 605L704 605L705 605L707 604.917L708 604.778L709 604.583L710 604.278L711 603.917L713 602.917L714 602.278L715 601.583L716.917 599.917L718.528 598L719.139 597L720.222 595L720.75 594L721.611 592L722.306 590L722.611 589L722.861 588L723.361 586L723.611 585L723.917 583L724.028 581L724.083 580L724.389 578L724.611 577L724.917 575L725 573L724.917 571L724.611 569L724.389 568L724.083 566L724.028 565L723.972 563L723.917 562L723.611 560L723.139 558L722.861 557L722.611 556L721.972 554L721.611 553L720.722 551L719.611 549L718.972 548L717.583 546.028L716.778 545.083L715.917 544.25L714.972 543.472L713 542.25L712 541.778L710 540.861L709 540.472L707 540.083L705 540L704 540L702 540.083L701 540.25L700 540.472z"/>
<path style="fill:#ffffff; stroke:none;" d="M707 601L708 599.5L708.222 598.944L708.778 597.944L709.528 596L709.917 594L710 592L710 591L710 589L710 585L710 562L710 557L710 555L710 553L709.917 551L709.75 550L709.528 549L708.778 547.056L708.222 546.056L708 545.5L707 544L705.5 544L703.944 544.111L703.028 544.333L701.306 545.333L700.111 547.028L699.417 549L699.222 550L699.083 551L699 553L699 554L699 556L699 560L699 579L699 589L699 591L699.028 593L699.222 595L699.417 596L700.111 597.972L701.306 599.667L703.028 600.667L703.944 600.889L705.5 601L707 601z"/>
<path style="fill:#131248; stroke:none;" d="M1134 609L1134.08 610.5L1134.44 612L1134.86 612.944L1135.03 613.5L1136 615L1132 615L1126 615L1125 615L1120 615L1117 615L1116 615L1114 615L1113 615L1112 615L1108 615L1106 615L1105 615L1102 615L1100.06 615L1097 615L1097 620L1099.06 620L1100.06 620L1102 620L1103 620L1104 620L1105 620L1113 620L1114 620L1115 620L1117 620L1119 620L1120 620L1122 620L1130 620L1131.94 620L1132.94 620L1135 620L1134.75 621.5L1134.58 622.056L1134.31 623.056L1133.67 624.944L1133.44 625.5L1133 627L1134.5 626.917L1136.06 626.528L1138 625.75L1139 625.222L1140 624.778L1141 624.222L1142 623.778L1143 623.222L1144 622.778L1145 622.222L1146 621.778L1147 621.222L1149 620.222L1149.94 619.806L1150.94 619.222L1151.5 619L1153 618L1152.22 617L1151.69 616.778L1150.89 616.194L1149.97 615.778L1149 615.222L1148 614.778L1146 613.778L1145 613.222L1143 612.222L1142 611.778L1141 611.222L1140 610.778L1139 610.25L1137.06 609.472L1135.5 609.083L1134 609M1110 694L1109 693L1109 690.944L1109.03 689.944L1109.08 689L1109.39 687L1109.81 685L1110.19 683L1110.39 682L1110.86 680L1111.14 679L1111.36 678L1111.86 676L1112.14 675L1112.61 673L1112.81 672L1113.19 670L1113.39 669L1113.86 667L1114.14 666L1114.64 664L1114.86 663L1115.14 662L1115.61 660L1115.81 659L1116.19 657L1116.39 656L1116.86 654L1117.14 653L1117.36 652L1117.86 650L1118.14 649L1118.61 647L1118.92 645.056L1118.97 644.056L1119 642L1116.94 642L1115.94 642L1114 642.083L1113 642.222L1112 642.417L1110 643L1109 643.306L1108 643.611L1106 644.139L1105 644.389L1104 644.694L1103 645L1101 645.583L1099 646L1098 646.194L1096 646.611L1094 646.917L1092 647.083L1090 647.389L1089.06 647.611L1088.06 647.778L1087.5 647.917L1086 648L1085.92 649.5L1085.78 650.056L1085.61 651.056L1085.14 653L1084.64 655L1084.39 656L1084.08 657.944L1084 659.5L1084 661L1086.06 661L1088 661L1089 661L1089.94 661L1090.94 661L1093 661L1092.97 662.5L1092.78 664.056L1092.61 665L1092.14 667L1091.86 668L1091.64 669L1091.14 671L1090.86 672L1090.39 674L1090.19 675L1089.81 677L1089.61 678L1089.14 680L1088.86 681L1088.64 682L1088.36 683L1088.14 684L1087.86 685L1087.39 687L1087.08 689L1087.03 690L1087 692L1087 693L1087 695L1087 696L1087 697L1087.08 699L1087.5 701L1087.94 702L1089.25 704L1090.08 704.972L1091.03 705.917L1093 707.528L1095 708.722L1097 709.528L1098 709.75L1099 709.944L1101 710.222L1103 710.583L1104 710.694L1105 710.694L1107 710.389L1109 710.083L1110 710.028L1111 709.972L1113 709.778L1114 709.583L1116 709L1117 708.667L1119 707.972L1120 707.583L1122 706.583L1124 705.389L1126 704.167L1127 703.528L1128 702.778L1130 701.194L1132 699.611L1133 698.778L1133.97 697.917L1134.92 696.972L1136.61 695L1138.19 693L1139.81 691L1141.31 689L1142.61 687L1143.19 686L1143.81 685L1144.36 684L1144.94 683L1145.94 681L1146.36 680L1146.83 679L1147.25 678L1147.75 677L1148.61 675L1148.97 674L1149.33 673L1150 671L1150.58 669L1150.94 667L1151.06 666L1151.39 664L1151.61 663L1151.92 661L1151.97 660L1152 658L1152 656L1152 654L1151.97 653L1151.78 651L1151.58 650L1150.92 648L1149.92 646.028L1149.28 645.083L1147.78 643.472L1146.92 642.861L1145 641.861L1143 641.25L1142 641.083L1140 641.028L1139 641.083L1137 641.417L1135 642.111L1134 642.639L1133.03 643.306L1131.25 645.028L1130.5 646L1129.5 648L1129.08 650L1129.03 651L1129.08 653L1129.47 655L1130.25 657L1130.75 658L1131.61 660L1132.31 662L1132.58 663L1132.92 665L1132.97 666L1132.97 668L1132.92 669L1132.58 671L1132.31 672L1131.61 674L1131.17 675L1130.75 676L1129.75 678L1129.17 679L1127.97 681L1126.67 683L1125.31 685L1124.58 686L1122.92 687.972L1121.97 688.917L1120 690.583L1119 691.306L1118 691.972L1117 692.583L1115 693.5L1113.06 693.917L1111.5 694L1110 694M973 652L973.111 653.389L973.722 654.417L974.333 654.917L975.972 655.806L976.944 656.194L977.5 656.5L979 657L979 658.5L978.972 659.056L978.778 661L978.583 662L978 664L977.694 665L977.389 666L976.861 668L976.611 669L976.306 670L975.694 672L975.389 673L974.861 675L974.611 676L974 678L973.667 679L973 681L972.389 683L972.139 684L971.611 686L971.306 687L971 688L970.667 689L970 691L969.389 693L969.139 694L968.611 696L968.306 697L968 698L967.667 699L967 701L966.694 702L966.389 703L966.139 704L965.861 705L965.639 705.944L965.25 707.5L965 709L970 709L972 709L977 709L978 709L983 709L983.25 707.5L983.639 705.944L983.861 705L984.139 704L984.389 703L984.694 702L985.306 700L985.611 699L986.139 697L986.389 696L986.694 695L987 694L987.667 692L988.389 690L988.833 689L989.25 688L989.778 687L990.25 686L990.833 685L991.389 684L992.611 682L993.806 680L994.389 679L995.028 678L995.667 677L997 675L998.389 673L999.139 672L1000.64 670L1001.39 669L1003.08 667L1004.03 666L1005 665L1007 663.111L1007.94 662.333L1009.5 661.361L1011 661L1010.75 662.5L1010.36 664.056L1010.14 665L1009.86 666L1009.61 667L1009.31 668L1008.69 670L1008.39 671L1007.86 673L1007.61 674L1007 676L1006.33 678L1006 679L1005.39 681L1004.86 683L1004.61 684L1004.31 685L1003.69 687L1003.39 688L1003.14 689L1002.61 691L1002.31 692L1002 693L1001.67 694L1001 696L1000.39 698L1000.14 699L999.611 701L999.306 702L998.694 704L998.417 705L998.222 705.944L998.028 707.5L998 709L1003 709L1005 709L1009 709L1015 709L1015.44 707.5L1015.67 706.944L1016 705.944L1016.33 705L1017 703L1017.31 702L1017.61 701L1018.14 699L1018.39 698L1019 696L1019.33 695L1020 693L1020.67 691L1021.03 690L1021.39 689L1021.83 688L1022.25 687L1022.78 686L1023.25 685L1024.39 683L1025.03 682L1025.67 681L1027 679L1027.67 678L1029 676L1030.33 674L1031.69 672L1032.39 671L1033.14 670L1033.86 669L1035.39 667L1036.22 666L1038.03 664.083L1039.94 662.5L1041.5 661.528L1043 661L1042.97 662.5L1042.78 664.056L1042.58 665L1042.31 666L1041.69 668L1041.39 669L1040.86 671L1040.61 672L1040 674L1039.33 676L1039 677L1038.39 679L1037.86 681L1037.61 682L1037.31 683L1036.69 685L1036.39 686L1036.14 687L1035.61 689L1035.31 690L1034.69 692L1034.39 693L1033.86 695L1033.64 696L1033.39 697L1033.08 699L1033 701L1033.08 703L1033.25 704L1033.5 704.972L1034.5 706.75L1035.25 707.5L1036.08 708.083L1038 708.972L1040 709.583L1041 709.778L1042 709.889L1043 709.889L1044 709.778L1046 709.306L1048 708.583L1050 707.583L1052 706.306L1054 704.778L1055 703.917L1056.92 702L1058.58 700L1059.97 698L1060.58 697L1061.5 695.056L1061.92 693.5L1062 692L1060.5 692.111L1058.97 692.722L1057.22 694.111L1055.61 695.972L1053.97 697.667L1052.5 698.639L1051 699L1051.08 697.5L1051.42 695.944L1051.69 695L1052.31 693L1052.61 692L1053.14 690L1053.39 689L1054 687L1054.33 686L1055 684L1055.33 683L1056 681L1056.31 680L1056.61 679L1057.14 677L1057.39 676L1057.69 675L1058.33 673L1059 671L1059.31 670L1059.61 669L1059.86 668L1060.14 667L1060.61 665L1060.94 663L1061.06 662L1061.39 660L1061.58 659L1061.69 657L1061.36 655L1060.75 653L1060.31 652.028L1058.89 650.306L1057 649.111L1056 648.722L1055 648.444L1053 648.306L1052 648.417L1050 648.861L1049 649.167L1048 649.444L1046 650.278L1044 651.472L1043 652.25L1042 653.083L1040 655L1039 656L1037.03 658L1036.08 659L1034.39 661L1033.64 662L1032.86 663L1031.39 665L1030.69 666L1029.31 668L1028.64 668.944L1027.42 670.5L1026 672L1026.44 670.5L1026.67 669.944L1027 668.944L1027.61 667L1027.86 666L1028.36 664L1028.78 662L1028.92 661L1029 659L1029 658L1029 657L1028.92 655L1028.5 653L1028.06 652.028L1027.5 651.111L1025.92 649.694L1024 648.889L1023 648.639L1022 648.417L1020 648.306L1018 648.639L1017 648.861L1016 649.167L1014 649.861L1013 650.278L1011 651.472L1009 653.083L1007 655L1006 656L1004.08 658L1002.39 660L1001.64 661L1000.14 663L999.361 664L998.639 665L997.861 666L996.472 667.944L995.917 668.944L995.528 669.5L995 671L994.528 669.5L994.667 668.944L994.75 667.944L995.333 666L996 664L996.611 662L996.861 661L997.389 659L998 657L998.333 656L999 654L999.583 652L999.778 651.056L999.972 649.5L1000 648L997.944 648L996.944 648.028L996 648.083L994 648.389L993 648.611L992 648.806L990 649.194L989 649.389L988 649.611L986 649.944L985 650.056L983 650.389L982 650.611L980 650.944L979 651.056L977 651.389L976.056 651.611L975.056 651.778L974.5 651.917L973 652z"/>
<path style="fill:#ffffff; stroke:none;" d="M993.333 671.667L993.333 672L993.667 672.333L993.667 671.667L993.333 671.667z"/>
</svg>
