<?xml version="1.0" encoding="UTF-8" standalone="no"?>
<!DOCTYPE svg PUBLIC "-//W3C//DTD SVG 1.1//EN"
 "http://www.w3.org/Graphics/SVG/1.1/DTD/svg11.dtd">
<!-- Generated by graphviz version 8.0.3 (20230416.2022)
 -->
<!-- Pages: 1 -->
<svg width="144pt" height="131pt"
 viewBox="0.00 0.00 144.00 131.00" xmlns="http://www.w3.org/2000/svg" xmlns:xlink="http://www.w3.org/1999/xlink">
<g id="graph0" class="graph" transform="scale(1 1) rotate(0) translate(4 127)">
<polygon fill="white" stroke="none" points="-4,4 -4,-127 140,-127 140,4 -4,4"/>
<!-- 电子枪 -->
<g id="node1" class="node">
<title>电子枪</title>
<polygon fill="none" stroke="black" points="59,-123 0,-123 0,-87 59,-87 59,-123"/>
<text text-anchor="middle" x="29.5" y="-101.3" font-family="Times,serif" font-size="14.00">电子枪</text>
</g>
<!-- 晶体 -->
<g id="node2" class="node">
<title>晶体</title>
<polygon fill="none" stroke="black" points="94.5,-36 40.5,-36 40.5,0 94.5,0 94.5,-36"/>
<text text-anchor="middle" x="67.5" y="-14.3" font-family="Times,serif" font-size="14.00">晶体</text>
</g>
<!-- 电子枪&#45;&gt;晶体 -->
<g id="edge1" class="edge">
<title>电子枪&#45;&gt;晶体</title>
<path fill="none" stroke="black" d="M31.87,-86.76C33.66,-76.85 36.66,-64.35 41.5,-54 42.9,-51.01 44.57,-48.02 46.39,-45.13"/>
<polygon fill="black" stroke="black" points="49.7,-47.49 52.52,-37.28 43.95,-43.51 49.7,-47.49"/>
<text text-anchor="middle" x="63" y="-57.8" font-family="Times,serif" font-size="14.00">电子束</text>
</g>
<!-- 探测器 -->
<g id="node3" class="node">
<title>探测器</title>
<polygon fill="none" stroke="black" points="136,-123 77,-123 77,-87 136,-87 136,-123"/>
<text text-anchor="middle" x="106.5" y="-101.3" font-family="Times,serif" font-size="14.00">探测器</text>
</g>
<!-- 探测器&#45;&gt;晶体 -->
<g id="edge2" class="edge">
<title>探测器&#45;&gt;晶体</title>
<path fill="none" stroke="black" d="M94.77,-76.84C91.5,-69.41 87.91,-61.37 84.5,-54 81.83,-48.24 78.83,-41.99 76.1,-36.39"/>
<polygon fill="black" stroke="black" points="91.91,-78.04 99.12,-85.8 98.33,-75.24 91.91,-78.04"/>
<text text-anchor="middle" x="112" y="-57.8" font-family="Times,serif" font-size="14.00">散射线</text>
</g>
</g>
</svg>
