<?xml version="1.0" encoding="UTF-8" standalone="no"?>
<!DOCTYPE svg PUBLIC "-//W3C//DTD SVG 1.1//EN"
 "http://www.w3.org/Graphics/SVG/1.1/DTD/svg11.dtd">
<!-- Generated by graphviz version 8.0.3 (20230416.2022)
 -->
<!-- Pages: 1 -->
<svg width="384pt" height="79pt"
 viewBox="0.00 0.00 384.00 79.00" xmlns="http://www.w3.org/2000/svg" xmlns:xlink="http://www.w3.org/1999/xlink">
<g id="graph0" class="graph" transform="scale(1 1) rotate(0) translate(4 75)">
<polygon fill="white" stroke="none" points="-4,4 -4,-75 380,-75 380,4 -4,4"/>
<g id="clust1" class="cluster">
<title>cluster</title>
<polygon fill="none" stroke="black" stroke-dasharray="5,2" points="144,-8 144,-63 246,-63 246,-8 144,-8"/>
<text text-anchor="middle" x="195" y="-47.8" font-family="Times,serif" font-size="14.00">低压水银蒸汽</text>
</g>
<!-- 栅极 G -->
<g id="node1" class="node">
<title>栅极 G</title>
<text text-anchor="middle" x="194.5" y="-20.3" font-family="Times,serif" font-size="14.00">栅极 G</text>
</g>
<!-- 板极 A -->
<g id="node3" class="node">
<title>板极 A</title>
<polygon fill="none" stroke="black" points="376,-42 317,-42 317,-6 376,-6 376,-42"/>
<text text-anchor="middle" x="346.5" y="-20.3" font-family="Times,serif" font-size="14.00">板极 A</text>
</g>
<!-- 栅极 G&#45;&gt;板极 A -->
<g id="edge2" class="edge">
<title>栅极 G&#45;&gt;板极 A</title>
<path fill="none" stroke="black" d="M215.73,-24C238.67,-24 276.65,-24 305.61,-24"/>
<polygon fill="black" stroke="black" points="305.61,-27.5 315.61,-24 305.61,-20.5 305.61,-27.5"/>
<text text-anchor="middle" x="277.5" y="-42.8" font-family="Times,serif" font-size="14.00">电子束</text>
<text text-anchor="middle" x="277.5" y="-27.8" font-family="Times,serif" font-size="14.00">Ur</text>
</g>
<!-- 热阴极 K -->
<g id="node2" class="node">
<title>热阴极 K</title>
<polygon fill="none" stroke="black" points="73,-42 0,-42 0,-6 73,-6 73,-42"/>
<text text-anchor="middle" x="36.5" y="-20.3" font-family="Times,serif" font-size="14.00">热阴极 K</text>
</g>
<!-- 热阴极 K&#45;&gt;栅极 G -->
<g id="edge1" class="edge">
<title>热阴极 K&#45;&gt;栅极 G</title>
<path fill="none" stroke="black" d="M73.29,-24C100.12,-24 136.5,-24 162.18,-24"/>
<polygon fill="black" stroke="black" points="162.16,-27.5 172.16,-24 162.16,-20.5 162.16,-27.5"/>
<text text-anchor="middle" x="112.5" y="-42.8" font-family="Times,serif" font-size="14.00">电子束</text>
<text text-anchor="middle" x="112.5" y="-27.8" font-family="Times,serif" font-size="14.00">U0</text>
</g>
</g>
</svg>
