<?xml version="1.0" encoding="UTF-8" standalone="no"?>
<!DOCTYPE svg PUBLIC "-//W3C//DTD SVG 1.1//EN"
 "http://www.w3.org/Graphics/SVG/1.1/DTD/svg11.dtd">
<!-- Generated by graphviz version 8.0.3 (20230416.2022)
 -->
<!-- Pages: 1 -->
<svg width="672pt" height="79pt"
 viewBox="0.00 0.00 672.00 79.00" xmlns="http://www.w3.org/2000/svg" xmlns:xlink="http://www.w3.org/1999/xlink">
<g id="graph0" class="graph" transform="scale(1 1) rotate(0) translate(4 75)">
<polygon fill="white" stroke="none" points="-4,4 -4,-75 668,-75 668,4 -4,4"/>
<g id="clust1" class="cluster">
<title>cluster</title>
<polygon fill="none" stroke="black" stroke-dasharray="5,2" points="288,-8 288,-63 390,-63 390,-8 288,-8"/>
<text text-anchor="middle" x="339" y="-47.8" font-family="Times,serif" font-size="14.00">低压水银蒸汽</text>
</g>
<!-- 碰撞区域 -->
<g id="node1" class="node">
<title>碰撞区域</title>
<text text-anchor="middle" x="339" y="-20.3" font-family="Times,serif" font-size="14.00">碰撞区域</text>
</g>
<!-- 栅极 G2 -->
<g id="node4" class="node">
<title>栅极 G2</title>
<polygon fill="none" stroke="black" points="526,-42 461,-42 461,-6 526,-6 526,-42"/>
<text text-anchor="middle" x="493.5" y="-20.3" font-family="Times,serif" font-size="14.00">栅极 G2</text>
</g>
<!-- 碰撞区域&#45;&gt;栅极 G2 -->
<g id="edge3" class="edge">
<title>碰撞区域&#45;&gt;栅极 G2</title>
<path fill="none" stroke="black" d="M367.97,-24C390.92,-24 423.78,-24 449.98,-24"/>
<polygon fill="black" stroke="black" points="449.75,-27.5 459.75,-24 449.75,-20.5 449.75,-27.5"/>
<text text-anchor="middle" x="421.5" y="-27.8" font-family="Times,serif" font-size="14.00">电子束</text>
</g>
<!-- 热阴极 K -->
<g id="node2" class="node">
<title>热阴极 K</title>
<polygon fill="none" stroke="black" points="73,-42 0,-42 0,-6 73,-6 73,-42"/>
<text text-anchor="middle" x="36.5" y="-20.3" font-family="Times,serif" font-size="14.00">热阴极 K</text>
</g>
<!-- 栅极 G1 -->
<g id="node3" class="node">
<title>栅极 G1</title>
<polygon fill="none" stroke="black" points="217,-42 152,-42 152,-6 217,-6 217,-42"/>
<text text-anchor="middle" x="184.5" y="-20.3" font-family="Times,serif" font-size="14.00">栅极 G1</text>
</g>
<!-- 热阴极 K&#45;&gt;栅极 G1 -->
<g id="edge1" class="edge">
<title>热阴极 K&#45;&gt;栅极 G1</title>
<path fill="none" stroke="black" d="M73.22,-24C93.63,-24 119.37,-24 140.84,-24"/>
<polygon fill="black" stroke="black" points="140.63,-27.5 150.63,-24 140.63,-20.5 140.63,-27.5"/>
<text text-anchor="middle" x="112.5" y="-27.8" font-family="Times,serif" font-size="14.00">电子束</text>
</g>
<!-- 栅极 G1&#45;&gt;碰撞区域 -->
<g id="edge2" class="edge">
<title>栅极 G1&#45;&gt;碰撞区域</title>
<path fill="none" stroke="black" d="M217.47,-24C241.36,-24 274.12,-24 299.46,-24"/>
<polygon fill="black" stroke="black" points="299.17,-27.5 309.17,-24 299.17,-20.5 299.17,-27.5"/>
<text text-anchor="middle" x="256.5" y="-27.8" font-family="Times,serif" font-size="14.00">电子束</text>
</g>
<!-- 板极 A -->
<g id="node5" class="node">
<title>板极 A</title>
<polygon fill="none" stroke="black" points="664,-42 605,-42 605,-6 664,-6 664,-42"/>
<text text-anchor="middle" x="634.5" y="-20.3" font-family="Times,serif" font-size="14.00">板极 A</text>
</g>
<!-- 栅极 G2&#45;&gt;板极 A -->
<g id="edge4" class="edge">
<title>栅极 G2&#45;&gt;板极 A</title>
<path fill="none" stroke="black" d="M526.39,-24C546.36,-24 572.27,-24 593.6,-24"/>
<polygon fill="black" stroke="black" points="593.6,-27.5 603.6,-24 593.6,-20.5 593.6,-27.5"/>
<text text-anchor="middle" x="565.5" y="-27.8" font-family="Times,serif" font-size="14.00">电子束</text>
</g>
</g>
</svg>
