<?xml version="1.0" encoding="UTF-8" standalone="no"?>
<!DOCTYPE svg PUBLIC "-//W3C//DTD SVG 1.1//EN"
 "http://www.w3.org/Graphics/SVG/1.1/DTD/svg11.dtd">
<!-- Generated by graphviz version 8.0.1 (20230327.1645)
 -->
<!-- Pages: 1 -->
<svg width="268pt" height="44pt"
 viewBox="0.00 0.00 268.00 44.00" xmlns="http://www.w3.org/2000/svg" xmlns:xlink="http://www.w3.org/1999/xlink">
<g id="graph0" class="graph" transform="scale(1 1) rotate(0) translate(4 40)">
<polygon fill="white" stroke="none" points="-4,4 -4,-40 264,-40 264,4 -4,4"/>
<!-- α Source -->
<g id="node1" class="node">
<title>α Source</title>
<polygon fill="none" stroke="black" points="65,-36 0,-36 0,0 65,0 65,-36"/>
<text text-anchor="middle" x="32.5" y="-14.3" font-family="Times,serif" font-size="14.00">α Source</text>
</g>
<!-- Gold Foil -->
<g id="node2" class="node">
<title>Gold Foil</title>
<polygon fill="none" stroke="black" points="170,-36 101,-36 101,0 170,0 170,-36"/>
<text text-anchor="middle" x="135.5" y="-14.3" font-family="Times,serif" font-size="14.00">Gold Foil</text>
</g>
<!-- α Source&#45;&gt;Gold Foil -->
<g id="edge1" class="edge">
<title>α Source&#45;&gt;Gold Foil</title>
<path fill="none" stroke="black" d="M65.46,-18C73.17,-18 81.54,-18 89.72,-18"/>
<polygon fill="black" stroke="black" points="89.66,-21.5 99.66,-18 89.66,-14.5 89.66,-21.5"/>
</g>
<!-- Screen -->
<g id="node3" class="node">
<title>Screen</title>
<polygon fill="none" stroke="black" points="260,-36 206,-36 206,0 260,0 260,-36"/>
<text text-anchor="middle" x="233" y="-14.3" font-family="Times,serif" font-size="14.00">Screen</text>
</g>
<!-- Gold Foil&#45;&gt;Screen -->
<g id="edge2" class="edge">
<title>Gold Foil&#45;&gt;Screen</title>
<path fill="none" stroke="black" d="M170.44,-18C178.31,-18 186.73,-18 194.73,-18"/>
<polygon fill="black" stroke="black" points="194.68,-21.5 204.68,-18 194.68,-14.5 194.68,-21.5"/>
</g>
</g>
</svg>
