<?xml version="1.0" encoding="UTF-8" standalone="no"?>
<!DOCTYPE svg PUBLIC "-//W3C//DTD SVG 1.1//EN"
 "http://www.w3.org/Graphics/SVG/1.1/DTD/svg11.dtd">
<!-- Generated by graphviz version 8.0.3 (20230416.2022)
 -->
<!-- Pages: 1 -->
<svg width="447pt" height="44pt"
 viewBox="0.00 0.00 447.00 44.00" xmlns="http://www.w3.org/2000/svg" xmlns:xlink="http://www.w3.org/1999/xlink">
<g id="graph0" class="graph" transform="scale(1 1) rotate(0) translate(4 40)">
<polygon fill="white" stroke="none" points="-4,4 -4,-40 443,-40 443,4 -4,4"/>
<!-- 氢原子产生器 -->
<g id="node1" class="node">
<title>氢原子产生器</title>
<polygon fill="none" stroke="black" points="102,-36 0,-36 0,0 102,0 102,-36"/>
<text text-anchor="middle" x="51" y="-14.3" font-family="Times,serif" font-size="14.00">氢原子产生器</text>
</g>
<!-- 电子枪 -->
<g id="node2" class="node">
<title>电子枪</title>
<polygon fill="none" stroke="black" points="197,-36 138,-36 138,0 197,0 197,-36"/>
<text text-anchor="middle" x="167.5" y="-14.3" font-family="Times,serif" font-size="14.00">电子枪</text>
</g>
<!-- 氢原子产生器&#45;&gt;电子枪 -->
<g id="edge1" class="edge">
<title>氢原子产生器&#45;&gt;电子枪</title>
<path fill="none" stroke="black" d="M102.22,-18C110.47,-18 118.92,-18 126.86,-18"/>
<polygon fill="black" stroke="black" points="126.69,-21.5 136.69,-18 126.69,-14.5 126.69,-21.5"/>
</g>
<!-- 磁铁 -->
<g id="node3" class="node">
<title>磁铁</title>
<polygon fill="none" stroke="black" points="287,-36 233,-36 233,0 287,0 287,-36"/>
<text text-anchor="middle" x="260" y="-14.3" font-family="Times,serif" font-size="14.00">磁铁</text>
</g>
<!-- 电子枪&#45;&gt;磁铁 -->
<g id="edge2" class="edge">
<title>电子枪&#45;&gt;磁铁</title>
<path fill="none" stroke="black" d="M197.38,-18C205.14,-18 213.63,-18 221.77,-18"/>
<polygon fill="black" stroke="black" points="221.54,-21.5 231.54,-18 221.54,-14.5 221.54,-21.5"/>
</g>
<!-- 表面电离探测器 -->
<g id="node4" class="node">
<title>表面电离探测器</title>
<polygon fill="none" stroke="black" points="439,-36 323,-36 323,0 439,0 439,-36"/>
<text text-anchor="middle" x="381" y="-14.3" font-family="Times,serif" font-size="14.00">表面电离探测器</text>
</g>
<!-- 磁铁&#45;&gt;表面电离探测器 -->
<g id="edge3" class="edge">
<title>磁铁&#45;&gt;表面电离探测器</title>
<path fill="none" stroke="black" d="M287.41,-18C294.91,-18 303.43,-18 312.2,-18"/>
<polygon fill="black" stroke="black" points="311.97,-21.5 321.97,-18 311.97,-14.5 311.97,-21.5"/>
</g>
</g>
</svg>
