<?xml version="1.0" encoding="UTF-8" standalone="no"?>
<!DOCTYPE svg PUBLIC "-//W3C//DTD SVG 1.1//EN"
 "http://www.w3.org/Graphics/SVG/1.1/DTD/svg11.dtd">
<!-- Generated by graphviz version 8.0.1 (20230327.1645)
 -->
<!-- Pages: 1 -->
<svg width="328pt" height="116pt"
 viewBox="0.00 0.00 328.00 116.00" xmlns="http://www.w3.org/2000/svg" xmlns:xlink="http://www.w3.org/1999/xlink">
<g id="graph0" class="graph" transform="scale(1 1) rotate(0) translate(4 112)">
<polygon fill="white" stroke="none" points="-4,4 -4,-112 324,-112 324,4 -4,4"/>
<!-- 喷雾器\nAtomizer -->
<g id="node1" class="node">
<title>喷雾器\nAtomizer</title>
<polygon fill="none" stroke="black" points="68,-101 0,-101 0,-63 68,-63 68,-101"/>
<text text-anchor="middle" x="34" y="-85.8" font-family="Times,serif" font-size="14.00">喷雾器</text>
<text text-anchor="middle" x="34" y="-70.8" font-family="Times,serif" font-size="14.00">Atomizer</text>
</g>
<!-- 油滴 -->
<g id="node2" class="node">
<title>油滴</title>
<polygon fill="none" stroke="black" points="187,-72 133,-72 133,-36 187,-36 187,-72"/>
<text text-anchor="middle" x="160" y="-50.3" font-family="Times,serif" font-size="14.00">油滴</text>
</g>
<!-- 喷雾器\nAtomizer&#45;&gt;油滴 -->
<g id="edge1" class="edge">
<title>喷雾器\nAtomizer&#45;&gt;油滴</title>
<path fill="none" stroke="black" d="M68.23,-74.5C84.82,-70.75 104.95,-66.2 122.04,-62.35"/>
<polygon fill="black" stroke="black" points="122.77,-65.54 131.75,-59.93 121.23,-58.72 122.77,-65.54"/>
<text text-anchor="middle" x="100.5" y="-72.8" font-family="Times,serif" font-size="14.00">产生</text>
</g>
<!-- 电场 -->
<g id="node4" class="node">
<title>电场</title>
<polygon fill="none" stroke="black" points="320,-108 266,-108 266,-72 320,-72 320,-108"/>
<text text-anchor="middle" x="293" y="-86.3" font-family="Times,serif" font-size="14.00">电场</text>
</g>
<!-- 油滴&#45;&gt;电场 -->
<g id="edge3" class="edge">
<title>油滴&#45;&gt;电场</title>
<path fill="none" stroke="black" d="M197.68,-64.08C219.36,-70.04 246.32,-77.45 265.85,-82.81"/>
<polygon fill="black" stroke="black" points="198.76,-60.47 188.19,-61.2 196.91,-67.22 198.76,-60.47"/>
<text text-anchor="middle" x="226.5" y="-80.8" font-family="Times,serif" font-size="14.00">F = q E</text>
</g>
<!-- 重力 -->
<g id="node5" class="node">
<title>重力</title>
<polygon fill="none" stroke="black" points="320,-36 266,-36 266,0 320,0 320,-36"/>
<text text-anchor="middle" x="293" y="-14.3" font-family="Times,serif" font-size="14.00">重力</text>
</g>
<!-- 油滴&#45;&gt;重力 -->
<g id="edge4" class="edge">
<title>油滴&#45;&gt;重力</title>
<path fill="none" stroke="black" d="M197.68,-43.92C219.36,-37.96 246.32,-30.55 265.85,-25.19"/>
<polygon fill="black" stroke="black" points="196.91,-40.78 188.19,-46.8 198.76,-47.53 196.91,-40.78"/>
<text text-anchor="middle" x="226.5" y="-45.8" font-family="Times,serif" font-size="14.00">F = mg</text>
</g>
<!-- X&#45;Ray -->
<g id="node3" class="node">
<title>X&#45;Ray</title>
<polygon fill="none" stroke="black" points="61,-45 7,-45 7,-9 61,-9 61,-45"/>
<text text-anchor="middle" x="34" y="-23.3" font-family="Times,serif" font-size="14.00">X&#45;Ray</text>
</g>
<!-- X&#45;Ray&#45;&gt;油滴 -->
<g id="edge2" class="edge">
<title>X&#45;Ray&#45;&gt;油滴</title>
<path fill="none" stroke="black" d="M61.3,-32.73C78.97,-36.57 102.51,-41.7 122.06,-45.96"/>
<polygon fill="black" stroke="black" points="121.22,-49.57 131.74,-48.28 122.71,-42.73 121.22,-49.57"/>
<text text-anchor="middle" x="100.5" y="-47.8" font-family="Times,serif" font-size="14.00">带电</text>
</g>
<!-- 电场&#45;&gt;重力 -->
<g id="edge5" class="edge">
<title>电场&#45;&gt;重力</title>
<path fill="none" stroke="black" d="M293,-60.77C293,-56.23 293,-51.53 293,-46.99"/>
<polygon fill="black" stroke="black" points="289.5,-60.59 293,-70.59 296.5,-60.59 289.5,-60.59"/>
<polygon fill="black" stroke="black" points="296.5,-47.17 293,-37.17 289.5,-47.17 296.5,-47.17"/>
<text text-anchor="middle" x="282.5" y="-50.3" font-family="Times,serif" font-size="14.00">平衡</text>
</g>
</g>
</svg>
