<?xml version="1.0" encoding="UTF-8" standalone="no"?>
<!DOCTYPE svg PUBLIC "-//W3C//DTD SVG 1.1//EN"
 "http://www.w3.org/Graphics/SVG/1.1/DTD/svg11.dtd">
<!-- Generated by graphviz version 8.0.3 (20230416.2022)
 -->
<!-- Pages: 1 -->
<svg width="252pt" height="98pt"
 viewBox="0.00 0.00 252.00 98.00" xmlns="http://www.w3.org/2000/svg" xmlns:xlink="http://www.w3.org/1999/xlink">
<g id="graph0" class="graph" transform="scale(1 1) rotate(0) translate(4 94)">
<polygon fill="white" stroke="none" points="-4,4 -4,-94 248,-94 248,4 -4,4"/>
<!-- 离子源 -->
<g id="node1" class="node">
<title>离子源</title>
<polygon fill="none" stroke="black" points="59,-90 0,-90 0,-54 59,-54 59,-90"/>
<text text-anchor="middle" x="29.5" y="-68.3" font-family="Times,serif" font-size="14.00">离子源</text>
</g>
<!-- 加速器 -->
<g id="node2" class="node">
<title>加速器</title>
<polygon fill="none" stroke="black" points="154,-90 95,-90 95,-54 154,-54 154,-90"/>
<text text-anchor="middle" x="124.5" y="-68.3" font-family="Times,serif" font-size="14.00">加速器</text>
</g>
<!-- 离子源&#45;&gt;加速器 -->
<g id="edge1" class="edge">
<title>离子源&#45;&gt;加速器</title>
<path fill="none" stroke="black" d="M59.42,-72C67.11,-72 75.57,-72 83.74,-72"/>
<polygon fill="black" stroke="black" points="83.6,-75.5 93.6,-72 83.6,-68.5 83.6,-75.5"/>
</g>
<!-- 样品 -->
<g id="node3" class="node">
<title>样品</title>
<polygon fill="none" stroke="black" points="244,-63 190,-63 190,-27 244,-27 244,-63"/>
<text text-anchor="middle" x="217" y="-41.3" font-family="Times,serif" font-size="14.00">样品</text>
</g>
<!-- 加速器&#45;&gt;样品 -->
<g id="edge2" class="edge">
<title>加速器&#45;&gt;样品</title>
<path fill="none" stroke="black" d="M154.38,-63.38C162.22,-61.04 170.82,-58.48 179.04,-56.03"/>
<polygon fill="black" stroke="black" points="179.96,-59.11 188.54,-52.89 177.95,-52.4 179.96,-59.11"/>
</g>
<!-- 探测器 -->
<g id="node4" class="node">
<title>探测器</title>
<polygon fill="none" stroke="black" points="154,-36 95,-36 95,0 154,0 154,-36"/>
<text text-anchor="middle" x="124.5" y="-14.3" font-family="Times,serif" font-size="14.00">探测器</text>
</g>
<!-- 探测器&#45;&gt;样品 -->
<g id="edge3" class="edge">
<title>探测器&#45;&gt;样品</title>
<path fill="none" stroke="black" stroke-dasharray="5,2" d="M164.75,-29.71C173.13,-32.21 181.78,-34.79 189.54,-37.11"/>
<polygon fill="black" stroke="black" points="165.97,-26.12 155.38,-26.62 163.97,-32.83 165.97,-26.12"/>
</g>
</g>
</svg>
