<?xml version="1.0" standalone="yes"?>
<svg xmlns="http://www.w3.org/2000/svg" width="1402" height="778">
<path style="fill:#0e0e0e; stroke:none;" d="M1084 37L1082.75 37.3611L1081.64 38.3334L1080.31 40L1079.58 40.9167L1078.78 41.75L1077.92 42.5L1076 43.5L1074 43.9167L1073 43.9445L1072 43.9167L1070 43.5L1068.08 42.5L1066.47 40.9167L1065.86 39.9722L1064.78 38L1063.86 36L1063.47 35L1063.08 33L1063.03 31L1063.08 30L1063.22 29L1063.64 27L1064.22 25L1065.11 23.0278L1066.42 21.2222L1067.22 20.4167L1068.08 19.7222L1069.03 19.0833L1070.94 18.0555L1071.5 17.8333L1073 17L1073.78 18L1074.31 18.25L1075.11 18.8889L1076.03 19.4722L1077.92 21.0833L1079.56 22.8889L1080.33 23.6945L1080.75 24.2222L1082 25L1082.47 23.5L1082.33 22.9445L1082.25 21.9445L1081.97 21L1081.42 19.0555L1081.08 17.5L1081 16L1079.5 16.25L1078.94 16.3889L1077 16.6945L1075 16.5833L1073 16.3055L1072 16.3055L1071 16.4167L1069 16.8055L1068 17L1066 17.5L1064.03 18.5L1062.25 20.0833L1061.5 21.0278L1060.47 23L1060.17 24L1059.64 26L1059.39 27L1059.08 29L1059.03 30L1059 32L1059.03 34L1059.08 35L1059.42 37L1060.03 39L1060.83 41L1061.28 41.9722L1062.47 43.75L1063.25 44.5278L1065.03 45.7222L1066 46.1667L1067 46.6111L1069 47.3055L1071 47.75L1072 47.8333L1073 47.75L1075 47.3055L1077 46.5834L1078 46.0834L1078.97 45.5L1079.92 44.75L1081.53 42.9722L1082.14 42L1082.72 41L1083.14 40.0555L1083.72 38.5L1084 37M1103 49L1102.31 50.5L1101.92 51.0555L1101.28 52.0555L1099.89 54L1098.58 56L1097.42 58L1096.19 60L1095.58 61L1094.42 63L1093.14 65L1092.44 66L1091.25 68L1090.22 70L1089.75 71L1089.14 72L1088.53 73L1086.92 75L1085.97 76L1085 77L1083 79L1079 83L1078 84L1076 86L1075 87L1073 89L1072.03 90L1071.11 90.9445L1070.31 91.9445L1069.78 92.5L1069 94L1070.5 94.5L1071 94.8055L1072.5 95.5L1074 96L1073.31 97.5L1072.92 98.0555L1072.28 99.0555L1070.86 101L1070.14 102L1069.36 103L1068.64 104L1067.17 106L1066.44 107L1065.86 108L1065.25 109L1064.75 110L1063.56 112L1062.83 113L1061.39 115L1060.69 116L1059.31 118L1058.61 119L1057.22 121L1056.58 122L1056.03 123L1054.92 124.972L1054.28 125.917L1053.61 126.778L1052.22 128.389L1051.58 129.222L1050.42 131.028L1049.78 132L1049.11 133L1047.64 135L1046.86 136L1046.14 137L1044.64 139L1043.89 140L1042.58 142L1041.42 144L1040.14 146L1039.44 147L1038.17 149L1037.53 150L1035.94 151.917L1034.22 153.611L1033.42 154.389L1032.03 156.083L1030.81 158L1030.17 159L1029.53 160L1028 162L1026.39 164L1025.64 165L1024.86 166L1023.44 168L1022.17 170L1021.53 171L1019.94 173L1019.06 174L1017.39 176L1016.64 177L1015.14 179L1014.36 180L1012.86 182L1011.36 184L1010.61 185L1008.92 187L1007.08 189L1006.25 190L1005.47 191L1004.17 192.917L1003.56 193.778L1002.14 195.389L1001.36 196.222L1000.61 197.083L999.806 198.028L999 199L997.389 201L996.611 202L994.944 204L994.056 205L992.389 207L991.639 208L990.861 209L990.139 210L989.361 211L987.778 213L986.917 214L985.972 215L984.083 217L983.222 218L981.611 220L979.944 222L979.056 223L977.389 225L976.611 226L974.944 228L974.056 229L972.389 231L971.639 232L970.861 233L970.139 234L968.611 235.972L967.778 236.917L966.944 237.778L965.222 239.389L964.389 240.222L962.778 242.028L960.972 243.917L959 245.611L958.028 246.389L956.222 248.083L954.611 250L952.917 252L951 254L949.028 256L948.083 257L946.389 259L945.611 260L943.917 262L943.028 262.944L942.056 263.944L940 266L940.444 264.5L940.667 263.944L941 262.944L941.333 262L941.667 261L942.389 259L942.806 258L943.556 256L943.833 255L944.139 254L944.639 252L944.861 251L945.472 249L946.389 247L946.944 246L947.944 244L948.361 243L948.806 242L949.194 241L949.611 240L950.389 238L951.194 236L951.611 235L952.306 233L952.611 232L952.861 231L953.389 229L954.028 227L954.833 225L955.25 224L955.75 223L956.611 221L956.972 220L957.333 219L957.667 218L958.389 216L958.806 215L959.611 213L960.306 211L960.611 210L960.861 209L961.444 207L962.194 205L962.611 204L963.333 202L964.028 200L964.389 199L965.25 197L965.75 196L966.611 194L967.389 192L968.194 190L968.972 188L969.583 186L970.028 184L970.278 183L970.611 182L971.472 180L971.917 179L972.306 178L973.028 176L973.389 175L973.806 174L974.611 172L975.333 170.056L975.556 169.5L976 168L977.5 168.722L978 168.75L979 168.944L981 169L981.083 167.5L981.222 166.944L981.389 165.944L981.611 165L981.917 163L981.972 162L982 161L982.028 159L982.083 158L982.389 156L982.611 155L982.917 153L982.972 152L983.028 150L983.083 149L983.389 147L983.861 145L984.139 144.056L984.389 143.056L985 141L983.75 141.361L982.639 142.333L981.389 144.028L980.806 145L979.611 147L978.333 149L977 151L976.306 151.972L975.611 152.917L974.167 154.611L973.444 155.389L972.833 156.222L972.194 157.083L970.972 159L969.694 161L969.111 161.944L968.639 162.944L968.333 163.5L968 165L969.444 165.722L970 165.75L972 166L971.972 167.5L971.75 169.056L971.528 170L971.167 171L970.806 172L970.028 174L969.333 176L968.972 177L968.611 178L967.75 180L967.25 181L966.389 183L965.611 185L964.75 187L964.25 188L963.472 190L963.222 191L962.778 193L962.528 194L961.806 196L961.389 197L961.028 198L960.333 200L959.972 201L959.611 202L959.167 203L958.75 204L958.25 205L957.389 207L957.028 208L956.667 209L956 211L955.389 213L954.833 215L954.556 216L954.139 217L953.75 218L953.25 219L952.389 221L952.028 222L951.333 224L950.667 226L950.306 227L949.917 228L949.472 229L948.528 231L947.694 233L947 235L946.694 236L946.389 237L946.139 238L945.611 240L944.972 242L944.167 244L943.75 245L943.25 246L942.389 248L942.028 249L941.667 250L940.917 252L940 254L939.083 256L938.417 257.944L938.083 259.5L938 261L937.278 259.5L937.25 258.944L937.056 257.944L937.028 257L937 255L937 253L937 249L937 230L934 230L934 233.056L934 259L934 263L934 265L934 267L933.972 268L933.917 269L933.528 271L933.139 272L932.722 273L931.528 274.917L929.917 276.611L928.972 277.389L927 279.083L926 280.028L924 282L923 283L921.083 285L919.389 286.917L918.611 287.778L917.778 288.611L915.972 290.222L915 291.083L914 292.028L912 294L911 295L907 299L905 300.972L904 301.917L902 303.611L901 304.389L899 306.083L898 307.028L896 309L894.028 310.917L892.222 312.611L891.389 313.361L890.611 314.139L889.806 314.861L888.194 316.389L886.611 318.083L885.778 319L884.917 319.917L883 321.611L882 322.389L880 324.083L879 325.028L877 326.972L876 327.917L874 329.611L873 330.389L871 332.056L870 332.944L868 334.611L867 335.389L865 337.056L864 337.944L862 339.611L861 340.361L859.083 341.861L858.222 342.611L856.639 344L855.25 345.361L854.694 346.167L854.361 346.583L854 348L852.5 348.111L850.944 348.722L850 349.333L849 350.111L847 351.917L845 353.611L844 354.361L842 355.861L841 356.639L839 358.139L837.083 359.639L835.389 361.194L834.611 362L832.917 363.528L831.972 364.167L830 365.472L829 366.25L828 367.056L827 367.944L825 369.611L823 371.139L822 371.861L820 373.361L819 374.139L818 374.861L817 375.639L816 376.361L814 377.861L813 378.611L812 379.306L810 380.611L809 381.194L807 382.444L805 383.861L804 384.639L803 385.389L801 387.056L800 387.944L798 389.583L797 390.306L795 391.694L793 393.139L791 394.556L789 395.833L788 396.444L787 397.167L786 397.861L785 398.611L783 399.917L781 400.944L780 401.389L778 402.5L777.056 403.194L775.5 404.528L774 406L774 383L774 357L774 354L774 314L774 308L774 205L774 203L774 199L774 197L774 193L774 189L774 187L774 186L774 160L774 157L774 156L774 155L774 145L774 129L774 113L774 105L774 103L774 95L774 87L780 87L779.389 84.9445L779.139 83.9445L778.861 83L778.639 82L778.361 81L778.139 80L777.556 78L777.167 77L776.472 75L776.222 74L776 73L775.611 71L775.389 70L775.056 68L774.944 67L774.583 65L774.306 64L773.694 62.0555L773.25 60.5L773 59L772.25 59.7778L772.167 60.3055L771.611 62.0278L771.306 63L770.694 65L770.389 66L769.861 68L769.639 69L769.361 70L769.139 71L768.639 73L768.389 74L768.056 76L767.944 77L767.611 79L767.361 80L767.139 81L766.861 82L766.389 83.9445L766.222 84.9445L766.083 85.5L766 87L770 87L770 97L770 108L770 114L770 122L770 126L770 132L770 137L770 145L770 146L770 147L770 156L770 159L770 163L770 172L770 176L770 184L770 195L770 198L770 209L770 213L770 214L770 225L770 230L770 231L770 245L770 248L770 253L770 267L770 280L770 290L770 409L768.5 409.528L767.944 409.889L766.944 410.417L765 411.667L764 412.333L763 412.972L762 413.611L761 414.194L759 415.389L757 416.611L755 417.75L754 418.25L752 419.472L751 420.222L749 421.778L748 422.528L746 423.75L745 424.25L743 425.389L742 426.028L740 427.333L738 428.611L737 429.194L736 429.806L734 430.944L732.028 431.944L731.083 432.389L730.222 432.889L729.389 433.389L728.639 433.944L727.139 435L726.361 435.528L724.778 436.639L722.972 437.75L722 438.25L720 439.361L719 439.944L717 440.944L716 441.361L714 442.278L712 443.444L711 444.167L709 445.556L707 446.75L706 447.222L705 447.75L703 448.611L701 449.417L699 450.417L698 451.028L696 452.333L695 452.972L694 453.611L692 454.75L691 455.25L689 456.361L688 456.917L686 457.806L684 458.583L683 459.028L681 459.944L680 460.389L678 461.472L677 462.139L675 463.389L674 463.917L673 464.361L672 464.806L670 465.611L668 466.389L667 466.833L666 467.278L665 467.833L664 468.389L662 469.611L660 470.806L659 471.361L658 471.944L656 472.944L654 473.806L653 474.167L652 474.556L650 475.167L649 475.444L647 476.278L646 476.833L644 478L643 478.583L641 479.583L639 480.389L637 481.25L636 481.75L634 482.556L633 482.861L631 483.611L629 484.611L627 485.583L626 485.972L624 486.694L623 487.083L621 488.056L620 488.611L618 489.583L616 490.333L615 490.667L613 491.389L612 491.806L610 492.556L609 492.861L607 493.583L606 494.028L604 494.944L603 495.389L602 495.889L601 496.389L599 497.389L597 498.139L596 498.444L594 499.167L593 499.556L592 499.833L590 500.444L588 501.194L587 501.611L585 502.389L583 503.194L582 503.611L580 504.389L579 504.806L577 505.556L575 506.222L574 506.583L572 507.389L570 507.917L569 508.056L567 508.472L566 508.833L564 509.611L562 510.389L561 510.806L559 511.611L557 512.389L555 513.194L554 513.611L553 513.972L552 514.333L550 515L548 515.667L547 516L545 516.583L544 516.778L542 517.056L540 517.417L539 517.694L537 518.389L536 518.806L535 519.194L534 519.611L533 519.972L532 520.333L531 520.667L529 521.333L526 522.333L524 523L522 523.611L521 523.861L520 524.139L519 524.361L518 524.611L517 524.806L515 525.194L514 525.389L513 525.639L512 525.861L510 526.444L508 527.194L507 527.611L505 528.306L503 528.861L502 529.139L501 529.361L500 529.639L499 529.861L497 530.389L495 531L493 531.583L492 531.806L490 532.194L489 532.417L488 532.694L486 533.306L485 533.583L483 533.944L482 534.056L480 534.389L479 534.639L478 534.861L477 535.139L475 535.611L474 535.806L473 536L471 536.417L469 537L468 537.306L467 537.611L465 538.139L464 538.361L463 538.611L461 538.944L460 539.056L458 539.389L456 539.861L455 540.139L454 540.389L452 541L450 541.583L449 541.778L448 541.917L446 542L444 542.083L442 542.389L441 542.639L440 542.861L439 543.139L437 543.611L436 543.806L434 544.194L433 544.417L432 544.694L430 545.306L429 545.583L427 545.917L425 546.083L424 546.222L423 546.417L422 546.694L420 547.306L419 547.583L418 547.778L416 548.056L415 548.222L413 548.611L411 548.917L410 549L408 549.222L407 549.417L405 550L403 550.583L402 550.778L401 550.917L399 551L398 551L396 551L395 551L393 551.028L392 551.083L390 551.389L388 551.778L387 551.917L385 552.083L383 552.389L382 552.611L380 552.944L379 553.056L377 553.389L376 553.611L374 553.917L373 553.972L371 554L369 554.028L368 554.083L366 554.389L365 554.611L363 554.917L362 554.972L360 555.028L359 555.083L357 555.389L356 555.639L355 555.861L354 556.139L353 556.361L352 556.611L350 556.917L349 556.972L347 557L346 557.028L345 557.083L343 557.389L342 557.611L340 557.917L339 557.972L337 558L336 558L333 558L332 558L330 558.028L329 558.083L327 558.389L326 558.611L324 558.917L323 558.972L321 559L320 559L316 559L303 559L298 559L296 559L294 559.083L293 559.222L291 559.611L289 559.917L288 559.972L287 560L285 560L280 560L274 560L272 560L270 559.972L269 559.917L267 559.611L266 559.389L264 559.083L263 559.028L261 559L260 559L255 559L240 559L235 559L233 559L231 558.917L230 558.778L228 558.389L226 558.083L225 558.028L224 558L222 558L219 558L217 558L215 558.083L213 558.389L212 558.611L210 558.917L208 559L206 559L202 559L190 559L186 559L185 559L183 559.028L182 559.083L180 559.389L179 559.611L177 559.917L175 560L174 560L171 560L164 560L162 560L160 560.028L159 560.083L157 560.389L156 560.611L154 560.917L153 560.972L151 561L150 561L147 561L141 561L140 561L138 560.972L137 560.917L135 560.583L134 560.306L132 559.694L131 559.417L129 559.083L127 558.917L126 558.778L124 558.361L123 558.139L122 557.861L120 557.361L119 557.139L117 556.556L116 556.167L114 555.472L113.056 555.25L111.5 555.028L110 555L110 561L49 561L49 565L50 566L109 566L110 567L110 573L111.5 572.5L112.056 572.194L114 571.472L115 571.222L116 571L118 570.583L120 570L121 569.694L123 569.306L125 569.417L126 569.639L128 570.139L129 570.361L130 570.611L132 570.944L133 571.056L135 571.472L136 571.833L138 572.528L139 572.778L141 573.194L143 573.611L145 573.917L146 574L148 574.222L150 574.639L151 574.861L152 575.139L153 575.361L154 575.611L156 575.944L157 576.056L159 576.389L160 576.639L161 576.861L163 577.389L164 577.694L166 578.306L167 578.611L169 579.139L170 579.361L171 579.611L172 579.806L173 580L175 580.417L177 581L178 581.306L179 581.611L181 582.139L182 582.361L183 582.611L185 582.917L187 583L188 583L190 583.083L191 583.25L192 583.472L194 584.167L195 584.528L197 585L199 585.389L201 585.861L202 586.139L203 586.389L205 587L207 587.583L209 587.944L210 588.056L212 588.389L213 588.639L215 589.139L217 589.639L218 589.861L219 590.167L220 590.444L221 590.833L223 591.611L224 592L226 592.889L228 594L229 594.611L230 595.167L231 595.75L232 596.222L234 597.222L235 597.75L237 598.611L238.944 599.333L239.5 599.556L241 600L241.722 598.5L241.75 598L241.944 597L242 595L244.056 595.611L246 596.139L247 596.389L248 596.694L249 597L251 597.583L253 598L254 598.194L256 598.611L258 598.917L260 599.083L261 599.222L263 599.611L264 599.806L266 600.194L267 600.389L268 600.639L269 600.861L270 601.139L272 601.611L273 601.806L275 602.194L276 602.417L277 602.694L279 603.306L280 603.583L282 604L283 604.194L285 604.611L287 605.028L288 605.278L289 605.611L291 606.389L293 606.917L294 607.056L296 607.389L297 607.611L299 607.917L300 607.972L302 608.083L304 608.417L305 608.694L307 609.306L308 609.583L310 610L312 610.389L314 610.806L316 611.194L317 611.417L319 612L320 612.306L321 612.611L323 613.139L324 613.361L325 613.611L326 613.806L328 614.194L329 614.389L331 614.861L332 615.139L333 615.361L334 615.611L336 615.917L338 616.083L340 616.389L341 616.611L343 617L344 617.194L346 617.694L348 618.306L349 618.583L351 619L352 619.194L353 619.389L355 619.861L356 620.139L357 620.361L358 620.611L359 620.806L360 621L362 621.417L364 622L365 622.306L366 622.611L367 622.861L368 623.139L370 623.611L371 623.806L373 624.194L374 624.389L376 624.778L377 624.917L379 625.083L380 625.222L381 625.389L383 625.806L385 626.194L386 626.389L388 626.861L389 627.139L390 627.389L391 627.694L392 628L394 628.583L395 628.806L397 629.194L398 629.389L400 629.806L401 630L403 630.417L405 631L407 631.611L409 632.139L410 632.361L411 632.611L413 632.917L415 633L416 633.028L417 633.083L419 633.472L420 633.833L422 634.528L424 635L426 635.389L428 635.806L430 636.194L432 636.694L434 637.306L435 637.583L437 638L438 638.194L439 638.389L441 638.861L442 639.139L443 639.361L444 639.611L445 639.806L447 640.222L448 640.472L450 641.167L451 641.528L452 641.75L453 641.917L455 642L456 642L458 642.083L460 642.417L462 643L464 643.611L465 643.861L466 644.139L468 644.611L469 644.806L471 645.194L472 645.389L474 645.861L475 646.139L477 646.639L479 647.139L480 647.361L481 647.639L482 647.861L483 648.139L485 648.611L486 648.806L488 649.194L489 649.389L491 649.778L492 649.917L494 650.083L496 650.389L497 650.639L498 650.861L499 651.139L501 651.611L502 651.806L504 652.222L505 652.472L507 653.167L508 653.528L510 653.944L511 654.056L513 654.389L515 654.861L517 655.389L519 656L521 656.583L523 657L524 657.194L525 657.389L527 657.861L528 658.139L529 658.361L530 658.611L532 658.917L534 659.083L535 659.222L537 659.639L538 659.861L539 660.139L540 660.361L541 660.611L543 660.944L544 661.056L546 661.417L547 661.694L549 662.306L550 662.611L551 662.861L552 663.139L554 663.611L556 664L558 664.389L559 664.611L561 665L562 665.222L563 665.472L565 666.167L566 666.528L567 666.75L568 666.917L570 667L572 667.083L574 667.417L575 667.694L577 668.306L578 668.583L579 668.806L581 669.194L582 669.389L584 669.861L585 670.139L586 670.361L587 670.611L589 671L591 671.472L592 671.833L594 672.528L595 672.778L596 673L598 673.389L600 673.806L602 674.194L603 674.389L605 674.778L606 674.917L608 675.083L609 675.222L610 675.389L612 675.806L614 676.194L615 676.389L617 676.861L618 677.139L619 677.389L620 677.694L621 678L623 678.583L624 678.806L626 679.194L627 679.389L629 679.806L630 680L632 680.417L634 681L635 681.306L636 681.611L637 681.861L638 682.139L640 682.611L641 682.806L643 683.194L645 683.611L647 683.944L648 684.056L650 684.389L652 684.778L654 685.056L656 685.389L658 685.861L659 686.167L660 686.444L662 687.167L663 687.528L665 687.944L666 688.056L668 688.389L669 688.639L671 689.139L673 689.611L675 690L677 690.472L679 691.167L680 691.528L681 691.75L682 691.917L684 692L685 692L687 692.083L689 692.472L690 692.833L692 693.528L694 694L696 694.389L697 694.611L699 695L701 695.389L703 695.861L704 696.139L705 696.389L706 696.694L708 697.306L709 697.611L710 697.861L711 698.139L713 698.611L715 698.944L717 699.25L718 699.472L719 699.833L721 700.528L722 700.75L723 700.917L724 700.972L725 701L727 701.083L729 701.389L730 701.639L731 701.861L733 702.389L735 703L737 703.583L739 704L740 704.194L741 704.389L743 704.861L744 705.139L745 705.361L746 705.611L748 705.944L750 706.25L751 706.472L753 707.167L754 707.528L755.944 707.917L757.5 708L759 708L757.5 708.722L756.944 708.75L755.944 708.944L755.056 708.972L754.056 709L752 709L752 713L757 713L765 713L783 713L785 713L790 713L798 713L803 713L807 713L810 713L814 713L822 713L824 713L828 713L829 713L830 713L832 713L838 713L870 713L878 713L885 713L893 713L898 713L900 713L901 713L905 713L913 713L915 713L916 713L924 713L926 713L929 713L934 713L936 713L937 713L941 713L942 713L947 713L951 713L952 713L960 713L968 713L971 713L975 713L977 713L980 713L983 713L987 713L988 713L990 713L992 713L993 713L999 713L1007 713L1011 713L1016 713L1024 713L1026 713L1027 713L1028 713L1030 713L1031 713L1033 713L1034 713L1035 713L1043 713L1044 713L1052 713L1053 713L1054 713L1058 713L1060 713L1061 713L1065 713L1066 713L1068 713L1070 713L1072 713L1073 713L1074 713L1082 713L1083 713L1085 713L1087 713L1088 713L1093 713L1094 713L1095 713L1096 713L1097 713L1098 713L1099 713L1104 713L1106 713L1109 713L1114 713L1115 713L1116 713L1117 713L1121 713L1129 713L1131 713L1133 713L1141 713L1145 713L1146 713L1150 713L1151 713L1153 713L1154 713L1156 713L1157 713L1159 713L1161 713L1162 713L1164 713L1168 713L1170 713L1174 713L1179 713L1180 713L1181 713L1185 713L1186 713L1194 713L1195 713L1197 713L1198 713L1206 713L1208 713L1209 713L1225 713L1229 713L1230 713L1235 713L1236 713L1237 713L1238 713L1239 713L1240 713L1242 713L1244 713L1276 713L1284 713L1348 713L1348 718L1349.5 718L1351.06 717.917L1353 717.611L1354 717.361L1355 717.139L1357 716.556L1359 715.833L1360 715.444L1361 715.167L1362 714.861L1364 714.389L1365 714.194L1366 714L1368 713.583L1370 713L1370.94 712.694L1371.94 712.417L1372.5 712.25L1374 712L1373.22 711L1372.69 710.778L1371.89 710.222L1370 709.444L1368 708.861L1367 708.639L1365 708.139L1364 707.861L1363 707.639L1362 707.361L1361 707.139L1359 706.611L1358 706.306L1356 705.694L1355 705.389L1353 704.861L1352 704.639L1351.06 704.389L1350.06 704.222L1349.5 704.083L1348 704L1348 709L1344 709L1343 709L1341 709L1337 709L1335 709L1333 709L1332 709L1331 709L1329 709L1328 709L1324 709L1322 709L1314 709L1298 709L1294 709L1293 709L1289 709L1288 709L1284 709L1283 709L1275 709L1274 709L1270 709L1268 709L1264 709L1263 709L1262 709L1260 709L1258 709L1250 709L1246 709L1245 709L1240 709L1236 709L1235 709L1234 709L1233 709L1232 709L1228 709L1226 709L1224 709L1222 709L1221.06 709L1218 709L1218.25 707.5L1218.64 705.944L1218.86 705L1219.14 704L1219.36 703L1219.64 702L1219.86 701L1220.44 699L1220.83 698L1221.53 696L1221.78 695L1222 694L1222.42 692L1222.69 691L1223.31 689L1223.58 688L1223.92 686L1224.08 684L1224.22 683.056L1224.58 681.5L1225 680L1223 680L1220 680L1220 661L1217 661L1217 680L1214.94 680L1213.94 680L1213.06 680L1211.5 680L1210 680L1210.44 681.5L1210.67 682.056L1211 683.056L1211.67 685L1212 686L1212.58 688L1212.81 689L1213.19 691L1213.69 693L1214.33 695L1214.67 696L1215 697L1215.61 699L1216.14 701L1216.36 702L1216.61 703L1216.92 705L1217 706.944L1217 709L1214.94 709L1213.94 709L1213 709L1211 709L1210 709L1208 709L1207 709L1203 709L1199 709L1198 709L1197 709L1195 709L1191 709L1187 709L1186 709L1185 709L1183 709L1182 709L1180 709L1176 709L1175 709L1174 709L1172 709L1171 709L1167 709L1166 709L1165 709L1164 709L1160 709L1157 709L1155 709L1151 709L1147 709L1145 709L1144 709L1142 709L1141 709L1139 709L1131 709L1115 709L1113 709L1111 709L1110 709L1109 709L1106 709L1104 709L1103 709L1095 709L1079 709L1071 709L1070 709L1069 709L1063 709L1062 709L1061 709L1053 709L1049 709L1047 709L1045 709L1044 709L1043 709L1042 709L1041 709L1025 709L1017 709L1016 709L984 709L976 709L960 709L959 709L957 709L949 709L944 709L941 709L939.056 709L938.5 709L937 709L937 705.944L937 685L937 677L937 655L934 655L934 662L934 673L934 709L929 709L913 709L905 709L901 709L895 709L892 709L888 709L880 709L878 709L876 709L874 709L873 709L871 709L867 709L851 709L847 709L846 709L842 709L834 709L830 709L822 709L818 709L813 709L813 706.944L813 705.944L813 705L812.917 703L812.778 702L812.583 701L812 699L811.694 698L811.417 697L810.972 695L810.722 694L810 692L809.611 691L809.278 690L808.694 688L808.278 687L807.667 686L806.889 685L805 683L803 681.028L802 680.111L801 679.306L799.083 678.028L797.389 676.917L796.611 676.306L794.917 675L793 673.667L792 673.028L791.056 672.417L790.056 671.889L789.5 671.528L788 671L789 669.5L789.222 668.944L789.806 667.944L790.222 667L790.75 666L791.528 664L791.778 663L792.222 661L792.472 660L793.194 658L793.611 657L794.333 655L794.694 654L795.083 653L795.528 652L796.472 650L796.917 649L797.306 648L798 646L798.333 645L799.667 641L800.333 639L801.083 637L801.972 635L802.417 634L803.139 632L803.444 631L804.194 629L804.639 628L805.056 627L805.528 626L806.472 624L806.917 623L807.306 622L808 620L808.306 619L808.611 618L809.139 616L809.389 615L810.028 613L810.389 612L810.833 611L811.25 610L811.75 609L812.611 607L812.972 606L813.333 605L814.028 603L814.417 602L815.389 600L815.944 599L816.917 597L817.611 595L817.861 594L818.139 593L818.389 592L818.694 591L819.333 589L820.028 587L820.389 586L821.25 584L821.75 583L822.167 582L822.611 581L822.972 580L823.667 578L824.389 576L824.806 575L825.528 573L825.75 572L825.972 570.056L826 568L827.139 567.694L827.333 567.333L828 566L829.5 566L831.028 565.889L831.889 565.667L833.278 564.722L833.889 563.472L834 562L829 562L830 560.5L830.222 559.944L830.806 558.944L831.222 558L831.75 557L832.556 555L832.833 554L833.389 552L834 550L834.333 549L835.028 547L835.389 546L836.25 544L836.75 543L837.611 541L837.972 540L838.333 539L838.667 538L839.389 536L839.806 535L840.611 533L841.389 531L841.806 530L842.556 528L843.139 526L843.389 525L844.028 523L844.389 522L845.25 520L845.778 519L846.222 518L846.75 517L847.167 516L847.611 515L848.389 513L849.194 511L849.611 510L850.306 508L850.583 507L851 505L851.222 504L851.472 503L852.25 501L852.75 500L853.611 498L854.389 496L854.833 495L855.25 494L855.778 493L856.75 491L857.556 489L857.861 488L858.583 486L859 485L859.722 483L859.972 482L860.472 480L860.833 479L861.611 477L862.389 475L862.806 474L863.611 472L864.389 470L864.806 469L865.194 468L865.611 467L866.389 465L866.806 464L867.556 462L868.139 460L868.389 459C868.684 457.988 869.019 456.987 869.389 456L869.806 455L870.611 453L871.389 451L871.806 450L872.194 449L872.639 448L873.056 447L873.528 446L874.472 444L875.306 442L876 440L876.306 439L876.611 438L876.861 437L877.444 435L878.194 433L878.611 432L879.389 430L879.806 429L880.194 428L880.611 427L881.389 425L882.194 423L882.611 422L883.389 420L883.806 419L884.167 418L884.556 417L884.833 416L885.139 415L885.694 413L886.389 411L887.25 409L887.75 408L888.611 406L889.389 404L890.194 402L890.611 401L890.972 400L891.694 398L892.528 396L893.389 394L893.972 392L894.417 390L895.028 388L895.389 387L896.25 385L896.75 384L897.639 382L898.056 381L898.972 379L899.417 378L900.139 376L900.444 375L900.833 374L901.556 372L901.861 371L902.611 369L903.111 368L904.389 366L905.139 365L906.639 363L907.361 362L908.139 361L909.556 359L910.75 357L911.25 356L912.389 354L913.028 353L914.306 351L915.361 349L915.694 348L915.972 346.056L916 345.056L916 343L914.583 343.778L914.194 344.306L913.417 345.111L912.278 347L911.861 347.944L911.278 349.5L911 351L910.528 349.5L910.639 348.944L910.889 347L911.444 345L912.194 343L912.611 342L912.972 341L913.694 339L914.083 338L914.528 337L915 336L915.917 334L916.306 333L917.083 331L917.528 330L918.389 328L918.722 327L918.972 326L919.194 325L919.694 323L920.389 321L921.194 319L921.611 318L921.972 317L922.694 315.028L923.056 314.111L923.583 313.306L923.833 312.778L925 312L925.083 310.5L925.222 309.944L925.389 309L925.75 307.5L926 306L927.5 306.5L928 306.806L929.5 307.5L931 308L931.25 306.5L931.611 304.944L931.917 303L931.972 302L932.083 300L932.389 298L932.611 297L932.917 295L932.972 294L933 292L933 291.056L933 288L933.722 289.5L933.75 290.056L933.944 291.056L933.972 292L934 293L934 294L934 296L934 306L934 308L934 309L933.972 311L933.889 312L933.361 314L932.306 316L931.028 318L930.389 319L929.25 321L928.75 322L928.167 323L926.972 325L925.611 327L924.861 328L924.167 329L923.472 329.944L922.917 330.944L922.528 331.5L922 333L923.5 332.972L925.028 332.667L925.917 332.278L927.528 330.889L928.806 329L929.389 328L930.667 326L931.889 324.056L932.361 323.056L932.667 322.5L933 321L933.722 322.5L933.75 323.056L933.944 324.056L933.972 325L934 327L934 328.944L934 332L936 332L937 332L937 325L937 323L937 322L937 320L937.028 319L937.111 318L937.694 316L938.25 315L939.611 313L941 311L942.306 309L942.917 308L944.028 306L944.583 305L945.861 303L946.556 302L947.806 300L948.389 299L949.694 297L951.139 295L952.556 293L953.167 292L954.444 290L955.861 288L956.611 287L957.972 285L958.583 284L959.083 283.056L959.722 281.5L960 280L959 279L957 279L956 280.5L955.778 281.056L955.194 282.056L954.75 282.972L953.611 284.778L952.972 285.611L951.667 287.222L951 288.083L949.611 290L948.167 292L947.444 293L946.25 295L945.75 296L944.556 298L943.833 299L942.444 301L941.833 302L940.611 304L939.361 305.889L938.639 306.694L938.25 307.222L937 308L937 304.944L937 287L937 284L937 282L937.028 280L937.111 279L937.722 277L939.111 275L940.028 274L941.917 272L943.611 270.028L945.194 268.222L946 267.389L946.806 266.639L947.611 265.861L949.139 264.361L950.639 262.778L952.222 260.972L953.056 260L953.944 259L955.611 257L956.389 256L958.083 254L959.028 253L961 251L963 249L965 247.083L966.889 245.389L967.694 244.611L968.389 243.806L969.528 242.194L970.083 241.389L971.417 239.861L972.222 239.139L973.944 237.611L975.611 235.917L976.361 234.972L977.861 233L978.639 232L980.222 230L981.083 229L982.028 228L983.917 226L984.778 225L986.389 223L988.056 221L988.944 220L990.611 218L991.389 217L993 215L993.806 214.028L995.306 212.222L996 211.389L997.389 209.778L998.139 208.917L998.861 207.972L1000.39 206L1001.19 205L1002.81 203L1003.61 202L1005.14 200L1005.86 199L1006.64 198L1007.39 197L1009.06 195L1009.94 194L1011.61 192L1012.39 191L1014.08 189L1015 188L1016.78 186L1017.58 185L1018.31 184L1019.69 182L1020.36 181.056L1021.58 179.5L1023 178L1022.31 179.5L1021.94 180.056L1020.83 182L1020.25 183L1019.75 184L1018.53 186L1017.75 187L1016.08 189L1014.61 191L1013.42 193L1012.11 195L1011.39 196L1010 198L1008.67 200L1008.03 201L1007.39 202L1006.25 204L1005.75 205L1005.14 206L1004.56 207L1003.83 208L1002.36 210L1001.64 211L1000.86 212L1000.14 213L998.694 215L997.389 217L996.25 219L995.75 220L994.556 222L993.833 223L992.389 225L991.028 227L990.389 228L989.25 230L988.75 231L988.167 232L987.611 233L986.972 234L985.583 236L984 238L983.194 239L981.694 241L980.389 243L979.806 244L978.556 246L977.167 248L976.444 249L975.194 251L974.611 252L973.389 254L972.25 256L971.75 257L970.528 259L969.028 261L967.778 262.944L967.583 263.944L967.389 264.5L968 266L969.25 265.667L969.639 265.361L970.361 264.889L971.667 263.583L973 261.917L973.667 260.972L974.972 259L975.611 258L976.194 257L977.389 255L978.028 254L978.667 253L979.333 252L980.667 250L982 248L982.694 247L983.389 246L984.139 245L985.611 243L986.972 241L988.194 239L988.806 238L989.389 237L990.028 236L990.667 235L992 233L992.667 232L993.917 230L994.472 229L995.583 227L996.889 225L997.639 224L998.361 223L999.139 222L1000.61 220L1001.31 219L1002.61 217L1003.19 216L1004.44 214L1005.17 213L1006.56 211L1007.81 209L1008.39 208L1009.67 206L1010.97 204L1011.61 203L1012.75 201L1013.25 200L1013.86 199L1014.47 198L1015.25 197L1016.06 196L1016.94 195L1018.53 193L1019.17 192L1020.39 190L1021.67 188L1022.33 187L1023.67 185L1024.33 184L1024.97 183L1025.61 182L1026.19 181L1027.39 179L1028.67 177L1029.33 176L1030.61 174L1031.19 173.028L1032.39 171.222L1033.03 170.389L1034.33 168.778L1034.97 167.917L1035.58 166.972L1036.61 165L1037.64 163L1038.28 162L1039.81 160L1040.58 159L1041.31 158L1042.61 156L1043.19 155L1044.39 153L1045.67 151L1047 149L1047.69 148L1048.39 147L1049.14 146L1049.86 145L1051.31 143L1052.61 141L1053.81 139L1054.39 138L1055.03 137L1055.67 136L1056.33 135L1057.67 133L1058.33 132L1059.61 130L1060.75 128L1061.25 127L1061.83 126L1062.39 125L1063.69 123L1065.19 121L1066.81 119L1067.58 118L1069 116L1070.31 114L1070.92 113L1071.47 112L1072.58 110L1073.22 109L1074.61 107L1076 105L1077.31 103.056L1077.92 102.056L1078.31 101.5L1079 100L1080.5 100.5L1081.06 100.806L1082 101.167L1083.5 101.722L1085 102L1085.08 100.5L1085.42 98.9445L1086 97L1086.67 95L1087 94L1087.58 92L1087.81 91L1088.19 89L1088.42 88L1089 86L1089.67 84L1090 83L1090.61 81L1090.89 80L1091.61 78L1092.69 76L1093.33 75L1094.61 73L1095.19 72L1096.39 70L1097.61 68L1098.75 66L1099.25 65L1100.39 63L1101.03 62L1102.39 60L1103.11 59L1104.39 57L1104.89 56L1105.58 54L1105.92 52.0555L1105.97 51.0555L1106 49L1103 49M708 69L707.917 70.5L707.778 71.0555L707.389 73L707.083 74.9445L707 77L708.417 76.6389L708.833 76.2778L709.667 75.6666L710.389 74.8889L712.083 73.0833L714 71.5L715 70.9445L716 70.5L718 70.0833L720 70L720.944 70L721.944 70L724 70L723 71.5L722.75 72.0555L721.556 74L720.833 75L719.389 77L718.028 79L716.806 81L715.556 83L714.167 85L713.444 86L712.25 88L711.75 89L710.528 91L708.917 93L708 94L706.333 95.9445L705.361 97.5L705 99L708.056 99L728 99L728.611 96.9445L728.861 95.9445L729.139 95L729.611 93.0555L729.778 92.0555L729.917 91.5L730 90L728.528 90.3611L727.167 91.3334L726.389 92.1111L724.778 93.9167L722.972 95.5278L722 96.1389L721 96.7222L720 97.1389L719 97.5278L717 97.9167L716 97.9722L714 98L713.056 98L710 98L711.972 95.9445L713.611 94L715.139 92L715.861 91L717.306 89L718.611 87L719.194 86L719.806 85L721.028 83L722.389 81L723.139 80L723.833 79L724.556 78L725.806 76L726.389 75L727.667 73L728.306 72.0555L728.917 71.0555L729.306 70.5L730 69L726.944 69L726 69L718 69L708 69M991 98L991.361 99.1667L991.722 99.4445L992.333 100.056L993.083 100.611L993.917 101.306L995.278 103.028L995.889 105L996 107L996 108L996 111L996 116L996 118L996 119L996 121L995.972 122L995.889 123L995.278 124.972L993.944 126.667L992.5 127.639L991 128L991.778 128.722L992.306 128.75L993.111 128.944L994.028 128.972L995 129L997 129L998 129L1000 129L1004 129L1003.22 128.278L1002.75 128.25L1001.94 128.056L1000 128L999 127L999 122L999 114L1000.5 114L1002.06 114.111L1003.97 114.722L1005.69 116.083L1007 117.667L1007.56 118.278L1008.61 118.889L1010 119L1010 114L1010 107L1008.61 107.111L1007.58 107.722L1006.72 109.056L1006.25 110.5L1006 112L1003.94 112L1002.06 112L1001.06 112L999 112L999 101L1000 100L1002.06 100L1003.06 100.028L1004 100.083L1006 100.417L1007 100.722L1009 101.611L1010 102.222L1010.97 102.889L1012.69 104.361L1013.94 105.75L1014.56 106.306L1014.83 106.639L1016 107L1016 104.944L1016 103.944L1015.92 102L1015.78 101.056L1015.58 100.056L1015 98L1011 98L1003 98L995 98L991 98M935 135L934.917 136.5L934.528 138.056L933.833 140L933.472 141L933 143L932.583 145L932.306 146L932 147L931.417 149L930.972 151L930.722 152L930 154L929.306 156L929.111 157L929.028 157.944L929 158.944L929 161L931 161L932 161L934 161L934 163.056L934 164.056L934 181L934 213L936 213L937 213L937 209.944L937 205L937 202L937 199L937 192L937 191L937 165.056L937 162L938 161L940 161L941 161L943 161L942.417 158.944L942 157L941.583 155L941.306 154L940.667 152L940.333 151L940 150L939.389 148L938.861 146L938.639 145L938.361 144L938.139 143L937.861 142L937.361 140L936.833 138.028L936.583 137.111L936.139 136.306L935.972 135.778L935 135M858 156L858.361 157.167L858.722 157.417L859.278 157.944L860.528 158.556L862 159L862 164L862 172L862 173L862 176L862 178L861.972 180L861.917 181L861.611 182.944L861.25 184.5L861 186L867 186L866.417 183.944L866.222 182.944L866.083 182L866 180L866 178L866 173L866 166L866 158L868.056 158L869.056 158L871 158.028L872 158.083L874 158.5L875.972 159.5L877.75 161.083L878.528 162L879.167 162.889L880.417 164.278L881.583 164.889L883 165L882.917 163.5L882.778 162.944L882.611 161.944L882.389 161L882.083 159.056L882.028 158.056L882 156L879.944 156L875 156L867 156L863 156L862 156L858 156M873 164L873 165.5L872.889 167.056L872.722 167.944L872.139 169.5L871 171L871.667 172.5L871.972 173.056L872.694 174.944L872.972 176.5L873 178L876 178L876 174L876 173L876 169L876 164L874 164L873 164M887 165L887 172L888.25 171.639L888.667 171.278L889.444 170.694L890.222 169.972L892.028 168.5L893 167.944L894 167.5L895.944 167.083L896.944 167.028L899 167L897.944 168.5L897.611 169.056L896.944 170.056L896.333 171L895 173L893.611 175L892.861 176L892.139 176.972L891.389 177.917L890 179.611L889.333 180.389L888.028 182.083L886.917 183.944L886.278 185.5L886 187L888 186.417L889 186.222L889.5 186.083L891 186L892.056 184.5L892.389 183.944L893.694 182L895.194 180L896.806 178L897.611 177L899.139 175L899.833 174L900.556 173L901.167 172L901.806 171L902.917 169L903.361 168.056L903.889 166.5L904 165L899 165L891 165L887 165M1026 174L1025.53 175.444L1025.17 176L1024 178L1023.39 177.222L1023.72 176L1024.31 175.278L1024.61 174.778L1026 174M902 180L901.222 181.5L900.694 182.028L899.944 182.944L898.5 184.222L897 185L897.778 185.722L898.306 185.778L899.972 186.194L900.944 186.417L903 187L903.25 185.5L903.611 183.944L903.917 182.056L904 180L902 180M877 243L877.778 244.139L878.25 244.333L879.528 244.889L881 245L881 264L881 266L881 267L880.972 268L880.889 268.972L880.333 270.667L879.389 271.639L878 272L878.778 272.722L879.306 272.75L880.111 272.944L881.028 272.972L882 273L883 273L885 273L889 273L891 273L893 273L894 272.972L895 272.917L897 272.528L898.972 271.722L899.917 271.139L900.75 270.528L901.5 269.75L902.5 267.972L902.75 267L902.917 266L902.972 264L902.917 263L902.5 261.028L901.5 259.25L899.972 257.944L899.028 257.5L898.5 257.278L897 257L899.028 255.528L899.944 254.722L901.278 252.972L901.889 251L901.944 250L901.667 248L901.278 247L900.667 246.028L899.889 245.111L898 243.722L897 243.333L896 243.111L894 243L893 243L890 243L885 243L877 243M895 245L896.139 247.056L896.556 248.056L896.722 249L896.722 251L896.056 252.917L894.75 254.5L892.972 255.5L891 255.917L889 256L888.056 256L885 256L885 245L886.5 245L895 245M896 258L896.667 259.5L896.972 260.056L897.694 262L897.889 263L897.917 265L897.75 266L897.5 267L896.5 268.972L895.75 269.889L894.917 270.667L893.972 271.278L893 271.667L892 271.889L890 271.972L888.028 271.667L887.111 271.278L886.333 270.667L885.722 269.889L885.333 268.972L885.111 268L885 266L885 265L885 263L885 258L888.056 258L890 258L891 258L892 258L896 258M940 266L939 267L940 266M994 278L994.778 278.806L995.25 278.972L996.528 279.556L998 280L998.028 281.5L998.25 283.056L998.472 284L998.833 285L999.528 287L999.944 289L1000.06 290L1000.39 292L1000.86 294L1001.14 295L1001.36 296L1001.61 297L1001.94 299L1002.06 300L1002.42 302L1003 303.944L1003.33 304.944L1003.56 305.5L1004 307L1007 307L1007.69 305.5L1008.06 304.944L1009.17 303L1009.75 302L1010.22 301L1011.22 299L1011.75 298L1012.17 297L1012.61 296L1013 295L1013.89 293L1015 291L1015.61 290L1016.81 288L1017.39 287L1018.69 285L1020.22 283L1022.03 281.111L1023.89 279.611L1024.67 279.056L1025.28 278.444L1025.64 278.167L1026 277L1022 277L1020 277L1018 277L1015.06 277L1013 277L1013.36 278.139L1013.67 278.333L1014.61 278.889L1016 279L1015.89 280.5L1015.69 281.056L1015.39 282.056L1014.58 284L1013.81 286L1012.92 288L1012.36 289L1011.25 291L1010.25 293L1009.86 293.944L1009.28 295.5L1009 297L1007 297L1006.75 295.5L1006.61 294.944L1006.19 293L1005.81 291L1005.61 290L1005.14 288L1004.86 287L1004.39 285L1004.08 283.056L1004.03 282.056L1004 280L1005.47 279.722L1006.72 279.111L1007.64 278.222L1008 277L1005.94 277L1003 277L1001 277L999 277L998 277.028L997.056 277.056L996.056 277.25L995.5 277.278L994 278M928 286L927.722 287.5L927.139 289.056L926.722 290L925.611 292L924.306 294L923.611 295L922.861 296L921.444 298L920.833 299L920.194 300L919.056 301.944L918.694 302.5L918 304L919.722 304.333L920.333 304.722L920.806 306.111L920.583 308L920.306 309L919.667 311L918.944 312.889L918.417 313.694L918.167 314.222L917 315L917.389 316.5L917.556 318.056L917.5 319L917.278 320L916.611 322L915.75 324L915.25 325L914.389 327L914.028 328L913.667 329L913 331L912.389 333L911.833 335L911.556 336L910.75 338L910.222 339L909.778 340L909.25 341L908.833 342L908.389 343L907.667 345L906.972 347L906.611 348L905.75 350L905.25 351L904.472 353L904.222 354L903.778 356L903.528 357L903.167 358L902.806 359L902 361L901.194 363L900.806 364L900.361 365L899.944 366L898.917 368L897.667 370L897.028 371L896.389 372L895.25 374L894.75 375L893.611 377L892.972 378L891.583 380L889.944 382L889.056 383L888.25 384L887.472 385L886.25 387L885.75 388L884.556 390L883.861 391L882.583 393L881.417 395L880.139 397L879.444 397.972L878.889 398.889L878.25 399.694L878 400.222L877 401L878 402L878 404L880 404L880.333 402.5L880.639 401.944L881.083 400.944L881.639 400L882.194 399L883.389 397L884.028 396L885.333 394L886.611 392.028L887.194 391.083L888.389 389.389L888.972 388.667L889.944 387.417L891 386L891.694 386.778L891.639 388.111L890.917 390L889.889 392L889.417 393L889.028 394L888.667 395L888 397L887.694 398L887.389 399L886.861 401L886.611 402L885.972 404L885.611 405L885.167 406L884.75 407L884.25 408L883.389 410L883.028 411L882.333 413L881.972 414L881.611 415L880.75 417L880.25 418L879.861 419L879.444 420L879.167 421L878.556 423L877.806 425L877.389 426L876.667 428L876.333 429L875.611 431L874.75 433L874.25 434L873.389 436L873.028 437L872.667 438L871.917 440L871 442L870.083 444L869.722 445L869.417 446L868.972 448L868.722 449L868 451L867.583 452L866.861 454L866.556 455L865.75 457L865.222 458L864.778 459L864.25 460L863.833 461L863.028 463L862.389 465L861.861 467L861.611 468L860.972 470L860.611 471L860.167 472L859.75 473L859.25 474L858.389 476L858.028 477L857.667 478L857 480L856.306 482L855.917 483L854.944 485L854.389 486L853.472 488L852.861 490L852.639 491L852.139 493L851.833 494L851.556 495L850.75 497L850.222 498L849.778 499L849.25 500L848.389 502L848.028 503L847.667 504L846.972 506L846.611 507L846.194 508L845.472 510L845.222 511L844.778 513L844.528 514L843.75 516L843.25 517L842.389 519L842.028 520L841.306 522L840.917 523L839.944 525L839.389 526L838.417 528L838 529L837.611 530L836.833 532L836.472 533L836 535L835.583 537L835.278 538L834.917 539L834.472 540L833.528 542L833.083 543L832.694 544L831.972 546L831.611 547L831.194 548L830.389 550L829.611 552L828.806 554L828.389 555L828.028 556L827.417 557.944L827.083 559.5L827 561L826 562L822 562L822 559.944L822 558.944L821.917 557L821.778 556L821.389 554L820.972 552L820.75 551.056L820.333 550.056L820.139 549.5L819 548L819.194 545.944L819.139 544.944L819.056 544L818.556 542L818.167 541L817.361 539L816.917 538L815.694 536.028L814.889 535.083L813.028 533.389L812.083 532.611L811.222 531.806L809.611 530.222L808.778 529.472L806.972 528.194L805 527L803.056 525.889L802.5 525.528L801 525L801.111 523.5L801.667 522L801.861 521.5L803 520L801 519.75L800.444 519.722L799 519L798.722 520.5L798.056 522.056L797.528 523L796.833 524L795.444 526L794.194 528L793.611 529L792.306 531L791.611 532L790.861 533L790.139 534L789.361 535L788.639 536L787.222 538L786.583 539L786.028 540L784.917 542L783.667 544L782.306 546L781.611 547L780.167 549L779.444 550L778.25 552L777.75 553L776.583 554.889L775.806 555.694L775.417 556.222L774 557L774 555.5L774 545L774 541L774 532L774 515L774 514L774 411L775.5 410.25L776.056 409.778L777.056 409.139L778 408.444L778.972 407.833L780.778 406.639L781.611 406.056L783.222 405.056L784.083 404.611L786 403.528L787 402.833L789 401.444L790.972 400.167L791.889 399.583L792.694 398.806L793.222 398.417L794 397L795.5 396.722L797.056 396.056L798.917 394.778L800.611 393.222L801.389 392.472L803.083 391.167L804.028 390.556L806 389.139L807 388.361L809 386.889L811 385.583L813 384.389L815 382.917L816 382.056L818 380.472L819 379.833L821 378.556L822.972 377.139L823.917 376.389L825.611 375L827.222 373.667L828.083 373L830 371.583L832 369.917L833 368.972L835 367.083L836 366.222L837 365.417L838 364.694L840 363.306L842 361.861L843 361.139L845 359.611L847 357.944L848 357.056L850 355.472L850.972 354.833L852.778 353.611L853.611 352.972L855.222 351.611L856.083 350.861L858 349.361L859 348.611L861 346.917L862 345.972L864 344.083L866 342.389L868 340.778L869 339.917L871 338.083L873 336.389L874 335.611L876 333.917L877 332.972L879 331.083L880 330.222L882 328.611L884 326.917L885 325.972L887 324L888 323L891 320L892 319L894 317.028L895 316.083L897 314.389L898 313.611L900 312L901.917 310.417L903.611 309L905.139 307.583L906.639 306L907.389 305.194L908.222 304.389L909.083 303.611L911 301.917L912 300.972L914 299L915 298L919 294L921 292L923 290L924 289.028L924.944 288.111L925.944 287.306L926.5 286.778L928 286M934 348L934 356L934 371L934 411L936 411L937 411L937 409.5L937 407L937 403L937 348L934 348M910 351L909 352L910 351M893 384L892 385L893 384M770 415L770 427L770 428L770 433L770 443L770 562L752 562L752.25 563.444L752.583 564.556L753 566L761 566L765 566L770 566L770 571L770 699L769 698.222L768.778 697.694L768.222 696.889L767.444 695L766.833 693L766.556 692L766.139 691L765.722 690L764.639 688L764.056 687L763.056 685L762.639 684L761.75 682L761.25 681L760.389 679L759.611 677L758.806 675L758.361 674L757.944 673L756.944 671L756.389 670L755.417 668L754.611 666L753.806 664L753.361 663L752.944 662L751.944 660L751.389 659L750.472 657L750.139 656L749.417 654L748.972 653L748.056 651L747.167 649L746.25 647L745.361 645L744.917 644L743.806 642L743.194 641L742.111 639L741.389 637L741.139 636L740.556 634L739.75 632L739.25 631L738.361 629.028L737.944 628.083L736.944 626.389L736.389 625.611L735.417 623.917L734.611 622L733.833 620L733.444 619L733.167 618L732.556 616L731.722 614L731.167 613L730.056 611L729.056 609L728.167 607L727.75 606L726.778 604L726.25 603L725.444 601L724.833 599L724.556 598L723.75 596L723.222 595L722.75 594L722.167 593L721.056 591L720.056 589L719.639 588L719.194 587L718.444 585L717.833 583L717.556 582L716.806 580L715.944 578.083L715 576.389L714.056 574.778L713.167 572.972L712.75 572L711.778 570L711.25 569.056L710.833 568.056L710.5 567.5L710 566L715 566L721 566L722 566L727 566L735 566L735 562L727 562L726 562L717 562L714 562L712 561.972L710.028 561.667L709.111 561.278L707.611 559.889L707.028 558.972L706.5 558L705.528 556L704.639 554L704.167 553L703.75 552L703.25 551L702.444 549L702.167 548L701.528 546L701.083 545L700.583 544L699.417 542L698.889 541L698.417 540L697.611 538L697.167 537L696.75 536L695.778 534L695.222 533L694.778 532L694.25 531L693.389 529L692.667 527L692.333 526L691.583 524L691.111 523L690.056 521L689.528 520L688.472 518L687.944 517L687.389 516L686.417 514L685.694 512L685.389 511L685.111 510L684.417 508L683.972 507L683.056 505L682.611 504L681.583 502L681 501L679.917 499.056L679.278 497.5L679 496L680.5 495.75L681 495.611L682.5 495.25L684 495L683.222 493.5L682.694 492.944L681.889 491.944L680.083 490L678.417 488L677.694 487L676.306 485L675.611 484L674.861 483L673.361 481L672.611 480L671 478L670.222 477L669.5 476L668.944 475.056L668.278 473.5L668 472L669.5 471.194L670.056 471L672 470.111L673 469.583L675 468.389L677 467.25L678 466.75L680 465.639L681 465.083L683 464.194L685 463.389L687 462.389L689 461.417L690 461L691.917 460.111L693.611 459.056L695.222 458.056L696.083 457.611L698 456.611L699 456.056L701 455.056L703 454.111L704 453.583L706 452.417L707 451.889L708 451.389L709.917 450.389L711.611 449.139L712.389 448.472L714.083 447.417L716 446.611L718 445.722L720 444.611L722 443.389L723 442.806L725 441.556L727 440.167L728 439.444L730 438.25L731 437.778L732 437.222L733 436.778L735 435.75L736 435.167L737 434.611L739 433.389L740 432.806L741 432.194L742 431.639L743 431.056L745 430.056L746.972 429.083L747.917 428.528L749.611 427.167L750.389 426.444L752.083 425.194L753.028 424.611L755 423.389L756 422.833L757 422.25L758 421.778L759 421.222L760 420.75L762 419.611L763 418.972L764 418.333L765 417.667L766.944 416.417L767.944 415.889L768.5 415.528L770 415M866 417L865.25 418.5L864.778 419.056L864.139 420.056L863.444 421L862.25 423L861.75 424L860.611 426L859.306 428L857.861 430L857.139 431L856.361 432L855.639 433L854.167 435L853.444 436L852.861 437L852.25 438L851.75 439L850.556 441L849.833 442L848.444 444L847.833 445L847.194 446L846.611 447L845.389 449L844.806 450L844.194 451L843.056 452.944L842.694 453.5L842 455L843 456L845 456L846.25 454.5L847.417 452.944L848.139 452L848.833 451L849.528 450L850.611 448L851.083 447L851.611 446L852.889 444L853.639 443L854.389 442L856 440L857.583 438L858.306 437L859.611 435L860.194 434L861.389 432L862.611 430L863.806 428L864.389 427L865.667 425L866.333 424L866.972 423L867.611 422L868.722 420.056L869.167 419.056L869.5 418.5L870 417L866 417M906 426L904.5 427.056L902.944 427.944L901.056 428.694L900.056 428.889L898 429L898.778 429.722L899.25 429.75L900.056 429.944L902 430L902.083 431.5L902.222 432.056L902.389 433.056L902.611 434L902.917 436L902.972 437L903 439L903 441L903 444L903 447L903 448L902.972 449L902.889 450L902.694 451L901.972 452.944L901.667 453.5L901 455L899 454.5L898.444 454.333L897 455L897.778 455.722L898.306 455.75L899.111 455.944L900.028 455.972L902 456L903 456L905 456L907 456L908.972 455.972L909.889 455.889L910.667 455.722L911.639 455.139L912 454L910 454.25L909.444 454.278L908 455L907.417 452.944L907.222 451.944L907.083 451L907 449L907 447L907 443L907 441L907 440L907.111 438L907.333 437L907.694 436L908.861 434L909.528 433.056L910.083 432.056L910.472 431.5L911 430L912.5 430.111L913.056 430.306L914.056 430.611L915.944 431.389L916.944 431.694L917.5 431.889L919 432L919 427L916.944 427L915.944 427L914 427.111L912 427.722L910.056 429.056L909.056 429.972L907 432L907 429.944L906.972 428.972L906.944 428.111L906.75 427.306L906.722 426.778L906 426M934 427L934 435L934 450L934 490L936 490L937 490L937 488.5L937 486L937 482L937 427L934 427M832 469L831.25 470.5L830.778 471.056L830.139 472.056L829.444 473L828.25 475L827.75 476L826.611 478L825.972 479L824.611 481L823.861 482L823.139 482.972L821.694 484.778L820.389 486.389L819.25 488.083L818.75 489.028L817.611 491L816.333 493L815.667 494L814.389 496L813.806 497L812.611 499L811.389 501L810.833 502L810.278 502.944L809.833 503.944L809.5 504.5L809 506L811 507L812 507L813.444 504.944L814.194 503.944L814.833 503L815.556 502L816.75 500L817.25 499L818.389 497L819.667 495L820.333 494L821 493L822.417 491L824 489L824.778 488L825.528 487L826.75 485L827.25 484L828.389 482L829.028 481L830.333 479L831.611 477L832.194 476L832.806 475L833.361 474L834.306 472.056L834.444 471.056L834.611 470.5L834 469L832 469M667 473L667.028 475.056L667.083 476.056L667.389 478L667.806 480L668.194 482L668.389 483L668.861 485L669.139 486L669.361 487L669.778 489L669.917 490L670 492L670 494L670.083 496L670.222 496.944L670.417 497.944L671 500L672.5 499.028L673 498.861L674.5 498.278L676 498L676.972 499.5L677.167 500.056L678.056 502L678.528 503L679.472 505L679.944 506L680.361 507L681.25 509L681.75 510L682.639 512L683.056 513L684.056 515L684.611 516L685.528 518L685.861 519L686.583 521L687.028 522L687.944 524L688.833 526L689.25 527L690.222 529L690.778 530L691.222 531L691.778 532L692.222 533L693.222 535L693.75 536L694.556 538L695.167 540L695.444 541L696.25 543L696.75 544L697.167 545L698.083 547L698.611 548L699.806 550L700.917 552L701.806 554L702.167 555L702.556 556L702.833 557L703.139 558L703.361 558.944L703.75 560.5L704 562L696 562L680 562L671 562L667 562L662 562L661 562L657 562L652 562L652 566L662 566L678 566L682 566L693 566L697 566L701 566L707 566L707.5 567.5L707.833 568.056L708.25 569.056L709.222 571L710.222 573L710.75 574L711.556 576L712.167 578L712.444 579L713.278 581L713.833 582L714.361 583L714.944 584L715.944 586L716.361 587L716.806 588L717.194 589L717.611 590L718.333 592L718.667 593L719.333 595L719.694 596L720.083 597L721.056 599L721.639 600L722.167 601L722.75 602L723.222 603L724.222 605L724.75 606L725.556 608L725.833 609L726.444 611L727.25 613L727.778 614L728.778 616L729.778 618L730.222 619L730.778 620L731.75 622L732.167 623L733.056 625L733.528 626L734.417 628L734.778 629L735.472 631L735.917 632L736.944 634L737.944 636L738.833 638L739.25 639L740.222 641L740.778 642L741.222 643L741.75 644L742.611 646L742.972 647L743.667 649L744.389 651L744.833 652L745.25 653L746.222 655L746.778 656L747.778 658L748.222 659L748.778 660L749.222 661L749.778 662L750.75 664L751.611 666L752.333 668L752.667 669L753.389 671L753.833 672L754.25 673L755.222 675L755.778 676L756.75 678L757.167 679L758.056 681L758.972 683L759.417 684L760.139 686L760.444 687L761.25 689L761.778 690L762.778 692L763.778 694L764.222 695L764.778 696L765.75 698L766.167 699L766.611 700L767.389 702L768.194 703.944L768.5 704.5L769 706L767.5 705.75L765.944 705.361L765 705.139L764 704.861L763 704.639L762 704.389L761 704.194L759 703.806L757 703.389L755 703.056L754 702.944L752 702.611L750 702.194L748 701.806L747 701.611L745 701.139L744 700.861L742 700.361L741 700.139L740 699.861L738 699.389L737 699.194L735 698.806L734 698.611L732 698.139L731 697.861L730 697.611L729 697.306L727 696.694L726 696.389L725 696.139L724 695.861L722 695.389L721 695.194L719 694.806L717 694.389L716 694.222L715 694.083L713 693.917L712 693.778L710 693.389L709 693.194L707 692.806L706 692.611L704 692.139L703 691.861L702 691.611L701 691.306L700 691L698 690.417L696 690L694 689.611L693 689.389L692 689.194L690 688.806L689 688.611L688 688.389L686 688L685 687.778L684 687.528L682 686.833L681 686.472L680 686.25L679 686.083L677 686L675 685.917L673 685.583L672 685.306L670 684.694L669 684.417L668 684.194L666 683.806L664 683.389L663 683.194L661 682.806L660 682.611L659 682.361L658 682.139L657 681.861L656 681.611L655 681.306L653 680.694L652 680.389L651 680.139L650 679.861L648 679.389L646 679.056L645 678.944L643 678.528L642 678.167L640 677.472L639 677.25L638 677.083L636 677L635 676.972L634 676.917L632 676.611L631 676.389L629 676L627 675.528L626 675.167L624 674.472L623 674.222L621 673.806L620 673.611L618 673.194L616 672.806L614 672.306L612 671.694L611 671.417L609 671L608 670.806L607 670.611L605 670.139L604 669.861L603 669.639L602 669.389L600 669.083L598 668.917L597 668.778L595 668.389L593 668L591 667.611L590 667.389L588 667L586 666.528L584 665.833L583 665.472L582 665.222L581 665L579 664.611L578 664.389L577 664.194L575 663.806L574 663.611L573 663.389L571 663L569 662.583L567 662L566 661.694L565 661.389L563 660.861L562 660.639L561 660.389L559 660.083L557 659.917L556 659.778L554 659.361L553 659.139L552 658.861L551 658.639L550 658.389L548 658.056L547 657.944L545 657.611L544 657.361L543 657.139L541 656.611L540 656.306L539 656L537 655.417L535 655L534 654.806L533 654.611L532 654.361L531 654.139L529 653.611L528 653.306L526 652.694L525 652.417L523 652.083L521 652L519 651.917L517 651.611L516 651.389L514 651L513 650.806L512 650.583L511 650.306L509 649.694L508 649.389L506 648.861L504 648.389L503 648.194L501 647.806L500 647.583L499 647.306L497 646.694L496 646.417L494 646L493 645.806L492 645.611L490 645.139L489 644.861L488 644.639L487 644.389L485 644.083L483 643.917L482 643.778L480 643.389L479 643.194L477 642.806L476 642.611L474 642.139L473 641.861L472 641.639L471 641.361L470 641.139L468 640.639L466 640.139L465 639.861L463 639.389L462 639.194L460 638.806L459 638.611L457 638.139L455 637.611L454 637.306L452 636.694L451 636.417L450 636.194L449 636L447 635.611L446 635.389L444 635.083L442 634.917L440 634.611L438 634.194L436 633.806L435 633.611L433 633.139L432 632.861L430 632.389L428 632.056L426 631.75L425 631.528L423 630.833L422 630.444L420 629.861L419 629.639L418 629.389L416 629.056L415 628.944L413 628.528L412 628.167L410 627.472L409 627.25L408 627.083L406 627L405 627L403 626.917L401 626.611L400 626.361L399 626.139L397 625.556L396 625.167L394 624.472L393 624.222L391 623.806L390 623.611L388 623.194L387 623L385 622.583L383 622L382 621.694L381 621.389L379 620.861L378 620.639L377 620.389L375 620.056L374 619.944L372 619.611L371 619.361L370 619.139L369 618.861L368 618.639L366 618.222L365 618.083L363 617.917L361 617.611L360 617.361L359 617.139L357 616.611L356 616.306L354 615.694L353 615.417L351 615.056L350 614.944L348 614.611L347 614.361L346 614.139L345 613.861L343 613.389L342 613.194L340 612.778L339 612.528L337 611.833L336 611.472L334 611L332 610.611L331 610.389L329 610.083L328 610.028L326 609.917L325 609.778L323 609.361L322 609.139L321 608.861L319 608.389L318 608.194L316 607.806L315 607.611L313 607.139L312 606.861L311 606.611L310 606.306L308 605.694L307 605.389L306 605.139L305 604.861L303 604.389L301 604.056L300 603.944L298 603.583L297 603.306L295 602.694L294 602.389L292 601.861L291 601.639L290 601.389L288 601.083L287 601.028L286 601L284 600.917L283 600.75L282 600.528L281 600.167L279 599.472L278 599.222L276 598.806L275 598.611L273 598.194L272 598L270 597.583L269 597.306L267 596.694L266 596.417L265 596.194L263 595.806L262 595.611L260 595.139L259 594.861L258 594.639L257 594.389L256 594.194L254 593.806L253 593.611L251 593.222L250 593.083L248 592.917L247.056 592.778L246.056 592.583L244 592L244.083 589.944L244.417 588.056L245 586L239 586L237 586L236 586.028L235 586.083L233 586.389L232 586.611L230 586.917L229 586.972L228 587L226 587L224 586.972L223 586.917L221 586.611L220 586.361L219 586.139L218 585.861L216 585.389L215 585.194L213 584.806L211 584.389L209 584.083L207 583.917L205 583.611L204 583.361L203 583.139L201 582.639L200 582.389L198 582.056L197 581.944L195 581.528L193 580.833L192 580.472L190 580L188 579.611L186 579.139L184 578.611L182 578L180 577.417L178 577L176 576.611L175 576.389L173 576.083L171 576L169 575.917L167 575.583L166 575.306L164 574.694L163 574.389L161 573.861L160 573.639L159 573.389L157 573.056L156 572.944L154 572.528L153 572.167L151 571.444L150 571.167L149 570.861L147 570.389L145 570.056L144 569.944L142 569.611L141 569.361L139 568.861L138 568.639L137 568.389L135.056 568.083L133.5 568L132 568L132 566L197 566L219 566L226 566L229 566L230 566L232 566.056L234 566.167L235 566.222L236 566.167L238 566.056L240 566L242 566L247 566L261 566L304 566L433 566L433 562L345 562L345.778 561.278L346.306 561.25L347.111 561.056L348.028 561.028L350 560.972L351 560.917L353 560.611L354 560.389L356 560.083L357 560.028L359 560L360 559.972L361 559.917L363 559.611L364 559.361L365 559.139L366 558.861L367 558.639L369 558.222L370 558.083L372 558L374 558L375 557.972L376 557.917L378 557.611L379 557.389L381 557.083L382 557.028L384 557L385 557L388 557L389 557L390 557L392 556.917L394 556.583L396 556L398 555.417L399 555.222L401 555L402 554.917L404 554.611L405 554.389L407 554.083L408 554L410 553.778L411 553.583L412 553.306L414 552.694L415 552.417L416 552.222L417 552.083L419 551.917L420 551.778L422 551.389L423 551.194L425 550.806L426 550.611L427 550.389L429 550.056L430 549.944L432 549.611L433 549.389L435 549.056L436 548.944L438 548.611L440 548.222L442 548L443 547.889L445 547.389L447 546.611L448 546.306L450 545.944L451 545.778L452 545.611L454 545.139L455 544.861L456 544.639L457 544.389L459 544.056L460 543.944L462 543.583L463 543.306L465 542.694L466 542.389L467 542.139L468 541.861L470 541.389L471 541.194L473 540.806L475 540.389L477 540.056L478 539.944L480 539.611L482 539.194L484 538.806L485 538.611L487 538.111L489 537.417L490 537L492 536.278L494 535.806L495 535.611L497 535.139L498 534.861L499 534.611L500 534.306L502 533.694L503 533.389L505 532.861L506 532.639L507 532.389L509 532.056L510 531.944L512 531.528L513 531.167L515 530.444L517 529.861L518 529.639L519 529.389L520.944 529.083L521.944 529.028L524 529L524 527L525.5 526.917L526.056 526.778L527.056 526.611L529 526.194L531 525.778L532 525.528L534 524.75L535 524.25L536 523.861L537 523.472L539 523.056L541 522.694L542 522.389L544 521.583L546 520.889L547 520.611L548 520.306L550 519.694L551 519.389L553 518.833L554 518.556L556 517.75L557 517.25L558 516.833L560 516.028L562 515.389L563 515.139L564 514.861L565 514.639L566 514.361L567 514.139L569 513.556L570 513.167L571 512.806L573 511.944L575 511.028L576 510.583L578 509.861L579 509.556L581 508.806L582 508.389L584 507.667L585 507.333L587 506.667L590 505.667L591 505.333L592 504.972L593 504.611L595 503.75L596 503.25L598 502.389L600 501.611L602 500.75L603 500.25L605 499.389L607 498.694L608 498.417L609 498.194L611 497.778L612 497.5L614 496.611L615 496.056L617 495.056L618 494.639L620 493.75L622 492.778L624 491.778L625 491.25L627 490.472L628 490.222L630 489.694L631 489.306L632 488.778L633 488.194L635 487.111L636 486.694L638 485.972L639 485.611L641 484.722L642 484.167L643 483.639L644 483.056L646 482.056L648 481.194L649 480.833L650 480.444L651 480.167L653 479.528L655 478.611L656 478.056L658 476.972L659 476.417L661 475.139L662 474.472L663.944 473.5L665.5 473.083L667 473M870 504.5L869 504.944L867 506.25L866.028 507.083L864.333 509L863.694 510L862.889 512L862.389 514L862.083 516L862.028 517L862 518L862 520L862.028 522L862.083 523L862.389 525L862.639 526L862.861 527L863.472 529L863.944 529.972L864.5 530.917L866.083 532.583L867.028 533.278L869 534.361L871 534.889L873 534.917L874 534.75L875 534.528L876.917 533.722L878.583 532.528L879.917 530.917L880.444 529.972L880.917 529L881.583 527L881.778 526L882.056 524L882.389 522L882.611 521L882.833 519L882.75 518L882.611 517L882.222 515L881.944 513L881.5 511L881.083 510L879.972 508.083L879.306 507.222L878.583 506.417L876.917 505.111L875 504.306L873 504.056L872 504.083L870 504.5M877 518L873 518L871.056 518L868 518L868 515.944L868 514.944L868 514L868.083 512L868.5 510L868.889 509.056L869.778 507.5L871 506L872.5 506.278L873.944 506.944L875.361 508.25L875.889 509.083L876.583 511L876.917 513L877 514.944L877 515.944L877 518M286 507L285.278 508.5L285.056 510.056L285.083 512L285.361 514L285.528 515L285.5 517L284.917 519L284.444 520L283.361 522L282.833 523L282.278 524L281.833 525L281 526.944L280.806 527.5L280 529L279.167 527.5L278.944 526.944L278.444 525.944L278 525L277.083 523L276.333 521L275.667 519L275.306 518L274.917 517L273.944 515L273.389 514L272.417 512L271.667 510.056L271.444 509.5L271 508L263 508L263.778 509.25L264.278 509.667L265 510.444L266.361 512.083L267.389 514L268.389 516L268.944 517L269.917 519L270.667 521L271.306 523L271.611 524L272.139 526L272.389 527L273.083 529L273.556 530L274.611 532L275.611 533.972L276.583 535.667L277.611 536.639L279 537L279.333 535.583L279.611 535.167L280.028 534.333L280.944 532.778L281.833 530.972L282.278 530L283.361 528L283.944 527L284.944 525L285.806 523L286.194 522L287.056 520L287.528 519L288.472 517L289.361 515L289.806 514L290.5 512L290.639 511L290.25 509.111L288.944 507.722L288.028 507.333L286 507M934 507L934 526L934 562L929 562L927 562L924.056 562L922 562L922 566L926 566L928 566L930 566.028L931.889 566.278L932.694 566.667L933.222 566.861L934 568L935 568L937 568L937 566L938.5 566L940.056 566L944 566L946 566L948 566L954 566L960 566L963 566L969 566L974 566L982 566L986 566L990 566L995 566L1000 566L1000 562L998.5 562L996.944 562L993 562L985 562L984 562L982 562L981 562L980 562L977 562L975 562L974 562L972 562L968 562L960 562L956 562L948 562L947 562L943 562L942 562L937 562L937 560.5L937 559.944L937 538L937 537L937 529L937 507L934 507M94 515L94.7778 515.722L95.25 515.75L96.0556 515.944L98 516L98.25 517.5L98.6111 519.056L98.9167 521L98.9722 522L99 523L99 525L99 532L99 535L99 537L98.9722 538L98.8889 539L98.6667 540L97.7222 541.889L96.4722 543.222L95 544L95.7778 544.722L96.3056 544.75L97.1111 544.944L98.0278 544.972L100 545L102 545L107 545L106.222 544.25L105.694 544.167L104.889 543.833L104.028 543.639L102.5 543.25L101 543L101 523L102.167 523.778L102.417 524.306L102.944 525.111L103.306 526.028L104.028 528L104.389 529L105.25 531L105.75 532L106.611 534L106.972 535L107.333 536L108.083 538L109 540L109.472 541L109.917 541.944L110.556 543.5L111 545L113 545L113.833 543.5L114.056 542.944L114.556 541.944L115.472 540L115.944 539L116.806 537L117.167 536L117.556 535L117.833 534L118.389 532L118.694 531L119.333 529L120.083 527L120.972 525L121.389 524.056L121.889 522.5L122 521L122.722 522.5L122.75 523.056L122.944 524.056L122.972 525L123 526L123 528L123 531L123 543L121 543L120 544L120.778 544.722L121.306 544.75L122.111 544.944L123.028 544.972L125 545L127 545L132 545L131.222 544.25L130.694 544.139L129 543.306L128.111 542.667L126.722 540.972L126.333 540L126.111 539L126 537L126 536L126 533L126 517L127.5 516.75L128 516.611L129.5 516.25L131 516L130.222 515.278L129.694 515.25L128.889 515.056L127.972 515.028L126 515L124.056 515L121 515L120.417 517.056L119.972 519L119.722 520L119.389 521L118.528 523L118.083 524L117.333 526L116.972 527L116.611 528L115.75 530L115.222 531L114.778 532L114.25 533L113.472 534.944L113.083 536.5L113 538L112 536.5L111.778 535.944L111.194 534.944L110.778 534L110.25 533L109.472 531L109.222 530L108.778 528L108.528 527L107.75 525L107.222 524L106.778 523L106.25 522L105.833 521L105.389 520L104.639 518.056L104.167 517.056L103.972 516.5L103 515L94 515M20 516L18.8611 517.5L18.25 519.056L18.0278 520L17.5833 522L16.9722 524L16.6111 525L16.1667 526L15.75 527L15.25 528L14.4444 530L13.8333 532L13.5556 533L12.75 535L12.25 536L11.3889 538L11.0278 539L10.3333 541L9.66667 542.944L9.44444 543.5L9 545L5 545L5 547L16 547L15.6389 545.861L15.3333 545.667L14.3889 545.111L13 545L13.0833 543.5L13.4722 541.944L14.25 540L14.75 539.056L15.1667 538.056L15.5 537.5L16 536L26 536L26.25 537.5L26.3889 538.056L26.8611 540L27.1111 541L27.2778 542.889L27.0833 543.694L26.1944 544.944L25.6944 545.556L25.3611 545.833L25 547L37 547L36.2222 545.861L35.75 545.667L34.4722 545.111L33 545L32.9167 543.5L32.5833 541.944L32.3056 541L31.6111 539L30.75 537L29.7778 535L29.25 534L28.4444 532L28.1389 531L27.4167 529L26.9722 528L26.0833 526L25.3889 524L24.8611 522L24.6111 521L23.9444 519.056L23.1667 517.5L22 516L20 516M877 521L877 523.056L876.917 525L876.583 527L875.972 529L875.639 529.944L875.167 530.944L874.972 531.5L874 533L872.5 532.889L871.028 532.278L869.5 530.889L868.5 529L868.083 527L868 525L868 524.056L868 521L872 521L877 521M298 541L297.5 539.5L297.194 538.944L296.472 537L296.083 535L296 533L296 532L296.028 530L296.083 529L296.25 528L296.472 527L297.194 525.056L297.5 524.5L298 523L299.5 523.25L300 523.389L301.5 523.75L303 524L303.028 525.5L303.222 527.056L303.611 529L303.917 531L303.972 533L303.917 534L303.528 536L303.167 537L302.833 537.944L302.278 539.5L302 541L303.222 540.222L304.194 538.889L305.139 537L305.528 536L305.917 534L306 532L305.972 531L305.75 529L305.528 528L305.167 527L304.833 526.056L304.278 524.5L304 523L301.944 522.417L300 522.167L299 522.278L297.111 522.944L296.306 523.5L295.111 525.083L294.722 526.028L294.417 527L294.083 529L294.028 530L294 532L294 533L294.028 535L294.111 536L294.639 537.972L295.667 539.667L296.75 540.639L298 541M21 524L21.4444 525.5L21.6667 526.056L22.3889 528L23.1667 530L23.5278 530.944L23.9167 532.5L24 534L16 534L16.25 532.5L16.6389 530.944L16.8611 530L17.1667 529L17.4444 528L18.1944 526.056L18.5 525.5L19 524L21 524M799 527L800.5 528.222L801.056 528.583L803 529.806L804 530.389L806 531.611L806.972 532.194L808.778 533.472L809.611 534.25L810.389 535.083L812.056 537L812.917 538L814.361 540L815.361 542L816.167 544L816.556 545L817.139 547L817.361 548L817.611 549L817.917 551L818 553L818 555L818.028 556L818.083 557L818.389 558.944L818.75 560.5L819 562L811 562L807 562L799 562L796 562L790 562L789 562L784 562L776 562L776.361 560.5L776.694 559.944L777.25 558.944L778.556 557.028L779.167 556.083L780.361 554.389L780.944 553.611L782 551.917L783.056 550L784.194 548L784.806 547L785.389 546L786.028 545L786.667 544L787.333 543L788.667 541L789.333 540L790.611 538.028L791.194 537.083L792.389 535.389L793.028 534.611L794.333 532.917L795.667 531L796.333 530.028L796.944 529.111L797.611 528.306L797.944 527.778L799 527M450 562L450.25 564L450.278 564.556L451 566L537 566L537 562L533.944 562L530 562L526 562L518 562L450 562M554 562L554 566L566 566L583 566L602 566L603 566L635 566L635 562L630 562L624 562L623 562L615 562L607 562L606 562L597 562L589 562L573 562L569 562L564 562L563 562L554 562M851 562L851 566L867 566L868 566L872 566L879 566L883 566L884 566L885 566L890 566L898 566L903 566L903 562L895 562L879 562L856 562L851 562M1016 562L1016 566L1018.06 566L1020 566L1028 566L1029 566L1033 566L1035 566L1037 566L1038 566L1042 566L1043 566L1045 566L1046 566L1050 566L1051 566L1059 566L1067 566L1068 566L1076 566L1077 566L1079 566L1082 566L1083 566L1087 566L1088.94 566L1089.94 566L1092 566L1092 562L1088 562L1087 562L1079 562L1078 562L1077 562L1075 562L1074 562L1068 562L1066 562L1065 562L1049 562L1048 562L1047 562L1045 562L1044 562L1042 562L1038 562L1036 562L1028 562L1027 562L1026 562L1022 562L1019.06 562L1016 562M1109 562L1109 566L1111.06 566L1112.06 566L1115 566L1117 566L1118 566L1119 566L1120 566L1121 566L1125 566L1130 566L1131 566L1135 566L1136 566L1144 566L1145 566L1147 566L1148 566L1156 566L1157 566L1158 566L1159 566L1163 566L1165 566L1166 566L1168 566L1169 566L1170 566L1171 566L1172 566L1174 566L1175 566L1180 566L1180 562L1172 562L1168 562L1164 562L1163 562L1162 562L1160 562L1157 562L1155 562L1151 562L1147 562L1145 562L1143 562L1141 562L1140 562L1139 562L1131 562L1127 562L1126 562L1125 562L1120 562L1117 562L1116 562L1114 562L1113 562L1109 562M1198 562L1198 566L1230 566L1235 566L1236 566L1237 566L1241 566L1242 566L1246 566L1250 566L1251 566L1252 566L1254 566L1255 566L1256 566L1257 566L1261 566L1262 566L1263 566L1265 566L1266 566L1266.94 566L1267.94 566L1270 566L1270 562L1266 562L1265 562L1264 562L1260 562L1259 562L1258 562L1250 562L1246 562L1242 562L1241 562L1239 562L1238 562L1237 562L1236 562L1232 562L1231 562L1228 562L1227 562L1225 562L1224 562L1222 562L1221 562L1217 562L1213 562L1212 562L1204 562L1203 562L1201.06 562L1198 562M1286 562L1286 566L1290 566L1291 566L1293 566L1294 566L1298 566L1299 566L1301 566L1305 566L1306 566L1307 566L1311 566L1312 566L1313 566L1314 566L1318 566L1319 566L1320 566L1322 566L1326 566L1334 566L1338 566L1342 566L1343 566L1345 566L1347 566L1348 566L1350 566L1354 566L1355.94 566L1356.94 566L1359 566L1359 562L1356.94 562L1355.94 562L1355 562L1352 562L1349 562L1346 562L1343 562L1341 562L1333 562L1332 562L1331 562L1329 562L1325 562L1323 562L1319 562L1311 562L1309 562L1301 562L1300 562L1296 562L1292 562L1290 562L1286 562M824 566L823.556 567.5L823.333 568.056L822.694 570L822.111 572L821.389 574L820.389 576L819.417 578L819.028 579L818.389 581L818.139 582L817.861 583L817.611 584L817.306 585L816.667 587L815.972 589L815.611 590L814.75 592L814.25 593L813.833 594L812.944 596L812.028 598L811.611 599L811.083 601L810.75 603L810.528 604L809.75 606L809.222 607L808.778 608L808.25 609L807.833 610L807.389 611L806.611 613L806.194 614L805.389 616L804.611 618L803.806 620L803.389 621L802.694 623L802.139 625L801.861 626L801.611 627L801.306 628L800.611 630L800.194 631L799.806 632L798.944 634L798.472 635L797.583 637L797.194 638L796.417 640L795.583 642L794.889 644L794.611 645L793.972 647L793.194 649L792.806 650L792.389 651L791.667 653L791.333 654L790.611 656L790.194 657L789.389 659L788.611 661L787.75 663L787.25 664L786.472 666L786.222 667L785.778 669L785.528 670L784.806 672L784.361 673L783.944 674L783.472 675L782.528 677L782.056 678L781.639 679L781.194 680L780.389 682L779.667 684L779.333 685L778.611 687L778.194 688L777.444 690L777.167 691L776.861 692L776.333 693.944L775.972 694.944L775.806 695.5L775 697L774.278 696.222L774.25 695.694L774.056 694.889L774.028 693.972L774 692L774 690L774 686L774 660L774 566L776.056 566L779 566L783 566L788 566L793 566L794 566L798 566L803 566L819 566L824 566M1217 567L1216.97 569.056L1216.92 570.056L1216.61 572L1216.36 573L1216.14 574L1215.56 576L1214.83 578L1214.47 579L1214.22 580L1213.81 582L1213.31 584L1212.67 586L1212.33 587L1212 588L1211.39 590L1211.14 591L1210.61 592.944L1210 595L1212.06 595L1213.06 595L1214.94 595L1215.5 595L1217 595L1217 615L1220 615L1220 612.944L1220 611.944L1220 595L1222 595L1223 595L1225 595L1224.42 592.944L1224.08 591L1223.92 589L1223.58 587L1223.31 586L1222.69 584L1222.42 583L1222 581L1221.78 580L1221.53 579L1220.83 577L1220.44 576L1220.17 575L1219.86 574L1219.64 573L1219.36 572L1219.14 571L1218.58 569.111L1218.14 568.306L1217.97 567.778L1217 567M934 585L934 595L934 597L934 638L936 638L937 638L937 634.944L937 634L937 626L937 622L937 606L937 598L937 585L934 585M423 592L423 587L420.944 587.611L419.944 587.861L419 588.139L418.056 588.361L416.5 588.75L415 589L415.778 589.833L416.306 590.083L417.917 591.306L419.278 593.028L419.667 594L419.889 595L419.972 596L420 598L420 599L420 602L420 605L420 606L419.972 608L419.889 609L419.667 610L419.278 610.972L417.917 612.694L417.083 613.389L416.333 613.944L415.722 614.556L415.361 614.833L415 616L420 616L422 616L423 616L425 616L426 615.972L426.944 615.944L427.944 615.75L428.5 615.722L430 615L429.222 614.278L428.694 614.25L427.889 614.056L427.028 614.028L426.056 614L424 614L423 613L423 607L423 605L423 604L423 602L423.083 600L423.222 599L423.417 598L424.111 596L424.611 595L425.778 593.056L426.306 592.056L426.639 591.5L427 590L428.5 590L430.028 590.111L430.889 590.278L431.694 590.667L432.222 590.861L433 592L436 592L437 591L436.722 589.5L436.139 588L435.972 587.5L435 586L433.5 586L431.944 586.111L430 586.639L428.028 587.722L427.083 588.417L425.444 589.972L424.667 590.722L424.25 591.222L423 592M675 591L673.5 591.972L672.944 592.139L671.944 592.556L670.056 592.917L669.056 592.972L667 593L667 596L671 596L671.25 597.5L671.611 599.056L671.917 601L671.972 602L672 604L672 605L672 607L672 618L667 618L667 621L683 621L683 619L682 618L677 618L676 617L676 601L677.25 600.639L677.667 600.278L678.444 599.667L679.972 598.028L680.722 597.056L681.222 596.5L682 595L683.5 596.389L685.056 597.333L685.944 597.667L687.5 597.972L689 598L690 597L690 593L689 592L685.944 592L685 592L683 592.028L681 592.333L680 592.694L678.056 593.806L677.5 594.25L676 595L675.944 593.056L675.75 592.25L675.722 591.778L675 591M442 601L441.333 602.5L441 603.056L440.083 605L439.417 607L439.083 609L439 611L439 612L439.028 614L439.083 615L439.5 617L440.5 618.889L442.083 620.278L444 620.889L444.944 620.972L445.944 621L448 621L448.972 619.5L449.167 618.944L449.639 617.944L450.306 616L450.583 615L450.917 613L450.972 611L450.917 610L450.611 608L450.361 607L450.111 606L449.306 604.028L448.722 603.111L447.472 601.778L446 601L446.667 602.5L446.972 603.056L447.778 605L448.111 606L448.611 608L448.917 610L448.972 611L448.917 613L448.583 615L448.306 616L447.667 617.944L447.444 618.5L447 620L442 620L441.917 618.5L441.778 617.944L441.611 616.944L441.389 616L441.083 614L441.028 613L441 612L441 610L441.028 609L441.25 607L441.5 606L441.917 605L442.944 603.056L443.306 602.5L444 601L442 601M686 608L686.778 608.722L687.25 608.75L688.056 608.944L690 609L690 623L689 623L687 624L687.778 624.722L688.306 624.75L689.111 624.944L690.028 624.972L692 625L692.944 625L696 625L695.278 624.028L694.75 623.833L693 623L693 619L693 617L693 615L693.028 614L693.111 613L693.722 611.028L695.111 609.333L695.972 608.722L697.5 608.111L699 608L699.25 609.5L699.611 611.056L699.917 613L699.972 614L700 615L700 617L700 623L699 623L697 624L697.778 624.722L698.306 624.75L699.111 624.944L700.028 624.972L702 625L702.944 625L706 625L705.278 624.278L704.75 624.25L703 624L703 618L703 616L703 615L703.111 613L703.722 611.028L705.111 609.417L707 608.806L707.944 608.944L709.5 609.5L711 610L711 623L710 623L708 624L708.778 624.722L709.306 624.75L710.111 624.944L711.028 624.972L712.944 625L713.944 625L716 625L715.278 624.028L714.75 623.833L713 623L713 608L712 607L709.944 607L708.944 607L707 607.028L705.111 607.278L704.306 607.667L703.778 607.861L703 609L701.5 607.861L699.944 607.278L698 607.028L696.028 607.056L695.083 607.139L693.389 607.222L692.611 607.194L690.917 607.278L689.056 607.611L688.056 607.778L687.5 607.917L686 608M1256 617L1254.5 617.75L1253.94 617.833L1252.94 618.167L1251 618.611L1249.06 618.917L1248.5 618.972L1247 619L1247 621L1251 621L1251.25 622.5L1251.61 624.056L1251.92 626L1251.97 627L1252 629L1252 631L1252 639L1252 641L1252 644L1252 659L1253.47 658.639L1254.75 657.722L1255.22 657.389L1256 656L1257.5 657.222L1259.06 658.111L1260 658.5L1262 658.917L1263 658.972L1265 659L1266 659L1268 658.917L1270 658.5L1271 658.056L1271.97 657.5L1272.92 656.75L1274.53 654.972L1275.75 653L1276.22 652L1277.14 650L1277.53 649L1277.92 647L1277.97 646L1278 644L1277.92 642L1277.78 641L1277.58 640L1276.97 638L1276.58 637L1275.5 635L1273.92 633.028L1272.97 632.111L1271 630.694L1270 630.25L1269 629.889L1267 629.417L1266 629.306L1264 629.417L1263 629.639L1262 629.889L1260.06 630.639L1259.06 631.278L1258.5 631.611L1257 633L1257 624L1257 622L1257 621L1256.97 620.028L1256.94 619.111L1256.75 618.306L1256.72 617.778L1256 617M1217 627L1217 649L1220 649L1220 627L1217 627M1262 632.333L1264 632.028L1265 632.028L1266 632.083L1267.92 632.5L1269.58 633.5L1270.28 634.25L1270.92 635.083L1271.92 637L1272.28 638L1272.58 639L1272.92 641L1272.97 642L1273 644L1273 645L1273 646L1272.92 648L1272.75 649L1272.53 650L1272.14 651L1271.14 653L1270.53 654L1268.92 655.889L1267 657.278L1266 657.667L1264 657.944L1263 657.917L1261 657.5L1259.11 656.5L1257.72 654.917L1257.11 653L1257.03 652L1257 650L1257 648L1257 643L1257 641L1257.03 639L1257.33 637L1257.72 636L1258.33 635.028L1259.11 634.111L1261 632.722L1262 632.333M846 684L847.5 684.278L848.056 684.472L849.944 685.167L851.5 685.722L853 686L853 695L857 695L857 686L858.5 685.917L860.056 685.528L862 684.722L863.917 683.528L865.5 681.917L866.528 680L866.833 679L867.361 677L867.611 676L867.833 674L867.722 673L867.167 671L866.361 669L865.917 668L865.361 667.028L863.889 665.333L862.972 664.722L861 664.111L859 664L858.056 664L857.056 664L855 664L854.028 665.5L853.444 667.056L853.083 669L853 671L853 672L853 674L853 683L851.778 682.222L851.417 681.694L850.806 680.889L849.778 679L849.25 678L848.472 676L848.167 674L848.25 673L848.417 672L849.111 670L850.278 668L851 667.056L851.722 666.056L852.222 665.5L853 664L851.5 664L849.944 664.111L848.028 664.639L846.25 665.722L845.5 666.417L844.417 668.083L844.028 669.028L843.417 671L843.083 673L843.028 675L843.25 677L843.472 678L844.25 680L844.75 680.944L845.167 681.944L845.5 682.5L846 684M858 668L859.444 668.25L860.556 668.583L862 669L862.028 670.5L862.222 672.056L862.611 674L862.75 675L862.833 676L862.528 678L862.167 679L861.833 679.944L861.278 681.5L861 683L859.556 683.417L858.444 683.75L857 684L857 675L857 673L857 672L857.028 671.028L857.056 670.111L857.25 669.306L857.278 668.778L858 668M787 675L788.5 675.25L789.972 675.722L791.611 676.556L793.222 677.611L794.083 678.111L796 679.083L797 679.639L798 680.306L799 681.111L801 683L801.972 684L803.694 686L804.917 688L805.361 689L806.194 691L807 693L807.806 695L808.167 696L808.556 697L809.139 699L809.361 700L809.611 701L809.917 703L809.972 704L810 705.944L810 706.944L810 709L794 709L785 709L784 709L780 709L775 709L775 707.5L775.083 705.944L775.472 704L775.861 703L776.25 702L776.75 701L777.611 699L777.972 698L778.667 696L779.028 695L779.389 694L780.25 692L780.75 691L781.611 689L781.972 688L782.667 686L783 685L783.611 683L784.167 681L784.444 680L784.833 679L785.583 677.111L786 676.306L786.194 675.778L787 675M48 709L48 713L94 713L106 713L109 713L111 713L112 712.972L112.944 712.944L113.944 712.75L114.5 712.722L116 712L116 710L115 709L48 709M132 709L132 713L205 713L205 709L132 709M222 709L222 713L304 713L304 709L222 709M321 709L321.25 711L321.278 711.556L322 713L414 713L414 709L321 709M431 709L431 713L494 713L512 713L515 713L517 713L519 712.972L519.944 712.944L520.944 712.75L521.5 712.722L523 712L523 710L522 709L520.5 709L517 709L431 709M539 710L539 712L540 713L580 713L587 713L604 713L624 713L626 713L639 713L639 709L632 709L624 709L608 709L600 709L571 709L551 709L547 709L545 709L543 709.028L542.056 709.056L541.056 709.25L540.5 709.278L539 710M656 709L656 713L664 713L665 713L666 713L670 713L676 713L680 713L686 713L694 713L696 713L699 713L709 713L711 713L712 713L716 713L722 713L727 713L735 713L735 709L719 709L718 709L717 709L699 709L697 709L681 709L673 709L663 709L662 709L657.5 709L656 709M742 727L742 742L726 742L726 746L742 746L742 761L747 761L747 746L751 746L755 746L761 746L761 742L747 742L747 727L743.5 727L742 727M768 734L767.917 736.056L767.611 738L767.389 739L767.083 740.944L767.028 741.944L767 744L768 743.222L768.25 742.694L769.472 741L771.083 739.222L772.028 738.417L773 737.722L775 736.639L777 736.111L778 736.028L779.944 736L780.944 736L783 736L782.472 737.5L782.083 738.056L781.528 739.056L780.833 740L780.139 741L778.694 743L777.389 745L776.806 746L775.528 748L774.778 749L773.194 751L771.639 752.917L770.167 754.611L769.444 755.389L768.194 757.083L767.639 758.028L766.639 759.944L766.111 761.5L766 763L771 763L776 763L777 763L778 763L779 763L782 763L783 763L788 763L788.083 760.944L788.222 759.944L788.611 758L788.917 756.056L789 754L787.611 754.361L786.556 755.333L785.389 757.028L784.694 757.972L783.889 758.889L782 760.361L780 761.278L779 761.583L777 761.917L776 761.972L774.056 762L773.056 762L771 762L771.694 760.75L772.083 760.333L773.306 758.778L774.361 757.028L774.889 755.5L775 754L776.417 753.639L777.583 752.667L778.833 750.972L779.444 750L780.861 748L781.611 747L782.306 746L783.694 744L784.389 743L785.139 742L786.556 740L787.722 738L788.139 737.056L788.722 735.5L789 734L781 734L777 734L772 734L768 734M816 755L814.583 755.111L813.333 755.722L812.611 756.306L810.917 757.806L809 759.278L807 760.333L806 760.583L804 760.278L803 759.75L802 759.111L800.111 757.611L799.306 756.778L798.639 755.917L798.111 754.972L797.417 753L797.083 751L797 749.056L797 747L816 747L815.972 745.5L815.75 743.944L815.528 743L814.75 741L814.222 740L813.75 739.028L812.528 737.222L810.917 735.722L809 734.639L808 734.306L806 734.028L805 734L803 734.083L802 734.25L801 734.472L799 735.278L797.028 736.472L795.333 738.083L794.694 739.028L793.889 741L793.639 742L793.139 744L792.861 745L792.389 747L792.111 749L792.111 750L792.417 752L792.694 753L793.389 755L793.833 756L794.861 757.972L795.472 758.917L797.083 760.583L799 761.889L801 762.694L803 762.972L805 763L807 762.889L808 762.694L810 761.889L810.972 761.278L811.917 760.583L813.583 758.917L814.917 757.056L815.306 756.5L816 755M811 745L797 745L797.278 743.5L797.861 741.944L798.278 741L798.861 740L799.472 739.028L801.083 737.333L803 736.333L804 736.111L806 736.111L807.917 736.722L808.75 737.333L809.5 738.111L810.5 740L810.75 741L810.917 741.944L811 743.5L811 745z"/>
</svg>
