<?xml version="1.0" encoding="UTF-8" standalone="no"?>
<!DOCTYPE svg PUBLIC "-//W3C//DTD SVG 1.1//EN"
 "http://www.w3.org/Graphics/SVG/1.1/DTD/svg11.dtd">
<!-- Generated by graphviz version 8.0.3 (20230416.2022)
 -->
<!-- Pages: 1 -->
<svg width="453pt" height="44pt"
 viewBox="0.00 0.00 453.00 44.00" xmlns="http://www.w3.org/2000/svg" xmlns:xlink="http://www.w3.org/1999/xlink">
<g id="graph0" class="graph" transform="scale(1 1) rotate(0) translate(4 40)">
<polygon fill="white" stroke="none" points="-4,4 -4,-40 449,-40 449,4 -4,4"/>
<!-- 高温炉 (&gt; 银原子) -->
<g id="node1" class="node">
<title>高温炉 (&gt; 银原子)</title>
<polygon fill="none" stroke="black" points="127,-36 0,-36 0,0 127,0 127,-36"/>
<text text-anchor="middle" x="63.5" y="-14.3" font-family="Times,serif" font-size="14.00">高温炉 (&gt; 银原子)</text>
</g>
<!-- 非均匀磁场 -->
<g id="node2" class="node">
<title>非均匀磁场</title>
<polygon fill="none" stroke="black" points="321,-36 233,-36 233,0 321,0 321,-36"/>
<text text-anchor="middle" x="277" y="-14.3" font-family="Times,serif" font-size="14.00">非均匀磁场</text>
</g>
<!-- 高温炉 (&gt; 银原子)&#45;&gt;非均匀磁场 -->
<g id="edge1" class="edge">
<title>高温炉 (&gt; 银原子)&#45;&gt;非均匀磁场</title>
<path fill="none" stroke="black" d="M127.38,-18C157.51,-18 193.22,-18 222.08,-18"/>
<polygon fill="black" stroke="black" points="221.79,-21.5 231.79,-18 221.79,-14.5 221.79,-21.5"/>
<text text-anchor="middle" x="180" y="-21.8" font-family="Times,serif" font-size="14.00">光阑 (准直)</text>
</g>
<!-- 探测屏 -->
<g id="node3" class="node">
<title>探测屏</title>
<polygon fill="none" stroke="black" points="445,-36 386,-36 386,0 445,0 445,-36"/>
<text text-anchor="middle" x="415.5" y="-14.3" font-family="Times,serif" font-size="14.00">探测屏</text>
</g>
<!-- 非均匀磁场&#45;&gt;探测屏 -->
<g id="edge2" class="edge">
<title>非均匀磁场&#45;&gt;探测屏</title>
<path fill="none" stroke="black" d="M321.19,-18C338.49,-18 358.28,-18 375.18,-18"/>
<polygon fill="black" stroke="black" points="374.8,-21.5 384.8,-18 374.8,-14.5 374.8,-21.5"/>
<text text-anchor="middle" x="353.5" y="-21.8" font-family="Times,serif" font-size="14.00">偏转</text>
</g>
</g>
</svg>
