<?xml version="1.0" encoding="UTF-8" standalone="no"?>
<!DOCTYPE svg PUBLIC "-//W3C//DTD SVG 1.1//EN"
 "http://www.w3.org/Graphics/SVG/1.1/DTD/svg11.dtd">
<!-- Generated by graphviz version 8.0.3 (20230416.2022)
 -->
<!-- Pages: 1 -->
<svg width="307pt" height="98pt"
 viewBox="0.00 0.00 307.00 98.00" xmlns="http://www.w3.org/2000/svg" xmlns:xlink="http://www.w3.org/1999/xlink">
<g id="graph0" class="graph" transform="scale(1 1) rotate(0) translate(4 94)">
<polygon fill="white" stroke="none" points="-4,4 -4,-94 303,-94 303,4 -4,4"/>
<!-- 电子源 -->
<g id="node1" class="node">
<title>电子源</title>
<polygon fill="none" stroke="black" points="59,-63 0,-63 0,-27 59,-27 59,-63"/>
<text text-anchor="middle" x="29.5" y="-41.3" font-family="Times,serif" font-size="14.00">电子源</text>
</g>
<!-- 缝1: 探测器 1 -->
<g id="node2" class="node">
<title>缝1: 探测器 1</title>
<polygon fill="none" stroke="black" points="193,-90 95,-90 95,-54 193,-54 193,-90"/>
<text text-anchor="middle" x="144" y="-68.3" font-family="Times,serif" font-size="14.00">缝1: 探测器 1</text>
</g>
<!-- 电子源&#45;&gt;缝1: 探测器 1 -->
<g id="edge1" class="edge">
<title>电子源&#45;&gt;缝1: 探测器 1</title>
<path fill="none" stroke="black" d="M59.47,-51.95C67.15,-53.8 75.73,-55.86 84.39,-57.93"/>
<polygon fill="black" stroke="black" points="83.38,-61.53 93.93,-60.46 85.02,-54.72 83.38,-61.53"/>
</g>
<!-- 缝2: 探测器 2 -->
<g id="node3" class="node">
<title>缝2: 探测器 2</title>
<polygon fill="none" stroke="black" points="193,-36 95,-36 95,0 193,0 193,-36"/>
<text text-anchor="middle" x="144" y="-14.3" font-family="Times,serif" font-size="14.00">缝2: 探测器 2</text>
</g>
<!-- 电子源&#45;&gt;缝2: 探测器 2 -->
<g id="edge2" class="edge">
<title>电子源&#45;&gt;缝2: 探测器 2</title>
<path fill="none" stroke="black" d="M59.47,-38.05C67.15,-36.2 75.73,-34.14 84.39,-32.07"/>
<polygon fill="black" stroke="black" points="85.02,-35.28 93.93,-29.54 83.38,-28.47 85.02,-35.28"/>
</g>
<!-- 显示屏 x -->
<g id="node4" class="node">
<title>显示屏 x</title>
<polygon fill="none" stroke="black" points="299,-63 229,-63 229,-27 299,-27 299,-63"/>
<text text-anchor="middle" x="264" y="-41.3" font-family="Times,serif" font-size="14.00">显示屏 x</text>
</g>
<!-- 缝1: 探测器 1&#45;&gt;显示屏 x -->
<g id="edge3" class="edge">
<title>缝1: 探测器 1&#45;&gt;显示屏 x</title>
<path fill="none" stroke="black" d="M193.34,-60.94C201.47,-59.08 209.89,-57.15 217.94,-55.31"/>
<polygon fill="black" stroke="black" points="218.67,-58.51 227.64,-52.86 217.11,-51.68 218.67,-58.51"/>
</g>
<!-- 缝2: 探测器 2&#45;&gt;显示屏 x -->
<g id="edge4" class="edge">
<title>缝2: 探测器 2&#45;&gt;显示屏 x</title>
<path fill="none" stroke="black" d="M193.34,-29.06C201.47,-30.92 209.89,-32.85 217.94,-34.69"/>
<polygon fill="black" stroke="black" points="217.11,-38.32 227.64,-37.14 218.67,-31.49 217.11,-38.32"/>
</g>
</g>
</svg>
