<?xml version="1.0" encoding="UTF-8" standalone="no"?>
<!DOCTYPE svg PUBLIC "-//W3C//DTD SVG 1.1//EN"
 "http://www.w3.org/Graphics/SVG/1.1/DTD/svg11.dtd">
<!-- Generated by graphviz version 12.2.1 (20241206.2353)
 -->
<!-- Pages: 1 -->
<svg width="332pt" height="206pt"
 viewBox="0.00 0.00 332.00 205.50" xmlns="http://www.w3.org/2000/svg" xmlns:xlink="http://www.w3.org/1999/xlink">
<g id="graph0" class="graph" transform="scale(1 1) rotate(0) translate(4 201.5)">
<!-- n1 -->
<g id="node1" class="node">
<title>n1</title>
<polygon fill="none" stroke="black" points="0,-121.5 0,-169 54,-169 54,-121.5 0,-121.5"/>
<text text-anchor="middle" x="27" y="-151.7" font-family="Arial" font-size="14.00">car</text>
<polyline fill="none" stroke="black" points="0,-145.25 54,-145.25"/>
<text text-anchor="middle" x="27" y="-127.95" font-family="Arial" font-size="14.00">cdr</text>
</g>
<!-- n2 -->
<g id="node2" class="node">
<title>n2</title>
<polygon fill="none" stroke="black" points="90,-71.5 90,-119 144,-119 144,-71.5 90,-71.5"/>
<text text-anchor="middle" x="117" y="-101.7" font-family="Arial" font-size="14.00">car</text>
<polyline fill="none" stroke="black" points="90,-95.25 144,-95.25"/>
<text text-anchor="middle" x="117" y="-77.95" font-family="Arial" font-size="14.00">cdr</text>
</g>
<!-- n1&#45;&gt;n2 -->
<g id="edge1" class="edge">
<title>n1:cdr&#45;&gt;n2:car</title>
<path fill="none" stroke="black" d="M54,-133.38C69.16,-133.38 70.6,-117.99 79.33,-110.77"/>
<polygon fill="black" stroke="black" points="80.24,-114.16 88.57,-107.61 77.97,-107.54 80.24,-114.16"/>
</g>
<!-- n11 -->
<g id="node4" class="node">
<title>n11</title>
<polygon fill="none" stroke="black" points="90,-149.5 90,-197 144,-197 144,-149.5 90,-149.5"/>
<text text-anchor="middle" x="117" y="-179.7" font-family="Arial" font-size="14.00">car</text>
<polyline fill="none" stroke="black" points="90,-173.25 144,-173.25"/>
<text text-anchor="middle" x="117" y="-155.95" font-family="Arial" font-size="14.00">cdr</text>
</g>
<!-- n1&#45;&gt;n11 -->
<g id="edge3" class="edge">
<title>n1:car&#45;&gt;n11:car</title>
<path fill="none" stroke="black" d="M54,-157.12C69.52,-157.12 70.5,-173.54 79.2,-181.23"/>
<polygon fill="black" stroke="black" points="77.98,-184.51 88.58,-184.61 80.36,-177.93 77.98,-184.51"/>
</g>
<!-- n3 -->
<g id="node3" class="node">
<title>n3</title>
<polygon fill="none" stroke="black" points="180,-0.5 180,-48 234,-48 234,-0.5 180,-0.5"/>
<text text-anchor="middle" x="207" y="-30.7" font-family="Arial" font-size="14.00">car</text>
<polyline fill="none" stroke="black" points="180,-24.25 234,-24.25"/>
<text text-anchor="middle" x="207" y="-6.95" font-family="Arial" font-size="14.00">cdr</text>
</g>
<!-- n2&#45;&gt;n3 -->
<g id="edge2" class="edge">
<title>n2:cdr&#45;&gt;n3:car</title>
<path fill="none" stroke="black" d="M144,-83.38C165.66,-83.38 158.24,-51.58 169.45,-40.15"/>
<polygon fill="black" stroke="black" points="170.49,-43.5 178.59,-36.67 168,-36.96 170.49,-43.5"/>
</g>
<!-- n21 -->
<g id="node6" class="node">
<title>n21</title>
<polygon fill="none" stroke="black" points="180,-71.5 180,-119 234,-119 234,-71.5 180,-71.5"/>
<text text-anchor="middle" x="207" y="-101.7" font-family="Arial" font-size="14.00">car</text>
<polyline fill="none" stroke="black" points="180,-95.25 234,-95.25"/>
<text text-anchor="middle" x="207" y="-77.95" font-family="Arial" font-size="14.00">cdr</text>
</g>
<!-- n2&#45;&gt;n21 -->
<g id="edge5" class="edge">
<title>n2:car&#45;&gt;n21:car</title>
<path fill="none" stroke="black" d="M144,-107.12C155.38,-107.12 160.68,-107.12 168.55,-107.12"/>
<polygon fill="black" stroke="black" points="168.49,-110.63 178.49,-107.13 168.49,-103.63 168.49,-110.63"/>
</g>
<!-- more -->
<g id="node8" class="node">
<title>more</title>
<text text-anchor="middle" x="297" y="-21.82" font-family="Arial" font-size="14.00">...</text>
</g>
<!-- n3&#45;&gt;more -->
<g id="edge7" class="edge">
<title>n3:car&#45;&gt;more</title>
<path fill="none" stroke="black" d="M234,-36.12C249.97,-36.12 268.02,-33.2 280.51,-30.71"/>
<polygon fill="black" stroke="black" points="281,-34.19 290.04,-28.66 279.53,-27.35 281,-34.19"/>
</g>
<!-- n12 -->
<g id="node5" class="node">
<title>n12</title>
<polygon fill="none" stroke="black" points="180,-138.5 180,-186 234,-186 234,-138.5 180,-138.5"/>
<text text-anchor="middle" x="207" y="-168.7" font-family="Arial" font-size="14.00">car</text>
<polyline fill="none" stroke="black" points="180,-162.25 234,-162.25"/>
<text text-anchor="middle" x="207" y="-144.95" font-family="Arial" font-size="14.00">cdr</text>
</g>
<!-- n11&#45;&gt;n12 -->
<g id="edge4" class="edge">
<title>n11:cdr&#45;&gt;n12:car</title>
<path fill="none" stroke="black" d="M144,-161.38C156.33,-161.38 160.79,-168.11 168.81,-171.79"/>
<polygon fill="black" stroke="black" points="168.01,-175.19 178.52,-173.82 169.45,-168.34 168.01,-175.19"/>
</g>
<!-- n22 -->
<g id="node7" class="node">
<title>n22</title>
<polygon fill="none" stroke="black" points="270,-53.5 270,-101 324,-101 324,-53.5 270,-53.5"/>
<text text-anchor="middle" x="297" y="-83.7" font-family="Arial" font-size="14.00">car</text>
<polyline fill="none" stroke="black" points="270,-77.25 324,-77.25"/>
<text text-anchor="middle" x="297" y="-59.95" font-family="Arial" font-size="14.00">cdr</text>
</g>
<!-- n21&#45;&gt;n22 -->
<g id="edge6" class="edge">
<title>n21:cdr&#45;&gt;n22:car</title>
<path fill="none" stroke="black" d="M234,-83.38C245.65,-83.38 250.78,-86.35 258.76,-88.02"/>
<polygon fill="black" stroke="black" points="258.2,-91.48 268.49,-88.98 258.89,-84.51 258.2,-91.48"/>
</g>
</g>
</svg>
