<?xml version="1.0" encoding="UTF-8" standalone="no"?>
<!DOCTYPE svg PUBLIC "-//W3C//DTD SVG 1.1//EN"
 "http://www.w3.org/Graphics/SVG/1.1/DTD/svg11.dtd">
<!-- Generated by graphviz version 12.2.1 (20241206.2353)
 -->
<!-- Pages: 1 -->
<svg width="278pt" height="106pt"
 viewBox="0.00 0.00 278.00 105.50" xmlns="http://www.w3.org/2000/svg" xmlns:xlink="http://www.w3.org/1999/xlink">
<g id="graph0" class="graph" transform="scale(1 1) rotate(0) translate(4 101.5)">
<!-- n1 -->
<g id="node1" class="node">
<title>n1</title>
<polygon fill="none" stroke="black" points="0,-27.5 0,-75 54,-75 54,-27.5 0,-27.5"/>
<text text-anchor="middle" x="27" y="-57.7" font-family="Arial" font-size="14.00">car</text>
<polyline fill="none" stroke="black" points="0,-51.25 54,-51.25"/>
<text text-anchor="middle" x="27" y="-33.95" font-family="Arial" font-size="14.00">cdr</text>
</g>
<!-- n2 -->
<g id="node2" class="node">
<title>n2</title>
<polygon fill="none" stroke="black" points="108,-49.5 108,-97 162,-97 162,-49.5 108,-49.5"/>
<text text-anchor="middle" x="135" y="-79.7" font-family="Arial" font-size="14.00">car</text>
<polyline fill="none" stroke="black" points="108,-73.25 162,-73.25"/>
<text text-anchor="middle" x="135" y="-55.95" font-family="Arial" font-size="14.00">cdr</text>
</g>
<!-- n1&#45;&gt;n2 -->
<g id="edge1" class="edge">
<title>n1:cdr&#45;&gt;n2:car</title>
<path fill="none" stroke="black" stroke-dasharray="5,2" d="M54,-39.38C81.03,-39.38 78.25,-73.16 96.9,-82.67"/>
<polygon fill="black" stroke="black" points="96,-86.05 106.52,-84.8 97.52,-79.22 96,-86.05"/>
<text text-anchor="middle" x="81" y="-78.82" font-family="Arial" font-size="14.00">old</text>
</g>
<!-- n3 -->
<g id="node3" class="node">
<title>n3</title>
<polygon fill="none" stroke="black" points="216,-0.5 216,-48 270,-48 270,-0.5 216,-0.5"/>
<text text-anchor="middle" x="243" y="-30.7" font-family="Arial" font-size="14.00">car</text>
<polyline fill="none" stroke="black" points="216,-24.25 270,-24.25"/>
<text text-anchor="middle" x="243" y="-6.95" font-family="Arial" font-size="14.00">cdr</text>
</g>
<!-- n1&#45;&gt;n3 -->
<g id="edge3" class="edge">
<title>n1:cdr&#45;&gt;n3:car</title>
<path fill="none" stroke="black" d="M54,-39.38C78.89,-39.38 83.33,-27.84 108,-24.5 131.78,-21.28 138.13,-21.96 162,-24.5 182.22,-26.65 189.15,-33.21 204.87,-35.4"/>
<polygon fill="black" stroke="black" points="204.28,-38.87 214.49,-36.03 204.74,-31.89 204.28,-38.87"/>
<text text-anchor="middle" x="135" y="-26.95" font-family="Arial" font-size="14.00">new</text>
</g>
<!-- n2&#45;&gt;n3 -->
<g id="edge2" class="edge">
<title>n2:cdr&#45;&gt;n3:car</title>
<path fill="none" stroke="black" stroke-dasharray="5,2" d="M162,-61.38C184.15,-61.38 188.49,-43.73 204.79,-37.94"/>
<polygon fill="black" stroke="black" points="205.19,-41.42 214.51,-36.37 204.07,-34.51 205.19,-41.42"/>
<text text-anchor="middle" x="189" y="-58.37" font-family="Arial" font-size="14.00">old</text>
</g>
</g>
</svg>
