<?xml version="1.0" encoding="UTF-8" standalone="no"?>
<!DOCTYPE svg PUBLIC "-//W3C//DTD SVG 1.1//EN"
 "http://www.w3.org/Graphics/SVG/1.1/DTD/svg11.dtd">
<!-- Generated by graphviz version 12.2.1 (20241206.2353)
 -->
<!-- Pages: 1 -->
<svg width="242pt" height="103pt"
 viewBox="0.00 0.00 242.00 102.50" xmlns="http://www.w3.org/2000/svg" xmlns:xlink="http://www.w3.org/1999/xlink">
<g id="graph0" class="graph" transform="scale(1 1) rotate(0) translate(4 98.5)">
<!-- n1 -->
<g id="node1" class="node">
<title>n1</title>
<polygon fill="none" stroke="black" points="0,-46.5 0,-94 54,-94 54,-46.5 0,-46.5"/>
<text text-anchor="middle" x="27" y="-76.7" font-family="Arial" font-size="14.00">car</text>
<polyline fill="none" stroke="black" points="0,-70.25 54,-70.25"/>
<text text-anchor="middle" x="27" y="-52.95" font-family="Arial" font-size="14.00">cdr</text>
</g>
<!-- n2 -->
<g id="node2" class="node">
<title>n2</title>
<polygon fill="none" stroke="black" points="90,-23.5 90,-71 144,-71 144,-23.5 90,-23.5"/>
<text text-anchor="middle" x="117" y="-53.7" font-family="Arial" font-size="14.00">car</text>
<polyline fill="none" stroke="black" points="90,-47.25 144,-47.25"/>
<text text-anchor="middle" x="117" y="-29.95" font-family="Arial" font-size="14.00">cdr</text>
</g>
<!-- n1&#45;&gt;n2 -->
<g id="edge1" class="edge">
<title>n1:cdr&#45;&gt;n2:car</title>
<path fill="none" stroke="black" d="M65.45,-58.53C70.12,-58.66 73.89,-58.84 78.56,-58.97"/>
<polygon fill="black" stroke="black" points="65.56,-55.03 55.51,-58.4 65.47,-62.03 65.56,-55.03"/>
<polygon fill="black" stroke="black" points="78.44,-62.47 88.49,-59.1 78.53,-55.47 78.44,-62.47"/>
</g>
<!-- n3 -->
<g id="node3" class="node">
<title>n3</title>
<polygon fill="none" stroke="black" points="180,-0.5 180,-48 234,-48 234,-0.5 180,-0.5"/>
<text text-anchor="middle" x="207" y="-30.7" font-family="Arial" font-size="14.00">car</text>
<polyline fill="none" stroke="black" points="180,-24.25 234,-24.25"/>
<text text-anchor="middle" x="207" y="-6.95" font-family="Arial" font-size="14.00">cdr</text>
</g>
<!-- n2&#45;&gt;n3 -->
<g id="edge2" class="edge">
<title>n2:cdr&#45;&gt;n3:car</title>
<path fill="none" stroke="black" d="M155.45,-35.53C160.12,-35.66 163.89,-35.84 168.56,-35.97"/>
<polygon fill="black" stroke="black" points="155.56,-32.03 145.51,-35.4 155.47,-39.03 155.56,-32.03"/>
<polygon fill="black" stroke="black" points="168.44,-39.47 178.49,-36.1 168.53,-32.47 168.44,-39.47"/>
</g>
</g>
</svg>
