<?xml version="1.0" encoding="UTF-8" standalone="no"?>
<!DOCTYPE svg PUBLIC "-//W3C//DTD SVG 1.1//EN"
 "http://www.w3.org/Graphics/SVG/1.1/DTD/svg11.dtd">
<!-- Generated by graphviz version 12.2.1 (20241206.2353)
 -->
<!-- Pages: 1 -->
<svg width="502pt" height="147pt"
 viewBox="0.00 0.00 501.75 146.90" xmlns="http://www.w3.org/2000/svg" xmlns:xlink="http://www.w3.org/1999/xlink">
<g id="graph0" class="graph" transform="scale(1 1) rotate(0) translate(4 142.9)">
<!-- n11 -->
<g id="node1" class="node">
<title>n11</title>
<polygon fill="none" stroke="black" points="0,-70.5 0,-118 54,-118 54,-70.5 0,-70.5"/>
<text text-anchor="middle" x="27" y="-100.7" font-family="Arial" font-size="14.00">car</text>
<polyline fill="none" stroke="black" points="0,-94.25 54,-94.25"/>
<text text-anchor="middle" x="27" y="-76.95" font-family="Arial" font-size="14.00">cdr</text>
</g>
<!-- n12 -->
<g id="node2" class="node">
<title>n12</title>
<polygon fill="none" stroke="black" points="130.5,-22.5 130.5,-70 184.5,-70 184.5,-22.5 130.5,-22.5"/>
<text text-anchor="middle" x="157.5" y="-52.7" font-family="Arial" font-size="14.00">car</text>
<polyline fill="none" stroke="black" points="130.5,-46.25 184.5,-46.25"/>
<text text-anchor="middle" x="157.5" y="-28.95" font-family="Arial" font-size="14.00">cdr</text>
</g>
<!-- n11&#45;&gt;n12 -->
<g id="edge1" class="edge">
<title>n11:cdr&#45;&gt;n12:car</title>
<path fill="none" stroke="black" d="M54,-82.38C85.49,-82.38 93.2,-63.48 119.12,-59.05"/>
<polygon fill="black" stroke="black" points="119.31,-62.54 128.99,-58.25 118.74,-55.57 119.31,-62.54"/>
</g>
<!-- n21 -->
<g id="node4" class="node">
<title>n21</title>
<polygon fill="none" stroke="black" points="130.5,-89.5 130.5,-137 184.5,-137 184.5,-89.5 130.5,-89.5"/>
<text text-anchor="middle" x="157.5" y="-119.7" font-family="Arial" font-size="14.00">car</text>
<polyline fill="none" stroke="black" points="130.5,-113.25 184.5,-113.25"/>
<text text-anchor="middle" x="157.5" y="-95.95" font-family="Arial" font-size="14.00">cdr</text>
</g>
<!-- n11&#45;&gt;n21 -->
<g id="edge7" class="edge">
<title>n11:car&#45;&gt;n21:car</title>
<path fill="none" stroke="black" stroke-dasharray="5,2" d="M65.23,-106.85C87.52,-109.86 96.98,-121.39 119.26,-124.4"/>
<polygon fill="black" stroke="black" points="65.71,-103.37 55.51,-106.22 65.27,-110.36 65.71,-103.37"/>
<polygon fill="black" stroke="black" points="118.79,-127.88 128.99,-125.03 119.23,-120.89 118.79,-127.88"/>
<text text-anchor="middle" x="92.25" y="-125.6" font-family="Arial" font-size="14.00">equalp</text>
</g>
<!-- n13 -->
<g id="node3" class="node">
<title>n13</title>
<polygon fill="none" stroke="black" points="261,-0.5 261,-48 315,-48 315,-0.5 261,-0.5"/>
<text text-anchor="middle" x="288" y="-30.7" font-family="Arial" font-size="14.00">car</text>
<polyline fill="none" stroke="black" points="261,-24.25 315,-24.25"/>
<text text-anchor="middle" x="288" y="-6.95" font-family="Arial" font-size="14.00">cdr</text>
</g>
<!-- n12&#45;&gt;n13 -->
<g id="edge2" class="edge">
<title>n12:cdr&#45;&gt;n13:car</title>
<path fill="none" stroke="black" d="M184.5,-34.38C214.39,-34.38 224.56,-35.73 249.68,-36.05"/>
<polygon fill="black" stroke="black" points="249.46,-39.55 259.49,-36.12 249.51,-32.55 249.46,-39.55"/>
</g>
<!-- n22 -->
<g id="node5" class="node">
<title>n22</title>
<polygon fill="none" stroke="black" points="261,-67.5 261,-115 315,-115 315,-67.5 261,-67.5"/>
<text text-anchor="middle" x="288" y="-97.7" font-family="Arial" font-size="14.00">car</text>
<polyline fill="none" stroke="black" points="261,-91.25 315,-91.25"/>
<text text-anchor="middle" x="288" y="-73.95" font-family="Arial" font-size="14.00">cdr</text>
</g>
<!-- n12&#45;&gt;n22 -->
<g id="edge8" class="edge">
<title>n12:car&#45;&gt;n22:car</title>
<path fill="none" stroke="black" stroke-dasharray="5,2" d="M195.75,-58.59C215.16,-60.39 223.71,-67.48 243,-81.5 248.69,-85.63 249.72,-91.96 251.75,-96.7"/>
<polygon fill="black" stroke="black" points="196.15,-55.1 186.01,-58.19 195.86,-62.1 196.15,-55.1"/>
<polygon fill="black" stroke="black" points="249.55,-99.43 259.76,-102.26 253.54,-93.68 249.55,-99.43"/>
<text text-anchor="middle" x="222.75" y="-83.95" font-family="Arial" font-size="14.00">equalp</text>
</g>
<!-- n23 -->
<g id="node6" class="node">
<title>n23</title>
<polygon fill="none" stroke="black" points="391.5,-41.5 391.5,-89 445.5,-89 445.5,-41.5 391.5,-41.5"/>
<text text-anchor="middle" x="418.5" y="-71.7" font-family="Arial" font-size="14.00">car</text>
<polyline fill="none" stroke="black" points="391.5,-65.25 445.5,-65.25"/>
<text text-anchor="middle" x="418.5" y="-47.95" font-family="Arial" font-size="14.00">cdr</text>
</g>
<!-- n13&#45;&gt;n23 -->
<g id="edge9" class="edge">
<title>n13:car&#45;&gt;n23:car</title>
<path fill="none" stroke="black" stroke-dasharray="5,2" d="M326.39,-36.55C345.41,-38.17 354,-44.46 373.5,-57.5 378.73,-61 380.14,-66.32 382.09,-70.54"/>
<polygon fill="black" stroke="black" points="326.64,-33.06 316.51,-36.18 326.37,-40.06 326.64,-33.06"/>
<polygon fill="black" stroke="black" points="380.06,-73.39 390.26,-76.26 384.08,-67.65 380.06,-73.39"/>
<text text-anchor="middle" x="353.25" y="-59.95" font-family="Arial" font-size="14.00">equalp</text>
</g>
<!-- more1 -->
<g id="node7" class="node">
<title>more1</title>
<text text-anchor="middle" x="418.5" y="-7.83" font-family="Arial" font-size="14.00">...</text>
</g>
<!-- n13&#45;&gt;more1 -->
<g id="edge3" class="edge">
<title>n13:cdr&#45;&gt;more1</title>
<path fill="none" stroke="black" d="M315,-12.38C345.79,-12.38 381.79,-12.77 401.89,-13.03"/>
<polygon fill="black" stroke="black" points="401.64,-16.53 411.69,-13.17 401.74,-9.53 401.64,-16.53"/>
</g>
<!-- n21&#45;&gt;n22 -->
<g id="edge4" class="edge">
<title>n21:cdr&#45;&gt;n22:car</title>
<path fill="none" stroke="black" d="M184.5,-101.38C214.39,-101.38 224.56,-102.73 249.68,-103.05"/>
<polygon fill="black" stroke="black" points="249.46,-106.55 259.49,-103.12 249.51,-99.55 249.46,-106.55"/>
</g>
<!-- n22&#45;&gt;n23 -->
<g id="edge5" class="edge">
<title>n22:cdr&#45;&gt;n23:car</title>
<path fill="none" stroke="black" d="M315,-79.38C344.9,-79.38 355.06,-77.64 380.18,-77.22"/>
<polygon fill="black" stroke="black" points="380.01,-80.72 389.99,-77.14 379.96,-73.72 380.01,-80.72"/>
</g>
<!-- more2 -->
<g id="node8" class="node">
<title>more2</title>
<text text-anchor="middle" x="488.12" y="-48.83" font-family="Arial" font-size="14.00">...</text>
</g>
<!-- n23&#45;&gt;more2 -->
<g id="edge6" class="edge">
<title>n23:cdr&#45;&gt;more2</title>
<path fill="none" stroke="black" d="M445.5,-53.38C454.1,-53.38 463.7,-53.56 471.51,-53.77"/>
<polygon fill="black" stroke="black" points="471.14,-57.26 481.24,-54.05 471.35,-50.26 471.14,-57.26"/>
</g>
</g>
</svg>
