<?xml version="1.0" encoding="UTF-8" standalone="no"?>
<!DOCTYPE svg PUBLIC "-//W3C//DTD SVG 1.1//EN"
 "http://www.w3.org/Graphics/SVG/1.1/DTD/svg11.dtd">
<!-- Generated by graphviz version 12.2.1 (20241206.2353)
 -->
<!-- Pages: 1 -->
<svg width="304pt" height="103pt"
 viewBox="0.00 0.00 303.50 102.56" xmlns="http://www.w3.org/2000/svg" xmlns:xlink="http://www.w3.org/1999/xlink">
<g id="graph0" class="graph" transform="scale(1 1) rotate(0) translate(4 98.56)">
<!-- n1 -->
<g id="node1" class="node">
<title>n1</title>
<polygon fill="none" stroke="black" points="0,-44.5 0,-92 54,-92 54,-44.5 0,-44.5"/>
<text text-anchor="middle" x="27" y="-74.7" font-family="Arial" font-size="14.00">car</text>
<polyline fill="none" stroke="black" points="0,-68.25 54,-68.25"/>
<text text-anchor="middle" x="27" y="-50.95" font-family="Arial" font-size="14.00">cdr</text>
</g>
<!-- n2 -->
<g id="node2" class="node">
<title>n2</title>
<polygon fill="none" stroke="black" points="120.75,-22.5 120.75,-70 174.75,-70 174.75,-22.5 120.75,-22.5"/>
<text text-anchor="middle" x="147.75" y="-52.7" font-family="Arial" font-size="14.00">car</text>
<polyline fill="none" stroke="black" points="120.75,-46.25 174.75,-46.25"/>
<text text-anchor="middle" x="147.75" y="-28.95" font-family="Arial" font-size="14.00">cdr</text>
</g>
<!-- n1&#45;&gt;n2 -->
<g id="edge1" class="edge">
<title>n1:car&#45;&gt;n2:car</title>
<path fill="none" stroke="black" stroke-dasharray="5,2" d="M54,-80.12C76.3,-80.12 82,-76.43 102.75,-68.25 106.49,-66.78 108.64,-64.65 110.65,-62.73"/>
<polygon fill="black" stroke="black" points="111.73,-66.09 119.37,-58.75 108.82,-59.72 111.73,-66.09"/>
<text text-anchor="middle" x="87.38" y="-81.26" font-family="Arial" font-size="14.00">n = 1</text>
</g>
<!-- n1&#45;&gt;n2 -->
<g id="edge3" class="edge">
<title>n1:cdr&#45;&gt;n2:car</title>
<path fill="none" stroke="black" d="M54,-56.38C79.5,-56.38 88.55,-57.67 109.43,-58.03"/>
<polygon fill="black" stroke="black" points="109.21,-61.53 119.24,-58.11 109.27,-54.53 109.21,-61.53"/>
</g>
<!-- n3 -->
<g id="node3" class="node">
<title>n3</title>
<polygon fill="none" stroke="black" points="241.5,-0.5 241.5,-48 295.5,-48 295.5,-0.5 241.5,-0.5"/>
<text text-anchor="middle" x="268.5" y="-30.7" font-family="Arial" font-size="14.00">car</text>
<polyline fill="none" stroke="black" points="241.5,-24.25 295.5,-24.25"/>
<text text-anchor="middle" x="268.5" y="-6.95" font-family="Arial" font-size="14.00">cdr</text>
</g>
<!-- n2&#45;&gt;n3 -->
<g id="edge2" class="edge">
<title>n2:car&#45;&gt;n3:car</title>
<path fill="none" stroke="black" stroke-dasharray="5,2" d="M174.75,-58.12C197.05,-58.12 202.75,-54.43 223.5,-46.25 227.24,-44.78 229.39,-42.65 231.4,-40.73"/>
<polygon fill="black" stroke="black" points="232.48,-44.09 240.12,-36.75 229.57,-37.72 232.48,-44.09"/>
<text text-anchor="middle" x="208.12" y="-59.26" font-family="Arial" font-size="14.00">n = 2</text>
</g>
<!-- n2&#45;&gt;n3 -->
<g id="edge4" class="edge">
<title>n2:cdr&#45;&gt;n3:car</title>
<path fill="none" stroke="black" d="M174.75,-34.38C200.25,-34.38 209.3,-35.67 230.18,-36.03"/>
<polygon fill="black" stroke="black" points="229.96,-39.53 239.99,-36.11 230.02,-32.53 229.96,-39.53"/>
</g>
</g>
</svg>
