<?xml version="1.0" encoding="UTF-8" standalone="no"?>
<!DOCTYPE svg PUBLIC "-//W3C//DTD SVG 1.1//EN"
 "http://www.w3.org/Graphics/SVG/1.1/DTD/svg11.dtd">
<!-- Generated by graphviz version 12.2.1 (20241206.2353)
 -->
<!-- Pages: 1 -->
<svg width="242pt" height="89pt"
 viewBox="0.00 0.00 242.00 88.50" xmlns="http://www.w3.org/2000/svg" xmlns:xlink="http://www.w3.org/1999/xlink">
<g id="graph0" class="graph" transform="scale(1 1) rotate(0) translate(4 84.5)">
<!-- n1 -->
<g id="node1" class="node">
<title>n1</title>
<polygon fill="none" stroke="black" points="0,-32.5 0,-80 54,-80 54,-32.5 0,-32.5"/>
<text text-anchor="middle" x="27" y="-62.7" font-family="Arial" font-size="14.00">car</text>
<polyline fill="none" stroke="black" points="0,-56.25 54,-56.25"/>
<text text-anchor="middle" x="27" y="-38.95" font-family="Arial" font-size="14.00">cdr</text>
</g>
<!-- n2 -->
<g id="node2" class="node">
<title>n2</title>
<polygon fill="none" stroke="black" points="90,-0.5 90,-48 144,-48 144,-0.5 90,-0.5"/>
<text text-anchor="middle" x="117" y="-30.7" font-family="Arial" font-size="14.00">car</text>
<polyline fill="none" stroke="black" points="90,-24.25 144,-24.25"/>
<text text-anchor="middle" x="117" y="-6.95" font-family="Arial" font-size="14.00">cdr</text>
</g>
<!-- n1&#45;&gt;n2 -->
<g id="edge3" class="edge">
<title>n1:cdr&#45;&gt;n2:car</title>
<path fill="none" stroke="black" d="M54,-44.38C65.8,-44.38 70.75,-40.11 78.7,-37.72"/>
<polygon fill="black" stroke="black" points="79.09,-41.2 88.5,-36.34 78.11,-34.26 79.09,-41.2"/>
</g>
<!-- n3 -->
<g id="node3" class="node">
<title>n3</title>
<polygon fill="none" stroke="black" points="180,-20.5 180,-68 234,-68 234,-20.5 180,-20.5"/>
<text text-anchor="middle" x="207" y="-50.7" font-family="Arial" font-size="14.00">car</text>
<polyline fill="none" stroke="black" points="180,-44.25 234,-44.25"/>
<text text-anchor="middle" x="207" y="-26.95" font-family="Arial" font-size="14.00">cdr</text>
</g>
<!-- n2&#45;&gt;n3 -->
<g id="edge2" class="edge">
<title>n2:cdr&#45;&gt;n3:car</title>
<path fill="none" stroke="black" d="M144,-12.38C164.46,-12.38 158.81,-41.26 169.48,-52.09"/>
<polygon fill="black" stroke="black" points="168,-55.27 178.59,-55.58 170.51,-48.73 168,-55.27"/>
</g>
<!-- n3&#45;&gt;n1 -->
<g id="edge1" class="edge">
<title>n3:cdr&#45;&gt;n1:car</title>
<path fill="none" stroke="black" d="M180,-32.38C160.55,-32.38 162.18,-50.35 144,-57.25 110.15,-70.08 97,-68.64 65.46,-68.21"/>
<polygon fill="black" stroke="black" points="65.54,-64.71 55.51,-68.14 65.49,-71.71 65.54,-64.71"/>
</g>
</g>
</svg>
