<?xml version="1.0" encoding="UTF-8" standalone="no"?>
<!DOCTYPE svg PUBLIC "-//W3C//DTD SVG 1.1//EN"
 "http://www.w3.org/Graphics/SVG/1.1/DTD/svg11.dtd">
<!-- Generated by graphviz version 12.2.1 (20241206.2353)
 -->
<!-- Pages: 1 -->
<svg width="292pt" height="124pt"
 viewBox="0.00 0.00 291.50 123.50" xmlns="http://www.w3.org/2000/svg" xmlns:xlink="http://www.w3.org/1999/xlink">
<g id="graph0" class="graph" transform="scale(1 1) rotate(0) translate(4 119.5)">
<!-- n1 -->
<g id="node1" class="node">
<title>n1</title>
<polygon fill="none" stroke="black" points="0,-59.5 0,-107 54,-107 54,-59.5 0,-59.5"/>
<text text-anchor="middle" x="27" y="-89.7" font-family="Arial" font-size="14.00">car</text>
<polyline fill="none" stroke="black" points="0,-83.25 54,-83.25"/>
<text text-anchor="middle" x="27" y="-65.95" font-family="Arial" font-size="14.00">cdr</text>
</g>
<!-- n21 -->
<g id="node2" class="node">
<title>n21</title>
<polygon fill="none" stroke="black" points="114.75,-67.5 114.75,-115 168.75,-115 168.75,-67.5 114.75,-67.5"/>
<text text-anchor="middle" x="141.75" y="-97.7" font-family="Arial" font-size="14.00">car</text>
<polyline fill="none" stroke="black" points="114.75,-91.25 168.75,-91.25"/>
<text text-anchor="middle" x="141.75" y="-73.95" font-family="Arial" font-size="14.00">cdr</text>
</g>
<!-- n1&#45;&gt;n21 -->
<g id="edge1" class="edge">
<title>n1:cdr&#45;&gt;n21:car</title>
<path fill="none" stroke="black" stroke-dasharray="5,2" d="M54,-71.38C80.18,-71.38 83.73,-94.82 103.55,-101.42"/>
<polygon fill="black" stroke="black" points="102.84,-104.85 113.25,-102.9 103.89,-97.93 102.84,-104.85"/>
<text text-anchor="middle" x="84.38" y="-100.25" font-family="Arial" font-size="14.00">old</text>
</g>
<!-- n22 -->
<g id="node3" class="node">
<title>n22</title>
<polygon fill="none" stroke="black" points="114.75,-0.5 114.75,-48 168.75,-48 168.75,-0.5 114.75,-0.5"/>
<text text-anchor="middle" x="141.75" y="-30.7" font-family="Arial" font-size="14.00">car</text>
<polyline fill="none" stroke="black" points="114.75,-24.25 168.75,-24.25"/>
<text text-anchor="middle" x="141.75" y="-6.95" font-family="Arial" font-size="14.00">cdr</text>
</g>
<!-- n1&#45;&gt;n22 -->
<g id="edge3" class="edge">
<title>n1:cdr&#45;&gt;n22:car</title>
<path fill="none" stroke="black" d="M54,-71.38C64.38,-71.38 63.25,-62.08 72,-56.5 86,-47.57 91.42,-40.05 103.42,-37.27"/>
<polygon fill="black" stroke="black" points="103.65,-40.77 113.24,-36.28 102.94,-33.8 103.65,-40.77"/>
<text text-anchor="middle" x="84.38" y="-58.95" font-family="Arial" font-size="14.00">new</text>
</g>
<!-- n3 -->
<g id="node4" class="node">
<title>n3</title>
<polygon fill="none" stroke="black" points="229.5,-11.5 229.5,-59 283.5,-59 283.5,-11.5 229.5,-11.5"/>
<text text-anchor="middle" x="256.5" y="-41.7" font-family="Arial" font-size="14.00">car</text>
<polyline fill="none" stroke="black" points="229.5,-35.25 283.5,-35.25"/>
<text text-anchor="middle" x="256.5" y="-17.95" font-family="Arial" font-size="14.00">cdr</text>
</g>
<!-- n21&#45;&gt;n3 -->
<g id="edge2" class="edge">
<title>n21:cdr&#45;&gt;n3:car</title>
<path fill="none" stroke="black" stroke-dasharray="5,2" d="M168.75,-79.38C195.02,-79.38 198.43,-55.56 218.27,-48.86"/>
<polygon fill="black" stroke="black" points="218.66,-52.34 228,-47.36 217.59,-45.42 218.66,-52.34"/>
<text text-anchor="middle" x="199.12" y="-76.42" font-family="Arial" font-size="14.00">old</text>
</g>
<!-- n22&#45;&gt;n3 -->
<g id="edge4" class="edge">
<title>n22:cdr&#45;&gt;n3:car</title>
<path fill="none" stroke="black" d="M168.75,-12.38C190.35,-12.38 192.91,-24.49 211.5,-35.5 215.09,-37.62 217.16,-40.11 219.15,-42.24"/>
<polygon fill="black" stroke="black" points="217.59,-45.38 228.13,-46.48 220.58,-39.05 217.59,-45.38"/>
<text text-anchor="middle" x="199.12" y="-37.95" font-family="Arial" font-size="14.00">new</text>
</g>
</g>
</svg>
