<?xml version="1.0" encoding="UTF-8" standalone="no"?>
<!DOCTYPE svg PUBLIC "-//W3C//DTD SVG 1.1//EN"
 "http://www.w3.org/Graphics/SVG/1.1/DTD/svg11.dtd">
<!-- Generated by graphviz version 9.0.0 (20230911.1827)
 -->
<!-- Pages: 1 -->
<svg width="572pt" height="358pt"
 viewBox="0.00 0.00 572.00 358.38" xmlns="http://www.w3.org/2000/svg" xmlns:xlink="http://www.w3.org/1999/xlink">
<g id="graph0" class="graph" transform="scale(1 1) rotate(0) translate(4 354.38)">
<polygon fill="white" stroke="none" points="-4,4 -4,-354.38 568,-354.38 568,4 -4,4"/>
<!-- ast&#45;ans1792 -->
<g id="node1" class="node">
<title>ast&#45;ans1792</title>
<polygon fill="none" stroke="black" points="40,-350.38 4,-350.38 4,-314.38 40,-314.38 40,-350.38"/>
<text text-anchor="middle" x="22" y="-327.33" font-family="Times,serif" font-size="14.00">7</text>
</g>
<!-- ast&#45;root1793 -->
<g id="node2" class="node">
<title>ast&#45;root1793</title>
<ellipse fill="none" stroke="black" cx="22" cy="-255.79" rx="18" ry="18"/>
<ellipse fill="none" stroke="black" cx="22" cy="-255.79" rx="22" ry="22"/>
<text text-anchor="middle" x="22" y="-250.74" font-family="Times,serif" font-size="14.00">1</text>
</g>
<!-- ast&#45;ans1792&#45;&gt;ast&#45;root1793 -->
<g id="edge1" class="edge">
<title>ast&#45;ans1792&#45;&gt;ast&#45;root1793</title>
<path fill="none" stroke="black" d="M22,-302.77C22,-294.63 22,-285.9 22,-278.26"/>
<polygon fill="black" stroke="black" points="18.5,-302.57 22,-312.57 25.5,-302.57 18.5,-302.57"/>
</g>
<!-- ast&#45;node1794 -->
<g id="node3" class="node">
<title>ast&#45;node1794</title>
<ellipse fill="none" stroke="black" cx="22" cy="-174.6" rx="18" ry="18"/>
<ellipse fill="none" stroke="black" cx="22" cy="-174.6" rx="22" ry="22"/>
<text text-anchor="middle" x="22" y="-169.55" font-family="Times,serif" font-size="14.00">1</text>
</g>
<!-- ast&#45;root1793&#45;&gt;ast&#45;node1794 -->
<g id="edge4" class="edge">
<title>ast&#45;root1793&#45;&gt;ast&#45;node1794</title>
<path fill="none" stroke="black" d="M22,-233.57C22,-225.75 22,-216.72 22,-208.14"/>
<polygon fill="black" stroke="black" points="25.5,-208.39 22,-198.39 18.5,-208.39 25.5,-208.39"/>
</g>
<!-- ast&#45;node1795 -->
<g id="node4" class="node">
<title>ast&#45;node1795</title>
<ellipse fill="none" stroke="black" cx="22" cy="-94" rx="18" ry="18"/>
<ellipse fill="none" stroke="black" cx="22" cy="-94" rx="22" ry="22"/>
<text text-anchor="middle" x="22" y="-88.95" font-family="Times,serif" font-size="14.00">1</text>
</g>
<!-- ast&#45;node1794&#45;&gt;ast&#45;node1795 -->
<g id="edge3" class="edge">
<title>ast&#45;node1794&#45;&gt;ast&#45;node1795</title>
<path fill="none" stroke="black" d="M22,-152.12C22,-144.58 22,-135.93 22,-127.69"/>
<polygon fill="black" stroke="black" points="25.5,-127.96 22,-117.96 18.5,-127.96 25.5,-127.96"/>
</g>
<!-- ast&#45;node1796 -->
<g id="node5" class="node">
<title>ast&#45;node1796</title>
<ellipse fill="none" stroke="black" cx="22" cy="-18" rx="18" ry="18"/>
<text text-anchor="middle" x="22" y="-12.95" font-family="Times,serif" font-size="14.00">4</text>
</g>
<!-- ast&#45;node1795&#45;&gt;ast&#45;node1796 -->
<g id="edge2" class="edge">
<title>ast&#45;node1795&#45;&gt;ast&#45;node1796</title>
<path fill="none" stroke="black" d="M22,-71.6C22,-64.11 22,-55.59 22,-47.61"/>
<polygon fill="black" stroke="black" points="25.5,-47.65 22,-37.65 18.5,-47.65 25.5,-47.65"/>
</g>
<!-- ast&#45;ans1797 -->
<g id="node6" class="node">
<title>ast&#45;ans1797</title>
<polygon fill="none" stroke="black" points="131,-350.38 95,-350.38 95,-314.38 131,-314.38 131,-350.38"/>
<text text-anchor="middle" x="113" y="-327.33" font-family="Times,serif" font-size="14.00">21</text>
</g>
<!-- ast&#45;root1798 -->
<g id="node7" class="node">
<title>ast&#45;root1798</title>
<ellipse fill="none" stroke="black" cx="113" cy="-255.79" rx="18" ry="18"/>
<ellipse fill="none" stroke="black" cx="113" cy="-255.79" rx="22" ry="22"/>
<text text-anchor="middle" x="113" y="-250.74" font-family="Times,serif" font-size="14.00">*</text>
</g>
<!-- ast&#45;ans1797&#45;&gt;ast&#45;root1798 -->
<g id="edge5" class="edge">
<title>ast&#45;ans1797&#45;&gt;ast&#45;root1798</title>
<path fill="none" stroke="black" d="M113,-302.77C113,-294.63 113,-285.9 113,-278.26"/>
<polygon fill="black" stroke="black" points="109.5,-302.57 113,-312.57 116.5,-302.57 109.5,-302.57"/>
</g>
<!-- ast&#45;node1799 -->
<g id="node8" class="node">
<title>ast&#45;node1799</title>
<ellipse fill="none" stroke="black" cx="85" cy="-174.6" rx="18.6" ry="18.6"/>
<ellipse fill="none" stroke="black" cx="85" cy="-174.6" rx="22.6" ry="22.6"/>
<text text-anchor="middle" x="85" y="-169.55" font-family="Times,serif" font-size="14.00">&#45;1</text>
</g>
<!-- ast&#45;root1798&#45;&gt;ast&#45;node1799 -->
<g id="edge8" class="edge">
<title>ast&#45;root1798&#45;&gt;ast&#45;node1799</title>
<path fill="none" stroke="black" d="M105.93,-234.8C102.95,-226.37 99.41,-216.35 96.1,-206.98"/>
<polygon fill="black" stroke="black" points="99.49,-206.09 92.86,-197.83 92.89,-208.42 99.49,-206.09"/>
</g>
<!-- ast&#45;node1802 -->
<g id="node11" class="node">
<title>ast&#45;node1802</title>
<ellipse fill="none" stroke="black" cx="144" cy="-174.6" rx="18" ry="18"/>
<text text-anchor="middle" x="144" y="-169.55" font-family="Times,serif" font-size="14.00">3</text>
</g>
<!-- ast&#45;root1798&#45;&gt;ast&#45;node1802 -->
<g id="edge9" class="edge">
<title>ast&#45;root1798&#45;&gt;ast&#45;node1802</title>
<path fill="none" stroke="black" d="M120.82,-234.8C124.68,-224.94 129.39,-212.91 133.56,-202.27"/>
<polygon fill="black" stroke="black" points="136.7,-203.84 137.09,-193.25 130.18,-201.29 136.7,-203.84"/>
</g>
<!-- ast&#45;node1800 -->
<g id="node9" class="node">
<title>ast&#45;node1800</title>
<ellipse fill="none" stroke="black" cx="85" cy="-94" rx="18" ry="18"/>
<ellipse fill="none" stroke="black" cx="85" cy="-94" rx="22" ry="22"/>
<text text-anchor="middle" x="85" y="-88.95" font-family="Times,serif" font-size="14.00">1</text>
</g>
<!-- ast&#45;node1799&#45;&gt;ast&#45;node1800 -->
<g id="edge7" class="edge">
<title>ast&#45;node1799&#45;&gt;ast&#45;node1800</title>
<path fill="none" stroke="black" d="M85,-151.7C85,-144.26 85,-135.77 85,-127.66"/>
<polygon fill="black" stroke="black" points="88.5,-127.75 85,-117.75 81.5,-127.75 88.5,-127.75"/>
</g>
<!-- ast&#45;node1801 -->
<g id="node10" class="node">
<title>ast&#45;node1801</title>
<ellipse fill="none" stroke="black" cx="85" cy="-18" rx="18" ry="18"/>
<text text-anchor="middle" x="85" y="-12.95" font-family="Times,serif" font-size="14.00">7</text>
</g>
<!-- ast&#45;node1800&#45;&gt;ast&#45;node1801 -->
<g id="edge6" class="edge">
<title>ast&#45;node1800&#45;&gt;ast&#45;node1801</title>
<path fill="none" stroke="black" d="M85,-71.6C85,-64.11 85,-55.59 85,-47.61"/>
<polygon fill="black" stroke="black" points="88.5,-47.65 85,-37.65 81.5,-47.65 88.5,-47.65"/>
</g>
<!-- ast&#45;ans1803 -->
<g id="node12" class="node">
<title>ast&#45;ans1803</title>
<polygon fill="none" stroke="black" points="246,-350.38 210,-350.38 210,-314.38 246,-314.38 246,-350.38"/>
<text text-anchor="middle" x="228" y="-327.33" font-family="Times,serif" font-size="14.00">14</text>
</g>
<!-- ast&#45;root1804 -->
<g id="node13" class="node">
<title>ast&#45;root1804</title>
<ellipse fill="none" stroke="black" cx="228" cy="-255.79" rx="18" ry="18"/>
<ellipse fill="none" stroke="black" cx="228" cy="-255.79" rx="22" ry="22"/>
<text text-anchor="middle" x="228" y="-250.74" font-family="Times,serif" font-size="14.00">*</text>
</g>
<!-- ast&#45;ans1803&#45;&gt;ast&#45;root1804 -->
<g id="edge10" class="edge">
<title>ast&#45;ans1803&#45;&gt;ast&#45;root1804</title>
<path fill="none" stroke="black" d="M228,-302.77C228,-294.63 228,-285.9 228,-278.26"/>
<polygon fill="black" stroke="black" points="224.5,-302.57 228,-312.57 231.5,-302.57 224.5,-302.57"/>
</g>
<!-- ast&#45;node1805 -->
<g id="node14" class="node">
<title>ast&#45;node1805</title>
<ellipse fill="none" stroke="black" cx="203" cy="-174.6" rx="18.6" ry="18.6"/>
<ellipse fill="none" stroke="black" cx="203" cy="-174.6" rx="22.6" ry="22.6"/>
<text text-anchor="middle" x="203" y="-169.55" font-family="Times,serif" font-size="14.00">&#45;1</text>
</g>
<!-- ast&#45;root1804&#45;&gt;ast&#45;node1805 -->
<g id="edge12" class="edge">
<title>ast&#45;root1804&#45;&gt;ast&#45;node1805</title>
<path fill="none" stroke="black" d="M221.56,-234.39C218.95,-226.12 215.87,-216.37 212.98,-207.21"/>
<polygon fill="black" stroke="black" points="216.39,-206.4 210.05,-197.92 209.72,-208.5 216.39,-206.4"/>
</g>
<!-- ast&#45;node1807 -->
<g id="node16" class="node">
<title>ast&#45;node1807</title>
<ellipse fill="none" stroke="black" cx="262" cy="-174.6" rx="18" ry="18"/>
<text text-anchor="middle" x="262" y="-169.55" font-family="Times,serif" font-size="14.00">7</text>
</g>
<!-- ast&#45;root1804&#45;&gt;ast&#45;node1807 -->
<g id="edge13" class="edge">
<title>ast&#45;root1804&#45;&gt;ast&#45;node1807</title>
<path fill="none" stroke="black" d="M236.4,-235.21C240.74,-225.11 246.09,-212.65 250.77,-201.74"/>
<polygon fill="black" stroke="black" points="253.85,-203.45 254.58,-192.88 247.42,-200.69 253.85,-203.45"/>
</g>
<!-- ast&#45;node1806 -->
<g id="node15" class="node">
<title>ast&#45;node1806</title>
<ellipse fill="none" stroke="black" cx="203" cy="-94" rx="18" ry="18"/>
<text text-anchor="middle" x="203" y="-88.95" font-family="Times,serif" font-size="14.00">3</text>
</g>
<!-- ast&#45;node1805&#45;&gt;ast&#45;node1806 -->
<g id="edge11" class="edge">
<title>ast&#45;node1805&#45;&gt;ast&#45;node1806</title>
<path fill="none" stroke="black" d="M203,-151.7C203,-143.05 203,-132.98 203,-123.76"/>
<polygon fill="black" stroke="black" points="206.5,-123.81 203,-113.81 199.5,-123.81 206.5,-123.81"/>
</g>
<!-- ast&#45;ans1808 -->
<g id="node17" class="node">
<title>ast&#45;ans1808</title>
<polygon fill="none" stroke="black" points="334,-350.38 298,-350.38 298,-314.38 334,-314.38 334,-350.38"/>
<text text-anchor="middle" x="316" y="-327.33" font-family="Times,serif" font-size="14.00">6</text>
</g>
<!-- ast&#45;root1809 -->
<g id="node18" class="node">
<title>ast&#45;root1809</title>
<ellipse fill="none" stroke="black" cx="316" cy="-255.79" rx="18.6" ry="18.6"/>
<ellipse fill="none" stroke="black" cx="316" cy="-255.79" rx="22.6" ry="22.6"/>
<text text-anchor="middle" x="316" y="-250.74" font-family="Times,serif" font-size="14.00">&#45;1</text>
</g>
<!-- ast&#45;ans1808&#45;&gt;ast&#45;root1809 -->
<g id="edge14" class="edge">
<title>ast&#45;ans1808&#45;&gt;ast&#45;root1809</title>
<path fill="none" stroke="black" d="M316,-302.68C316,-294.76 316,-286.29 316,-278.82"/>
<polygon fill="black" stroke="black" points="312.5,-302.57 316,-312.57 319.5,-302.57 312.5,-302.57"/>
</g>
<!-- ast&#45;node1810 -->
<g id="node19" class="node">
<title>ast&#45;node1810</title>
<ellipse fill="none" stroke="black" cx="316" cy="-174.6" rx="18" ry="18"/>
<text text-anchor="middle" x="316" y="-169.55" font-family="Times,serif" font-size="14.00">7</text>
</g>
<!-- ast&#45;root1809&#45;&gt;ast&#45;node1810 -->
<g id="edge15" class="edge">
<title>ast&#45;root1809&#45;&gt;ast&#45;node1810</title>
<path fill="none" stroke="black" d="M316,-232.73C316,-223.91 316,-213.64 316,-204.26"/>
<polygon fill="black" stroke="black" points="319.5,-204.54 316,-194.54 312.5,-204.54 319.5,-204.54"/>
</g>
<!-- ast&#45;ans1811 -->
<g id="node20" class="node">
<title>ast&#45;ans1811</title>
<polygon fill="none" stroke="black" points="397,-350.38 361,-350.38 361,-314.38 397,-314.38 397,-350.38"/>
<text text-anchor="middle" x="379" y="-327.33" font-family="Times,serif" font-size="14.00">6</text>
</g>
<!-- ast&#45;root1812 -->
<g id="node21" class="node">
<title>ast&#45;root1812</title>
<ellipse fill="none" stroke="black" cx="379" cy="-255.79" rx="18.6" ry="18.6"/>
<ellipse fill="none" stroke="black" cx="379" cy="-255.79" rx="22.6" ry="22.6"/>
<text text-anchor="middle" x="379" y="-250.74" font-family="Times,serif" font-size="14.00">&#45;1</text>
</g>
<!-- ast&#45;ans1811&#45;&gt;ast&#45;root1812 -->
<g id="edge16" class="edge">
<title>ast&#45;ans1811&#45;&gt;ast&#45;root1812</title>
<path fill="none" stroke="black" d="M379,-302.68C379,-294.76 379,-286.29 379,-278.82"/>
<polygon fill="black" stroke="black" points="375.5,-302.57 379,-312.57 382.5,-302.57 375.5,-302.57"/>
</g>
<!-- ast&#45;node1813 -->
<g id="node22" class="node">
<title>ast&#45;node1813</title>
<ellipse fill="none" stroke="black" cx="379" cy="-174.6" rx="18" ry="18"/>
<text text-anchor="middle" x="379" y="-169.55" font-family="Times,serif" font-size="14.00">7</text>
</g>
<!-- ast&#45;root1812&#45;&gt;ast&#45;node1813 -->
<g id="edge17" class="edge">
<title>ast&#45;root1812&#45;&gt;ast&#45;node1813</title>
<path fill="none" stroke="black" d="M379,-232.73C379,-223.91 379,-213.64 379,-204.26"/>
<polygon fill="black" stroke="black" points="382.5,-204.54 379,-194.54 375.5,-204.54 382.5,-204.54"/>
</g>
<!-- ast&#45;ans1814 -->
<g id="node23" class="node">
<title>ast&#45;ans1814</title>
<polygon fill="none" stroke="black" points="456,-350.38 420,-350.38 420,-314.38 456,-314.38 456,-350.38"/>
<text text-anchor="middle" x="438" y="-327.33" font-family="Times,serif" font-size="14.00">7</text>
</g>
<!-- ast&#45;root1815 -->
<g id="node24" class="node">
<title>ast&#45;root1815</title>
<ellipse fill="none" stroke="black" cx="438" cy="-255.79" rx="18" ry="18"/>
<text text-anchor="middle" x="438" y="-250.74" font-family="Times,serif" font-size="14.00">7</text>
</g>
<!-- ast&#45;ans1814&#45;&gt;ast&#45;root1815 -->
<g id="edge18" class="edge">
<title>ast&#45;ans1814&#45;&gt;ast&#45;root1815</title>
<path fill="none" stroke="black" d="M438,-302.6C438,-293.04 438,-282.69 438,-274.25"/>
<polygon fill="black" stroke="black" points="434.5,-302.57 438,-312.57 441.5,-302.57 434.5,-302.57"/>
</g>
<!-- ast&#45;ans1816 -->
<g id="node25" class="node">
<title>ast&#45;ans1816</title>
<polygon fill="none" stroke="black" points="510,-350.38 474,-350.38 474,-314.38 510,-314.38 510,-350.38"/>
<text text-anchor="middle" x="492" y="-327.33" font-family="Times,serif" font-size="14.00">6</text>
</g>
<!-- ast&#45;root1817 -->
<g id="node26" class="node">
<title>ast&#45;root1817</title>
<ellipse fill="none" stroke="black" cx="492" cy="-255.79" rx="18" ry="18"/>
<text text-anchor="middle" x="492" y="-250.74" font-family="Times,serif" font-size="14.00">6</text>
</g>
<!-- ast&#45;ans1816&#45;&gt;ast&#45;root1817 -->
<g id="edge19" class="edge">
<title>ast&#45;ans1816&#45;&gt;ast&#45;root1817</title>
<path fill="none" stroke="black" d="M492,-302.6C492,-293.04 492,-282.69 492,-274.25"/>
<polygon fill="black" stroke="black" points="488.5,-302.57 492,-312.57 495.5,-302.57 488.5,-302.57"/>
</g>
<!-- ast&#45;ans1818 -->
<g id="node27" class="node">
<title>ast&#45;ans1818</title>
<polygon fill="none" stroke="black" points="564,-350.38 528,-350.38 528,-314.38 564,-314.38 564,-350.38"/>
<text text-anchor="middle" x="546" y="-327.33" font-family="Times,serif" font-size="14.00">5</text>
</g>
<!-- ast&#45;root1819 -->
<g id="node28" class="node">
<title>ast&#45;root1819</title>
<ellipse fill="none" stroke="black" cx="546" cy="-255.79" rx="18" ry="18"/>
<text text-anchor="middle" x="546" y="-250.74" font-family="Times,serif" font-size="14.00">5</text>
</g>
<!-- ast&#45;ans1818&#45;&gt;ast&#45;root1819 -->
<g id="edge20" class="edge">
<title>ast&#45;ans1818&#45;&gt;ast&#45;root1819</title>
<path fill="none" stroke="black" d="M546,-302.6C546,-293.04 546,-282.69 546,-274.25"/>
<polygon fill="black" stroke="black" points="542.5,-302.57 546,-312.57 549.5,-302.57 542.5,-302.57"/>
</g>
</g>
</svg>
