<?xml version="1.0" encoding="UTF-8" standalone="no"?>
<!DOCTYPE svg PUBLIC "-//W3C//DTD SVG 1.1//EN"
 "http://www.w3.org/Graphics/SVG/1.1/DTD/svg11.dtd">
<!-- Generated by graphviz version 9.0.0 (20230911.1827)
 -->
<!-- Pages: 1 -->
<svg width="330pt" height="596pt"
 viewBox="0.00 0.00 330.00 596.25" xmlns="http://www.w3.org/2000/svg" xmlns:xlink="http://www.w3.org/1999/xlink">
<g id="graph0" class="graph" transform="scale(1 1) rotate(0) translate(4 592.25)">
<polygon fill="white" stroke="none" points="-4,4 -4,-592.25 326,-592.25 326,4 -4,4"/>
<!-- ast&#45;ans1579 -->
<g id="node1" class="node">
<title>ast&#45;ans1579</title>
<polygon fill="none" stroke="black" points="258.12,-588.25 221.88,-588.25 221.88,-552 258.12,-552 258.12,-588.25"/>
<text text-anchor="middle" x="240" y="-565.08" font-family="Times,serif" font-size="14.00">185</text>
</g>
<!-- ast&#45;root1580 -->
<g id="node2" class="node">
<title>ast&#45;root1580</title>
<ellipse fill="none" stroke="black" cx="240" cy="-494" rx="18" ry="18"/>
<ellipse fill="none" stroke="black" cx="240" cy="-494" rx="22" ry="22"/>
<text text-anchor="middle" x="240" y="-488.95" font-family="Times,serif" font-size="14.00">+</text>
</g>
<!-- ast&#45;ans1579&#45;&gt;ast&#45;root1580 -->
<g id="edge1" class="edge">
<title>ast&#45;ans1579&#45;&gt;ast&#45;root1580</title>
<path fill="none" stroke="black" d="M240,-540.15C240,-532.24 240,-523.81 240,-516.41"/>
<polygon fill="black" stroke="black" points="236.5,-540.04 240,-550.04 243.5,-540.04 236.5,-540.04"/>
</g>
<!-- ast&#45;node1581 -->
<g id="node3" class="node">
<title>ast&#45;node1581</title>
<ellipse fill="none" stroke="black" cx="209" cy="-414" rx="18" ry="18"/>
<ellipse fill="none" stroke="black" cx="209" cy="-414" rx="22" ry="22"/>
<text text-anchor="middle" x="209" y="-408.95" font-family="Times,serif" font-size="14.00">&#45;</text>
</g>
<!-- ast&#45;root1580&#45;&gt;ast&#45;node1581 -->
<g id="edge19" class="edge">
<title>ast&#45;root1580&#45;&gt;ast&#45;node1581</title>
<path fill="none" stroke="black" d="M232.18,-473.32C228.83,-464.88 224.83,-454.84 221.11,-445.48"/>
<polygon fill="black" stroke="black" points="224.43,-444.35 217.49,-436.35 217.93,-446.94 224.43,-444.35"/>
</g>
<!-- ast&#45;node1598 -->
<g id="node20" class="node">
<title>ast&#45;node1598</title>
<ellipse fill="none" stroke="black" cx="271" cy="-414" rx="18" ry="18"/>
<ellipse fill="none" stroke="black" cx="271" cy="-414" rx="22" ry="22"/>
<text text-anchor="middle" x="271" y="-408.95" font-family="Times,serif" font-size="14.00">1</text>
</g>
<!-- ast&#45;root1580&#45;&gt;ast&#45;node1598 -->
<g id="edge20" class="edge">
<title>ast&#45;root1580&#45;&gt;ast&#45;node1598</title>
<path fill="none" stroke="black" d="M247.82,-473.32C251.17,-464.88 255.17,-454.84 258.89,-445.48"/>
<polygon fill="black" stroke="black" points="262.07,-446.94 262.51,-436.35 255.57,-444.35 262.07,-446.94"/>
</g>
<!-- ast&#45;node1582 -->
<g id="node4" class="node">
<title>ast&#45;node1582</title>
<ellipse fill="none" stroke="black" cx="155" cy="-334" rx="18" ry="18"/>
<ellipse fill="none" stroke="black" cx="155" cy="-334" rx="22" ry="22"/>
<text text-anchor="middle" x="155" y="-328.95" font-family="Times,serif" font-size="14.00">&#45;</text>
</g>
<!-- ast&#45;node1581&#45;&gt;ast&#45;node1582 -->
<g id="edge16" class="edge">
<title>ast&#45;node1581&#45;&gt;ast&#45;node1582</title>
<path fill="none" stroke="black" d="M196.75,-395.3C189.91,-385.43 181.26,-372.93 173.6,-361.87"/>
<polygon fill="black" stroke="black" points="176.64,-360.1 168.07,-353.87 170.88,-364.09 176.64,-360.1"/>
</g>
<!-- ast&#45;node1597 -->
<g id="node19" class="node">
<title>ast&#45;node1597</title>
<ellipse fill="none" stroke="black" cx="213" cy="-334" rx="18" ry="18"/>
<text text-anchor="middle" x="213" y="-328.95" font-family="Times,serif" font-size="14.00">8</text>
</g>
<!-- ast&#45;node1581&#45;&gt;ast&#45;node1597 -->
<g id="edge17" class="edge">
<title>ast&#45;node1581&#45;&gt;ast&#45;node1597</title>
<path fill="none" stroke="black" d="M210.09,-391.69C210.53,-383.09 211.05,-373.05 211.52,-363.82"/>
<polygon fill="black" stroke="black" points="215.02,-364.02 212.03,-353.86 208.03,-363.67 215.02,-364.02"/>
</g>
<!-- ast&#45;node1583 -->
<g id="node5" class="node">
<title>ast&#45;node1583</title>
<ellipse fill="none" stroke="black" cx="124" cy="-254" rx="18" ry="18"/>
<ellipse fill="none" stroke="black" cx="124" cy="-254" rx="22" ry="22"/>
<text text-anchor="middle" x="124" y="-248.95" font-family="Times,serif" font-size="14.00">+</text>
</g>
<!-- ast&#45;node1582&#45;&gt;ast&#45;node1583 -->
<g id="edge14" class="edge">
<title>ast&#45;node1582&#45;&gt;ast&#45;node1583</title>
<path fill="none" stroke="black" d="M147.18,-313.32C143.83,-304.88 139.83,-294.84 136.11,-285.48"/>
<polygon fill="black" stroke="black" points="139.43,-284.35 132.49,-276.35 132.93,-286.94 139.43,-284.35"/>
</g>
<!-- ast&#45;node1588 -->
<g id="node10" class="node">
<title>ast&#45;node1588</title>
<ellipse fill="none" stroke="black" cx="186" cy="-254" rx="18" ry="18"/>
<ellipse fill="none" stroke="black" cx="186" cy="-254" rx="22" ry="22"/>
<text text-anchor="middle" x="186" y="-248.95" font-family="Times,serif" font-size="14.00">&#45;</text>
</g>
<!-- ast&#45;node1582&#45;&gt;ast&#45;node1588 -->
<g id="edge15" class="edge">
<title>ast&#45;node1582&#45;&gt;ast&#45;node1588</title>
<path fill="none" stroke="black" d="M162.82,-313.32C166.17,-304.88 170.17,-294.84 173.89,-285.48"/>
<polygon fill="black" stroke="black" points="177.07,-286.94 177.51,-276.35 170.57,-284.35 177.07,-286.94"/>
</g>
<!-- ast&#45;node1584 -->
<g id="node6" class="node">
<title>ast&#45;node1584</title>
<ellipse fill="none" stroke="black" cx="67" cy="-174" rx="18" ry="18"/>
<ellipse fill="none" stroke="black" cx="67" cy="-174" rx="22" ry="22"/>
<text text-anchor="middle" x="67" y="-168.95" font-family="Times,serif" font-size="14.00">&#45;</text>
</g>
<!-- ast&#45;node1583&#45;&gt;ast&#45;node1584 -->
<g id="edge4" class="edge">
<title>ast&#45;node1583&#45;&gt;ast&#45;node1584</title>
<path fill="none" stroke="black" d="M111.35,-235.69C103.97,-225.59 94.51,-212.65 86.23,-201.31"/>
<polygon fill="black" stroke="black" points="89.23,-199.49 80.51,-193.48 83.58,-203.62 89.23,-199.49"/>
</g>
<!-- ast&#45;node1587 -->
<g id="node9" class="node">
<title>ast&#45;node1587</title>
<ellipse fill="none" stroke="black" cx="125" cy="-174" rx="18" ry="18"/>
<text text-anchor="middle" x="125" y="-168.95" font-family="Times,serif" font-size="14.00">8</text>
</g>
<!-- ast&#45;node1583&#45;&gt;ast&#45;node1587 -->
<g id="edge5" class="edge">
<title>ast&#45;node1583&#45;&gt;ast&#45;node1587</title>
<path fill="none" stroke="black" d="M124.27,-231.69C124.38,-223.09 124.51,-213.05 124.63,-203.82"/>
<polygon fill="black" stroke="black" points="128.13,-203.9 124.76,-193.86 121.13,-203.81 128.13,-203.9"/>
</g>
<!-- ast&#45;node1585 -->
<g id="node7" class="node">
<title>ast&#45;node1585</title>
<ellipse fill="none" stroke="black" cx="18" cy="-94" rx="18" ry="18"/>
<text text-anchor="middle" x="18" y="-88.95" font-family="Times,serif" font-size="14.00">9</text>
</g>
<!-- ast&#45;node1584&#45;&gt;ast&#45;node1585 -->
<g id="edge2" class="edge">
<title>ast&#45;node1584&#45;&gt;ast&#45;node1585</title>
<path fill="none" stroke="black" d="M55.64,-154.91C48.99,-144.33 40.51,-130.83 33.28,-119.33"/>
<polygon fill="black" stroke="black" points="36.42,-117.74 28.14,-111.14 30.49,-121.47 36.42,-117.74"/>
</g>
<!-- ast&#45;node1586 -->
<g id="node8" class="node">
<title>ast&#45;node1586</title>
<ellipse fill="none" stroke="black" cx="72" cy="-94" rx="18" ry="18"/>
<text text-anchor="middle" x="72" y="-88.95" font-family="Times,serif" font-size="14.00">9</text>
</g>
<!-- ast&#45;node1584&#45;&gt;ast&#45;node1586 -->
<g id="edge3" class="edge">
<title>ast&#45;node1584&#45;&gt;ast&#45;node1586</title>
<path fill="none" stroke="black" d="M68.37,-151.69C68.92,-143.09 69.56,-133.05 70.15,-123.82"/>
<polygon fill="black" stroke="black" points="73.64,-124.06 70.79,-113.86 66.66,-123.61 73.64,-124.06"/>
</g>
<!-- ast&#45;node1589 -->
<g id="node11" class="node">
<title>ast&#45;node1589</title>
<ellipse fill="none" stroke="black" cx="185" cy="-174" rx="18" ry="18"/>
<ellipse fill="none" stroke="black" cx="185" cy="-174" rx="22" ry="22"/>
<text text-anchor="middle" x="185" y="-168.95" font-family="Times,serif" font-size="14.00">+</text>
</g>
<!-- ast&#45;node1588&#45;&gt;ast&#45;node1589 -->
<g id="edge12" class="edge">
<title>ast&#45;node1588&#45;&gt;ast&#45;node1589</title>
<path fill="none" stroke="black" d="M185.73,-231.69C185.63,-224.29 185.52,-215.82 185.42,-207.72"/>
<polygon fill="black" stroke="black" points="188.92,-207.76 185.29,-197.8 181.92,-207.85 188.92,-207.76"/>
</g>
<!-- ast&#45;node1592 -->
<g id="node14" class="node">
<title>ast&#45;node1592</title>
<ellipse fill="none" stroke="black" cx="247" cy="-174" rx="18" ry="18"/>
<ellipse fill="none" stroke="black" cx="247" cy="-174" rx="22" ry="22"/>
<text text-anchor="middle" x="247" y="-168.95" font-family="Times,serif" font-size="14.00">*</text>
</g>
<!-- ast&#45;node1588&#45;&gt;ast&#45;node1592 -->
<g id="edge13" class="edge">
<title>ast&#45;node1588&#45;&gt;ast&#45;node1592</title>
<path fill="none" stroke="black" d="M199.24,-236.08C207.31,-225.75 217.79,-212.35 226.87,-200.73"/>
<polygon fill="black" stroke="black" points="229.45,-203.12 232.86,-193.08 223.94,-198.81 229.45,-203.12"/>
</g>
<!-- ast&#45;node1590 -->
<g id="node12" class="node">
<title>ast&#45;node1590</title>
<ellipse fill="none" stroke="black" cx="132" cy="-94" rx="18" ry="18"/>
<text text-anchor="middle" x="132" y="-88.95" font-family="Times,serif" font-size="14.00">8</text>
</g>
<!-- ast&#45;node1589&#45;&gt;ast&#45;node1590 -->
<g id="edge6" class="edge">
<title>ast&#45;node1589&#45;&gt;ast&#45;node1590</title>
<path fill="none" stroke="black" d="M172.97,-155.3C165.62,-144.49 156.13,-130.52 148.14,-118.75"/>
<polygon fill="black" stroke="black" points="151.22,-117.05 142.7,-110.75 145.43,-120.99 151.22,-117.05"/>
</g>
<!-- ast&#45;node1591 -->
<g id="node13" class="node">
<title>ast&#45;node1591</title>
<ellipse fill="none" stroke="black" cx="186" cy="-94" rx="18" ry="18"/>
<text text-anchor="middle" x="186" y="-88.95" font-family="Times,serif" font-size="14.00">7</text>
</g>
<!-- ast&#45;node1589&#45;&gt;ast&#45;node1591 -->
<g id="edge7" class="edge">
<title>ast&#45;node1589&#45;&gt;ast&#45;node1591</title>
<path fill="none" stroke="black" d="M185.27,-151.69C185.38,-143.09 185.51,-133.05 185.63,-123.82"/>
<polygon fill="black" stroke="black" points="189.13,-123.9 185.76,-113.86 182.13,-123.81 189.13,-123.9"/>
</g>
<!-- ast&#45;node1593 -->
<g id="node15" class="node">
<title>ast&#45;node1593</title>
<ellipse fill="none" stroke="black" cx="246" cy="-94" rx="18" ry="18"/>
<ellipse fill="none" stroke="black" cx="246" cy="-94" rx="22" ry="22"/>
<text text-anchor="middle" x="246" y="-88.95" font-family="Times,serif" font-size="14.00">*</text>
</g>
<!-- ast&#45;node1592&#45;&gt;ast&#45;node1593 -->
<g id="edge10" class="edge">
<title>ast&#45;node1592&#45;&gt;ast&#45;node1593</title>
<path fill="none" stroke="black" d="M246.73,-151.69C246.63,-144.29 246.52,-135.82 246.42,-127.72"/>
<polygon fill="black" stroke="black" points="249.92,-127.76 246.29,-117.8 242.92,-127.85 249.92,-127.76"/>
</g>
<!-- ast&#45;node1596 -->
<g id="node18" class="node">
<title>ast&#45;node1596</title>
<ellipse fill="none" stroke="black" cx="304" cy="-94" rx="18" ry="18"/>
<text text-anchor="middle" x="304" y="-88.95" font-family="Times,serif" font-size="14.00">4</text>
</g>
<!-- ast&#45;node1592&#45;&gt;ast&#45;node1596 -->
<g id="edge11" class="edge">
<title>ast&#45;node1592&#45;&gt;ast&#45;node1596</title>
<path fill="none" stroke="black" d="M259.65,-155.69C267.72,-144.64 278.29,-130.18 287.08,-118.15"/>
<polygon fill="black" stroke="black" points="289.7,-120.5 292.78,-110.36 284.05,-116.37 289.7,-120.5"/>
</g>
<!-- ast&#45;node1594 -->
<g id="node16" class="node">
<title>ast&#45;node1594</title>
<ellipse fill="none" stroke="black" cx="219" cy="-18" rx="18" ry="18"/>
<text text-anchor="middle" x="219" y="-12.95" font-family="Times,serif" font-size="14.00">7</text>
</g>
<!-- ast&#45;node1593&#45;&gt;ast&#45;node1594 -->
<g id="edge8" class="edge">
<title>ast&#45;node1593&#45;&gt;ast&#45;node1594</title>
<path fill="none" stroke="black" d="M238.62,-72.78C235.59,-64.47 232.04,-54.74 228.8,-45.85"/>
<polygon fill="black" stroke="black" points="232.15,-44.83 225.44,-36.64 225.58,-47.23 232.15,-44.83"/>
</g>
<!-- ast&#45;node1595 -->
<g id="node17" class="node">
<title>ast&#45;node1595</title>
<ellipse fill="none" stroke="black" cx="273" cy="-18" rx="18" ry="18"/>
<text text-anchor="middle" x="273" y="-12.95" font-family="Times,serif" font-size="14.00">7</text>
</g>
<!-- ast&#45;node1593&#45;&gt;ast&#45;node1595 -->
<g id="edge9" class="edge">
<title>ast&#45;node1593&#45;&gt;ast&#45;node1595</title>
<path fill="none" stroke="black" d="M253.38,-72.78C256.41,-64.47 259.96,-54.74 263.2,-45.85"/>
<polygon fill="black" stroke="black" points="266.42,-47.23 266.56,-36.64 259.85,-44.83 266.42,-47.23"/>
</g>
<!-- ast&#45;node1599 -->
<g id="node21" class="node">
<title>ast&#45;node1599</title>
<ellipse fill="none" stroke="black" cx="271" cy="-334" rx="18" ry="18"/>
<text text-anchor="middle" x="271" y="-328.95" font-family="Times,serif" font-size="14.00">3</text>
</g>
<!-- ast&#45;node1598&#45;&gt;ast&#45;node1599 -->
<g id="edge18" class="edge">
<title>ast&#45;node1598&#45;&gt;ast&#45;node1599</title>
<path fill="none" stroke="black" d="M271,-391.69C271,-383.09 271,-373.05 271,-363.82"/>
<polygon fill="black" stroke="black" points="274.5,-363.86 271,-353.86 267.5,-363.86 274.5,-363.86"/>
</g>
</g>
</svg>
