<?xml version="1.0" encoding="UTF-8" standalone="no"?>
<!DOCTYPE svg PUBLIC "-//W3C//DTD SVG 1.1//EN"
 "http://www.w3.org/Graphics/SVG/1.1/DTD/svg11.dtd">
<!-- Generated by graphviz version 12.2.0 (20241103.1931)
 -->
<!-- Pages: 1 -->
<svg width="130pt" height="163pt"
 viewBox="0.00 0.00 129.75 162.75" xmlns="http://www.w3.org/2000/svg" xmlns:xlink="http://www.w3.org/1999/xlink">
<g id="graph0" class="graph" transform="scale(1 1) rotate(0) translate(4 158.75)">
<!-- Euc -->
<g id="node1" class="node">
<title>Euc</title>
<text text-anchor="middle" x="11.62" y="-141.45" font-family="Arial" font-size="14.00">Euc</text>
</g>
<!-- Lens(Euc) -->
<g id="node2" class="node">
<title>Lens(Euc)</title>
<text text-anchor="middle" x="91" y="-141.45" font-family="Arial" font-size="14.00">Lens(Euc)</text>
</g>
<!-- Euc&#45;&gt;Lens(Euc) -->
<g id="edge1" class="edge">
<title>Euc&#45;&gt;Lens(Euc)</title>
<path fill="none" stroke="#888888" d="M23.06,-146.88C29.94,-146.88 39.44,-146.88 49.12,-146.88"/>
<polygon fill="#888888" stroke="#888888" points="48.91,-150.38 58.91,-146.88 48.91,-143.38 48.91,-150.38"/>
</g>
<!-- Rn -->
<g id="node3" class="node">
<title>Rn</title>
<text text-anchor="start" x="2.62" y="-90.45" font-family="Arial" font-size="14.00">R</text>
<text text-anchor="start" x="12.38" y="-90.45" font-family="Arial" baseline-shift="super" font-size="14.00">N</text>
</g>
<!-- Euc&#45;&gt;Rn -->
<!-- RnRn -->
<g id="node5" class="node">
<title>RnRn</title>
<text text-anchor="start" x="64.75" y="-90.45" font-family="Arial" font-size="14.00">(R</text>
<text text-anchor="start" x="79" y="-90.45" font-family="Arial" baseline-shift="super" font-size="14.00">N</text>
<text text-anchor="start" x="87.25" y="-90.45" font-family="Arial" font-size="14.00">, R</text>
<text text-anchor="start" x="104.5" y="-90.45" font-family="Arial" baseline-shift="super" font-size="14.00">N</text>
<text text-anchor="start" x="112.75" y="-90.45" font-family="Arial" font-size="14.00">)</text>
</g>
<!-- Lens(Euc)&#45;&gt;RnRn -->
<!-- Rm -->
<g id="node4" class="node">
<title>Rm</title>
<text text-anchor="start" x="1.88" y="-3.45" font-family="Arial" font-size="14.00">R</text>
<text text-anchor="start" x="11.62" y="-3.45" font-family="Arial" baseline-shift="super" font-size="14.00">M</text>
</g>
<!-- Rn&#45;&gt;Rm -->
<g id="edge6" class="edge">
<title>Rn&#45;&gt;Rm</title>
<path fill="none" stroke="#888888" d="M11.62,-87.05C11.62,-73.59 11.62,-45.7 11.62,-26.89"/>
<polygon fill="#888888" stroke="#888888" points="15.13,-27.11 11.63,-17.11 8.13,-27.11 15.13,-27.11"/>
<text text-anchor="middle" x="0.75" y="-45.95" font-family="Arial" font-size="14.00">f</text>
</g>
<!-- Rn&#45;&gt;RnRn -->
<g id="edge2" class="edge">
<title>Rn&#45;&gt;RnRn</title>
<path fill="none" stroke="#888888" d="M20.61,-94.88C28.54,-94.88 41.25,-94.88 53.65,-94.88"/>
<polygon fill="#888888" stroke="#888888" points="53.28,-98.38 63.28,-94.88 53.28,-91.38 53.28,-98.38"/>
</g>
<!-- RmRm -->
<g id="node6" class="node">
<title>RmRm</title>
<text text-anchor="start" x="63.25" y="-3.45" font-family="Arial" font-size="14.00">(R</text>
<text text-anchor="start" x="77.5" y="-3.45" font-family="Arial" baseline-shift="super" font-size="14.00">M</text>
<text text-anchor="start" x="87.25" y="-3.45" font-family="Arial" font-size="14.00">, R</text>
<text text-anchor="start" x="104.5" y="-3.45" font-family="Arial" baseline-shift="super" font-size="14.00">M</text>
<text text-anchor="start" x="114.25" y="-3.45" font-family="Arial" font-size="14.00">)</text>
</g>
<!-- Rm&#45;&gt;RmRm -->
<g id="edge3" class="edge">
<title>Rm&#45;&gt;RmRm</title>
<path fill="none" stroke="#888888" d="M21.2,-7.88C28.81,-7.88 40.5,-7.88 52.09,-7.88"/>
<polygon fill="#888888" stroke="#888888" points="51.99,-11.38 61.99,-7.88 51.99,-4.38 51.99,-11.38"/>
</g>
<!-- RnRn&#45;&gt;RmRm -->
<g id="edge7" class="edge">
<title>RnRn&#45;&gt;RmRm</title>
<path fill="none" stroke="#888888" d="M91,-87.05C91,-73.59 91,-45.7 91,-26.89"/>
<polygon fill="#888888" stroke="#888888" points="94.5,-27.11 91,-17.11 87.5,-27.11 94.5,-27.11"/>
<text text-anchor="middle" x="79.38" y="-46.7" font-family="Arial" font-size="14.00">(f, ∇f)</text>
</g>
</g>
</svg>
