<?xml version="1.0" encoding="UTF-8" standalone="no"?>
<!DOCTYPE svg PUBLIC "-//W3C//DTD SVG 1.1//EN"
 "http://www.w3.org/Graphics/SVG/1.1/DTD/svg11.dtd">
<!-- Generated by graphviz version 12.2.0 (20241103.1931)
 -->
<!-- Pages: 1 -->
<svg width="1129pt" height="453pt"
 viewBox="0.00 0.00 1129.00 452.90" xmlns="http://www.w3.org/2000/svg" xmlns:xlink="http://www.w3.org/1999/xlink">
<g id="graph0" class="graph" transform="scale(1 1) rotate(0) translate(4 448.9)">
<g id="clust1" class="cluster">
<title>cluster_A</title>
<polygon fill="none" stroke="#888888" points="8,-21.1 8,-436.9 269,-436.9 269,-21.1 8,-21.1"/>
<text text-anchor="middle" x="138.5" y="-419.6" font-family="Arial" font-size="14.00">(bifunctor #&#39;cons #&#39;f #&#39;g)</text>
</g>
<g id="clust2" class="cluster">
<title>cluster_Symmetry</title>
<polygon fill="none" stroke="#888888" points="277,-21.1 277,-414.27 461,-414.27 461,-21.1 277,-21.1"/>
<text text-anchor="middle" x="369" y="-396.97" font-family="Arial" font-size="14.00">Symmetry</text>
</g>
<g id="clust3" class="cluster">
<title>cluster_associativity</title>
<polygon fill="none" stroke="#888888" points="469,-8 469,-435.23 755,-435.23 755,-8 469,-8"/>
<text text-anchor="middle" x="612" y="-417.93" font-family="Arial" font-size="14.00">Associativity</text>
</g>
<g id="clust4" class="cluster">
<title>cluster_unit1</title>
<polygon fill="none" stroke="#888888" points="763,-21.1 763,-401.16 934,-401.16 934,-21.1 763,-21.1"/>
<text text-anchor="middle" x="848.5" y="-383.86" font-family="Arial" font-size="14.00">unit isomorphisms</text>
</g>
<g id="clust5" class="cluster">
<title>cluster_unit2</title>
<polygon fill="none" stroke="#888888" points="942,-21.1 942,-401.16 1113,-401.16 1113,-21.1 942,-21.1"/>
<text text-anchor="middle" x="1027.5" y="-383.86" font-family="Arial" font-size="14.00">unit isomorphisms</text>
</g>
<!-- axb -->
<g id="node1" class="node">
<title>axb</title>
<ellipse fill="none" stroke="#888888" cx="76" cy="-351.41" rx="53.74" ry="53.74"/>
<text text-anchor="middle" x="76" y="-353.86" font-family="Arial" font-size="14.00">a × b</text>
<text text-anchor="middle" x="76" y="-338.11" font-family="Arial" font-size="14.00">(cons a b)</text>
</g>
<!-- AxB -->
<g id="node2" class="node">
<title>AxB</title>
<ellipse fill="none" stroke="#888888" cx="128" cy="-187.94" rx="57.98" ry="57.98"/>
<text text-anchor="middle" x="128" y="-190.39" font-family="Arial" font-size="14.00">a&#39; × b&#39;</text>
<text text-anchor="middle" x="128" y="-174.64" font-family="Arial" font-size="14.00">(cons a&#39; b&#39;)</text>
</g>
<!-- axb&#45;&gt;AxB -->
<g id="edge3" class="edge">
<title>axb&#45;&gt;AxB</title>
<path fill="none" stroke="#888888" stroke-dasharray="5,2" d="M71.55,-297.5C71.96,-286.23 73.42,-274.53 76.75,-263.92 78.97,-256.85 82.11,-249.84 85.74,-243.12"/>
<polygon fill="#888888" stroke="#888888" points="88.58,-245.2 90.62,-234.8 82.54,-241.66 88.58,-245.2"/>
<text text-anchor="middle" x="148.38" y="-266.37" font-family="Arial" font-size="14.00">(bifunctor #&#39;cons #&#39;f #&#39;g)</text>
</g>
<!-- a -->
<g id="node3" class="node">
<title>a</title>
<ellipse fill="none" stroke="#888888" cx="34" cy="-187.94" rx="18" ry="18"/>
<text text-anchor="middle" x="34" y="-182.52" font-family="Arial" font-size="14.00">a</text>
</g>
<!-- axb&#45;&gt;a -->
<g id="edge1" class="edge">
<title>axb&#45;&gt;a</title>
<path fill="none" stroke="#888888" d="M46.08,-306.26C41.64,-297.76 37.73,-288.69 35.25,-279.67 29.66,-259.33 29.58,-235.45 30.77,-217.3"/>
<polygon fill="#888888" stroke="#888888" points="34.24,-217.79 31.59,-207.53 27.26,-217.2 34.24,-217.79"/>
<text text-anchor="middle" x="44.62" y="-266.37" font-family="Arial" font-size="14.00">car</text>
</g>
<!-- b -->
<g id="node4" class="node">
<title>b</title>
<ellipse fill="none" stroke="#888888" cx="232" cy="-187.94" rx="18" ry="18"/>
<text text-anchor="middle" x="232" y="-182.52" font-family="Arial" font-size="14.00">b</text>
</g>
<!-- axb&#45;&gt;b -->
<g id="edge2" class="edge">
<title>axb&#45;&gt;b</title>
<path fill="none" stroke="#888888" d="M128.46,-338.07C160.08,-327.82 198.31,-309.88 220,-279.67 232.83,-261.8 235.3,-236.72 234.85,-217.45"/>
<polygon fill="#888888" stroke="#888888" points="238.35,-217.36 234.32,-207.56 231.36,-217.73 238.35,-217.36"/>
<text text-anchor="middle" x="237.39" y="-266.37" font-family="Arial" font-size="14.00">cdr</text>
</g>
<!-- A -->
<g id="node5" class="node">
<title>A</title>
<ellipse fill="none" stroke="#888888" cx="84" cy="-47.1" rx="18" ry="18"/>
<text text-anchor="middle" x="84" y="-41.68" font-family="Arial" font-size="14.00">a&#39;</text>
</g>
<!-- AxB&#45;&gt;A -->
<g id="edge6" class="edge">
<title>AxB&#45;&gt;A</title>
<path fill="none" stroke="#888888" d="M110.74,-132.47C104.54,-112.91 97.81,-91.68 92.66,-75.41"/>
<polygon fill="#888888" stroke="#888888" points="96.02,-74.46 89.67,-65.98 89.35,-76.57 96.02,-74.46"/>
<text text-anchor="middle" x="112.74" y="-98.66" font-family="Arial" font-size="14.00">car</text>
</g>
<!-- B -->
<g id="node6" class="node">
<title>B</title>
<ellipse fill="none" stroke="#888888" cx="154" cy="-47.1" rx="18" ry="18"/>
<text text-anchor="middle" x="154" y="-41.68" font-family="Arial" font-size="14.00">b&#39;</text>
</g>
<!-- AxB&#45;&gt;B -->
<g id="edge7" class="edge">
<title>AxB&#45;&gt;B</title>
<path fill="none" stroke="#888888" d="M138.58,-130.47C142.07,-111.81 145.81,-91.85 148.73,-76.25"/>
<polygon fill="#888888" stroke="#888888" points="152.11,-77.23 150.51,-66.76 145.23,-75.94 152.11,-77.23"/>
<text text-anchor="middle" x="154.22" y="-98.66" font-family="Arial" font-size="14.00">cdr</text>
</g>
<!-- a&#45;&gt;A -->
<g id="edge4" class="edge">
<title>a&#45;&gt;A</title>
<path fill="none" stroke="#888888" d="M39.93,-170.47C48.39,-146.98 64.02,-103.59 74.21,-75.3"/>
<polygon fill="#888888" stroke="#888888" points="77.47,-76.57 77.56,-65.98 70.88,-74.2 77.47,-76.57"/>
<text text-anchor="middle" x="68.28" y="-98.66" font-family="Arial" font-size="14.00">f</text>
</g>
<!-- b&#45;&gt;B -->
<g id="edge5" class="edge">
<title>b&#45;&gt;B</title>
<path fill="none" stroke="#888888" d="M223.5,-171.82C210.14,-148.03 184.08,-101.64 167.94,-72.92"/>
<polygon fill="#888888" stroke="#888888" points="171.18,-71.53 163.23,-64.53 165.07,-74.96 171.18,-71.53"/>
<text text-anchor="middle" x="192.08" y="-98.66" font-family="Arial" font-size="14.00">g</text>
</g>
<!-- cxd -->
<g id="node7" class="node">
<title>cxd</title>
<ellipse fill="none" stroke="#888888" cx="369" cy="-351.41" rx="31.1" ry="31.1"/>
<text text-anchor="middle" x="369" y="-345.99" font-family="Arial" font-size="14.00">a × b</text>
</g>
<!-- dxc -->
<g id="node8" class="node">
<title>dxc</title>
<ellipse fill="none" stroke="#888888" cx="369" cy="-187.94" rx="31.1" ry="31.1"/>
<text text-anchor="middle" x="369" y="-182.52" font-family="Arial" font-size="14.00">b × a</text>
</g>
<!-- cxd&#45;&gt;dxc -->
<g id="edge8" class="edge">
<title>cxd&#45;&gt;dxc</title>
<path fill="none" stroke="#888888" stroke-dasharray="5,2" d="M369,-320.04C369,-294.86 369,-258.8 369,-230.87"/>
<polygon fill="#888888" stroke="#888888" points="372.5,-230.96 369,-220.96 365.5,-230.96 372.5,-230.96"/>
<text text-anchor="middle" x="372.38" y="-266.37" font-family="Arial" font-size="14.00">γ</text>
</g>
<!-- c -->
<g id="node9" class="node">
<title>c</title>
<ellipse fill="none" stroke="#888888" cx="333" cy="-47.1" rx="18" ry="18"/>
<text text-anchor="middle" x="333" y="-41.68" font-family="Arial" font-size="14.00">a</text>
</g>
<!-- cxd&#45;&gt;c -->
<g id="edge9" class="edge">
<title>cxd&#45;&gt;c</title>
<path fill="none" stroke="#888888" d="M351.04,-325.7C337.46,-305.4 319.94,-275.31 312.5,-245.92 297.42,-186.32 313.24,-113.92 324.27,-75.36"/>
<polygon fill="#888888" stroke="#888888" points="327.56,-76.57 327.06,-65.99 320.85,-74.57 327.56,-76.57"/>
<text text-anchor="start" x="312.5" y="-183.52" font-family="Arial" font-size="14.00">π</text>
<text text-anchor="start" x="322.25" y="-183.52" font-family="Arial" baseline-shift="sub" font-size="14.00">1</text>
</g>
<!-- d -->
<g id="node10" class="node">
<title>d</title>
<ellipse fill="none" stroke="#888888" cx="396" cy="-47.1" rx="18" ry="18"/>
<text text-anchor="middle" x="396" y="-41.68" font-family="Arial" font-size="14.00">b</text>
</g>
<!-- cxd&#45;&gt;d -->
<g id="edge10" class="edge">
<title>cxd&#45;&gt;d</title>
<path fill="none" stroke="#888888" d="M382.55,-323.28C392.06,-302.64 403.95,-273.24 409,-245.92 421.1,-180.49 416.42,-162.08 407,-96.21 406.06,-89.64 404.68,-82.63 403.22,-76.07"/>
<polygon fill="#888888" stroke="#888888" points="406.63,-75.29 400.91,-66.37 399.82,-76.91 406.63,-75.29"/>
<text text-anchor="start" x="416.26" y="-183.52" font-family="Arial" font-size="14.00">π</text>
<text text-anchor="start" x="426.01" y="-183.52" font-family="Arial" baseline-shift="sub" font-size="14.00">2</text>
</g>
<!-- dxc&#45;&gt;c -->
<g id="edge11" class="edge">
<title>dxc&#45;&gt;c</title>
<path fill="none" stroke="#888888" d="M361.37,-157.5C355.11,-133.39 346.33,-99.53 340.2,-75.89"/>
<polygon fill="#888888" stroke="#888888" points="343.63,-75.14 337.73,-66.34 336.85,-76.9 343.63,-75.14"/>
<text text-anchor="start" x="348.84" y="-99.66" font-family="Arial" font-size="14.00">π</text>
<text text-anchor="start" x="358.59" y="-99.66" font-family="Arial" baseline-shift="sub" font-size="14.00">1</text>
</g>
<!-- dxc&#45;&gt;d -->
<g id="edge12" class="edge">
<title>dxc&#45;&gt;d</title>
<path fill="none" stroke="#888888" d="M374.79,-157.16C379.44,-133.27 385.91,-99.98 390.48,-76.48"/>
<polygon fill="#888888" stroke="#888888" points="393.92,-77.15 392.39,-66.67 387.05,-75.81 393.92,-77.15"/>
<text text-anchor="start" x="386.5" y="-99.66" font-family="Arial" font-size="14.00">π</text>
<text text-anchor="start" x="396.25" y="-99.66" font-family="Arial" baseline-shift="sub" font-size="14.00">2</text>
</g>
<!-- Jxkxl -->
<g id="node11" class="node">
<title>Jxkxl</title>
<ellipse fill="none" stroke="#888888" cx="615" cy="-351.41" rx="52.06" ry="52.06"/>
<text text-anchor="middle" x="615" y="-345.99" font-family="Arial" font-size="14.00">a × (b × c)</text>
</g>
<!-- jxkxL -->
<g id="node12" class="node">
<title>jxkxL</title>
<ellipse fill="none" stroke="#888888" cx="615" cy="-187.94" rx="52.06" ry="52.06"/>
<text text-anchor="middle" x="615" y="-182.52" font-family="Arial" font-size="14.00">(a × b) × c</text>
</g>
<!-- Jxkxl&#45;&gt;jxkxL -->
<g id="edge13" class="edge">
<title>Jxkxl&#45;&gt;jxkxL</title>
<path fill="none" stroke="#888888" stroke-dasharray="5,2" d="M615,-298.88C615,-283.8 615,-267.15 615,-251.47"/>
<polygon fill="#888888" stroke="#888888" points="618.5,-251.78 615,-241.78 611.5,-251.78 618.5,-251.78"/>
<text text-anchor="middle" x="619.12" y="-266.37" font-family="Arial" font-size="14.00">α</text>
</g>
<!-- JxK -->
<g id="node13" class="node">
<title>JxK</title>
<ellipse fill="none" stroke="#888888" cx="556" cy="-47.1" rx="31.1" ry="31.1"/>
<text text-anchor="middle" x="556" y="-41.68" font-family="Arial" font-size="14.00">a × b</text>
</g>
<!-- Jxkxl&#45;&gt;JxK -->
<g id="edge15" class="edge">
<title>Jxkxl&#45;&gt;JxK</title>
<path fill="none" stroke="#888888" d="M571.19,-322.52C546.58,-304.1 518.13,-277.57 504.5,-245.92 484.11,-198.59 490.22,-179.48 504.5,-129.96 509.57,-112.39 519.64,-94.96 529.54,-80.73"/>
<polygon fill="#888888" stroke="#888888" points="532.37,-82.8 535.42,-72.65 526.71,-78.68 532.37,-82.8"/>
<text text-anchor="start" x="504.5" y="-183.52" font-family="Arial" font-size="14.00">id</text>
<text text-anchor="start" x="515" y="-183.52" font-family="Arial" baseline-shift="sub" font-size="14.00">a</text>
<text text-anchor="start" x="521.75" y="-183.52" font-family="Arial" font-size="14.00"> × π</text>
<text text-anchor="start" x="547.25" y="-183.52" font-family="Arial" baseline-shift="sub" font-size="14.00">1</text>
</g>
<!-- KxL -->
<g id="node14" class="node">
<title>KxL</title>
<ellipse fill="none" stroke="#888888" cx="716" cy="-187.94" rx="30.61" ry="30.61"/>
<text text-anchor="middle" x="716" y="-182.52" font-family="Arial" font-size="14.00">b × c</text>
</g>
<!-- Jxkxl&#45;&gt;KxL -->
<g id="edge14" class="edge">
<title>Jxkxl&#45;&gt;KxL</title>
<path fill="none" stroke="#888888" d="M642.33,-306.72C658.56,-280.78 678.86,-248.32 694.04,-224.06"/>
<polygon fill="#888888" stroke="#888888" points="696.86,-226.15 699.19,-215.81 690.92,-222.43 696.86,-226.15"/>
<text text-anchor="start" x="668.53" y="-267.37" font-family="Arial" font-size="14.00">π</text>
<text text-anchor="start" x="678.28" y="-267.37" font-family="Arial" baseline-shift="sub" font-size="14.00">2</text>
</g>
<!-- jxkxL&#45;&gt;JxK -->
<g id="edge16" class="edge">
<title>jxkxL&#45;&gt;JxK</title>
<path fill="none" stroke="#888888" d="M594.86,-139.55C587.52,-122.28 579.32,-102.98 572.35,-86.58"/>
<polygon fill="#888888" stroke="#888888" points="575.69,-85.5 568.56,-77.66 569.25,-88.24 575.69,-85.5"/>
<text text-anchor="start" x="581.97" y="-99.66" font-family="Arial" font-size="14.00">π</text>
<text text-anchor="start" x="591.72" y="-99.66" font-family="Arial" baseline-shift="sub" font-size="14.00">1</text>
</g>
<!-- L -->
<g id="node15" class="node">
<title>L</title>
<ellipse fill="none" stroke="#888888" cx="651" cy="-47.1" rx="18" ry="18"/>
<text text-anchor="middle" x="651" y="-41.68" font-family="Arial" font-size="14.00">c</text>
</g>
<!-- jxkxL&#45;&gt;L -->
<g id="edge17" class="edge">
<title>jxkxL&#45;&gt;L</title>
<path fill="none" stroke="#888888" d="M627.9,-137.21C633.24,-116.6 639.24,-93.47 643.78,-75.94"/>
<polygon fill="#888888" stroke="#888888" points="647.17,-76.82 646.29,-66.26 640.39,-75.06 647.17,-76.82"/>
<text text-anchor="start" x="638.33" y="-99.66" font-family="Arial" font-size="14.00">π</text>
<text text-anchor="start" x="648.08" y="-99.66" font-family="Arial" baseline-shift="sub" font-size="14.00">2</text>
</g>
<!-- KxL&#45;&gt;L -->
<g id="edge18" class="edge">
<title>KxL&#45;&gt;L</title>
<path fill="none" stroke="#888888" d="M703.31,-159.84C691.71,-135.07 674.67,-98.67 663.22,-74.21"/>
<polygon fill="#888888" stroke="#888888" points="666.45,-72.84 659.04,-65.27 660.11,-75.81 666.45,-72.84"/>
<text text-anchor="start" x="679.61" y="-99.66" font-family="Arial" font-size="14.00">π</text>
<text text-anchor="start" x="689.36" y="-99.66" font-family="Arial" baseline-shift="sub" font-size="14.00">2</text>
</g>
<!-- x -->
<g id="node16" class="node">
<title>x</title>
<ellipse fill="none" stroke="#888888" cx="855" cy="-351.41" rx="18" ry="18"/>
<text text-anchor="middle" x="855" y="-345.99" font-family="Arial" font-size="14.00">a</text>
</g>
<!-- xx -->
<g id="node17" class="node">
<title>xx</title>
<ellipse fill="none" stroke="#888888" cx="819" cy="-47.1" rx="18" ry="18"/>
<text text-anchor="middle" x="819" y="-41.68" font-family="Arial" font-size="14.00">a</text>
</g>
<!-- x&#45;&gt;xx -->
<g id="edge22" class="edge">
<title>x&#45;&gt;xx</title>
<path fill="none" stroke="#888888" d="M844.37,-336.51C830.45,-317.35 806.78,-281.19 797.75,-245.92 782.5,-186.33 798.75,-113.93 810.05,-75.37"/>
<polygon fill="#888888" stroke="#888888" points="813.34,-76.57 812.92,-65.99 806.65,-74.53 813.34,-76.57"/>
<text text-anchor="start" x="797.75" y="-183.52" font-family="Arial" font-size="14.00">id</text>
<text text-anchor="start" x="808.25" y="-183.52" font-family="Arial" baseline-shift="sub" font-size="14.00">a</text>
</g>
<!-- u -->
<g id="node18" class="node">
<title>u</title>
<ellipse fill="none" stroke="#888888" cx="882" cy="-47.1" rx="18" ry="18"/>
<text text-anchor="middle" x="882" y="-41.68" font-family="Arial" font-size="14.00">1</text>
</g>
<!-- x&#45;&gt;u -->
<g id="edge23" class="edge">
<title>x&#45;&gt;u</title>
<path fill="none" stroke="#888888" d="M862.96,-335.01C872.77,-315.07 888.89,-278.97 895,-245.92 907.1,-180.49 902.42,-162.08 893,-96.21 892.06,-89.64 890.68,-82.63 889.22,-76.07"/>
<polygon fill="#888888" stroke="#888888" points="892.63,-75.29 886.91,-66.37 885.82,-76.91 892.63,-75.29"/>
<text text-anchor="middle" x="904.13" y="-182.52" font-family="Arial" font-size="14.00">!</text>
</g>
<!-- ux -->
<g id="node19" class="node">
<title>ux</title>
<ellipse fill="none" stroke="#888888" cx="855" cy="-187.94" rx="31.1" ry="31.1"/>
<text text-anchor="middle" x="855" y="-182.52" font-family="Arial" font-size="14.00">1 × a</text>
</g>
<!-- x&#45;&gt;ux -->
<g id="edge19" class="edge">
<title>x&#45;&gt;ux</title>
<path fill="none" stroke="#888888" stroke-dasharray="5,2" d="M855,-333.13C855,-308.83 855,-263.79 855,-230.49"/>
<polygon fill="#888888" stroke="#888888" points="858.5,-230.77 855,-220.77 851.5,-230.77 858.5,-230.77"/>
<text text-anchor="start" x="855" y="-267.37" font-family="Arial" font-size="14.00">λ</text>
<text text-anchor="start" x="861.75" y="-267.37" font-family="Arial" baseline-shift="super" font-size="14.00">&#45;1</text>
</g>
<!-- ux&#45;&gt;xx -->
<g id="edge21" class="edge">
<title>ux&#45;&gt;xx</title>
<path fill="none" stroke="#888888" d="M847.37,-157.5C841.11,-133.39 832.33,-99.53 826.2,-75.89"/>
<polygon fill="#888888" stroke="#888888" points="829.63,-75.14 823.73,-66.34 822.85,-76.9 829.63,-75.14"/>
<text text-anchor="start" x="834.84" y="-99.66" font-family="Arial" font-size="14.00">π</text>
<text text-anchor="start" x="844.59" y="-99.66" font-family="Arial" baseline-shift="sub" font-size="14.00">2</text>
</g>
<!-- ux&#45;&gt;u -->
<g id="edge20" class="edge">
<title>ux&#45;&gt;u</title>
<path fill="none" stroke="#888888" d="M860.79,-157.16C865.44,-133.27 871.91,-99.98 876.48,-76.48"/>
<polygon fill="#888888" stroke="#888888" points="879.92,-77.15 878.39,-66.67 873.05,-75.81 879.92,-77.15"/>
<text text-anchor="start" x="872.5" y="-99.66" font-family="Arial" font-size="14.00">π</text>
<text text-anchor="start" x="882.25" y="-99.66" font-family="Arial" baseline-shift="sub" font-size="14.00">1</text>
</g>
<!-- X -->
<g id="node20" class="node">
<title>X</title>
<ellipse fill="none" stroke="#888888" cx="1034" cy="-351.41" rx="18" ry="18"/>
<text text-anchor="middle" x="1034" y="-345.99" font-family="Arial" font-size="14.00">a</text>
</g>
<!-- XX -->
<g id="node21" class="node">
<title>XX</title>
<ellipse fill="none" stroke="#888888" cx="998" cy="-47.1" rx="18" ry="18"/>
<text text-anchor="middle" x="998" y="-41.68" font-family="Arial" font-size="14.00">a</text>
</g>
<!-- X&#45;&gt;XX -->
<g id="edge27" class="edge">
<title>X&#45;&gt;XX</title>
<path fill="none" stroke="#888888" d="M1023.37,-336.51C1009.45,-317.35 985.78,-281.19 976.75,-245.92 961.5,-186.33 977.75,-113.93 989.05,-75.37"/>
<polygon fill="#888888" stroke="#888888" points="992.34,-76.57 991.92,-65.99 985.65,-74.53 992.34,-76.57"/>
<text text-anchor="start" x="976.75" y="-183.52" font-family="Arial" font-size="14.00">id</text>
<text text-anchor="start" x="987.25" y="-183.52" font-family="Arial" baseline-shift="sub" font-size="14.00">a</text>
</g>
<!-- U -->
<g id="node22" class="node">
<title>U</title>
<ellipse fill="none" stroke="#888888" cx="1061" cy="-47.1" rx="18" ry="18"/>
<text text-anchor="middle" x="1061" y="-41.68" font-family="Arial" font-size="14.00">1</text>
</g>
<!-- X&#45;&gt;U -->
<g id="edge28" class="edge">
<title>X&#45;&gt;U</title>
<path fill="none" stroke="#888888" d="M1041.96,-335.01C1051.77,-315.07 1067.89,-278.97 1074,-245.92 1086.1,-180.49 1081.42,-162.08 1072,-96.21 1071.06,-89.64 1069.68,-82.63 1068.22,-76.07"/>
<polygon fill="#888888" stroke="#888888" points="1071.63,-75.29 1065.91,-66.37 1064.82,-76.91 1071.63,-75.29"/>
<text text-anchor="middle" x="1083.13" y="-182.52" font-family="Arial" font-size="14.00">!</text>
</g>
<!-- UX -->
<g id="node23" class="node">
<title>UX</title>
<ellipse fill="none" stroke="#888888" cx="1034" cy="-187.94" rx="31.1" ry="31.1"/>
<text text-anchor="middle" x="1034" y="-182.52" font-family="Arial" font-size="14.00">a × 1</text>
</g>
<!-- X&#45;&gt;UX -->
<g id="edge24" class="edge">
<title>X&#45;&gt;UX</title>
<path fill="none" stroke="#888888" stroke-dasharray="5,2" d="M1034,-333.13C1034,-308.83 1034,-263.79 1034,-230.49"/>
<polygon fill="#888888" stroke="#888888" points="1037.5,-230.77 1034,-220.77 1030.5,-230.77 1037.5,-230.77"/>
<text text-anchor="start" x="1034" y="-267.37" font-family="Arial" font-size="14.00">ρ</text>
<text text-anchor="start" x="1042.25" y="-267.37" font-family="Arial" baseline-shift="super" font-size="14.00">&#45;1</text>
</g>
<!-- UX&#45;&gt;XX -->
<g id="edge26" class="edge">
<title>UX&#45;&gt;XX</title>
<path fill="none" stroke="#888888" d="M1026.37,-157.5C1020.11,-133.39 1011.33,-99.53 1005.2,-75.89"/>
<polygon fill="#888888" stroke="#888888" points="1008.63,-75.14 1002.73,-66.34 1001.85,-76.9 1008.63,-75.14"/>
<text text-anchor="start" x="1013.84" y="-99.66" font-family="Arial" font-size="14.00">π</text>
<text text-anchor="start" x="1023.59" y="-99.66" font-family="Arial" baseline-shift="sub" font-size="14.00">1</text>
</g>
<!-- UX&#45;&gt;U -->
<g id="edge25" class="edge">
<title>UX&#45;&gt;U</title>
<path fill="none" stroke="#888888" d="M1039.79,-157.16C1044.44,-133.27 1050.91,-99.98 1055.48,-76.48"/>
<polygon fill="#888888" stroke="#888888" points="1058.92,-77.15 1057.39,-66.67 1052.05,-75.81 1058.92,-77.15"/>
<text text-anchor="start" x="1051.5" y="-99.66" font-family="Arial" font-size="14.00">π</text>
<text text-anchor="start" x="1061.25" y="-99.66" font-family="Arial" baseline-shift="sub" font-size="14.00">2</text>
</g>
</g>
</svg>
