<?xml version="1.0" encoding="UTF-8" standalone="no"?>
<!DOCTYPE svg PUBLIC "-//W3C//DTD SVG 1.1//EN"
 "http://www.w3.org/Graphics/SVG/1.1/DTD/svg11.dtd">
<!-- Generated by graphviz version 12.2.0 (20241103.1931)
 -->
<!-- Pages: 1 -->
<svg width="320pt" height="215pt"
 viewBox="0.00 0.00 320.00 215.25" xmlns="http://www.w3.org/2000/svg" xmlns:xlink="http://www.w3.org/1999/xlink">
<g id="graph0" class="graph" transform="scale(1 1) rotate(0) translate(4 211.25)">
<g id="clust1" class="cluster">
<title>cluster_projection</title>
<polygon fill="none" stroke="#888888" points="8,-8 8,-199.25 152,-199.25 152,-8 8,-8"/>
<text text-anchor="middle" x="80" y="-181.95" font-family="Arial" font-size="14.00">projection</text>
</g>
<g id="clust2" class="cluster">
<title>cluster_coproduct</title>
<polygon fill="none" stroke="#888888" points="160,-8 160,-199.25 304,-199.25 304,-8 160,-8"/>
<text text-anchor="middle" x="232" y="-181.95" font-family="Arial" font-size="14.00">coproduct</text>
</g>
<!-- pX -->
<g id="node1" class="node">
<title>pX</title>
<text text-anchor="middle" x="80" y="-154.2" font-family="Arial" font-size="14.00">X</text>
</g>
<!-- pA -->
<g id="node2" class="node">
<title>pA</title>
<text text-anchor="middle" x="50" y="-18.45" font-family="Arial" font-size="14.00">A</text>
</g>
<!-- pX&#45;&gt;pA -->
<g id="edge1" class="edge">
<title>pX&#45;&gt;pA</title>
<path fill="none" stroke="#888888" d="M75.51,-153.61C67.28,-144.03 50.03,-122.1 43.75,-100 38.33,-80.92 41.52,-58.1 45.02,-42.66"/>
<polygon fill="#888888" stroke="#888888" points="48.37,-43.69 47.48,-33.13 41.59,-41.94 48.37,-43.69"/>
<text text-anchor="start" x="43.75" y="-87.33" font-family="Arial" font-size="14.00">f</text>
<text text-anchor="start" x="47.5" y="-87.33" font-family="Arial" baseline-shift="sub" font-size="14.00">A</text>
</g>
<!-- pB -->
<g id="node3" class="node">
<title>pB</title>
<text text-anchor="middle" x="120" y="-18.45" font-family="Arial" font-size="14.00">B</text>
</g>
<!-- pX&#45;&gt;pB -->
<g id="edge2" class="edge">
<title>pX&#45;&gt;pB</title>
<path fill="none" stroke="#888888" d="M84.27,-152.22C93.72,-137.61 116.17,-100.4 124,-65.5 125.65,-58.15 125.24,-49.91 124.2,-42.77"/>
<polygon fill="#888888" stroke="#888888" points="127.65,-42.17 122.24,-33.05 120.78,-43.55 127.65,-42.17"/>
<text text-anchor="start" x="118.33" y="-87.33" font-family="Arial" font-size="14.00">f</text>
<text text-anchor="start" x="122.08" y="-87.33" font-family="Arial" baseline-shift="sub" font-size="14.00">B</text>
</g>
<!-- pAxB -->
<g id="node4" class="node">
<title>pAxB</title>
<text text-anchor="middle" x="80" y="-86.33" font-family="Arial" font-size="14.00">A × B</text>
</g>
<!-- pX&#45;&gt;pAxB -->
<g id="edge3" class="edge">
<title>pX&#45;&gt;pAxB</title>
<path fill="none" stroke="#888888" stroke-dasharray="5,2" d="M80,-152.07C80,-142.5 80,-124.36 80,-110.65"/>
<polygon fill="#888888" stroke="#888888" points="83.5,-110.79 80,-100.79 76.5,-110.79 83.5,-110.79"/>
<text text-anchor="middle" x="81.88" y="-120.45" font-family="Arial" font-size="14.00">f</text>
</g>
<!-- pAxB&#45;&gt;pA -->
<g id="edge4" class="edge">
<title>pAxB&#45;&gt;pA</title>
<path fill="none" stroke="#888888" d="M77.01,-84.19C72.52,-74.33 63.88,-55.35 57.58,-41.51"/>
<polygon fill="#888888" stroke="#888888" points="60.93,-40.43 53.6,-32.78 54.56,-43.33 60.93,-40.43"/>
<text text-anchor="start" x="67.69" y="-53.2" font-family="Arial" font-size="14.00">p</text>
<text text-anchor="start" x="75.19" y="-53.2" font-family="Arial" baseline-shift="sub" font-size="14.00">A</text>
</g>
<!-- pAxB&#45;&gt;pB -->
<g id="edge5" class="edge">
<title>pAxB&#45;&gt;pB</title>
<path fill="none" stroke="#888888" d="M83.98,-84.19C90.03,-74.23 101.72,-54.97 110.15,-41.1"/>
<polygon fill="#888888" stroke="#888888" points="113.05,-43.06 115.25,-32.7 107.07,-39.43 113.05,-43.06"/>
<text text-anchor="start" x="104.76" y="-53.2" font-family="Arial" font-size="14.00">p</text>
<text text-anchor="start" x="112.26" y="-53.2" font-family="Arial" baseline-shift="sub" font-size="14.00">B</text>
</g>
<!-- cX -->
<g id="node5" class="node">
<title>cX</title>
<text text-anchor="middle" x="232" y="-154.2" font-family="Arial" font-size="14.00">X</text>
</g>
<!-- cA -->
<g id="node6" class="node">
<title>cA</title>
<text text-anchor="middle" x="202" y="-18.45" font-family="Arial" font-size="14.00">A</text>
</g>
<!-- cX&#45;&gt;cA -->
<g id="edge6" class="edge">
<title>cX&#45;&gt;cA</title>
<path fill="none" stroke="#888888" d="M220.5,-144.99C211.8,-133.74 200.56,-116.92 195.75,-100 188.81,-75.58 195.98,-45.03 199.86,-31.66"/>
<polygon fill="#888888" stroke="#888888" points="217.53,-146.89 226.56,-152.44 222.96,-142.47 217.53,-146.89"/>
<text text-anchor="start" x="195.75" y="-87.33" font-family="Arial" font-size="14.00">f</text>
<text text-anchor="start" x="199.5" y="-87.33" font-family="Arial" baseline-shift="sub" font-size="14.00">A</text>
</g>
<!-- cB -->
<g id="node7" class="node">
<title>cB</title>
<text text-anchor="middle" x="272" y="-18.45" font-family="Arial" font-size="14.00">B</text>
</g>
<!-- cX&#45;&gt;cB -->
<g id="edge7" class="edge">
<title>cX&#45;&gt;cB</title>
<path fill="none" stroke="#888888" d="M242.31,-142.55C253.16,-124.6 269.55,-94.26 276,-65.5 278.64,-53.74 276.01,-39.69 273.94,-31.57"/>
<polygon fill="#888888" stroke="#888888" points="239.4,-140.6 237.07,-150.93 245.34,-144.31 239.4,-140.6"/>
<text text-anchor="start" x="270.33" y="-87.33" font-family="Arial" font-size="14.00">f</text>
<text text-anchor="start" x="274.08" y="-87.33" font-family="Arial" baseline-shift="sub" font-size="14.00">B</text>
</g>
<!-- cAxB -->
<g id="node8" class="node">
<title>cAxB</title>
<text text-anchor="middle" x="232" y="-86.7" font-family="Arial" font-size="14.00">A ⨿ B</text>
</g>
<!-- cX&#45;&gt;cAxB -->
<g id="edge8" class="edge">
<title>cX&#45;&gt;cAxB</title>
<path fill="none" stroke="#888888" stroke-dasharray="5,2" d="M232,-140.83C232,-127.28 232,-109.36 232,-99.68"/>
<polygon fill="#888888" stroke="#888888" points="228.5,-140.55 232,-150.55 235.5,-140.55 228.5,-140.55"/>
<text text-anchor="middle" x="233.88" y="-120.45" font-family="Arial" font-size="14.00">f</text>
</g>
<!-- cAxB&#45;&gt;cA -->
<g id="edge9" class="edge">
<title>cAxB&#45;&gt;cA</title>
<path fill="none" stroke="#888888" d="M224.2,-73.62C217.97,-59.94 209.57,-41.49 205.1,-31.68"/>
<polygon fill="#888888" stroke="#888888" points="220.83,-74.67 228.16,-82.32 227.2,-71.77 220.83,-74.67"/>
<text text-anchor="start" x="219.69" y="-53.2" font-family="Arial" font-size="14.00">p</text>
<text text-anchor="start" x="227.19" y="-53.2" font-family="Arial" baseline-shift="sub" font-size="14.00">A</text>
</g>
<!-- cAxB&#45;&gt;cB -->
<g id="edge10" class="edge">
<title>cAxB&#45;&gt;cB</title>
<path fill="none" stroke="#888888" d="M242.15,-74.03C250.48,-60.31 261.85,-41.59 267.87,-31.68"/>
<polygon fill="#888888" stroke="#888888" points="239.26,-72.04 237.07,-82.41 245.25,-75.68 239.26,-72.04"/>
<text text-anchor="start" x="256.76" y="-53.2" font-family="Arial" font-size="14.00">p</text>
<text text-anchor="start" x="264.26" y="-53.2" font-family="Arial" baseline-shift="sub" font-size="14.00">B</text>
</g>
</g>
</svg>
