<?xml version="1.0" encoding="UTF-8" standalone="no"?>
<!DOCTYPE svg PUBLIC "-//W3C//DTD SVG 1.1//EN"
 "http://www.w3.org/Graphics/SVG/1.1/DTD/svg11.dtd">
<!-- Generated by graphviz version 12.2.0 (20241103.1931)
 -->
<!-- Pages: 1 -->
<svg width="428pt" height="328pt"
 viewBox="0.00 0.00 427.91 328.00" xmlns="http://www.w3.org/2000/svg" xmlns:xlink="http://www.w3.org/1999/xlink">
<g id="graph0" class="graph" transform="scale(1 1) rotate(0) translate(4 324)">
<g id="clust1" class="cluster">
<title>cluster_C</title>
<polygon fill="#a6d0dd" fill-opacity="0.800000" stroke="#888888" stroke-dasharray="5,2" points="18.11,-8 18.11,-146 401.8,-146 401.8,-8 18.11,-8"/>
</g>
<g id="clust2" class="cluster">
<title>cluster_D</title>
<polygon fill="#ff6969" fill-opacity="0.800000" stroke="#888888" stroke-dasharray="5,2" points="8,-154 8,-312 411.91,-312 411.91,-154 8,-154"/>
</g>
<!-- A -->
<g id="node1" class="node">
<title>A</title>
<ellipse fill="none" stroke="#888888" cx="44.11" cy="-34" rx="18" ry="18"/>
<text text-anchor="middle" x="44.11" y="-28.57" font-family="Arial" font-size="14.00">A</text>
</g>
<!-- A&#45;&gt;A -->
<g id="edge4" class="edge">
<title>A&#45;&gt;A</title>
<path fill="none" stroke="#888888" d="M29.08,-44.69C19.06,-56.5 24.07,-70 44.11,-70 58.35,-70 65,-63.18 64.06,-54.99"/>
<polygon fill="#888888" stroke="#888888" points="67.26,-53.57 59.79,-46.05 60.94,-56.59 67.26,-53.57"/>
<text text-anchor="start" x="35.11" y="-73.45" font-family="Arial" font-size="14.00">id</text>
<text text-anchor="start" x="45.61" y="-73.45" font-family="Arial" baseline-shift="sub" font-size="14.00">A</text>
</g>
<!-- C -->
<g id="node2" class="node">
<title>C</title>
<ellipse fill="none" stroke="#888888" cx="258.33" cy="-34" rx="18" ry="18"/>
<text text-anchor="middle" x="258.33" y="-28.57" font-family="Arial" font-size="14.00">C</text>
</g>
<!-- A&#45;&gt;C -->
<g id="edge1" class="edge">
<title>A&#45;&gt;C</title>
<path fill="none" stroke="#888888" d="M62.48,-34C98.94,-34 183.8,-34 228.54,-34"/>
<polygon fill="#888888" stroke="#888888" points="228.51,-37.5 238.51,-34 228.51,-30.5 228.51,-37.5"/>
<text text-anchor="middle" x="150.97" y="-36.45" font-family="Arial" font-size="14.00">g ○ f</text>
</g>
<!-- B -->
<g id="node3" class="node">
<title>B</title>
<ellipse fill="none" stroke="#888888" cx="375.8" cy="-34" rx="18" ry="18"/>
<text text-anchor="middle" x="375.8" y="-28.57" font-family="Arial" font-size="14.00">B</text>
</g>
<!-- A&#45;&gt;B -->
<g id="edge2" class="edge">
<title>A&#45;&gt;B</title>
<path fill="none" stroke="#888888" d="M59.99,-43.46C98.11,-66.45 202.23,-121.52 286.94,-95 312.66,-86.95 337.45,-68.42 354.1,-53.88"/>
<polygon fill="#888888" stroke="#888888" points="356.28,-56.63 361.35,-47.33 351.59,-51.44 356.28,-56.63"/>
<text text-anchor="middle" x="258.33" y="-104.51" font-family="Arial" font-size="14.00">f</text>
</g>
<!-- FA -->
<g id="node4" class="node">
<title>FA</title>
<ellipse fill="none" stroke="#888888" cx="44.11" cy="-242" rx="28.11" ry="28.11"/>
<text text-anchor="middle" x="44.11" y="-236.57" font-family="Arial" font-size="14.00">F(A)</text>
</g>
<!-- A&#45;&gt;FA -->
<g id="edge13" class="edge">
<title>A&#45;&gt;FA</title>
<path fill="none" stroke="#888888" stroke-dasharray="5,2" d="M44.11,-52.46C44.11,-85.86 44.11,-157.04 44.11,-202.04"/>
<polygon fill="#888888" stroke="#888888" points="40.61,-201.92 44.11,-211.92 47.61,-201.92 40.61,-201.92"/>
<text text-anchor="middle" x="33.24" y="-127.52" font-family="Arial" font-size="14.00">F</text>
</g>
<!-- C&#45;&gt;C -->
<g id="edge6" class="edge">
<title>C&#45;&gt;C</title>
<path fill="none" stroke="#888888" d="M248.35,-49.17C245.33,-59.66 248.65,-70 258.33,-70 264.38,-70 267.94,-65.96 269.03,-60.37"/>
<polygon fill="#888888" stroke="#888888" points="272.54,-60.43 268.41,-50.68 265.56,-60.88 272.54,-60.43"/>
<text text-anchor="start" x="248.95" y="-73.45" font-family="Arial" font-size="14.00">id</text>
<text text-anchor="start" x="259.45" y="-73.45" font-family="Arial" baseline-shift="sub" font-size="14.00">C</text>
</g>
<!-- C&#45;&gt;B -->
<g id="edge3" class="edge">
<title>C&#45;&gt;B</title>
<path fill="none" stroke="#888888" d="M287.87,-34C309.63,-34 338.9,-34 357.31,-34"/>
<polygon fill="#888888" stroke="#888888" points="287.88,-30.5 277.88,-34 287.88,-37.5 287.88,-30.5"/>
<text text-anchor="middle" x="317.31" y="-36.45" font-family="Arial" font-size="14.00">g</text>
</g>
<!-- FC -->
<g id="node6" class="node">
<title>FC</title>
<ellipse fill="none" stroke="#888888" cx="258.33" cy="-242" rx="28.61" ry="28.61"/>
<text text-anchor="middle" x="258.33" y="-236.57" font-family="Arial" font-size="14.00">F(C)</text>
</g>
<!-- C&#45;&gt;FC -->
<g id="edge15" class="edge">
<title>C&#45;&gt;FC</title>
<path fill="none" stroke="#888888" stroke-dasharray="5,2" d="M241.52,-41.7C210.23,-57.26 147.69,-94.71 164.74,-138.88 177.06,-170.79 204.36,-198.93 226.31,-217.72"/>
<polygon fill="#888888" stroke="#888888" points="223.92,-220.29 233.86,-223.97 228.39,-214.9 223.92,-220.29"/>
<text text-anchor="middle" x="150.97" y="-125.58" font-family="Arial" font-size="14.00">F</text>
</g>
<!-- B&#45;&gt;B -->
<g id="edge5" class="edge">
<title>B&#45;&gt;B</title>
<path fill="none" stroke="#888888" d="M365.8,-49.54C362.98,-59.91 366.32,-70 375.8,-70 381.58,-70 385.07,-66.25 386.28,-60.98"/>
<polygon fill="#888888" stroke="#888888" points="389.78,-60.9 385.86,-51.05 382.79,-61.19 389.78,-60.9"/>
<text text-anchor="start" x="366.8" y="-73.45" font-family="Arial" font-size="14.00">id</text>
<text text-anchor="start" x="377.3" y="-73.45" font-family="Arial" baseline-shift="sub" font-size="14.00">B</text>
</g>
<!-- FB -->
<g id="node5" class="node">
<title>FB</title>
<ellipse fill="none" stroke="#888888" cx="375.8" cy="-242" rx="28.11" ry="28.11"/>
<text text-anchor="middle" x="375.8" y="-236.57" font-family="Arial" font-size="14.00">F(B)</text>
</g>
<!-- B&#45;&gt;FB -->
<g id="edge14" class="edge">
<title>B&#45;&gt;FB</title>
<path fill="none" stroke="#888888" stroke-dasharray="5,2" d="M375.8,-52.46C375.8,-85.86 375.8,-157.04 375.8,-202.04"/>
<polygon fill="#888888" stroke="#888888" points="372.3,-201.92 375.8,-211.92 379.3,-201.92 372.3,-201.92"/>
<text text-anchor="middle" x="364.92" y="-127.52" font-family="Arial" font-size="14.00">F</text>
</g>
<!-- FA&#45;&gt;FA -->
<g id="edge10" class="edge">
<title>FA&#45;&gt;FA</title>
<path fill="none" stroke="#888888" d="M25.33,-263.34C21.15,-276.1 27.41,-288.11 44.11,-288.11 55.59,-288.11 62.14,-282.43 63.75,-274.74"/>
<polygon fill="#888888" stroke="#888888" points="67.25,-274.56 63.01,-264.85 60.27,-275.09 67.25,-274.56"/>
<text text-anchor="start" x="2.11" y="-291.56" font-family="Arial" font-size="14.00">id</text>
<text text-anchor="start" x="12.61" y="-291.56" font-family="Arial" baseline-shift="sub" font-size="14.00">F(A)</text>
<text text-anchor="start" x="35.11" y="-291.56" font-family="Arial" font-size="14.00"> = F(id</text>
<text text-anchor="start" x="74.11" y="-291.56" font-family="Arial" baseline-shift="sub" font-size="14.00">A</text>
<text text-anchor="start" x="81.61" y="-291.56" font-family="Arial" font-size="14.00">)</text>
</g>
<!-- FA&#45;&gt;FB -->
<g id="edge8" class="edge">
<title>FA&#45;&gt;FB</title>
<path fill="none" stroke="#888888" d="M69.36,-228.71C113.17,-206.44 208.28,-166.1 286.94,-188.25 307.8,-194.13 328.6,-206.49 344.73,-217.88"/>
<polygon fill="#888888" stroke="#888888" points="342.29,-220.43 352.42,-223.52 346.43,-214.78 342.29,-220.43"/>
<text text-anchor="middle" x="258.33" y="-190.7" font-family="Arial" font-size="14.00">F(f)</text>
</g>
<!-- FA&#45;&gt;FC -->
<g id="edge7" class="edge">
<title>FA&#45;&gt;FC</title>
<path fill="none" stroke="#888888" d="M72.42,-242C109.46,-242 175.86,-242 218.19,-242"/>
<polygon fill="#888888" stroke="#888888" points="217.94,-245.5 227.94,-242 217.94,-238.5 217.94,-245.5"/>
<text text-anchor="middle" x="150.97" y="-244.45" font-family="Arial" font-size="14.00">F(g) ○ F(f) = F(f ○ g)</text>
</g>
<!-- FB&#45;&gt;FB -->
<g id="edge11" class="edge">
<title>FB&#45;&gt;FB</title>
<path fill="none" stroke="#888888" d="M364.93,-268.07C364.18,-278.92 367.8,-288.11 375.8,-288.11 380.8,-288.11 384.09,-284.52 385.67,-279.18"/>
<polygon fill="#888888" stroke="#888888" points="389.12,-279.85 386.53,-269.58 382.15,-279.22 389.12,-279.85"/>
<text text-anchor="start" x="333.8" y="-291.56" font-family="Arial" font-size="14.00">id</text>
<text text-anchor="start" x="344.3" y="-291.56" font-family="Arial" baseline-shift="sub" font-size="14.00">F(B)</text>
<text text-anchor="start" x="366.8" y="-291.56" font-family="Arial" font-size="14.00"> = F(id</text>
<text text-anchor="start" x="405.8" y="-291.56" font-family="Arial" baseline-shift="sub" font-size="14.00">B</text>
<text text-anchor="start" x="413.3" y="-291.56" font-family="Arial" font-size="14.00">)</text>
</g>
<!-- FC&#45;&gt;FB -->
<g id="edge9" class="edge">
<title>FC&#45;&gt;FB</title>
<path fill="none" stroke="#888888" d="M298.54,-242C314.64,-242 332.89,-242 347.5,-242"/>
<polygon fill="#888888" stroke="#888888" points="298.79,-238.5 288.79,-242 298.79,-245.5 298.79,-238.5"/>
<text text-anchor="middle" x="317.31" y="-244.45" font-family="Arial" font-size="14.00">F(g)</text>
</g>
<!-- FC&#45;&gt;FC -->
<g id="edge12" class="edge">
<title>FC&#45;&gt;FC</title>
<path fill="none" stroke="#888888" d="M247.34,-268.82C246.72,-279.58 250.38,-288.61 258.33,-288.61 263.17,-288.61 266.43,-285.26 268.09,-280.2"/>
<polygon fill="#888888" stroke="#888888" points="271.56,-280.65 269.16,-270.33 264.6,-279.89 271.56,-280.65"/>
<text text-anchor="start" x="215.58" y="-292.06" font-family="Arial" font-size="14.00">id</text>
<text text-anchor="start" x="226.08" y="-292.06" font-family="Arial" baseline-shift="sub" font-size="14.00">F(C)</text>
<text text-anchor="start" x="249.33" y="-292.06" font-family="Arial" font-size="14.00"> = F(id</text>
<text text-anchor="start" x="288.33" y="-292.06" font-family="Arial" baseline-shift="sub" font-size="14.00">C</text>
<text text-anchor="start" x="296.58" y="-292.06" font-family="Arial" font-size="14.00">)</text>
</g>
</g>
</svg>
