<?xml version="1.0" encoding="UTF-8" standalone="no"?>
<!DOCTYPE svg PUBLIC "-//W3C//DTD SVG 1.1//EN"
 "http://www.w3.org/Graphics/SVG/1.1/DTD/svg11.dtd">
<!-- Generated by graphviz version 12.2.0 (20241103.1931)
 -->
<!-- Pages: 1 -->
<svg width="166pt" height="183pt"
 viewBox="0.00 0.00 166.25 182.75" xmlns="http://www.w3.org/2000/svg" xmlns:xlink="http://www.w3.org/1999/xlink">
<g id="graph0" class="graph" transform="scale(1 1) rotate(0) translate(4 178.75)">
<!-- A -->
<g id="node1" class="node">
<title>A</title>
<ellipse fill="none" stroke="#888888" cx="18" cy="-70" rx="18" ry="18"/>
<text text-anchor="middle" x="18" y="-64.58" font-family="Arial" font-size="14.00">A</text>
</g>
<!-- A&#45;&gt;A -->
<g id="edge4" class="edge">
<title>A&#45;&gt;A</title>
<path fill="none" stroke="#888888" d="M7.66,-85.17C4.52,-95.66 7.97,-106 18,-106 24.27,-106 27.96,-101.96 29.09,-96.37"/>
<polygon fill="#888888" stroke="#888888" points="32.6,-96.42 28.44,-86.68 25.62,-96.89 32.6,-96.42"/>
<text text-anchor="start" x="9" y="-109.45" font-family="Arial" font-size="14.00">id</text>
<text text-anchor="start" x="19.5" y="-109.45" font-family="Arial" baseline-shift="sub" font-size="14.00">A</text>
</g>
<!-- B -->
<g id="node2" class="node">
<title>B</title>
<ellipse fill="none" stroke="#888888" cx="140.25" cy="-123" rx="18" ry="18"/>
<text text-anchor="middle" x="140.25" y="-117.58" font-family="Arial" font-size="14.00">B</text>
</g>
<!-- A&#45;&gt;B -->
<g id="edge1" class="edge">
<title>A&#45;&gt;B</title>
<path fill="none" stroke="#888888" d="M34.72,-76.93C54.62,-85.7 89.17,-100.93 113.07,-111.46"/>
<polygon fill="#888888" stroke="#888888" points="111.58,-114.63 122.14,-115.46 114.4,-108.22 111.58,-114.63"/>
<text text-anchor="middle" x="79.12" y="-109.79" font-family="Arial" font-size="14.00">f</text>
</g>
<!-- C -->
<g id="node3" class="node">
<title>C</title>
<ellipse fill="none" stroke="#888888" cx="140.25" cy="-18" rx="18" ry="18"/>
<text text-anchor="middle" x="140.25" y="-12.57" font-family="Arial" font-size="14.00">C</text>
</g>
<!-- A&#45;&gt;C -->
<g id="edge3" class="edge">
<title>A&#45;&gt;C</title>
<path fill="none" stroke="#888888" d="M34.72,-63.2C54.51,-54.65 88.78,-39.82 112.67,-29.49"/>
<polygon fill="#888888" stroke="#888888" points="113.96,-32.75 121.75,-25.57 111.18,-26.32 113.96,-32.75"/>
<text text-anchor="middle" x="79.12" y="-57.08" font-family="Arial" font-size="14.00">h = f ○ g</text>
</g>
<!-- B&#45;&gt;B -->
<g id="edge5" class="edge">
<title>B&#45;&gt;B</title>
<path fill="none" stroke="#888888" d="M129.91,-138.17C126.77,-148.66 130.22,-159 140.25,-159 146.52,-159 150.21,-154.96 151.34,-149.37"/>
<polygon fill="#888888" stroke="#888888" points="154.85,-149.42 150.69,-139.68 147.87,-149.89 154.85,-149.42"/>
<text text-anchor="start" x="131.25" y="-162.45" font-family="Arial" font-size="14.00">id</text>
<text text-anchor="start" x="141.75" y="-162.45" font-family="Arial" baseline-shift="sub" font-size="14.00">B</text>
</g>
<!-- B&#45;&gt;C -->
<g id="edge2" class="edge">
<title>B&#45;&gt;C</title>
<path fill="none" stroke="#888888" d="M140.25,-104.57C140.25,-88.89 140.25,-66.07 140.25,-47.79"/>
<polygon fill="#888888" stroke="#888888" points="143.75,-47.8 140.25,-37.8 136.75,-47.8 143.75,-47.8"/>
<text text-anchor="middle" x="129.38" y="-65.08" font-family="Arial" font-size="14.00">g</text>
</g>
<!-- C&#45;&gt;C -->
<g id="edge6" class="edge">
<title>C&#45;&gt;C</title>
<path fill="none" stroke="#888888" d="M129.91,-33.17C126.77,-43.66 130.22,-54 140.25,-54 146.52,-54 150.21,-49.96 151.34,-44.37"/>
<polygon fill="#888888" stroke="#888888" points="154.85,-44.42 150.69,-34.68 147.87,-44.89 154.85,-44.42"/>
<text text-anchor="start" x="130.88" y="-57.45" font-family="Arial" font-size="14.00">id</text>
<text text-anchor="start" x="141.38" y="-57.45" font-family="Arial" baseline-shift="sub" font-size="14.00">C</text>
</g>
</g>
</svg>
