<?xml version="1.0" encoding="UTF-8" standalone="no"?>
<!DOCTYPE svg PUBLIC "-//W3C//DTD SVG 1.1//EN"
 "http://www.w3.org/Graphics/SVG/1.1/DTD/svg11.dtd">
<!-- Generated by graphviz version 12.2.0 (20241103.1931)
 -->
<!-- Pages: 1 -->
<svg width="304pt" height="280pt"
 viewBox="0.00 0.00 304.50 280.00" xmlns="http://www.w3.org/2000/svg" xmlns:xlink="http://www.w3.org/1999/xlink">
<g id="graph0" class="graph" transform="scale(1 1) rotate(0) translate(4 276)">
<g id="clust1" class="cluster">
<title>cluster_terminal</title>
<polygon fill="none" stroke="#888888" points="158.25,-8 158.25,-264 288.5,-264 288.5,-8 158.25,-8"/>
<text text-anchor="middle" x="223.37" y="-246.7" font-family="Arial" font-size="14.00">terminal object</text>
</g>
<g id="clust3" class="cluster">
<title>cluster_initial</title>
<polygon fill="none" stroke="#888888" points="8,-8 8,-264 138.25,-264 138.25,-8 8,-8"/>
<text text-anchor="middle" x="73.12" y="-246.7" font-family="Arial" font-size="14.00">initial object</text>
</g>
<!-- A1 -->
<g id="node1" class="node">
<title>A1</title>
<ellipse fill="none" stroke="#888888" cx="187.37" cy="-37" rx="21.12" ry="21.12"/>
<text text-anchor="start" x="179.5" y="-32.58" font-family="Arial" font-size="14.00">A</text>
<text text-anchor="start" x="188.5" y="-32.58" font-family="Arial" baseline-shift="sub" font-size="14.00">1</text>
</g>
<!-- A1&#45;&gt;A1 -->
<g id="edge5" class="edge">
<title>A1&#45;&gt;A1</title>
<path fill="none" stroke="#888888" d="M174.4,-54.3C171.02,-65.42 175.34,-76.12 187.37,-76.12 195.08,-76.12 199.62,-71.73 201.01,-65.65"/>
<polygon fill="#888888" stroke="#888888" points="204.51,-65.59 200.43,-55.81 197.52,-66 204.51,-65.59"/>
</g>
<!-- T -->
<g id="node4" class="node">
<title>T</title>
<ellipse fill="none" stroke="#888888" cx="262.5" cy="-115" rx="18" ry="18"/>
<text text-anchor="middle" x="262.5" y="-109.58" font-family="Arial" font-size="14.00">T</text>
</g>
<!-- A1&#45;&gt;T -->
<g id="edge1" class="edge">
<title>A1&#45;&gt;T</title>
<path fill="none" stroke="#888888" d="M202.47,-52.04C213.64,-63.95 229.37,-80.73 241.78,-93.97"/>
<polygon fill="#888888" stroke="#888888" points="238.95,-96.07 248.35,-100.97 244.06,-91.28 238.95,-96.07"/>
</g>
<!-- A2 -->
<g id="node2" class="node">
<title>A2</title>
<ellipse fill="none" stroke="#888888" cx="187.37" cy="-115" rx="21.12" ry="21.12"/>
<text text-anchor="start" x="179.5" y="-110.58" font-family="Arial" font-size="14.00">A</text>
<text text-anchor="start" x="188.5" y="-110.58" font-family="Arial" baseline-shift="sub" font-size="14.00">2</text>
</g>
<!-- A2&#45;&gt;A2 -->
<g id="edge6" class="edge">
<title>A2&#45;&gt;A2</title>
<path fill="none" stroke="#888888" d="M174.4,-132.3C171.02,-143.42 175.34,-154.12 187.37,-154.12 195.08,-154.12 199.62,-149.73 201.01,-143.65"/>
<polygon fill="#888888" stroke="#888888" points="204.51,-143.59 200.43,-133.81 197.52,-144 204.51,-143.59"/>
</g>
<!-- A2&#45;&gt;T -->
<g id="edge2" class="edge">
<title>A2&#45;&gt;T</title>
<path fill="none" stroke="#888888" d="M208.74,-115C216.24,-115 224.87,-115 232.95,-115"/>
<polygon fill="#888888" stroke="#888888" points="232.69,-118.5 242.69,-115 232.69,-111.5 232.69,-118.5"/>
</g>
<!-- A3 -->
<g id="node3" class="node">
<title>A3</title>
<ellipse fill="none" stroke="#888888" cx="187.37" cy="-193" rx="21.12" ry="21.12"/>
<text text-anchor="start" x="179.5" y="-188.57" font-family="Arial" font-size="14.00">A</text>
<text text-anchor="start" x="188.5" y="-188.57" font-family="Arial" baseline-shift="sub" font-size="14.00">3</text>
</g>
<!-- A3&#45;&gt;A3 -->
<g id="edge7" class="edge">
<title>A3&#45;&gt;A3</title>
<path fill="none" stroke="#888888" d="M174.4,-210.3C171.02,-221.42 175.34,-232.12 187.37,-232.12 195.08,-232.12 199.62,-227.73 201.01,-221.65"/>
<polygon fill="#888888" stroke="#888888" points="204.51,-221.59 200.43,-211.81 197.52,-222 204.51,-221.59"/>
</g>
<!-- A3&#45;&gt;T -->
<g id="edge3" class="edge">
<title>A3&#45;&gt;T</title>
<path fill="none" stroke="#888888" d="M202.47,-177.96C213.64,-166.05 229.37,-149.27 241.78,-136.03"/>
<polygon fill="#888888" stroke="#888888" points="244.06,-138.72 248.35,-129.03 238.95,-133.93 244.06,-138.72"/>
</g>
<!-- T&#45;&gt;T -->
<g id="edge4" class="edge">
<title>T&#45;&gt;T</title>
<path fill="none" stroke="#888888" d="M250.39,-128.67C245.55,-139.66 249.58,-151 262.5,-151 270.97,-151 275.62,-146.11 276.45,-139.65"/>
<polygon fill="#888888" stroke="#888888" points="279.96,-139.44 274.85,-130.16 273.06,-140.6 279.96,-139.44"/>
</g>
<!-- I -->
<g id="node5" class="node">
<title>I</title>
<ellipse fill="none" stroke="#888888" cx="34" cy="-115" rx="18" ry="18"/>
<text text-anchor="middle" x="34" y="-109.58" font-family="Arial" font-size="14.00">I</text>
</g>
<!-- I&#45;&gt;I -->
<g id="edge11" class="edge">
<title>I&#45;&gt;I</title>
<path fill="none" stroke="#888888" d="M21.9,-128.67C17.05,-139.66 21.09,-151 34,-151 42.47,-151 47.12,-146.11 47.95,-139.65"/>
<polygon fill="#888888" stroke="#888888" points="51.47,-139.44 46.36,-130.16 44.56,-140.6 51.47,-139.44"/>
</g>
<!-- B1 -->
<g id="node6" class="node">
<title>B1</title>
<ellipse fill="none" stroke="#888888" cx="109.12" cy="-37" rx="21.12" ry="21.12"/>
<text text-anchor="start" x="101.25" y="-32.58" font-family="Arial" font-size="14.00">B</text>
<text text-anchor="start" x="110.25" y="-32.58" font-family="Arial" baseline-shift="sub" font-size="14.00">1</text>
</g>
<!-- I&#45;&gt;B1 -->
<g id="edge8" class="edge">
<title>I&#45;&gt;B1</title>
<path fill="none" stroke="#888888" d="M47.07,-102.12C57.76,-90.73 73.6,-73.82 86.47,-60.1"/>
<polygon fill="#888888" stroke="#888888" points="88.71,-62.83 92.99,-53.14 83.6,-58.04 88.71,-62.83"/>
</g>
<!-- B2 -->
<g id="node7" class="node">
<title>B2</title>
<ellipse fill="none" stroke="#888888" cx="109.12" cy="-115" rx="21.12" ry="21.12"/>
<text text-anchor="start" x="101.25" y="-110.58" font-family="Arial" font-size="14.00">B</text>
<text text-anchor="start" x="110.25" y="-110.58" font-family="Arial" baseline-shift="sub" font-size="14.00">2</text>
</g>
<!-- I&#45;&gt;B2 -->
<g id="edge9" class="edge">
<title>I&#45;&gt;B2</title>
<path fill="none" stroke="#888888" d="M52.33,-115C59.51,-115 68.06,-115 76.3,-115"/>
<polygon fill="#888888" stroke="#888888" points="76.03,-118.5 86.03,-115 76.03,-111.5 76.03,-118.5"/>
</g>
<!-- B3 -->
<g id="node8" class="node">
<title>B3</title>
<ellipse fill="none" stroke="#888888" cx="109.12" cy="-193" rx="21.12" ry="21.12"/>
<text text-anchor="start" x="101.25" y="-188.57" font-family="Arial" font-size="14.00">B</text>
<text text-anchor="start" x="110.25" y="-188.57" font-family="Arial" baseline-shift="sub" font-size="14.00">3</text>
</g>
<!-- I&#45;&gt;B3 -->
<g id="edge10" class="edge">
<title>I&#45;&gt;B3</title>
<path fill="none" stroke="#888888" d="M47.07,-127.88C57.76,-139.27 73.6,-156.18 86.47,-169.9"/>
<polygon fill="#888888" stroke="#888888" points="83.6,-171.96 92.99,-176.86 88.71,-167.17 83.6,-171.96"/>
</g>
<!-- B1&#45;&gt;B1 -->
<g id="edge12" class="edge">
<title>B1&#45;&gt;B1</title>
<path fill="none" stroke="#888888" d="M96.15,-54.3C92.77,-65.42 97.09,-76.12 109.12,-76.12 116.83,-76.12 121.38,-71.73 122.76,-65.65"/>
<polygon fill="#888888" stroke="#888888" points="126.26,-65.59 122.18,-55.81 119.27,-66 126.26,-65.59"/>
</g>
<!-- B2&#45;&gt;A2 -->
<!-- B2&#45;&gt;B2 -->
<g id="edge13" class="edge">
<title>B2&#45;&gt;B2</title>
<path fill="none" stroke="#888888" d="M96.15,-132.3C92.77,-143.42 97.09,-154.12 109.12,-154.12 116.83,-154.12 121.38,-149.73 122.76,-143.65"/>
<polygon fill="#888888" stroke="#888888" points="126.26,-143.59 122.18,-133.81 119.27,-144 126.26,-143.59"/>
</g>
<!-- B3&#45;&gt;B3 -->
<g id="edge14" class="edge">
<title>B3&#45;&gt;B3</title>
<path fill="none" stroke="#888888" d="M96.15,-210.3C92.77,-221.42 97.09,-232.12 109.12,-232.12 116.83,-232.12 121.38,-227.73 122.76,-221.65"/>
<polygon fill="#888888" stroke="#888888" points="126.26,-221.59 122.18,-211.81 119.27,-222 126.26,-221.59"/>
</g>
</g>
</svg>
