<?xml version="1.0" encoding="UTF-8" standalone="no"?>
<!DOCTYPE svg PUBLIC "-//W3C//DTD SVG 1.1//EN"
 "http://www.w3.org/Graphics/SVG/1.1/DTD/svg11.dtd">
<!-- Generated by graphviz version 12.2.0 (20241103.1931)
 -->
<!-- Pages: 1 -->
<svg width="531pt" height="184pt"
 viewBox="0.00 0.00 530.75 184.00" xmlns="http://www.w3.org/2000/svg" xmlns:xlink="http://www.w3.org/1999/xlink">
<g id="graph0" class="graph" transform="scale(1 1) rotate(0) translate(4 180)">
<g id="clust1" class="cluster">
<title>cluster_complex</title>
<polygon fill="none" stroke="#888888" points="8,-8 8,-168 275.25,-168 275.25,-8 8,-8"/>
<text text-anchor="middle" x="141.62" y="-150.7" font-family="Arial" font-size="14.00">compact morphism</text>
</g>
<g id="clust2" class="cluster">
<title>cluster_simplified</title>
<polygon fill="none" stroke="#888888" points="296.25,-42 296.25,-150 514.75,-150 514.75,-42 296.25,-42"/>
<text text-anchor="middle" x="405.5" y="-132.7" font-family="Arial" font-size="14.00">simplified</text>
</g>
<!-- XxA -->
<g id="node1" class="node">
<title>XxA</title>
<text text-anchor="middle" x="32.5" y="-67.58" font-family="Arial" font-size="14.00">X × A</text>
</g>
<!-- X -->
<g id="node2" class="node">
<title>X</title>
<text text-anchor="middle" x="104.5" y="-28.57" font-family="Arial" font-size="14.00">X</text>
</g>
<!-- XxA&#45;&gt;X -->
<g id="edge1" class="edge">
<title>XxA&#45;&gt;X</title>
<path fill="none" stroke="#888888" d="M37.74,-65.23C43.17,-56.16 53.52,-41.59 67,-35.25 73.77,-32.07 82.04,-31.55 89,-31.92"/>
<polygon fill="#888888" stroke="#888888" points="88.42,-35.38 98.78,-33.12 89.28,-28.43 88.42,-35.38"/>
<text text-anchor="start" x="67" y="-38.7" font-family="Arial" font-size="14.00">p</text>
<text text-anchor="start" x="74.5" y="-38.7" font-family="Arial" baseline-shift="sub" font-size="14.00">X</text>
</g>
<!-- B -->
<g id="node3" class="node">
<title>B</title>
<text text-anchor="middle" x="131.5" y="-65.58" font-family="Arial" font-size="14.00">B</text>
</g>
<!-- XxA&#45;&gt;B -->
<g id="edge2" class="edge">
<title>XxA&#45;&gt;B</title>
<path fill="none" stroke="#888888" d="M48.66,-72.69C66.99,-72.31 97.64,-71.68 115.77,-71.3"/>
<polygon fill="#888888" stroke="#888888" points="115.72,-74.81 125.65,-71.1 115.58,-67.81 115.72,-74.81"/>
<text text-anchor="middle" x="74.5" y="-74.75" font-family="Arial" font-size="14.00">e</text>
</g>
<!-- A -->
<g id="node4" class="node">
<title>A</title>
<text text-anchor="middle" x="131.5" y="-112.58" font-family="Arial" font-size="14.00">A</text>
</g>
<!-- XxA&#45;&gt;A -->
<g id="edge3" class="edge">
<title>XxA&#45;&gt;A</title>
<path fill="none" stroke="#888888" d="M46.34,-80.79C52.49,-84.39 60.02,-88.61 67,-92 83.86,-100.19 103.98,-108.14 116.99,-113.04"/>
<polygon fill="#888888" stroke="#888888" points="115.52,-116.23 126.11,-116.41 117.94,-109.66 115.52,-116.23"/>
<text text-anchor="start" x="67" y="-102.19" font-family="Arial" font-size="14.00">p</text>
<text text-anchor="start" x="74.5" y="-102.19" font-family="Arial" baseline-shift="sub" font-size="14.00">A</text>
</g>
<!-- BA -->
<g id="node5" class="node">
<title>BA</title>
<text text-anchor="start" x="154" y="-19.57" font-family="Arial" font-size="14.00">B</text>
<text text-anchor="start" x="163" y="-19.57" font-family="Arial" baseline-shift="super" font-size="14.00">A</text>
</g>
<!-- X&#45;&gt;BA -->
<g id="edge4" class="edge">
<title>X&#45;&gt;BA</title>
<path fill="none" stroke="#888888" stroke-dasharray="5,2" d="M108.82,-33.4C115.5,-32.21 130.99,-29.43 143.41,-27.2"/>
<polygon fill="#888888" stroke="#888888" points="143.65,-30.71 152.88,-25.5 142.42,-23.82 143.65,-30.71"/>
<text text-anchor="middle" x="131.5" y="-32.35" font-family="Arial" font-size="14.00">u</text>
</g>
<!-- BAxA -->
<g id="node6" class="node">
<title>BAxA</title>
<text text-anchor="start" x="226.75" y="-63.58" font-family="Arial" font-size="14.00">B</text>
<text text-anchor="start" x="235.75" y="-63.58" font-family="Arial" baseline-shift="super" font-size="14.00">A</text>
<text text-anchor="start" x="243.25" y="-63.58" font-family="Arial" font-size="14.00"> × A</text>
</g>
<!-- B&#45;&gt;BAxA -->
<g id="edge5" class="edge">
<title>B&#45;&gt;BAxA</title>
<path fill="none" stroke="#888888" d="M147.01,-70.62C167.38,-70.08 204.47,-69.1 227.01,-68.5"/>
<polygon fill="#888888" stroke="#888888" points="147.19,-67.11 137.29,-70.87 147.38,-74.11 147.19,-67.11"/>
<text text-anchor="middle" x="162.25" y="-72.86" font-family="Arial" font-size="14.00">v</text>
</g>
<!-- A&#45;&gt;BAxA -->
<g id="edge6" class="edge">
<title>A&#45;&gt;BAxA</title>
<path fill="none" stroke="#888888" d="M146.06,-112.03C166.61,-102.97 205.64,-85.78 228.37,-75.77"/>
<polygon fill="#888888" stroke="#888888" points="144.9,-108.71 137.16,-115.95 147.72,-115.12 144.9,-108.71"/>
<text text-anchor="start" x="154.75" y="-111.54" font-family="Arial" font-size="14.00">p</text>
<text text-anchor="start" x="162.25" y="-111.54" font-family="Arial" baseline-shift="sub" font-size="14.00">A</text>
</g>
<!-- BA&#45;&gt;BAxA -->
<g id="edge7" class="edge">
<title>BA&#45;&gt;BAxA</title>
<path fill="none" stroke="#888888" d="M180.56,-32.66C189.08,-36.97 199.5,-42.31 208.75,-47.25 216.59,-51.43 225.26,-56.25 232.27,-60.2"/>
<polygon fill="#888888" stroke="#888888" points="182.24,-29.59 171.74,-28.23 179.1,-35.84 182.24,-29.59"/>
<text text-anchor="start" x="188.5" y="-50.7" font-family="Arial" font-size="14.00">p</text>
<text text-anchor="start" x="196" y="-50.7" font-family="Arial" baseline-shift="sub" font-size="14.00">Bᴬ</text>
</g>
<!-- sXxA -->
<g id="node7" class="node">
<title>sXxA</title>
<text text-anchor="middle" x="320.75" y="-62.58" font-family="Arial" font-size="14.00">X × A</text>
</g>
<!-- BAxA&#45;&gt;sXxA -->
<!-- sBAxA -->
<g id="node8" class="node">
<title>sBAxA</title>
<text text-anchor="start" x="414.5" y="-53.58" font-family="Arial" font-size="14.00">B</text>
<text text-anchor="start" x="423.5" y="-53.58" font-family="Arial" baseline-shift="super" font-size="14.00">A</text>
<text text-anchor="start" x="431" y="-53.58" font-family="Arial" font-size="14.00"> × A</text>
</g>
<!-- sXxA&#45;&gt;sBAxA -->
<g id="edge8" class="edge">
<title>sXxA&#45;&gt;sBAxA</title>
<path fill="none" stroke="#888888" d="M336.85,-66.65C353.88,-65.13 382,-62.62 403.58,-60.69"/>
<polygon fill="#888888" stroke="#888888" points="403.62,-64.2 413.27,-59.83 403,-57.23 403.62,-64.2"/>
<text text-anchor="start" x="355.25" y="-68.22" font-family="Arial" font-size="14.00">u × id</text>
<text text-anchor="start" x="389" y="-68.22" font-family="Arial" baseline-shift="sub" font-size="14.00">A</text>
</g>
<!-- sB -->
<g id="node9" class="node">
<title>sB</title>
<text text-anchor="middle" x="502.25" y="-62.58" font-family="Arial" font-size="14.00">B</text>
</g>
<!-- sXxA&#45;&gt;sB -->
<g id="edge10" class="edge">
<title>sXxA&#45;&gt;sB</title>
<path fill="none" stroke="#888888" d="M333.62,-75.75C339.8,-79.33 347.64,-83.18 355.25,-85 372.93,-89.23 459.08,-90.98 479.75,-84 483.11,-82.87 486.37,-80.99 489.29,-78.92"/>
<polygon fill="#888888" stroke="#888888" points="491.52,-81.62 496.85,-72.47 486.97,-76.3 491.52,-81.62"/>
<text text-anchor="middle" x="434.75" y="-91.16" font-family="Arial" font-size="14.00">e</text>
</g>
<!-- sBAxA&#45;&gt;sB -->
<g id="edge9" class="edge">
<title>sBAxA&#45;&gt;sB</title>
<path fill="none" stroke="#888888" d="M454.7,-60.89C464.93,-62.46 477.37,-64.35 486.82,-65.8"/>
<polygon fill="#888888" stroke="#888888" points="486.27,-69.25 496.68,-67.3 487.32,-62.33 486.27,-69.25"/>
<text text-anchor="middle" x="476.38" y="-66.93" font-family="Arial" font-size="14.00">v</text>
</g>
</g>
</svg>
