<?xml version="1.0" encoding="UTF-8" standalone="no"?>
<!DOCTYPE svg PUBLIC "-//W3C//DTD SVG 1.1//EN"
 "http://www.w3.org/Graphics/SVG/1.1/DTD/svg11.dtd">
<!-- Generated by graphviz version 12.2.0 (20241103.1931)
 -->
<!-- Pages: 1 -->
<svg width="245pt" height="112pt"
 viewBox="0.00 0.00 245.00 112.00" xmlns="http://www.w3.org/2000/svg" xmlns:xlink="http://www.w3.org/1999/xlink">
<g id="graph0" class="graph" transform="scale(1 1) rotate(0) translate(4 108)">
<g id="clust1" class="cluster">
<title>cluster_join</title>
<polygon fill="none" stroke="#888888" points="65.2,-8 65.2,-60 200,-60 200,-8 65.2,-8"/>
</g>
<!-- A -->
<g id="node1" class="node">
<title>A</title>
<text text-anchor="middle" x="6" y="-28.57" font-family="Arial" font-size="14.00">A</text>
</g>
<!-- join -->
<g id="node5" class="node">
<title>join</title>
<ellipse fill="#888888" stroke="#888888" cx="75" cy="-34" rx="1.8" ry="1.8"/>
</g>
<!-- A&#45;&gt;join -->
<g id="edge2" class="edge">
<title>A&#45;&gt;join</title>
<path fill="none" stroke="#888888" d="M10.23,-34C19.33,-34 45.52,-34 61.36,-34"/>
<polygon fill="#888888" stroke="#888888" points="61.23,-37.5 71.23,-34 61.23,-30.5 61.23,-37.5"/>
</g>
<!-- B -->
<g id="node2" class="node">
<title>B</title>
<text text-anchor="middle" x="232.5" y="-28.57" font-family="Arial" font-size="14.00">B</text>
</g>
<!-- A&#39; -->
<g id="node3" class="node">
<title>A&#39;</title>
<text text-anchor="middle" x="6" y="-80.58" font-family="Arial" font-size="14.00">A&#39;</text>
</g>
<!-- put -->
<g id="node7" class="node">
<title>put</title>
<polygon fill="none" stroke="#888888" points="102,-104 48,-104 48,-68 102,-68 102,-104"/>
<text text-anchor="middle" x="75" y="-80.58" font-family="Arial" font-size="14.00">put</text>
</g>
<!-- A&#39;&#45;&gt;put -->
<g id="edge5" class="edge">
<title>A&#39;&#45;&gt;put</title>
<path fill="none" stroke="#888888" d="M23.22,-86C30.57,-86 39.45,-86 47.71,-86"/>
<polygon fill="#888888" stroke="#888888" points="23.33,-82.5 13.33,-86 23.33,-89.5 23.33,-82.5"/>
</g>
<!-- B&#39; -->
<g id="node4" class="node">
<title>B&#39;</title>
<text text-anchor="middle" x="165" y="-80.58" font-family="Arial" font-size="14.00">B&#39;</text>
</g>
<!-- get -->
<g id="node6" class="node">
<title>get</title>
<polygon fill="none" stroke="#888888" points="192,-52 138,-52 138,-16 192,-16 192,-52"/>
<text text-anchor="middle" x="165" y="-28.57" font-family="Arial" font-size="14.00">get</text>
</g>
<!-- join&#45;&gt;get -->
<g id="edge1" class="edge">
<title>join&#45;&gt;get</title>
<path fill="none" stroke="#888888" d="M77.24,-34C82.74,-34 105.52,-34 126.36,-34"/>
<polygon fill="#888888" stroke="#888888" points="126.1,-37.5 136.1,-34 126.1,-30.5 126.1,-37.5"/>
</g>
<!-- join&#45;&gt;put -->
<g id="edge4" class="edge">
<title>join&#45;&gt;put</title>
<path fill="none" stroke="#888888" d="M75,-36.03C75,-42.78 75,-49.54 75,-56.29"/>
<polygon fill="#888888" stroke="#888888" points="71.5,-56.14 75,-66.14 78.5,-56.14 71.5,-56.14"/>
</g>
<!-- get&#45;&gt;B -->
<g id="edge3" class="edge">
<title>get&#45;&gt;B</title>
<path fill="none" stroke="#888888" d="M192.26,-34C200.66,-34 209.64,-34 216.89,-34"/>
<polygon fill="#888888" stroke="#888888" points="216.83,-37.5 226.83,-34 216.83,-30.5 216.83,-37.5"/>
</g>
<!-- put&#45;&gt;B&#39; -->
<g id="edge6" class="edge">
<title>put&#45;&gt;B&#39;</title>
<path fill="none" stroke="#888888" d="M113.91,-86C131.44,-86 150.3,-86 159.03,-86"/>
<polygon fill="#888888" stroke="#888888" points="113.92,-82.5 103.92,-86 113.92,-89.5 113.92,-82.5"/>
</g>
</g>
</svg>
