<?xml version="1.0" encoding="UTF-8" standalone="no"?>
<!DOCTYPE svg PUBLIC "-//W3C//DTD SVG 1.1//EN"
 "http://www.w3.org/Graphics/SVG/1.1/DTD/svg11.dtd">
<!-- Generated by graphviz version 12.2.0 (20241103.1931)
 -->
<!-- Pages: 1 -->
<svg width="263pt" height="87pt"
 viewBox="0.00 0.00 263.45 87.09" xmlns="http://www.w3.org/2000/svg" xmlns:xlink="http://www.w3.org/1999/xlink">
<g id="graph0" class="graph" transform="scale(1 1) rotate(0) translate(4 83.09)">
<!-- in_x -->
<g id="node1" class="node">
<title>in_x</title>
<ellipse fill="#888888" stroke="#888888" cx="1.8" cy="-72.8" rx="1.8" ry="1.8"/>
</g>
<!-- in_y -->
<g id="node2" class="node">
<title>in_y</title>
<ellipse fill="#888888" stroke="#888888" cx="1.8" cy="-8.8" rx="1.8" ry="1.8"/>
</g>
<!-- in_x&#45;&gt;in_y -->
<!-- f -->
<g id="node5" class="node">
<title>f</title>
<polygon fill="none" stroke="#888888" points="100.35,-58.8 46.35,-58.8 46.35,-22.8 100.35,-22.8 100.35,-58.8"/>
<text text-anchor="middle" x="73.35" y="-35.38" font-family="Arial" font-size="14.00">f</text>
</g>
<!-- in_x&#45;&gt;f -->
<g id="edge1" class="edge">
<title>in_x&#45;&gt;f</title>
<path fill="none" stroke="#888888" d="M4.01,-72.24C8.07,-70.37 21.79,-64.06 35.89,-57.58"/>
<polygon fill="#888888" stroke="#888888" points="37.08,-60.88 44.71,-53.52 34.16,-54.52 37.08,-60.88"/>
<text text-anchor="middle" x="24.98" y="-65.79" font-family="Arial" font-size="14.00">x</text>
</g>
<!-- in_w -->
<g id="node3" class="node">
<title>in_w</title>
<ellipse fill="#888888" stroke="#888888" cx="73.35" cy="-1.8" rx="1.8" ry="1.8"/>
</g>
<!-- in_y&#45;&gt;in_w -->
<!-- in_y&#45;&gt;f -->
<g id="edge2" class="edge">
<title>in_y&#45;&gt;f</title>
<path fill="none" stroke="#888888" d="M4.01,-9.36C8.07,-11.23 21.79,-17.54 35.89,-24.02"/>
<polygon fill="#888888" stroke="#888888" points="34.16,-27.08 44.71,-28.08 37.08,-20.72 34.16,-27.08"/>
<text text-anchor="middle" x="24.98" y="-22.51" font-family="Arial" font-size="14.00">y</text>
</g>
<!-- g -->
<g id="node6" class="node">
<title>g</title>
<polygon fill="none" stroke="#888888" points="203.85,-38.8 149.85,-38.8 149.85,-2.8 203.85,-2.8 203.85,-38.8"/>
<text text-anchor="middle" x="176.85" y="-15.37" font-family="Arial" font-size="14.00">g</text>
</g>
<!-- in_w&#45;&gt;g -->
<g id="edge4" class="edge">
<title>in_w&#45;&gt;g</title>
<path fill="none" stroke="#888888" d="M75.17,-1.71C80.37,-1.15 109.16,1.61 131.85,-3.05 134.18,-3.53 136.55,-4.13 138.91,-4.81"/>
<polygon fill="#888888" stroke="#888888" points="137.78,-8.12 148.37,-8.02 140.03,-1.49 137.78,-8.12"/>
<text text-anchor="middle" x="125.1" y="-5.5" font-family="Arial" font-size="14.00">W</text>
</g>
<!-- out -->
<g id="node4" class="node">
<title>out</title>
<ellipse fill="#888888" stroke="#888888" cx="253.65" cy="-20.8" rx="1.8" ry="1.8"/>
</g>
<!-- f&#45;&gt;g -->
<g id="edge3" class="edge">
<title>f&#45;&gt;g</title>
<path fill="none" stroke="#888888" d="M100.75,-35.6C112.27,-33.33 125.97,-30.63 138.5,-28.16"/>
<polygon fill="#888888" stroke="#888888" points="138.96,-31.64 148.09,-26.27 137.61,-24.77 138.96,-31.64"/>
<text text-anchor="middle" x="125.1" y="-34.45" font-family="Arial" font-size="14.00">Z</text>
</g>
<!-- g&#45;&gt;out -->
<g id="edge5" class="edge">
<title>g&#45;&gt;out</title>
<path fill="none" stroke="#888888" d="M204.01,-20.8C216.25,-20.8 230.26,-20.8 240.09,-20.8"/>
<polygon fill="#888888" stroke="#888888" points="239.93,-24.3 249.93,-20.8 239.93,-17.3 239.93,-24.3"/>
<text text-anchor="middle" x="227.85" y="-23.25" font-family="Arial" font-size="14.00">M</text>
</g>
</g>
</svg>
