<?xml version="1.0" encoding="UTF-8" standalone="no"?>
<!DOCTYPE svg PUBLIC "-//W3C//DTD SVG 1.1//EN"
 "http://www.w3.org/Graphics/SVG/1.1/DTD/svg11.dtd">
<!-- Generated by graphviz version 12.2.0 (20241103.1931)
 -->
<!-- Pages: 1 -->
<svg width="260pt" height="98pt"
 viewBox="0.00 0.00 259.70 98.00" xmlns="http://www.w3.org/2000/svg" xmlns:xlink="http://www.w3.org/1999/xlink">
<g id="graph0" class="graph" transform="scale(1 1) rotate(0) translate(4 94)">
<!-- in1 -->
<g id="node1" class="node">
<title>in1</title>
<ellipse fill="#888888" stroke="#888888" cx="1.8" cy="-18" rx="1.8" ry="1.8"/>
</g>
<!-- f -->
<g id="node7" class="node">
<title>f</title>
<polygon fill="none" stroke="#888888" points="103.35,-36 49.35,-36 49.35,0 103.35,0 103.35,-36"/>
<text text-anchor="middle" x="76.35" y="-12.57" font-family="Arial" font-size="14.00">f</text>
</g>
<!-- in1&#45;&gt;f -->
<g id="edge4" class="edge">
<title>in1&#45;&gt;f</title>
<path fill="none" stroke="#888888" d="M4.06,-18C8.35,-18 22.94,-18 37.82,-18"/>
<polygon fill="#888888" stroke="#888888" points="37.57,-21.5 47.57,-18 37.57,-14.5 37.57,-21.5"/>
<text text-anchor="middle" x="26.48" y="-20.45" font-family="Arial" font-size="14.00">A</text>
</g>
<!-- in2 -->
<g id="node2" class="node">
<title>in2</title>
<ellipse fill="#888888" stroke="#888888" cx="1.8" cy="-72" rx="1.8" ry="1.8"/>
</g>
<!-- h -->
<g id="node5" class="node">
<title>h</title>
<polygon fill="none" stroke="#888888" points="103.35,-90 49.35,-90 49.35,-54 103.35,-54 103.35,-90"/>
<text text-anchor="middle" x="76.35" y="-66.58" font-family="Arial" font-size="14.00">h</text>
</g>
<!-- in2&#45;&gt;h -->
<g id="edge1" class="edge">
<title>in2&#45;&gt;h</title>
<path fill="none" stroke="#888888" d="M4.06,-72C8.35,-72 22.94,-72 37.82,-72"/>
<polygon fill="#888888" stroke="#888888" points="37.57,-75.5 47.57,-72 37.57,-68.5 37.57,-75.5"/>
<text text-anchor="middle" x="26.48" y="-74.45" font-family="Arial" font-size="14.00">D</text>
</g>
<!-- out1 -->
<g id="node3" class="node">
<title>out1</title>
<ellipse fill="#888888" stroke="#888888" cx="249.9" cy="-18" rx="1.8" ry="1.8"/>
</g>
<!-- out2 -->
<g id="node4" class="node">
<title>out2</title>
<ellipse fill="#888888" stroke="#888888" cx="249.9" cy="-72" rx="1.8" ry="1.8"/>
</g>
<!-- i -->
<g id="node6" class="node">
<title>i</title>
<polygon fill="none" stroke="#888888" points="202.35,-90 148.35,-90 148.35,-54 202.35,-54 202.35,-90"/>
<text text-anchor="middle" x="175.35" y="-66.58" font-family="Arial" font-size="14.00">i</text>
</g>
<!-- h&#45;&gt;i -->
<g id="edge2" class="edge">
<title>h&#45;&gt;i</title>
<path fill="none" stroke="#888888" d="M103.6,-72C113.84,-72 125.78,-72 136.9,-72"/>
<polygon fill="#888888" stroke="#888888" points="136.57,-75.5 146.57,-72 136.57,-68.5 136.57,-75.5"/>
<text text-anchor="middle" x="125.85" y="-74.45" font-family="Arial" font-size="14.00">E</text>
</g>
<!-- i&#45;&gt;out2 -->
<g id="edge3" class="edge">
<title>i&#45;&gt;out2</title>
<path fill="none" stroke="#888888" d="M202.54,-72C214.05,-72 227.03,-72 236.32,-72"/>
<polygon fill="#888888" stroke="#888888" points="236.25,-75.5 246.25,-72 236.25,-68.5 236.25,-75.5"/>
<text text-anchor="middle" x="225.23" y="-74.45" font-family="Arial" font-size="14.00">F</text>
</g>
<!-- g -->
<g id="node8" class="node">
<title>g</title>
<polygon fill="none" stroke="#888888" points="202.35,-36 148.35,-36 148.35,0 202.35,0 202.35,-36"/>
<text text-anchor="middle" x="175.35" y="-12.57" font-family="Arial" font-size="14.00">g</text>
</g>
<!-- f&#45;&gt;g -->
<g id="edge5" class="edge">
<title>f&#45;&gt;g</title>
<path fill="none" stroke="#888888" d="M103.6,-18C113.84,-18 125.78,-18 136.9,-18"/>
<polygon fill="#888888" stroke="#888888" points="136.57,-21.5 146.57,-18 136.57,-14.5 136.57,-21.5"/>
<text text-anchor="middle" x="125.85" y="-20.45" font-family="Arial" font-size="14.00">B</text>
</g>
<!-- g&#45;&gt;out1 -->
<g id="edge6" class="edge">
<title>g&#45;&gt;out1</title>
<path fill="none" stroke="#888888" d="M202.54,-18C214.05,-18 227.03,-18 236.32,-18"/>
<polygon fill="#888888" stroke="#888888" points="236.25,-21.5 246.25,-18 236.25,-14.5 236.25,-21.5"/>
<text text-anchor="middle" x="225.23" y="-20.45" font-family="Arial" font-size="14.00">C</text>
</g>
</g>
</svg>
