<?xml version="1.0" encoding="UTF-8" standalone="no"?>
<!DOCTYPE svg PUBLIC "-//W3C//DTD SVG 1.1//EN"
 "http://www.w3.org/Graphics/SVG/1.1/DTD/svg11.dtd">
<!-- Generated by graphviz version 12.2.0 (20241103.1931)
 -->
<!-- Pages: 1 -->
<svg width="256pt" height="126pt"
 viewBox="0.00 0.00 256.00 125.62" xmlns="http://www.w3.org/2000/svg" xmlns:xlink="http://www.w3.org/1999/xlink">
<g id="graph0" class="graph" transform="scale(1 1) rotate(0) translate(4 121.62)">
<text text-anchor="middle" x="124" y="-6.45" font-family="Arial" font-size="14.00">composition of Para(C)</text>
<!-- f -->
<g id="node1" class="node">
<title>f</title>
<polygon fill="none" stroke="#888888" points="102.25,-59.75 48.25,-59.75 48.25,-23.75 102.25,-23.75 102.25,-59.75"/>
<text text-anchor="middle" x="75.25" y="-36.33" font-family="Arial" font-size="14.00">f</text>
</g>
<!-- f&#39; -->
<g id="node2" class="node">
<title>f&#39;</title>
<polygon fill="none" stroke="#888888" points="201.25,-59.75 147.25,-59.75 147.25,-23.75 201.25,-23.75 201.25,-59.75"/>
<text text-anchor="middle" x="174.25" y="-36.33" font-family="Arial" font-size="14.00">f&#39;</text>
</g>
<!-- f&#45;&gt;f&#39; -->
<g id="edge3" class="edge">
<title>f&#45;&gt;f&#39;</title>
<path fill="none" stroke="#888888" d="M102.5,-41.75C112.74,-41.75 124.68,-41.75 135.8,-41.75"/>
<polygon fill="#888888" stroke="#888888" points="135.47,-45.25 145.47,-41.75 135.47,-38.25 135.47,-45.25"/>
<text text-anchor="middle" x="124.75" y="-44.2" font-family="Arial" font-size="14.00">B</text>
</g>
<!-- C -->
<g id="node5" class="node">
<title>C</title>
<text text-anchor="middle" x="243.12" y="-36.33" font-family="Arial" font-size="14.00">C</text>
</g>
<!-- f&#39;&#45;&gt;C -->
<g id="edge4" class="edge">
<title>f&#39;&#45;&gt;C</title>
<path fill="none" stroke="#888888" d="M201.68,-41.75C210.33,-41.75 219.64,-41.75 227.14,-41.75"/>
<polygon fill="#888888" stroke="#888888" points="226.92,-45.25 236.92,-41.75 226.92,-38.25 226.92,-45.25"/>
</g>
<!-- P -->
<g id="node3" class="node">
<title>P</title>
<text text-anchor="middle" x="5.62" y="-70.33" font-family="Arial" font-size="14.00">P</text>
</g>
<!-- P&#45;&gt;f -->
<g id="edge1" class="edge">
<title>P&#45;&gt;f</title>
<path fill="none" stroke="#888888" d="M9.89,-74.11C15.19,-71.44 26.26,-65.88 37.74,-60.1"/>
<polygon fill="#888888" stroke="#888888" points="39.09,-63.34 46.46,-55.72 35.95,-57.09 39.09,-63.34"/>
</g>
<!-- A -->
<g id="node4" class="node">
<title>A</title>
<text text-anchor="middle" x="5.62" y="-36.33" font-family="Arial" font-size="14.00">A</text>
</g>
<!-- A&#45;&gt;f -->
<g id="edge2" class="edge">
<title>A&#45;&gt;f</title>
<path fill="none" stroke="#888888" d="M9.89,-41.75C14.98,-41.75 25.37,-41.75 36.35,-41.75"/>
<polygon fill="#888888" stroke="#888888" points="36.29,-45.25 46.29,-41.75 36.29,-38.25 36.29,-45.25"/>
</g>
<!-- Q -->
<g id="node6" class="node">
<title>Q</title>
<text text-anchor="middle" x="5.62" y="-104.33" font-family="Arial" font-size="14.00">Q</text>
</g>
<!-- Q&#45;&gt;f&#39; -->
<g id="edge5" class="edge">
<title>Q&#45;&gt;f&#39;</title>
<path fill="none" stroke="#888888" d="M10.89,-108.17C26.7,-102.32 83.34,-81.15 129.25,-61.75 131.57,-60.77 133.96,-59.74 136.36,-58.69"/>
<polygon fill="#888888" stroke="#888888" points="137.73,-61.91 145.44,-54.65 134.88,-55.52 137.73,-61.91"/>
</g>
</g>
</svg>
