<?xml version="1.0" encoding="UTF-8" standalone="no"?>
<!DOCTYPE svg PUBLIC "-//W3C//DTD SVG 1.1//EN"
 "http://www.w3.org/Graphics/SVG/1.1/DTD/svg11.dtd">
<!-- Generated by graphviz version 12.2.0 (20241103.1931)
 -->
<!-- Pages: 1 -->
<svg width="468pt" height="159pt"
 viewBox="0.00 0.00 467.79 158.75" xmlns="http://www.w3.org/2000/svg" xmlns:xlink="http://www.w3.org/1999/xlink">
<g id="graph0" class="graph" transform="scale(1 1) rotate(0) translate(4 154.75)">
<!-- n1 -->
<g id="node1" class="node">
<title>n1</title>
<text text-anchor="middle" x="251.12" y="-137.45" font-family="Arial" font-size="14.00">(W ⊗ X) ⊗ (Y ⊗ Z)</text>
</g>
<!-- n21 -->
<g id="node2" class="node">
<title>n21</title>
<text text-anchor="middle" x="139.12" y="-69.95" font-family="Arial" font-size="14.00">((W ⊗ X) ⊗ Y) ⊗ Z</text>
</g>
<!-- n1&#45;&gt;n21 -->
<g id="edge1" class="edge">
<title>n1&#45;&gt;n21</title>
<path fill="none" stroke="#888888" d="M190.81,-132.87C172.09,-128.92 154.64,-123.64 148.12,-117 139.22,-107.92 138.31,-92.13 138.6,-83.14"/>
<polygon fill="#888888" stroke="#888888" points="189.94,-136.27 200.42,-134.75 191.28,-129.4 189.94,-136.27"/>
<text text-anchor="start" x="148.12" y="-104.7" font-family="Arial" font-size="14.00">α</text>
<text text-anchor="start" x="156.38" y="-104.7" font-family="Arial" baseline-shift="sub" font-size="14.00">W ⊗ X, Y, Z</text>
</g>
<!-- n22 -->
<g id="node3" class="node">
<title>n22</title>
<text text-anchor="middle" x="376.12" y="-69.95" font-family="Arial" font-size="14.00">W ⊗ (X ⊗ (Y ⊗ Z))</text>
</g>
<!-- n1&#45;&gt;n22 -->
<g id="edge2" class="edge">
<title>n1&#45;&gt;n22</title>
<path fill="none" stroke="#888888" d="M264.03,-135.11C284.99,-124.13 326.72,-102.27 352.92,-88.53"/>
<polygon fill="#888888" stroke="#888888" points="354.53,-91.64 361.76,-83.9 351.28,-85.44 354.53,-91.64"/>
<text text-anchor="start" x="328.5" y="-104.7" font-family="Arial" font-size="14.00">α</text>
<text text-anchor="start" x="336.75" y="-104.7" font-family="Arial" baseline-shift="sub" font-size="14.00">W, X, Y ⊗ Z</text>
</g>
<!-- n31 -->
<g id="node4" class="node">
<title>n31</title>
<text text-anchor="middle" x="58.12" y="-2.45" font-family="Arial" font-size="14.00">(W ⊗ (X ⊗ Y)) ⊗ Z</text>
</g>
<!-- n21&#45;&gt;n31 -->
<g id="edge3" class="edge">
<title>n21&#45;&gt;n31</title>
<path fill="none" stroke="#888888" d="M130.76,-67.61C117.79,-57.12 92.53,-36.7 75.49,-22.92"/>
<polygon fill="#888888" stroke="#888888" points="77.72,-20.22 67.74,-16.65 73.32,-25.66 77.72,-20.22"/>
<text text-anchor="start" x="108.26" y="-37.2" font-family="Arial" font-size="14.00">α</text>
<text text-anchor="start" x="116.51" y="-37.2" font-family="Arial" baseline-shift="sub" font-size="14.00">W, X, Y</text>
<text text-anchor="start" x="154.01" y="-37.2" font-family="Arial" font-size="14.00"> ⊗ Z</text>
</g>
<!-- n32 -->
<g id="node5" class="node">
<title>n32</title>
<text text-anchor="middle" x="390.12" y="-2.45" font-family="Arial" font-size="14.00">W ⊗ ((X ⊗ Y) ⊗ Z)</text>
</g>
<!-- n22&#45;&gt;n32 -->
<g id="edge4" class="edge">
<title>n22&#45;&gt;n32</title>
<path fill="none" stroke="#888888" d="M379.85,-56.96C382.77,-43.27 386.69,-24.96 388.74,-15.37"/>
<polygon fill="#888888" stroke="#888888" points="376.5,-55.86 377.83,-66.38 383.35,-57.33 376.5,-55.86"/>
<text text-anchor="start" x="384.79" y="-37.2" font-family="Arial" font-size="14.00">W ⊗ α</text>
<text text-anchor="start" x="426.79" y="-37.2" font-family="Arial" baseline-shift="sub" font-size="14.00">X, Y, Z</text>
</g>
<!-- n31&#45;&gt;n32 -->
<g id="edge5" class="edge">
<title>n31&#45;&gt;n32</title>
<path fill="none" stroke="#888888" d="M115.95,-7.88C172.94,-7.88 260.05,-7.88 320.73,-7.88"/>
<polygon fill="#888888" stroke="#888888" points="320.61,-11.38 330.61,-7.88 320.61,-4.38 320.61,-11.38"/>
<text text-anchor="start" x="190" y="-14.32" font-family="Arial" font-size="14.00">α</text>
<text text-anchor="start" x="198.25" y="-14.32" font-family="Arial" baseline-shift="sub" font-size="14.00">W, X ⊗ Y, Z</text>
</g>
</g>
</svg>
