<?xml version="1.0" encoding="UTF-8" standalone="no"?>
<!DOCTYPE svg PUBLIC "-//W3C//DTD SVG 1.1//EN"
 "http://www.w3.org/Graphics/SVG/1.1/DTD/svg11.dtd">
<!-- Generated by graphviz version 12.2.0 (20241103.1931)
 -->
<!-- Pages: 1 -->
<svg width="254pt" height="221pt"
 viewBox="0.00 0.00 254.12 221.00" xmlns="http://www.w3.org/2000/svg" xmlns:xlink="http://www.w3.org/1999/xlink">
<g id="graph0" class="graph" transform="scale(1 1) rotate(0) translate(4 217)">
<g id="clust1" class="cluster">
<title>cluster_surjections</title>
<polygon fill="none" stroke="#888888" points="2.12,-8 2.12,-188 116.38,-188 116.38,-8 2.12,-8"/>
<text text-anchor="middle" x="59.25" y="-170.7" font-family="Arial" font-size="14.00">surjections</text>
<text text-anchor="middle" x="59.25" y="-154.95" font-family="Arial" font-size="14.00">(epic morphism)</text>
</g>
<g id="clust2" class="cluster">
<title>cluster_SX1</title>
<path fill="none" stroke="#888888" d="M24.08,-16C24.08,-16 32.42,-16 32.42,-16 36.58,-16 40.75,-20.17 40.75,-24.33 40.75,-24.33 40.75,-131.67 40.75,-131.67 40.75,-135.83 36.58,-140 32.42,-140 32.42,-140 24.08,-140 24.08,-140 19.92,-140 15.75,-135.83 15.75,-131.67 15.75,-131.67 15.75,-24.33 15.75,-24.33 15.75,-20.17 19.92,-16 24.08,-16"/>
<text text-anchor="middle" x="28.25" y="-122.7" font-family="Arial" font-size="14.00">X</text>
</g>
<g id="clust3" class="cluster">
<title>cluster_SY1</title>
<path fill="none" stroke="#888888" d="M85.08,-50C85.08,-50 93.42,-50 93.42,-50 97.58,-50 101.75,-54.17 101.75,-58.33 101.75,-58.33 101.75,-131.67 101.75,-131.67 101.75,-135.83 97.58,-140 93.42,-140 93.42,-140 85.08,-140 85.08,-140 80.92,-140 76.75,-135.83 76.75,-131.67 76.75,-131.67 76.75,-58.33 76.75,-58.33 76.75,-54.17 80.92,-50 85.08,-50"/>
<text text-anchor="middle" x="89.25" y="-122.7" font-family="Arial" font-size="14.00">Y</text>
</g>
<g id="clust4" class="cluster">
<title>cluster_injections</title>
<polygon fill="none" stroke="#888888" points="125.88,-25 125.88,-205 246.12,-205 246.12,-25 125.88,-25"/>
<text text-anchor="middle" x="186" y="-187.7" font-family="Arial" font-size="14.00">injections</text>
<text text-anchor="middle" x="186" y="-171.95" font-family="Arial" font-size="14.00">(monomorphism)</text>
</g>
<g id="clust5" class="cluster">
<title>cluster_SX2</title>
<path fill="none" stroke="#888888" d="M150.83,-50C150.83,-50 159.17,-50 159.17,-50 163.33,-50 167.5,-54.17 167.5,-58.33 167.5,-58.33 167.5,-131.67 167.5,-131.67 167.5,-135.83 163.33,-140 159.17,-140 159.17,-140 150.83,-140 150.83,-140 146.67,-140 142.5,-135.83 142.5,-131.67 142.5,-131.67 142.5,-58.33 142.5,-58.33 142.5,-54.17 146.67,-50 150.83,-50"/>
<text text-anchor="middle" x="155" y="-122.7" font-family="Arial" font-size="14.00">X</text>
</g>
<g id="clust6" class="cluster">
<title>cluster_SY2</title>
<path fill="none" stroke="#888888" d="M211.83,-33C211.83,-33 220.17,-33 220.17,-33 224.33,-33 228.5,-37.17 228.5,-41.33 228.5,-41.33 228.5,-148.67 228.5,-148.67 228.5,-152.83 224.33,-157 220.17,-157 220.17,-157 211.83,-157 211.83,-157 207.67,-157 203.5,-152.83 203.5,-148.67 203.5,-148.67 203.5,-41.33 203.5,-41.33 203.5,-37.17 207.67,-33 211.83,-33"/>
<text text-anchor="middle" x="216" y="-139.7" font-family="Arial" font-size="14.00">Y</text>
</g>
<!-- X1 -->
<g id="node1" class="node">
<title>X1</title>
<text text-anchor="middle" x="27.75" y="-26.57" font-family="Arial" font-size="14.00">1</text>
</g>
<!-- Y1 -->
<g id="node4" class="node">
<title>Y1</title>
<text text-anchor="middle" x="88.75" y="-60.58" font-family="Arial" font-size="14.00">1</text>
</g>
<!-- X1&#45;&gt;Y1 -->
<g id="edge1" class="edge">
<title>X1&#45;&gt;Y1</title>
<path fill="none" stroke="#888888" d="M31.29,-33.46C38.72,-37.75 60.86,-50.5 75.1,-58.71"/>
<polygon fill="#888888" stroke="#888888" points="73.3,-61.71 83.71,-63.67 76.79,-55.65 73.3,-61.71"/>
</g>
<!-- X2 -->
<g id="node2" class="node">
<title>X2</title>
<text text-anchor="middle" x="27.75" y="-60.58" font-family="Arial" font-size="14.00">2</text>
</g>
<!-- X2&#45;&gt;Y1 -->
<g id="edge2" class="edge">
<title>X2&#45;&gt;Y1</title>
<path fill="none" stroke="#888888" d="M31.29,-66C38.5,-66 59.53,-66 73.79,-66"/>
<polygon fill="#888888" stroke="#888888" points="73.51,-69.5 83.51,-66 73.51,-62.5 73.51,-69.5"/>
</g>
<!-- X3 -->
<g id="node3" class="node">
<title>X3</title>
<text text-anchor="middle" x="27.75" y="-94.58" font-family="Arial" font-size="14.00">3</text>
</g>
<!-- Y2 -->
<g id="node5" class="node">
<title>Y2</title>
<text text-anchor="middle" x="88.75" y="-94.58" font-family="Arial" font-size="14.00">2</text>
</g>
<!-- X3&#45;&gt;Y2 -->
<g id="edge3" class="edge">
<title>X3&#45;&gt;Y2</title>
<path fill="none" stroke="#888888" d="M31.29,-100C38.5,-100 59.53,-100 73.79,-100"/>
<polygon fill="#888888" stroke="#888888" points="73.51,-103.5 83.51,-100 73.51,-96.5 73.51,-103.5"/>
</g>
<!-- Z1 -->
<g id="node6" class="node">
<title>Z1</title>
<text text-anchor="middle" x="154.5" y="-60.58" font-family="Arial" font-size="14.00">1</text>
</g>
<!-- Y1&#45;&gt;Z1 -->
<!-- T1 -->
<g id="node8" class="node">
<title>T1</title>
<text text-anchor="middle" x="215.5" y="-43.58" font-family="Arial" font-size="14.00">1</text>
</g>
<!-- Z1&#45;&gt;T1 -->
<g id="edge4" class="edge">
<title>Z1&#45;&gt;T1</title>
<path fill="none" stroke="#888888" d="M158.04,-65.27C165.32,-63.17 186.72,-57 200.98,-52.9"/>
<polygon fill="#888888" stroke="#888888" points="201.68,-56.34 210.32,-50.2 199.74,-49.61 201.68,-56.34"/>
</g>
<!-- Z2 -->
<g id="node7" class="node">
<title>Z2</title>
<text text-anchor="middle" x="154.5" y="-94.58" font-family="Arial" font-size="14.00">2</text>
</g>
<!-- T3 -->
<g id="node10" class="node">
<title>T3</title>
<text text-anchor="middle" x="215.5" y="-111.58" font-family="Arial" font-size="14.00">3</text>
</g>
<!-- Z2&#45;&gt;T3 -->
<g id="edge5" class="edge">
<title>Z2&#45;&gt;T3</title>
<path fill="none" stroke="#888888" d="M158.04,-100.73C165.32,-102.83 186.72,-109 200.98,-113.1"/>
<polygon fill="#888888" stroke="#888888" points="199.74,-116.39 210.32,-115.8 201.68,-109.66 199.74,-116.39"/>
</g>
<!-- T2 -->
<g id="node9" class="node">
<title>T2</title>
<text text-anchor="middle" x="215.5" y="-77.58" font-family="Arial" font-size="14.00">2</text>
</g>
</g>
</svg>
