<?xml version="1.0" encoding="UTF-8" standalone="no"?>
<!DOCTYPE svg PUBLIC "-//W3C//DTD SVG 1.1//EN"
 "http://www.w3.org/Graphics/SVG/1.1/DTD/svg11.dtd">
<!-- Generated by graphviz version 12.2.0 (20241103.1931)
 -->
<!-- Pages: 1 -->
<svg width="233pt" height="83pt"
 viewBox="0.00 0.00 233.00 82.62" xmlns="http://www.w3.org/2000/svg" xmlns:xlink="http://www.w3.org/1999/xlink">
<g id="graph0" class="graph" transform="scale(1 1) rotate(0) translate(4 78.62)">
<!-- Xx1xy -->
<g id="node1" class="node">
<title>Xx1xy</title>
<text text-anchor="middle" x="36.75" y="-53.45" font-family="Arial" font-size="14.00">(X ⊗ 1) ⊗ Y</text>
</g>
<!-- xx1xY -->
<g id="node2" class="node">
<title>xx1xY</title>
<text text-anchor="middle" x="188.25" y="-53.45" font-family="Arial" font-size="14.00">X ⊗ (1 ⊗ Y)</text>
</g>
<!-- Xx1xy&#45;&gt;xx1xY -->
<g id="edge2" class="edge">
<title>Xx1xy&#45;&gt;xx1xY</title>
<path fill="none" stroke="#888888" d="M73.18,-58.88C93.23,-58.88 118.57,-58.88 140.26,-58.88"/>
<polygon fill="#888888" stroke="#888888" points="140.04,-62.38 150.04,-58.88 140.04,-55.38 140.04,-62.38"/>
<text text-anchor="start" x="91.5" y="-62.33" font-family="Arial" font-size="14.00">α</text>
<text text-anchor="start" x="99.75" y="-62.33" font-family="Arial" baseline-shift="sub" font-size="14.00">X, 1, Y</text>
</g>
<!-- XxY1 -->
<g id="node3" class="node">
<title>XxY1</title>
<text text-anchor="middle" x="36.75" y="-2.45" font-family="Arial" font-size="14.00">X ⊗ Y</text>
</g>
<!-- Xx1xy&#45;&gt;XxY1 -->
<g id="edge3" class="edge">
<title>Xx1xy&#45;&gt;XxY1</title>
<path fill="none" stroke="#888888" d="M36.75,-51.32C36.75,-44.83 36.75,-35.2 36.75,-26.65"/>
<polygon fill="#888888" stroke="#888888" points="40.25,-26.91 36.75,-16.91 33.25,-26.91 40.25,-26.91"/>
<text text-anchor="start" x="3.38" y="-28.95" font-family="Arial" font-size="14.00">ρ</text>
<text text-anchor="start" x="11.62" y="-28.95" font-family="Arial" baseline-shift="sub" font-size="14.00">X</text>
<text text-anchor="start" x="19.12" y="-28.95" font-family="Arial" font-size="14.00"> ⊗ Y</text>
</g>
<!-- XxY2 -->
<g id="node4" class="node">
<title>XxY2</title>
<text text-anchor="middle" x="188.25" y="-2.45" font-family="Arial" font-size="14.00">X ⊗ Y</text>
</g>
<!-- xx1xY&#45;&gt;XxY2 -->
<g id="edge4" class="edge">
<title>xx1xY&#45;&gt;XxY2</title>
<path fill="none" stroke="#888888" d="M188.25,-51.32C188.25,-44.83 188.25,-35.2 188.25,-26.65"/>
<polygon fill="#888888" stroke="#888888" points="191.75,-26.91 188.25,-16.91 184.75,-26.91 191.75,-26.91"/>
<text text-anchor="start" x="155.62" y="-28.95" font-family="Arial" font-size="14.00">X ⊗ λ</text>
<text text-anchor="start" x="191.62" y="-28.95" font-family="Arial" baseline-shift="sub" font-size="14.00">X</text>
</g>
<!-- XxY1&#45;&gt;XxY2 -->
<g id="edge1" class="edge">
<title>XxY1&#45;&gt;XxY2</title>
<path fill="none" stroke="#888888" d="M55.49,-5.88C84.26,-5.88 140.78,-5.88 169.54,-5.88"/>
<path fill="none" stroke="none" d="M55.49,-7.88C84.26,-7.88 140.78,-7.88 169.54,-7.88"/>
<path fill="none" stroke="#888888" d="M55.49,-9.87C84.26,-9.88 140.78,-9.88 169.54,-9.87"/>
</g>
</g>
</svg>
