<?xml version="1.0" encoding="UTF-8" standalone="no"?>
<!DOCTYPE svg PUBLIC "-//W3C//DTD SVG 1.1//EN"
 "http://www.w3.org/Graphics/SVG/1.1/DTD/svg11.dtd">
<!-- Generated by graphviz version 8.0.5 (20230430.1635)
 -->
<!-- Pages: 1 -->
<svg width="103pt" height="146pt"
 viewBox="0.00 0.00 103.00 146.00" xmlns="http://www.w3.org/2000/svg" xmlns:xlink="http://www.w3.org/1999/xlink">
<g id="graph0" class="graph" transform="scale(1 1) rotate(0) translate(4 142)">
<polygon fill="white" stroke="none" points="-4,4 -4,-142 99,-142 99,4 -4,4"/>
<!-- node_A -->
<g id="node1" class="node">
<title>node_A</title>
<ellipse fill="none" stroke="black" cx="17.99" cy="-59.5" rx="18" ry="18"/>
<text text-anchor="middle" x="17.99" y="-54.45" font-family="Times,serif" font-size="14.00">A</text>
</g>
<!-- node_B -->
<g id="node2" class="node">
<title>node_B</title>
<ellipse fill="none" stroke="black" cx="62.71" cy="-18.02" rx="18" ry="18"/>
<text text-anchor="middle" x="62.71" y="-12.97" font-family="Times,serif" font-size="14.00">B</text>
</g>
<!-- node_A&#45;&gt;node_B -->
<g id="edge1" class="edge">
<title>node_A&#45;&gt;node_B</title>
<path fill="none" stroke="black" d="M31.17,-47.28C34.35,-44.33 37.84,-41.09 41.3,-37.88"/>
<polygon fill="black" stroke="black" points="43.21,-40.95 48.16,-31.59 38.45,-35.82 43.21,-40.95"/>
</g>
<!-- node_C -->
<g id="node3" class="node">
<title>node_C</title>
<ellipse fill="none" stroke="black" cx="77.19" cy="-73.65" rx="18" ry="18"/>
<text text-anchor="middle" x="77.19" y="-68.6" font-family="Times,serif" font-size="14.00">C</text>
</g>
<!-- node_B&#45;&gt;node_C -->
<g id="edge2" class="edge">
<title>node_B&#45;&gt;node_C</title>
<path fill="none" stroke="black" d="M67.29,-35.62C68.11,-38.77 68.98,-42.11 69.85,-45.47"/>
<polygon fill="black" stroke="black" points="66.68,-46.17 72.59,-54.97 73.45,-44.41 66.68,-46.17"/>
</g>
<!-- node_C&#45;&gt;node_A -->
<g id="edge3" class="edge">
<title>node_C&#45;&gt;node_A</title>
<path fill="none" stroke="black" d="M59.43,-69.4C55.21,-68.4 50.61,-67.3 46.06,-66.21"/>
<polygon fill="black" stroke="black" points="47.28,-62.66 36.74,-63.74 45.65,-69.47 47.28,-62.66"/>
</g>
<!-- node_D -->
<g id="node4" class="node">
<title>node_D</title>
<ellipse fill="none" stroke="black" cx="55.1" cy="-120.14" rx="18" ry="18"/>
<text text-anchor="middle" x="55.1" y="-115.09" font-family="Times,serif" font-size="14.00">D</text>
</g>
<!-- node_C&#45;&gt;node_D -->
<g id="edge4" class="edge">
<title>node_C&#45;&gt;node_D</title>
<path fill="none" stroke="black" d="M69.34,-90.17C68.75,-91.4 68.15,-92.66 67.55,-93.94"/>
<polygon fill="black" stroke="black" points="64.05,-92.14 62.92,-102.67 70.38,-95.14 64.05,-92.14"/>
</g>
</g>
</svg>
