<?xml version="1.0" encoding="UTF-8" standalone="no"?>
<!DOCTYPE svg PUBLIC "-//W3C//DTD SVG 1.1//EN"
 "http://www.w3.org/Graphics/SVG/1.1/DTD/svg11.dtd">
<!-- Generated by graphviz version 8.0.3 (20230416.2022)
 -->
<!-- Pages: 1 -->
<svg width="230pt" height="204pt"
 viewBox="0.00 0.00 230.00 204.00" xmlns="http://www.w3.org/2000/svg" xmlns:xlink="http://www.w3.org/1999/xlink">
<g id="graph0" class="graph" transform="scale(1 1) rotate(0) translate(4 200)">
<polygon fill="white" stroke="none" points="-4,4 -4,-200 226,-200 226,4 -4,4"/>
<!-- CPU 1 -->
<g id="node1" class="node">
<title>CPU 1</title>
<polygon fill="none" stroke="black" points="102,-196 48,-196 48,-160 102,-160 102,-196"/>
<text text-anchor="middle" x="75" y="-174.3" font-family="Times,serif" font-size="14.00">CPU 1</text>
</g>
<!-- Northbridge -->
<g id="node3" class="node">
<title>Northbridge</title>
<polygon fill="none" stroke="black" points="152.5,-109 69.5,-109 69.5,-73 152.5,-73 152.5,-109"/>
<text text-anchor="middle" x="111" y="-87.3" font-family="Times,serif" font-size="14.00">Northbridge</text>
</g>
<!-- CPU 1&#45;&gt;Northbridge -->
<g id="edge1" class="edge">
<title>CPU 1&#45;&gt;Northbridge</title>
<path fill="none" stroke="black" d="M86.52,-149.8C90.63,-140.1 95.26,-129.16 99.38,-119.43"/>
<polygon fill="black" stroke="black" points="82.96,-148.23 82.29,-158.8 89.41,-150.96 82.96,-148.23"/>
<polygon fill="black" stroke="black" points="102.93,-121.04 103.6,-110.47 96.48,-118.31 102.93,-121.04"/>
<text text-anchor="middle" x="108.5" y="-130.8" font-family="Times,serif" font-size="14.00">FSB</text>
</g>
<!-- CPU 2 -->
<g id="node2" class="node">
<title>CPU 2</title>
<polygon fill="none" stroke="black" points="174,-196 120,-196 120,-160 174,-160 174,-196"/>
<text text-anchor="middle" x="147" y="-174.3" font-family="Times,serif" font-size="14.00">CPU 2</text>
</g>
<!-- CPU 2&#45;&gt;Northbridge -->
<g id="edge2" class="edge">
<title>CPU 2&#45;&gt;Northbridge</title>
<path fill="none" stroke="black" d="M135.48,-149.8C131.37,-140.1 126.74,-129.16 122.62,-119.43"/>
<polygon fill="black" stroke="black" points="132.59,-150.96 139.71,-158.8 139.04,-148.23 132.59,-150.96"/>
<polygon fill="black" stroke="black" points="125.52,-118.31 118.4,-110.47 119.07,-121.04 125.52,-118.31"/>
<text text-anchor="middle" x="143.5" y="-130.8" font-family="Times,serif" font-size="14.00">FSB</text>
</g>
<!-- Southbridge -->
<g id="node4" class="node">
<title>Southbridge</title>
<polygon fill="none" stroke="black" points="152.5,-36 69.5,-36 69.5,0 152.5,0 152.5,-36"/>
<text text-anchor="middle" x="111" y="-14.3" font-family="Times,serif" font-size="14.00">Southbridge</text>
</g>
<!-- Northbridge&#45;&gt;Southbridge -->
<g id="edge3" class="edge">
<title>Northbridge&#45;&gt;Southbridge</title>
<path fill="none" stroke="black" d="M111,-61.87C111,-56.96 111,-51.84 111,-46.93"/>
<polygon fill="black" stroke="black" points="107.5,-61.81 111,-71.81 114.5,-61.81 107.5,-61.81"/>
<polygon fill="black" stroke="black" points="114.5,-47.03 111,-37.03 107.5,-47.03 114.5,-47.03"/>
</g>
<!-- SATA\nUSB -->
<g id="node7" class="node">
<title>SATA\nUSB</title>
<text text-anchor="middle" x="205" y="-21.8" font-family="Times,serif" font-size="14.00">SATA</text>
<text text-anchor="middle" x="205" y="-6.8" font-family="Times,serif" font-size="14.00">USB</text>
</g>
<!-- Southbridge&#45;&gt;SATA\nUSB -->
<g id="edge6" class="edge">
<title>Southbridge&#45;&gt;SATA\nUSB</title>
<path fill="none" stroke="black" d="M163.66,-18C168.28,-18 172.9,-18 177.52,-18"/>
<polygon fill="black" stroke="black" points="163.86,-14.5 153.86,-18 163.86,-21.5 163.86,-14.5"/>
<polygon fill="black" stroke="black" points="177.3,-21.5 187.3,-18 177.3,-14.5 177.3,-21.5"/>
</g>
<!-- RAM -->
<g id="node5" class="node">
<title>RAM</title>
<text text-anchor="middle" x="18" y="-87.3" font-family="Times,serif" font-size="14.00">RAM</text>
</g>
<!-- RAM&#45;&gt;Northbridge -->
<g id="edge4" class="edge">
<title>RAM&#45;&gt;Northbridge</title>
<path fill="none" stroke="black" d="M44.98,-91C49.4,-91 53.81,-91 58.22,-91"/>
<polygon fill="black" stroke="black" points="44.98,-87.5 34.98,-91 44.98,-94.5 44.98,-87.5"/>
<polygon fill="black" stroke="black" points="58.18,-94.5 68.18,-91 58.18,-87.5 58.18,-94.5"/>
</g>
<!-- PCI&#45;E -->
<g id="node6" class="node">
<title>PCI&#45;E</title>
<text text-anchor="middle" x="17" y="-14.3" font-family="Times,serif" font-size="14.00">PCI&#45;E</text>
</g>
<!-- PCI&#45;E&#45;&gt;Southbridge -->
<g id="edge5" class="edge">
<title>PCI&#45;E&#45;&gt;Southbridge</title>
<path fill="none" stroke="black" d="M44.63,-18C49.22,-18 53.82,-18 58.41,-18"/>
<polygon fill="black" stroke="black" points="44.89,-14.5 34.89,-18 44.89,-21.5 44.89,-14.5"/>
<polygon fill="black" stroke="black" points="58.13,-21.5 68.13,-18 58.13,-14.5 58.13,-21.5"/>
</g>
</g>
</svg>
