<?xml version="1.0" encoding="UTF-8" standalone="no"?>
<!DOCTYPE svg PUBLIC "-//W3C//DTD SVG 1.1//EN"
 "http://www.w3.org/Graphics/SVG/1.1/DTD/svg11.dtd">
<!-- Generated by graphviz version 8.0.5 (20230430.1635)
 -->
<!-- Pages: 1 -->
<svg width="206pt" height="260pt"
 viewBox="0.00 0.00 206.00 260.00" xmlns="http://www.w3.org/2000/svg" xmlns:xlink="http://www.w3.org/1999/xlink">
<g id="graph0" class="graph" transform="scale(1 1) rotate(0) translate(4 256)">
<polygon fill="white" stroke="none" points="-4,4 -4,-256 202,-256 202,4 -4,4"/>
<!-- node_8 -->
<g id="node1" class="node">
<title>node_8</title>
<ellipse fill="none" stroke="black" cx="99" cy="-234" rx="18" ry="18"/>
<text text-anchor="middle" x="99" y="-228.95" font-family="Times,serif" font-size="14.00">8</text>
</g>
<!-- node_6 -->
<g id="node2" class="node">
<title>node_6</title>
<ellipse fill="none" stroke="black" cx="72" cy="-162" rx="18" ry="18"/>
<text text-anchor="middle" x="72" y="-156.95" font-family="Times,serif" font-size="14.00">6</text>
</g>
<!-- node_8&#45;&gt;node_6 -->
<g id="edge1" class="edge">
<title>node_8&#45;&gt;node_6</title>
<path fill="none" stroke="black" d="M92.74,-216.76C89.6,-208.64 85.73,-198.59 82.18,-189.39"/>
<polygon fill="black" stroke="black" points="85.09,-188.22 78.23,-180.15 78.56,-190.74 85.09,-188.22"/>
</g>
<!-- node_7 -->
<g id="node3" class="node">
<title>node_7</title>
<ellipse fill="none" stroke="black" cx="126" cy="-162" rx="18" ry="18"/>
<text text-anchor="middle" x="126" y="-156.95" font-family="Times,serif" font-size="14.00">7</text>
</g>
<!-- node_8&#45;&gt;node_7 -->
<g id="edge2" class="edge">
<title>node_8&#45;&gt;node_7</title>
<path fill="none" stroke="black" d="M105.26,-216.76C108.4,-208.64 112.27,-198.59 115.82,-189.39"/>
<polygon fill="black" stroke="black" points="119.44,-190.74 119.77,-180.15 112.91,-188.22 119.44,-190.74"/>
</g>
<!-- node_4 -->
<g id="node4" class="node">
<title>node_4</title>
<ellipse fill="none" stroke="black" cx="18" cy="-90" rx="18" ry="18"/>
<text text-anchor="middle" x="18" y="-84.95" font-family="Times,serif" font-size="14.00">4</text>
</g>
<!-- node_6&#45;&gt;node_4 -->
<g id="edge3" class="edge">
<title>node_6&#45;&gt;node_4</title>
<path fill="none" stroke="black" d="M61.33,-147.17C53.86,-137.49 43.72,-124.34 35.13,-113.2"/>
<polygon fill="black" stroke="black" points="37.53,-111.58 28.65,-105.8 31.98,-115.86 37.53,-111.58"/>
</g>
<!-- node_5 -->
<g id="node5" class="node">
<title>node_5</title>
<ellipse fill="none" stroke="black" cx="72" cy="-90" rx="18" ry="18"/>
<text text-anchor="middle" x="72" y="-84.95" font-family="Times,serif" font-size="14.00">5</text>
</g>
<!-- node_6&#45;&gt;node_5 -->
<g id="edge4" class="edge">
<title>node_6&#45;&gt;node_5</title>
<path fill="none" stroke="black" d="M72,-143.7C72,-136.24 72,-127.32 72,-118.97"/>
<polygon fill="black" stroke="black" points="75.5,-119.1 72,-109.1 68.5,-119.1 75.5,-119.1"/>
</g>
<!-- node_3 -->
<g id="node6" class="node">
<title>node_3</title>
<ellipse fill="none" stroke="black" cx="126" cy="-90" rx="18" ry="18"/>
<text text-anchor="middle" x="126" y="-84.95" font-family="Times,serif" font-size="14.00">3</text>
</g>
<!-- node_7&#45;&gt;node_3 -->
<g id="edge5" class="edge">
<title>node_7&#45;&gt;node_3</title>
<path fill="none" stroke="black" d="M126,-143.7C126,-136.24 126,-127.32 126,-118.97"/>
<polygon fill="black" stroke="black" points="129.5,-119.1 126,-109.1 122.5,-119.1 129.5,-119.1"/>
</g>
<!-- node_2 -->
<g id="node7" class="node">
<title>node_2</title>
<ellipse fill="none" stroke="black" cx="180" cy="-90" rx="18" ry="18"/>
<text text-anchor="middle" x="180" y="-84.95" font-family="Times,serif" font-size="14.00">2</text>
</g>
<!-- node_7&#45;&gt;node_2 -->
<g id="edge6" class="edge">
<title>node_7&#45;&gt;node_2</title>
<path fill="none" stroke="black" d="M136.67,-147.17C144.14,-137.49 154.28,-124.34 162.87,-113.2"/>
<polygon fill="black" stroke="black" points="166.02,-115.86 169.35,-105.8 160.47,-111.58 166.02,-115.86"/>
</g>
<!-- node_1 -->
<g id="node8" class="node">
<title>node_1</title>
<ellipse fill="none" stroke="black" cx="18" cy="-18" rx="18" ry="18"/>
<text text-anchor="middle" x="18" y="-12.95" font-family="Times,serif" font-size="14.00">1</text>
</g>
<!-- node_4&#45;&gt;node_1 -->
<g id="edge7" class="edge">
<title>node_4&#45;&gt;node_1</title>
<path fill="none" stroke="black" d="M18,-71.7C18,-64.24 18,-55.32 18,-46.97"/>
<polygon fill="black" stroke="black" points="21.5,-47.1 18,-37.1 14.5,-47.1 21.5,-47.1"/>
</g>
</g>
</svg>
