<?xml version="1.0" encoding="UTF-8" standalone="no"?>
<!DOCTYPE svg PUBLIC "-//W3C//DTD SVG 1.1//EN"
 "http://www.w3.org/Graphics/SVG/1.1/DTD/svg11.dtd">
<!-- Generated by graphviz version 8.0.3 (20230416.2022)
 -->
<!-- Pages: 1 -->
<svg width="270pt" height="118pt"
 viewBox="0.00 0.00 270.00 118.00" xmlns="http://www.w3.org/2000/svg" xmlns:xlink="http://www.w3.org/1999/xlink">
<g id="graph0" class="graph" transform="scale(1 1) rotate(0) translate(4 114)">
<polygon fill="white" stroke="none" points="-4,4 -4,-114 266,-114 266,4 -4,4"/>
<!-- parent -->
<g id="node1" class="node">
<title>parent</title>
<polygon fill="none" stroke="black" points="108,-73.5 108,-109.5 182,-109.5 182,-73.5 108,-73.5"/>
<text text-anchor="middle" x="119.5" y="-87.8" font-family="Times,serif" font-size="14.00">a</text>
<polyline fill="none" stroke="black" points="131,-73.5 131,-109.5"/>
<text text-anchor="middle" x="142.5" y="-87.8" font-family="Times,serif" font-size="14.00">b</text>
<polyline fill="none" stroke="black" points="154,-73.5 154,-109.5"/>
<text text-anchor="middle" x="168" y="-87.8" font-family="Times,serif" font-size="14.00">...</text>
</g>
<!-- child_1 -->
<g id="node2" class="node">
<title>child_1</title>
<polygon fill="none" stroke="black" points="0,-0.5 0,-36.5 122,-36.5 122,-0.5 0,-0.5"/>
<text text-anchor="middle" x="18.5" y="-14.8" font-family="Times,serif" font-size="14.00">v11</text>
<polyline fill="none" stroke="black" points="37,-0.5 37,-36.5"/>
<text text-anchor="middle" x="55.5" y="-14.8" font-family="Times,serif" font-size="14.00">v12</text>
<polyline fill="none" stroke="black" points="74,-0.5 74,-36.5"/>
<text text-anchor="middle" x="88" y="-14.8" font-family="Times,serif" font-size="14.00">...</text>
<polyline fill="none" stroke="black" points="102,-0.5 102,-36.5"/>
<text text-anchor="middle" x="112" y="-14.8" font-family="Times,serif" font-size="14.00"> </text>
</g>
<!-- parent&#45;&gt;child_1 -->
<g id="edge1" class="edge">
<title>parent:1&#45;&gt;child_1</title>
<path fill="none" stroke="black" d="M119,-73C119,-61.15 112.38,-51.2 103.6,-43.21"/>
<polygon fill="black" stroke="black" points="106.08,-39.92 96.07,-36.44 101.73,-45.4 106.08,-39.92"/>
</g>
<!-- child_2 -->
<g id="node3" class="node">
<title>child_2</title>
<polygon fill="none" stroke="black" points="140,-0.5 140,-36.5 262,-36.5 262,-0.5 140,-0.5"/>
<text text-anchor="middle" x="158.5" y="-14.8" font-family="Times,serif" font-size="14.00">v21</text>
<polyline fill="none" stroke="black" points="177,-0.5 177,-36.5"/>
<text text-anchor="middle" x="195.5" y="-14.8" font-family="Times,serif" font-size="14.00">v22</text>
<polyline fill="none" stroke="black" points="214,-0.5 214,-36.5"/>
<text text-anchor="middle" x="228" y="-14.8" font-family="Times,serif" font-size="14.00">...</text>
<polyline fill="none" stroke="black" points="242,-0.5 242,-36.5"/>
<text text-anchor="middle" x="252" y="-14.8" font-family="Times,serif" font-size="14.00"> </text>
</g>
<!-- parent&#45;&gt;child_2 -->
<g id="edge2" class="edge">
<title>parent:2&#45;&gt;child_2</title>
<path fill="none" stroke="black" d="M142,-73C142,-60.92 148.88,-50.85 157.93,-42.83"/>
<polygon fill="black" stroke="black" points="159.58,-45.2 165.34,-36.3 155.29,-39.67 159.58,-45.2"/>
</g>
</g>
</svg>
