<?xml version="1.0" encoding="UTF-8" standalone="no"?>
<!DOCTYPE svg PUBLIC "-//W3C//DTD SVG 1.1//EN"
 "http://www.w3.org/Graphics/SVG/1.1/DTD/svg11.dtd">
<!-- Generated by graphviz version 8.0.3 (20230416.2022)
 -->
<!-- Pages: 1 -->
<svg width="242pt" height="103pt"
 viewBox="0.00 0.00 242.00 103.00" xmlns="http://www.w3.org/2000/svg" xmlns:xlink="http://www.w3.org/1999/xlink">
<g id="graph0" class="graph" transform="scale(1 1) rotate(0) translate(4 99)">
<polygon fill="white" stroke="none" points="-4,4 -4,-99 238,-99 238,4 -4,4"/>
<!-- a -->
<g id="node1" class="node">
<title>a</title>
<polygon fill="none" stroke="black" points="0,-48.5 0,-94.5 54,-94.5 54,-48.5 0,-48.5"/>
<text text-anchor="middle" x="27" y="-79.3" font-family="Times,serif" font-size="14.00">car</text>
<polyline fill="none" stroke="black" points="0,-71.5 54,-71.5"/>
<text text-anchor="middle" x="27" y="-56.3" font-family="Times,serif" font-size="14.00">cdr</text>
</g>
<!-- b -->
<g id="node2" class="node">
<title>b</title>
<polygon fill="none" stroke="black" points="90,-24.5 90,-70.5 144,-70.5 144,-24.5 90,-24.5"/>
<text text-anchor="middle" x="117" y="-55.3" font-family="Times,serif" font-size="14.00">car</text>
<polyline fill="none" stroke="black" points="90,-47.5 144,-47.5"/>
<text text-anchor="middle" x="117" y="-32.3" font-family="Times,serif" font-size="14.00">cdr</text>
</g>
<!-- a&#45;&gt;b -->
<g id="edge1" class="edge">
<title>a:cdr&#45;&gt;b:car</title>
<path fill="none" stroke="black" d="M54,-59.5C65.62,-59.5 70.92,-59.5 79.08,-59.5"/>
<polygon fill="black" stroke="black" points="79,-63 89,-59.5 79,-56 79,-63"/>
</g>
<!-- c -->
<g id="node3" class="node">
<title>c</title>
<polygon fill="none" stroke="black" points="180,-0.5 180,-46.5 234,-46.5 234,-0.5 180,-0.5"/>
<text text-anchor="middle" x="207" y="-31.3" font-family="Times,serif" font-size="14.00">car</text>
<polyline fill="none" stroke="black" points="180,-23.5 234,-23.5"/>
<text text-anchor="middle" x="207" y="-8.3" font-family="Times,serif" font-size="14.00">cdr</text>
</g>
<!-- b&#45;&gt;c -->
<g id="edge2" class="edge">
<title>b:cdr&#45;&gt;c:car</title>
<path fill="none" stroke="black" d="M144,-35.5C155.62,-35.5 160.92,-35.5 169.08,-35.5"/>
<polygon fill="black" stroke="black" points="169,-39 179,-35.5 169,-32 169,-39"/>
</g>
</g>
</svg>
