<?xml version="1.0" encoding="UTF-8" standalone="no"?>
<!DOCTYPE svg PUBLIC "-//W3C//DTD SVG 1.1//EN"
 "http://www.w3.org/Graphics/SVG/1.1/DTD/svg11.dtd">
<!-- Generated by graphviz version 8.0.5 (20230430.1635)
 -->
<!-- Pages: 1 -->
<svg width="284pt" height="191pt"
 viewBox="0.00 0.00 284.00 191.00" xmlns="http://www.w3.org/2000/svg" xmlns:xlink="http://www.w3.org/1999/xlink">
<g id="graph0" class="graph" transform="scale(1 1) rotate(0) translate(4 187)">
<polygon fill="white" stroke="none" points="-4,4 -4,-187 280,-187 280,4 -4,4"/>
<!-- node_10_20_27 -->
<g id="node1" class="node">
<title>node_10_20_27</title>
<polygon fill="none" stroke="black" points="91.75,-146.5 91.75,-182.5 180.25,-182.5 180.25,-146.5 91.75,-146.5"/>
<text text-anchor="middle" x="106.5" y="-159.45" font-family="Times,serif" font-size="14.00">10</text>
<polyline fill="none" stroke="black" points="121.25,-146.5 121.25,-182.5"/>
<text text-anchor="middle" x="136" y="-159.45" font-family="Times,serif" font-size="14.00">20</text>
<polyline fill="none" stroke="black" points="150.75,-146.5 150.75,-182.5"/>
<text text-anchor="middle" x="165.5" y="-159.45" font-family="Times,serif" font-size="14.00">27</text>
</g>
<!-- node_5 -->
<g id="node2" class="node">
<title>node_5</title>
<polygon fill="none" stroke="black" points="0,-73.5 0,-109.5 54,-109.5 54,-73.5 0,-73.5"/>
<text text-anchor="middle" x="26.88" y="-86.45" font-family="Times,serif" font-size="14.00">5</text>
</g>
<!-- node_10_20_27&#45;&gt;node_5 -->
<g id="edge1" class="edge">
<title>node_10_20_27&#45;&gt;node_5</title>
<path fill="none" stroke="black" d="M110.17,-146.67C95.75,-137.28 77.59,-125.45 61.92,-115.24"/>
<polygon fill="black" stroke="black" points="64.31,-111.98 54.02,-109.45 60.49,-117.84 64.31,-111.98"/>
</g>
<!-- node_17 -->
<g id="node3" class="node">
<title>node_17</title>
<polygon fill="none" stroke="black" points="72,-73.5 72,-109.5 126,-109.5 126,-73.5 72,-73.5"/>
<text text-anchor="middle" x="98.75" y="-86.45" font-family="Times,serif" font-size="14.00">17</text>
</g>
<!-- node_10_20_27&#45;&gt;node_17 -->
<g id="edge2" class="edge">
<title>node_10_20_27&#45;&gt;node_17</title>
<path fill="none" stroke="black" d="M127.23,-146.67C122.9,-138.36 117.57,-128.14 112.72,-118.83"/>
<polygon fill="black" stroke="black" points="115.43,-117.46 107.71,-110.21 109.22,-120.69 115.43,-117.46"/>
</g>
<!-- node_23_25 -->
<g id="node4" class="node">
<title>node_23_25</title>
<polygon fill="none" stroke="black" points="144.5,-73.5 144.5,-109.5 203.5,-109.5 203.5,-73.5 144.5,-73.5"/>
<text text-anchor="middle" x="159.25" y="-86.45" font-family="Times,serif" font-size="14.00">23</text>
<polyline fill="none" stroke="black" points="174,-73.5 174,-109.5"/>
<text text-anchor="middle" x="188.75" y="-86.45" font-family="Times,serif" font-size="14.00">25</text>
</g>
<!-- node_10_20_27&#45;&gt;node_23_25 -->
<g id="edge3" class="edge">
<title>node_10_20_27&#45;&gt;node_23_25</title>
<path fill="none" stroke="black" d="M145.01,-146.67C149.45,-138.36 154.92,-128.14 159.91,-118.83"/>
<polygon fill="black" stroke="black" points="163.43,-120.67 165.06,-110.21 157.25,-117.37 163.43,-120.67"/>
</g>
<!-- node_28 -->
<g id="node8" class="node">
<title>node_28</title>
<polygon fill="none" stroke="black" points="222,-73.5 222,-109.5 276,-109.5 276,-73.5 222,-73.5"/>
<text text-anchor="middle" x="248.75" y="-86.45" font-family="Times,serif" font-size="14.00">28</text>
</g>
<!-- node_10_20_27&#45;&gt;node_28 -->
<g id="edge7" class="edge">
<title>node_10_20_27&#45;&gt;node_28</title>
<path fill="none" stroke="black" d="M162.78,-146.67C177.73,-137.28 196.56,-125.45 212.8,-115.24"/>
<polygon fill="black" stroke="black" points="214.42,-117.74 221.02,-109.45 210.69,-111.81 214.42,-117.74"/>
</g>
<!-- node_21 -->
<g id="node5" class="node">
<title>node_21</title>
<polygon fill="none" stroke="black" points="75,-0.5 75,-36.5 129,-36.5 129,-0.5 75,-0.5"/>
<text text-anchor="middle" x="101.75" y="-13.45" font-family="Times,serif" font-size="14.00">21</text>
</g>
<!-- node_23_25&#45;&gt;node_21 -->
<g id="edge4" class="edge">
<title>node_23_25&#45;&gt;node_21</title>
<path fill="none" stroke="black" d="M156.94,-73.67C147.88,-64.74 136.59,-53.61 126.6,-43.76"/>
<polygon fill="black" stroke="black" points="129.52,-41.73 119.94,-37.21 124.6,-46.72 129.52,-41.73"/>
</g>
<!-- node_24 -->
<g id="node6" class="node">
<title>node_24</title>
<polygon fill="none" stroke="black" points="147,-0.5 147,-36.5 201,-36.5 201,-0.5 147,-0.5"/>
<text text-anchor="middle" x="173.75" y="-13.45" font-family="Times,serif" font-size="14.00">24</text>
</g>
<!-- node_23_25&#45;&gt;node_24 -->
<g id="edge5" class="edge">
<title>node_23_25&#45;&gt;node_24</title>
<path fill="none" stroke="black" d="M174,-73.67C174,-65.72 174,-56.01 174,-47.02"/>
<polygon fill="black" stroke="black" points="177.5,-47.21 174,-37.21 170.5,-47.21 177.5,-47.21"/>
</g>
<!-- node_26 -->
<g id="node7" class="node">
<title>node_26</title>
<polygon fill="none" stroke="black" points="219,-0.5 219,-36.5 273,-36.5 273,-0.5 219,-0.5"/>
<text text-anchor="middle" x="245.75" y="-13.45" font-family="Times,serif" font-size="14.00">26</text>
</g>
<!-- node_23_25&#45;&gt;node_26 -->
<g id="edge6" class="edge">
<title>node_23_25&#45;&gt;node_26</title>
<path fill="none" stroke="black" d="M191.06,-73.67C200.12,-64.74 211.41,-53.61 221.4,-43.76"/>
<polygon fill="black" stroke="black" points="223.4,-46.72 228.06,-37.21 218.48,-41.73 223.4,-46.72"/>
</g>
</g>
</svg>
