<?xml version="1.0" encoding="UTF-8" standalone="no"?>
<!DOCTYPE svg PUBLIC "-//W3C//DTD SVG 1.1//EN"
 "http://www.w3.org/Graphics/SVG/1.1/DTD/svg11.dtd">
<!-- Generated by graphviz version 8.0.5 (20230430.1635)
 -->
<!-- Pages: 1 -->
<svg width="142pt" height="137pt"
 viewBox="0.00 0.00 142.00 137.00" xmlns="http://www.w3.org/2000/svg" xmlns:xlink="http://www.w3.org/1999/xlink">
<g id="graph0" class="graph" transform="scale(1 1) rotate(0) translate(4 133)">
<polygon fill="white" stroke="none" points="-4,4 -4,-133 138,-133 138,4 -4,4"/>
<!-- node_A -->
<g id="node1" class="node">
<title>node_A</title>
<ellipse fill="none" stroke="black" cx="17.99" cy="-46.32" rx="18" ry="18"/>
<text text-anchor="middle" x="17.99" y="-41.27" font-family="Times,serif" font-size="14.00">A</text>
</g>
<!-- node_B -->
<g id="node2" class="node">
<title>node_B</title>
<ellipse fill="none" stroke="black" cx="115.55" cy="-67" rx="18" ry="18"/>
<text text-anchor="middle" x="115.55" y="-61.95" font-family="Times,serif" font-size="14.00">B</text>
</g>
<!-- node_A&#45;&gt;node_B -->
<g id="edge1" class="edge">
<title>node_A&#45;&gt;node_B</title>
<path fill="none" stroke="black" d="M35.89,-50.11C50.19,-53.14 70.51,-57.45 87.05,-60.96"/>
<polygon fill="black" stroke="black" points="86.26,-64.58 96.77,-63.23 87.71,-57.74 86.26,-64.58"/>
</g>
<!-- node_C -->
<g id="node3" class="node">
<title>node_C</title>
<ellipse fill="none" stroke="black" cx="77.78" cy="-17.62" rx="18" ry="18"/>
<text text-anchor="middle" x="77.78" y="-12.57" font-family="Times,serif" font-size="14.00">C</text>
</g>
<!-- node_A&#45;&gt;node_C -->
<g id="edge2" class="edge">
<title>node_A&#45;&gt;node_C</title>
<path fill="none" stroke="black" d="M34.65,-38.32C39.83,-35.84 45.68,-33.03 51.35,-30.3"/>
<polygon fill="black" stroke="black" points="52.71,-33.05 60.21,-25.57 49.68,-26.74 52.71,-33.05"/>
</g>
<!-- node_B&#45;&gt;node_C -->
<g id="edge3" class="edge">
<title>node_B&#45;&gt;node_C</title>
<path fill="none" stroke="black" d="M104.42,-52.45C101.6,-48.77 98.51,-44.72 95.45,-40.73"/>
<polygon fill="black" stroke="black" points="97.81,-39.05 88.96,-33.24 92.25,-43.31 97.81,-39.05"/>
</g>
<!-- node_D -->
<g id="node4" class="node">
<title>node_D</title>
<ellipse fill="none" stroke="black" cx="67.38" cy="-110.86" rx="18" ry="18"/>
<text text-anchor="middle" x="67.38" y="-105.81" font-family="Times,serif" font-size="14.00">D</text>
</g>
<!-- node_C&#45;&gt;node_D -->
<g id="edge4" class="edge">
<title>node_C&#45;&gt;node_D</title>
<path fill="none" stroke="black" d="M75.77,-35.6C74.32,-48.67 72.31,-66.65 70.63,-81.75"/>
<polygon fill="black" stroke="black" points="67.05,-81.29 69.42,-91.62 74,-82.07 67.05,-81.29"/>
</g>
<!-- node_D&#45;&gt;node_B -->
<g id="edge5" class="edge">
<title>node_D&#45;&gt;node_B</title>
<path fill="none" stroke="black" d="M81.06,-98.41C85.06,-94.77 89.53,-90.69 93.9,-86.72"/>
<polygon fill="black" stroke="black" points="95.97,-89.65 101.01,-80.33 91.26,-84.48 95.97,-89.65"/>
</g>
</g>
</svg>
