<?xml version="1.0" encoding="UTF-8" standalone="no"?>
<!DOCTYPE svg PUBLIC "-//W3C//DTD SVG 1.1//EN"
 "http://www.w3.org/Graphics/SVG/1.1/DTD/svg11.dtd">
<!-- Generated by graphviz version 8.0.4 (20230421.1958)
 -->
<!-- Pages: 1 -->
<svg width="364pt" height="116pt"
 viewBox="0.00 0.00 363.95 116.00" xmlns="http://www.w3.org/2000/svg" xmlns:xlink="http://www.w3.org/1999/xlink">
<g id="graph0" class="graph" transform="scale(1 1) rotate(0) translate(4 112)">
<polygon fill="white" stroke="none" points="-4,4 -4,-112 359.95,-112 359.95,4 -4,4"/>
<!-- k1 k2 ... kn -->
<g id="node1" class="node">
<title>k1 k2 ... kn</title>
<ellipse fill="none" stroke="black" cx="190.97" cy="-90" rx="53.91" ry="18"/>
<text text-anchor="middle" x="190.97" y="-84.95" font-family="Times,serif" font-size="14.00">k1 k2 ... kn</text>
</g>
<!-- k ≤ k1 -->
<g id="node2" class="node">
<title>k ≤ k1</title>
<ellipse fill="none" stroke="black" cx="34.97" cy="-18" rx="34.97" ry="18"/>
<text text-anchor="middle" x="34.97" y="-12.95" font-family="Times,serif" font-size="14.00">k ≤ k1</text>
</g>
<!-- k1 k2 ... kn&#45;&gt;k ≤ k1 -->
<g id="edge1" class="edge">
<title>k1 k2 ... kn&#45;&gt;k ≤ k1</title>
<path fill="none" stroke="black" d="M159.78,-75C134,-63.43 97.39,-47.01 70.49,-34.94"/>
<polygon fill="black" stroke="black" points="72.25,-31.44 61.69,-30.54 69.38,-37.83 72.25,-31.44"/>
</g>
<!-- k1 ≤ k ≤ k2 -->
<g id="node3" class="node">
<title>k1 ≤ k ≤ k2</title>
<ellipse fill="none" stroke="black" cx="141.97" cy="-18" rx="54.42" ry="18"/>
<text text-anchor="middle" x="141.97" y="-12.95" font-family="Times,serif" font-size="14.00">k1 ≤ k ≤ k2</text>
</g>
<!-- k1 k2 ... kn&#45;&gt;k1 ≤ k ≤ k2 -->
<g id="edge2" class="edge">
<title>k1 k2 ... kn&#45;&gt;k1 ≤ k ≤ k2</title>
<path fill="none" stroke="black" d="M179.11,-72.05C173.33,-63.8 166.26,-53.7 159.85,-44.54"/>
<polygon fill="black" stroke="black" points="162.33,-42.97 153.73,-36.79 156.59,-46.99 162.33,-42.97"/>
</g>
<!-- ... -->
<g id="node4" class="node">
<title>...</title>
<ellipse fill="none" stroke="black" cx="240.97" cy="-18" rx="27" ry="18"/>
<text text-anchor="middle" x="240.97" y="-12.95" font-family="Times,serif" font-size="14.00">...</text>
</g>
<!-- k1 k2 ... kn&#45;&gt;... -->
<g id="edge3" class="edge">
<title>k1 k2 ... kn&#45;&gt;...</title>
<path fill="none" stroke="black" d="M203.08,-72.05C209.15,-63.56 216.61,-53.11 223.31,-43.73"/>
<polygon fill="black" stroke="black" points="226.7,-46 229.67,-35.83 221.01,-41.93 226.7,-46"/>
</g>
<!-- kn ≤ k -->
<g id="node5" class="node">
<title>kn ≤ k</title>
<ellipse fill="none" stroke="black" cx="320.97" cy="-18" rx="34.97" ry="18"/>
<text text-anchor="middle" x="320.97" y="-12.95" font-family="Times,serif" font-size="14.00">kn ≤ k</text>
</g>
<!-- k1 k2 ... kn&#45;&gt;kn ≤ k -->
<g id="edge4" class="edge">
<title>k1 k2 ... kn&#45;&gt;kn ≤ k</title>
<path fill="none" stroke="black" d="M218.54,-74.15C238.75,-63.28 266.27,-48.46 287.7,-36.92"/>
<polygon fill="black" stroke="black" points="289.22,-39.53 296.37,-31.71 285.9,-33.37 289.22,-39.53"/>
</g>
</g>
</svg>
