<?xml version="1.0" encoding="UTF-8" standalone="no"?>
<!DOCTYPE svg PUBLIC "-//W3C//DTD SVG 1.1//EN"
 "http://www.w3.org/Graphics/SVG/1.1/DTD/svg11.dtd">
<!-- Generated by graphviz version 8.0.5 (20230430.1635)
 -->
<!-- Pages: 1 -->
<svg width="499pt" height="318pt"
 viewBox="0.00 0.00 499.13 318.02" xmlns="http://www.w3.org/2000/svg" xmlns:xlink="http://www.w3.org/1999/xlink">
<g id="graph0" class="graph" transform="scale(1 1) rotate(0) translate(4 314.02)">
<polygon fill="white" stroke="none" points="-4,4 -4,-314.02 495.13,-314.02 495.13,4 -4,4"/>
<!-- node_6 -->
<g id="node1" class="node">
<title>node_6</title>
<ellipse fill="none" stroke="black" cx="18" cy="-20.13" rx="18" ry="18"/>
<text text-anchor="middle" x="18" y="-15.08" font-family="Times,serif" font-size="14.00">6</text>
</g>
<!-- node_5 -->
<g id="node2" class="node">
<title>node_5</title>
<ellipse fill="none" stroke="black" cx="18" cy="-112.89" rx="18" ry="18"/>
<text text-anchor="middle" x="18" y="-107.84" font-family="Times,serif" font-size="14.00">5</text>
</g>
<!-- node_6&#45;&gt;node_5 -->
<g id="edge3" class="edge">
<title>node_6&#45;&gt;node_5</title>
<path fill="none" stroke="grey" stroke-dasharray="5,2" d="M25.44,-37.04C28.07,-43.48 30.69,-51.08 32,-58.26 33.69,-67.55 32.03,-77.6 29.34,-86.45"/>
<polygon fill="grey" stroke="grey" points="25.8,-84.95 25.7,-95.54 32.39,-87.32 25.8,-84.95"/>
<text text-anchor="middle" x="36.38" y="-61.46" font-family="Times,serif" font-size="14.00">1</text>
</g>
<!-- node_5&#45;&gt;node_6 -->
<g id="edge1" class="edge">
<title>node_5&#45;&gt;node_6</title>
<path fill="none" stroke="black" d="M18,-94.39C18,-81.59 18,-63.94 18,-49.18"/>
<polygon fill="black" stroke="black" points="21.5,-49.58 18,-39.58 14.5,-49.58 21.5,-49.58"/>
</g>
<!-- node_7 -->
<g id="node4" class="node">
<title>node_7</title>
<ellipse fill="none" stroke="black" cx="90" cy="-112.89" rx="18" ry="18"/>
<text text-anchor="middle" x="90" y="-107.84" font-family="Times,serif" font-size="14.00">7</text>
</g>
<!-- node_5&#45;&gt;node_7 -->
<g id="edge5" class="edge">
<title>node_5&#45;&gt;node_7</title>
<path fill="none" stroke="grey" stroke-dasharray="5,2" d="M36.17,-112.89C43.62,-112.89 52.42,-112.89 60.74,-112.89"/>
<polygon fill="grey" stroke="grey" points="60.59,-116.39 70.59,-112.89 60.59,-109.39 60.59,-116.39"/>
<text text-anchor="middle" x="54" y="-119.09" font-family="Times,serif" font-size="14.00">2</text>
</g>
<!-- node_2 -->
<g id="node3" class="node">
<title>node_2</title>
<ellipse fill="none" stroke="black" cx="90" cy="-203.52" rx="18" ry="18"/>
<text text-anchor="middle" x="90" y="-198.47" font-family="Times,serif" font-size="14.00">2</text>
</g>
<!-- node_2&#45;&gt;node_5 -->
<g id="edge2" class="edge">
<title>node_2&#45;&gt;node_5</title>
<path fill="none" stroke="black" d="M79.06,-189.06C67.54,-174.88 49.21,-152.32 35.64,-135.61"/>
<polygon fill="black" stroke="black" points="38.06,-134.04 29.04,-128.48 32.63,-138.45 38.06,-134.04"/>
</g>
<!-- node_2&#45;&gt;node_7 -->
<g id="edge4" class="edge">
<title>node_2&#45;&gt;node_7</title>
<path fill="none" stroke="black" d="M90,-185.44C90,-173.13 90,-156.25 90,-141.98"/>
<polygon fill="black" stroke="black" points="93.5,-142.23 90,-132.23 86.5,-142.23 93.5,-142.23"/>
</g>
<!-- node_9 -->
<g id="node6" class="node">
<title>node_9</title>
<ellipse fill="none" stroke="black" cx="133" cy="-20.13" rx="18" ry="18"/>
<text text-anchor="middle" x="133" y="-15.08" font-family="Times,serif" font-size="14.00">9</text>
</g>
<!-- node_2&#45;&gt;node_9 -->
<g id="edge9" class="edge">
<title>node_2&#45;&gt;node_9</title>
<path fill="none" stroke="grey" stroke-dasharray="5,2" d="M96.48,-186.52C98.87,-180.57 101.58,-173.75 104,-167.52 109.93,-152.25 112.93,-148.9 117,-133.02 124.19,-105.02 128.4,-72.19 130.68,-49.37"/>
<polygon fill="grey" stroke="grey" points="134.26,-49.7 131.71,-39.42 127.29,-49.05 134.26,-49.7"/>
<text text-anchor="middle" x="128.38" y="-107.84" font-family="Times,serif" font-size="14.00">4</text>
</g>
<!-- node_7&#45;&gt;node_2 -->
<g id="edge7" class="edge">
<title>node_7&#45;&gt;node_2</title>
<path fill="none" stroke="grey" stroke-dasharray="5,2" d="M97.78,-129.26C102.25,-139.92 106.51,-154.48 104,-167.52 103.41,-170.6 102.55,-173.74 101.54,-176.83"/>
<polygon fill="grey" stroke="grey" points="98,-175.29 97.73,-185.88 104.55,-177.77 98,-175.29"/>
<text text-anchor="middle" x="108.38" y="-154.22" font-family="Times,serif" font-size="14.00">3</text>
</g>
<!-- node_1 -->
<g id="node5" class="node">
<title>node_1</title>
<ellipse fill="none" stroke="black" cx="197" cy="-292.02" rx="18" ry="18"/>
<text text-anchor="middle" x="197" y="-286.97" font-family="Times,serif" font-size="14.00">1</text>
</g>
<!-- node_1&#45;&gt;node_2 -->
<g id="edge6" class="edge">
<title>node_1&#45;&gt;node_2</title>
<path fill="none" stroke="black" d="M183.45,-280.07C165.54,-265.59 133.75,-239.89 112.28,-222.53"/>
<polygon fill="black" stroke="black" points="114.76,-219.23 104.78,-215.66 110.36,-224.67 114.76,-219.23"/>
</g>
<!-- node_3 -->
<g id="node9" class="node">
<title>node_3</title>
<ellipse fill="none" stroke="black" cx="197" cy="-203.52" rx="18" ry="18"/>
<text text-anchor="middle" x="197" y="-198.47" font-family="Times,serif" font-size="14.00">3</text>
</g>
<!-- node_1&#45;&gt;node_3 -->
<g id="edge16" class="edge">
<title>node_1&#45;&gt;node_3</title>
<path fill="none" stroke="black" d="M197,-273.93C197,-262.16 197,-246.25 197,-232.63"/>
<polygon fill="black" stroke="black" points="200.5,-232.87 197,-222.87 193.5,-232.87 200.5,-232.87"/>
</g>
<!-- node_4 -->
<g id="node12" class="node">
<title>node_4</title>
<ellipse fill="none" stroke="black" cx="349" cy="-203.52" rx="18" ry="18"/>
<text text-anchor="middle" x="349" y="-198.47" font-family="Times,serif" font-size="14.00">4</text>
</g>
<!-- node_1&#45;&gt;node_4 -->
<g id="edge24" class="edge">
<title>node_1&#45;&gt;node_4</title>
<path fill="none" stroke="black" d="M212.41,-282.25C238.7,-267.29 292.43,-236.72 324.1,-218.69"/>
<polygon fill="black" stroke="black" points="325.59,-221.31 332.55,-213.32 322.13,-215.22 325.59,-221.31"/>
</g>
<!-- node_10 -->
<g id="node8" class="node">
<title>node_10</title>
<ellipse fill="none" stroke="black" cx="207" cy="-20.13" rx="20.13" ry="20.13"/>
<text text-anchor="middle" x="207" y="-15.08" font-family="Times,serif" font-size="14.00">10</text>
</g>
<!-- node_9&#45;&gt;node_10 -->
<g id="edge11" class="edge">
<title>node_9&#45;&gt;node_10</title>
<path fill="none" stroke="grey" stroke-dasharray="5,2" d="M151.29,-20.13C158.65,-20.13 167.34,-20.13 175.65,-20.13"/>
<polygon fill="grey" stroke="grey" points="175.57,-23.63 185.57,-20.13 175.57,-16.63 175.57,-23.63"/>
<text text-anchor="middle" x="168.93" y="-26.33" font-family="Times,serif" font-size="14.00">5</text>
</g>
<!-- node_8 -->
<g id="node7" class="node">
<title>node_8</title>
<ellipse fill="none" stroke="black" cx="187" cy="-112.89" rx="18" ry="18"/>
<text text-anchor="middle" x="187" y="-107.84" font-family="Times,serif" font-size="14.00">8</text>
</g>
<!-- node_8&#45;&gt;node_9 -->
<g id="edge8" class="edge">
<title>node_8&#45;&gt;node_9</title>
<path fill="none" stroke="black" d="M178.08,-96.91C169.72,-82.85 157.07,-61.59 147.3,-45.16"/>
<polygon fill="black" stroke="black" points="150.05,-43.95 141.93,-37.14 144.04,-47.52 150.05,-43.95"/>
</g>
<!-- node_8&#45;&gt;node_10 -->
<g id="edge10" class="edge">
<title>node_8&#45;&gt;node_10</title>
<path fill="none" stroke="black" d="M190.76,-94.82C193.5,-82.38 197.29,-65.22 200.51,-50.58"/>
<polygon fill="black" stroke="black" points="204.11,-51.52 202.84,-41.01 197.27,-50.02 204.11,-51.52"/>
</g>
<!-- node_11 -->
<g id="node10" class="node">
<title>node_11</title>
<ellipse fill="none" stroke="black" cx="261" cy="-112.89" rx="20.13" ry="20.13"/>
<text text-anchor="middle" x="261" y="-107.84" font-family="Times,serif" font-size="14.00">11</text>
</g>
<!-- node_8&#45;&gt;node_11 -->
<g id="edge15" class="edge">
<title>node_8&#45;&gt;node_11</title>
<path fill="none" stroke="grey" stroke-dasharray="5,2" d="M205.29,-112.89C212.65,-112.89 221.34,-112.89 229.65,-112.89"/>
<polygon fill="grey" stroke="grey" points="229.57,-116.39 239.57,-112.89 229.57,-109.39 229.57,-116.39"/>
<text text-anchor="middle" x="222.93" y="-119.09" font-family="Times,serif" font-size="14.00">7</text>
</g>
<!-- node_10&#45;&gt;node_8 -->
<g id="edge13" class="edge">
<title>node_10&#45;&gt;node_8</title>
<path fill="none" stroke="grey" stroke-dasharray="5,2" d="M208.73,-40.52C209.13,-50.84 208.79,-63.65 206,-74.76 204.92,-79.06 203.27,-83.43 201.38,-87.59"/>
<polygon fill="grey" stroke="grey" points="197.84,-85.84 196.4,-96.33 204.07,-89.02 197.84,-85.84"/>
<text text-anchor="middle" x="212.38" y="-61.46" font-family="Times,serif" font-size="14.00">6</text>
</g>
<!-- node_3&#45;&gt;node_8 -->
<g id="edge12" class="edge">
<title>node_3&#45;&gt;node_8</title>
<path fill="none" stroke="black" d="M195.07,-185.44C193.68,-173.13 191.78,-156.25 190.17,-141.98"/>
<polygon fill="black" stroke="black" points="193.56,-141.78 188.96,-132.23 186.6,-142.56 193.56,-141.78"/>
</g>
<!-- node_3&#45;&gt;node_11 -->
<g id="edge14" class="edge">
<title>node_3&#45;&gt;node_11</title>
<path fill="none" stroke="black" d="M207.28,-188.28C216.91,-174.95 231.51,-154.73 243.06,-138.74"/>
<polygon fill="black" stroke="black" points="246.43,-141.05 249.44,-130.9 240.75,-136.96 246.43,-141.05"/>
</g>
<!-- node_12 -->
<g id="node11" class="node">
<title>node_12</title>
<ellipse fill="none" stroke="black" cx="319" cy="-112.89" rx="20.13" ry="20.13"/>
<text text-anchor="middle" x="319" y="-107.84" font-family="Times,serif" font-size="14.00">12</text>
</g>
<!-- node_3&#45;&gt;node_12 -->
<g id="edge19" class="edge">
<title>node_3&#45;&gt;node_12</title>
<path fill="none" stroke="grey" stroke-dasharray="5,2" d="M211.23,-192.03C225.4,-181.59 247.79,-165.14 267.25,-151.02 276.06,-144.64 285.74,-137.67 294.33,-131.52"/>
<polygon fill="grey" stroke="grey" points="296.02,-133.89 302.12,-125.23 291.95,-128.2 296.02,-133.89"/>
<text text-anchor="middle" x="270.38" y="-154.22" font-family="Times,serif" font-size="14.00">9</text>
</g>
<!-- node_11&#45;&gt;node_3 -->
<g id="edge17" class="edge">
<title>node_11&#45;&gt;node_3</title>
<path fill="none" stroke="grey" stroke-dasharray="5,2" d="M271.78,-130.47C277.58,-141.66 282.22,-156.38 275,-167.52 264.05,-184.45 242.76,-193.26 225.19,-197.81"/>
<polygon fill="grey" stroke="grey" points="224.85,-194.53 215.86,-200.13 226.38,-201.36 224.85,-194.53"/>
<text text-anchor="middle" x="281.38" y="-154.22" font-family="Times,serif" font-size="14.00">8</text>
</g>
<!-- node_13 -->
<g id="node13" class="node">
<title>node_13</title>
<ellipse fill="none" stroke="black" cx="395" cy="-112.89" rx="20.13" ry="20.13"/>
<text text-anchor="middle" x="395" y="-107.84" font-family="Times,serif" font-size="14.00">13</text>
</g>
<!-- node_12&#45;&gt;node_13 -->
<g id="edge21" class="edge">
<title>node_12&#45;&gt;node_13</title>
<path fill="none" stroke="grey" stroke-dasharray="5,2" d="M339.37,-112.89C346.86,-112.89 355.54,-112.89 363.77,-112.89"/>
<polygon fill="grey" stroke="grey" points="363.58,-116.39 373.58,-112.89 363.58,-109.39 363.58,-116.39"/>
<text text-anchor="middle" x="357" y="-119.09" font-family="Times,serif" font-size="14.00">10</text>
</g>
<!-- node_4&#45;&gt;node_1 -->
<g id="edge26" class="edge">
<title>node_4&#45;&gt;node_1</title>
<path fill="none" stroke="grey" stroke-dasharray="5,2" d="M336.62,-216.89C324.72,-228.25 305.81,-244.95 287,-256.02 267.29,-267.63 243.02,-276.81 224.65,-282.85"/>
<polygon fill="grey" stroke="grey" points="223.81,-279.76 215.34,-286.12 225.93,-286.43 223.81,-279.76"/>
<text text-anchor="middle" x="316.75" y="-242.72" font-family="Times,serif" font-size="14.00">13</text>
</g>
<!-- node_4&#45;&gt;node_12 -->
<g id="edge18" class="edge">
<title>node_4&#45;&gt;node_12</title>
<path fill="none" stroke="black" d="M343.5,-186.27C339.4,-174.16 333.7,-157.31 328.82,-142.91"/>
<polygon fill="black" stroke="black" points="331.82,-141.85 325.3,-133.5 325.19,-144.09 331.82,-141.85"/>
</g>
<!-- node_4&#45;&gt;node_13 -->
<g id="edge20" class="edge">
<title>node_4&#45;&gt;node_13</title>
<path fill="none" stroke="black" d="M357.01,-187.09C363.64,-174.31 373.22,-155.87 381.09,-140.69"/>
<polygon fill="black" stroke="black" points="384.48,-142.77 385.98,-132.28 378.26,-139.54 384.48,-142.77"/>
</g>
<!-- node_14 -->
<g id="node14" class="node">
<title>node_14</title>
<ellipse fill="none" stroke="black" cx="471" cy="-112.89" rx="20.13" ry="20.13"/>
<text text-anchor="middle" x="471" y="-107.84" font-family="Times,serif" font-size="14.00">14</text>
</g>
<!-- node_4&#45;&gt;node_14 -->
<g id="edge22" class="edge">
<title>node_4&#45;&gt;node_14</title>
<path fill="none" stroke="black" d="M363.47,-192.01C383.85,-177.21 421.26,-150.03 446.14,-131.95"/>
<polygon fill="black" stroke="black" points="447.97,-134.23 454,-125.52 443.85,-128.56 447.97,-134.23"/>
</g>
<!-- node_13&#45;&gt;node_14 -->
<g id="edge23" class="edge">
<title>node_13&#45;&gt;node_14</title>
<path fill="none" stroke="grey" stroke-dasharray="5,2" d="M415.37,-112.89C422.86,-112.89 431.54,-112.89 439.77,-112.89"/>
<polygon fill="grey" stroke="grey" points="439.58,-116.39 449.58,-112.89 439.58,-109.39 439.58,-116.39"/>
<text text-anchor="middle" x="433" y="-119.09" font-family="Times,serif" font-size="14.00">11</text>
</g>
<!-- node_14&#45;&gt;node_4 -->
<g id="edge25" class="edge">
<title>node_14&#45;&gt;node_4</title>
<path fill="none" stroke="grey" stroke-dasharray="5,2" d="M459.44,-129.49C450.26,-141.08 436.58,-156.7 422,-167.52 407.93,-177.98 390.24,-186.55 375.8,-192.6"/>
<polygon fill="grey" stroke="grey" points="374.93,-189.57 366.96,-196.54 377.54,-196.07 374.93,-189.57"/>
<text text-anchor="middle" x="445.75" y="-154.22" font-family="Times,serif" font-size="14.00">12</text>
</g>
</g>
</svg>
