<?xml version="1.0" encoding="UTF-8" standalone="no"?>
<!DOCTYPE svg PUBLIC "-//W3C//DTD SVG 1.1//EN"
 "http://www.w3.org/Graphics/SVG/1.1/DTD/svg11.dtd">
<!-- Generated by graphviz version 8.0.5 (20230430.1635)
 -->
<!-- Pages: 1 -->
<svg width="421pt" height="318pt"
 viewBox="0.00 0.00 421.13 318.02" xmlns="http://www.w3.org/2000/svg" xmlns:xlink="http://www.w3.org/1999/xlink">
<g id="graph0" class="graph" transform="scale(1 1) rotate(0) translate(4 314.02)">
<polygon fill="white" stroke="none" points="-4,4 -4,-314.02 417.13,-314.02 417.13,4 -4,4"/>
<!-- node_1 -->
<g id="node1" class="node">
<title>node_1</title>
<ellipse fill="none" stroke="black" cx="144" cy="-292.02" rx="18" ry="18"/>
<text text-anchor="middle" x="144" y="-286.97" font-family="Times,serif" font-size="14.00">1</text>
</g>
<!-- node_2 -->
<g id="node2" class="node">
<title>node_2</title>
<ellipse fill="none" stroke="black" cx="73" cy="-203.52" rx="18" ry="18"/>
<text text-anchor="middle" x="73" y="-198.47" font-family="Times,serif" font-size="14.00">2</text>
</g>
<!-- node_1&#45;&gt;node_2 -->
<g id="edge1" class="edge">
<title>node_1&#45;&gt;node_2</title>
<path fill="none" stroke="black" d="M129.65,-280.72C121.25,-274.24 110.8,-265.36 103,-256.02 96.42,-248.15 90.44,-238.64 85.57,-229.95"/>
<polygon fill="black" stroke="black" points="88.21,-228.45 80.41,-221.28 82.03,-231.75 88.21,-228.45"/>
</g>
<!-- node_1&#45;&gt;node_2 -->
<g id="edge2" class="edge">
<title>node_1&#45;&gt;node_2</title>
<path fill="none" stroke="grey" stroke-dasharray="5,2" d="M132.91,-277.51C121.65,-263.8 104.05,-242.36 90.84,-226.26"/>
<polygon fill="grey" stroke="grey" points="93.07,-224.45 84.02,-218.95 87.66,-228.9 93.07,-224.45"/>
<text text-anchor="middle" x="118.38" y="-242.72" font-family="Times,serif" font-size="14.00">1</text>
</g>
<!-- node_3 -->
<g id="node6" class="node">
<title>node_3</title>
<ellipse fill="none" stroke="black" cx="144" cy="-203.52" rx="18" ry="18"/>
<text text-anchor="middle" x="144" y="-198.47" font-family="Times,serif" font-size="14.00">3</text>
</g>
<!-- node_1&#45;&gt;node_3 -->
<g id="edge9" class="edge">
<title>node_1&#45;&gt;node_3</title>
<path fill="none" stroke="black" d="M144,-273.93C144,-262.16 144,-246.25 144,-232.63"/>
<polygon fill="black" stroke="black" points="147.5,-232.87 144,-222.87 140.5,-232.87 147.5,-232.87"/>
</g>
<!-- node_4 -->
<g id="node11" class="node">
<title>node_4</title>
<ellipse fill="none" stroke="black" cx="269" cy="-203.52" rx="18" ry="18"/>
<text text-anchor="middle" x="269" y="-198.47" font-family="Times,serif" font-size="14.00">4</text>
</g>
<!-- node_1&#45;&gt;node_4 -->
<g id="edge19" class="edge">
<title>node_1&#45;&gt;node_4</title>
<path fill="none" stroke="black" d="M158.34,-281.1C179.7,-266.32 220.1,-238.36 245.73,-220.63"/>
<polygon fill="black" stroke="black" points="247.21,-223.17 253.44,-214.6 243.23,-217.41 247.21,-223.17"/>
</g>
<!-- node_5 -->
<g id="node3" class="node">
<title>node_5</title>
<ellipse fill="none" stroke="black" cx="18" cy="-112.89" rx="18" ry="18"/>
<text text-anchor="middle" x="18" y="-107.84" font-family="Times,serif" font-size="14.00">5</text>
</g>
<!-- node_2&#45;&gt;node_5 -->
<g id="edge3" class="edge">
<title>node_2&#45;&gt;node_5</title>
<path fill="none" stroke="black" d="M58.08,-193.21C49.26,-186.97 38.56,-177.99 32,-167.52 27.11,-159.73 23.92,-150.27 21.85,-141.48"/>
<polygon fill="black" stroke="black" points="25.13,-141.03 19.76,-131.89 18.26,-142.38 25.13,-141.03"/>
</g>
<!-- node_2&#45;&gt;node_5 -->
<g id="edge4" class="edge">
<title>node_2&#45;&gt;node_5</title>
<path fill="none" stroke="grey" stroke-dasharray="5,2" d="M63.92,-187.89C55.53,-174.37 42.91,-154.03 33.02,-138.1"/>
<polygon fill="grey" stroke="grey" points="35.53,-136.5 27.28,-129.85 29.58,-140.19 35.53,-136.5"/>
<text text-anchor="middle" x="54.38" y="-154.22" font-family="Times,serif" font-size="14.00">2</text>
</g>
<!-- node_7 -->
<g id="node5" class="node">
<title>node_7</title>
<ellipse fill="none" stroke="black" cx="73" cy="-112.89" rx="18" ry="18"/>
<text text-anchor="middle" x="73" y="-107.84" font-family="Times,serif" font-size="14.00">7</text>
</g>
<!-- node_2&#45;&gt;node_7 -->
<g id="edge7" class="edge">
<title>node_2&#45;&gt;node_7</title>
<path fill="none" stroke="black" d="M73,-185.44C73,-173.13 73,-156.25 73,-141.98"/>
<polygon fill="black" stroke="black" points="76.5,-142.23 73,-132.23 69.5,-142.23 76.5,-142.23"/>
</g>
<!-- node_6 -->
<g id="node4" class="node">
<title>node_6</title>
<ellipse fill="none" stroke="black" cx="18" cy="-20.13" rx="18" ry="18"/>
<text text-anchor="middle" x="18" y="-15.08" font-family="Times,serif" font-size="14.00">6</text>
</g>
<!-- node_5&#45;&gt;node_6 -->
<g id="edge5" class="edge">
<title>node_5&#45;&gt;node_6</title>
<path fill="none" stroke="black" d="M18,-94.39C18,-81.59 18,-63.94 18,-49.18"/>
<polygon fill="black" stroke="black" points="21.5,-49.58 18,-39.58 14.5,-49.58 21.5,-49.58"/>
</g>
<!-- node_5&#45;&gt;node_6 -->
<g id="edge6" class="edge">
<title>node_5&#45;&gt;node_6</title>
<path fill="none" stroke="grey" stroke-dasharray="5,2" d="M25.7,-96.54C30.13,-85.89 34.38,-71.33 32,-58.26 31.32,-54.56 30.3,-50.74 29.11,-47.03"/>
<polygon fill="grey" stroke="grey" points="32.17,-46.22 25.44,-38.04 25.6,-48.63 32.17,-46.22"/>
<text text-anchor="middle" x="36.38" y="-61.46" font-family="Times,serif" font-size="14.00">3</text>
</g>
<!-- node_6&#45;&gt;node_7 -->
<g id="edge8" class="edge">
<title>node_6&#45;&gt;node_7</title>
<path fill="none" stroke="grey" stroke-dasharray="5,2" d="M28.52,-35.33C33.41,-42.14 39.2,-50.5 44,-58.26 49.66,-67.42 55.4,-77.77 60.26,-86.92"/>
<polygon fill="grey" stroke="grey" points="57.59,-88.37 65.33,-95.6 63.8,-85.12 57.59,-88.37"/>
<text text-anchor="middle" x="57.38" y="-61.46" font-family="Times,serif" font-size="14.00">4</text>
</g>
<!-- node_7&#45;&gt;node_3 -->
<g id="edge10" class="edge">
<title>node_7&#45;&gt;node_3</title>
<path fill="none" stroke="grey" stroke-dasharray="5,2" d="M83.88,-127.48C95.18,-141.59 113.04,-163.87 126.35,-180.5"/>
<polygon fill="grey" stroke="grey" points="124.23,-182.45 133.22,-188.06 129.7,-178.07 124.23,-182.45"/>
<text text-anchor="middle" x="118.38" y="-154.22" font-family="Times,serif" font-size="14.00">5</text>
</g>
<!-- node_8 -->
<g id="node7" class="node">
<title>node_8</title>
<ellipse fill="none" stroke="black" cx="127" cy="-112.89" rx="18" ry="18"/>
<text text-anchor="middle" x="127" y="-107.84" font-family="Times,serif" font-size="14.00">8</text>
</g>
<!-- node_3&#45;&gt;node_8 -->
<g id="edge11" class="edge">
<title>node_3&#45;&gt;node_8</title>
<path fill="none" stroke="black" d="M140.72,-185.44C138.35,-173.05 135.08,-156.04 132.33,-141.71"/>
<polygon fill="black" stroke="black" points="135.59,-141.09 130.27,-131.93 128.71,-142.41 135.59,-141.09"/>
</g>
<!-- node_3&#45;&gt;node_8 -->
<g id="edge12" class="edge">
<title>node_3&#45;&gt;node_8</title>
<path fill="none" stroke="grey" stroke-dasharray="5,2" d="M143.25,-185.22C142.59,-175.16 141.34,-162.28 139,-151.02 138.31,-147.68 137.42,-144.22 136.45,-140.81"/>
<polygon fill="grey" stroke="grey" points="139.49,-139.82 133.15,-131.32 132.81,-141.91 139.49,-139.82"/>
<text text-anchor="middle" x="144.38" y="-154.22" font-family="Times,serif" font-size="14.00">6</text>
</g>
<!-- node_11 -->
<g id="node10" class="node">
<title>node_11</title>
<ellipse fill="none" stroke="black" cx="183" cy="-112.89" rx="20.13" ry="20.13"/>
<text text-anchor="middle" x="183" y="-107.84" font-family="Times,serif" font-size="14.00">11</text>
</g>
<!-- node_3&#45;&gt;node_11 -->
<g id="edge17" class="edge">
<title>node_3&#45;&gt;node_11</title>
<path fill="none" stroke="black" d="M150.97,-186.68C156.49,-174.14 164.33,-156.32 170.87,-141.45"/>
<polygon fill="black" stroke="black" points="174.33,-143.3 175.15,-132.73 167.92,-140.48 174.33,-143.3"/>
</g>
<!-- node_9 -->
<g id="node8" class="node">
<title>node_9</title>
<ellipse fill="none" stroke="black" cx="121" cy="-20.13" rx="18" ry="18"/>
<text text-anchor="middle" x="121" y="-15.08" font-family="Times,serif" font-size="14.00">9</text>
</g>
<!-- node_8&#45;&gt;node_9 -->
<g id="edge13" class="edge">
<title>node_8&#45;&gt;node_9</title>
<path fill="none" stroke="black" d="M125.87,-94.82C125.02,-81.97 123.84,-64.08 122.85,-49.15"/>
<polygon fill="black" stroke="black" points="126.3,-49.18 122.14,-39.43 119.31,-49.64 126.3,-49.18"/>
</g>
<!-- node_8&#45;&gt;node_9 -->
<g id="edge14" class="edge">
<title>node_8&#45;&gt;node_9</title>
<path fill="none" stroke="grey" stroke-dasharray="5,2" d="M133.8,-95.91C137.48,-85.24 140.75,-70.89 138,-58.26 137.12,-54.21 135.75,-50.08 134.17,-46.11"/>
<polygon fill="grey" stroke="grey" points="136.97,-44.82 129.66,-37.15 130.6,-47.71 136.97,-44.82"/>
<text text-anchor="middle" x="142.38" y="-61.46" font-family="Times,serif" font-size="14.00">7</text>
</g>
<!-- node_10 -->
<g id="node9" class="node">
<title>node_10</title>
<ellipse fill="none" stroke="black" cx="195" cy="-20.13" rx="20.13" ry="20.13"/>
<text text-anchor="middle" x="195" y="-15.08" font-family="Times,serif" font-size="14.00">10</text>
</g>
<!-- node_8&#45;&gt;node_10 -->
<g id="edge15" class="edge">
<title>node_8&#45;&gt;node_10</title>
<path fill="none" stroke="black" d="M137.33,-98.11C147.74,-84.22 164.02,-62.48 176.63,-45.65"/>
<polygon fill="black" stroke="black" points="180.01,-47.98 183.2,-37.88 174.4,-43.78 180.01,-47.98"/>
</g>
<!-- node_9&#45;&gt;node_10 -->
<g id="edge16" class="edge">
<title>node_9&#45;&gt;node_10</title>
<path fill="none" stroke="grey" stroke-dasharray="5,2" d="M139.29,-20.13C146.65,-20.13 155.34,-20.13 163.65,-20.13"/>
<polygon fill="grey" stroke="grey" points="163.57,-23.63 173.57,-20.13 163.57,-16.63 163.57,-23.63"/>
<text text-anchor="middle" x="156.93" y="-26.33" font-family="Times,serif" font-size="14.00">8</text>
</g>
<!-- node_10&#45;&gt;node_11 -->
<g id="edge18" class="edge">
<title>node_10&#45;&gt;node_11</title>
<path fill="none" stroke="grey" stroke-dasharray="5,2" d="M201.81,-39.18C204.83,-49.67 207.08,-63.08 204,-74.76 202.96,-78.72 201.39,-82.7 199.57,-86.5"/>
<polygon fill="grey" stroke="grey" points="196.08,-84.59 194.35,-95.05 202.22,-87.95 196.08,-84.59"/>
<text text-anchor="middle" x="208.38" y="-61.46" font-family="Times,serif" font-size="14.00">9</text>
</g>
<!-- node_11&#45;&gt;node_4 -->
<g id="edge20" class="edge">
<title>node_11&#45;&gt;node_4</title>
<path fill="none" stroke="grey" stroke-dasharray="5,2" d="M196.72,-128.03C210.93,-142.68 233.27,-165.7 249.35,-182.27"/>
<polygon fill="grey" stroke="grey" points="246.2,-184.09 255.68,-188.83 251.23,-179.21 246.2,-184.09"/>
<text text-anchor="middle" x="239.75" y="-154.22" font-family="Times,serif" font-size="14.00">10</text>
</g>
<!-- node_12 -->
<g id="node12" class="node">
<title>node_12</title>
<ellipse fill="none" stroke="black" cx="241" cy="-112.89" rx="20.13" ry="20.13"/>
<text text-anchor="middle" x="241" y="-107.84" font-family="Times,serif" font-size="14.00">12</text>
</g>
<!-- node_4&#45;&gt;node_12 -->
<g id="edge21" class="edge">
<title>node_4&#45;&gt;node_12</title>
<path fill="none" stroke="black" d="M263.73,-185.85C259.92,-173.79 254.67,-157.16 250.18,-142.94"/>
<polygon fill="black" stroke="black" points="253.27,-142.12 246.92,-133.64 246.6,-144.23 253.27,-142.12"/>
</g>
<!-- node_4&#45;&gt;node_12 -->
<g id="edge22" class="edge">
<title>node_4&#45;&gt;node_12</title>
<path fill="none" stroke="grey" stroke-dasharray="5,2" d="M269.27,-185.42C268.97,-175.2 267.74,-162.09 264,-151.02 262.59,-146.86 260.64,-142.68 258.47,-138.7"/>
<polygon fill="grey" stroke="grey" points="260.97,-137.08 252.79,-130.35 254.99,-140.72 260.97,-137.08"/>
<text text-anchor="middle" x="273.75" y="-154.22" font-family="Times,serif" font-size="14.00">11</text>
</g>
<!-- node_13 -->
<g id="node13" class="node">
<title>node_13</title>
<ellipse fill="none" stroke="black" cx="317" cy="-112.89" rx="20.13" ry="20.13"/>
<text text-anchor="middle" x="317" y="-107.84" font-family="Times,serif" font-size="14.00">13</text>
</g>
<!-- node_4&#45;&gt;node_13 -->
<g id="edge23" class="edge">
<title>node_4&#45;&gt;node_13</title>
<path fill="none" stroke="black" d="M277.36,-187.09C284.32,-174.23 294.4,-155.63 302.65,-140.4"/>
<polygon fill="black" stroke="black" points="306.07,-142.43 307.75,-131.97 299.91,-139.1 306.07,-142.43"/>
</g>
<!-- node_14 -->
<g id="node14" class="node">
<title>node_14</title>
<ellipse fill="none" stroke="black" cx="393" cy="-112.89" rx="20.13" ry="20.13"/>
<text text-anchor="middle" x="393" y="-107.84" font-family="Times,serif" font-size="14.00">14</text>
</g>
<!-- node_4&#45;&gt;node_14 -->
<g id="edge25" class="edge">
<title>node_4&#45;&gt;node_14</title>
<path fill="none" stroke="black" d="M283.22,-192.36C303.96,-177.54 342.79,-149.78 368.27,-131.57"/>
<polygon fill="black" stroke="black" points="369.89,-134 375.99,-125.34 365.82,-128.3 369.89,-134"/>
</g>
<!-- node_12&#45;&gt;node_13 -->
<g id="edge24" class="edge">
<title>node_12&#45;&gt;node_13</title>
<path fill="none" stroke="grey" stroke-dasharray="5,2" d="M261.37,-112.89C268.86,-112.89 277.54,-112.89 285.77,-112.89"/>
<polygon fill="grey" stroke="grey" points="285.58,-116.39 295.58,-112.89 285.58,-109.39 285.58,-116.39"/>
<text text-anchor="middle" x="279" y="-119.09" font-family="Times,serif" font-size="14.00">12</text>
</g>
<!-- node_13&#45;&gt;node_14 -->
<g id="edge26" class="edge">
<title>node_13&#45;&gt;node_14</title>
<path fill="none" stroke="grey" stroke-dasharray="5,2" d="M337.37,-112.89C344.86,-112.89 353.54,-112.89 361.77,-112.89"/>
<polygon fill="grey" stroke="grey" points="361.58,-116.39 371.58,-112.89 361.58,-109.39 361.58,-116.39"/>
<text text-anchor="middle" x="355" y="-119.09" font-family="Times,serif" font-size="14.00">13</text>
</g>
</g>
</svg>
