<?xml version="1.0" encoding="UTF-8" standalone="no"?>
<!DOCTYPE svg PUBLIC "-//W3C//DTD SVG 1.1//EN"
 "http://www.w3.org/Graphics/SVG/1.1/DTD/svg11.dtd">
<!-- Generated by graphviz version 8.0.5 (20230430.1635)
 -->
<!-- Pages: 1 -->
<svg width="384pt" height="269pt"
 viewBox="0.00 0.00 384.13 268.52" xmlns="http://www.w3.org/2000/svg" xmlns:xlink="http://www.w3.org/1999/xlink">
<g id="graph0" class="graph" transform="scale(1 1) rotate(0) translate(4 264.52)">
<polygon fill="white" stroke="none" points="-4,4 -4,-264.52 380.13,-264.52 380.13,4 -4,4"/>
<!-- node_1 -->
<g id="node1" class="node">
<title>node_1</title>
<ellipse fill="none" stroke="black" cx="154" cy="-242.52" rx="18" ry="18"/>
<text text-anchor="middle" x="154" y="-237.47" font-family="Times,serif" font-size="14.00">1</text>
</g>
<!-- node_2 -->
<g id="node2" class="node">
<title>node_2</title>
<ellipse fill="none" stroke="black" cx="72" cy="-170.52" rx="18" ry="18"/>
<text text-anchor="middle" x="72" y="-165.47" font-family="Times,serif" font-size="14.00">2</text>
</g>
<!-- node_1&#45;&gt;node_2 -->
<g id="edge1" class="edge">
<title>node_1&#45;&gt;node_2</title>
<path fill="none" stroke="black" d="M140.46,-229.97C127.76,-219.12 108.55,-202.73 93.71,-190.06"/>
<polygon fill="black" stroke="black" points="96.44,-186.93 86.56,-183.1 91.89,-192.26 96.44,-186.93"/>
</g>
<!-- node_3 -->
<g id="node6" class="node">
<title>node_3</title>
<ellipse fill="none" stroke="black" cx="154" cy="-170.52" rx="18" ry="18"/>
<text text-anchor="middle" x="154" y="-165.47" font-family="Times,serif" font-size="14.00">3</text>
</g>
<!-- node_1&#45;&gt;node_3 -->
<g id="edge5" class="edge">
<title>node_1&#45;&gt;node_3</title>
<path fill="none" stroke="black" d="M154,-224.22C154,-216.76 154,-207.85 154,-199.49"/>
<polygon fill="black" stroke="black" points="157.5,-199.63 154,-189.63 150.5,-199.63 157.5,-199.63"/>
</g>
<!-- node_4 -->
<g id="node11" class="node">
<title>node_4</title>
<ellipse fill="none" stroke="black" cx="269" cy="-170.52" rx="18" ry="18"/>
<text text-anchor="middle" x="269" y="-165.47" font-family="Times,serif" font-size="14.00">4</text>
</g>
<!-- node_1&#45;&gt;node_4 -->
<g id="edge10" class="edge">
<title>node_1&#45;&gt;node_4</title>
<path fill="none" stroke="black" d="M169.03,-232.37C188.23,-220.69 221.7,-200.31 244.58,-186.39"/>
<polygon fill="black" stroke="black" points="246.24,-188.87 252.96,-180.68 242.6,-182.89 246.24,-188.87"/>
</g>
<!-- node_5 -->
<g id="node3" class="node">
<title>node_5</title>
<ellipse fill="none" stroke="black" cx="18" cy="-96.39" rx="18" ry="18"/>
<text text-anchor="middle" x="18" y="-91.34" font-family="Times,serif" font-size="14.00">5</text>
</g>
<!-- node_2&#45;&gt;node_5 -->
<g id="edge2" class="edge">
<title>node_2&#45;&gt;node_5</title>
<path fill="none" stroke="black" d="M61.59,-155.62C54.04,-145.54 43.68,-131.69 34.95,-120.03"/>
<polygon fill="black" stroke="black" points="37.17,-118.17 28.38,-112.26 31.57,-122.36 37.17,-118.17"/>
</g>
<!-- node_7 -->
<g id="node5" class="node">
<title>node_7</title>
<ellipse fill="none" stroke="black" cx="72" cy="-96.39" rx="18" ry="18"/>
<text text-anchor="middle" x="72" y="-91.34" font-family="Times,serif" font-size="14.00">7</text>
</g>
<!-- node_2&#45;&gt;node_7 -->
<g id="edge4" class="edge">
<title>node_2&#45;&gt;node_7</title>
<path fill="none" stroke="black" d="M72,-152.06C72,-144.09 72,-134.44 72,-125.49"/>
<polygon fill="black" stroke="black" points="75.5,-125.69 72,-115.69 68.5,-125.69 75.5,-125.69"/>
</g>
<!-- node_6 -->
<g id="node4" class="node">
<title>node_6</title>
<ellipse fill="none" stroke="black" cx="18" cy="-20.13" rx="18" ry="18"/>
<text text-anchor="middle" x="18" y="-15.08" font-family="Times,serif" font-size="14.00">6</text>
</g>
<!-- node_5&#45;&gt;node_6 -->
<g id="edge3" class="edge">
<title>node_5&#45;&gt;node_6</title>
<path fill="none" stroke="black" d="M18,-78.17C18,-69.61 18,-59.04 18,-49.34"/>
<polygon fill="black" stroke="black" points="21.5,-49.52 18,-39.52 14.5,-49.52 21.5,-49.52"/>
</g>
<!-- node_8 -->
<g id="node7" class="node">
<title>node_8</title>
<ellipse fill="none" stroke="black" cx="126" cy="-96.39" rx="18" ry="18"/>
<text text-anchor="middle" x="126" y="-91.34" font-family="Times,serif" font-size="14.00">8</text>
</g>
<!-- node_3&#45;&gt;node_8 -->
<g id="edge6" class="edge">
<title>node_3&#45;&gt;node_8</title>
<path fill="none" stroke="black" d="M147.65,-153.16C144.28,-144.49 140.07,-133.63 136.25,-123.8"/>
<polygon fill="black" stroke="black" points="139.21,-122.75 132.33,-114.7 132.68,-125.29 139.21,-122.75"/>
</g>
<!-- node_11 -->
<g id="node10" class="node">
<title>node_11</title>
<ellipse fill="none" stroke="black" cx="182" cy="-96.39" rx="20.13" ry="20.13"/>
<text text-anchor="middle" x="182" y="-91.34" font-family="Times,serif" font-size="14.00">11</text>
</g>
<!-- node_3&#45;&gt;node_11 -->
<g id="edge9" class="edge">
<title>node_3&#45;&gt;node_11</title>
<path fill="none" stroke="black" d="M160.35,-153.16C163.5,-145.06 167.38,-135.06 170.98,-125.77"/>
<polygon fill="black" stroke="black" points="174.53,-127.32 174.88,-116.73 168,-124.78 174.53,-127.32"/>
</g>
<!-- node_9 -->
<g id="node8" class="node">
<title>node_9</title>
<ellipse fill="none" stroke="black" cx="99" cy="-20.13" rx="18" ry="18"/>
<text text-anchor="middle" x="99" y="-15.08" font-family="Times,serif" font-size="14.00">9</text>
</g>
<!-- node_8&#45;&gt;node_9 -->
<g id="edge7" class="edge">
<title>node_8&#45;&gt;node_9</title>
<path fill="none" stroke="black" d="M120.01,-78.91C116.69,-69.78 112.48,-58.2 108.7,-47.81"/>
<polygon fill="black" stroke="black" points="111.68,-46.77 104.98,-38.57 105.1,-49.16 111.68,-46.77"/>
</g>
<!-- node_10 -->
<g id="node9" class="node">
<title>node_10</title>
<ellipse fill="none" stroke="black" cx="155" cy="-20.13" rx="20.13" ry="20.13"/>
<text text-anchor="middle" x="155" y="-15.08" font-family="Times,serif" font-size="14.00">10</text>
</g>
<!-- node_8&#45;&gt;node_10 -->
<g id="edge8" class="edge">
<title>node_8&#45;&gt;node_10</title>
<path fill="none" stroke="black" d="M132.29,-79.28C135.7,-70.54 140.02,-59.49 143.97,-49.37"/>
<polygon fill="black" stroke="black" points="147.53,-50.89 147.9,-40.3 141.01,-48.34 147.53,-50.89"/>
</g>
<!-- node_12 -->
<g id="node12" class="node">
<title>node_12</title>
<ellipse fill="none" stroke="black" cx="240" cy="-96.39" rx="20.13" ry="20.13"/>
<text text-anchor="middle" x="240" y="-91.34" font-family="Times,serif" font-size="14.00">12</text>
</g>
<!-- node_4&#45;&gt;node_12 -->
<g id="edge11" class="edge">
<title>node_4&#45;&gt;node_12</title>
<path fill="none" stroke="black" d="M262.56,-153.52C259.29,-145.37 255.21,-135.23 251.43,-125.82"/>
<polygon fill="black" stroke="black" points="254.32,-124.62 247.34,-116.64 247.82,-127.23 254.32,-124.62"/>
</g>
<!-- node_13 -->
<g id="node13" class="node">
<title>node_13</title>
<ellipse fill="none" stroke="black" cx="298" cy="-96.39" rx="20.13" ry="20.13"/>
<text text-anchor="middle" x="298" y="-91.34" font-family="Times,serif" font-size="14.00">13</text>
</g>
<!-- node_4&#45;&gt;node_13 -->
<g id="edge12" class="edge">
<title>node_4&#45;&gt;node_13</title>
<path fill="none" stroke="black" d="M275.44,-153.52C278.71,-145.37 282.79,-135.23 286.57,-125.82"/>
<polygon fill="black" stroke="black" points="290.18,-127.23 290.66,-116.64 283.68,-124.62 290.18,-127.23"/>
</g>
<!-- node_14 -->
<g id="node14" class="node">
<title>node_14</title>
<ellipse fill="none" stroke="black" cx="356" cy="-96.39" rx="20.13" ry="20.13"/>
<text text-anchor="middle" x="356" y="-91.34" font-family="Times,serif" font-size="14.00">14</text>
</g>
<!-- node_4&#45;&gt;node_14 -->
<g id="edge13" class="edge">
<title>node_4&#45;&gt;node_14</title>
<path fill="none" stroke="black" d="M282.59,-158.25C295.9,-147.22 316.44,-130.19 332.42,-116.95"/>
<polygon fill="black" stroke="black" points="334.28,-119.12 339.75,-110.04 329.81,-113.73 334.28,-119.12"/>
</g>
</g>
</svg>
