<?xml version="1.0" encoding="UTF-8" standalone="no"?>
<!DOCTYPE svg PUBLIC "-//W3C//DTD SVG 1.1//EN"
 "http://www.w3.org/Graphics/SVG/1.1/DTD/svg11.dtd">
<!-- Generated by graphviz version 9.0.0 (20230911.1827)
 -->
<!-- Pages: 1 -->
<svg width="464pt" height="282pt"
 viewBox="0.00 0.00 464.00 281.50" xmlns="http://www.w3.org/2000/svg" xmlns:xlink="http://www.w3.org/1999/xlink">
<g id="graph0" class="graph" transform="scale(1 1) rotate(0) translate(4 277.5)">
<polygon fill="white" stroke="none" points="-4,4 -4,-277.5 460,-277.5 460,4 -4,4"/>
<g id="clust1" class="cluster">
<title>cluster_application</title>
<polygon fill="none" stroke="black" stroke-dasharray="5,2" points="8,-59.5 8,-265.5 448,-265.5 448,-59.5 8,-59.5"/>
</g>
<g id="clust3" class="cluster">
<title>cluster_frame</title>
<polygon fill="none" stroke="black" points="200,-132.5 200,-257.5 440,-257.5 440,-132.5 200,-132.5"/>
</g>
<!-- SYSTEM -->
<g id="node1" class="node">
<title>SYSTEM</title>
<text text-anchor="middle" x="154" y="-2.45" font-family="Arial" font-size="14.00">SYSTEM</text>
</g>
<!-- APPLICATION -->
<g id="node2" class="node">
<title>APPLICATION</title>
<polygon fill="none" stroke="black" points="206.62,-103.5 101.38,-103.5 101.38,-67.5 206.62,-67.5 206.62,-103.5"/>
<text text-anchor="middle" x="154" y="-80.08" font-family="Arial" font-size="14.00">APPLICATION</text>
</g>
<!-- SYSTEM&#45;&#45;APPLICATION -->
<g id="edge1" class="edge">
<title>SYSTEM&#45;&#45;APPLICATION</title>
<path fill="none" stroke="black" d="M154,-15.59C154,-27.08 154,-50.88 154,-67.27"/>
<text text-anchor="middle" x="209.88" y="-36.2" font-family="Arial" font-size="14.00"> &#160;Frame Managers</text>
</g>
<!-- FRAME 01 -->
<g id="node3" class="node">
<title>FRAME 01</title>
<polygon fill="none" stroke="black" points="98.38,-176.5 15.62,-176.5 15.62,-140.5 98.38,-140.5 98.38,-176.5"/>
<text text-anchor="middle" x="57" y="-153.07" font-family="Arial" font-size="14.00">FRAME 01</text>
</g>
<!-- APPLICATION&#45;&#45;FRAME 01 -->
<g id="edge2" class="edge">
<title>APPLICATION&#45;&#45;FRAME 01</title>
<path fill="none" stroke="black" d="M130.52,-103.69C115.38,-114.77 95.76,-129.13 80.6,-140.23"/>
</g>
<!-- FRAME .. -->
<g id="node4" class="node">
<title>FRAME ..</title>
<polygon fill="none" stroke="black" points="191.62,-176.5 116.38,-176.5 116.38,-140.5 191.62,-140.5 191.62,-176.5"/>
<text text-anchor="middle" x="154" y="-153.07" font-family="Arial" font-size="14.00">FRAME ..</text>
</g>
<!-- APPLICATION&#45;&#45;FRAME .. -->
<g id="edge3" class="edge">
<title>APPLICATION&#45;&#45;FRAME ..</title>
<path fill="none" stroke="black" d="M154,-103.69C154,-114.85 154,-129.34 154,-140.47"/>
</g>
<!-- FRAME -->
<g id="node5" class="node">
<title>FRAME</title>
<polygon fill="none" stroke="black" points="317,-176.5 253,-176.5 253,-140.5 317,-140.5 317,-176.5"/>
<text text-anchor="middle" x="285" y="-153.07" font-family="Arial" font-size="14.00">FRAME</text>
</g>
<!-- APPLICATION&#45;&#45;FRAME -->
<g id="edge4" class="edge">
<title>APPLICATION&#45;&#45;FRAME</title>
<path fill="none" stroke="black" d="M193.54,-103.96C210.88,-112.04 231.28,-122.14 249,-132.5 252.94,-134.8 257.01,-137.4 260.94,-140.03"/>
</g>
<!-- PANE 01 -->
<g id="node6" class="node">
<title>PANE 01</title>
<polygon fill="none" stroke="black" points="278.38,-249.5 207.62,-249.5 207.62,-213.5 278.38,-213.5 278.38,-249.5"/>
<text text-anchor="middle" x="243" y="-226.07" font-family="Arial" font-size="14.00">PANE 01</text>
</g>
<!-- FRAME&#45;&#45;PANE 01 -->
<g id="edge5" class="edge">
<title>FRAME&#45;&#45;PANE 01</title>
<path fill="none" stroke="black" d="M274.83,-176.69C268.23,-187.85 259.66,-202.34 253.07,-213.47"/>
</g>
<!-- PANE .. -->
<g id="node7" class="node">
<title>PANE ..</title>
<polygon fill="none" stroke="black" points="359.62,-249.5 296.38,-249.5 296.38,-213.5 359.62,-213.5 359.62,-249.5"/>
<text text-anchor="middle" x="328" y="-226.07" font-family="Arial" font-size="14.00">PANE ..</text>
</g>
<!-- FRAME&#45;&#45;PANE .. -->
<g id="edge6" class="edge">
<title>FRAME&#45;&#45;PANE ..</title>
<path fill="none" stroke="black" d="M295.41,-176.69C302.17,-187.85 310.95,-202.34 317.69,-213.47"/>
</g>
<!-- PANE -->
<g id="node8" class="node">
<title>PANE</title>
<polygon fill="none" stroke="black" points="432,-249.5 378,-249.5 378,-213.5 432,-213.5 432,-249.5"/>
<text text-anchor="middle" x="405" y="-226.07" font-family="Arial" font-size="14.00">PANE</text>
</g>
<!-- FRAME&#45;&#45;PANE -->
<g id="edge7" class="edge">
<title>FRAME&#45;&#45;PANE</title>
<path fill="none" stroke="black" d="M314.36,-176.87C333.64,-188.28 358.71,-203.11 377.59,-214.28"/>
</g>
</g>
</svg>
