<?xml version="1.0" encoding="UTF-8" standalone="no"?>
<!-- Created with Inkscape (http://www.inkscape.org/) -->

<svg
   width="500"
   height="500"
   viewBox="0 0 132.29166 132.29167"
   version="1.1"
   id="svg5"
   inkscape:version="1.2 (dc2aedaf03, 2022-05-15)"
   sodipodi:docname="Groove Battle.svg"
   xmlns:inkscape="http://www.inkscape.org/namespaces/inkscape"
   xmlns:sodipodi="http://sodipodi.sourceforge.net/DTD/sodipodi-0.dtd"
   xmlns="http://www.w3.org/2000/svg"
   xmlns:svg="http://www.w3.org/2000/svg">
  <sodipodi:namedview
     id="namedview7"
     pagecolor="#ffffff"
     bordercolor="#666666"
     borderopacity="1.0"
     inkscape:showpageshadow="2"
     inkscape:pageopacity="0.0"
     inkscape:pagecheckerboard="0"
     inkscape:deskcolor="#d1d1d1"
     inkscape:document-units="mm"
     showgrid="false"
     inkscape:zoom="0.62016872"
     inkscape:cx="403.92234"
     inkscape:cy="241.86966"
     inkscape:window-width="1366"
     inkscape:window-height="705"
     inkscape:window-x="-8"
     inkscape:window-y="-8"
     inkscape:window-maximized="1"
     inkscape:current-layer="layer1" />
  <defs
     id="defs2" />
  <g
     inkscape:label="Layer 1"
     inkscape:groupmode="layer"
     id="layer1">
    <path
       id="_138739368"
       fill="#323232"
       d="m 19.777046,37.146616 -1.449313,-2.914536 1.449313,-3.885175 h 5.345071 l 7.773021,2.427901 9.714218,2.914537 9.716929,1.943918 h 8.741007 l 11.17147,-0.489269 7.773021,-0.483941 2.427851,-2.430555 v -4.374472 l -3.885103,-1.938592 -6.802424,-0.970598 -6.313056,-2.922517 v -4.850474 l 4.853189,-4.858456 7.283652,-3.887817 h 7.775635 l 8.256964,1.941245 2.914607,6.805028 -0.48947,6.805027 -3.88249,1.938592 -1.457254,4.377126 3.398548,7.765022 2.427851,5.342437 3.885207,2.433207 8.74091,1.938603 3.40387,4.861108 0.96788,4.853128 -0.96788,9.711593 -4.37447,5.345091 -4.86374,6.315728 -4.36383,7.291664 -0.48947,5.821102 v 5.831738 8.254321 7.77566 l -2.914501,4.3718 -4.855803,0.97331 h -7.773021 l -5.823686,0.48395 -2.435891,-3.39852 1.459867,-3.39854 h 6.802423 l 4.858416,-0.96798 4.371859,-3.88783 v -9.22759 l -2.917219,-5.831741 v -7.772992 l 2.425237,-6.315728 5.345069,-4.37181 4.36914,-5.826419 0.97593,-5.831736 -1.45454,-3.882511 h -3.40126 l -3.398448,3.398529 -2.914606,4.853127 -6.807651,5.345102 -1.938582,4.374463 -0.489469,7.772992 1.457252,7.775654 v 6.31573 l -5.342456,3.39586 c 0,0 -3.401163,2.91719 -6.313056,2.91719 -2.911892,0 -7.773022,-0.48926 -7.773022,-0.48926 l -3.885104,-0.97332 -0.970899,-4.37447 2.914607,-2.419921 h 6.310341 3.890531 v -7.778307 -6.805028 -5.821103 l 1.45454,-5.342437 3.885204,-4.863772 3.401162,-3.401182 2.919833,-2.914536 0.478414,-5.342437 -7.770308,0.970597 -7.281038,0.970598 -5.8264,0.491982 h -5.339844 l -5.350398,-0.973311 -3.395834,-0.970598 -1.941296,-2.919853 3.393222,-1.45461 5.834439,-0.489268 h 6.307728 11.658125 l 5.347785,-0.478615 4.858415,-1.949226 V 46.85834 L 82.920058,42.483877 H 77.096272 68.344713 58.630497 47.945582 L 39.691331,41.03192 30.458343,39.569331 24.145288,38.109404 Z"
       style="stroke-width:2.65925" />
  </g>
</svg>
