<?xml version="1.0" encoding="UTF-8" standalone="no"?>
<!DOCTYPE svg PUBLIC "-//W3C//DTD SVG 1.1//EN"
 "http://www.w3.org/Graphics/SVG/1.1/DTD/svg11.dtd">
<!-- Generated by graphviz version 8.0.5 (20230430.1635)
 -->
<!-- Pages: 1 -->
<svg width="317pt" height="176pt"
 viewBox="0.00 0.00 316.96 176.00" xmlns="http://www.w3.org/2000/svg" xmlns:xlink="http://www.w3.org/1999/xlink">
<g id="graph0" class="graph" transform="scale(1 1) rotate(0) translate(21.96 172)">
<polygon fill="white" stroke="none" points="-21.96,4 -21.96,-172 295,-172 295,4 -21.96,4"/>
<!-- q0 -->
<g id="node1" class="node">
<title>q0</title>
<ellipse fill="none" stroke="black" cx="149.29" cy="-92.29" rx="20.13" ry="20.13"/>
<text text-anchor="middle" x="149.29" y="-87.24" font-family="Times,serif" font-size="14.00">q0</text>
</g>
<!-- q0&#45;&gt;q0 -->
<g id="edge1" class="edge">
<title>q0&#45;&gt;q0</title>
<path fill="none" stroke="black" d="M168.52,-98.81C178.46,-99.81 187.42,-97.64 187.42,-92.29 187.42,-89.04 184.1,-86.96 179.25,-86.06"/>
<polygon fill="black" stroke="black" points="179.61,-82.54 169.52,-85.78 179.43,-89.54 179.61,-82.54"/>
<text text-anchor="middle" x="207.67" y="-87.24" font-family="Times,serif" font-size="14.00">+, +, R</text>
</g>
<!-- qa -->
<g id="node2" class="node">
<title>qa</title>
<ellipse fill="none" stroke="black" cx="271.16" cy="-130.92" rx="19.62" ry="19.62"/>
<text text-anchor="middle" x="271.16" y="-125.87" font-family="Times,serif" font-size="14.00">qa</text>
</g>
<!-- q0&#45;&gt;qa -->
<g id="edge2" class="edge">
<title>q0&#45;&gt;qa</title>
<path fill="none" stroke="black" d="M166.8,-103.16C186.09,-111.32 217.43,-121.52 240.74,-127.39"/>
<polygon fill="black" stroke="black" points="239.6,-130.95 250.13,-129.83 241.2,-124.14 239.6,-130.95"/>
<text text-anchor="middle" x="183.52" y="-118.47" font-family="Times,serif" font-size="14.00">=, =, R</text>
</g>
<!-- q0&#45;&gt;qa -->
<g id="edge4" class="edge">
<title>q0&#45;&gt;qa</title>
<path fill="none" stroke="black" d="M169.86,-93.5C190.33,-97.94 221.82,-107.65 244.26,-116.29"/>
<polygon fill="black" stroke="black" points="242.58,-119.78 253.16,-120.28 245.2,-113.29 242.58,-119.78"/>
<text text-anchor="middle" x="226.94" y="-108.1" font-family="Times,serif" font-size="14.00">E, E, L</text>
</g>
<!-- q1 -->
<g id="node3" class="node">
<title>q1</title>
<ellipse fill="none" stroke="black" cx="20.42" cy="-20.33" rx="20.13" ry="20.13"/>
<text text-anchor="middle" x="20.42" y="-15.28" font-family="Times,serif" font-size="14.00">q1</text>
</g>
<!-- q0&#45;&gt;q1 -->
<g id="edge3" class="edge">
<title>q0&#45;&gt;q1</title>
<path fill="none" stroke="black" d="M131.37,-82.29C109.64,-70.15 72.78,-49.57 47.56,-35.48"/>
<polygon fill="black" stroke="black" points="49.63,-32.07 39.19,-30.25 46.21,-38.18 49.63,-32.07"/>
<text text-anchor="middle" x="71.09" y="-62.09" font-family="Times,serif" font-size="14.00">1, e, R</text>
</g>
<!-- q1&#45;&gt;q1 -->
<g id="edge5" class="edge">
<title>q1&#45;&gt;q1</title>
<path fill="none" stroke="black" d="M40.82,-22.54C50.29,-22.78 58.55,-22.04 58.55,-20.33 58.55,-19.34 55.79,-18.68 51.63,-18.34"/>
<polygon fill="black" stroke="black" points="51.89,-14.83 41.82,-18.13 51.75,-21.83 51.89,-14.83"/>
<text text-anchor="middle" x="77.3" y="-15.28" font-family="Times,serif" font-size="14.00">1, 1, R</text>
</g>
<!-- q1&#45;&gt;q1 -->
<g id="edge6" class="edge">
<title>q1&#45;&gt;q1</title>
<path fill="none" stroke="black" d="M40.58,-24.48C76.49,-29.01 136.55,-27.63 136.55,-20.33 136.55,-13.72 87.23,-11.97 51.24,-15.07"/>
<polygon fill="black" stroke="black" points="51.16,-11.66 41.58,-16.19 51.89,-18.62 51.16,-11.66"/>
<text text-anchor="middle" x="156.8" y="-15.28" font-family="Times,serif" font-size="14.00">+, +, R</text>
</g>
<!-- q1&#45;&gt;q1 -->
<g id="edge7" class="edge">
<title>q1&#45;&gt;q1</title>
<path fill="none" stroke="black" d="M40.51,-23.74C64.37,-25.94 96.05,-24.81 96.05,-20.33 96.05,-16.5 72.87,-15.12 51.22,-16.18"/>
<polygon fill="black" stroke="black" points="51.24,-12.74 41.51,-16.92 51.73,-19.72 51.24,-12.74"/>
<text text-anchor="middle" x="116.3" y="-15.28" font-family="Times,serif" font-size="14.00">=, =, R</text>
</g>
<!-- q2 -->
<g id="node4" class="node">
<title>q2</title>
<ellipse fill="none" stroke="black" cx="21.78" cy="-148.32" rx="20.13" ry="20.13"/>
<text text-anchor="middle" x="21.78" y="-143.27" font-family="Times,serif" font-size="14.00">q2</text>
</g>
<!-- q1&#45;&gt;q2 -->
<g id="edge8" class="edge">
<title>q1&#45;&gt;q2</title>
<path fill="none" stroke="black" d="M20.64,-40.9C20.86,-61.42 21.2,-93.23 21.45,-116.92"/>
<polygon fill="black" stroke="black" points="17.96,-116.85 21.56,-126.81 24.96,-116.77 17.96,-116.85"/>
<text text-anchor="middle" x="1.54" y="-82.11" font-family="Times,serif" font-size="14.00">B, 1, L</text>
</g>
<!-- q2&#45;&gt;q0 -->
<g id="edge12" class="edge">
<title>q2&#45;&gt;q0</title>
<path fill="none" stroke="black" d="M40.59,-140.05C61.81,-130.73 96.54,-115.48 121.02,-104.72"/>
<polygon fill="black" stroke="black" points="122.07,-107.64 129.81,-100.41 119.25,-101.23 122.07,-107.64"/>
<text text-anchor="middle" x="62.43" y="-125.59" font-family="Times,serif" font-size="14.00">e, 1, R</text>
</g>
<!-- q2&#45;&gt;q2 -->
<g id="edge9" class="edge">
<title>q2&#45;&gt;q2</title>
<path fill="none" stroke="black" d="M42.18,-150.53C51.64,-150.77 59.91,-150.03 59.91,-148.32 59.91,-147.33 57.15,-146.67 52.99,-146.33"/>
<polygon fill="black" stroke="black" points="53.25,-142.82 43.18,-146.12 53.11,-149.82 53.25,-142.82"/>
<text text-anchor="middle" x="78.29" y="-143.27" font-family="Times,serif" font-size="14.00">1, 1, L</text>
</g>
<!-- q2&#45;&gt;q2 -->
<g id="edge10" class="edge">
<title>q2&#45;&gt;q2</title>
<path fill="none" stroke="black" d="M41.79,-152.47C77.33,-157 136.41,-155.62 136.41,-148.32 136.41,-141.71 87.89,-139.96 52.34,-143.06"/>
<polygon fill="black" stroke="black" points="52.37,-139.64 42.79,-144.18 53.1,-146.6 52.37,-139.64"/>
<text text-anchor="middle" x="156.29" y="-143.27" font-family="Times,serif" font-size="14.00">+, +, L</text>
</g>
<!-- q2&#45;&gt;q2 -->
<g id="edge11" class="edge">
<title>q2&#45;&gt;q2</title>
<path fill="none" stroke="black" d="M42.12,-151.77C65.72,-153.92 96.66,-152.77 96.66,-148.32 96.66,-144.53 74.22,-143.13 52.99,-144.14"/>
<polygon fill="black" stroke="black" points="52.85,-140.7 43.12,-144.88 53.33,-147.69 52.85,-140.7"/>
<text text-anchor="middle" x="116.54" y="-143.27" font-family="Times,serif" font-size="14.00">=, =, L</text>
</g>
</g>
</svg>
