<?xml version="1.0" encoding="UTF-8" standalone="no"?>
<!DOCTYPE svg PUBLIC "-//W3C//DTD SVG 1.1//EN"
 "http://www.w3.org/Graphics/SVG/1.1/DTD/svg11.dtd">
<!-- Generated by graphviz version 8.0.5 (20230430.1635)
 -->
<!-- Pages: 1 -->
<svg width="480pt" height="354pt"
 viewBox="0.00 0.00 479.60 354.00" xmlns="http://www.w3.org/2000/svg" xmlns:xlink="http://www.w3.org/1999/xlink">
<g id="graph0" class="graph" transform="scale(1 1) rotate(0) translate(4 350)">
<polygon fill="white" stroke="none" points="-4,4 -4,-350 475.6,-350 475.6,4 -4,4"/>
<!-- lst_in -->
<g id="node1" class="node">
<title>lst_in</title>
<ellipse fill="black" stroke="black" cx="1.8" cy="-271" rx="1.8" ry="1.8"/>
</g>
<!-- lst1 -->
<g id="node2" class="node">
<title>lst1</title>
<polygon fill="none" stroke="black" points="39.6,-234.5 39.6,-283.5 93.6,-283.5 93.6,-234.5 39.6,-234.5"/>
<text text-anchor="middle" x="66.6" y="-266.2" font-family="Times,serif" font-size="14.00"> </text>
<polyline fill="none" stroke="black" points="39.6,-259 93.6,-259"/>
<text text-anchor="middle" x="66.6" y="-241.7" font-family="Times,serif" font-size="14.00">x</text>
</g>
<!-- lst_in&#45;&gt;lst1 -->
<g id="edge1" class="edge">
<title>lst_in&#45;&gt;lst1:car</title>
<path fill="none" stroke="black" d="M3.96,-271C3.96,-271 28.83,-271 28.83,-271"/>
<polygon fill="black" stroke="black" points="28.83,-274.5 38.83,-271 28.83,-267.5 28.83,-274.5"/>
</g>
<!-- lst2 -->
<g id="node3" class="node">
<title>lst2</title>
<polygon fill="none" stroke="black" points="129.6,-148.5 129.6,-197.5 183.6,-197.5 183.6,-148.5 129.6,-148.5"/>
<text text-anchor="middle" x="156.6" y="-180.2" font-family="Times,serif" font-size="14.00"> </text>
<polyline fill="none" stroke="black" points="129.6,-173 183.6,-173"/>
<text text-anchor="middle" x="156.6" y="-155.7" font-family="Times,serif" font-size="14.00">x</text>
</g>
<!-- lst1&#45;&gt;lst2 -->
<g id="edge2" class="edge">
<title>lst1:cdr&#45;&gt;lst2:car</title>
<path fill="none" stroke="black" d="M93.57,-253C117.13,-253 147.6,-253 147.6,-253 147.6,-253 147.6,-208.47 147.6,-208.47"/>
<polygon fill="black" stroke="black" points="151.1,-208.47 147.6,-198.47 144.1,-208.47 151.1,-208.47"/>
</g>
<!-- lst12 -->
<g id="node5" class="node">
<title>lst12</title>
<polygon fill="none" stroke="black" points="129.6,-296.5 129.6,-345.5 183.6,-345.5 183.6,-296.5 129.6,-296.5"/>
<text text-anchor="middle" x="156.6" y="-328.2" font-family="Times,serif" font-size="14.00"> </text>
<polyline fill="none" stroke="black" points="129.6,-321 183.6,-321"/>
<text text-anchor="middle" x="156.6" y="-303.7" font-family="Times,serif" font-size="14.00">x</text>
</g>
<!-- lst1&#45;&gt;lst12 -->
<g id="edge4" class="edge">
<title>lst1:car&#45;&gt;lst12:car</title>
<path fill="none" stroke="black" d="M93.39,-280C122.71,-280 165.6,-280 165.6,-280 165.6,-280 165.6,-310.24 165.6,-310.24"/>
<polygon fill="black" stroke="black" points="162.1,-310.24 165.6,-320.24 169.1,-310.24 162.1,-310.24"/>
</g>
<!-- lst3 -->
<g id="node4" class="node">
<title>lst3</title>
<polygon fill="none" stroke="black" points="219.6,-12.5 219.6,-61.5 273.6,-61.5 273.6,-12.5 219.6,-12.5"/>
<text text-anchor="middle" x="246.6" y="-44.2" font-family="Times,serif" font-size="14.00"> </text>
<polyline fill="none" stroke="black" points="219.6,-37 273.6,-37"/>
<text text-anchor="middle" x="246.6" y="-19.7" font-family="Times,serif" font-size="14.00">x</text>
</g>
<!-- lst2&#45;&gt;lst3 -->
<g id="edge3" class="edge">
<title>lst2:cdr&#45;&gt;lst3:car</title>
<path fill="none" stroke="black" d="M156.6,-148.66C156.6,-117.29 156.6,-37 156.6,-37 156.6,-37 209.08,-37 209.08,-37"/>
<polygon fill="black" stroke="black" points="209.08,-40.5 219.08,-37 209.08,-33.5 209.08,-40.5"/>
</g>
<!-- lst22 -->
<g id="node7" class="node">
<title>lst22</title>
<polygon fill="none" stroke="black" points="219.6,-148.5 219.6,-197.5 273.6,-197.5 273.6,-148.5 219.6,-148.5"/>
<text text-anchor="middle" x="246.6" y="-180.2" font-family="Times,serif" font-size="14.00"> </text>
<polyline fill="none" stroke="black" points="219.6,-173 273.6,-173"/>
<text text-anchor="middle" x="246.6" y="-155.7" font-family="Times,serif" font-size="14.00">x</text>
</g>
<!-- lst2&#45;&gt;lst22 -->
<g id="edge6" class="edge">
<title>lst2:car&#45;&gt;lst22:car</title>
<path fill="none" stroke="black" d="M183.12,-173C183.12,-173 208.65,-173 208.65,-173"/>
<polygon fill="black" stroke="black" points="208.65,-176.5 218.65,-173 208.65,-169.5 208.65,-176.5"/>
</g>
<!-- free3 -->
<g id="node10" class="node">
<title>free3</title>
<polygon fill="lightgrey" stroke="black" points="309.6,-0.5 309.6,-49.5 363.6,-49.5 363.6,-0.5 309.6,-0.5"/>
<text text-anchor="middle" x="336.6" y="-32.2" font-family="Times,serif" font-size="14.00"> </text>
<polyline fill="none" stroke="black" points="309.6,-25 363.6,-25"/>
<text text-anchor="middle" x="336.6" y="-7.7" font-family="Times,serif" font-size="14.00">x</text>
</g>
<!-- lst3&#45;&gt;free3 -->
<g id="edge13" class="edge">
<title>lst3&#45;&gt;free3:car</title>
<path fill="none" stroke="black" stroke-dasharray="5,2" d="M284.12,-24.67C284.12,-24.67 336.49,-24.67 336.49,-24.67"/>
<polygon fill="black" stroke="black" points="284.12,-21.17 274.12,-24.67 284.12,-28.17 284.12,-21.17"/>
</g>
<!-- lst13 -->
<g id="node6" class="node">
<title>lst13</title>
<polygon fill="none" stroke="black" points="219.6,-284.5 219.6,-333.5 273.6,-333.5 273.6,-284.5 219.6,-284.5"/>
<text text-anchor="middle" x="246.6" y="-316.2" font-family="Times,serif" font-size="14.00"> </text>
<polyline fill="none" stroke="black" points="219.6,-309 273.6,-309"/>
<text text-anchor="middle" x="246.6" y="-291.7" font-family="Times,serif" font-size="14.00">x</text>
</g>
<!-- lst12&#45;&gt;lst13 -->
<g id="edge5" class="edge">
<title>lst12:cdr&#45;&gt;lst13:car</title>
<path fill="none" stroke="black" d="M183.12,-315C183.12,-315 208.65,-315 208.65,-315"/>
<polygon fill="black" stroke="black" points="208.65,-318.5 218.65,-315 208.65,-311.5 208.65,-318.5"/>
</g>
<!-- free1 -->
<g id="node8" class="node">
<title>free1</title>
<polygon fill="lightgrey" stroke="black" points="309.6,-272.5 309.6,-321.5 363.6,-321.5 363.6,-272.5 309.6,-272.5"/>
<text text-anchor="middle" x="336.6" y="-304.2" font-family="Times,serif" font-size="14.00"> </text>
<polyline fill="none" stroke="black" points="309.6,-297 363.6,-297"/>
<text text-anchor="middle" x="336.6" y="-279.7" font-family="Times,serif" font-size="14.00">x</text>
</g>
<!-- lst13&#45;&gt;free1 -->
<g id="edge11" class="edge">
<title>lst13&#45;&gt;free1:car</title>
<path fill="none" stroke="black" stroke-dasharray="5,2" d="M284.12,-303C284.12,-303 309.65,-303 309.65,-303"/>
<polygon fill="black" stroke="black" points="284.12,-299.5 274.12,-303 284.12,-306.5 284.12,-299.5"/>
</g>
<!-- free2 -->
<g id="node9" class="node">
<title>free2</title>
<polygon fill="lightgrey" stroke="black" points="309.6,-136.5 309.6,-185.5 363.6,-185.5 363.6,-136.5 309.6,-136.5"/>
<text text-anchor="middle" x="336.6" y="-168.2" font-family="Times,serif" font-size="14.00"> </text>
<polyline fill="none" stroke="black" points="309.6,-161 363.6,-161"/>
<text text-anchor="middle" x="336.6" y="-143.7" font-family="Times,serif" font-size="14.00">x</text>
</g>
<!-- lst22&#45;&gt;free2 -->
<g id="edge12" class="edge">
<title>lst22&#45;&gt;free2:car</title>
<path fill="none" stroke="black" stroke-dasharray="5,2" d="M284.12,-167C284.12,-167 309.65,-167 309.65,-167"/>
<polygon fill="black" stroke="black" points="284.12,-163.5 274.12,-167 284.12,-170.5 284.12,-163.5"/>
</g>
<!-- free1&#45;&gt;free2 -->
<g id="edge7" class="edge">
<title>free1:cdr&#45;&gt;free2:car</title>
<path fill="none" stroke="grey" d="M336.6,-272.59C336.6,-272.59 336.6,-196.47 336.6,-196.47"/>
<polygon fill="grey" stroke="grey" points="340.1,-196.47 336.6,-186.47 333.1,-196.47 340.1,-196.47"/>
</g>
<!-- free1&#45;&gt;free3 -->
<g id="edge9" class="edge">
<title>free1:car&#45;&gt;free3:cdr</title>
<path fill="none" stroke="grey" d="M325.47,-276C325.47,-276 291.6,-276 291.6,-276 291.6,-276 291.6,-37.33 291.6,-37.33 291.6,-37.33 333.83,-37.33 336.47,-37.33"/>
<polygon fill="grey" stroke="grey" points="325.47,-279.5 335.47,-276 325.47,-272.5 325.47,-279.5"/>
</g>
<!-- free_in -->
<g id="node11" class="node">
<title>free_in</title>
<text text-anchor="middle" x="435.6" y="-303.95" font-family="Times,serif" font-size="14.00"> base register</text>
</g>
<!-- free1&#45;&gt;free_in -->
<g id="edge10" class="edge">
<title>free1:car&#45;&gt;free_in</title>
<path fill="none" stroke="black" d="M374.39,-309C374.39,-309 399.86,-309 399.86,-309"/>
<polygon fill="black" stroke="black" points="374.39,-305.5 364.39,-309 374.39,-312.5 374.39,-305.5"/>
</g>
<!-- free2&#45;&gt;free3 -->
<g id="edge8" class="edge">
<title>free2:cdr&#45;&gt;free3:car</title>
<path fill="none" stroke="grey" d="M336.6,-136.59C336.6,-136.59 336.6,-60.47 336.6,-60.47"/>
<polygon fill="grey" stroke="grey" points="340.1,-60.47 336.6,-50.47 333.1,-60.47 340.1,-60.47"/>
</g>
</g>
</svg>
