<?xml version="1.0" encoding="UTF-8" standalone="no"?>
<!DOCTYPE svg PUBLIC "-//W3C//DTD SVG 1.1//EN"
 "http://www.w3.org/Graphics/SVG/1.1/DTD/svg11.dtd">
<!-- Generated by graphviz version 8.0.5 (20230430.1635)
 -->
<!-- Pages: 1 -->
<svg width="559pt" height="178pt"
 viewBox="0.00 0.00 559.25 177.50" xmlns="http://www.w3.org/2000/svg" xmlns:xlink="http://www.w3.org/1999/xlink">
<g id="graph0" class="graph" transform="scale(1 1) rotate(0) translate(4 173.5)">
<polygon fill="white" stroke="none" points="-4,4 -4,-173.5 555.25,-173.5 555.25,4 -4,4"/>
<!-- in -->
<g id="node1" class="node">
<title>in</title>
<text text-anchor="middle" x="5.62" y="-94.95" font-family="Times,serif" font-size="14.00">...</text>
</g>
<!-- a1 -->
<g id="node3" class="node">
<title>a1</title>
<polygon fill="none" stroke="black" points="47.25,-63.5 47.25,-112.5 101.25,-112.5 101.25,-63.5 47.25,-63.5"/>
<text text-anchor="middle" x="74.25" y="-95.2" font-family="Times,serif" font-size="14.00">aname</text>
<polyline fill="none" stroke="black" points="47.25,-88 101.25,-88"/>
<text text-anchor="middle" x="74.25" y="-70.7" font-family="Times,serif" font-size="14.00"> </text>
</g>
<!-- in&#45;&gt;a1 -->
<g id="edge4" class="edge">
<title>in&#45;&gt;a1:car</title>
<path fill="none" stroke="black" d="M11.01,-100C11.01,-100 36.4,-100 36.4,-100"/>
<polygon fill="black" stroke="black" points="36.4,-103.5 46.4,-100 36.4,-96.5 36.4,-103.5"/>
</g>
<!-- out -->
<g id="node2" class="node">
<title>out</title>
<text text-anchor="middle" x="254.25" y="-42.95" font-family="Times,serif" font-size="14.00">...</text>
</g>
<!-- a2 -->
<g id="node4" class="node">
<title>a2</title>
<polygon fill="none" stroke="black" points="137.25,-63.5 137.25,-112.5 191.25,-112.5 191.25,-63.5 137.25,-63.5"/>
<text text-anchor="middle" x="164.25" y="-95.2" font-family="Times,serif" font-size="14.00"> </text>
<polyline fill="none" stroke="black" points="137.25,-88 191.25,-88"/>
<text text-anchor="middle" x="164.25" y="-70.7" font-family="Times,serif" font-size="14.00"> </text>
</g>
<!-- a1&#45;&gt;a2 -->
<g id="edge1" class="edge">
<title>a1:cdr&#45;&gt;a2:cdr</title>
<path fill="none" stroke="black" d="M100.77,-88C100.77,-88 126.3,-88 126.3,-88"/>
<polygon fill="black" stroke="black" points="126.3,-91.5 136.3,-88 126.3,-84.5 126.3,-91.5"/>
</g>
<!-- a2&#45;&gt;out -->
<g id="edge9" class="edge">
<title>a2:cdr&#45;&gt;out</title>
<path fill="none" stroke="black" d="M190.77,-82.33C217.31,-82.33 254.25,-82.33 254.25,-82.33 254.25,-82.33 254.25,-66.96 254.25,-66.96"/>
<polygon fill="black" stroke="black" points="257.75,-66.96 254.25,-56.96 250.75,-66.96 257.75,-66.96"/>
</g>
<!-- a21 -->
<g id="node5" class="node">
<title>a21</title>
<polygon fill="none" stroke="black" points="227.25,-92.5 227.25,-141.5 281.25,-141.5 281.25,-92.5 227.25,-92.5"/>
<text text-anchor="middle" x="254.25" y="-124.2" font-family="Times,serif" font-size="14.00"> </text>
<polyline fill="none" stroke="black" points="227.25,-117 281.25,-117"/>
<text text-anchor="middle" x="254.25" y="-99.7" font-family="Times,serif" font-size="14.00"> </text>
</g>
<!-- a2&#45;&gt;a21 -->
<g id="edge5" class="edge">
<title>a2:car&#45;&gt;a21:car</title>
<path fill="none" stroke="black" d="M190.77,-102.5C190.77,-102.5 243.14,-102.5 243.14,-102.5"/>
<polygon fill="black" stroke="black" points="243.14,-106 253.14,-102.5 243.14,-99 243.14,-106"/>
</g>
<!-- a22 -->
<g id="node6" class="node">
<title>a22</title>
<polygon fill="none" stroke="black" points="317.25,-46.5 317.25,-95.5 371.25,-95.5 371.25,-46.5 317.25,-46.5"/>
<text text-anchor="middle" x="344.25" y="-78.2" font-family="Times,serif" font-size="14.00"> </text>
<polyline fill="none" stroke="black" points="317.25,-71 371.25,-71"/>
<text text-anchor="middle" x="344.25" y="-53.7" font-family="Times,serif" font-size="14.00"> </text>
</g>
<!-- a21&#45;&gt;a22 -->
<g id="edge2" class="edge">
<title>a21:cdr&#45;&gt;a22:car</title>
<path fill="none" stroke="black" d="M271.25,-92.59C271.25,-83.47 271.25,-72.67 271.25,-72.67 271.25,-72.67 306.48,-72.67 306.48,-72.67"/>
<polygon fill="black" stroke="black" points="306.48,-76.17 316.48,-72.67 306.48,-69.17 306.48,-76.17"/>
</g>
<!-- a211 -->
<g id="node8" class="node">
<title>a211</title>
<polygon fill="none" stroke="black" points="317.25,-133 317.25,-169 371.25,-169 371.25,-133 317.25,-133"/>
<text text-anchor="middle" x="344.25" y="-146.2" font-family="Times,serif" font-size="14.00">avery</text>
</g>
<!-- a21&#45;&gt;a211 -->
<g id="edge6" class="edge">
<title>a21:car&#45;&gt;a211</title>
<path fill="none" stroke="black" d="M280.77,-137.25C280.77,-137.25 306.3,-137.25 306.3,-137.25"/>
<polygon fill="black" stroke="black" points="306.3,-140.75 316.3,-137.25 306.3,-133.75 306.3,-140.75"/>
</g>
<!-- a23 -->
<g id="node7" class="node">
<title>a23</title>
<polygon fill="none" stroke="black" points="407.25,-0.5 407.25,-49.5 461.25,-49.5 461.25,-0.5 407.25,-0.5"/>
<text text-anchor="middle" x="434.25" y="-32.2" font-family="Times,serif" font-size="14.00"> </text>
<polyline fill="none" stroke="black" points="407.25,-25 461.25,-25"/>
<text text-anchor="middle" x="434.25" y="-7.7" font-family="Times,serif" font-size="14.00"> </text>
</g>
<!-- a22&#45;&gt;a23 -->
<g id="edge3" class="edge">
<title>a22:cdr&#45;&gt;a23:car</title>
<path fill="none" stroke="black" d="M370.77,-71C397.31,-71 434.25,-71 434.25,-71 434.25,-71 434.25,-60.27 434.25,-60.27"/>
<polygon fill="black" stroke="black" points="437.75,-60.27 434.25,-50.27 430.75,-60.27 437.75,-60.27"/>
</g>
<!-- a221 -->
<g id="node9" class="node">
<title>a221</title>
<polygon fill="none" stroke="black" points="407.25,-87 407.25,-123 461.25,-123 461.25,-87 407.25,-87"/>
<text text-anchor="middle" x="434.25" y="-100.2" font-family="Times,serif" font-size="14.00">longv</text>
</g>
<!-- a22&#45;&gt;a221 -->
<g id="edge7" class="edge">
<title>a22:car&#45;&gt;a221</title>
<path fill="none" stroke="black" d="M370.77,-91.25C370.77,-91.25 396.3,-91.25 396.3,-91.25"/>
<polygon fill="black" stroke="black" points="396.3,-94.75 406.3,-91.25 396.3,-87.75 396.3,-94.75"/>
</g>
<!-- a231 -->
<g id="node10" class="node">
<title>a231</title>
<polygon fill="none" stroke="black" points="497.25,-19 497.25,-55 551.25,-55 551.25,-19 497.25,-19"/>
<text text-anchor="middle" x="524.25" y="-32.2" font-family="Times,serif" font-size="14.00">ar???</text>
</g>
<!-- a23&#45;&gt;a231 -->
<g id="edge8" class="edge">
<title>a23:car&#45;&gt;a231</title>
<path fill="none" stroke="black" d="M460.77,-34.25C460.77,-34.25 486.3,-34.25 486.3,-34.25"/>
<polygon fill="black" stroke="black" points="486.3,-37.75 496.3,-34.25 486.3,-30.75 486.3,-37.75"/>
</g>
</g>
</svg>
