<?xml version="1.0" encoding="UTF-8" standalone="no"?>
<!DOCTYPE svg PUBLIC "-//W3C//DTD SVG 1.1//EN"
 "http://www.w3.org/Graphics/SVG/1.1/DTD/svg11.dtd">
<!-- Generated by graphviz version 8.0.5 (20230430.1635)
 -->
<!-- Pages: 1 -->
<svg width="518pt" height="214pt"
 viewBox="0.00 0.00 518.00 214.10" xmlns="http://www.w3.org/2000/svg" xmlns:xlink="http://www.w3.org/1999/xlink">
<g id="graph0" class="graph" transform="scale(1 1) rotate(0) translate(4 210.1)">
<polygon fill="white" stroke="none" points="-4,4 -4,-210.1 514,-210.1 514,4 -4,4"/>
<g id="clust1" class="cluster">
<title>cluster_1</title>
<polygon fill="none" stroke="black" stroke-dasharray="5,2" points="8,-8 8,-198.1 268,-198.1 268,-8 8,-8"/>
<text text-anchor="middle" x="138" y="-180.8" font-family="Times,serif" font-size="14.00">Store same expression in DIFFERENT place</text>
</g>
<g id="clust2" class="cluster">
<title>cluster_2</title>
<polygon fill="none" stroke="black" stroke-dasharray="5,2" points="276,-8 276,-198.1 502,-198.1 502,-8 276,-8"/>
<text text-anchor="middle" x="389" y="-180.8" font-family="Times,serif" font-size="14.00">Store same expression in SAME place</text>
</g>
<!-- in1 -->
<g id="node1" class="node">
<title>in1</title>
<ellipse fill="black" stroke="black" cx="110" cy="-163.8" rx="1.8" ry="1.8"/>
</g>
<!-- a1 -->
<g id="node2" class="node">
<title>a1</title>
<polygon fill="none" stroke="black" points="97,-89.5 97,-125.5 151,-125.5 151,-89.5 97,-89.5"/>
<text text-anchor="middle" x="110.38" y="-102.45" font-family="Times,serif" font-size="14.00"> </text>
<polyline fill="none" stroke="black" points="123.75,-89.5 123.75,-125.5"/>
<text text-anchor="middle" x="137.12" y="-102.45" font-family="Times,serif" font-size="14.00"> </text>
</g>
<!-- in1&#45;&gt;a1 -->
<g id="edge1" class="edge">
<title>in1&#45;&gt;a1:car</title>
<path fill="none" stroke="black" d="M110,-161.66C110,-158.26 110,-147.81 110,-136.86"/>
<polygon fill="black" stroke="black" points="113.5,-137 110,-127 106.5,-137 113.5,-137"/>
</g>
<!-- ab11 -->
<g id="node3" class="node">
<title>ab11</title>
<polygon fill="none" stroke="black" points="75,-16.5 75,-52.5 129,-52.5 129,-16.5 75,-16.5"/>
<text text-anchor="middle" x="88.38" y="-29.45" font-family="Times,serif" font-size="14.00">A</text>
<polyline fill="none" stroke="black" points="101.75,-16.5 101.75,-52.5"/>
<text text-anchor="middle" x="115.25" y="-29.45" font-family="Times,serif" font-size="14.00">B</text>
</g>
<!-- a1&#45;&gt;ab11 -->
<g id="edge2" class="edge">
<title>a1:car&#45;&gt;ab11:car</title>
<path fill="none" stroke="black" d="M110,-89C110,-74.64 97.1,-72.16 91.06,-63.37"/>
<polygon fill="black" stroke="black" points="94.19,-62.6 88,-54 87.47,-64.58 94.19,-62.6"/>
</g>
<!-- ab12 -->
<g id="node4" class="node">
<title>ab12</title>
<polygon fill="none" stroke="black" points="147,-16.5 147,-52.5 201,-52.5 201,-16.5 147,-16.5"/>
<text text-anchor="middle" x="160.38" y="-29.45" font-family="Times,serif" font-size="14.00">A</text>
<polyline fill="none" stroke="black" points="173.75,-16.5 173.75,-52.5"/>
<text text-anchor="middle" x="187.25" y="-29.45" font-family="Times,serif" font-size="14.00">B</text>
</g>
<!-- a1&#45;&gt;ab12 -->
<g id="edge3" class="edge">
<title>a1:cdr&#45;&gt;ab12:car</title>
<path fill="none" stroke="black" d="M137,-89C137,-74.46 150.48,-72.21 156.8,-63.44"/>
<polygon fill="black" stroke="black" points="160.42,-64.59 160,-54 153.72,-62.54 160.42,-64.59"/>
</g>
<!-- in2 -->
<g id="node5" class="node">
<title>in2</title>
<ellipse fill="black" stroke="black" cx="297" cy="-163.8" rx="1.8" ry="1.8"/>
</g>
<!-- a2 -->
<g id="node6" class="node">
<title>a2</title>
<polygon fill="none" stroke="black" points="284,-89.5 284,-125.5 338,-125.5 338,-89.5 284,-89.5"/>
<text text-anchor="middle" x="297.38" y="-102.45" font-family="Times,serif" font-size="14.00"> </text>
<polyline fill="none" stroke="black" points="310.75,-89.5 310.75,-125.5"/>
<text text-anchor="middle" x="324.12" y="-102.45" font-family="Times,serif" font-size="14.00"> </text>
</g>
<!-- in2&#45;&gt;a2 -->
<g id="edge4" class="edge">
<title>in2&#45;&gt;a2:car</title>
<path fill="none" stroke="black" d="M297,-161.66C297,-158.26 297,-147.81 297,-136.86"/>
<polygon fill="black" stroke="black" points="300.5,-137 297,-127 293.5,-137 300.5,-137"/>
</g>
<!-- ab2 -->
<g id="node7" class="node">
<title>ab2</title>
<polygon fill="none" stroke="black" points="297,-16.5 297,-52.5 351,-52.5 351,-16.5 297,-16.5"/>
<text text-anchor="middle" x="310.38" y="-29.45" font-family="Times,serif" font-size="14.00">A</text>
<polyline fill="none" stroke="black" points="323.75,-16.5 323.75,-52.5"/>
<text text-anchor="middle" x="337.25" y="-29.45" font-family="Times,serif" font-size="14.00">B</text>
</g>
<!-- a2&#45;&gt;ab2 -->
<g id="edge5" class="edge">
<title>a2:car&#45;&gt;ab2:car</title>
<path fill="none" stroke="black" d="M297,-89C297,-76.37 304.16,-72.03 307.85,-63.67"/>
<polygon fill="black" stroke="black" points="311.46,-64.49 310,-54 304.6,-63.11 311.46,-64.49"/>
</g>
<!-- a2&#45;&gt;ab2 -->
<g id="edge6" class="edge">
<title>a2:cdr&#45;&gt;ab2:car</title>
<path fill="none" stroke="black" d="M324,-89C324,-76.26 316.29,-72.06 312.31,-63.72"/>
<polygon fill="black" stroke="black" points="315.53,-63.04 310,-54 308.69,-64.51 315.53,-63.04"/>
</g>
</g>
</svg>
