<?xml version="1.0" encoding="UTF-8" standalone="no"?>
<!DOCTYPE svg PUBLIC "-//W3C//DTD SVG 1.1//EN"
 "http://www.w3.org/Graphics/SVG/1.1/DTD/svg11.dtd">
<!-- Generated by graphviz version 8.0.5 (20230430.1635)
 -->
<!-- Pages: 1 -->
<svg width="591pt" height="116pt"
 viewBox="0.00 0.00 591.20 116.00" xmlns="http://www.w3.org/2000/svg" xmlns:xlink="http://www.w3.org/1999/xlink">
<g id="graph0" class="graph" transform="scale(1 1) rotate(0) translate(4 112)">
<polygon fill="white" stroke="none" points="-4,4 -4,-112 587.2,-112 587.2,4 -4,4"/>
<!-- in -->
<g id="node1" class="node">
<title>in</title>
<ellipse fill="black" stroke="black" cx="1.8" cy="-63" rx="1.8" ry="1.8"/>
</g>
<!-- π1 -->
<g id="node7" class="node">
<title>π1</title>
<ellipse fill="none" stroke="black" cx="66.6" cy="-63" rx="27" ry="18"/>
<text text-anchor="start" x="60.22" y="-58.95" font-family="Times,serif" font-size="14.00">π</text>
<text text-anchor="start" x="66.97" y="-58.95" font-family="Times,serif" baseline-shift="sub" font-size="14.00">1</text>
</g>
<!-- in&#45;&gt;π1 -->
<g id="edge11" class="edge">
<title>in&#45;&gt;π1</title>
<path fill="none" stroke="black" d="M3.96,-63C3.96,-63 28.16,-63 28.16,-63"/>
<polygon fill="black" stroke="black" points="28.16,-66.5 38.16,-63 28.16,-59.5 28.16,-66.5"/>
</g>
<!-- out -->
<g id="node2" class="node">
<title>out</title>
<ellipse fill="black" stroke="black" cx="581.4" cy="-63" rx="1.8" ry="1.8"/>
</g>
<!-- f1 -->
<g id="node3" class="node">
<title>f1</title>
<polygon fill="none" stroke="black" points="183.6,-108 129.6,-108 129.6,-72 183.6,-72 183.6,-108"/>
<text text-anchor="start" x="151.35" y="-85.95" font-family="Times,serif" font-size="14.00">f</text>
<text text-anchor="start" x="155.85" y="-85.95" font-family="Times,serif" baseline-shift="sub" font-size="14.00">1</text>
</g>
<!-- π2 -->
<g id="node8" class="node">
<title>π2</title>
<ellipse fill="none" stroke="black" cx="246.6" cy="-63" rx="27" ry="18"/>
<text text-anchor="start" x="240.22" y="-58.95" font-family="Times,serif" font-size="14.00">π</text>
<text text-anchor="start" x="246.97" y="-58.95" font-family="Times,serif" baseline-shift="sub" font-size="14.00">2</text>
</g>
<!-- f1&#45;&gt;π2 -->
<g id="edge3" class="edge">
<title>f1&#45;&gt;π2</title>
<path fill="none" stroke="black" d="M184.09,-76.5C184.09,-76.5 216.82,-76.5 216.82,-76.5"/>
<polygon fill="black" stroke="black" points="216.82,-80 226.82,-76.5 216.82,-73 216.82,-80"/>
</g>
<!-- f2 -->
<g id="node4" class="node">
<title>f2</title>
<polygon fill="none" stroke="black" points="183.6,-54 129.6,-54 129.6,-18 183.6,-18 183.6,-54"/>
<text text-anchor="start" x="151.35" y="-31.95" font-family="Times,serif" font-size="14.00">f</text>
<text text-anchor="start" x="155.85" y="-31.95" font-family="Times,serif" baseline-shift="sub" font-size="14.00">2</text>
</g>
<!-- f2&#45;&gt;π2 -->
<g id="edge4" class="edge">
<title>f2&#45;&gt;π2</title>
<path fill="none" stroke="black" d="M184.09,-49.5C184.09,-49.5 216.82,-49.5 216.82,-49.5"/>
<polygon fill="black" stroke="black" points="216.82,-53 226.82,-49.5 216.82,-46 216.82,-53"/>
<text text-anchor="middle" x="196.71" y="-36.2" font-family="Times,serif" font-size="14.00">S</text>
</g>
<!-- f3 -->
<g id="node5" class="node">
<title>f3</title>
<polygon fill="none" stroke="black" points="363.6,-81 309.6,-81 309.6,-45 363.6,-45 363.6,-81"/>
<text text-anchor="start" x="331.35" y="-58.95" font-family="Times,serif" font-size="14.00">f</text>
<text text-anchor="start" x="335.85" y="-58.95" font-family="Times,serif" baseline-shift="sub" font-size="14.00">3</text>
</g>
<!-- π3 -->
<g id="node9" class="node">
<title>π3</title>
<ellipse fill="none" stroke="black" cx="426.6" cy="-63" rx="27" ry="18"/>
<text text-anchor="start" x="420.22" y="-58.95" font-family="Times,serif" font-size="14.00">π</text>
<text text-anchor="start" x="426.97" y="-58.95" font-family="Times,serif" baseline-shift="sub" font-size="14.00">3</text>
</g>
<!-- f3&#45;&gt;π3 -->
<g id="edge6" class="edge">
<title>f3&#45;&gt;π3</title>
<path fill="none" stroke="black" d="M364.09,-69C364.09,-69 389.81,-69 389.81,-69"/>
<polygon fill="black" stroke="black" points="389.81,-72.5 399.81,-69 389.81,-65.5 389.81,-72.5"/>
</g>
<!-- f4 -->
<g id="node6" class="node">
<title>f4</title>
<polygon fill="none" stroke="black" points="543.6,-81 489.6,-81 489.6,-45 543.6,-45 543.6,-81"/>
<text text-anchor="start" x="511.35" y="-58.95" font-family="Times,serif" font-size="14.00">f</text>
<text text-anchor="start" x="515.85" y="-58.95" font-family="Times,serif" baseline-shift="sub" font-size="14.00">4</text>
</g>
<!-- f4&#45;&gt;out -->
<g id="edge12" class="edge">
<title>f4&#45;&gt;out</title>
<path fill="none" stroke="black" d="M544.08,-63C544.08,-63 568.15,-63 568.15,-63"/>
<polygon fill="black" stroke="black" points="568.15,-66.5 578.15,-63 568.15,-59.5 568.15,-66.5"/>
</g>
<!-- π1&#45;&gt;f1 -->
<g id="edge1" class="edge">
<title>π1&#45;&gt;f1</title>
<path fill="none" stroke="black" d="M85.25,-76.5C85.25,-76.5 118.44,-76.5 118.44,-76.5"/>
<polygon fill="black" stroke="black" points="118.44,-80 128.44,-76.5 118.44,-73 118.44,-80"/>
</g>
<!-- π1&#45;&gt;f2 -->
<g id="edge2" class="edge">
<title>π1&#45;&gt;f2</title>
<path fill="none" stroke="black" d="M85.25,-49.5C85.25,-49.5 118.44,-49.5 118.44,-49.5"/>
<polygon fill="black" stroke="black" points="118.44,-53 128.44,-49.5 118.44,-46 118.44,-53"/>
</g>
<!-- π2&#45;&gt;f3 -->
<g id="edge5" class="edge">
<title>π2&#45;&gt;f3</title>
<path fill="none" stroke="black" d="M274.09,-63C274.09,-63 298.28,-63 298.28,-63"/>
<polygon fill="black" stroke="black" points="298.28,-66.5 308.28,-63 298.28,-59.5 298.28,-66.5"/>
</g>
<!-- π2&#45;&gt;π1 -->
<g id="edge8" class="edge">
<title>π2&#45;&gt;π1</title>
<path fill="none" stroke="black" d="M219.26,-63C219.26,-63 104.9,-63 104.9,-63"/>
<polygon fill="black" stroke="black" points="104.9,-59.5 94.9,-63 104.9,-66.5 104.9,-59.5"/>
</g>
<!-- π3&#45;&gt;f3 -->
<g id="edge9" class="edge">
<title>π3&#45;&gt;f3</title>
<path fill="none" stroke="black" d="M401.05,-57C401.05,-57 374.79,-57 374.79,-57"/>
<polygon fill="black" stroke="black" points="374.79,-53.5 364.79,-57 374.79,-60.5 374.79,-53.5"/>
<text text-anchor="middle" x="383.79" y="-43.7" font-family="Times,serif" font-size="14.00">T</text>
</g>
<!-- π3&#45;&gt;f4 -->
<g id="edge7" class="edge">
<title>π3&#45;&gt;f4</title>
<path fill="none" stroke="black" d="M454.09,-63C454.09,-63 478.28,-63 478.28,-63"/>
<polygon fill="black" stroke="black" points="478.28,-66.5 488.28,-63 478.28,-59.5 478.28,-66.5"/>
</g>
<!-- π3&#45;&gt;π1 -->
<g id="edge10" class="edge">
<title>π3&#45;&gt;π1</title>
<path fill="none" stroke="black" d="M427.2,-44.78C427.2,-26.17 427.2,0 427.2,0 427.2,0 67.2,0 67.2,0 67.2,0 67.2,-33.78 67.2,-33.78"/>
<polygon fill="black" stroke="black" points="63.7,-33.78 67.2,-43.78 70.7,-33.78 63.7,-33.78"/>
</g>
</g>
</svg>
