<?xml version="1.0" encoding="UTF-8" standalone="no"?>
<!DOCTYPE svg PUBLIC "-//W3C//DTD SVG 1.1//EN"
 "http://www.w3.org/Graphics/SVG/1.1/DTD/svg11.dtd">
<!-- Generated by graphviz version 8.0.5 (20230430.1635)
 -->
<!-- Pages: 1 -->
<svg width="246pt" height="216pt"
 viewBox="0.00 0.00 246.00 215.86" xmlns="http://www.w3.org/2000/svg" xmlns:xlink="http://www.w3.org/1999/xlink">
<g id="graph0" class="graph" transform="scale(1 1) rotate(0) translate(4 211.86)">
<polygon fill="white" stroke="none" points="-4,4 -4,-211.86 242,-211.86 242,4 -4,4"/>
<!-- beta -->
<g id="node1" class="node">
<title>beta</title>
<polygon fill="none" stroke="black" points="126,-197.5 99,-179.5 126,-161.5 153,-179.5 126,-197.5"/>
<text text-anchor="middle" x="126" y="-174.45" font-family="Times,serif" font-size="14.00"> </text>
</g>
<!-- f1 -->
<g id="node2" class="node">
<title>f1</title>
<polygon fill="none" stroke="black" points="55,-124.5 1,-124.5 1,-88.5 55,-88.5 55,-124.5"/>
<text text-anchor="middle" x="28" y="-101.45" font-family="Times,serif" font-size="14.00">f1</text>
</g>
<!-- beta&#45;&gt;f1 -->
<g id="edge1" class="edge">
<title>beta&#45;&gt;f1</title>
<path fill="none" stroke="black" d="M113.59,-169.51C100.31,-159.89 78.7,-144.23 60.52,-131.06"/>
<polygon fill="black" stroke="black" points="63.07,-127.86 52.92,-124.83 58.97,-133.53 63.07,-127.86"/>
</g>
<!-- f2 -->
<g id="node3" class="node">
<title>f2</title>
<polygon fill="none" stroke="black" points="127,-124.5 73,-124.5 73,-88.5 127,-88.5 127,-124.5"/>
<text text-anchor="middle" x="100" y="-101.45" font-family="Times,serif" font-size="14.00">f2</text>
</g>
<!-- beta&#45;&gt;f2 -->
<g id="edge2" class="edge">
<title>beta&#45;&gt;f2</title>
<path fill="none" stroke="black" d="M120.86,-164.47C117.77,-156.01 113.71,-144.95 110.01,-134.83"/>
<polygon fill="black" stroke="black" points="113.05,-133.95 106.32,-125.76 106.47,-136.36 113.05,-133.95"/>
</g>
<!-- ... -->
<g id="node4" class="node">
<title>...</title>
<text text-anchor="middle" x="153" y="-101.45" font-family="Times,serif" font-size="14.00">...</text>
</g>
<!-- beta&#45;&gt;... -->
<g id="edge3" class="edge">
<title>beta&#45;&gt;...</title>
<path fill="none" stroke="none" d="M131.33,-164.47C135.67,-153.08 141.8,-136.96 146.43,-124.77"/>
<polygon fill="none" stroke="none" points="150.03,-126.17 150.31,-115.58 143.48,-123.68 150.03,-126.17"/>
</g>
<!-- fn -->
<g id="node5" class="node">
<title>fn</title>
<polygon fill="none" stroke="black" points="235,-124.5 181,-124.5 181,-88.5 235,-88.5 235,-124.5"/>
<text text-anchor="middle" x="208" y="-101.45" font-family="Times,serif" font-size="14.00">fn</text>
</g>
<!-- beta&#45;&gt;fn -->
<g id="edge4" class="edge">
<title>beta&#45;&gt;fn</title>
<path fill="none" stroke="black" d="M137.4,-168.63C148.29,-159.2 165.14,-144.61 179.65,-132.04"/>
<polygon fill="black" stroke="black" points="181.59,-134.13 186.86,-124.94 177.01,-128.84 181.59,-134.13"/>
</g>
<!-- β1 -->
<g id="node6" class="node">
<title>β1</title>
<ellipse fill="none" stroke="black" cx="27" cy="-18" rx="27" ry="18"/>
<text text-anchor="middle" x="27" y="-12.95" font-family="Times,serif" font-size="14.00">β1</text>
</g>
<!-- f1&#45;&gt;β1 -->
<g id="edge5" class="edge">
<title>f1&#45;&gt;β1</title>
<path fill="none" stroke="black" d="M27.8,-88.41C27.67,-76.64 27.48,-60.73 27.32,-47.11"/>
<polygon fill="black" stroke="black" points="30.82,-47.31 27.2,-37.35 23.82,-47.39 30.82,-47.31"/>
<text text-anchor="middle" x="38.88" y="-57.2" font-family="Times,serif" font-size="14.00"> &#160;ɸ1</text>
</g>
<!-- β2 -->
<g id="node7" class="node">
<title>β2</title>
<ellipse fill="none" stroke="black" cx="99" cy="-18" rx="27" ry="18"/>
<text text-anchor="middle" x="99" y="-12.95" font-family="Times,serif" font-size="14.00">β2</text>
</g>
<!-- f2&#45;&gt;β2 -->
<g id="edge6" class="edge">
<title>f2&#45;&gt;β2</title>
<path fill="none" stroke="black" d="M99.8,-88.41C99.67,-76.64 99.48,-60.73 99.32,-47.11"/>
<polygon fill="black" stroke="black" points="102.82,-47.31 99.2,-37.35 95.82,-47.39 102.82,-47.31"/>
<text text-anchor="middle" x="110.88" y="-57.2" font-family="Times,serif" font-size="14.00"> &#160;ɸ1</text>
</g>
<!-- ...... -->
<g id="node9" class="node">
<title>......</title>
<text text-anchor="middle" x="155" y="-12.95" font-family="Times,serif" font-size="14.00">......</text>
</g>
<!-- ...&#45;&gt;...... -->
<g id="edge8" class="edge">
<title>...&#45;&gt;......</title>
<path fill="none" stroke="none" d="M153.16,-98.42C153.47,-85.05 154.15,-55.71 154.59,-36.68"/>
<polygon fill="none" stroke="none" points="158.11,-37.01 154.84,-26.93 151.11,-36.85 158.11,-37.01"/>
</g>
<!-- βn -->
<g id="node8" class="node">
<title>βn</title>
<ellipse fill="none" stroke="black" cx="211" cy="-18" rx="27" ry="18"/>
<text text-anchor="middle" x="211" y="-12.95" font-family="Times,serif" font-size="14.00">βn</text>
</g>
<!-- fn&#45;&gt;βn -->
<g id="edge7" class="edge">
<title>fn&#45;&gt;βn</title>
<path fill="none" stroke="black" d="M208.59,-88.41C209,-76.64 209.55,-60.73 210.03,-47.11"/>
<polygon fill="black" stroke="black" points="213.55,-47.47 210.4,-37.35 206.55,-47.22 213.55,-47.47"/>
<text text-anchor="middle" x="220.88" y="-57.2" font-family="Times,serif" font-size="14.00"> &#160;ɸn</text>
</g>
<!-- β -->
<g id="node10" class="node">
<title>β</title>
<text text-anchor="middle" x="52" y="-174.45" font-family="Times,serif" font-size="14.00">β</text>
</g>
<!-- β&#45;&gt;beta -->
<g id="edge9" class="edge">
<title>β&#45;&gt;beta</title>
<path fill="none" stroke="none" d="M55.32,-187.28C58.67,-193.94 64.55,-203 73,-206.5 76.28,-207.86 77.57,-207.45 81,-206.5 89.21,-204.23 97.43,-200.01 104.55,-195.58"/>
<polygon fill="none" stroke="none" points="106.14,-198.05 112.48,-189.56 102.23,-192.24 106.14,-198.05"/>
</g>
<!-- ɸ -->
<g id="node11" class="node">
<title>ɸ</title>
<text text-anchor="middle" x="77" y="-174.45" font-family="Times,serif" font-size="14.00">ɸ</text>
</g>
<!-- ɸ&#45;&gt;beta -->
<g id="edge10" class="edge">
<title>ɸ&#45;&gt;beta</title>
<path fill="none" stroke="none" d="M80.45,-179.5C82.76,-179.5 85.08,-179.5 87.4,-179.5"/>
<polygon fill="none" stroke="none" points="87.24,-183 97.24,-179.5 87.24,-176 87.24,-183"/>
</g>
</g>
</svg>
