<?xml version="1.0" encoding="UTF-8" standalone="no"?>
<!DOCTYPE svg PUBLIC "-//W3C//DTD SVG 1.1//EN"
 "http://www.w3.org/Graphics/SVG/1.1/DTD/svg11.dtd">
<!-- Generated by graphviz version 8.0.5 (20230430.1635)
 -->
<!-- Pages: 1 -->
<svg width="169pt" height="188pt"
 viewBox="0.00 0.00 169.25 188.00" xmlns="http://www.w3.org/2000/svg" xmlns:xlink="http://www.w3.org/1999/xlink">
<g id="graph0" class="graph" transform="scale(1 1) rotate(0) translate(4 184)">
<polygon fill="white" stroke="none" points="-4,4 -4,-184 165.25,-184 165.25,4 -4,4"/>
<g id="clust1" class="cluster">
<title>cluster_SAVE</title>
<polygon fill="none" stroke="black" stroke-dasharray="5,2" points="8,-8 8,-172 153.25,-172 153.25,-8 8,-8"/>
</g>
<!-- free -->
<g id="node1" class="node">
<title>free</title>
<polygon fill="none" stroke="black" points="16,-16.5 16,-163.5 75.5,-163.5 75.5,-16.5 16,-16.5"/>
<text text-anchor="middle" x="45.75" y="-146.2" font-family="Times,serif" font-size="14.00">size = 5</text>
<polyline fill="none" stroke="black" points="16,-139 75.5,-139"/>
<text text-anchor="middle" x="45.75" y="-121.7" font-family="Times,serif" font-size="14.00">idx = 1</text>
<polyline fill="none" stroke="black" points="16,-114.5 75.5,-114.5"/>
<text text-anchor="middle" x="45.75" y="-97.2" font-family="Times,serif" font-size="14.00">idx = 2</text>
<polyline fill="none" stroke="black" points="16,-90 75.5,-90"/>
<text text-anchor="middle" x="45.75" y="-72.7" font-family="Times,serif" font-size="14.00">idx = 3</text>
<polyline fill="none" stroke="black" points="16,-65.5 75.5,-65.5"/>
<text text-anchor="middle" x="45.75" y="-48.2" font-family="Times,serif" font-size="14.00">idx = 4</text>
<polyline fill="none" stroke="black" points="16,-41 75.5,-41"/>
<text text-anchor="middle" x="45.75" y="-23.7" font-family="Times,serif" font-size="14.00">idx = 5</text>
</g>
<!-- input -->
<g id="node2" class="node">
<title>input</title>
<text text-anchor="middle" x="128.38" y="-145.95" font-family="Times,serif" font-size="14.00">SAVE</text>
</g>
<!-- free&#45;&gt;input -->
<g id="edge1" class="edge">
<title>free:count&#45;&gt;input</title>
<path fill="none" stroke="black" d="M86.4,-151C95.47,-151 104.61,-151 111.94,-151"/>
<polygon fill="black" stroke="black" points="86.5,-147.5 76.5,-151 86.5,-154.5 86.5,-147.5"/>
</g>
</g>
</svg>
