<?xml version="1.0" encoding="UTF-8" standalone="no"?>
<!DOCTYPE svg PUBLIC "-//W3C//DTD SVG 1.1//EN"
 "http://www.w3.org/Graphics/SVG/1.1/DTD/svg11.dtd">
<!-- Generated by graphviz version 9.0.0 (20230911.1827)
 -->
<!-- Pages: 1 -->
<svg width="678pt" height="928pt"
 viewBox="0.00 0.00 678.38 928.05" xmlns="http://www.w3.org/2000/svg" xmlns:xlink="http://www.w3.org/1999/xlink">
<g id="graph0" class="graph" transform="scale(1 1) rotate(0) translate(4 924.05)">
<polygon fill="white" stroke="none" points="-4,4 -4,-924.05 674.38,-924.05 674.38,4 -4,4"/>
<!-- root -->
<g id="node1" class="node">
<title>root</title>
<ellipse fill="black" stroke="black" cx="1.8" cy="-441.39" rx="1.8" ry="1.8"/>
</g>
<!-- 規629417 -->
<g id="node2" class="node">
<title>規629417</title>
<ellipse fill="none" stroke="black" cx="60.99" cy="-441.39" rx="21.39" ry="21.39"/>
<text text-anchor="middle" x="60.99" y="-438.21" font-family="Times,serif" font-size="14.00">規</text>
</g>
<!-- root&#45;&gt;規629417 -->
<g id="edge1" class="edge">
<title>root&#45;&gt;規629417</title>
<path fill="none" stroke="black" d="M3.79,-441.39C6.94,-441.39 17.14,-441.39 28,-441.39"/>
<polygon fill="black" stroke="black" points="27.77,-444.89 37.77,-441.39 27.77,-437.89 27.77,-444.89"/>
</g>
<!-- 則629418 -->
<g id="node3" class="node">
<title>則629418</title>
<ellipse fill="none" stroke="black" cx="143.77" cy="-768.39" rx="21.39" ry="21.39"/>
<ellipse fill="none" stroke="black" cx="143.77" cy="-768.39" rx="25.39" ry="25.39"/>
<text text-anchor="middle" x="143.77" y="-765.21" font-family="Times,serif" font-size="14.00">則</text>
</g>
<!-- 規629417&#45;&gt;則629418 -->
<g id="edge2" class="edge">
<title>規629417&#45;&gt;則629418</title>
<path fill="none" stroke="black" d="M67.17,-462.34C80.66,-516.98 117.05,-664.27 133.94,-732.63"/>
<polygon fill="black" stroke="black" points="130.5,-733.33 136.3,-742.2 137.3,-731.65 130.5,-733.33"/>
</g>
<!-- 正629431 -->
<g id="node4" class="node">
<title>正629431</title>
<ellipse fill="none" stroke="black" cx="143.77" cy="-510.39" rx="21.39" ry="21.39"/>
<ellipse fill="none" stroke="black" cx="143.77" cy="-510.39" rx="25.39" ry="25.39"/>
<text text-anchor="middle" x="143.77" y="-507.21" font-family="Times,serif" font-size="14.00">正</text>
</g>
<!-- 規629417&#45;&gt;正629431 -->
<g id="edge3" class="edge">
<title>規629417&#45;&gt;正629431</title>
<path fill="none" stroke="black" d="M77.95,-455.02C88.53,-464.06 102.7,-476.16 115.09,-486.74"/>
<polygon fill="black" stroke="black" points="112.69,-489.3 122.57,-493.13 117.24,-483.98 112.69,-489.3"/>
</g>
<!-- 整629432 -->
<g id="node5" class="node">
<title>整629432</title>
<ellipse fill="none" stroke="black" cx="143.77" cy="-441.39" rx="21.39" ry="21.39"/>
<ellipse fill="none" stroke="black" cx="143.77" cy="-441.39" rx="25.39" ry="25.39"/>
<text text-anchor="middle" x="143.77" y="-438.21" font-family="Times,serif" font-size="14.00">整</text>
</g>
<!-- 規629417&#45;&gt;整629432 -->
<g id="edge4" class="edge">
<title>規629417&#45;&gt;整629432</title>
<path fill="none" stroke="black" d="M82.79,-441.39C90.1,-441.39 98.54,-441.39 106.73,-441.39"/>
<polygon fill="black" stroke="black" points="106.5,-444.89 116.5,-441.39 106.5,-437.89 106.5,-444.89"/>
</g>
<!-- 制629433 -->
<g id="node6" class="node">
<title>制629433</title>
<ellipse fill="none" stroke="black" cx="143.77" cy="-372.39" rx="21.39" ry="21.39"/>
<ellipse fill="none" stroke="black" cx="143.77" cy="-372.39" rx="25.39" ry="25.39"/>
<text text-anchor="middle" x="143.77" y="-369.21" font-family="Times,serif" font-size="14.00">制</text>
</g>
<!-- 規629417&#45;&gt;制629433 -->
<g id="edge5" class="edge">
<title>規629417&#45;&gt;制629433</title>
<path fill="none" stroke="black" d="M77.95,-427.76C88.53,-418.72 102.7,-406.62 115.09,-396.04"/>
<polygon fill="black" stroke="black" points="117.24,-398.8 122.57,-389.65 112.69,-393.48 117.24,-398.8"/>
</g>
<!-- 準629455 -->
<g id="node7" class="node">
<title>準629455</title>
<ellipse fill="none" stroke="black" cx="143.77" cy="-94.39" rx="21.39" ry="21.39"/>
<text text-anchor="middle" x="143.77" y="-91.21" font-family="Times,serif" font-size="14.00">準</text>
</g>
<!-- 規629417&#45;&gt;準629455 -->
<g id="edge6" class="edge">
<title>規629417&#45;&gt;準629455</title>
<path fill="none" stroke="black" d="M66.86,-420.47C80.47,-362.01 118.95,-196.7 135.29,-126.53"/>
<polygon fill="black" stroke="black" points="138.69,-127.35 137.55,-116.82 131.87,-125.76 138.69,-127.35"/>
</g>
<!-- を629419 -->
<g id="node8" class="node">
<title>を629419</title>
<ellipse fill="none" stroke="black" cx="230.55" cy="-889.39" rx="19.66" ry="19.66"/>
<text text-anchor="middle" x="230.55" y="-883.59" font-family="Times,serif" font-size="14.00">を</text>
</g>
<!-- 則629418&#45;&gt;を629419 -->
<g id="edge7" class="edge">
<title>則629418&#45;&gt;を629419</title>
<path fill="none" stroke="black" d="M158.6,-789.47C170.64,-807.65 188.69,-834.5 205.16,-857.39 206.97,-859.91 208.89,-862.52 210.82,-865.1"/>
<polygon fill="black" stroke="black" points="207.98,-867.15 216.8,-873.01 213.56,-862.92 207.98,-867.15"/>
</g>
<!-- に629422 -->
<g id="node9" class="node">
<title>に629422</title>
<ellipse fill="none" stroke="black" cx="230.55" cy="-828.39" rx="19.66" ry="19.66"/>
<text text-anchor="middle" x="230.55" y="-822.59" font-family="Times,serif" font-size="14.00">に</text>
</g>
<!-- 則629418&#45;&gt;に629422 -->
<g id="edge8" class="edge">
<title>則629418&#45;&gt;に629422</title>
<path fill="none" stroke="black" d="M164.86,-782.61C176.8,-791.06 192.04,-801.84 204.73,-810.82"/>
<polygon fill="black" stroke="black" points="202.42,-813.48 212.6,-816.4 206.46,-807.76 202.42,-813.48"/>
</g>
<!-- ど629425 -->
<g id="node10" class="node">
<title>ど629425</title>
<ellipse fill="none" stroke="black" cx="230.55" cy="-768.39" rx="19.66" ry="19.66"/>
<text text-anchor="middle" x="230.55" y="-762.59" font-family="Times,serif" font-size="14.00">ど</text>
</g>
<!-- 則629418&#45;&gt;ど629425 -->
<g id="edge9" class="edge">
<title>則629418&#45;&gt;ど629425</title>
<path fill="none" stroke="black" d="M169.29,-768.39C178.61,-768.39 189.34,-768.39 199.13,-768.39"/>
<polygon fill="black" stroke="black" points="198.95,-771.89 208.95,-768.39 198.95,-764.89 198.95,-771.89"/>
</g>
<!-- で629428 -->
<g id="node11" class="node">
<title>で629428</title>
<ellipse fill="none" stroke="black" cx="230.55" cy="-710.39" rx="19.66" ry="19.66"/>
<text text-anchor="middle" x="230.55" y="-704.59" font-family="Times,serif" font-size="14.00">で</text>
</g>
<!-- 則629418&#45;&gt;で629428 -->
<g id="edge10" class="edge">
<title>則629418&#45;&gt;で629428</title>
<path fill="none" stroke="black" d="M165.29,-754.35C177.05,-746.31 191.89,-736.15 204.35,-727.63"/>
<polygon fill="black" stroke="black" points="206.2,-730.6 212.48,-722.07 202.25,-724.83 206.2,-730.6"/>
</g>
<!-- 薬629434 -->
<g id="node20" class="node">
<title>薬629434</title>
<ellipse fill="none" stroke="black" cx="230.55" cy="-640.39" rx="21.39" ry="21.39"/>
<text text-anchor="middle" x="230.55" y="-637.21" font-family="Times,serif" font-size="14.00">薬</text>
</g>
<!-- 制629433&#45;&gt;薬629434 -->
<g id="edge19" class="edge">
<title>制629433&#45;&gt;薬629434</title>
<path fill="none" stroke="black" d="M160.51,-391.89C163.8,-396.73 166.93,-402.06 169.16,-407.39 202.99,-488.3 173.35,-519.67 205.16,-601.39 206.81,-605.62 208.93,-609.9 211.23,-613.99"/>
<polygon fill="black" stroke="black" points="208.15,-615.67 216.36,-622.37 214.12,-612.01 208.15,-615.67"/>
</g>
<!-- 撤629436 -->
<g id="node21" class="node">
<title>撤629436</title>
<ellipse fill="none" stroke="black" cx="230.55" cy="-571.39" rx="21.39" ry="21.39"/>
<text text-anchor="middle" x="230.55" y="-568.21" font-family="Times,serif" font-size="14.00">撤</text>
</g>
<!-- 制629433&#45;&gt;撤629436 -->
<g id="edge20" class="edge">
<title>制629433&#45;&gt;撤629436</title>
<path fill="none" stroke="black" d="M160.14,-392.06C163.44,-396.89 166.68,-402.17 169.16,-407.39 194.02,-459.59 181.6,-479.59 205.16,-532.39 206.97,-536.46 209.16,-540.61 211.46,-544.6"/>
<polygon fill="black" stroke="black" points="208.29,-546.12 216.5,-552.82 214.25,-542.46 208.29,-546.12"/>
</g>
<!-- 強629438 -->
<g id="node22" class="node">
<title>強629438</title>
<ellipse fill="none" stroke="black" cx="230.55" cy="-502.39" rx="21.39" ry="21.39"/>
<text text-anchor="middle" x="230.55" y="-499.21" font-family="Times,serif" font-size="14.00">強</text>
</g>
<!-- 制629433&#45;&gt;強629438 -->
<g id="edge21" class="edge">
<title>制629433&#45;&gt;強629438</title>
<path fill="none" stroke="black" d="M159.36,-393.02C162.62,-397.72 166.04,-402.7 169.16,-407.39 184.13,-429.87 200.53,-455.75 212.46,-474.82"/>
<polygon fill="black" stroke="black" points="209.36,-476.47 217.62,-483.1 215.3,-472.76 209.36,-476.47"/>
</g>
<!-- 機629440 -->
<g id="node23" class="node">
<title>機629440</title>
<ellipse fill="none" stroke="black" cx="230.55" cy="-403.39" rx="21.39" ry="21.39"/>
<text text-anchor="middle" x="230.55" y="-400.21" font-family="Times,serif" font-size="14.00">機</text>
</g>
<!-- 制629433&#45;&gt;機629440 -->
<g id="edge22" class="edge">
<title>制629433&#45;&gt;機629440</title>
<path fill="none" stroke="black" d="M167.94,-380.86C177.66,-384.42 189.09,-388.6 199.45,-392.38"/>
<polygon fill="black" stroke="black" points="198.12,-395.63 208.72,-395.77 200.53,-389.05 198.12,-395.63"/>
</g>
<!-- 緩629443 -->
<g id="node24" class="node">
<title>緩629443</title>
<ellipse fill="none" stroke="black" cx="230.55" cy="-342.39" rx="21.39" ry="21.39"/>
<text text-anchor="middle" x="230.55" y="-339.21" font-family="Times,serif" font-size="14.00">緩</text>
</g>
<!-- 制629433&#45;&gt;緩629443 -->
<g id="edge23" class="edge">
<title>制629433&#45;&gt;緩629443</title>
<path fill="none" stroke="black" d="M167.94,-364.19C177.59,-360.78 188.92,-356.77 199.22,-353.12"/>
<polygon fill="black" stroke="black" points="200.17,-356.5 208.43,-349.86 197.84,-349.9 200.17,-356.5"/>
</g>
<!-- 監629445 -->
<g id="node25" class="node">
<title>監629445</title>
<ellipse fill="none" stroke="black" cx="230.55" cy="-281.39" rx="21.39" ry="21.39"/>
<text text-anchor="middle" x="230.55" y="-278.21" font-family="Times,serif" font-size="14.00">監</text>
</g>
<!-- 制629433&#45;&gt;監629445 -->
<g id="edge24" class="edge">
<title>制629433&#45;&gt;監629445</title>
<path fill="none" stroke="black" d="M161.93,-353.97C175.03,-339.91 193.19,-320.41 207.4,-305.17"/>
<polygon fill="black" stroke="black" points="209.95,-307.57 214.2,-297.86 204.82,-302.79 209.95,-307.57"/>
</g>
<!-- 改629447 -->
<g id="node26" class="node">
<title>改629447</title>
<ellipse fill="none" stroke="black" cx="230.55" cy="-220.39" rx="21.39" ry="21.39"/>
<text text-anchor="middle" x="230.55" y="-217.21" font-family="Times,serif" font-size="14.00">改</text>
</g>
<!-- 制629433&#45;&gt;改629447 -->
<g id="edge25" class="edge">
<title>制629433&#45;&gt;改629447</title>
<path fill="none" stroke="black" d="M154.58,-349.34C165.56,-324.43 184.55,-283.91 205.16,-251.39 206.47,-249.32 207.89,-247.23 209.36,-245.15"/>
<polygon fill="black" stroke="black" points="211.87,-247.65 215.08,-237.55 206.27,-243.44 211.87,-247.65"/>
</g>
<!-- 解629453 -->
<g id="node27" class="node">
<title>解629453</title>
<ellipse fill="none" stroke="black" cx="230.55" cy="-159.39" rx="21.39" ry="21.39"/>
<text text-anchor="middle" x="230.55" y="-156.21" font-family="Times,serif" font-size="14.00">解</text>
</g>
<!-- 制629433&#45;&gt;解629453 -->
<g id="edge26" class="edge">
<title>制629433&#45;&gt;解629453</title>
<path fill="none" stroke="black" d="M150.14,-347.45C158.55,-311.32 176.85,-243.02 205.16,-190.39 206.32,-188.23 207.63,-186.08 209.03,-183.96"/>
<polygon fill="black" stroke="black" points="211.56,-186.43 214.62,-176.29 205.9,-182.3 211.56,-186.43"/>
</g>
<!-- 値629456 -->
<g id="node41" class="node">
<title>値629456</title>
<ellipse fill="none" stroke="black" cx="230.55" cy="-94.39" rx="21.39" ry="21.39"/>
<ellipse fill="none" stroke="black" cx="230.55" cy="-94.39" rx="25.39" ry="25.39"/>
<text text-anchor="middle" x="230.55" y="-91.21" font-family="Times,serif" font-size="14.00">値</text>
</g>
<!-- 準629455&#45;&gt;値629456 -->
<g id="edge40" class="edge">
<title>準629455&#45;&gt;値629456</title>
<path fill="none" stroke="black" d="M165.29,-94.39C173.72,-94.39 183.74,-94.39 193.33,-94.39"/>
<polygon fill="black" stroke="black" points="193.17,-97.89 203.17,-94.39 193.17,-90.89 193.17,-97.89"/>
</g>
<!-- 化629457 -->
<g id="node42" class="node">
<title>化629457</title>
<ellipse fill="none" stroke="black" cx="230.55" cy="-25.39" rx="21.39" ry="21.39"/>
<ellipse fill="none" stroke="black" cx="230.55" cy="-25.39" rx="25.39" ry="25.39"/>
<text text-anchor="middle" x="230.55" y="-22.21" font-family="Times,serif" font-size="14.00">化</text>
</g>
<!-- 準629455&#45;&gt;化629457 -->
<g id="edge41" class="edge">
<title>準629455&#45;&gt;化629457</title>
<path fill="none" stroke="black" d="M161.12,-81.09C172.53,-71.8 188.06,-59.16 201.44,-48.27"/>
<polygon fill="black" stroke="black" points="203.56,-51.05 209.11,-42.02 199.15,-45.62 203.56,-51.05"/>
</g>
<!-- 守629420 -->
<g id="node12" class="node">
<title>守629420</title>
<ellipse fill="none" stroke="black" cx="317.33" cy="-894.39" rx="21.39" ry="21.39"/>
<text text-anchor="middle" x="317.33" y="-891.21" font-family="Times,serif" font-size="14.00">守</text>
</g>
<!-- を629419&#45;&gt;守629420 -->
<g id="edge11" class="edge">
<title>を629419&#45;&gt;守629420</title>
<path fill="none" stroke="black" d="M250.37,-890.5C260.29,-891.08 272.73,-891.82 284.13,-892.49"/>
<polygon fill="black" stroke="black" points="283.79,-895.98 293.97,-893.07 284.2,-888.99 283.79,-895.98"/>
</g>
<!-- 従629423 -->
<g id="node14" class="node">
<title>従629423</title>
<ellipse fill="none" stroke="black" cx="317.33" cy="-830.39" rx="21.39" ry="21.39"/>
<text text-anchor="middle" x="317.33" y="-827.21" font-family="Times,serif" font-size="14.00">従</text>
</g>
<!-- に629422&#45;&gt;従629423 -->
<g id="edge13" class="edge">
<title>に629422&#45;&gt;従629423</title>
<path fill="none" stroke="black" d="M250.37,-828.83C260.29,-829.07 272.73,-829.36 284.13,-829.63"/>
<polygon fill="black" stroke="black" points="283.89,-833.13 293.97,-829.86 284.06,-826.13 283.89,-833.13"/>
</g>
<!-- お629426 -->
<g id="node16" class="node">
<title>お629426</title>
<ellipse fill="none" stroke="black" cx="317.33" cy="-768.39" rx="19.66" ry="19.66"/>
<text text-anchor="middle" x="317.33" y="-762.59" font-family="Times,serif" font-size="14.00">お</text>
</g>
<!-- ど629425&#45;&gt;お629426 -->
<g id="edge15" class="edge">
<title>ど629425&#45;&gt;お629426</title>
<path fill="none" stroke="black" d="M250.37,-768.39C260.83,-768.39 274.1,-768.39 286,-768.39"/>
<polygon fill="black" stroke="black" points="285.76,-771.89 295.76,-768.39 285.76,-764.89 285.76,-771.89"/>
</g>
<!-- 縛629429 -->
<g id="node18" class="node">
<title>縛629429</title>
<ellipse fill="none" stroke="black" cx="317.33" cy="-709.39" rx="21.39" ry="21.39"/>
<text text-anchor="middle" x="317.33" y="-706.21" font-family="Times,serif" font-size="14.00">縛</text>
</g>
<!-- で629428&#45;&gt;縛629429 -->
<g id="edge17" class="edge">
<title>で629428&#45;&gt;縛629429</title>
<path fill="none" stroke="black" d="M250.37,-710.17C260.29,-710.05 272.73,-709.9 284.13,-709.77"/>
<polygon fill="black" stroke="black" points="284.01,-713.27 293.97,-709.65 283.93,-706.27 284.01,-713.27"/>
</g>
<!-- る629421 -->
<g id="node13" class="node">
<title>る629421</title>
<ellipse fill="none" stroke="black" cx="402.38" cy="-896.39" rx="19.66" ry="19.66"/>
<ellipse fill="none" stroke="black" cx="402.38" cy="-896.39" rx="23.66" ry="23.66"/>
<text text-anchor="middle" x="402.38" y="-890.59" font-family="Times,serif" font-size="14.00">る</text>
</g>
<!-- 守629420&#45;&gt;る629421 -->
<g id="edge12" class="edge">
<title>守629420&#45;&gt;る629421</title>
<path fill="none" stroke="black" d="M338.86,-894.88C347.4,-895.09 357.54,-895.33 367.15,-895.57"/>
<polygon fill="black" stroke="black" points="366.86,-899.06 376.94,-895.8 367.03,-892.06 366.86,-899.06"/>
</g>
<!-- う629424 -->
<g id="node15" class="node">
<title>う629424</title>
<ellipse fill="none" stroke="black" cx="402.38" cy="-831.39" rx="19.66" ry="19.66"/>
<ellipse fill="none" stroke="black" cx="402.38" cy="-831.39" rx="23.66" ry="23.66"/>
<text text-anchor="middle" x="402.38" y="-825.59" font-family="Times,serif" font-size="14.00">う</text>
</g>
<!-- 従629423&#45;&gt;う629424 -->
<g id="edge14" class="edge">
<title>従629423&#45;&gt;う629424</title>
<path fill="none" stroke="black" d="M338.86,-830.64C347.4,-830.74 357.54,-830.86 367.15,-830.98"/>
<polygon fill="black" stroke="black" points="366.9,-834.47 376.94,-831.1 366.98,-827.48 366.9,-834.47"/>
</g>
<!-- り629427 -->
<g id="node17" class="node">
<title>り629427</title>
<ellipse fill="none" stroke="black" cx="402.38" cy="-766.39" rx="19.66" ry="19.66"/>
<ellipse fill="none" stroke="black" cx="402.38" cy="-766.39" rx="23.66" ry="23.66"/>
<text text-anchor="middle" x="402.38" y="-760.59" font-family="Times,serif" font-size="14.00">り</text>
</g>
<!-- お629426&#45;&gt;り629427 -->
<g id="edge16" class="edge">
<title>お629426&#45;&gt;り629427</title>
<path fill="none" stroke="black" d="M337.18,-767.94C346.08,-767.72 356.98,-767.46 367.27,-767.21"/>
<polygon fill="black" stroke="black" points="367.04,-770.72 376.95,-766.98 366.87,-763.72 367.04,-770.72"/>
</g>
<!-- る629430 -->
<g id="node19" class="node">
<title>る629430</title>
<ellipse fill="none" stroke="black" cx="402.38" cy="-701.39" rx="19.66" ry="19.66"/>
<ellipse fill="none" stroke="black" cx="402.38" cy="-701.39" rx="23.66" ry="23.66"/>
<text text-anchor="middle" x="402.38" y="-695.59" font-family="Times,serif" font-size="14.00">る</text>
</g>
<!-- 縛629429&#45;&gt;る629430 -->
<g id="edge18" class="edge">
<title>縛629429&#45;&gt;る629430</title>
<path fill="none" stroke="black" d="M338.86,-707.41C347.4,-706.59 357.54,-705.61 367.15,-704.69"/>
<polygon fill="black" stroke="black" points="367.33,-708.19 376.95,-703.74 366.66,-701.22 367.33,-708.19"/>
</g>
<!-- 物629435 -->
<g id="node28" class="node">
<title>物629435</title>
<ellipse fill="none" stroke="black" cx="317.33" cy="-644.39" rx="21.39" ry="21.39"/>
<ellipse fill="none" stroke="black" cx="317.33" cy="-644.39" rx="25.39" ry="25.39"/>
<text text-anchor="middle" x="317.33" y="-641.21" font-family="Times,serif" font-size="14.00">物</text>
</g>
<!-- 薬629434&#45;&gt;物629435 -->
<g id="edge27" class="edge">
<title>薬629434&#45;&gt;物629435</title>
<path fill="none" stroke="black" d="M252.07,-641.36C260.57,-641.76 270.69,-642.24 280.35,-642.69"/>
<polygon fill="black" stroke="black" points="280.11,-646.18 290.26,-643.16 280.44,-639.19 280.11,-646.18"/>
</g>
<!-- 廃629437 -->
<g id="node29" class="node">
<title>廃629437</title>
<ellipse fill="none" stroke="black" cx="317.33" cy="-575.39" rx="21.39" ry="21.39"/>
<ellipse fill="none" stroke="black" cx="317.33" cy="-575.39" rx="25.39" ry="25.39"/>
<text text-anchor="middle" x="317.33" y="-572.21" font-family="Times,serif" font-size="14.00">廃</text>
</g>
<!-- 撤629436&#45;&gt;廃629437 -->
<g id="edge28" class="edge">
<title>撤629436&#45;&gt;廃629437</title>
<path fill="none" stroke="black" d="M252.07,-572.36C260.57,-572.76 270.69,-573.24 280.35,-573.69"/>
<polygon fill="black" stroke="black" points="280.11,-577.18 290.26,-574.16 280.44,-570.19 280.11,-577.18"/>
</g>
<!-- 化629439 -->
<g id="node30" class="node">
<title>化629439</title>
<ellipse fill="none" stroke="black" cx="317.33" cy="-506.39" rx="21.39" ry="21.39"/>
<ellipse fill="none" stroke="black" cx="317.33" cy="-506.39" rx="25.39" ry="25.39"/>
<text text-anchor="middle" x="317.33" y="-503.21" font-family="Times,serif" font-size="14.00">化</text>
</g>
<!-- 強629438&#45;&gt;化629439 -->
<g id="edge29" class="edge">
<title>強629438&#45;&gt;化629439</title>
<path fill="none" stroke="black" d="M252.07,-503.36C260.57,-503.76 270.69,-504.24 280.35,-504.69"/>
<polygon fill="black" stroke="black" points="280.11,-508.18 290.26,-505.16 280.44,-501.19 280.11,-508.18"/>
</g>
<!-- 能629441 -->
<g id="node31" class="node">
<title>能629441</title>
<ellipse fill="none" stroke="black" cx="317.33" cy="-437.39" rx="21.39" ry="21.39"/>
<ellipse fill="none" stroke="black" cx="317.33" cy="-437.39" rx="25.39" ry="25.39"/>
<text text-anchor="middle" x="317.33" y="-434.21" font-family="Times,serif" font-size="14.00">能</text>
</g>
<!-- 機629440&#45;&gt;能629441 -->
<g id="edge30" class="edge">
<title>機629440&#45;&gt;能629441</title>
<path fill="none" stroke="black" d="M250.79,-411.11C260.24,-414.9 271.91,-419.58 282.77,-423.93"/>
<polygon fill="black" stroke="black" points="281.26,-427.1 291.84,-427.57 283.87,-420.6 281.26,-427.1"/>
</g>
<!-- 関629442 -->
<g id="node32" class="node">
<title>関629442</title>
<ellipse fill="none" stroke="black" cx="317.33" cy="-368.39" rx="21.39" ry="21.39"/>
<ellipse fill="none" stroke="black" cx="317.33" cy="-368.39" rx="25.39" ry="25.39"/>
<text text-anchor="middle" x="317.33" y="-365.21" font-family="Times,serif" font-size="14.00">関</text>
</g>
<!-- 機629440&#45;&gt;関629442 -->
<g id="edge31" class="edge">
<title>機629440&#45;&gt;関629442</title>
<path fill="none" stroke="black" d="M250.79,-395.45C260.31,-391.52 272.09,-386.65 283.02,-382.14"/>
<polygon fill="black" stroke="black" points="284.25,-385.42 292.16,-378.37 281.58,-378.95 284.25,-385.42"/>
</g>
<!-- 和629444 -->
<g id="node33" class="node">
<title>和629444</title>
<ellipse fill="none" stroke="black" cx="317.33" cy="-299.39" rx="21.39" ry="21.39"/>
<ellipse fill="none" stroke="black" cx="317.33" cy="-299.39" rx="25.39" ry="25.39"/>
<text text-anchor="middle" x="317.33" y="-296.21" font-family="Times,serif" font-size="14.00">和</text>
</g>
<!-- 緩629443&#45;&gt;和629444 -->
<g id="edge32" class="edge">
<title>緩629443&#45;&gt;和629444</title>
<path fill="none" stroke="black" d="M249.95,-333.06C259.86,-328.03 272.4,-321.67 283.89,-315.84"/>
<polygon fill="black" stroke="black" points="285.37,-319.02 292.7,-311.37 282.2,-312.78 285.37,-319.02"/>
</g>
<!-- 督629446 -->
<g id="node34" class="node">
<title>督629446</title>
<ellipse fill="none" stroke="black" cx="317.33" cy="-230.39" rx="21.39" ry="21.39"/>
<ellipse fill="none" stroke="black" cx="317.33" cy="-230.39" rx="25.39" ry="25.39"/>
<text text-anchor="middle" x="317.33" y="-227.21" font-family="Times,serif" font-size="14.00">督</text>
</g>
<!-- 監629445&#45;&gt;督629446 -->
<g id="edge33" class="edge">
<title>監629445&#45;&gt;督629446</title>
<path fill="none" stroke="black" d="M249.53,-270.57C259.93,-264.32 273.32,-256.27 285.37,-249.02"/>
<polygon fill="black" stroke="black" points="287.02,-252.11 293.78,-243.95 283.41,-246.11 287.02,-252.11"/>
</g>
<!-- 革629448 -->
<g id="node35" class="node">
<title>革629448</title>
<ellipse fill="none" stroke="black" cx="317.33" cy="-161.39" rx="21.39" ry="21.39"/>
<ellipse fill="none" stroke="black" cx="317.33" cy="-161.39" rx="25.39" ry="25.39"/>
<text text-anchor="middle" x="317.33" y="-158.21" font-family="Times,serif" font-size="14.00">革</text>
</g>
<!-- 改629447&#45;&gt;革629448 -->
<g id="edge34" class="edge">
<title>改629447&#45;&gt;革629448</title>
<path fill="none" stroke="black" d="M248.71,-208.45C259.58,-200.88 273.93,-190.89 286.62,-182.06"/>
<polygon fill="black" stroke="black" points="288.46,-185.05 294.67,-176.46 284.46,-179.3 288.46,-185.05"/>
</g>
<!-- 除629454 -->
<g id="node40" class="node">
<title>除629454</title>
<ellipse fill="none" stroke="black" cx="317.33" cy="-92.39" rx="21.39" ry="21.39"/>
<ellipse fill="none" stroke="black" cx="317.33" cy="-92.39" rx="25.39" ry="25.39"/>
<text text-anchor="middle" x="317.33" y="-89.21" font-family="Times,serif" font-size="14.00">除</text>
</g>
<!-- 解629453&#45;&gt;除629454 -->
<g id="edge39" class="edge">
<title>解629453&#45;&gt;除629454</title>
<path fill="none" stroke="black" d="M247.9,-146.47C259.23,-137.51 274.63,-125.34 287.95,-114.82"/>
<polygon fill="black" stroke="black" points="289.9,-117.74 295.57,-108.79 285.56,-112.25 289.9,-117.74"/>
</g>
<!-- 担629449 -->
<g id="node36" class="node">
<title>担629449</title>
<ellipse fill="none" stroke="black" cx="402.38" cy="-161.39" rx="21.39" ry="21.39"/>
<text text-anchor="middle" x="402.38" y="-158.21" font-family="Times,serif" font-size="14.00">担</text>
</g>
<!-- 革629448&#45;&gt;担629449 -->
<g id="edge35" class="edge">
<title>革629448&#45;&gt;担629449</title>
<path fill="none" stroke="black" d="M342.8,-161.39C351.09,-161.39 360.48,-161.39 369.27,-161.39"/>
<polygon fill="black" stroke="black" points="369.22,-164.89 379.22,-161.39 369.22,-157.89 369.22,-164.89"/>
</g>
<!-- 当629450 -->
<g id="node37" class="node">
<title>当629450</title>
<ellipse fill="none" stroke="black" cx="483.43" cy="-161.39" rx="21.39" ry="21.39"/>
<text text-anchor="middle" x="483.43" y="-158.21" font-family="Times,serif" font-size="14.00">当</text>
</g>
<!-- 担629449&#45;&gt;当629450 -->
<g id="edge36" class="edge">
<title>担629449&#45;&gt;当629450</title>
<path fill="none" stroke="black" d="M424.15,-161.39C432.23,-161.39 441.67,-161.39 450.57,-161.39"/>
<polygon fill="black" stroke="black" points="450.29,-164.89 460.29,-161.39 450.29,-157.89 450.29,-164.89"/>
</g>
<!-- 大629451 -->
<g id="node38" class="node">
<title>大629451</title>
<ellipse fill="none" stroke="black" cx="562.21" cy="-161.39" rx="21.39" ry="21.39"/>
<text text-anchor="middle" x="562.21" y="-158.21" font-family="Times,serif" font-size="14.00">大</text>
</g>
<!-- 当629450&#45;&gt;大629451 -->
<g id="edge37" class="edge">
<title>当629450&#45;&gt;大629451</title>
<path fill="none" stroke="black" d="M505.01,-161.39C512.41,-161.39 520.95,-161.39 529.09,-161.39"/>
<polygon fill="black" stroke="black" points="529.07,-164.89 539.07,-161.39 529.07,-157.89 529.07,-164.89"/>
</g>
<!-- 臣629452 -->
<g id="node39" class="node">
<title>臣629452</title>
<ellipse fill="none" stroke="black" cx="644.99" cy="-161.39" rx="21.39" ry="21.39"/>
<ellipse fill="none" stroke="black" cx="644.99" cy="-161.39" rx="25.39" ry="25.39"/>
<text text-anchor="middle" x="644.99" y="-158.21" font-family="Times,serif" font-size="14.00">臣</text>
</g>
<!-- 大629451&#45;&gt;臣629452 -->
<g id="edge38" class="edge">
<title>大629451&#45;&gt;臣629452</title>
<path fill="none" stroke="black" d="M584.01,-161.39C591.32,-161.39 599.76,-161.39 607.95,-161.39"/>
<polygon fill="black" stroke="black" points="607.72,-164.89 617.72,-161.39 607.72,-157.89 607.72,-164.89"/>
</g>
</g>
</svg>
