<?xml version="1.0" encoding="UTF-8" standalone="no"?>
<!DOCTYPE svg PUBLIC "-//W3C//DTD SVG 1.1//EN"
 "http://www.w3.org/Graphics/SVG/1.1/DTD/svg11.dtd">
<!-- Generated by graphviz version 8.0.1 (20230327.1645)
 -->
<!-- Pages: 1 -->
<svg width="725pt" height="337pt"
 viewBox="0.00 0.00 725.00 337.00" xmlns="http://www.w3.org/2000/svg" xmlns:xlink="http://www.w3.org/1999/xlink">
<g id="graph0" class="graph" transform="scale(1 1) rotate(0) translate(4 333)">
<polygon fill="white" stroke="none" points="-4,4 -4,-333 721,-333 721,4 -4,4"/>
<g id="clust1" class="cluster">
<title>cluster_Render</title>
<polygon fill="none" stroke="black" stroke-dasharray="5,2" points="192,-8 192,-321 709,-321 709,-8 192,-8"/>
<text text-anchor="middle" x="450.5" y="-305.8" font-family="Arial" font-size="14.00">Renderer</text>
</g>
<g id="clust2" class="cluster">
<title>cluster_View</title>
<polygon fill="none" stroke="black" stroke-dasharray="5,2" points="200,-64 200,-197 310,-197 310,-64 200,-64"/>
<text text-anchor="middle" x="255" y="-181.8" font-family="Arial" font-size="14.00">View</text>
</g>
<g id="clust3" class="cluster">
<title>cluster_Control</title>
<polygon fill="none" stroke="black" stroke-dasharray="5,2" points="388,-16 388,-149 498,-149 498,-16 388,-16"/>
<text text-anchor="middle" x="443" y="-133.8" font-family="Arial" font-size="14.00">Control</text>
</g>
<g id="clust4" class="cluster">
<title>cluster_Model</title>
<polygon fill="none" stroke="black" stroke-dasharray="5,2" points="388,-157 388,-290 701,-290 701,-157 388,-157"/>
<text text-anchor="middle" x="544.5" y="-274.8" font-family="Arial" font-size="14.00">Model</text>
</g>
<!-- core -->
<g id="node1" class="node">
<title>core</title>
<ellipse fill="none" stroke="black" cx="47" cy="-119" rx="47" ry="47"/>
<text text-anchor="middle" x="47" y="-122.8" font-family="Arial" font-size="14.00">Core</text>
<text text-anchor="middle" x="47" y="-107.8" font-family="Arial" font-size="14.00">(core.cljs)</text>
</g>
<!-- view -->
<g id="node2" class="node">
<title>view</title>
<ellipse fill="none" stroke="black" cx="255" cy="-119" rx="47" ry="47"/>
<text text-anchor="middle" x="255" y="-122.8" font-family="Arial" font-size="14.00">View</text>
<text text-anchor="middle" x="255" y="-107.8" font-family="Arial" font-size="14.00">(view.cljs)</text>
</g>
<!-- core&#45;&gt;view -->
<g id="edge5" class="edge">
<title>core&#45;&gt;view</title>
<path fill="none" stroke="black" d="M105.13,-119C133.79,-119 168.39,-119 197.03,-119"/>
<polygon fill="black" stroke="black" points="105.49,-115.5 95.49,-119 105.49,-122.5 105.49,-115.5"/>
<polygon fill="black" stroke="black" points="196.68,-122.5 206.68,-119 196.68,-115.5 196.68,-122.5"/>
<text text-anchor="middle" x="148" y="-137.8" font-family="Arial" font-size="14.00">Call Render</text>
<text text-anchor="middle" x="148" y="-122.8" font-family="Arial" font-size="14.00">Process</text>
</g>
<!-- event -->
<g id="node3" class="node">
<title>event</title>
<ellipse fill="none" stroke="black" cx="443" cy="-71" rx="47" ry="47"/>
<text text-anchor="middle" x="443" y="-74.8" font-family="Arial" font-size="14.00">Event</text>
<text text-anchor="middle" x="443" y="-59.8" font-family="Arial" font-size="14.00">(event.cljs)</text>
</g>
<!-- view&#45;&gt;event -->
<g id="edge4" class="edge">
<title>view&#45;&gt;event</title>
<path fill="none" stroke="black" stroke-dasharray="5,2" d="M311.6,-104.65C335.27,-98.54 362.83,-91.43 386.5,-85.32"/>
<polygon fill="black" stroke="black" points="310.83,-101.49 302.03,-107.38 312.58,-108.27 310.83,-101.49"/>
<polygon fill="black" stroke="black" points="387.26,-88.48 396.07,-82.6 385.51,-81.71 387.26,-88.48"/>
<text text-anchor="middle" x="349" y="-120.8" font-family="Arial" font-size="14.00">dispatch</text>
<text text-anchor="middle" x="349" y="-105.8" font-family="Arial" font-size="14.00">event</text>
</g>
<!-- sub -->
<g id="node5" class="node">
<title>sub</title>
<ellipse fill="none" stroke="black" cx="443" cy="-212" rx="47" ry="47"/>
<text text-anchor="middle" x="443" y="-215.8" font-family="Arial" font-size="14.00">Subscribe</text>
<text text-anchor="middle" x="443" y="-200.8" font-family="Arial" font-size="14.00">(sub.cljs)</text>
</g>
<!-- view&#45;&gt;sub -->
<g id="edge3" class="edge">
<title>view&#45;&gt;sub</title>
<path fill="none" stroke="black" stroke-dasharray="5,2" d="M306.96,-144.48C333.03,-157.52 364.69,-173.35 390.8,-186.4"/>
<polygon fill="black" stroke="black" points="308.79,-140.98 298.28,-139.64 305.66,-147.24 308.79,-140.98"/>
<polygon fill="black" stroke="black" points="389.01,-189.92 399.51,-191.26 392.14,-183.65 389.01,-189.92"/>
<text text-anchor="middle" x="349" y="-197.8" font-family="Arial" font-size="14.00">subscribe</text>
<text text-anchor="middle" x="349" y="-182.8" font-family="Arial" font-size="14.00">data</text>
</g>
<!-- db -->
<g id="node4" class="node">
<title>db</title>
<ellipse fill="none" stroke="black" cx="646" cy="-212" rx="47" ry="47"/>
<text text-anchor="middle" x="646" y="-215.8" font-family="Arial" font-size="14.00">Database</text>
<text text-anchor="middle" x="646" y="-200.8" font-family="Arial" font-size="14.00">(db.cljs)</text>
</g>
<!-- event&#45;&gt;db -->
<g id="edge2" class="edge">
<title>event&#45;&gt;db</title>
<path fill="none" stroke="black" stroke-dasharray="5,2" d="M490.51,-103.63C522.84,-126.31 565.78,-156.43 598.18,-179.16"/>
<polygon fill="black" stroke="black" points="493,-100.4 482.81,-97.52 488.98,-106.13 493,-100.4"/>
<polygon fill="black" stroke="black" points="595.83,-182.48 606.02,-185.36 599.85,-176.75 595.83,-182.48"/>
<text text-anchor="middle" x="544.5" y="-184.8" font-family="Arial" font-size="14.00">update</text>
<text text-anchor="middle" x="544.5" y="-169.8" font-family="Arial" font-size="14.00">database</text>
</g>
<!-- sub&#45;&gt;db -->
<g id="edge1" class="edge">
<title>sub&#45;&gt;db</title>
<path fill="none" stroke="black" d="M500.97,-212C528.09,-212 560.44,-212 587.61,-212"/>
<polygon fill="black" stroke="black" points="501.37,-208.5 491.37,-212 501.37,-215.5 501.37,-208.5"/>
<polygon fill="black" stroke="black" points="587.52,-215.5 597.52,-212 587.52,-208.5 587.52,-215.5"/>
<text text-anchor="middle" x="544.5" y="-245.8" font-family="Arial" font-size="14.00">register</text>
<text text-anchor="middle" x="544.5" y="-230.8" font-family="Arial" font-size="14.00">subscribtion</text>
<text text-anchor="middle" x="544.5" y="-215.8" font-family="Arial" font-size="14.00">data</text>
</g>
</g>
</svg>
