<?xml version="1.0" encoding="UTF-8" standalone="no"?>
<!DOCTYPE svg PUBLIC "-//W3C//DTD SVG 1.1//EN"
 "http://www.w3.org/Graphics/SVG/1.1/DTD/svg11.dtd">
<!-- Generated by graphviz version 7.1.0 (20230121.1956)
 -->
<!-- Pages: 1 -->
<svg width="215pt" height="191pt"
 viewBox="0.00 0.00 215.00 191.00" xmlns="http://www.w3.org/2000/svg" xmlns:xlink="http://www.w3.org/1999/xlink">
<g id="graph0" class="graph" transform="scale(1 1) rotate(0) translate(4 187)">
<polygon fill="white" stroke="none" points="-4,4 -4,-187 211,-187 211,4 -4,4"/>
<!-- part -->
<g id="node1" class="node">
<title>part</title>
<polygon fill="none" stroke="black" points="16,-0.5 16,-36.5 191,-36.5 191,-0.5 16,-0.5"/>
<text text-anchor="middle" x="40.5" y="-14.8" font-family="Times,serif" font-size="14.00">Part 1</text>
<polyline fill="none" stroke="black" points="65,-0.5 65,-36.5"/>
<text text-anchor="middle" x="89.5" y="-14.8" font-family="Times,serif" font-size="14.00">Part 2</text>
<polyline fill="none" stroke="black" points="114,-0.5 114,-36.5"/>
<text text-anchor="middle" x="128" y="-14.8" font-family="Times,serif" font-size="14.00">...</text>
<polyline fill="none" stroke="black" points="142,-0.5 142,-36.5"/>
<text text-anchor="middle" x="166.5" y="-14.8" font-family="Times,serif" font-size="14.00">Part n</text>
</g>
<!-- device -->
<g id="node2" class="node">
<title>device</title>
<polygon fill="none" stroke="black" points="0,-73.5 0,-109.5 207,-109.5 207,-73.5 0,-73.5"/>
<text text-anchor="middle" x="32.5" y="-87.8" font-family="Times,serif" font-size="14.00">Device 1</text>
<polyline fill="none" stroke="black" points="65,-73.5 65,-109.5"/>
<text text-anchor="middle" x="97.5" y="-87.8" font-family="Times,serif" font-size="14.00">Device 2</text>
<polyline fill="none" stroke="black" points="130,-73.5 130,-109.5"/>
<text text-anchor="middle" x="144" y="-87.8" font-family="Times,serif" font-size="14.00">...</text>
<polyline fill="none" stroke="black" points="158,-73.5 158,-109.5"/>
<text text-anchor="middle" x="182.5" y="-87.8" font-family="Times,serif" font-size="14.00">Part n</text>
</g>
<!-- part&#45;&gt;device -->
<g id="edge1" class="edge">
<title>part&#45;&gt;device</title>
<path fill="none" stroke="black" d="M103.5,-36.33C103.5,-44.11 103.5,-53.56 103.5,-62.38"/>
<polygon fill="black" stroke="black" points="100,-62.28 103.5,-72.28 107,-62.28 100,-62.28"/>
</g>
<!-- system -->
<g id="node3" class="node">
<title>system</title>
<polygon fill="none" stroke="black" points="75,-146.5 75,-182.5 132,-182.5 132,-146.5 75,-146.5"/>
<text text-anchor="middle" x="103.5" y="-160.8" font-family="Times,serif" font-size="14.00">System</text>
</g>
<!-- device&#45;&gt;system -->
<g id="edge2" class="edge">
<title>device&#45;&gt;system</title>
<path fill="none" stroke="black" d="M103.5,-109.33C103.5,-117.11 103.5,-126.56 103.5,-135.38"/>
<polygon fill="black" stroke="black" points="100,-135.28 103.5,-145.28 107,-135.28 100,-135.28"/>
</g>
</g>
</svg>
