<?xml version="1.0" encoding="UTF-8" standalone="no"?>
<!DOCTYPE svg PUBLIC "-//W3C//DTD SVG 1.1//EN"
 "http://www.w3.org/Graphics/SVG/1.1/DTD/svg11.dtd">
<!-- Generated by graphviz version 7.1.0 (20230121.1956)
 -->
<!-- Pages: 1 -->
<svg width="634pt" height="148pt"
 viewBox="0.00 0.00 634.00 148.00" xmlns="http://www.w3.org/2000/svg" xmlns:xlink="http://www.w3.org/1999/xlink">
<g id="graph0" class="graph" transform="scale(1 1) rotate(0) translate(4 144)">
<polygon fill="white" stroke="none" points="-4,4 -4,-144 630,-144 630,4 -4,4"/>
<g id="clust1" class="cluster">
<title>cluster_A</title>
<polygon fill="none" stroke="black" stroke-dasharray="5,2" points="8,-8 8,-132 342,-132 342,-8 8,-8"/>
</g>
<g id="clust3" class="cluster">
<title>cluster_B</title>
<polygon fill="none" stroke="black" stroke-dasharray="5,2" points="350,-8 350,-132 618,-132 618,-8 350,-8"/>
</g>
<!-- Module 1 -->
<g id="node1" class="node">
<title>Module 1</title>
<polygon fill="none" stroke="black" points="174,-124 104,-124 104,-88 174,-88 174,-124"/>
<text text-anchor="middle" x="139" y="-102.3" font-family="Times,serif" font-size="14.00">Module 1</text>
</g>
<!-- Main Module -->
<g id="node5" class="node">
<title>Main Module</title>
<polygon fill="none" stroke="black" points="229,-52 137,-52 137,-16 229,-16 229,-52"/>
<text text-anchor="middle" x="183" y="-30.3" font-family="Times,serif" font-size="14.00">Main Module</text>
</g>
<!-- Module 1&#45;&gt;Main Module -->
<g id="edge1" class="edge">
<title>Module 1&#45;&gt;Main Module</title>
<path fill="none" stroke="black" d="M149.88,-87.7C154.78,-79.9 160.68,-70.51 166.14,-61.83"/>
<polygon fill="black" stroke="black" points="169.08,-63.71 171.44,-53.39 163.16,-59.99 169.08,-63.71"/>
</g>
<!-- Module 2 -->
<g id="node2" class="node">
<title>Module 2</title>
<polygon fill="none" stroke="black" points="86,-124 16,-124 16,-88 86,-88 86,-124"/>
<text text-anchor="middle" x="51" y="-102.3" font-family="Times,serif" font-size="14.00">Module 2</text>
</g>
<!-- Module 2&#45;&gt;Main Module -->
<g id="edge2" class="edge">
<title>Module 2&#45;&gt;Main Module</title>
<path fill="none" stroke="black" d="M83.97,-87.52C101.03,-78.47 122.05,-67.32 140.34,-57.62"/>
<polygon fill="black" stroke="black" points="141.92,-60.75 149.11,-52.97 138.64,-54.56 141.92,-60.75"/>
</g>
<!-- ... -->
<g id="node3" class="node">
<title>...</title>
<polygon fill="none" stroke="black" points="334,-124 280,-124 280,-88 334,-88 334,-124"/>
<text text-anchor="middle" x="307" y="-102.3" font-family="Times,serif" font-size="14.00">...</text>
</g>
<!-- ...&#45;&gt;Main Module -->
<g id="edge3" class="edge">
<title>...&#45;&gt;Main Module</title>
<path fill="none" stroke="black" d="M279.79,-89.64C263.31,-80.33 241.97,-68.29 223.53,-57.88"/>
<polygon fill="black" stroke="black" points="225.38,-54.91 214.95,-53.04 221.94,-61 225.38,-54.91"/>
</g>
<!-- Module 3 -->
<g id="node4" class="node">
<title>Module 3</title>
<polygon fill="none" stroke="black" points="262,-124 192,-124 192,-88 262,-88 262,-124"/>
<text text-anchor="middle" x="227" y="-102.3" font-family="Times,serif" font-size="14.00">Module 3</text>
</g>
<!-- Module 3&#45;&gt;Main Module -->
<g id="edge4" class="edge">
<title>Module 3&#45;&gt;Main Module</title>
<path fill="none" stroke="black" d="M216.12,-87.7C211.22,-79.9 205.32,-70.51 199.86,-61.83"/>
<polygon fill="black" stroke="black" points="202.84,-59.99 194.56,-53.39 196.92,-63.71 202.84,-59.99"/>
</g>
<!-- Module A -->
<g id="node6" class="node">
<title>Module A</title>
<polygon fill="none" stroke="black" points="520,-124 448,-124 448,-88 520,-88 520,-124"/>
<text text-anchor="middle" x="484" y="-102.3" font-family="Times,serif" font-size="14.00">Module A</text>
</g>
<!-- Main Module A -->
<g id="node9" class="node">
<title>Main Module A</title>
<polygon fill="none" stroke="black" points="474.5,-52 369.5,-52 369.5,-16 474.5,-16 474.5,-52"/>
<text text-anchor="middle" x="422" y="-30.3" font-family="Times,serif" font-size="14.00">Main Module A</text>
</g>
<!-- Module A&#45;&gt;Main Module A -->
<g id="edge5" class="edge">
<title>Module A&#45;&gt;Main Module A</title>
<path fill="none" stroke="black" d="M468.67,-87.7C461.47,-79.56 452.72,-69.69 444.76,-60.7"/>
<polygon fill="black" stroke="black" points="447.4,-58.4 438.15,-53.24 442.16,-63.04 447.4,-58.4"/>
</g>
<!-- Main Module B -->
<g id="node10" class="node">
<title>Main Module B</title>
<polygon fill="none" stroke="black" points="597.5,-52 492.5,-52 492.5,-16 597.5,-16 597.5,-52"/>
<text text-anchor="middle" x="545" y="-30.3" font-family="Times,serif" font-size="14.00">Main Module B</text>
</g>
<!-- Module A&#45;&gt;Main Module B -->
<g id="edge6" class="edge">
<title>Module A&#45;&gt;Main Module B</title>
<path fill="none" stroke="black" d="M499.08,-87.7C506.17,-79.56 514.77,-69.69 522.6,-60.7"/>
<polygon fill="black" stroke="black" points="525.17,-63.08 529.1,-53.25 519.89,-58.49 525.17,-63.08"/>
</g>
<!-- Module B -->
<g id="node7" class="node">
<title>Module B</title>
<polygon fill="none" stroke="black" points="430,-124 358,-124 358,-88 430,-88 430,-124"/>
<text text-anchor="middle" x="394" y="-102.3" font-family="Times,serif" font-size="14.00">Module B</text>
</g>
<!-- Module B&#45;&gt;Main Module A -->
<g id="edge7" class="edge">
<title>Module B&#45;&gt;Main Module A</title>
<path fill="none" stroke="black" d="M400.92,-87.7C403.94,-80.15 407.55,-71.12 410.93,-62.68"/>
<polygon fill="black" stroke="black" points="414.13,-64.09 414.6,-53.51 407.63,-61.49 414.13,-64.09"/>
</g>
<!-- Module B&#45;&gt;Main Module B -->
<g id="edge8" class="edge">
<title>Module B&#45;&gt;Main Module B</title>
<path fill="none" stroke="black" d="M430.17,-88.23C450.19,-78.95 475.33,-67.3 496.98,-57.26"/>
<polygon fill="black" stroke="black" points="498.31,-60.5 505.91,-53.12 495.37,-54.15 498.31,-60.5"/>
</g>
<!-- Module C -->
<g id="node8" class="node">
<title>Module C</title>
<polygon fill="none" stroke="black" points="610,-124 538,-124 538,-88 610,-88 610,-124"/>
<text text-anchor="middle" x="574" y="-102.3" font-family="Times,serif" font-size="14.00">Module C</text>
</g>
<!-- Module C&#45;&gt;Main Module A -->
<g id="edge9" class="edge">
<title>Module C&#45;&gt;Main Module A</title>
<path fill="none" stroke="black" d="M537.59,-88.23C517.44,-78.95 492.13,-67.3 470.34,-57.26"/>
<polygon fill="black" stroke="black" points="471.89,-54.12 461.34,-53.12 468.96,-60.48 471.89,-54.12"/>
</g>
<!-- Module C&#45;&gt;Main Module B -->
<g id="edge10" class="edge">
<title>Module C&#45;&gt;Main Module B</title>
<path fill="none" stroke="black" d="M566.83,-87.7C563.71,-80.15 559.96,-71.12 556.47,-62.68"/>
<polygon fill="black" stroke="black" points="559.73,-61.4 552.67,-53.5 553.26,-64.08 559.73,-61.4"/>
</g>
</g>
</svg>
