<?xml version="1.0" encoding="UTF-8" standalone="no"?>
<!DOCTYPE svg PUBLIC "-//W3C//DTD SVG 1.1//EN"
 "http://www.w3.org/Graphics/SVG/1.1/DTD/svg11.dtd">
<!-- Generated by graphviz version 7.1.0 (20230121.1956)
 -->
<!-- Pages: 1 -->
<svg width="462pt" height="44pt"
 viewBox="0.00 0.00 462.20 44.00" xmlns="http://www.w3.org/2000/svg" xmlns:xlink="http://www.w3.org/1999/xlink">
<g id="graph0" class="graph" transform="scale(1 1) rotate(0) translate(4 40)">
<polygon fill="white" stroke="none" points="-4,4 -4,-40 458.2,-40 458.2,4 -4,4"/>
<!-- in -->
<g id="node1" class="node">
<title>in</title>
<ellipse fill="black" stroke="black" cx="1.8" cy="-18" rx="1.8" ry="1.8"/>
</g>
<!-- Module 1 -->
<g id="node3" class="node">
<title>Module 1</title>
<polygon fill="none" stroke="black" points="109.6,-36 39.6,-36 39.6,0 109.6,0 109.6,-36"/>
<text text-anchor="middle" x="74.6" y="-14.3" font-family="Times,serif" font-size="14.00">Module 1</text>
</g>
<!-- in&#45;&gt;Module 1 -->
<g id="edge1" class="edge">
<title>in&#45;&gt;Module 1</title>
<path fill="none" stroke="black" d="M4.03,-18C7.33,-18 16.91,-18 27.95,-18"/>
<polygon fill="black" stroke="black" points="27.78,-21.5 37.78,-18 27.78,-14.5 27.78,-21.5"/>
</g>
<!-- out -->
<g id="node2" class="node">
<title>out</title>
<ellipse fill="black" stroke="black" cx="452.4" cy="-18" rx="1.8" ry="1.8"/>
</g>
<!-- Module 2 -->
<g id="node4" class="node">
<title>Module 2</title>
<polygon fill="none" stroke="black" points="215.6,-36 145.6,-36 145.6,0 215.6,0 215.6,-36"/>
<text text-anchor="middle" x="180.6" y="-14.3" font-family="Times,serif" font-size="14.00">Module 2</text>
</g>
<!-- Module 1&#45;&gt;Module 2 -->
<g id="edge2" class="edge">
<title>Module 1&#45;&gt;Module 2</title>
<path fill="none" stroke="black" d="M109.94,-18C117.57,-18 125.78,-18 133.79,-18"/>
<polygon fill="black" stroke="black" points="133.78,-21.5 143.78,-18 133.78,-14.5 133.78,-21.5"/>
</g>
<!-- ... -->
<g id="node5" class="node">
<title>...</title>
<polygon fill="none" stroke="black" points="305.6,-36 251.6,-36 251.6,0 305.6,0 305.6,-36"/>
<text text-anchor="middle" x="278.6" y="-14.3" font-family="Times,serif" font-size="14.00">...</text>
</g>
<!-- Module 2&#45;&gt;... -->
<g id="edge3" class="edge">
<title>Module 2&#45;&gt;...</title>
<path fill="none" stroke="black" d="M215.99,-18C223.7,-18 231.93,-18 239.78,-18"/>
<polygon fill="black" stroke="black" points="239.77,-21.5 249.77,-18 239.77,-14.5 239.77,-21.5"/>
</g>
<!-- Module N -->
<g id="node6" class="node">
<title>Module N</title>
<polygon fill="none" stroke="black" points="414.6,-36 341.6,-36 341.6,0 414.6,0 414.6,-36"/>
<text text-anchor="middle" x="378.1" y="-14.3" font-family="Times,serif" font-size="14.00">Module N</text>
</g>
<!-- ...&#45;&gt;Module N -->
<g id="edge4" class="edge">
<title>...&#45;&gt;Module N</title>
<path fill="none" stroke="black" d="M305.98,-18C313.34,-18 321.57,-18 329.75,-18"/>
<polygon fill="black" stroke="black" points="329.66,-21.5 339.66,-18 329.66,-14.5 329.66,-21.5"/>
</g>
<!-- Module N&#45;&gt;out -->
<g id="edge5" class="edge">
<title>Module N&#45;&gt;out</title>
<path fill="none" stroke="black" d="M414.83,-18C423.47,-18 432.15,-18 438.88,-18"/>
<polygon fill="black" stroke="black" points="438.61,-21.5 448.61,-18 438.61,-14.5 438.61,-21.5"/>
</g>
</g>
</svg>
