<?xml version="1.0" encoding="UTF-8" standalone="no"?>
<!DOCTYPE svg PUBLIC "-//W3C//DTD SVG 1.1//EN"
 "http://www.w3.org/Graphics/SVG/1.1/DTD/svg11.dtd">
<!-- Generated by graphviz version 7.1.0 (20230121.1956)
 -->
<!-- Pages: 1 -->
<svg width="346pt" height="116pt"
 viewBox="0.00 0.00 346.20 116.00" xmlns="http://www.w3.org/2000/svg" xmlns:xlink="http://www.w3.org/1999/xlink">
<g id="graph0" class="graph" transform="scale(1 1) rotate(0) translate(4 112)">
<polygon fill="white" stroke="none" points="-4,4 -4,-112 342.2,-112 342.2,4 -4,4"/>
<!-- control -->
<g id="node1" class="node">
<title>control</title>
<text text-anchor="middle" x="285.1" y="-51.3" font-family="Times,serif" font-size="14.00">⨷</text>
</g>
<!-- out -->
<g id="node3" class="node">
<title>out</title>
<ellipse fill="black" stroke="black" cx="336.4" cy="-55" rx="1.8" ry="1.8"/>
</g>
<!-- control&#45;&gt;out -->
<g id="edge4" class="edge">
<title>control&#45;&gt;out</title>
<path fill="none" stroke="black" d="M291.38,-55C298.94,-55 313.08,-55 323.3,-55"/>
<polygon fill="black" stroke="black" points="323.1,-58.5 333.1,-55 323.1,-51.5 323.1,-58.5"/>
<text text-anchor="middle" x="313.1" y="-58.8" font-family="Times,serif" font-size="14.00">z</text>
</g>
<!-- in -->
<g id="node2" class="node">
<title>in</title>
<ellipse fill="black" stroke="black" cx="130.8" cy="-59" rx="1.8" ry="1.8"/>
</g>
<!-- middle -->
<g id="node4" class="node">
<title>middle</title>
<ellipse fill="black" stroke="black" cx="130.8" cy="-20" rx="1.8" ry="1.8"/>
</g>
<!-- in&#45;&gt;middle -->
<g id="edge1" class="edge">
<title>in&#45;&gt;middle</title>
<path fill="none" stroke="black" d="M130.8,-57.08C130.8,-52.82 130.8,-42.25 130.8,-33.48"/>
<polygon fill="black" stroke="black" points="134.3,-33.61 130.8,-23.61 127.3,-33.61 134.3,-33.61"/>
<text text-anchor="middle" x="120.3" y="-35.8" font-family="Times,serif" font-size="14.00">x</text>
</g>
<!-- Channel 1 -->
<g id="node7" class="node">
<title>Channel 1</title>
<polygon fill="none" stroke="black" points="241.6,-47 169.6,-47 169.6,-11 241.6,-11 241.6,-47"/>
<text text-anchor="middle" x="205.6" y="-25.3" font-family="Times,serif" font-size="14.00">Channel 1</text>
</g>
<!-- middle&#45;&gt;Channel 1 -->
<g id="edge8" class="edge">
<title>middle&#45;&gt;Channel 1</title>
<path fill="none" stroke="black" d="M133.06,-20.16C136.5,-20.58 146.52,-21.82 158.01,-23.24"/>
<polygon fill="black" stroke="black" points="157.46,-26.7 167.82,-24.45 158.32,-19.75 157.46,-26.7"/>
</g>
<!-- Feed Forward -->
<g id="node5" class="node">
<title>Feed Forward</title>
<polygon fill="none" stroke="black" points="92,-36 0,-36 0,0 92,0 92,-36"/>
<text text-anchor="middle" x="46" y="-14.3" font-family="Times,serif" font-size="14.00">Feed Forward</text>
</g>
<!-- Feed Forward&#45;&gt;middle -->
<g id="edge7" class="edge">
<title>Feed Forward&#45;&gt;middle</title>
<path fill="none" stroke="black" d="M103.48,-19.36C115.24,-19.65 125.13,-19.89 128.53,-19.97"/>
<polygon fill="black" stroke="black" points="103.87,-15.87 93.79,-19.13 103.7,-22.87 103.87,-15.87"/>
</g>
<!-- Control -->
<g id="node6" class="node">
<title>Control</title>
<polygon fill="none" stroke="black" points="75,-108 17,-108 17,-72 75,-72 75,-108"/>
<text text-anchor="middle" x="46" y="-86.3" font-family="Times,serif" font-size="14.00">Control</text>
</g>
<!-- Control&#45;&gt;Feed Forward -->
<g id="edge5" class="edge">
<title>Control&#45;&gt;Feed Forward</title>
<path fill="none" stroke="black" d="M46,-71.59C46,-64.28 46,-55.69 46,-47.56"/>
<polygon fill="black" stroke="black" points="49.5,-47.68 46,-37.68 42.5,-47.68 49.5,-47.68"/>
<text text-anchor="middle" x="35.5" y="-50.3" font-family="Times,serif" font-size="14.00">y</text>
</g>
<!-- Channel 2 -->
<g id="node8" class="node">
<title>Channel 2</title>
<polygon fill="none" stroke="black" points="241.6,-105 169.6,-105 169.6,-69 241.6,-69 241.6,-105"/>
<text text-anchor="middle" x="205.6" y="-83.3" font-family="Times,serif" font-size="14.00">Channel 2</text>
</g>
<!-- Control&#45;&gt;Channel 2 -->
<g id="edge6" class="edge">
<title>Control&#45;&gt;Channel 2</title>
<path fill="none" stroke="black" d="M75.18,-89.46C98.08,-89.03 130.88,-88.4 157.73,-87.89"/>
<polygon fill="black" stroke="black" points="157.77,-91.39 167.7,-87.7 157.63,-84.39 157.77,-91.39"/>
</g>
<!-- Channel 1&#45;&gt;control -->
<g id="edge2" class="edge">
<title>Channel 1&#45;&gt;control</title>
<path fill="none" stroke="black" d="M241.72,-40.78C250.86,-43.85 260.26,-47 267.88,-49.56"/>
<polygon fill="black" stroke="black" points="266.64,-52.83 277.23,-52.7 268.86,-46.2 266.64,-52.83"/>
</g>
<!-- Channel 2&#45;&gt;control -->
<g id="edge3" class="edge">
<title>Channel 2&#45;&gt;control</title>
<path fill="none" stroke="black" d="M241.72,-72.5C250.97,-68.68 260.49,-64.75 268.16,-61.58"/>
<polygon fill="black" stroke="black" points="269.36,-64.87 277.27,-57.82 266.69,-58.4 269.36,-64.87"/>
</g>
</g>
</svg>
