<?xml version="1.0" encoding="UTF-8" standalone="no"?>
<!DOCTYPE svg PUBLIC "-//W3C//DTD SVG 1.1//EN"
 "http://www.w3.org/Graphics/SVG/1.1/DTD/svg11.dtd">
<!-- Generated by graphviz version 7.1.0 (20230121.1956)
 -->
<!-- Pages: 1 -->
<svg width="593pt" height="137pt"
 viewBox="0.00 0.00 593.20 136.80" xmlns="http://www.w3.org/2000/svg" xmlns:xlink="http://www.w3.org/1999/xlink">
<g id="graph0" class="graph" transform="scale(1 1) rotate(0) translate(4 132.8)">
<polygon fill="white" stroke="none" points="-4,4 -4,-132.8 589.2,-132.8 589.2,4 -4,4"/>
<!-- control -->
<g id="node1" class="node">
<title>control</title>
<text text-anchor="middle" x="113.1" y="-68.3" font-family="Times,serif" font-size="14.00">⨷</text>
</g>
<!-- Control Part -->
<g id="node8" class="node">
<title>Control Part</title>
<polygon fill="none" stroke="black" points="239.6,-90 156.6,-90 156.6,-54 239.6,-54 239.6,-90"/>
<text text-anchor="middle" x="198.1" y="-68.3" font-family="Times,serif" font-size="14.00">Control Part</text>
</g>
<!-- control&#45;&gt;Control Part -->
<g id="edge2" class="edge">
<title>control&#45;&gt;Control Part</title>
<path fill="none" stroke="black" d="M119.55,-72C125.16,-72 134.53,-72 144.86,-72"/>
<polygon fill="black" stroke="black" points="144.79,-75.5 154.79,-72 144.79,-68.5 144.79,-75.5"/>
</g>
<!-- in -->
<g id="node2" class="node">
<title>in</title>
<ellipse fill="black" stroke="black" cx="1.8" cy="-72" rx="1.8" ry="1.8"/>
</g>
<!-- in&#45;&gt;control -->
<g id="edge1" class="edge">
<title>in&#45;&gt;control</title>
<path fill="none" stroke="black" d="M4.03,-72C12.86,-72 67.11,-72 95.23,-72"/>
<polygon fill="black" stroke="black" points="95.11,-75.5 105.11,-72 95.11,-68.5 95.11,-75.5"/>
<text text-anchor="middle" x="55.1" y="-75.8" font-family="Times,serif" font-size="14.00">Input Signal</text>
</g>
<!-- out -->
<g id="node3" class="node">
<title>out</title>
<ellipse fill="black" stroke="black" cx="583.4" cy="-72" rx="1.8" ry="1.8"/>
</g>
<!-- env -->
<g id="node4" class="node">
<title>env</title>
<ellipse fill="black" stroke="black" cx="442.6" cy="-127" rx="1.8" ry="1.8"/>
</g>
<!-- Object -->
<g id="node5" class="node">
<title>Object</title>
<polygon fill="none" stroke="black" points="469.6,-90 415.6,-90 415.6,-54 469.6,-54 469.6,-90"/>
<text text-anchor="middle" x="442.6" y="-68.3" font-family="Times,serif" font-size="14.00">Object</text>
</g>
<!-- env&#45;&gt;Object -->
<g id="edge6" class="edge">
<title>env&#45;&gt;Object</title>
<path fill="none" stroke="black" d="M442.6,-124.99C442.6,-120.98 442.6,-111.53 442.6,-101.71"/>
<polygon fill="black" stroke="black" points="446.1,-101.83 442.6,-91.83 439.1,-101.83 446.1,-101.83"/>
<text text-anchor="middle" x="432.1" y="-103.9" font-family="Times,serif" font-size="14.00">noise</text>
</g>
<!-- Object&#45;&gt;out -->
<g id="edge5" class="edge">
<title>Object&#45;&gt;out</title>
<path fill="none" stroke="black" d="M470.03,-72C499.91,-72 547.29,-72 569.77,-72"/>
<polygon fill="black" stroke="black" points="569.62,-75.5 579.62,-72 569.62,-68.5 569.62,-75.5"/>
<text text-anchor="middle" x="525.6" y="-75.8" font-family="Times,serif" font-size="14.00">Output Signal</text>
</g>
<!-- Feedback Part -->
<g id="node7" class="node">
<title>Feedback Part</title>
<polygon fill="none" stroke="black" points="374.6,-36 280.6,-36 280.6,0 374.6,0 374.6,-36"/>
<text text-anchor="middle" x="327.6" y="-14.3" font-family="Times,serif" font-size="14.00">Feedback Part</text>
</g>
<!-- Object&#45;&gt;Feedback Part -->
<g id="edge7" class="edge">
<title>Object&#45;&gt;Feedback Part</title>
<path fill="none" stroke="black" d="M415.29,-59.43C404,-54.03 390.44,-47.55 377.43,-41.34"/>
<polygon fill="black" stroke="black" points="379.07,-38.24 368.54,-37.09 376.05,-44.56 379.07,-38.24"/>
</g>
<!-- Implement Part -->
<g id="node6" class="node">
<title>Implement Part</title>
<polygon fill="none" stroke="black" points="378.6,-90 276.6,-90 276.6,-54 378.6,-54 378.6,-90"/>
<text text-anchor="middle" x="327.6" y="-68.3" font-family="Times,serif" font-size="14.00">Implement Part</text>
</g>
<!-- Implement Part&#45;&gt;Object -->
<g id="edge4" class="edge">
<title>Implement Part&#45;&gt;Object</title>
<path fill="none" stroke="black" d="M378.82,-72C387.3,-72 395.96,-72 404.04,-72"/>
<polygon fill="black" stroke="black" points="403.86,-75.5 413.86,-72 403.86,-68.5 403.86,-75.5"/>
</g>
<!-- Feedback Part&#45;&gt;control -->
<g id="edge8" class="edge">
<title>Feedback Part&#45;&gt;control</title>
<path fill="none" stroke="black" d="M280.11,-12.81C244.69,-10.82 195.55,-12.37 156.6,-30 144.25,-35.59 133.43,-46.42 125.8,-55.69"/>
<polygon fill="black" stroke="black" points="123.05,-53.52 119.76,-63.6 128.61,-57.77 123.05,-53.52"/>
<text text-anchor="middle" x="198.1" y="-33.8" font-family="Times,serif" font-size="14.00">±</text>
</g>
<!-- Control Part&#45;&gt;Implement Part -->
<g id="edge3" class="edge">
<title>Control Part&#45;&gt;Implement Part</title>
<path fill="none" stroke="black" d="M239.79,-72C247.9,-72 256.58,-72 265.21,-72"/>
<polygon fill="black" stroke="black" points="264.95,-75.5 274.95,-72 264.95,-68.5 264.95,-75.5"/>
</g>
</g>
</svg>
