<?xml version="1.0" encoding="UTF-8" standalone="no"?>
<!DOCTYPE svg PUBLIC "-//W3C//DTD SVG 1.1//EN"
 "http://www.w3.org/Graphics/SVG/1.1/DTD/svg11.dtd">
<!-- Generated by graphviz version 8.0.5 (20230430.1635)
 -->
<!-- Pages: 1 -->
<svg width="162pt" height="158pt"
 viewBox="0.00 0.00 162.08 158.00" xmlns="http://www.w3.org/2000/svg" xmlns:xlink="http://www.w3.org/1999/xlink">
<g id="graph0" class="graph" transform="scale(1 1) rotate(0) translate(4 154)">
<polygon fill="white" stroke="none" points="-4,4 -4,-154 158.08,-154 158.08,4 -4,4"/>
<!-- 0 -->
<g id="node1" class="node">
<title>0</title>
<ellipse fill="none" stroke="black" cx="17.66" cy="-75.65" rx="18" ry="18"/>
<text text-anchor="middle" x="17.66" y="-70.6" font-family="Times,serif" font-size="14.00">0</text>
</g>
<!-- 1 -->
<g id="node2" class="node">
<title>1</title>
<ellipse fill="none" stroke="black" cx="118.08" cy="-65.37" rx="18" ry="18"/>
<text text-anchor="middle" x="118.08" y="-60.32" font-family="Times,serif" font-size="14.00">1</text>
</g>
<!-- 0&#45;&#45;1 -->
<g id="edge1" class="edge">
<title>0&#45;&#45;1</title>
<path fill="none" stroke="black" d="M35.61,-73.81C53.78,-71.95 81.71,-69.09 99.95,-67.23"/>
</g>
<!-- 2 -->
<g id="node3" class="node">
<title>2</title>
<ellipse fill="none" stroke="black" cx="61.71" cy="-17.77" rx="18" ry="18"/>
<text text-anchor="middle" x="61.71" y="-12.72" font-family="Times,serif" font-size="14.00">2</text>
</g>
<!-- 0&#45;&#45;2 -->
<g id="edge2" class="edge">
<title>0&#45;&#45;2</title>
<path fill="none" stroke="black" d="M28.77,-61.04C35.5,-52.2 44.05,-40.97 50.75,-32.17"/>
</g>
<!-- 3 -->
<g id="node4" class="node">
<title>3</title>
<ellipse fill="none" stroke="black" cx="78.2" cy="-131.63" rx="18" ry="18"/>
<text text-anchor="middle" x="78.2" y="-126.58" font-family="Times,serif" font-size="14.00">3</text>
</g>
<!-- 0&#45;&#45;3 -->
<g id="edge3" class="edge">
<title>0&#45;&#45;3</title>
<path fill="none" stroke="black" d="M31.09,-88.07C41.13,-97.35 54.77,-109.97 64.8,-119.24"/>
</g>
<!-- 4 -->
<g id="node5" class="node">
<title>4</title>
<ellipse fill="none" stroke="black" cx="66.94" cy="-86.18" rx="18" ry="18"/>
<text text-anchor="middle" x="66.94" y="-81.13" font-family="Times,serif" font-size="14.00">4</text>
</g>
<!-- 0&#45;&#45;4 -->
<g id="edge4" class="edge">
<title>0&#45;&#45;4</title>
<path fill="none" stroke="black" d="M35.73,-79.51C40.01,-80.43 44.58,-81.4 48.87,-82.32"/>
</g>
<!-- 1&#45;&#45;1 -->
<g id="edge5" class="edge">
<title>1&#45;&#45;1</title>
<path fill="none" stroke="black" d="M135.12,-71.75C144.94,-73.05 154.08,-70.93 154.08,-65.37 154.08,-59.82 144.94,-57.69 135.12,-58.99"/>
</g>
<!-- 1&#45;&#45;2 -->
<g id="edge6" class="edge">
<title>1&#45;&#45;2</title>
<path fill="none" stroke="black" d="M104.15,-53.61C95.41,-46.23 84.2,-36.75 75.49,-29.4"/>
</g>
<!-- 1&#45;&#45;3 -->
<g id="edge7" class="edge">
<title>1&#45;&#45;3</title>
<path fill="none" stroke="black" d="M108.63,-81.08C102.27,-91.64 93.93,-105.5 87.58,-116.04"/>
</g>
<!-- 2&#45;&#45;2 -->
<g id="edge8" class="edge">
<title>2&#45;&#45;2</title>
<path fill="none" stroke="black" d="M78.75,-24.15C88.57,-25.45 97.71,-23.32 97.71,-17.77 97.71,-12.21 88.57,-10.09 78.75,-11.39"/>
</g>
<!-- 2&#45;&#45;4 -->
<g id="edge9" class="edge">
<title>2&#45;&#45;4</title>
<path fill="none" stroke="black" d="M63.11,-36.1C63.86,-45.92 64.78,-57.97 65.53,-67.8"/>
</g>
<!-- 3&#45;&#45;3 -->
<g id="edge10" class="edge">
<title>3&#45;&#45;3</title>
<path fill="none" stroke="black" d="M95.23,-138.01C105.05,-139.31 114.2,-137.19 114.2,-131.63 114.2,-126.08 105.05,-123.95 95.23,-125.25"/>
</g>
<!-- 3&#45;&#45;4 -->
<g id="edge11" class="edge">
<title>3&#45;&#45;4</title>
<path fill="none" stroke="black" d="M73.81,-113.93C73,-110.64 72.14,-107.2 71.33,-103.91"/>
</g>
<!-- 4&#45;&#45;4 -->
<g id="edge12" class="edge">
<title>4&#45;&#45;4</title>
<path fill="none" stroke="black" d="M83.97,-92.56C93.79,-93.86 102.94,-91.74 102.94,-86.18 102.94,-80.63 93.79,-78.5 83.97,-79.8"/>
</g>
</g>
</svg>
