<?xml version="1.0" encoding="UTF-8" standalone="no"?>
<!DOCTYPE svg PUBLIC "-//W3C//DTD SVG 1.1//EN"
 "http://www.w3.org/Graphics/SVG/1.1/DTD/svg11.dtd">
<!-- Generated by graphviz version 8.0.5 (20230430.1635)
 -->
<!-- Pages: 1 -->
<svg width="113pt" height="115pt"
 viewBox="0.00 0.00 113.33 115.00" xmlns="http://www.w3.org/2000/svg" xmlns:xlink="http://www.w3.org/1999/xlink">
<g id="graph0" class="graph" transform="scale(1 1) rotate(0) translate(4 111)">
<polygon fill="white" stroke="none" points="-4,4 -4,-111 109.33,-111 109.33,4 -4,4"/>
<!-- 0 -->
<g id="node1" class="node">
<title>0</title>
<ellipse fill="none" stroke="black" cx="22.19" cy="-63.72" rx="18" ry="18"/>
<text text-anchor="middle" x="22.19" y="-58.67" font-family="Times,serif" font-size="14.00">0</text>
</g>
<!-- 1 -->
<g id="node2" class="node">
<title>1</title>
<ellipse fill="none" stroke="black" cx="69.33" cy="-88.76" rx="18" ry="18"/>
<text text-anchor="middle" x="69.33" y="-83.71" font-family="Times,serif" font-size="14.00">1</text>
</g>
<!-- 0&#45;&#45;1 -->
<g id="edge1" class="edge">
<title>0&#45;&#45;1</title>
<path fill="none" stroke="black" d="M38.41,-72.34C43.21,-74.88 48.45,-77.67 53.24,-80.21"/>
</g>
<!-- 2 -->
<g id="node3" class="node">
<title>2</title>
<ellipse fill="none" stroke="black" cx="18.3" cy="-18.1" rx="18" ry="18"/>
<text text-anchor="middle" x="18.3" y="-13.05" font-family="Times,serif" font-size="14.00">2</text>
</g>
<!-- 0&#45;&#45;2 -->
<g id="edge2" class="edge">
<title>0&#45;&#45;2</title>
<path fill="none" stroke="black" d="M20.63,-45.43C20.37,-42.45 20.11,-39.37 19.86,-36.4"/>
</g>
<!-- 1&#45;&#45;1 -->
<g id="edge3" class="edge">
<title>1&#45;&#45;1</title>
<path fill="none" stroke="black" d="M86.37,-95.14C96.19,-96.44 105.33,-94.32 105.33,-88.76 105.33,-83.21 96.19,-81.08 86.37,-82.38"/>
</g>
<!-- 2&#45;&#45;2 -->
<g id="edge4" class="edge">
<title>2&#45;&#45;2</title>
<path fill="none" stroke="black" d="M35.33,-24.48C45.15,-25.78 54.3,-23.65 54.3,-18.1 54.3,-12.54 45.15,-10.42 35.33,-11.72"/>
</g>
</g>
</svg>
