<?xml version="1.0" encoding="UTF-8" standalone="no"?>
<!DOCTYPE svg PUBLIC "-//W3C//DTD SVG 1.1//EN"
 "http://www.w3.org/Graphics/SVG/1.1/DTD/svg11.dtd">
<!-- Generated by graphviz version 8.0.5 (20230430.1635)
 -->
<!-- Pages: 1 -->
<svg width="153pt" height="134pt"
 viewBox="0.00 0.00 153.04 134.00" xmlns="http://www.w3.org/2000/svg" xmlns:xlink="http://www.w3.org/1999/xlink">
<g id="graph0" class="graph" transform="scale(1 1) rotate(0) translate(4 130)">
<polygon fill="white" stroke="none" points="-4,4 -4,-130 149.04,-130 149.04,4 -4,4"/>
<!-- 0 -->
<g id="node1" class="node">
<title>0</title>
<ellipse fill="none" stroke="black" cx="17.76" cy="-54.58" rx="18" ry="18"/>
<text text-anchor="middle" x="17.76" y="-49.53" font-family="Times,serif" font-size="14.00">0</text>
</g>
<!-- 1 -->
<g id="node2" class="node">
<title>1</title>
<ellipse fill="none" stroke="black" cx="109.04" cy="-59.68" rx="18" ry="18"/>
<text text-anchor="middle" x="109.04" y="-54.63" font-family="Times,serif" font-size="14.00">1</text>
</g>
<!-- 0&#45;&#45;1 -->
<g id="edge1" class="edge">
<title>0&#45;&#45;1</title>
<path fill="none" stroke="black" d="M35.79,-55.58C51.69,-56.47 74.75,-57.76 90.73,-58.66"/>
</g>
<!-- 2 -->
<g id="node3" class="node">
<title>2</title>
<ellipse fill="none" stroke="black" cx="63.42" cy="-18.04" rx="18" ry="18"/>
<text text-anchor="middle" x="63.42" y="-12.99" font-family="Times,serif" font-size="14.00">2</text>
</g>
<!-- 0&#45;&#45;2 -->
<g id="edge2" class="edge">
<title>0&#45;&#45;2</title>
<path fill="none" stroke="black" d="M31.71,-43.42C37.27,-38.97 43.66,-33.85 49.24,-29.39"/>
</g>
<!-- 3 -->
<g id="node4" class="node">
<title>3</title>
<ellipse fill="none" stroke="black" cx="45.88" cy="-107.82" rx="18" ry="18"/>
<text text-anchor="middle" x="45.88" y="-102.77" font-family="Times,serif" font-size="14.00">3</text>
</g>
<!-- 0&#45;&#45;3 -->
<g id="edge3" class="edge">
<title>0&#45;&#45;3</title>
<path fill="none" stroke="black" d="M26.35,-70.84C29.83,-77.45 33.86,-85.06 37.34,-91.66"/>
</g>
<!-- 1&#45;&#45;1 -->
<g id="edge4" class="edge">
<title>1&#45;&#45;1</title>
<path fill="none" stroke="black" d="M126.08,-66.06C135.9,-67.36 145.04,-65.24 145.04,-59.68 145.04,-54.13 135.9,-52 126.08,-53.3"/>
</g>
<!-- 1&#45;&#45;2 -->
<g id="edge5" class="edge">
<title>1&#45;&#45;2</title>
<path fill="none" stroke="black" d="M95.6,-47.42C89.71,-42.04 82.82,-35.75 76.93,-30.37"/>
</g>
<!-- 2&#45;&#45;3 -->
<g id="edge6" class="edge">
<title>2&#45;&#45;3</title>
<path fill="none" stroke="black" d="M59.96,-35.78C56.9,-51.42 52.47,-74.1 49.4,-89.81"/>
</g>
<!-- 3&#45;&#45;3 -->
<g id="edge7" class="edge">
<title>3&#45;&#45;3</title>
<path fill="none" stroke="black" d="M62.91,-114.2C72.73,-115.5 81.88,-113.38 81.88,-107.82 81.88,-102.27 72.73,-100.14 62.91,-101.44"/>
</g>
</g>
</svg>
