<?xml version="1.0" encoding="UTF-8" standalone="no"?>
<!DOCTYPE svg PUBLIC "-//W3C//DTD SVG 1.1//EN"
 "http://www.w3.org/Graphics/SVG/1.1/DTD/svg11.dtd">
<!-- Generated by graphviz version 8.0.5 (20230430.1635)
 -->
<!-- Pages: 1 -->
<svg width="184pt" height="184pt"
 viewBox="0.00 0.00 184.00 184.00" xmlns="http://www.w3.org/2000/svg" xmlns:xlink="http://www.w3.org/1999/xlink">
<g id="graph0" class="graph" transform="scale(1 1) rotate(0) translate(4 180)">
<polygon fill="white" stroke="none" points="-4,4 -4,-180 180,-180 180,4 -4,4"/>
<!-- 6 -->
<g id="node1" class="node">
<title>6</title>
<ellipse fill="none" stroke="black" cx="18.22" cy="-81.82" rx="18" ry="18"/>
<text text-anchor="middle" x="18.22" y="-76.77" font-family="Times,serif" font-size="14.00">6</text>
</g>
<!-- 7 -->
<g id="node2" class="node">
<title>7</title>
<ellipse fill="none" stroke="black" cx="132.63" cy="-142.12" rx="18" ry="18"/>
<text text-anchor="middle" x="132.63" y="-137.07" font-family="Times,serif" font-size="14.00">7</text>
</g>
<!-- 6&#45;&#45;7 -->
<g id="edge1" class="edge">
<title>6&#45;&#45;7</title>
<path fill="none" stroke="black" d="M34.13,-90.21C55.87,-101.66 94.63,-122.09 116.49,-133.61"/>
</g>
<!-- 5 -->
<g id="node3" class="node">
<title>5</title>
<ellipse fill="none" stroke="black" cx="94.3" cy="-18.28" rx="18" ry="18"/>
<text text-anchor="middle" x="94.3" y="-13.23" font-family="Times,serif" font-size="14.00">5</text>
</g>
<!-- 5&#45;&#45;6 -->
<g id="edge3" class="edge">
<title>5&#45;&#45;6</title>
<path fill="none" stroke="black" d="M80.35,-29.94C66.71,-41.33 46.05,-58.59 32.35,-70.03"/>
</g>
<!-- 5&#45;&#45;7 -->
<g id="edge2" class="edge">
<title>5&#45;&#45;7</title>
<path fill="none" stroke="black" d="M99.71,-35.76C107.02,-59.36 119.96,-101.17 127.25,-124.73"/>
</g>
<!-- 4 -->
<g id="node4" class="node">
<title>4</title>
<ellipse fill="none" stroke="black" cx="34.01" cy="-132.68" rx="18" ry="18"/>
<text text-anchor="middle" x="34.01" y="-127.63" font-family="Times,serif" font-size="14.00">4</text>
</g>
<!-- 4&#45;&#45;6 -->
<g id="edge5" class="edge">
<title>4&#45;&#45;6</title>
<path fill="none" stroke="black" d="M28.58,-115.18C26.97,-110.01 25.22,-104.35 23.61,-99.19"/>
</g>
<!-- 4&#45;&#45;7 -->
<g id="edge4" class="edge">
<title>4&#45;&#45;7</title>
<path fill="none" stroke="black" d="M52.1,-134.41C69.78,-136.1 96.56,-138.67 114.32,-140.36"/>
</g>
<!-- 4&#45;&#45;5 -->
<g id="edge6" class="edge">
<title>4&#45;&#45;5</title>
<path fill="none" stroke="black" d="M42.39,-116.77C53.85,-95.04 74.28,-56.28 85.79,-34.42"/>
</g>
<!-- 3 -->
<g id="node5" class="node">
<title>3</title>
<ellipse fill="none" stroke="black" cx="142.06" cy="-43.49" rx="18" ry="18"/>
<text text-anchor="middle" x="142.06" y="-38.44" font-family="Times,serif" font-size="14.00">3</text>
</g>
<!-- 3&#45;&#45;6 -->
<g id="edge8" class="edge">
<title>3&#45;&#45;6</title>
<path fill="none" stroke="black" d="M124.58,-48.9C100.98,-56.21 59.17,-69.15 35.62,-76.44"/>
</g>
<!-- 3&#45;&#45;7 -->
<g id="edge7" class="edge">
<title>3&#45;&#45;7</title>
<path fill="none" stroke="black" d="M140.33,-61.58C138.64,-79.27 136.08,-106.05 134.38,-123.81"/>
</g>
<!-- 3&#45;&#45;5 -->
<g id="edge9" class="edge">
<title>3&#45;&#45;5</title>
<path fill="none" stroke="black" d="M125.89,-34.96C120.91,-32.33 115.43,-29.44 110.45,-26.81"/>
</g>
<!-- 3&#45;&#45;4 -->
<g id="edge10" class="edge">
<title>3&#45;&#45;4</title>
<path fill="none" stroke="black" d="M127.93,-55.15C107.22,-72.25 68.85,-103.92 48.14,-121.02"/>
</g>
<!-- 2 -->
<g id="node6" class="node">
<title>2</title>
<ellipse fill="none" stroke="black" cx="81.76" cy="-157.89" rx="18" ry="18"/>
<text text-anchor="middle" x="81.76" y="-152.84" font-family="Times,serif" font-size="14.00">2</text>
</g>
<!-- 2&#45;&#45;6 -->
<g id="edge12" class="edge">
<title>2&#45;&#45;6</title>
<path fill="none" stroke="black" d="M70.11,-143.94C58.72,-130.3 41.46,-109.64 30.02,-95.95"/>
</g>
<!-- 2&#45;&#45;7 -->
<g id="edge11" class="edge">
<title>2&#45;&#45;7</title>
<path fill="none" stroke="black" d="M99.27,-152.46C104.44,-150.86 110.1,-149.1 115.27,-147.5"/>
</g>
<!-- 2&#45;&#45;5 -->
<g id="edge13" class="edge">
<title>2&#45;&#45;5</title>
<path fill="none" stroke="black" d="M83.4,-139.64C85.81,-112.88 90.26,-63.3 92.66,-36.54"/>
</g>
<!-- 2&#45;&#45;4 -->
<g id="edge14" class="edge">
<title>2&#45;&#45;4</title>
<path fill="none" stroke="black" d="M65.6,-149.36C60.62,-146.73 55.14,-143.83 50.16,-141.21"/>
</g>
<!-- 2&#45;&#45;3 -->
<g id="edge15" class="edge">
<title>2&#45;&#45;3</title>
<path fill="none" stroke="black" d="M90.15,-141.99C101.6,-120.25 122.03,-81.49 133.55,-59.63"/>
</g>
<!-- 1 -->
<g id="node7" class="node">
<title>1</title>
<ellipse fill="none" stroke="black" cx="43.44" cy="-34.06" rx="18" ry="18"/>
<text text-anchor="middle" x="43.44" y="-29.01" font-family="Times,serif" font-size="14.00">1</text>
</g>
<!-- 1&#45;&#45;6 -->
<g id="edge17" class="edge">
<title>1&#45;&#45;6</title>
<path fill="none" stroke="black" d="M34.9,-50.23C32.27,-55.21 29.38,-60.69 26.75,-65.67"/>
</g>
<!-- 1&#45;&#45;7 -->
<g id="edge16" class="edge">
<title>1&#45;&#45;7</title>
<path fill="none" stroke="black" d="M55.1,-48.18C72.19,-68.89 103.87,-107.27 120.97,-127.99"/>
</g>
<!-- 1&#45;&#45;5 -->
<g id="edge18" class="edge">
<title>1&#45;&#45;5</title>
<path fill="none" stroke="black" d="M60.94,-28.63C66.11,-27.02 71.77,-25.27 76.94,-23.67"/>
</g>
<!-- 1&#45;&#45;4 -->
<g id="edge19" class="edge">
<title>1&#45;&#45;4</title>
<path fill="none" stroke="black" d="M41.71,-52.15C40.02,-69.83 37.46,-96.61 35.76,-114.37"/>
</g>
<!-- 1&#45;&#45;3 -->
<g id="edge20" class="edge">
<title>1&#45;&#45;3</title>
<path fill="none" stroke="black" d="M61.52,-35.79C79.21,-37.48 105.99,-40.04 123.75,-41.74"/>
</g>
<!-- 1&#45;&#45;2 -->
<g id="edge21" class="edge">
<title>1&#45;&#45;2</title>
<path fill="none" stroke="black" d="M48.85,-51.54C56.15,-75.14 69.09,-116.95 76.38,-140.5"/>
</g>
<!-- 0 -->
<g id="node8" class="node">
<title>0</title>
<ellipse fill="none" stroke="black" cx="157.84" cy="-94.35" rx="18" ry="18"/>
<text text-anchor="middle" x="157.84" y="-89.3" font-family="Times,serif" font-size="14.00">0</text>
</g>
<!-- 0&#45;&#45;6 -->
<g id="edge23" class="edge">
<title>0&#45;&#45;6</title>
<path fill="none" stroke="black" d="M139.59,-92.71C112.83,-90.31 63.24,-85.86 36.48,-83.46"/>
</g>
<!-- 0&#45;&#45;7 -->
<g id="edge22" class="edge">
<title>0&#45;&#45;7</title>
<path fill="none" stroke="black" d="M149.31,-110.52C146.68,-115.5 143.78,-120.98 141.16,-125.96"/>
</g>
<!-- 0&#45;&#45;5 -->
<g id="edge24" class="edge">
<title>0&#45;&#45;5</title>
<path fill="none" stroke="black" d="M146.19,-80.4C134.79,-66.76 117.54,-46.1 106.1,-32.4"/>
</g>
<!-- 0&#45;&#45;4 -->
<g id="edge25" class="edge">
<title>0&#45;&#45;4</title>
<path fill="none" stroke="black" d="M140.36,-99.76C116.76,-107.07 74.95,-120.01 51.4,-127.3"/>
</g>
<!-- 0&#45;&#45;3 -->
<g id="edge26" class="edge">
<title>0&#45;&#45;3</title>
<path fill="none" stroke="black" d="M152.41,-76.85C150.8,-71.68 149.05,-66.02 147.44,-60.86"/>
</g>
<!-- 0&#45;&#45;2 -->
<g id="edge27" class="edge">
<title>0&#45;&#45;2</title>
<path fill="none" stroke="black" d="M143.89,-106C130.25,-117.4 109.59,-134.65 95.89,-146.1"/>
</g>
<!-- 0&#45;&#45;1 -->
<g id="edge28" class="edge">
<title>0&#45;&#45;1</title>
<path fill="none" stroke="black" d="M141.93,-85.97C120.2,-74.51 81.43,-54.08 59.58,-42.56"/>
</g>
</g>
</svg>
