<?xml version="1.0" encoding="UTF-8" standalone="no"?>
<!DOCTYPE svg PUBLIC "-//W3C//DTD SVG 1.1//EN"
 "http://www.w3.org/Graphics/SVG/1.1/DTD/svg11.dtd">
<!-- Generated by graphviz version 7.0.5 (20221223.1930)
 -->
<!-- Title: networks Pages: 1 -->
<svg width="1105pt" height="1079pt"
 viewBox="0.00 0.00 1104.78 1079.18" xmlns="http://www.w3.org/2000/svg" xmlns:xlink="http://www.w3.org/1999/xlink">
<g id="graph0" class="graph" transform="scale(1 1) rotate(0) translate(4 1075.18)">
<title>networks</title>
<polygon fill="white" stroke="none" points="-4,4 -4,-1075.18 1100.78,-1075.18 1100.78,4 -4,4"/>
<!-- a -->
<g id="node1" class="node">
<title>a</title>
<ellipse fill="none" stroke="black" cx="252.21" cy="-964.69" rx="27" ry="18"/>
<text text-anchor="middle" x="252.21" y="-960.99" font-family="Times,serif" font-size="14.00">a</text>
</g>
<!-- t -->
<g id="node2" class="node">
<title>t</title>
<ellipse fill="none" stroke="black" cx="1054.63" cy="-660.37" rx="27" ry="18"/>
<text text-anchor="middle" x="1054.63" y="-656.67" font-family="Times,serif" font-size="14.00">t</text>
</g>
<!-- a&#45;&gt;t -->
<g id="edge1" class="edge">
<title>a&#45;&gt;t</title>
<path fill="none" stroke="black" d="M277.56,-957.78C395.62,-918.89 891.25,-731.05 1022.59,-675.62"/>
<polygon fill="black" stroke="black" points="1023.57,-679.01 1031.39,-671.86 1020.82,-672.57 1023.57,-679.01"/>
<text text-anchor="middle" x="634.57" y="-820.5" font-family="Times,serif" font-size="14.00">14.52</text>
</g>
<!-- n -->
<g id="node3" class="node">
<title>n</title>
<ellipse fill="none" stroke="black" cx="252.21" cy="-106.49" rx="27" ry="18"/>
<text text-anchor="middle" x="252.21" y="-102.79" font-family="Times,serif" font-size="14.00">n</text>
</g>
<!-- a&#45;&gt;n -->
<g id="edge2" class="edge">
<title>a&#45;&gt;n</title>
<path fill="none" stroke="black" d="M252.21,-946.37C252.21,-837.18 252.21,-272.45 252.21,-136.13"/>
<polygon fill="black" stroke="black" points="255.71,-136.16 252.21,-126.16 248.71,-136.16 255.71,-136.16"/>
<text text-anchor="middle" x="236.71" y="-545.05" font-family="Times,serif" font-size="14.00">13.52</text>
</g>
<!-- r -->
<g id="node4" class="node">
<title>r</title>
<ellipse fill="none" stroke="black" cx="485.54" cy="-18" rx="27" ry="18"/>
<text text-anchor="middle" x="485.54" y="-14.3" font-family="Times,serif" font-size="14.00">r</text>
</g>
<!-- a&#45;&gt;r -->
<g id="edge3" class="edge">
<title>a&#45;&gt;r</title>
<path fill="none" stroke="black" d="M258.63,-947.11C293.17,-832.58 451,-192.89 480.89,-47.43"/>
<polygon fill="black" stroke="black" points="484.28,-48.33 482.81,-37.84 477.42,-46.96 484.28,-48.33"/>
<text text-anchor="middle" x="354.26" y="-501.07" font-family="Times,serif" font-size="14.00">12.61</text>
</g>
<!-- t&#45;&gt;a -->
<g id="edge60" class="edge">
<title>t&#45;&gt;a</title>
<path fill="none" stroke="black" d="M1029.28,-667.28C911.22,-706.17 415.59,-894 284.25,-949.43"/>
<polygon fill="black" stroke="black" points="283.27,-946.05 275.45,-953.19 286.02,-952.49 283.27,-946.05"/>
<text text-anchor="middle" x="644.27" y="-797.16" font-family="Times,serif" font-size="14.00">7.96</text>
</g>
<!-- e -->
<g id="node6" class="node">
<title>e</title>
<ellipse fill="none" stroke="black" cx="158.12" cy="-189.84" rx="27" ry="18"/>
<text text-anchor="middle" x="158.12" y="-186.14" font-family="Times,serif" font-size="14.00">e</text>
</g>
<!-- t&#45;&gt;e -->
<g id="edge59" class="edge">
<title>t&#45;&gt;e</title>
<path fill="none" stroke="black" d="M1033.36,-649.2C914.36,-586.75 331.56,-280.87 189.43,-206.27"/>
<polygon fill="black" stroke="black" points="191.42,-203.37 180.94,-201.82 188.17,-209.56 191.42,-203.37"/>
<text text-anchor="middle" x="595.89" y="-431.54" font-family="Times,serif" font-size="14.00">16.76</text>
</g>
<!-- i -->
<g id="node11" class="node">
<title>i</title>
<ellipse fill="none" stroke="black" cx="733.28" cy="-1023.1" rx="27" ry="18"/>
<text text-anchor="middle" x="733.28" y="-1019.4" font-family="Times,serif" font-size="14.00">i</text>
</g>
<!-- t&#45;&gt;i -->
<g id="edge58" class="edge">
<title>t&#45;&gt;i</title>
<path fill="none" stroke="black" d="M1040.82,-675.95C990.35,-732.93 815.63,-930.15 754.55,-999.09"/>
<polygon fill="black" stroke="black" points="752.05,-996.63 748.04,-1006.44 757.29,-1001.27 752.05,-996.63"/>
<text text-anchor="middle" x="885.19" y="-841.32" font-family="Times,serif" font-size="14.00">20.9</text>
</g>
<!-- n&#45;&gt;t -->
<g id="edge41" class="edge">
<title>n&#45;&gt;t</title>
<path fill="none" stroke="black" d="M271.25,-119.64C377.77,-193.16 899.49,-553.28 1026.65,-641.05"/>
<polygon fill="black" stroke="black" points="1024.3,-643.69 1034.52,-646.49 1028.28,-637.92 1024.3,-643.69"/>
<text text-anchor="middle" x="633.45" y="-384.14" font-family="Times,serif" font-size="14.00">13.71</text>
</g>
<!-- s -->
<g id="node12" class="node">
<title>s</title>
<ellipse fill="none" stroke="black" cx="42.15" cy="-410.81" rx="27" ry="18"/>
<text text-anchor="middle" x="42.15" y="-407.11" font-family="Times,serif" font-size="14.00">s</text>
</g>
<!-- n&#45;&gt;s -->
<g id="edge42" class="edge">
<title>n&#45;&gt;s</title>
<path fill="none" stroke="black" d="M240.91,-122.85C206.36,-172.91 101.9,-324.25 59.91,-385.09"/>
<polygon fill="black" stroke="black" points="57.16,-382.91 54.36,-393.12 62.92,-386.88 57.16,-382.91"/>
<text text-anchor="middle" x="137.91" y="-257.77" font-family="Times,serif" font-size="14.00">9.42</text>
</g>
<!-- g -->
<g id="node14" class="node">
<title>g</title>
<ellipse fill="none" stroke="black" cx="363.5" cy="-48.08" rx="27" ry="18"/>
<text text-anchor="middle" x="363.5" y="-44.38" font-family="Times,serif" font-size="14.00">g</text>
</g>
<!-- n&#45;&gt;g -->
<g id="edge40" class="edge">
<title>n&#45;&gt;g</title>
<path fill="none" stroke="black" d="M273.67,-95.23C290.22,-86.54 313.36,-74.4 332.01,-64.61"/>
<polygon fill="black" stroke="black" points="333.54,-67.76 340.77,-60.01 330.29,-61.56 333.54,-67.76"/>
<text text-anchor="middle" x="287.34" y="-68.72" font-family="Times,serif" font-size="14.00">14.64</text>
</g>
<!-- r&#45;&gt;a -->
<g id="edge53" class="edge">
<title>r&#45;&gt;a</title>
<path fill="none" stroke="black" d="M479.12,-35.58C444.59,-150.1 286.75,-789.79 256.86,-935.26"/>
<polygon fill="black" stroke="black" points="253.47,-934.35 254.94,-944.85 260.34,-935.73 253.47,-934.35"/>
<text text-anchor="middle" x="355.49" y="-474.22" font-family="Times,serif" font-size="14.00">12.2</text>
</g>
<!-- r&#45;&gt;e -->
<g id="edge52" class="edge">
<title>r&#45;&gt;e</title>
<path fill="none" stroke="black" d="M461.35,-26.6C402.02,-53.23 249.68,-133 186.35,-170.39"/>
<polygon fill="black" stroke="black" points="184.71,-167.29 177.93,-175.44 188.31,-173.3 184.71,-167.29"/>
<text text-anchor="middle" x="308.35" y="-87.29" font-family="Times,serif" font-size="14.00">20.56</text>
</g>
<!-- r&#45;&gt;i -->
<g id="edge54" class="edge">
<title>r&#45;&gt;i</title>
<path fill="none" stroke="black" d="M489.95,-35.87C519.53,-155.88 689.18,-844.2 726.16,-994.23"/>
<polygon fill="black" stroke="black" points="722.72,-994.87 728.51,-1003.74 729.51,-993.19 722.72,-994.87"/>
<text text-anchor="middle" x="595.56" y="-518.85" font-family="Times,serif" font-size="14.00">11.5</text>
</g>
<!-- b -->
<g id="node5" class="node">
<title>b</title>
<ellipse fill="none" stroke="black" cx="844.58" cy="-964.69" rx="27" ry="18"/>
<text text-anchor="middle" x="844.58" y="-960.99" font-family="Times,serif" font-size="14.00">b</text>
</g>
<!-- b&#45;&gt;a -->
<g id="edge5" class="edge">
<title>b&#45;&gt;a</title>
<path fill="none" stroke="black" d="M817.19,-964.69C721.58,-964.69 402.37,-964.69 290.97,-964.69"/>
<polygon fill="black" stroke="black" points="291.15,-961.19 281.15,-964.69 291.15,-968.19 291.15,-961.19"/>
<text text-anchor="middle" x="538.58" y="-968.49" font-family="Times,serif" font-size="14.00">14.02</text>
</g>
<!-- b&#45;&gt;e -->
<g id="edge4" class="edge">
<title>b&#45;&gt;e</title>
<path fill="none" stroke="black" d="M830.55,-948.86C744.2,-851.38 284.85,-332.89 179.62,-214.1"/>
<polygon fill="black" stroke="black" points="182.38,-211.94 173.13,-206.78 177.14,-216.59 182.38,-211.94"/>
<text text-anchor="middle" x="492.58" y="-585.28" font-family="Times,serif" font-size="14.00">14.9</text>
</g>
<!-- l -->
<g id="node7" class="node">
<title>l</title>
<ellipse fill="none" stroke="black" cx="938.66" cy="-881.34" rx="27" ry="18"/>
<text text-anchor="middle" x="938.66" y="-877.64" font-family="Times,serif" font-size="14.00">l</text>
</g>
<!-- b&#45;&gt;l -->
<g id="edge6" class="edge">
<title>b&#45;&gt;l</title>
<path fill="none" stroke="black" d="M860.96,-950.17C875.58,-937.22 897.19,-918.08 913.91,-903.26"/>
<polygon fill="black" stroke="black" points="915.85,-906.22 921.01,-896.97 911.2,-900.98 915.85,-906.22"/>
<text text-anchor="middle" x="871.94" y="-930.52" font-family="Times,serif" font-size="14.00">13.15</text>
</g>
<!-- e&#45;&gt;n -->
<g id="edge15" class="edge">
<title>e&#45;&gt;n</title>
<path fill="none" stroke="black" d="M174.51,-175.32C189.13,-162.38 210.74,-143.23 227.46,-128.42"/>
<polygon fill="black" stroke="black" points="229.39,-131.38 234.56,-122.13 224.75,-126.14 229.39,-131.38"/>
<text text-anchor="middle" x="188.48" y="-155.67" font-family="Times,serif" font-size="14.00">11.1</text>
</g>
<!-- e&#45;&gt;r -->
<g id="edge13" class="edge">
<title>e&#45;&gt;r</title>
<path fill="none" stroke="black" d="M182.32,-181.25C241.65,-154.61 393.99,-74.84 457.32,-37.46"/>
<polygon fill="black" stroke="black" points="458.96,-40.55 465.74,-32.4 455.36,-34.55 458.96,-40.55"/>
<text text-anchor="middle" x="304.32" y="-113.15" font-family="Times,serif" font-size="14.00">14.66</text>
</g>
<!-- e&#45;&gt;s -->
<g id="edge14" class="edge">
<title>e&#45;&gt;s</title>
<path fill="none" stroke="black" d="M145.17,-206.11C121.54,-243.48 72.92,-335.65 51.86,-382.52"/>
<polygon fill="black" stroke="black" points="48.74,-380.91 47.96,-391.48 55.16,-383.71 48.74,-380.91"/>
<text text-anchor="middle" x="114.01" y="-298.11" font-family="Times,serif" font-size="14.00">12.38</text>
</g>
<!-- l&#45;&gt;a -->
<g id="edge36" class="edge">
<title>l&#45;&gt;a</title>
<path fill="none" stroke="black" d="M911.75,-884.6C805.37,-897.52 413.95,-945.05 290.07,-960.09"/>
<polygon fill="black" stroke="black" points="289.94,-956.58 280.43,-961.26 290.78,-963.53 289.94,-956.58"/>
<text text-anchor="middle" x="585.41" y="-926.15" font-family="Times,serif" font-size="14.00">11.51</text>
</g>
<!-- l&#45;&gt;e -->
<g id="edge34" class="edge">
<title>l&#45;&gt;e</title>
<path fill="none" stroke="black" d="M922.36,-866.89C823.36,-779.19 303.13,-318.31 182.93,-211.82"/>
<polygon fill="black" stroke="black" points="185.61,-209.51 175.8,-205.5 180.96,-214.75 185.61,-209.51"/>
<text text-anchor="middle" x="540.14" y="-543.15" font-family="Times,serif" font-size="14.00">17.7</text>
</g>
<!-- l&#45;&gt;i -->
<g id="edge35" class="edge">
<title>l&#45;&gt;i</title>
<path fill="none" stroke="black" d="M919.71,-894.42C883.41,-919.47 803.92,-974.34 761.41,-1003.68"/>
<polygon fill="black" stroke="black" points="759.67,-1000.63 753.43,-1009.19 763.65,-1006.39 759.67,-1000.63"/>
<text text-anchor="middle" x="825.06" y="-937.85" font-family="Times,serif" font-size="14.00">14.52</text>
</g>
<!-- c -->
<g id="node8" class="node">
<title>c</title>
<ellipse fill="none" stroke="black" cx="86.72" cy="-777.89" rx="27" ry="18"/>
<text text-anchor="middle" x="86.72" y="-774.19" font-family="Times,serif" font-size="14.00">c</text>
</g>
<!-- c&#45;&gt;a -->
<g id="edge9" class="edge">
<title>c&#45;&gt;a</title>
<path fill="none" stroke="black" d="M100.55,-793.5C129.51,-826.19 196.7,-902.03 231.1,-940.86"/>
<polygon fill="black" stroke="black" points="228.05,-942.7 237.3,-947.86 233.29,-938.06 228.05,-942.7"/>
<text text-anchor="middle" x="181.32" y="-855.98" font-family="Times,serif" font-size="14.00">11.97</text>
</g>
<!-- c&#45;&gt;e -->
<g id="edge8" class="edge">
<title>c&#45;&gt;e</title>
<path fill="none" stroke="black" d="M88.94,-759.65C99.16,-675.45 141.82,-324.1 154.53,-219.41"/>
<polygon fill="black" stroke="black" points="157.99,-220.02 155.72,-209.67 151.04,-219.17 157.99,-220.02"/>
<text text-anchor="middle" x="106.24" y="-493.33" font-family="Times,serif" font-size="14.00">12.83</text>
</g>
<!-- o -->
<g id="node9" class="node">
<title>o</title>
<ellipse fill="none" stroke="black" cx="1010.06" cy="-293.29" rx="27" ry="18"/>
<text text-anchor="middle" x="1010.06" y="-289.59" font-family="Times,serif" font-size="14.00">o</text>
</g>
<!-- c&#45;&gt;o -->
<g id="edge7" class="edge">
<title>c&#45;&gt;o</title>
<path fill="none" stroke="black" d="M108.19,-766.63C229.97,-702.71 833.69,-385.85 978.7,-309.74"/>
<polygon fill="black" stroke="black" points="980.15,-312.94 987.37,-305.19 976.89,-306.74 980.15,-312.94"/>
<text text-anchor="middle" x="527.95" y="-526.99" font-family="Times,serif" font-size="14.00">19.54</text>
</g>
<!-- o&#45;&gt;n -->
<g id="edge43" class="edge">
<title>o&#45;&gt;n</title>
<path fill="none" stroke="black" d="M984.41,-286.97C871.84,-259.22 421.3,-148.17 288.95,-115.55"/>
<polygon fill="black" stroke="black" points="289.87,-112.17 279.32,-113.18 288.19,-118.97 289.87,-112.17"/>
<text text-anchor="middle" x="621.18" y="-205.06" font-family="Times,serif" font-size="14.00">25.09</text>
</g>
<!-- o&#45;&gt;r -->
<g id="edge44" class="edge">
<title>o&#45;&gt;r</title>
<path fill="none" stroke="black" d="M988.52,-281.98C906.58,-238.98 614.02,-85.43 517.04,-34.53"/>
<polygon fill="black" stroke="black" points="518.8,-31.5 508.31,-29.95 515.54,-37.7 518.8,-31.5"/>
<text text-anchor="middle" x="737.28" y="-162.06" font-family="Times,serif" font-size="14.00">14.42</text>
</g>
<!-- m -->
<g id="node19" class="node">
<title>m</title>
<ellipse fill="none" stroke="black" cx="42.15" cy="-660.37" rx="27" ry="18"/>
<text text-anchor="middle" x="42.15" y="-656.67" font-family="Times,serif" font-size="14.00">m</text>
</g>
<!-- o&#45;&gt;m -->
<g id="edge45" class="edge">
<title>o&#45;&gt;m</title>
<path fill="none" stroke="black" d="M986.13,-302.36C855.63,-351.85 230.01,-589.12 76.31,-647.41"/>
<polygon fill="black" stroke="black" points="75.2,-644.09 67.09,-650.91 77.68,-650.64 75.2,-644.09"/>
<text text-anchor="middle" x="518.72" y="-478.69" font-family="Times,serif" font-size="14.00">6.68</text>
</g>
<!-- d -->
<g id="node10" class="node">
<title>d</title>
<ellipse fill="none" stroke="black" cx="363.5" cy="-1023.1" rx="27" ry="18"/>
<text text-anchor="middle" x="363.5" y="-1019.4" font-family="Times,serif" font-size="14.00">d</text>
</g>
<!-- d&#45;&gt;a -->
<g id="edge12" class="edge">
<title>d&#45;&gt;a</title>
<path fill="none" stroke="black" d="M342.04,-1011.84C325.49,-1003.15 302.35,-991.01 283.7,-981.22"/>
<polygon fill="black" stroke="black" points="285.42,-978.17 274.94,-976.62 282.17,-984.36 285.42,-978.17"/>
<text text-anchor="middle" x="303.87" y="-1000.33" font-family="Times,serif" font-size="14.00">5.9</text>
</g>
<!-- d&#45;&gt;e -->
<g id="edge10" class="edge">
<title>d&#45;&gt;e</title>
<path fill="none" stroke="black" d="M359.02,-1004.92C332.66,-897.96 197.78,-350.73 165.21,-218.59"/>
<polygon fill="black" stroke="black" points="168.7,-218.12 162.91,-209.25 161.9,-219.8 168.7,-218.12"/>
<text text-anchor="middle" x="246.62" y="-615.56" font-family="Times,serif" font-size="14.00">19.51</text>
</g>
<!-- d&#45;&gt;i -->
<g id="edge11" class="edge">
<title>d&#45;&gt;i</title>
<path fill="none" stroke="black" d="M390.99,-1023.1C456.05,-1023.1 619.61,-1023.1 694.61,-1023.1"/>
<polygon fill="black" stroke="black" points="694.35,-1026.6 704.35,-1023.1 694.35,-1019.6 694.35,-1026.6"/>
<text text-anchor="middle" x="527.3" y="-1011.9" font-family="Times,serif" font-size="14.00">14.44</text>
</g>
<!-- i&#45;&gt;n -->
<g id="edge25" class="edge">
<title>i&#45;&gt;n</title>
<path fill="none" stroke="black" d="M724.31,-1006.01C665.83,-894.58 338.94,-271.74 266.45,-133.62"/>
<polygon fill="black" stroke="black" points="269.76,-132.4 262.01,-125.17 263.56,-135.65 269.76,-132.4"/>
<text text-anchor="middle" x="479.88" y="-558.62" font-family="Times,serif" font-size="14.00">24.26</text>
</g>
<!-- i&#45;&gt;c -->
<g id="edge27" class="edge">
<title>i&#45;&gt;c</title>
<path fill="none" stroke="black" d="M709.5,-1014.08C611.28,-976.83 236.87,-834.84 121.06,-790.92"/>
<polygon fill="black" stroke="black" points="122.38,-787.67 111.79,-787.4 119.9,-794.22 122.38,-787.67"/>
<text text-anchor="middle" x="402.78" y="-906.3" font-family="Times,serif" font-size="14.00">8.35</text>
</g>
<!-- i&#45;&gt;o -->
<g id="edge26" class="edge">
<title>i&#45;&gt;o</title>
<path fill="none" stroke="black" d="M739.98,-1005.42C776.73,-908.52 953.73,-441.82 999.33,-321.59"/>
<polygon fill="black" stroke="black" points="1002.51,-323.07 1002.78,-312.47 995.97,-320.58 1002.51,-323.07"/>
<text text-anchor="middle" x="854.16" y="-667.31" font-family="Times,serif" font-size="14.00">11.04</text>
</g>
<!-- s&#45;&gt;t -->
<g id="edge55" class="edge">
<title>s&#45;&gt;t</title>
<path fill="none" stroke="black" d="M67.94,-417.17C205.97,-451.19 857.19,-611.7 1018.44,-651.45"/>
<polygon fill="black" stroke="black" points="1017.18,-654.74 1027.72,-653.73 1018.85,-647.94 1017.18,-654.74"/>
<text text-anchor="middle" x="555.69" y="-523.11" font-family="Times,serif" font-size="14.00">12.7</text>
</g>
<!-- s&#45;&gt;e -->
<g id="edge56" class="edge">
<title>s&#45;&gt;e</title>
<path fill="none" stroke="black" d="M55.11,-394.55C78.74,-357.17 127.35,-265.01 148.42,-218.14"/>
<polygon fill="black" stroke="black" points="151.53,-219.74 152.32,-209.18 145.12,-216.95 151.53,-219.74"/>
<text text-anchor="middle" x="92.76" y="-310.14" font-family="Times,serif" font-size="14.00">9.3</text>
</g>
<!-- s&#45;&gt;i -->
<g id="edge57" class="edge">
<title>s&#45;&gt;i</title>
<path fill="none" stroke="black" d="M58.55,-425.34C150.01,-506.37 596.88,-902.26 708.15,-1000.84"/>
<polygon fill="black" stroke="black" points="705.78,-1003.42 715.59,-1007.43 710.43,-998.18 705.78,-1003.42"/>
<text text-anchor="middle" x="370.85" y="-716.89" font-family="Times,serif" font-size="14.00">7.08</text>
</g>
<!-- f -->
<g id="node13" class="node">
<title>f</title>
<ellipse fill="none" stroke="black" cx="938.66" cy="-189.84" rx="27" ry="18"/>
<text text-anchor="middle" x="938.66" y="-186.14" font-family="Times,serif" font-size="14.00">f</text>
</g>
<!-- f&#45;&gt;e -->
<g id="edge18" class="edge">
<title>f&#45;&gt;e</title>
<path fill="none" stroke="black" d="M911.34,-189.84C794.13,-189.84 333.63,-189.84 196.72,-189.84"/>
<polygon fill="black" stroke="black" points="196.74,-186.34 186.74,-189.84 196.74,-193.34 196.74,-186.34"/>
<text text-anchor="middle" x="538.53" y="-193.64" font-family="Times,serif" font-size="14.00">13.05</text>
</g>
<!-- f&#45;&gt;o -->
<g id="edge17" class="edge">
<title>f&#45;&gt;o</title>
<path fill="none" stroke="black" d="M950.13,-206.46C961.48,-222.9 979.01,-248.3 992.18,-267.38"/>
<polygon fill="black" stroke="black" points="989.2,-269.22 997.76,-275.46 994.96,-265.24 989.2,-269.22"/>
<text text-anchor="middle" x="955.66" y="-240.72" font-family="Times,serif" font-size="14.00">13.59</text>
</g>
<!-- f&#45;&gt;i -->
<g id="edge16" class="edge">
<title>f&#45;&gt;i</title>
<path fill="none" stroke="black" d="M934.18,-208.02C907.81,-314.99 772.93,-862.21 740.36,-994.35"/>
<polygon fill="black" stroke="black" points="737.06,-993.14 738.06,-1003.69 743.86,-994.82 737.06,-993.14"/>
<text text-anchor="middle" x="821.77" y="-604.99" font-family="Times,serif" font-size="14.00">20.71</text>
</g>
<!-- g&#45;&gt;a -->
<g id="edge21" class="edge">
<title>g&#45;&gt;a</title>
<path fill="none" stroke="black" d="M361.28,-66.39C347.44,-180.39 273.08,-792.76 255.8,-935.11"/>
<polygon fill="black" stroke="black" points="252.35,-934.48 254.62,-944.83 259.3,-935.33 252.35,-934.48"/>
<text text-anchor="middle" x="296.04" y="-504.55" font-family="Times,serif" font-size="14.00">7.22</text>
</g>
<!-- g&#45;&gt;r -->
<g id="edge20" class="edge">
<title>g&#45;&gt;r</title>
<path fill="none" stroke="black" d="M389.09,-41.77C406.42,-37.5 429.58,-31.79 448.87,-27.04"/>
<polygon fill="black" stroke="black" points="449.65,-30.45 458.53,-24.66 447.98,-23.65 449.65,-30.45"/>
<text text-anchor="middle" x="406.48" y="-38.21" font-family="Times,serif" font-size="14.00">7.75</text>
</g>
<!-- g&#45;&gt;e -->
<g id="edge19" class="edge">
<title>g&#45;&gt;e</title>
<path fill="none" stroke="black" d="M344.55,-61.16C308.25,-86.22 228.76,-141.08 186.25,-170.43"/>
<polygon fill="black" stroke="black" points="184.52,-167.37 178.28,-175.93 188.5,-173.13 184.52,-167.37"/>
<text text-anchor="middle" x="280.9" y="-119.59" font-family="Times,serif" font-size="14.00">15.96</text>
</g>
<!-- h -->
<g id="node15" class="node">
<title>h</title>
<ellipse fill="none" stroke="black" cx="1054.63" cy="-410.81" rx="27" ry="18"/>
<text text-anchor="middle" x="1054.63" y="-407.11" font-family="Times,serif" font-size="14.00">h</text>
</g>
<!-- h&#45;&gt;a -->
<g id="edge23" class="edge">
<title>h&#45;&gt;a</title>
<path fill="none" stroke="black" d="M1035.59,-423.96C929.07,-497.48 407.35,-857.6 280.19,-945.37"/>
<polygon fill="black" stroke="black" points="278.56,-942.24 272.32,-950.8 282.54,-948 278.56,-942.24"/>
<text text-anchor="middle" x="642.39" y="-688.46" font-family="Times,serif" font-size="14.00">17.35</text>
</g>
<!-- h&#45;&gt;e -->
<g id="edge22" class="edge">
<title>h&#45;&gt;e</title>
<path fill="none" stroke="black" d="M1029.25,-404.56C903.02,-373.44 343.18,-235.45 194.49,-198.81"/>
<polygon fill="black" stroke="black" points="195.73,-195.51 185.19,-196.51 194.06,-202.31 195.73,-195.51"/>
<text text-anchor="middle" x="596.37" y="-305.48" font-family="Times,serif" font-size="14.00">20.57</text>
</g>
<!-- h&#45;&gt;o -->
<g id="edge24" class="edge">
<title>h&#45;&gt;o</title>
<path fill="none" stroke="black" d="M1047.86,-392.96C1040.65,-373.96 1029.15,-343.61 1020.72,-321.39"/>
<polygon fill="black" stroke="black" points="1024.1,-320.44 1017.28,-312.33 1017.56,-322.93 1024.1,-320.44"/>
<text text-anchor="middle" x="1018.79" y="-360.98" font-family="Times,serif" font-size="14.00">16.17</text>
</g>
<!-- j -->
<g id="node16" class="node">
<title>j</title>
<ellipse fill="none" stroke="black" cx="733.28" cy="-48.08" rx="27" ry="18"/>
<text text-anchor="middle" x="733.28" y="-44.38" font-family="Times,serif" font-size="14.00">j</text>
</g>
<!-- j&#45;&gt;e -->
<g id="edge29" class="edge">
<title>j&#45;&gt;e</title>
<path fill="none" stroke="black" d="M707.82,-54.35C616.16,-76.95 302.68,-154.21 194.88,-180.78"/>
<polygon fill="black" stroke="black" points="194.28,-177.33 185.41,-183.12 195.96,-184.12 194.28,-177.33"/>
<text text-anchor="middle" x="435.85" y="-121.37" font-family="Times,serif" font-size="14.00">21.86</text>
</g>
<!-- j&#45;&gt;o -->
<g id="edge28" class="edge">
<title>j&#45;&gt;o</title>
<path fill="none" stroke="black" d="M749.76,-62.68C796.4,-104 929.46,-221.88 985.12,-271.19"/>
<polygon fill="black" stroke="black" points="982.72,-273.74 992.53,-277.76 987.37,-268.5 982.72,-273.74"/>
<text text-anchor="middle" x="854.94" y="-170.74" font-family="Times,serif" font-size="14.00">23.5</text>
</g>
<!-- u -->
<g id="node17" class="node">
<title>u</title>
<ellipse fill="none" stroke="black" cx="611.24" cy="-18" rx="27" ry="18"/>
<text text-anchor="middle" x="611.24" y="-14.3" font-family="Times,serif" font-size="14.00">u</text>
</g>
<!-- j&#45;&gt;u -->
<g id="edge30" class="edge">
<title>j&#45;&gt;u</title>
<path fill="none" stroke="black" d="M707.7,-41.77C690.37,-37.5 667.2,-31.79 647.91,-27.04"/>
<polygon fill="black" stroke="black" points="648.81,-23.65 638.26,-24.66 647.13,-30.45 648.81,-23.65"/>
<text text-anchor="middle" x="662.3" y="-38.21" font-family="Times,serif" font-size="14.00">20.22</text>
</g>
<!-- u&#45;&gt;n -->
<g id="edge62" class="edge">
<title>u&#45;&gt;n</title>
<path fill="none" stroke="black" d="M585.42,-24.36C522.54,-39.86 361.31,-79.6 288.66,-97.51"/>
<polygon fill="black" stroke="black" points="288.14,-94.03 279.26,-99.82 289.81,-100.83 288.14,-94.03"/>
<text text-anchor="middle" x="421.54" y="-64.74" font-family="Times,serif" font-size="14.00">11.96</text>
</g>
<!-- u&#45;&gt;r -->
<g id="edge61" class="edge">
<title>u&#45;&gt;r</title>
<path fill="none" stroke="black" d="M583.96,-18C566.51,-18 543.58,-18 524.26,-18"/>
<polygon fill="black" stroke="black" points="524.28,-14.5 514.28,-18 524.28,-21.5 524.28,-14.5"/>
<text text-anchor="middle" x="538.61" y="-21.8" font-family="Times,serif" font-size="14.00">16.35</text>
</g>
<!-- u&#45;&gt;s -->
<g id="edge63" class="edge">
<title>u&#45;&gt;s</title>
<path fill="none" stroke="black" d="M592.3,-31.07C508.5,-88.92 170.68,-322.1 70.37,-391.34"/>
<polygon fill="black" stroke="black" points="68.64,-388.27 62.4,-396.83 72.62,-394.03 68.64,-388.27"/>
<text text-anchor="middle" x="315.84" y="-215" font-family="Times,serif" font-size="14.00">11.19</text>
</g>
<!-- k -->
<g id="node18" class="node">
<title>k</title>
<ellipse fill="none" stroke="black" cx="27" cy="-535.59" rx="27" ry="18"/>
<text text-anchor="middle" x="27" y="-531.89" font-family="Times,serif" font-size="14.00">k</text>
</g>
<!-- k&#45;&gt;e -->
<g id="edge31" class="edge">
<title>k&#45;&gt;e</title>
<path fill="none" stroke="black" d="M33.68,-517.97C54.99,-461.79 121.44,-286.56 147.49,-217.87"/>
<polygon fill="black" stroke="black" points="150.64,-219.44 150.92,-208.84 144.1,-216.95 150.64,-219.44"/>
<text text-anchor="middle" x="75.09" y="-371.72" font-family="Times,serif" font-size="14.00">26.35</text>
</g>
<!-- k&#45;&gt;i -->
<g id="edge32" class="edge">
<title>k&#45;&gt;i</title>
<path fill="none" stroke="black" d="M45.89,-548.63C143.2,-615.8 587.83,-922.7 704.94,-1003.54"/>
<polygon fill="black" stroke="black" points="702.87,-1006.36 713.08,-1009.16 706.84,-1000.6 702.87,-1006.36"/>
<text text-anchor="middle" x="359.92" y="-779.88" font-family="Times,serif" font-size="14.00">16.22</text>
</g>
<!-- k&#45;&gt;s -->
<g id="edge33" class="edge">
<title>k&#45;&gt;s</title>
<path fill="none" stroke="black" d="M29.24,-517.18C31.7,-496.88 35.7,-463.95 38.59,-440.1"/>
<polygon fill="black" stroke="black" points="42.04,-440.75 39.77,-430.4 35.09,-439.9 42.04,-440.75"/>
<text text-anchor="middle" x="18.42" y="-482.44" font-family="Times,serif" font-size="14.00">11.49</text>
</g>
<!-- m&#45;&gt;a -->
<g id="edge38" class="edge">
<title>m&#45;&gt;a</title>
<path fill="none" stroke="black" d="M53.44,-676.73C87.99,-726.78 192.46,-878.13 234.45,-938.96"/>
<polygon fill="black" stroke="black" points="231.44,-940.76 240,-947 237.2,-936.78 231.44,-940.76"/>
<text text-anchor="middle" x="128.45" y="-811.64" font-family="Times,serif" font-size="14.00">17.68</text>
</g>
<!-- m&#45;&gt;e -->
<g id="edge37" class="edge">
<title>m&#45;&gt;e</title>
<path fill="none" stroke="black" d="M46.63,-642.21C64.28,-570.6 129.16,-307.35 150.94,-218.99"/>
<polygon fill="black" stroke="black" points="154.31,-219.96 153.3,-209.42 147.51,-218.29 154.31,-219.96"/>
<text text-anchor="middle" x="83.28" y="-434.4" font-family="Times,serif" font-size="14.00">22.49</text>
</g>
<!-- m&#45;&gt;i -->
<g id="edge39" class="edge">
<title>m&#45;&gt;i</title>
<path fill="none" stroke="black" d="M63.59,-671.62C163.45,-724.03 583.06,-944.26 701.83,-1006.59"/>
<polygon fill="black" stroke="black" points="699.93,-1009.55 710.41,-1011.09 703.18,-1003.35 699.93,-1009.55"/>
<text text-anchor="middle" x="367.21" y="-842.91" font-family="Times,serif" font-size="14.00">13.28</text>
</g>
<!-- p -->
<g id="node20" class="node">
<title>p</title>
<ellipse fill="none" stroke="black" cx="158.12" cy="-881.34" rx="27" ry="18"/>
<text text-anchor="middle" x="158.12" y="-877.64" font-family="Times,serif" font-size="14.00">p</text>
</g>
<!-- p&#45;&gt;a -->
<g id="edge48" class="edge">
<title>p&#45;&gt;a</title>
<path fill="none" stroke="black" d="M174.51,-895.86C189.13,-908.8 210.74,-927.95 227.46,-942.76"/>
<polygon fill="black" stroke="black" points="224.75,-945.04 234.56,-949.05 229.39,-939.8 224.75,-945.04"/>
<text text-anchor="middle" x="185.48" y="-923.11" font-family="Times,serif" font-size="14.00">12.28</text>
</g>
<!-- p&#45;&gt;r -->
<g id="edge47" class="edge">
<title>p&#45;&gt;r</title>
<path fill="none" stroke="black" d="M164.81,-863.7C205.88,-755.42 423.78,-180.85 474.84,-46.24"/>
<polygon fill="black" stroke="black" points="478.06,-47.62 478.33,-37.02 471.51,-45.13 478.06,-47.62"/>
<text text-anchor="middle" x="304.32" y="-458.77" font-family="Times,serif" font-size="14.00">15.15</text>
</g>
<!-- p&#45;&gt;e -->
<g id="edge46" class="edge">
<title>p&#45;&gt;e</title>
<path fill="none" stroke="black" d="M158.12,-862.84C158.12,-768.04 158.12,-336.54 158.12,-219.31"/>
<polygon fill="black" stroke="black" points="161.62,-219.59 158.12,-209.59 154.62,-219.59 161.62,-219.59"/>
<text text-anchor="middle" x="142.62" y="-544.88" font-family="Times,serif" font-size="14.00">15.19</text>
</g>
<!-- q -->
<g id="node21" class="node">
<title>q</title>
<ellipse fill="none" stroke="black" cx="1010.06" cy="-777.89" rx="27" ry="18"/>
<text text-anchor="middle" x="1010.06" y="-774.19" font-family="Times,serif" font-size="14.00">q</text>
</g>
<!-- q&#45;&gt;t -->
<g id="edge51" class="edge">
<title>q&#45;&gt;t</title>
<path fill="none" stroke="black" d="M1016.83,-760.04C1024.04,-741.04 1035.55,-710.69 1043.97,-688.47"/>
<polygon fill="black" stroke="black" points="1047.14,-690.01 1047.41,-679.41 1040.59,-687.52 1047.14,-690.01"/>
<text text-anchor="middle" x="1017.9" y="-728.06" font-family="Times,serif" font-size="14.00">1.63</text>
</g>
<!-- q&#45;&gt;l -->
<g id="edge50" class="edge">
<title>q&#45;&gt;l</title>
<path fill="none" stroke="black" d="M998.59,-794.51C987.24,-810.95 969.71,-836.35 956.54,-855.43"/>
<polygon fill="black" stroke="black" points="953.76,-853.29 950.96,-863.51 959.52,-857.27 953.76,-853.29"/>
<text text-anchor="middle" x="965.06" y="-828.77" font-family="Times,serif" font-size="14.00">2.44</text>
</g>
<!-- q&#45;&gt;u -->
<g id="edge49" class="edge">
<title>q&#45;&gt;u</title>
<path fill="none" stroke="black" d="M1000.98,-760.59C949.04,-661.63 689.62,-167.35 625.56,-45.29"/>
<polygon fill="black" stroke="black" points="628.75,-43.84 621.01,-36.61 622.56,-47.09 628.75,-43.84"/>
<text text-anchor="middle" x="797.77" y="-406.74" font-family="Times,serif" font-size="14.00">83.74</text>
</g>
<!-- v -->
<g id="node22" class="node">
<title>v</title>
<ellipse fill="none" stroke="black" cx="485.54" cy="-1053.18" rx="27" ry="18"/>
<text text-anchor="middle" x="485.54" y="-1049.48" font-family="Times,serif" font-size="14.00">v</text>
</g>
<!-- v&#45;&gt;a -->
<g id="edge66" class="edge">
<title>v&#45;&gt;a</title>
<path fill="none" stroke="black" d="M461.89,-1044.21C420.4,-1028.47 334.37,-995.85 286.4,-977.66"/>
<polygon fill="black" stroke="black" points="287.93,-974.49 277.34,-974.22 285.45,-981.04 287.93,-974.49"/>
<text text-anchor="middle" x="389.65" y="-999.73" font-family="Times,serif" font-size="14.00">13.66</text>
</g>
<!-- v&#45;&gt;e -->
<g id="edge64" class="edge">
<title>v&#45;&gt;e</title>
<path fill="none" stroke="black" d="M478.86,-1035.54C437.79,-927.26 219.89,-352.69 168.83,-218.08"/>
<polygon fill="black" stroke="black" points="172.16,-216.98 165.34,-208.87 165.61,-219.46 172.16,-216.98"/>
<text text-anchor="middle" x="308.34" y="-630.61" font-family="Times,serif" font-size="14.00">48.88</text>
</g>
<!-- v&#45;&gt;i -->
<g id="edge65" class="edge">
<title>v&#45;&gt;i</title>
<path fill="none" stroke="black" d="M512.53,-1049.9C556.65,-1044.55 644.36,-1033.9 694.92,-1027.76"/>
<polygon fill="black" stroke="black" points="695.32,-1031.23 704.83,-1026.55 694.48,-1024.29 695.32,-1031.23"/>
<text text-anchor="middle" x="588.23" y="-1027.63" font-family="Times,serif" font-size="14.00">24.15</text>
</g>
<!-- w -->
<g id="node23" class="node">
<title>w</title>
<ellipse fill="none" stroke="black" cx="611.24" cy="-1053.18" rx="27" ry="18"/>
<text text-anchor="middle" x="611.24" y="-1049.48" font-family="Times,serif" font-size="14.00">w</text>
</g>
<!-- w&#45;&gt;a -->
<g id="edge67" class="edge">
<title>w&#45;&gt;a</title>
<path fill="none" stroke="black" d="M585.42,-1046.82C522.54,-1031.32 361.31,-991.58 288.66,-973.67"/>
<polygon fill="black" stroke="black" points="289.81,-970.35 279.26,-971.36 288.14,-977.15 289.81,-970.35"/>
<text text-anchor="middle" x="421.54" y="-1014.04" font-family="Times,serif" font-size="14.00">20.41</text>
</g>
<!-- w&#45;&gt;e -->
<g id="edge68" class="edge">
<title>w&#45;&gt;e</title>
<path fill="none" stroke="black" d="M602.19,-1035.93C545.77,-928.45 242.51,-350.62 172.53,-217.3"/>
<polygon fill="black" stroke="black" points="175.65,-215.7 167.9,-208.47 169.45,-218.95 175.65,-215.7"/>
<text text-anchor="middle" x="371.86" y="-630.42" font-family="Times,serif" font-size="14.00">16.46</text>
</g>
<!-- w&#45;&gt;i -->
<g id="edge69" class="edge">
<title>w&#45;&gt;i</title>
<path fill="none" stroke="black" d="M636.82,-1046.87C654.15,-1042.6 677.32,-1036.89 696.6,-1032.14"/>
<polygon fill="black" stroke="black" points="697.39,-1035.55 706.26,-1029.76 695.71,-1028.75 697.39,-1035.55"/>
<text text-anchor="middle" x="682.21" y="-1043.31" font-family="Times,serif" font-size="14.00">16.46</text>
</g>
<!-- x -->
<g id="node24" class="node">
<title>x</title>
<ellipse fill="none" stroke="black" cx="1069.78" cy="-535.59" rx="27" ry="18"/>
<text text-anchor="middle" x="1069.78" y="-531.89" font-family="Times,serif" font-size="14.00">x</text>
</g>
<!-- x&#45;&gt;t -->
<g id="edge71" class="edge">
<title>x&#45;&gt;t</title>
<path fill="none" stroke="black" d="M1067.55,-554C1065.08,-574.3 1061.08,-607.23 1058.19,-631.08"/>
<polygon fill="black" stroke="black" points="1054.74,-630.43 1057.01,-640.78 1061.69,-631.28 1054.74,-630.43"/>
<text text-anchor="middle" x="1047.37" y="-596.34" font-family="Times,serif" font-size="14.00">12.12</text>
</g>
<!-- x&#45;&gt;i -->
<g id="edge72" class="edge">
<title>x&#45;&gt;i</title>
<path fill="none" stroke="black" d="M1058.39,-552.09C1008.87,-623.84 812.01,-909.04 751.24,-997.08"/>
<polygon fill="black" stroke="black" points="748.5,-994.89 745.7,-1005.11 754.26,-998.87 748.5,-994.89"/>
<text text-anchor="middle" x="892.32" y="-778.38" font-family="Times,serif" font-size="14.00">9.47</text>
</g>
<!-- x&#45;&gt;p -->
<g id="edge70" class="edge">
<title>x&#45;&gt;p</title>
<path fill="none" stroke="black" d="M1045.87,-544.66C920.6,-592.17 340.24,-812.27 192.44,-868.32"/>
<polygon fill="black" stroke="black" points="191.31,-865.01 183.21,-871.82 193.8,-871.55 191.31,-865.01"/>
<text text-anchor="middle" x="603.66" y="-710.29" font-family="Times,serif" font-size="14.00">20.08</text>
</g>
<!-- y -->
<g id="node25" class="node">
<title>y</title>
<ellipse fill="none" stroke="black" cx="86.72" cy="-293.29" rx="27" ry="18"/>
<text text-anchor="middle" x="86.72" y="-289.59" font-family="Times,serif" font-size="14.00">y</text>
</g>
<!-- y&#45;&gt;e -->
<g id="edge74" class="edge">
<title>y&#45;&gt;e</title>
<path fill="none" stroke="black" d="M98.19,-276.67C109.54,-260.23 127.07,-234.83 140.24,-215.75"/>
<polygon fill="black" stroke="black" points="143.02,-217.89 145.82,-207.67 137.26,-213.91 143.02,-217.89"/>
<text text-anchor="middle" x="106.72" y="-250.01" font-family="Times,serif" font-size="14.00">4.67</text>
</g>
<!-- y&#45;&gt;i -->
<g id="edge75" class="edge">
<title>y&#45;&gt;i</title>
<path fill="none" stroke="black" d="M100.53,-308.87C183.03,-401.99 610.76,-884.8 711.85,-998.91"/>
<polygon fill="black" stroke="black" points="709.08,-1001.06 718.33,-1006.22 714.32,-996.42 709.08,-1001.06"/>
<text text-anchor="middle" x="393.69" y="-657.69" font-family="Times,serif" font-size="14.00">2.34</text>
</g>
<!-- y&#45;&gt;s -->
<g id="edge73" class="edge">
<title>y&#45;&gt;s</title>
<path fill="none" stroke="black" d="M79.95,-311.14C72.74,-330.14 61.24,-360.49 52.81,-382.71"/>
<polygon fill="black" stroke="black" points="49.65,-381.17 49.37,-391.77 56.19,-383.66 49.65,-381.17"/>
<text text-anchor="middle" x="53.88" y="-350.72" font-family="Times,serif" font-size="14.00">4.77</text>
</g>
<!-- z -->
<g id="node26" class="node">
<title>z</title>
<ellipse fill="none" stroke="black" cx="844.58" cy="-106.49" rx="27" ry="18"/>
<text text-anchor="middle" x="844.58" y="-102.79" font-family="Times,serif" font-size="14.00">z</text>
</g>
<!-- z&#45;&gt;a -->
<g id="edge77" class="edge">
<title>z&#45;&gt;a</title>
<path fill="none" stroke="black" d="M833.01,-123.25C759.66,-229.52 359.43,-809.34 269.96,-938.97"/>
<polygon fill="black" stroke="black" points="267.27,-936.71 264.47,-946.93 273.03,-940.68 267.27,-936.71"/>
<text text-anchor="middle" x="566.98" y="-534.91" font-family="Times,serif" font-size="14.00">16.18</text>
</g>
<!-- z&#45;&gt;e -->
<g id="edge76" class="edge">
<title>z&#45;&gt;e</title>
<path fill="none" stroke="black" d="M817.67,-109.76C711.29,-122.68 319.87,-170.2 195.98,-185.25"/>
<polygon fill="black" stroke="black" points="195.86,-181.74 186.35,-186.42 196.7,-188.69 195.86,-181.74"/>
<text text-anchor="middle" x="491.32" y="-151.3" font-family="Times,serif" font-size="14.00">32.35</text>
</g>
<!-- z&#45;&gt;o -->
<g id="edge78" class="edge">
<title>z&#45;&gt;o</title>
<path fill="none" stroke="black" d="M858.4,-122.1C887.36,-154.79 954.55,-230.63 988.95,-269.46"/>
<polygon fill="black" stroke="black" points="985.9,-271.3 995.16,-276.46 991.14,-266.66 985.9,-271.3"/>
<text text-anchor="middle" x="908.17" y="-199.58" font-family="Times,serif" font-size="14.00">11.76</text>
</g>
</g>
</svg>
