<?xml version="1.0" encoding="UTF-8" standalone="no"?>
<!DOCTYPE svg PUBLIC "-//W3C//DTD SVG 1.1//EN"
 "http://www.w3.org/Graphics/SVG/1.1/DTD/svg11.dtd">
<!-- Generated by graphviz version 7.0.5 (20221223.1930)
 -->
<!-- Title: finite_state_machine Pages: 1 -->
<svg width="640pt" height="406pt"
 viewBox="0.00 0.00 640.20 406.00" xmlns="http://www.w3.org/2000/svg" xmlns:xlink="http://www.w3.org/1999/xlink">
<g id="graph0" class="graph" transform="scale(1 1) rotate(0) translate(4 402)">
<title>finite_state_machine</title>
<polygon fill="white" stroke="none" points="-4,4 -4,-402 636.2,-402 636.2,4 -4,4"/>
<!-- qi -->
<g id="node1" class="node">
<title>qi</title>
<ellipse fill="black" stroke="black" cx="1.8" cy="-316" rx="1.8" ry="1.8"/>
</g>
<!-- 1 -->
<g id="node3" class="node">
<title>1</title>
<ellipse fill="none" stroke="black" cx="58.6" cy="-240" rx="18" ry="18"/>
<text text-anchor="middle" x="58.6" y="-236.3" font-family="Times,serif" font-size="14.00">1</text>
</g>
<!-- qi&#45;&gt;1 -->
<g id="edge1" class="edge">
<title>qi&#45;&gt;1</title>
<path fill="none" stroke="black" d="M3.57,-314.93C7.58,-309.37 26.28,-283.44 40.56,-263.63"/>
<polygon fill="black" stroke="black" points="43.25,-265.89 46.26,-255.73 37.57,-261.8 43.25,-265.89"/>
</g>
<!-- 2 -->
<g id="node4" class="node">
<title>2</title>
<ellipse fill="none" stroke="black" cx="234.6" cy="-223" rx="18" ry="18"/>
<text text-anchor="middle" x="234.6" y="-219.3" font-family="Times,serif" font-size="14.00">2</text>
</g>
<!-- qi&#45;&gt;2 -->
<g id="edge2" class="edge">
<title>qi&#45;&gt;2</title>
<path fill="none" stroke="black" d="M3.88,-316.13C14.57,-317.41 102,-326.78 164.6,-301 188.86,-291.01 207.79,-267.28 219.64,-248.6"/>
<polygon fill="black" stroke="black" points="222.56,-250.53 224.7,-240.16 216.55,-246.93 222.56,-250.53"/>
</g>
<!-- qa -->
<g id="node2" class="node">
<title>qa</title>
<ellipse fill="black" stroke="black" cx="630.4" cy="-187" rx="1.8" ry="1.8"/>
</g>
<!-- 1&#45;&gt;2 -->
<g id="edge6" class="edge">
<title>1&#45;&gt;2</title>
<path fill="none" stroke="black" d="M76.88,-237.85C90.83,-236.15 110.96,-233.78 128.6,-232 154.47,-229.39 183.97,-226.91 205.11,-225.21"/>
<polygon fill="black" stroke="black" points="205.29,-228.71 214.98,-224.43 204.74,-221.73 205.29,-228.71"/>
<text text-anchor="middle" x="146.6" y="-235.8" font-family="Times,serif" font-size="14.00">C0</text>
</g>
<!-- 5 -->
<g id="node7" class="node">
<title>5</title>
<ellipse fill="none" stroke="black" cx="573.6" cy="-129" rx="18" ry="18"/>
<text text-anchor="middle" x="573.6" y="-125.3" font-family="Times,serif" font-size="14.00">5</text>
</g>
<!-- 1&#45;&gt;5 -->
<g id="edge15" class="edge">
<title>1&#45;&gt;5</title>
<path fill="none" stroke="black" d="M68.51,-255.58C91.01,-292.64 154.03,-383 233.6,-383 233.6,-383 233.6,-383 452.6,-383 550.85,-383 568.78,-225.7 571.96,-158.67"/>
<polygon fill="black" stroke="black" points="575.45,-158.91 572.34,-148.78 568.45,-158.64 575.45,-158.91"/>
<text text-anchor="middle" x="316.6" y="-386.8" font-family="Times,serif" font-size="14.00">C1</text>
</g>
<!-- 7 -->
<g id="node8" class="node">
<title>7</title>
<ellipse fill="none" stroke="black" cx="146.6" cy="-274" rx="18" ry="18"/>
<text text-anchor="middle" x="146.6" y="-270.3" font-family="Times,serif" font-size="14.00">7</text>
</g>
<!-- 1&#45;&gt;7 -->
<g id="edge10" class="edge">
<title>1&#45;&gt;7</title>
<path fill="none" stroke="black" d="M75.78,-246.4C87.91,-251.19 104.78,-257.86 118.91,-263.45"/>
<polygon fill="black" stroke="black" points="117.5,-266.66 128.09,-267.08 120.08,-260.15 117.5,-266.66"/>
<text text-anchor="middle" x="102.6" y="-264.8" font-family="Times,serif" font-size="14.00">C3</text>
</g>
<!-- 6 -->
<g id="node9" class="node">
<title>6</title>
<ellipse fill="none" stroke="black" cx="146.6" cy="-169" rx="18" ry="18"/>
<text text-anchor="middle" x="146.6" y="-165.3" font-family="Times,serif" font-size="14.00">6</text>
</g>
<!-- 1&#45;&gt;6 -->
<g id="edge12" class="edge">
<title>1&#45;&gt;6</title>
<path fill="none" stroke="black" d="M68.51,-224.87C74.84,-215.11 84.06,-202.67 94.6,-194 101.8,-188.08 110.64,-183.12 118.93,-179.22"/>
<polygon fill="black" stroke="black" points="120.15,-182.51 127.93,-175.32 117.36,-176.09 120.15,-182.51"/>
<text text-anchor="middle" x="102.6" y="-197.8" font-family="Times,serif" font-size="14.00">C2</text>
</g>
<!-- 8 -->
<g id="node10" class="node">
<title>8</title>
<ellipse fill="none" stroke="black" cx="146.6" cy="-115" rx="18" ry="18"/>
<text text-anchor="middle" x="146.6" y="-111.3" font-family="Times,serif" font-size="14.00">8</text>
</g>
<!-- 1&#45;&gt;8 -->
<g id="edge17" class="edge">
<title>1&#45;&gt;8</title>
<path fill="none" stroke="black" d="M65.52,-222.98C71.49,-207.14 81.65,-183.3 94.6,-165 102.83,-153.38 113.94,-142.12 123.69,-133.24"/>
<polygon fill="black" stroke="black" points="125.8,-136.04 131,-126.81 121.18,-130.78 125.8,-136.04"/>
<text text-anchor="middle" x="102.6" y="-168.8" font-family="Times,serif" font-size="14.00">s</text>
</g>
<!-- 3 -->
<g id="node5" class="node">
<title>3</title>
<ellipse fill="none" stroke="black" cx="316.6" cy="-231" rx="18" ry="18"/>
<text text-anchor="middle" x="316.6" y="-227.3" font-family="Times,serif" font-size="14.00">3</text>
</g>
<!-- 2&#45;&gt;3 -->
<g id="edge7" class="edge">
<title>2&#45;&gt;3</title>
<path fill="none" stroke="black" d="M252.96,-224.74C262.92,-225.73 275.67,-227.01 287.06,-228.15"/>
<polygon fill="black" stroke="black" points="286.47,-231.6 296.77,-229.12 287.17,-224.64 286.47,-231.6"/>
<text text-anchor="middle" x="275.6" y="-231.8" font-family="Times,serif" font-size="14.00">V</text>
</g>
<!-- 3&#45;&gt;qa -->
<g id="edge3" class="edge">
<title>3&#45;&gt;qa</title>
<path fill="none" stroke="black" d="M322.14,-248.31C331.67,-280.21 356.95,-345 405.1,-345 405.1,-345 405.1,-345 574.6,-345 605.22,-345 622.58,-237.73 627.75,-199.96"/>
<polygon fill="black" stroke="black" points="631.19,-200.64 629,-190.28 624.25,-199.75 631.19,-200.64"/>
</g>
<!-- 4 -->
<g id="node6" class="node">
<title>4</title>
<ellipse fill="none" stroke="black" cx="495.6" cy="-187" rx="18" ry="18"/>
<text text-anchor="middle" x="495.6" y="-183.3" font-family="Times,serif" font-size="14.00">4</text>
</g>
<!-- 3&#45;&gt;4 -->
<g id="edge8" class="edge">
<title>3&#45;&gt;4</title>
<path fill="none" stroke="black" d="M324.83,-214.79C335.13,-193.94 356.22,-158.68 386.6,-144 415.85,-129.86 451.03,-150.52 473.1,-167.79"/>
<polygon fill="black" stroke="black" points="470.6,-170.26 480.54,-173.91 475.04,-164.85 470.6,-170.26"/>
<text text-anchor="middle" x="406.1" y="-147.8" font-family="Times,serif" font-size="14.00">C8</text>
</g>
<!-- 9 -->
<g id="node11" class="node">
<title>9</title>
<ellipse fill="none" stroke="black" cx="406.1" cy="-299" rx="18" ry="18"/>
<text text-anchor="middle" x="406.1" y="-295.3" font-family="Times,serif" font-size="14.00">9</text>
</g>
<!-- 3&#45;&gt;9 -->
<g id="edge20" class="edge">
<title>3&#45;&gt;9</title>
<path fill="none" stroke="black" d="M331.27,-241.62C344.93,-252.24 366.18,-268.75 382.37,-281.34"/>
<polygon fill="black" stroke="black" points="380,-283.92 390.04,-287.3 384.29,-278.4 380,-283.92"/>
<text text-anchor="middle" x="360.6" y="-273.8" font-family="Times,serif" font-size="14.00">l</text>
</g>
<!-- 10 -->
<g id="node12" class="node">
<title>10</title>
<ellipse fill="none" stroke="black" cx="406.1" cy="-244" rx="19.5" ry="19.5"/>
<text text-anchor="middle" x="406.1" y="-240.3" font-family="Times,serif" font-size="14.00">10</text>
</g>
<!-- 3&#45;&gt;10 -->
<g id="edge21" class="edge">
<title>3&#45;&gt;10</title>
<path fill="none" stroke="black" d="M334.89,-233.57C346.37,-235.27 361.74,-237.56 375.17,-239.55"/>
<polygon fill="black" stroke="black" points="374.43,-242.98 384.84,-240.99 375.46,-236.06 374.43,-242.98"/>
<text text-anchor="middle" x="360.6" y="-242.8" font-family="Times,serif" font-size="14.00">s</text>
</g>
<!-- 11 -->
<g id="node13" class="node">
<title>11</title>
<ellipse fill="none" stroke="black" cx="406.1" cy="-187" rx="19.5" ry="19.5"/>
<text text-anchor="middle" x="406.1" y="-183.3" font-family="Times,serif" font-size="14.00">11</text>
</g>
<!-- 3&#45;&gt;11 -->
<g id="edge22" class="edge">
<title>3&#45;&gt;11</title>
<path fill="none" stroke="black" d="M333.24,-223.13C345.66,-216.89 363.32,-208.01 378.03,-200.61"/>
<polygon fill="black" stroke="black" points="379.38,-203.85 386.74,-196.23 376.24,-197.6 379.38,-203.85"/>
<text text-anchor="middle" x="360.6" y="-216.8" font-family="Times,serif" font-size="14.00">C7</text>
</g>
<!-- 4&#45;&gt;qa -->
<g id="edge4" class="edge">
<title>4&#45;&gt;qa</title>
<path fill="none" stroke="black" d="M513.96,-187C541.15,-187 593.13,-187 616.93,-187"/>
<polygon fill="black" stroke="black" points="616.75,-190.5 626.75,-187 616.75,-183.5 616.75,-190.5"/>
</g>
<!-- 4&#45;&gt;5 -->
<g id="edge9" class="edge">
<title>4&#45;&gt;5</title>
<path fill="none" stroke="black" d="M510.03,-175.46C516.46,-170.04 524.33,-163.57 531.6,-158 537.18,-153.72 543.32,-149.26 549.11,-145.15"/>
<polygon fill="black" stroke="black" points="550.94,-148.14 557.12,-139.54 546.92,-142.41 550.94,-148.14"/>
<text text-anchor="middle" x="534.6" y="-161.8" font-family="Times,serif" font-size="14.00">s</text>
</g>
<!-- 5&#45;&gt;qa -->
<g id="edge5" class="edge">
<title>5&#45;&gt;qa</title>
<path fill="none" stroke="black" d="M586.76,-141.87C597.16,-152.88 611.86,-168.44 621,-178.11"/>
<polygon fill="black" stroke="black" points="618.28,-180.33 627.69,-185.19 623.37,-175.52 618.28,-180.33"/>
</g>
<!-- 5&#45;&gt;2 -->
<g id="edge16" class="edge">
<title>5&#45;&gt;2</title>
<path fill="none" stroke="black" d="M560.46,-116.23C546.45,-102.92 522.05,-84 496.6,-84 315.6,-84 315.6,-84 315.6,-84 265.42,-84 246.25,-152.88 239.29,-193.67"/>
<polygon fill="black" stroke="black" points="235.86,-192.92 237.8,-203.33 242.78,-193.98 235.86,-192.92"/>
<text text-anchor="middle" x="406.1" y="-87.8" font-family="Times,serif" font-size="14.00">r</text>
</g>
<!-- 7&#45;&gt;2 -->
<g id="edge11" class="edge">
<title>7&#45;&gt;2</title>
<path fill="none" stroke="black" d="M162.58,-265.12C175.33,-257.56 193.89,-246.55 208.84,-237.68"/>
<polygon fill="black" stroke="black" points="210.39,-240.84 217.2,-232.72 206.81,-234.82 210.39,-240.84"/>
<text text-anchor="middle" x="190.6" y="-257.8" font-family="Times,serif" font-size="14.00">w</text>
</g>
<!-- 6&#45;&gt;2 -->
<g id="edge13" class="edge">
<title>6&#45;&gt;2</title>
<path fill="none" stroke="black" d="M163.75,-175.73C174.05,-180.31 187.5,-186.83 198.6,-194 203.24,-197 207.97,-200.53 212.38,-204.08"/>
<polygon fill="black" stroke="black" points="209.8,-206.49 219.71,-210.24 214.31,-201.13 209.8,-206.49"/>
<text text-anchor="middle" x="190.6" y="-197.8" font-family="Times,serif" font-size="14.00">l</text>
</g>
<!-- 6&#45;&gt;5 -->
<g id="edge14" class="edge">
<title>6&#45;&gt;5</title>
<path fill="none" stroke="black" d="M157.24,-153.97C179.33,-119.56 231.88,-38 233.6,-38 233.6,-38 233.6,-38 496.6,-38 530.07,-38 551.68,-74.71 562.99,-101.5"/>
<polygon fill="black" stroke="black" points="559.61,-102.46 566.53,-110.48 566.12,-99.89 559.61,-102.46"/>
</g>
<!-- 8&#45;&gt;2 -->
<g id="edge19" class="edge">
<title>8&#45;&gt;2</title>
<path fill="none" stroke="black" d="M160.55,-126.7C171.37,-136.81 186.86,-152.1 198.6,-167 206.18,-176.63 213.53,-187.97 219.52,-197.93"/>
<polygon fill="black" stroke="black" points="216.39,-199.5 224.46,-206.36 222.43,-195.97 216.39,-199.5"/>
<text text-anchor="middle" x="190.6" y="-170.8" font-family="Times,serif" font-size="14.00">C5</text>
</g>
<!-- 8&#45;&gt;5 -->
<g id="edge18" class="edge">
<title>8&#45;&gt;5</title>
<path fill="none" stroke="black" d="M150.37,-97.16C154.32,-77.12 163.35,-44.7 182.6,-24 199.66,-5.65 208.55,0 233.6,0 233.6,0 233.6,0 496.6,0 542.65,0 561.36,-61.79 568.52,-99.84"/>
<polygon fill="black" stroke="black" points="565,-100.03 570.13,-109.3 571.9,-98.85 565,-100.03"/>
<text text-anchor="middle" x="360.6" y="-3.8" font-family="Times,serif" font-size="14.00">C4</text>
</g>
<!-- 9&#45;&gt;4 -->
<g id="edge23" class="edge">
<title>9&#45;&gt;4</title>
<path fill="none" stroke="black" d="M418.79,-286.25C429.71,-274.15 446.3,-255.27 459.6,-238 466.09,-229.56 472.81,-220 478.6,-211.46"/>
<polygon fill="black" stroke="black" points="481.42,-213.55 484.06,-203.29 475.6,-209.66 481.42,-213.55"/>
<text text-anchor="middle" x="451.6" y="-260.8" font-family="Times,serif" font-size="14.00">C6</text>
</g>
<!-- 10&#45;&gt;4 -->
<g id="edge24" class="edge">
<title>10&#45;&gt;4</title>
<path fill="none" stroke="black" d="M422.74,-233.81C436.05,-225.14 455.37,-212.55 470.63,-202.61"/>
<polygon fill="black" stroke="black" points="472.23,-205.75 478.69,-197.36 468.4,-199.89 472.23,-205.75"/>
<text text-anchor="middle" x="451.6" y="-222.8" font-family="Times,serif" font-size="14.00">C4</text>
</g>
<!-- 11&#45;&gt;4 -->
<g id="edge25" class="edge">
<title>11&#45;&gt;4</title>
<path fill="none" stroke="black" d="M426.08,-187C437.71,-187 452.8,-187 465.87,-187"/>
<polygon fill="black" stroke="black" points="465.62,-190.5 475.62,-187 465.62,-183.5 465.62,-190.5"/>
<text text-anchor="middle" x="451.6" y="-190.8" font-family="Times,serif" font-size="14.00">th</text>
</g>
</g>
</svg>
