<?xml version="1.0" encoding="UTF-8" standalone="no"?>
<!DOCTYPE svg PUBLIC "-//W3C//DTD SVG 1.1//EN"
 "http://www.w3.org/Graphics/SVG/1.1/DTD/svg11.dtd">
<!-- Generated by graphviz version 7.0.5 (20221223.1930)
 -->
<!-- Title: finite_state_machine Pages: 1 -->
<svg width="788pt" height="256pt"
 viewBox="0.00 0.00 788.20 256.00" xmlns="http://www.w3.org/2000/svg" xmlns:xlink="http://www.w3.org/1999/xlink">
<g id="graph0" class="graph" transform="scale(1 1) rotate(0) translate(4 252)">
<title>finite_state_machine</title>
<polygon fill="white" stroke="none" points="-4,4 -4,-252 784.2,-252 784.2,4 -4,4"/>
<!-- qi -->
<g id="node1" class="node">
<title>qi</title>
<ellipse fill="black" stroke="black" cx="1.8" cy="-48" rx="1.8" ry="1.8"/>
</g>
<!-- 1 -->
<g id="node3" class="node">
<title>1</title>
<ellipse fill="none" stroke="black" cx="58.6" cy="-48" rx="18" ry="18"/>
<text text-anchor="middle" x="58.6" y="-44.3" font-family="Times,serif" font-size="14.00">1</text>
</g>
<!-- qi&#45;&gt;1 -->
<g id="edge1" class="edge">
<title>qi&#45;&gt;1</title>
<path fill="none" stroke="black" d="M3.75,-48C6.96,-48 17.8,-48 28.92,-48"/>
<polygon fill="black" stroke="black" points="28.79,-51.5 38.79,-48 28.78,-44.5 28.79,-51.5"/>
</g>
<!-- qa -->
<g id="node2" class="node">
<title>qa</title>
<ellipse fill="black" stroke="black" cx="778.4" cy="-73" rx="1.8" ry="1.8"/>
</g>
<!-- 3 -->
<g id="node5" class="node">
<title>3</title>
<ellipse fill="none" stroke="black" cx="239.6" cy="-102" rx="18" ry="18"/>
<text text-anchor="middle" x="239.6" y="-98.3" font-family="Times,serif" font-size="14.00">3</text>
</g>
<!-- 1&#45;&gt;3 -->
<g id="edge3" class="edge">
<title>1&#45;&gt;3</title>
<path fill="none" stroke="black" d="M74.52,-57.21C80.59,-60.65 87.76,-64.36 94.6,-67 133.42,-81.96 180.66,-91.99 210.19,-97.34"/>
<polygon fill="black" stroke="black" points="209.37,-100.75 219.83,-99.03 210.58,-93.86 209.37,-100.75"/>
<text text-anchor="middle" x="157.6" y="-93.8" font-family="Times,serif" font-size="14.00">NP</text>
</g>
<!-- 2 -->
<g id="node6" class="node">
<title>2</title>
<ellipse fill="none" stroke="black" cx="157.6" cy="-48" rx="18" ry="18"/>
<text text-anchor="middle" x="157.6" y="-44.3" font-family="Times,serif" font-size="14.00">2</text>
</g>
<!-- 1&#45;&gt;2 -->
<g id="edge4" class="edge">
<title>1&#45;&gt;2</title>
<path fill="none" stroke="black" d="M76.94,-48C91.15,-48 111.54,-48 128.14,-48"/>
<polygon fill="black" stroke="black" points="127.89,-51.5 137.89,-48 127.89,-44.5 127.89,-51.5"/>
<text text-anchor="middle" x="108.1" y="-51.8" font-family="Times,serif" font-size="14.00">DET</text>
</g>
<!-- 9 -->
<g id="node4" class="node">
<title>9</title>
<ellipse fill="none" stroke="black" cx="721.6" cy="-73" rx="18" ry="18"/>
<text text-anchor="middle" x="721.6" y="-69.3" font-family="Times,serif" font-size="14.00">9</text>
</g>
<!-- 9&#45;&gt;qa -->
<g id="edge2" class="edge">
<title>9&#45;&gt;qa</title>
<path fill="none" stroke="black" d="M739.94,-73C748.02,-73 757.46,-73 764.85,-73"/>
<polygon fill="black" stroke="black" points="764.69,-76.5 774.69,-73 764.69,-69.5 764.69,-76.5"/>
</g>
<!-- 9&#45;&gt;1 -->
<g id="edge18" class="edge">
<title>9&#45;&gt;1</title>
<path fill="none" stroke="black" d="M712.38,-57.16C699.96,-35.69 674.26,0 640.6,0 156.6,0 156.6,0 156.6,0 128.73,0 100.59,-16.12 81.85,-29.67"/>
<polygon fill="black" stroke="black" points="79.76,-26.87 73.92,-35.71 83.99,-32.44 79.76,-26.87"/>
<text text-anchor="middle" x="381.6" y="-3.8" font-family="Times,serif" font-size="14.00">CNJ</text>
</g>
<!-- 4 -->
<g id="node7" class="node">
<title>4</title>
<ellipse fill="none" stroke="black" cx="330.6" cy="-112" rx="18" ry="18"/>
<text text-anchor="middle" x="330.6" y="-108.3" font-family="Times,serif" font-size="14.00">4</text>
</g>
<!-- 9&#45;&gt;4 -->
<g id="edge17" class="edge">
<title>9&#45;&gt;4</title>
<path fill="none" stroke="black" d="M719.8,-91.35C716.88,-133.38 703.33,-233 640.6,-233 431.6,-233 431.6,-233 431.6,-233 383.65,-233 354.37,-175.84 340.75,-140.09"/>
<polygon fill="black" stroke="black" points="344.07,-138.98 337.39,-130.76 337.49,-141.35 344.07,-138.98"/>
<text text-anchor="middle" x="531.6" y="-236.8" font-family="Times,serif" font-size="14.00">CNJ</text>
</g>
<!-- 3&#45;&gt;4 -->
<g id="edge6" class="edge">
<title>3&#45;&gt;4</title>
<path fill="none" stroke="black" d="M257.76,-103.93C270.07,-105.31 286.94,-107.21 301.24,-108.81"/>
<polygon fill="black" stroke="black" points="300.66,-112.27 310.99,-109.91 301.44,-105.31 300.66,-112.27"/>
<text text-anchor="middle" x="285.1" y="-110.8" font-family="Times,serif" font-size="14.00">BV</text>
</g>
<!-- 2&#45;&gt;3 -->
<g id="edge5" class="edge">
<title>2&#45;&gt;3</title>
<path fill="none" stroke="black" d="M174.02,-55.66C182.91,-60.3 194.16,-66.55 203.6,-73 208.16,-76.12 212.85,-79.7 217.25,-83.26"/>
<polygon fill="black" stroke="black" points="214.68,-85.68 224.59,-89.41 219.18,-80.31 214.68,-85.68"/>
<text text-anchor="middle" x="198.6" y="-76.8" font-family="Times,serif" font-size="14.00">N</text>
</g>
<!-- 5 -->
<g id="node8" class="node">
<title>5</title>
<ellipse fill="none" stroke="black" cx="432.6" cy="-95" rx="18" ry="18"/>
<text text-anchor="middle" x="432.6" y="-91.3" font-family="Times,serif" font-size="14.00">5</text>
</g>
<!-- 4&#45;&gt;5 -->
<g id="edge7" class="edge">
<title>4&#45;&gt;5</title>
<path fill="none" stroke="black" d="M348.56,-109.12C363.58,-106.56 385.78,-102.79 403.45,-99.79"/>
<polygon fill="black" stroke="black" points="403.79,-103.28 413.06,-98.15 402.62,-96.38 403.79,-103.28"/>
<text text-anchor="middle" x="381.6" y="-109.8" font-family="Times,serif" font-size="14.00">ADV</text>
</g>
<!-- 4&#45;&gt;5 -->
<g id="edge8" class="edge">
<title>4&#45;&gt;5</title>
<path fill="none" stroke="black" d="M346.8,-103.4C352.77,-100.46 359.82,-97.53 366.6,-96 378.37,-93.34 391.64,-92.73 403.1,-92.92"/>
<polygon fill="black" stroke="black" points="402.62,-96.4 412.75,-93.29 402.9,-89.41 402.62,-96.4"/>
</g>
<!-- 6 -->
<g id="node9" class="node">
<title>6</title>
<ellipse fill="none" stroke="black" cx="531.6" cy="-146" rx="18" ry="18"/>
<text text-anchor="middle" x="531.6" y="-142.3" font-family="Times,serif" font-size="14.00">6</text>
</g>
<!-- 5&#45;&gt;6 -->
<g id="edge9" class="edge">
<title>5&#45;&gt;6</title>
<path fill="none" stroke="black" d="M449.18,-103.19C464.32,-111.15 487.54,-123.36 505.32,-132.71"/>
<polygon fill="black" stroke="black" points="503.23,-135.57 513.71,-137.12 506.49,-129.37 503.23,-135.57"/>
<text text-anchor="middle" x="482.1" y="-129.8" font-family="Times,serif" font-size="14.00">DET</text>
</g>
<!-- 7 -->
<g id="node10" class="node">
<title>7</title>
<ellipse fill="none" stroke="black" cx="639.6" cy="-99" rx="18" ry="18"/>
<text text-anchor="middle" x="639.6" y="-95.3" font-family="Times,serif" font-size="14.00">7</text>
</g>
<!-- 5&#45;&gt;7 -->
<g id="edge10" class="edge">
<title>5&#45;&gt;7</title>
<path fill="none" stroke="black" d="M451.08,-95.34C486.4,-96.03 566.6,-97.6 609.79,-98.44"/>
<polygon fill="black" stroke="black" points="609.59,-101.93 619.65,-98.63 609.72,-94.94 609.59,-101.93"/>
<text text-anchor="middle" x="531.6" y="-100.8" font-family="Times,serif" font-size="14.00">DET</text>
</g>
<!-- 8 -->
<g id="node11" class="node">
<title>8</title>
<ellipse fill="none" stroke="black" cx="585.6" cy="-33" rx="18" ry="18"/>
<text text-anchor="middle" x="585.6" y="-29.3" font-family="Times,serif" font-size="14.00">8</text>
</g>
<!-- 5&#45;&gt;8 -->
<g id="edge11" class="edge">
<title>5&#45;&gt;8</title>
<path fill="none" stroke="black" d="M449.76,-88.36C475.64,-77.74 526.67,-56.79 557.99,-43.93"/>
<polygon fill="black" stroke="black" points="559.24,-47.2 567.16,-40.16 556.58,-40.72 559.24,-47.2"/>
</g>
<!-- 6&#45;&gt;6 -->
<g id="edge12" class="edge">
<title>6&#45;&gt;6</title>
<path fill="none" stroke="black" d="M522.97,-162.29C520.89,-172.39 523.77,-182 531.6,-182 536.25,-182 539.15,-178.61 540.31,-173.74"/>
<polygon fill="black" stroke="black" points="543.81,-173.78 540.24,-163.8 536.81,-173.83 543.81,-173.78"/>
<text text-anchor="middle" x="531.6" y="-185.8" font-family="Times,serif" font-size="14.00">MOD</text>
</g>
<!-- 6&#45;&gt;7 -->
<g id="edge13" class="edge">
<title>6&#45;&gt;7</title>
<path fill="none" stroke="black" d="M548.24,-139.06C565.05,-131.61 592.07,-119.63 612.19,-110.71"/>
<polygon fill="black" stroke="black" points="613.44,-113.98 621.16,-106.73 610.6,-107.58 613.44,-113.98"/>
<text text-anchor="middle" x="585.6" y="-132.8" font-family="Times,serif" font-size="14.00">ADJ</text>
</g>
<!-- 7&#45;&gt;9 -->
<g id="edge14" class="edge">
<title>7&#45;&gt;9</title>
<path fill="none" stroke="black" d="M657.18,-93.61C667.58,-90.23 681.25,-85.79 693.23,-81.89"/>
<polygon fill="black" stroke="black" points="694.18,-85.27 702.61,-78.85 692.01,-78.61 694.18,-85.27"/>
<text text-anchor="middle" x="680.6" y="-90.8" font-family="Times,serif" font-size="14.00">N</text>
</g>
<!-- 8&#45;&gt;9 -->
<g id="edge16" class="edge">
<title>8&#45;&gt;9</title>
<path fill="none" stroke="black" d="M603.3,-37.99C625.79,-44.7 666.1,-56.73 693.1,-64.79"/>
<polygon fill="black" stroke="black" points="692.08,-68.14 702.66,-67.64 694.08,-61.43 692.08,-68.14"/>
<text text-anchor="middle" x="639.6" y="-56.8" font-family="Times,serif" font-size="14.00">ADJ</text>
</g>
<!-- 8&#45;&gt;8 -->
<g id="edge15" class="edge">
<title>8&#45;&gt;8</title>
<path fill="none" stroke="black" d="M576.28,-48.92C573.84,-59.15 576.95,-69 585.6,-69 590.87,-69 594.08,-65.34 595.24,-60.17"/>
<polygon fill="black" stroke="black" points="598.74,-60.33 594.97,-50.43 591.75,-60.52 598.74,-60.33"/>
<text text-anchor="middle" x="585.6" y="-72.8" font-family="Times,serif" font-size="14.00">MOD</text>
</g>
</g>
</svg>
