<?xml version="1.0" encoding="UTF-8" standalone="no"?>
<!DOCTYPE svg PUBLIC "-//W3C//DTD SVG 1.1//EN"
 "http://www.w3.org/Graphics/SVG/1.1/DTD/svg11.dtd">
<!-- Generated by graphviz version 7.0.5 (20221223.1930)
 -->
<!-- Title: finite_state_machine Pages: 1 -->
<svg width="360pt" height="46pt"
 viewBox="0.00 0.00 360.20 46.26" xmlns="http://www.w3.org/2000/svg" xmlns:xlink="http://www.w3.org/1999/xlink">
<g id="graph0" class="graph" transform="scale(1 1) rotate(0) translate(4 42.26)">
<title>finite_state_machine</title>
<polygon fill="white" stroke="none" points="-4,4 -4,-42.26 356.2,-42.26 356.2,4 -4,4"/>
<!-- qi -->
<g id="node1" class="node">
<title>qi</title>
<ellipse fill="black" stroke="black" cx="1.8" cy="-20.26" rx="1.8" ry="1.8"/>
</g>
<!-- 1 -->
<g id="node3" class="node">
<title>1</title>
<ellipse fill="none" stroke="black" cx="58.6" cy="-20.26" rx="18" ry="18"/>
<text text-anchor="middle" x="58.6" y="-16.56" font-family="Times,serif" font-size="14.00">1</text>
</g>
<!-- qi&#45;&gt;1 -->
<g id="edge1" class="edge">
<title>qi&#45;&gt;1</title>
<path fill="none" stroke="black" d="M3.75,-20.26C6.96,-20.26 17.8,-20.26 28.92,-20.26"/>
<polygon fill="black" stroke="black" points="28.79,-23.76 38.79,-20.26 28.78,-16.76 28.79,-23.76"/>
</g>
<!-- qa -->
<g id="node2" class="node">
<title>qa</title>
<ellipse fill="black" stroke="black" cx="350.4" cy="-20.26" rx="1.8" ry="1.8"/>
</g>
<!-- 2 -->
<g id="node4" class="node">
<title>2</title>
<ellipse fill="none" stroke="black" cx="137.6" cy="-20.26" rx="18" ry="18"/>
<text text-anchor="middle" x="137.6" y="-16.56" font-family="Times,serif" font-size="14.00">2</text>
</g>
<!-- 1&#45;&gt;2 -->
<g id="edge2" class="edge">
<title>1&#45;&gt;2</title>
<path fill="none" stroke="black" d="M77.07,-20.26C86.13,-20.26 97.43,-20.26 107.74,-20.26"/>
<polygon fill="black" stroke="black" points="107.68,-23.76 117.68,-20.26 107.68,-16.76 107.68,-23.76"/>
<text text-anchor="middle" x="98.1" y="-24.06" font-family="Times,serif" font-size="14.00">h</text>
</g>
<!-- 2&#45;&gt;1 -->
<g id="edge3" class="edge">
<title>2&#45;&gt;1</title>
<path fill="none" stroke="black" d="M123.05,-8.87C115.03,-3.49 104.53,1.26 94.6,-1.26 90.98,-2.18 87.33,-3.56 83.83,-5.16"/>
<polygon fill="black" stroke="black" points="82.46,-1.92 75.25,-9.69 85.73,-8.11 82.46,-1.92"/>
<text text-anchor="middle" x="98.1" y="-5.06" font-family="Times,serif" font-size="14.00">a</text>
</g>
<!-- 3 -->
<g id="node5" class="node">
<title>3</title>
<ellipse fill="none" stroke="black" cx="216.6" cy="-20.26" rx="18" ry="18"/>
<text text-anchor="middle" x="216.6" y="-16.56" font-family="Times,serif" font-size="14.00">3</text>
</g>
<!-- 2&#45;&gt;3 -->
<g id="edge4" class="edge">
<title>2&#45;&gt;3</title>
<path fill="none" stroke="black" d="M156.07,-20.26C165.13,-20.26 176.43,-20.26 186.74,-20.26"/>
<polygon fill="black" stroke="black" points="186.68,-23.76 196.68,-20.26 186.68,-16.76 186.68,-23.76"/>
<text text-anchor="middle" x="177.1" y="-24.06" font-family="Times,serif" font-size="14.00">a</text>
</g>
<!-- 4 -->
<g id="node6" class="node">
<title>4</title>
<ellipse fill="none" stroke="black" cx="293.6" cy="-20.26" rx="18" ry="18"/>
<text text-anchor="middle" x="293.6" y="-16.56" font-family="Times,serif" font-size="14.00">4</text>
</g>
<!-- 3&#45;&gt;4 -->
<g id="edge5" class="edge">
<title>3&#45;&gt;4</title>
<path fill="none" stroke="black" d="M235,-20.26C243.61,-20.26 254.23,-20.26 264,-20.26"/>
<polygon fill="black" stroke="black" points="263.79,-23.76 273.79,-20.26 263.79,-16.76 263.79,-23.76"/>
<text text-anchor="middle" x="255.1" y="-24.06" font-family="Times,serif" font-size="14.00">!</text>
</g>
<!-- 4&#45;&gt;qa -->
<g id="edge6" class="edge">
<title>4&#45;&gt;qa</title>
<path fill="none" stroke="black" d="M311.94,-20.26C320.02,-20.26 329.46,-20.26 336.85,-20.26"/>
<polygon fill="black" stroke="black" points="336.69,-23.76 346.69,-20.26 336.69,-16.76 336.69,-23.76"/>
</g>
</g>
</svg>
