<?xml version="1.0" encoding="UTF-8" standalone="no"?>
<!DOCTYPE svg PUBLIC "-//W3C//DTD SVG 1.1//EN"
 "http://www.w3.org/Graphics/SVG/1.1/DTD/svg11.dtd">
<!-- Generated by graphviz version 7.0.5 (20221223.1930)
 -->
<!-- Title: finite_state_machine Pages: 1 -->
<svg width="360pt" height="74pt"
 viewBox="0.00 0.00 360.20 74.00" xmlns="http://www.w3.org/2000/svg" xmlns:xlink="http://www.w3.org/1999/xlink">
<g id="graph0" class="graph" transform="scale(1 1) rotate(0) translate(4 70)">
<title>finite_state_machine</title>
<polygon fill="white" stroke="none" points="-4,4 -4,-70 356.2,-70 356.2,4 -4,4"/>
<!-- qi -->
<g id="node1" class="node">
<title>qi</title>
<ellipse fill="black" stroke="black" cx="1.8" cy="-18" rx="1.8" ry="1.8"/>
</g>
<!-- 1 -->
<g id="node3" class="node">
<title>1</title>
<ellipse fill="none" stroke="black" cx="58.6" cy="-18" rx="18" ry="18"/>
<text text-anchor="middle" x="58.6" y="-14.3" font-family="Times,serif" font-size="14.00">1</text>
</g>
<!-- qi&#45;&gt;1 -->
<g id="edge1" class="edge">
<title>qi&#45;&gt;1</title>
<path fill="none" stroke="black" d="M3.75,-18C6.96,-18 17.8,-18 28.92,-18"/>
<polygon fill="black" stroke="black" points="28.79,-21.5 38.79,-18 28.78,-14.5 28.79,-21.5"/>
</g>
<!-- qa -->
<g id="node2" class="node">
<title>qa</title>
<ellipse fill="black" stroke="black" cx="350.4" cy="-18" rx="1.8" ry="1.8"/>
</g>
<!-- 2 -->
<g id="node4" class="node">
<title>2</title>
<ellipse fill="none" stroke="black" cx="137.6" cy="-48" rx="18" ry="18"/>
<text text-anchor="middle" x="137.6" y="-44.3" font-family="Times,serif" font-size="14.00">2</text>
</g>
<!-- 1&#45;&gt;2 -->
<g id="edge2" class="edge">
<title>1&#45;&gt;2</title>
<path fill="none" stroke="black" d="M75.93,-24.36C85.73,-28.18 98.44,-33.13 109.69,-37.52"/>
<polygon fill="black" stroke="black" points="108.3,-40.73 118.88,-41.1 110.84,-34.21 108.3,-40.73"/>
<text text-anchor="middle" x="98.1" y="-36.8" font-family="Times,serif" font-size="14.00">h</text>
</g>
<!-- 3 -->
<g id="node5" class="node">
<title>3</title>
<ellipse fill="none" stroke="black" cx="216.6" cy="-18" rx="18" ry="18"/>
<text text-anchor="middle" x="216.6" y="-14.3" font-family="Times,serif" font-size="14.00">3</text>
</g>
<!-- 2&#45;&gt;3 -->
<g id="edge3" class="edge">
<title>2&#45;&gt;3</title>
<path fill="none" stroke="black" d="M154.93,-41.64C164.73,-37.82 177.44,-32.87 188.69,-28.48"/>
<polygon fill="black" stroke="black" points="189.84,-31.79 197.88,-24.9 187.3,-25.27 189.84,-31.79"/>
<text text-anchor="middle" x="177.1" y="-36.8" font-family="Times,serif" font-size="14.00">a</text>
</g>
<!-- 3&#45;&gt;1 -->
<g id="edge4" class="edge">
<title>3&#45;&gt;1</title>
<path fill="none" stroke="black" d="M198.23,-18C171.59,-18 120.37,-18 88.2,-18"/>
<polygon fill="black" stroke="black" points="88.4,-14.5 78.4,-18 88.4,-21.5 88.4,-14.5"/>
</g>
<!-- 4 -->
<g id="node6" class="node">
<title>4</title>
<ellipse fill="none" stroke="black" cx="293.6" cy="-18" rx="18" ry="18"/>
<text text-anchor="middle" x="293.6" y="-14.3" font-family="Times,serif" font-size="14.00">4</text>
</g>
<!-- 3&#45;&gt;4 -->
<g id="edge5" class="edge">
<title>3&#45;&gt;4</title>
<path fill="none" stroke="black" d="M235,-18C243.61,-18 254.23,-18 264,-18"/>
<polygon fill="black" stroke="black" points="263.79,-21.5 273.79,-18 263.79,-14.5 263.79,-21.5"/>
<text text-anchor="middle" x="255.1" y="-21.8" font-family="Times,serif" font-size="14.00">!</text>
</g>
<!-- 4&#45;&gt;qa -->
<g id="edge6" class="edge">
<title>4&#45;&gt;qa</title>
<path fill="none" stroke="black" d="M311.94,-18C320.02,-18 329.46,-18 336.85,-18"/>
<polygon fill="black" stroke="black" points="336.69,-21.5 346.69,-18 336.69,-14.5 336.69,-21.5"/>
</g>
</g>
</svg>
